<?xml version="1.0" encoding="utf-8"?>
<!-- Generator: Adobe Illustrator 22.0.1, SVG Export Plug-In . SVG Version: 6.00 Build 0)  -->
<svg version="1.1"
	 id="svg2" inkscape:output_extension="org.inkscape.output.svg.inkscape" inkscape:version="0.46+devel" sodipodi:docname="WCAlogo.svg" sodipodi:version="0.32" xmlns:cc="http://creativecommons.org/ns#" xmlns:dc="http://purl.org/dc/elements/1.1/" xmlns:inkscape="http://www.inkscape.org/namespaces/inkscape" xmlns:rdf="http://www.w3.org/1999/02/22-rdf-syntax-ns#" xmlns:sodipodi="http://sodipodi.sourceforge.net/DTD/sodipodi-0.dtd" xmlns:svg="http://www.w3.org/2000/svg"
	 xmlns="http://www.w3.org/2000/svg" xmlns:xlink="http://www.w3.org/1999/xlink" x="0px" y="0px" viewBox="0 0 650.1 349.5"
	 style="enable-background:new 0 0 650.1 349.5;" xml:space="preserve">
<defs>
	
	
		<inkscape:perspective  id="perspective10" inkscape:persp3d-origin="372.04724 : 350.78739 : 1" inkscape:vp_x="0 : 526.18109 : 1" inkscape:vp_y="0 : 1000 : 0" inkscape:vp_z="744.09448 : 526.18109 : 1" sodipodi:type="inkscape:persp3d">
		</inkscape:perspective>
	
		<inkscape:perspective  id="perspective2708" inkscape:persp3d-origin="0.5 : 0.33333333 : 1" inkscape:vp_x="0 : 0.5 : 1" inkscape:vp_y="0 : 1000 : 0" inkscape:vp_z="1 : 0.5 : 1" sodipodi:type="inkscape:persp3d">
		</inkscape:perspective>
</defs>
<sodipodi:namedview  bordercolor="#666666" borderopacity="1.0" gridtolerance="10000" guidetolerance="10" id="base" inkscape:current-layer="layer1" inkscape:cx="880.50941" inkscape:cy="-106.135" inkscape:document-units="px" inkscape:guide-bbox="true" inkscape:pageopacity="0.0" inkscape:pageshadow="2" inkscape:window-height="951" inkscape:window-width="1280" inkscape:window-x="0" inkscape:window-y="25" inkscape:zoom="0.49497475" objecttolerance="10" pagecolor="#ffffff" showgrid="false" showguides="true">
	</sodipodi:namedview>
<g>
	<path id="path2716_1_" d="M84.2,348.9c-0.1-0.3-0.2-6-0.1-12.6l0.1-12.1h12.3c13.6,0,14.9,0.2,17.3,2.7c1.1,1.1,1.2,1.6,1.3,4.3
		c0.2,3.9-0.6,5.5-3.4,6.9c-1.7,0.9-2.8,1.1-7.3,1.3c-4.3,0.2-5.3,0.3-5.3,0.9c0,0.4,2.8,2.2,6.6,4.5c3.6,2.1,6.8,4,7.1,4.3
		s-0.9,0.4-3.6,0.4h-4.1l-7.5-4.4c-4.1-2.4-7.8-4.3-8.1-4.2c-0.5,0.2-0.6,1.2-0.6,4.4v4.2h-2.3C85.2,349.4,84.3,349.2,84.2,348.9
		L84.2,348.9z M108.7,334.8c1.3-0.7,1.5-1.2,1.5-3.1c0-1.2-0.2-1.9-0.9-2.5c-0.8-0.7-1.7-0.8-10-0.9c-6.6-0.1-9.3,0-9.7,0.4
		c-0.4,0.3-0.6,1.3-0.6,2.9c0,4-0.7,3.7,9.6,3.7C104.7,335.3,108,335.1,108.7,334.8L108.7,334.8z M342.4,349.2
		c0-0.6,16.8-24.4,17.5-24.8c1.2-0.6,2.7-0.5,3.8,0.4c0.9,0.7,17,23.7,17,24.3c0,0.4-4.7,0.3-5.2-0.1c-0.2-0.2-1.2-1.5-2.2-2.9
		c-2.8-4.2-1.9-3.9-11.5-3.9c-4.6,0-8.6,0.2-8.9,0.4c-0.3,0.2-1.5,1.7-2.7,3.4l-2.2,3.1l-2.8,0.1
		C343.6,349.4,342.4,349.4,342.4,349.2L342.4,349.2z M366.7,337.8c0.4-0.6-4.4-7.5-5.2-7.5c-0.8,0-5,6.1-5,7.2c0,0.7,0.5,0.7,5,0.7
		C364.4,338.2,366.6,338,366.7,337.8L366.7,337.8z M382.7,347.4v-2.1l10.8-0.1c9.9-0.1,10.8-0.2,11.7-0.9c0.6-0.6,0.9-1.3,0.9-2.6
		c0-3-0.8-3.2-10-3.5c-8.5-0.3-10.4-0.7-12.3-3c-0.9-1-1-1.7-1-3.9c0-5.3,2.1-6.8,10-7.1l4.9-0.2v2.1v2.1h-3.2
		c-4.2,0-6.3,0.6-6.8,1.9c-0.5,1.2,0.1,2.9,1.1,3.3c0.4,0.2,4.2,0.5,8.5,0.6c6.5,0.2,8,0.4,9.6,1.1c3.1,1.4,3.9,2.6,4.1,6.1
		c0.2,4.2-0.5,5.8-3.1,7c-1.9,0.9-2.7,0.9-13.5,1.1l-11.5,0.1v-2H382.7z M413.9,347.4v-2.1l10.8-0.1c9.9-0.1,10.8-0.2,11.7-0.9
		c0.6-0.6,0.9-1.3,0.9-2.6c0-3-0.8-3.2-10-3.5c-8.5-0.3-10.4-0.7-12.3-3c-0.9-1-1-1.7-1-3.9c0-5.3,2.1-6.8,10-7.1l4.9-0.2v2.1v2.1
		h-3.2c-4.2,0-6.3,0.6-6.8,1.9c-0.5,1.2,0.1,2.9,1.1,3.3c0.4,0.2,4.2,0.5,8.5,0.6c6.5,0.2,8,0.4,9.6,1.1c3.1,1.4,3.9,2.6,4.1,6.1
		c0.2,4.2-0.5,5.8-3.1,7c-1.9,0.9-2.7,0.9-13.5,1.1l-11.5,0.1v-2H413.9z M516.3,349.2c0-0.6,16.8-24.4,17.5-24.8
		c1-0.5,2.2-0.5,3.4,0c0.8,0.4,17.4,23.9,17.4,24.7c0,0.4-4.7,0.3-5.2-0.1c-0.2-0.2-1.2-1.5-2.2-2.9c-2.8-4.2-1.9-3.9-11.5-3.9
		c-4.6,0-8.6,0.2-8.9,0.4c-0.3,0.2-1.5,1.7-2.7,3.4l-2.2,3.1l-2.8,0.1C517.7,349.4,516.3,349.4,516.3,349.2L516.3,349.2z
		 M540.7,337.8c0.4-0.6-4.4-7.5-5.2-7.5s-5,6.1-5,7.2c0,0.7,0.5,0.7,5,0.7C538.4,338.2,540.5,338,540.7,337.8L540.7,337.8z
		 M619.4,349.2c-0.2-0.2-0.3-5.7-0.3-12.2c0-11,0.1-12,0.8-12.6c0.9-0.8,2.4-0.9,3.7-0.2c0.5,0.3,5.2,4.2,10.5,8.6
		c5.3,4.5,10,8.1,10.3,8.1c0.6,0,0.7-0.9,0.8-8.7l0.1-8.7l2.4,0.1l2.4,0.1V336c0,11.6,0,12.2-0.8,12.8c-0.4,0.3-1.2,0.6-1.7,0.6
		c-0.6,0-4.7-3.2-11.7-9.1c-5.9-5-10.9-9.1-11.2-9s-0.5,3.7-0.6,9l-0.2,8.9l-2.1,0.1C620.7,349.4,619.5,349.3,619.4,349.2
		L619.4,349.2z M32.7,348.1c-0.5-0.5-2.4-4.3-4.3-8.4c-1.9-4.2-3.7-7.5-4-7.5s-2.2,3.4-4.3,7.5s-4,7.8-4.3,8.2
		c-0.8,1-3.6,0.9-4.5-0.1c-0.6-0.7-11.3-23.2-11.4-23.9c0-0.2,1.1-0.3,2.5-0.3h2.5l3.3,7c4.5,9.6,4.7,9.9,5.4,9.9
		c0.4,0,1.9-2.8,4.2-7.7c2-4.2,4-8,4.5-8.4c1.2-1,3-1,3.9,0c0.4,0.4,2.4,4.3,4.4,8.6c2.4,5,4,7.8,4.3,7.7c0.6-0.2,1-0.9,5.3-10
		l3.3-7H46c2.3,0,2.5,0.1,2.3,0.8c-0.7,2.2-11.2,23.6-11.8,24.1C35.5,349.3,33.7,349.1,32.7,348.1L32.7,348.1z M58,348.7
		c-3-0.7-4.9-1.6-6-2.9l-1.3-1.4v-7.7c0-9.1,0.1-9.5,3.7-11.3c2.3-1.1,2.3-1.1,11.7-1.1c9,0,9.4,0,11.4,1c1.6,0.8,2.2,1.4,2.8,2.8
		c0.7,1.6,0.8,2.6,0.7,9c-0.1,6-0.3,7.3-0.9,8.3c-1.8,2.8-5.1,3.6-14.5,3.6C61.9,348.9,58.4,348.8,58,348.7L58,348.7z M73.2,344.4
		c2.5-0.7,2.8-1.5,2.8-7.9s-0.3-7.2-2.8-7.9c-2-0.6-12.7-0.6-14.7,0c-2.7,0.8-2.8,1-2.8,8.1c0,7,0,7.1,2.6,7.7
		C60.3,344.9,71.5,344.9,73.2,344.4L73.2,344.4z M123.7,348.4c-2.8-0.7-3.9-1.3-4.8-2.9c-0.7-1.2-0.8-2.2-0.8-11.6v-10.3l2.4,0.1
		l2.4,0.1l0.1,9.7l0.1,9.7l1.1,0.7c1,0.6,2.5,0.8,10.5,0.9l9.4,0.2v1.9v1.9l-9.2,0.1C128.8,348.9,125.1,348.8,123.7,348.4
		L123.7,348.4z M147.6,336.5V324l12.8,0.1c12.7,0.1,12.8,0.1,14.8,1.2c3.4,1.7,3.6,2.6,3.5,11.5c-0.1,8.7-0.3,9.1-3.9,10.9
		c-2,1-2.1,1.1-14.6,1.2l-12.6,0.1V336.5L147.6,336.5z M172.5,343.8l1.2-0.9l0.1-6.1c0.1-3.7-0.1-6.4-0.3-6.9
		c-0.7-1.3-3.1-1.7-12-1.7c-7.9,0-8.4,0-8.8,0.8c-0.6,1.1-0.6,14,0,15.1c0.4,0.8,0.8,0.8,9.5,0.7
		C170.7,344.6,171.4,344.6,172.5,343.8L172.5,343.8z M202.9,348.6c-2.4-0.6-4-1.5-4.9-3c-0.7-1.2-0.8-2.1-0.8-9.3c0-7.9,0-8,1-9.2
		c2.1-2.5,3.4-2.7,15.9-2.9l11.3-0.1v2.1v2.1h-10.2c-8,0-10.5,0.1-11.7,0.6l-1.4,0.6v6.9v6.9l1.1,0.7c1,0.6,2.4,0.8,11.7,0.9
		l10.5,0.1v2.1v2.1h-10.5C209.2,348.9,203.7,348.8,202.9,348.6L202.9,348.6z M234.2,348.6c-2.5-0.5-4.3-1.6-5.3-3.3
		c-0.8-1.3-0.8-2.1-0.8-11.4v-10l2.4-0.1l2.4-0.1v8.7c0,4.8,0.2,9.2,0.4,9.8c0.8,2.2,2.1,2.5,9.2,2.7c6.5,0.1,9-0.2,10.6-1.3
		c0.8-0.6,0.8-1.3,1-10.1l0.2-9.5h2.3h2.3l0.1,8.7c0.1,4.8,0,9.5-0.1,10.5c-0.3,2.2-2.2,4.2-4.6,5
		C252.4,348.8,237,349.2,234.2,348.6L234.2,348.6z M263.1,348.5c-0.1-0.3-0.2-5.9-0.1-12.4l0.1-11.9h12.7c13.7,0,13.9,0,16.5,2.4
		c1.9,1.7,2.2,6.7,0.5,8.6c-0.9,1-1,1.8-0.2,2.5c0.3,0.3,0.8,1.4,1.1,2.5c1,4-0.8,6.9-5.1,8.1C285.7,349.2,263.4,349.3,263.1,348.5
		L263.1,348.5z M286.7,344.4c2.8-0.8,3.1-4.1,0.5-5.2c-1.8-0.8-18-0.8-18.8-0.1c-0.5,0.5-0.7,5-0.2,5.5
		C268.6,345,285,344.9,286.7,344.4z M287.2,334c1.3-0.5,2.1-2.1,1.7-3.5c-0.5-2-2.2-2.3-11.4-2.3c-4.6,0-8.6,0.1-9,0.3
		c-0.5,0.2-0.7,0.9-0.7,2.8c0,1.4,0.1,2.7,0.3,2.9C268.6,334.6,286,334.5,287.2,334L287.2,334z M303,348.4c-2.6-0.8-4.3-2-5-3.5
		c-0.5-1.1-0.6-2.7-0.5-9l0.1-7.7l1.2-1.3c2-2.1,4.3-2.7,9.8-2.7h4.8v1.9v1.9l-4.7,0.2c-5.8,0.3-6.5,0.7-6.3,3.9l0.1,2.1l11.4,0.2
		l11.4,0.2l0.1,2l0.1,2h-11c-6.1,0-11.3,0.1-11.7,0.3c-1.1,0.4-0.9,4,0.2,5c0.8,0.7,1.8,0.8,11.5,1l10.7,0.2v1.9v1.9l-10.4,0.1
		C307.6,348.9,304.2,348.8,303,348.4L303,348.4z M452.4,348.7c-3-0.7-4.9-1.6-6-2.9l-1.3-1.4v-7.7c0-9.1,0.1-9.5,3.7-11.3
		c2.3-1.1,2.3-1.1,11.7-1.1c9,0,9.4,0,11.4,1c1.6,0.8,2.2,1.4,2.8,2.8c0.7,1.6,0.8,2.6,0.7,9c-0.1,6-0.3,7.3-0.9,8.3
		c-1.8,2.8-5.1,3.6-14.5,3.6C456.3,348.9,452.9,348.8,452.4,348.7L452.4,348.7z M467.7,344.4c2.5-0.7,2.8-1.5,2.8-7.9
		s-0.3-7.2-2.8-7.9c-2-0.6-12.7-0.6-14.7,0c-2.7,0.8-2.8,1-2.8,8.1c0,7,0,7.1,2.6,7.7C454.8,344.9,465.9,344.9,467.7,344.4
		L467.7,344.4z M484.1,348.6c-2.4-0.6-4-1.5-4.9-3c-0.7-1.2-0.8-2.1-0.8-9.3c0-7.9,0-8,1-9.2c2.1-2.5,3.4-2.7,15.9-2.9l11.3-0.1v2.1
		v2.1h-10.2c-8,0-10.5,0.1-11.7,0.6l-1.4,0.6v6.9v6.9l1.1,0.7c1,0.6,2.4,0.8,11.7,0.9l10.5,0.1v2.1v2.1h-10.5
		C490.4,348.9,485,348.8,484.1,348.6z M509.6,336.3v-12.7l2.4,0.1l2.4,0.1v12.5v12.5l-2.4,0.1l-2.4,0.1V336.3L509.6,336.3z
		 M558.7,348.7c-0.2-0.2-0.3-4.7-0.3-10.1c0-8.6-0.1-9.9-0.7-10.1c-0.4-0.1-2.9-0.3-5.6-0.3h-5v-2.1V324H561h13.9v2.1v2.1h-5.3
		c-3.6,0-5.5,0.2-5.8,0.5c-0.4,0.4-0.5,3.3-0.5,10.4v9.9h-2.2C559.9,349,558.8,348.9,558.7,348.7L558.7,348.7z M577.5,336.3v-12.7
		l2.4,0.1l2.4,0.1v12.5v12.5l-2.4,0.1l-2.4,0.1V336.3L577.5,336.3z M593.2,348.7c-3-0.7-4.9-1.6-6-2.9l-1.3-1.4v-7.7
		c0-9.1,0.1-9.5,3.7-11.3c2.3-1.1,2.3-1.1,11.7-1.1c9,0,9.4,0,11.4,1c1.6,0.8,2.2,1.4,2.8,2.8c0.7,1.6,0.8,2.6,0.7,9
		c-0.1,6-0.3,7.3-0.9,8.3c-1.8,2.8-5.1,3.6-14.5,3.6C597,348.9,593.5,348.8,593.2,348.7L593.2,348.7z M608.3,344.4
		c2.5-0.7,2.8-1.5,2.8-7.9s-0.3-7.2-2.8-7.9c-2-0.6-12.7-0.6-14.7,0c-2.7,0.8-2.8,1-2.8,8.1c0,7,0,7.1,2.6,7.7
		C595.4,344.9,606.7,344.9,608.3,344.4L608.3,344.4z"/>
	<g>
		<path d="M418.5,85.3c-7.5-11.6-16.4-21.1-27.6-29.4c-17.7-13.2-39-20.9-61.2-22.2l-5-0.3l-0.1-16.6c-0.1-13.9,0-16.6,0.5-16.8
			c0.9-0.4,13.2,0.6,19.6,1.5c8.6,1.2,16.1,3,25,6c9,3,14.2,5.2,22.2,9.4c19.1,10,35.7,24.2,49,41.8c3.8,5.1,9,13.1,8.8,13.6
			c-0.1,0.4-28.1,16.6-28.6,16.6C420.9,88.9,419.7,87.3,418.5,85.3L418.5,85.3L418.5,85.3L418.5,85.3z"/>
		<path id="path2726_1_" sodipodi:nodetypes="cssscsscccsss" d="M436.4,210.9c-7.4-4.3-13.7-8.1-13.9-8.4c-0.2-0.4,0.4-2.1,1.9-5.1
			c16-31.9,16-69.6,0-101.5c-1.2-2.5-2.2-4.7-2.1-5c0.2-0.6,27.2-16.2,28.1-16.2c1.9-0.1,10.7,20,14,32.1c3.9,14.1,5.3,25,5.3,39.9
			c0,14.8-1.4,25.7-5.3,39.9c-3.2,11.7-12,32-14,32.2C450.2,218.7,443.8,215.2,436.4,210.9L436.4,210.9L436.4,210.9L436.4,210.9z"/>
		<path d="M192.7,212.4c-6.8-13.7-11.2-27-13.6-41.6c-1.4-8.4-1.9-14.8-1.9-24.6c0-19.3,3.5-37.3,10.7-54.9c1.8-4.5,7.3-15.9,8-16.6
			c0.3-0.3,27.1,14.8,28.5,16c0.2,0.2-0.7,2.3-1.9,4.8c-5.9,11.7-9.8,24.7-11.6,38.6c-0.8,6-0.6,20.1,0.2,26.4
			c1.8,13.7,5.8,26.5,11.7,37.8c1.5,2.9,1.8,3.8,1.4,4.2c-0.9,0.8-27.3,16-27.9,16C195.9,218.4,194.3,215.8,192.7,212.4L192.7,212.4
			L192.7,212.4L192.7,212.4z"/>
		<path id="path2722_1_" sodipodi:nodetypes="cscccccssssccccc" d="M211.9,81.1c-7.5-4.3-14-8.2-14.3-8.5c-0.5-0.5-0.1-1.3,2.2-4.9
			c19.9-31.5,52.1-54.5,88.5-63.4c10.2-2.5,19.8-3.8,29.4-4.1l4.4-0.1v16.6v16.6l-5,0.3c-20.2,1.2-39.4,7.5-56,18.6
			c-7.4,4.9-11.6,8.4-17.6,14.4c-5.8,5.8-9.4,10.1-14,17.1c-1.8,2.7-3.5,5-3.6,5.1C225.8,88.9,219.5,85.4,211.9,81.1L211.9,81.1
			L211.9,81.1L211.9,81.1z"/>
		<path id="path2802_1_" sodipodi:nodetypes="cssscsscccsss" d="M211.4,212c7.5-4.3,13.9-7.8,14.2-7.8c0.4,0,1.6,1.4,3.5,4.2
			c19.6,29.8,52.3,48.6,87.9,50.7c2.8,0.2,5.2,0.5,5.4,0.7c0.4,0.5,0.4,31.6,0,32.4c-0.8,1.7-22.7-0.7-34.8-3.9
			c-14.1-3.7-24.3-7.9-37.2-15.3c-12.8-7.4-21.5-14.1-31.8-24.6c-8.5-8.6-21.7-26.4-20.9-28.2C197.7,220.1,203.9,216.3,211.4,212
			L211.4,212L211.4,212L211.4,212z"/>
		<path d="M324.7,292.8c-0.1-0.3-0.2-7.9-0.1-16.8l0.1-16.2l5-0.3c20.2-1.2,39.4-7.6,56.1-18.6c7.4-4.9,11.6-8.4,17.6-14.4
			c5.8-5.8,9.4-10.2,14-17.1c1.8-2.7,3.5-5,3.6-5.1c0.3-0.1,27.4,15.5,28.2,16.3c0.5,0.5,0.1,1.3-2.1,4.7
			c-13.9,21.9-34.4,40.5-57.5,52.1c-19,9.5-37.6,14.4-60,15.7C325.8,293.3,324.9,293.2,324.7,292.8L324.7,292.8L324.7,292.8
			L324.7,292.8z"/>
		<g>
			<path d="M227.4,92.7c-0.2,0.1-0.3,24.8-0.2,54.9l0.1,54.6l47,27.2c25.9,15,47.3,27.2,47.5,27.2c0.4,0,0.5-11.2,0.5-54.7v-54.7
				l-1.5-0.9C306.2,137.6,227.6,92.5,227.4,92.7z M253.7,163.5c0.2,16.2,0.2,16.2,3.4,19.4c2.6,2.6,4.5,3.8,24.2,14.5
				c9.9,5.4,18.4,10.2,18.8,10.7c0.6,0.7,0.7,1.8,0.7,8.2c0,5.4-0.2,7.5-0.5,7.9c-0.4,0.3-5.7-2.4-19.8-10.1
				c-10.7-5.8-20.6-11.3-22.1-12.3c-3.8-2.5-9.5-8.3-11.6-11.8c-4.3-7.3-5.1-12.6-5.1-32.9c0-15.5,0.3-19,1.7-22.3
				c2.4-5.3,6.8-6.5,13.9-3.7c3.1,1.2,42,22.7,42.8,23.7c0.6,0.8,0.7,1.8,0.7,8.2c0,4-0.2,7.6-0.4,7.9c-0.5,0.8,0.6,1.4-20.5-10.3
				c-24.1-13.4-23.8-13.2-25.5-12C253.6,149.2,253.6,149.7,253.7,163.5z"/>
			<path d="M377.1,158.1c-0.2-0.1-2,4.6-4,10.5c-2.8,8.3-3.5,10.6-2.9,10.4c1.4-0.5,13.8-7.3,14-7.7
				C384.5,170.9,377.6,158.3,377.1,158.1z"/>
			<path d="M419.3,92.8c-0.2-0.1-67.4,38.6-90.5,52l-4.3,2.5V202c0,30,0.2,54.6,0.4,54.6s2.4-1.1,4.9-2.6s23.5-13.6,46.6-26.9
				c23.1-13.4,42.3-24.5,42.6-24.8c0.4-0.4,0.5-10.1,0.5-54.9C419.5,117.5,419.4,92.9,419.3,92.8z M407.4,188.6
				c-0.1,0.4-2.3,1.9-4.9,3.4l-4.7,2.7l-0.7-0.9c-0.4-0.5-2.1-3.3-3.7-6.3c-1.7-3-3.1-5.4-3.3-5.4s-6.3,3.3-13.6,7.4l-13.3,7.4
				l-3.7,10.8l-3.7,10.8l-2.5,1.5c-5.3,3.2-8.8,5-9.1,4.6c-0.1-0.3,1.9-6.6,4.6-14.1s9-25.3,14-39.6s9.5-26.9,10-27.9
				c1.1-2.4,3.6-4.8,5.2-5.2c2.6-0.5,3.4,0.4,7.4,8c2,3.8,7.9,14.9,13,24.6C403.5,180.1,407.7,188.4,407.4,188.6z"/>
			<path d="M323.4,35.9c-1,0-94.6,53.9-94.6,54.5c0,0.2,21.1,12.6,46.9,27.5c25.8,15,47.2,27.2,47.6,27.2c0.6,0,94-53.6,94.9-54.5
				C418.6,90.2,324.6,35.9,323.4,35.9z M362.4,95.6c-10.7,21.2-11.7,23.1-13.3,24.2c-3.1,2.2-8.3,1.9-11.1-0.5
				c-0.9-0.8-3.4-5.2-8-14.1c-3.6-7.1-6.8-12.9-6.9-12.9s-3.2,5.7-6.8,12.6c-3.6,6.9-6.9,13-7.2,13.5s-1.4,1.3-2.3,1.8
				c-2.1,1.1-6.1,1.4-8.4,0.6c-3-1.2-3.8-2.5-10.5-16.1c-12.5-25.4-15.7-32.5-15.1-32.9c0.3-0.2,3.5-0.4,7.1-0.4
				c5.7,0,6.6,0.1,7.1,0.7c0.4,0.4,3.9,7.3,7.9,15.4s7.4,14.7,7.5,14.7s3.2-5.8,6.9-12.8s7.1-13.3,7.7-14c3.1-3.7,9.8-3.6,12.6,0.2
				c0.6,0.8,3.9,6.9,7.4,13.7c3.5,6.7,6.5,12.4,6.7,12.6s3.7-6.4,7.9-14.8c4.1-8.3,7.7-15.2,8-15.4c0.2-0.2,3.5-0.3,7.2-0.3
				c5.5,0,6.8,0.1,7,0.6C373.9,72.3,368.8,82.9,362.4,95.6z"/>
		</g>
	</g>
</g>
</svg>
