<?xml version="1.0" encoding="utf-8"?>
<!-- Generator: Adobe Illustrator 27.5.0, SVG Export Plug-In . SVG Version: 6.00 Build 0)  -->
<svg version="1.1" id="Layer_1" xmlns="http://www.w3.org/2000/svg" xmlns:xlink="http://www.w3.org/1999/xlink" x="0px" y="0px"
	 viewBox="0 0 24 24" style="enable-background:new 0 0 24 24;" xml:space="preserve">
<style type="text/css">
	.Arched_x0020_Green{fill:url(#SVGID_1_);stroke:#FFFFFF;stroke-width:0.25;stroke-miterlimit:1;}
	.st0{fill:#FFFFFF;}
</style>
<linearGradient id="SVGID_1_" gradientUnits="userSpaceOnUse" x1="-204.1125" y1="194.2534" x2="-203.4054" y2="193.5463">
	<stop  offset="0" style="stop-color:#20AC4B"/>
	<stop  offset="0.9831" style="stop-color:#19361A"/>
</linearGradient>
<g>
	<path d="M19.3,0.2H4.7C4.3,0.2,4,0.5,4,1V23c0,0.4,0.3,0.8,0.8,0.8h14.5c0.4,0,0.8-0.3,0.8-0.8V1C20,0.5,19.7,0.2,19.3,0.2z"/>
	<path class="st0" d="M12.4,17.5c-0.1-0.1-0.1-0.2-0.3-0.2h-0.5c-0.2,0-0.2,0.1-0.3,0.2c0,0.1-1.4,3.7-1.4,3.7s-0.1,0.2,0.1,0.2
		c0.2,0,0.2,0,0.3,0c0.1,0,0.2,0,0.2-0.2c0-0.1,0.2-0.7,0.2-0.7h1.9c0,0,0.2,0.6,0.2,0.7c0,0.1,0.2,0.2,0.2,0.2c0.1,0,0.1,0,0.3,0
		c0.2,0,0.1-0.2,0.1-0.2S12.4,17.6,12.4,17.5z M11.2,19.8l0.7-1.9l0.7,1.9H11.2z M19.4,0H4.6C4.1,0,3.8,0.3,3.8,0.8v22.4
		c0,0.4,0.3,0.8,0.8,0.8h14.9c0.4,0,0.8-0.3,0.8-0.8V0.8C20.2,0.3,19.9,0,19.4,0z M9.7,5.9h2.7c0.7,0,1.3,0.6,1.3,1.3
		c0,0.7-0.6,1.3-1.3,1.3l-0.5,0c-0.2,0-0.4,0.2-0.4,0.4v1.5c0,0.2,0.2,0.4,0.4,0.4h1.1c0.8,0,1.4,0.6,1.4,1.4c0,0.7-0.6,1.3-1.2,1.4
		l-3.1,0c-0.2,0-0.4-0.1-0.4-0.4V5.9z M4.9,1.5L4.9,1.5c0-0.2,0.2-0.4,0.3-0.4c0,0,0.8,0,2.1,0v2.4H4.9C4.9,2.3,4.9,1.5,4.9,1.5z
		 M19.1,22.5c0,0.2-0.1,0.4-0.4,0.4H5.3c0,0,0,0,0,0c-0.2,0-0.3-0.2-0.3-0.4c0,0,0-10.3,0-16.5H9L7.3,6.6v9c0,0.3,0.1,0.4,0.4,0.4
		h5.6c1.9-0.1,3.4-1.6,3.4-3.5c0-1.3-0.7-2.4-1.6-3c0.6-0.5,1.1-1.4,1.1-2.3c0-2.3-1.7-3.7-4-3.7H9.8V1.1c3.9,0,8.9,0,8.9,0
		c0.3,0,0.4,0.2,0.4,0.4V22.5z M8.9,17.3H7.5c-0.1,0-0.1,0.1-0.1,0.2c0,0.1,0,3.7,0,3.7c0,0.2,0.1,0.1,0.2,0.1h0.4
		c0.1,0,0.1,0,0.1-0.1l0-1.3h0.9c0.7,0,1.3-0.6,1.3-1.3C10.2,17.9,9.7,17.3,8.9,17.3z M8.9,19.2H8V18l0.9,0c0.4,0,0.6,0.3,0.6,0.6
		C9.6,19,9.3,19.2,8.9,19.2z M16.4,17.3c-0.2,0-0.3,0-0.4,0c-0.1,0-0.2,0-0.2,0.2l-0.2,0.3l-0.7,1.3l-0.7-1.3L14,17.5
		c0-0.1-0.2-0.2-0.2-0.2c-0.1,0-0.2,0-0.4,0c-0.2,0-0.1,0.2-0.1,0.2s0.7,1.3,1.3,2.4c0,0,0,1.3,0,1.3c0,0.1,0,0.1,0.1,0.1H15
		c0.1,0,0.2,0,0.2-0.1l0-1.4c0.6-1.1,1.3-2.4,1.3-2.4S16.6,17.3,16.4,17.3z"/>
</g>
</svg>
