<svg xmlns="http://www.w3.org/2000/svg" width="24" height="24" viewBox="0 0 24 24"><path d="M7.13063 9.76359C6.94875 9.62766 6.76641 9.55969 6.58453 9.55969H5.76703V14.4567H6.585C6.76688 14.4567 6.94922 14.3887 7.13109 14.2528C7.31297 14.1169 7.40391 13.913 7.40391 13.6406V10.3758C7.40344 10.1039 7.31203 9.89953 7.13063 9.76359V9.76359ZM20.4422 1.5H3.55781C2.42344 1.5 1.50281 2.41828 1.5 3.55313V20.4469C1.50281 21.5817 2.42344 22.5 3.55781 22.5H20.4422C21.577 22.5 22.4972 21.5817 22.5 20.4469V3.55313C22.4972 2.41828 21.5766 1.5 20.4422 1.5V1.5ZM8.72812 13.6495C8.72812 14.5313 8.18391 15.8672 6.46125 15.8644H4.28625V8.10844H6.50719C8.16844 8.10844 8.72719 9.4425 8.72766 10.3247L8.72812 13.6495ZM13.4475 9.49359H10.95V11.2945H12.4767V12.6806H10.95V14.4811H13.448V15.8672H10.5333C10.0102 15.8808 9.57516 15.4673 9.56203 14.9442V9.07969C9.54938 8.55703 9.96328 8.12297 10.4859 8.10984H13.448L13.4475 9.49359ZM18.3056 14.8978C17.6869 16.3392 16.5783 16.0523 16.0819 14.8978L14.2758 8.11031H15.8025L17.1952 13.4409L18.5812 8.11031H20.1084L18.3056 14.8978V14.8978Z" /></svg>