<svg xmlns="http://www.w3.org/2000/svg" width="24" height="24" viewBox="0 0 24 24"><path transform="rotate(44.907 19.494 4.5)" d="M17.37 3.5H21.62V5.5H17.37z"/><path d="M19.42 18.006C20.409 16.563 21 14.838 21 13c0-4.879-4.121-9-9-9-1.838 0-3.563.591-5.006 1.58L5.91 4.496l.788-.79L5.282 2.294 4.496 3.082 3.707 2.293 2.293 3.707l18 18 1.414-1.414L19.42 18.006zM17 14h-1.586l-2-2H17V14zM11 8h2v3.586l-2-2V8zM4.305 8.426C3.484 9.776 3 11.342 3 13c0 4.879 4.121 9 9 9 1.658 0 3.224-.484 4.574-1.305L5.766 9.887 4.305 8.426z"/></svg>