<svg xmlns="http://www.w3.org/2000/svg" width="24" height="24" viewBox="0 0 24 24"><path d="M5 8.999c0 2.873 1.741 5.346 4.223 6.423.008.004.015.008.022.011.189.081.383.152.58.217.024.008.048.019.073.026.181.058.366.103.553.146.043.01.084.023.127.032.18.038.365.063.55.086.051.007.1.018.151.023C11.517 15.987 11.757 16 12 16s.484-.013.721-.037c.047-.005.093-.016.141-.021.189-.023.377-.05.562-.088.04-.008.078-.021.117-.03.19-.043.379-.089.563-.147.022-.007.044-.017.066-.024.199-.064.396-.137.586-.219.007-.003.013-.006.02-.009.839-.364 1.593-.889 2.225-1.534l0 0 0 0c1.235-1.263 2-2.988 2-4.891C19 5.14 15.86 2 12 2S5 5.14 5 8.999zM7 16.478V21c0 .347.18.668.474.851.295.184.664.198.973.044L12 20.118l3.553 1.776C15.694 21.965 15.847 22 16 22c.183 0 .365-.05.525-.149C16.82 21.668 17 21.347 17 21v-4.521C15.569 17.438 13.85 18 12 18S8.431 17.438 7 16.478z"/></svg>