<svg xmlns="http://www.w3.org/2000/svg" width="24" height="24" viewBox="0 0 24 24"><path d="M19.8,12.5c0-0.512-0.043-1.01-0.106-1.5h2.246V9h-2.695c-0.387-1.184-0.967-2.248-1.687-3.143l2.149-2.15l-1.414-1.414 l-2.162,2.162C14.933,3.537,13.518,3,12,3c-1.519,0-2.933,0.537-4.131,1.455L5.707,2.293L4.293,3.707l2.15,2.15 C5.723,6.752,5.143,7.816,4.756,9H2v2h2.307C4.243,11.49,4.2,11.988,4.2,12.5c0,0.514,0.04,1.017,0.105,1.511H2v2h2.751 c0.227,0.696,0.52,1.351,0.866,1.958l-2.324,2.324l1.414,1.414l2.095-2.094C7.948,20.882,9.396,21.749,11,22v-9h2v9 c1.604-0.251,3.052-1.118,4.198-2.387l2.095,2.094l1.414-1.414l-2.324-2.324c0.347-0.607,0.64-1.262,0.866-1.958H22v-2h-2.306 C19.76,13.517,19.8,13.014,19.8,12.5z M7,11V9h10v2H7z"/></svg>