<svg xmlns="http://www.w3.org/2000/svg" width="24" height="24" viewBox="0 0 24 24"><path d="M12.001,1.991c-2.666,0-5.178,1.044-7.072,2.938c-3.899,3.898-3.899,10.243,0,14.142c1.895,1.895,4.406,2.938,7.072,2.938 s5.177-1.043,7.07-2.937c3.899-3.898,3.899-10.243,0-14.144C17.177,3.034,14.666,1.991,12.001,1.991z M19.928,12.991h-1.937v-2 h1.934C20.009,11.655,20.01,12.327,19.928,12.991z M13.974,10.804c0.005,0.06,0.018,0.117,0.018,0.178 c0,1.101-0.893,1.993-1.992,1.993c-1.099,0-1.991-0.893-1.991-1.993c0-1.098,0.893-1.99,1.991-1.99 c0.293,0,0.569,0.067,0.819,0.181l4.452-3.18c0.131,0.114,0.263,0.227,0.387,0.351c0.359,0.359,0.672,0.747,0.948,1.152 L13.974,10.804z M10.991,4.063c0.333-0.042,0.669-0.071,1.01-0.071c0.334,0,0.663,0.027,0.99,0.068v1.932h-2V4.063z M7.098,5.685 l1.357,1.357L7.041,8.456L5.685,7.1c0.203-0.261,0.418-0.516,0.658-0.756C6.582,6.104,6.836,5.89,7.098,5.685z M4.075,10.991h1.916 v2H4.072C3.99,12.327,3.991,11.655,4.075,10.991z M17.657,17.658c-1.516,1.516-3.524,2.351-5.656,2.351s-4.142-0.835-5.658-2.352 C5.56,16.874,4.974,15.968,4.584,15h14.832C19.026,15.968,18.44,16.875,17.657,17.658z"/></svg>