<svg xmlns="http://www.w3.org/2000/svg" width="24" height="24" viewBox="0 0 24 24"><path d="M5 22h14a1 1 0 0 0 1-1V9c0-.021-.011-.041-.013-.062a.952.952 0 0 0-.051-.259c-.011-.032-.02-.063-.033-.093a.984.984 0 0 0-.196-.293l-6-6a1.002 1.002 0 0 0-.292-.195c-.031-.015-.063-.023-.097-.034a.946.946 0 0 0-.253-.05C13.043 2.012 13.022 2 13 2H5a1 1 0 0 0-1 1v18a1 1 0 0 0 1 1zm9-16.586L16.586 8H14V5.414zM6 4h6v5a1 1 0 0 0 1 1h5v10H6V4z"/><path d="M11 16l-1-1-2 3h8l-3-6z"/><circle cx="9" cy="13" r="1"/></svg>