<svg xmlns="http://www.w3.org/2000/svg" width="24" height="24" viewBox="0 0 24 24"><path d="M12 19c.946 0 1.81-.103 2.598-.281l-4.179-4.179c-.39-.243-.716-.569-.959-.959L4.184 8.305c-1.538 1.667-2.121 3.346-2.132 3.379-.069.205-.069.428 0 .633C2.073 12.383 4.367 19 12 19zM21.948 12.316c.069-.205.069-.428 0-.633C21.927 11.617 19.633 5 12 5c-1.837 0-3.346.396-4.604.981L3.707 2.293 2.293 3.707l18 18 1.414-1.414-3.319-3.319C21.002 15.022 21.935 12.358 21.948 12.316zM10.718 9.304C11.107 9.116 11.538 9 12 9c1.657 0 3 1.343 3 3 0 .462-.116.893-.304 1.282L10.718 9.304z"/></svg>