<svg xmlns="http://www.w3.org/2000/svg" width="24" height="24" viewBox="0 0 24 24"><path d="M8.656,21.6C6.177,18.5,8,13,8,13c1.806,7.243,6.885,7.926,7.832,7.991C18.199,19.795,20,17.511,20,13.999 c0-0.181-0.026-4.44-2.293-6.707c-0.256-0.256-0.627-0.354-0.974-0.257c-0.348,0.097-0.616,0.372-0.703,0.722 c-0.285,1.141-0.744,1.88-1.219,2.359c0.502-1.817,0.396-3.409-0.322-4.751C12.965,2.518,9.28,2.026,9.124,2.007 C8.841,1.975,8.553,2.06,8.338,2.249C8.123,2.439,8,2.712,8,2.999c0,0.025-0.02,2.605-1.707,4.293C4.239,9.346,3,10.585,3,13.999 C3,18.267,5.548,20.707,8.656,21.6z"/></svg>