<svg xmlns="http://www.w3.org/2000/svg" width="24" height="24" viewBox="0 0 24 24"><path d="M12 2.007a9.928 9.928 0 0 0-7.071 2.922c-3.899 3.899-3.899 10.243 0 14.143 1.885 1.885 4.396 2.923 7.071 2.923s5.186-1.038 7.07-2.923c1.886-1.885 2.924-4.396 2.924-7.071S20.956 6.814 19.07 4.93A9.923 9.923 0 0 0 12 2.007zm5.656 15.65c-1.507 1.507-3.516 2.337-5.656 2.337s-4.15-.83-5.657-2.337c-3.119-3.119-3.119-8.195 0-11.314C7.85 4.836 9.859 4.007 12 4.007s4.149.829 5.656 2.336C19.164 7.851 19.994 9.86 19.994 12s-.83 4.149-2.338 5.657z"/><path d="M14.664 9H9v5.663l2.125-2.124 3.168 3.168 1.414-1.414-3.168-3.168z"/></svg>