<svg xmlns="http://www.w3.org/2000/svg" width="24" height="24" viewBox="0 0 24 24"><path d="M19.668,3H4.328C3.595,3,3,3.581,3,4.298v15.403C3,20.417,3.595,21,4.328,21h15.34c0.733,0,1.331-0.582,1.331-1.299V4.298 C20.999,3.581,20.401,3,19.668,3z M8.339,18.337H5.667v-8.59h2.672V18.337z M7.003,8.574c-0.856,0-1.548-0.694-1.548-1.548 s0.691-1.548,1.548-1.548c0.854,0,1.548,0.693,1.548,1.548S7.857,8.574,7.003,8.574z M18.338,18.337h-2.669V14.16 c0-0.996-0.018-2.277-1.388-2.277c-1.39,0-1.601,1.086-1.601,2.207v4.248h-2.667v-8.59h2.56v1.174h0.037 c0.355-0.675,1.227-1.387,2.524-1.387c2.704,0,3.203,1.778,3.203,4.092V18.337z"/></svg>