<svg xmlns="http://www.w3.org/2000/svg" width="24" height="24" viewBox="0 0 24 24"><path d="M21.994,7.952c-0.004-0.073-0.011-0.146-0.03-0.216c-0.007-0.027-0.022-0.051-0.032-0.077 c-0.02-0.056-0.039-0.111-0.068-0.162c-0.017-0.028-0.04-0.052-0.06-0.079c-0.031-0.043-0.061-0.088-0.099-0.126 c-0.026-0.025-0.059-0.045-0.087-0.067c-0.037-0.029-0.07-0.063-0.111-0.087c-0.004-0.002-0.009-0.003-0.013-0.005 c-0.004-0.003-0.006-0.006-0.01-0.008l-3.287-1.818L8,10.938V14l-2-1.1V10c0-0.406,0.032-0.469,0.386-0.668L15.87,4.02 l-3.406-1.885c-0.303-0.166-0.669-0.167-0.97,0.001l-8.979,4.99C2.512,7.128,2.51,7.131,2.506,7.132 C2.502,7.135,2.497,7.135,2.493,7.138c-0.045,0.026-0.081,0.062-0.12,0.094C2.348,7.252,2.318,7.27,2.295,7.292 c-0.039,0.039-0.069,0.085-0.102,0.13C2.175,7.448,2.152,7.47,2.137,7.497c-0.03,0.052-0.05,0.108-0.07,0.165 c-0.009,0.025-0.023,0.049-0.03,0.074C2.017,7.806,2.01,7.878,2.007,7.95C2.006,7.967,2,7.981,2,7.998v0.001V8v8 c0,0.363,0.197,0.698,0.515,0.874l8.978,4.987l0.001,0.001c0.001,0,0.001,0,0.002,0.001l0.02,0.011 c0.043,0.024,0.09,0.037,0.135,0.054c0.032,0.013,0.063,0.03,0.097,0.039C11.829,21.988,11.915,22,12,22s0.171-0.012,0.254-0.033 c0.033-0.009,0.064-0.026,0.097-0.039c0.045-0.017,0.092-0.029,0.135-0.054l0.02-0.011c0.001-0.001,0.001-0.001,0.002-0.001 l0.001-0.001l8.978-4.987C21.803,16.698,22,16.363,22,16V8V7.999V7.998C22,7.982,21.994,7.968,21.994,7.952z M13,19.301v-5.68 l7-3.916v5.706L13,19.301z"/></svg>