<svg xmlns="http://www.w3.org/2000/svg" width="24" height="24" viewBox="0 0 24 24"><path d="M10.707,7.293l-4-4c-0.391-0.391-1.023-0.391-1.414,0l-3,3C2.12,6.467,2.016,6.697,2.001,6.942 c-0.014,0.25-0.301,6.172,4.292,10.765c3.988,3.988,8.99,4.299,10.428,4.299c0.219,0,0.337-0.008,0.337-0.008 c0.243-0.015,0.478-0.118,0.649-0.291l3-3c0.391-0.391,0.391-1.023,0-1.414l-4-4c-0.391-0.391-1.023-0.391-1.414,0l-2.596,2.596 c-0.74-0.217-2.124-0.714-2.998-1.588c-0.874-0.874-1.332-2.265-1.523-2.993l2.541-2.61C11.098,8.306,11.094,7.68,10.707,7.293z"/><path d="M20.293 2.293L15.121 7.465 13 5.344 13 11 18.656 11 16.535 8.879 21.707 3.707z"/></svg>