<svg xmlns="http://www.w3.org/2000/svg" width="24" height="24" viewBox="0 0 24 24"><path d="M18.895 2.553C18.725 2.214 18.379 2 18 2h-1H7 6C5.621 2 5.275 2.214 5.105 2.553l-3 6C2.036 8.691 2 8.845 2 9c0 2.206 1.794 4 4 4 1.193 0 2.267-.525 3-1.357C9.733 12.475 10.807 13 12 13s2.267-.525 3-1.357C15.733 12.475 16.807 13 18 13c2.206 0 4-1.794 4-4 0-.155-.036-.309-.105-.447L18.895 2.553zM8.153 8l.666-4h2.027l-.666 4H8.153zM13.819 8l-.666-4h2.027l.666 4H13.819zM19 22c.553 0 1-.447 1-1v-6.35C19.373 14.872 18.702 15 18 15c-1.063 0-2.097-.283-3-.806-1.807 1.045-4.193 1.045-6 0C8.097 14.717 7.063 15 6 15c-.702 0-1.373-.128-2-.35V21c0 .553.447 1 1 1h4v-4h6v4H19z"/></svg>