<svg xmlns="http://www.w3.org/2000/svg" width="24" height="24" viewBox="0 0 24 24"><path d="M19.929,6.629C19.776,6.249,19.409,6,19,6h-4V4c0-0.553-0.447-1-1-1H3C2.447,3,2,3.447,2,4v13c0,0.553,0.447,1,1,1h1.051 C4.026,18.165,4,18.329,4,18.5C4,20.43,5.57,22,7.5,22s3.5-1.57,3.5-3.5c0-0.171-0.026-0.335-0.051-0.5h2.102 C13.026,18.165,13,18.329,13,18.5c0,1.93,1.57,3.5,3.5,3.5s3.5-1.57,3.5-3.5c0-0.171-0.026-0.335-0.051-0.5H21c0.553,0,1-0.447,1-1 v-5c0-0.127-0.024-0.253-0.071-0.371L19.929,6.629z M15,8h3.323l1.2,3H15V8z M7.5,20C6.673,20,6,19.327,6,18.5S6.673,17,7.5,17 S9,17.673,9,18.5S8.327,20,7.5,20z M16.5,20c-0.827,0-1.5-0.673-1.5-1.5s0.673-1.5,1.5-1.5s1.5,0.673,1.5,1.5S17.327,20,16.5,20z"/></svg>