<svg xmlns="http://www.w3.org/2000/svg" width="24" height="24" viewBox="0 0 24 24"><path d="M4 11h6c.553 0 1-.447 1-1V4c0-.553-.447-1-1-1H4C3.447 3 3 3.447 3 4v6C3 10.553 3.447 11 4 11zM3 20c0 .553.447 1 1 1h6c.553 0 1-.447 1-1v-6c0-.553-.447-1-1-1H4c-.553 0-1 .447-1 1V20zM20 21c.553 0 1-.447 1-1v-6c0-.553-.447-1-1-1h-6c-.553 0-1 .447-1 1v6c0 .553.447 1 1 1H20zM17.707 2.293c-.391-.391-1.023-.391-1.414 0l-4 4c-.391.391-.391 1.023 0 1.414l4 4C16.488 11.902 16.744 12 17 12s.512-.098.707-.293l4-4c.391-.391.391-1.023 0-1.414L17.707 2.293z"/></svg>