<svg xmlns="http://www.w3.org/2000/svg" width="24" height="24" viewBox="0 0 24 24"><path d="M10 3H4a1 1 0 0 0-1 1v6a1 1 0 0 0 1 1h6a1 1 0 0 0 1-1V4a1 1 0 0 0-1-1zM9 9H5V5h4v4zM3 20a1 1 0 0 0 1 1h6a1 1 0 0 0 1-1v-6a1 1 0 0 0-1-1H4a1 1 0 0 0-1 1v6zm2-5h4v4H5v-4zM20 21a1 1 0 0 0 1-1v-6a1 1 0 0 0-1-1h-6a1 1 0 0 0-1 1v6a1 1 0 0 0 1 1h6zm-5-6h4v4h-4v-4zM17.707 2.293a.999.999 0 0 0-1.414 0l-4 4a.999.999 0 0 0 0 1.414l4 4a.997.997 0 0 0 1.414 0l4-4a.999.999 0 0 0 0-1.414l-4-4zM17 9.586L14.414 7 17 4.414 19.586 7 17 9.586z"/></svg>