<svg xmlns="http://www.w3.org/2000/svg" width="24" height="24" viewBox="0 0 24 24"><path d="M21.707 20.293l-18-18-1.414 1.414.791.791-.792.795 1.416 1.412.79-.793.979.979C3.956 8.511 3 10.663 3 13c0 4.879 4.121 9 9 9 2.337 0 4.489-.956 6.108-2.478l2.185 2.185 1.414-1.414zM12 20c-3.794 0-7-3.206-7-7 0-1.794.726-3.449 1.883-4.703L11 12.414V14h1.586l4.117 4.117C15.449 19.274 13.794 20 12 20zm8.294-13.292l-3.01-3 1.411-1.417 3.01 3zm.262 9.02A8.711 8.711 0 0 0 21 13c0-4.879-4.121-9-9-9-.946 0-1.862.159-2.728.444l1.651 1.651A6.738 6.738 0 0 1 12 6c3.794 0 7 3.206 7 7 0 .366-.038.724-.096 1.076l1.652 1.652z"/></svg>