<svg xmlns="http://www.w3.org/2000/svg" width="24" height="24"><path d="M12 2C6.579 2 2 6.579 2 12s4.579 10 10 10 10-4.579 10-10S17.421 2 12 2zm.751 2.039c2.165.213 4.108 1.331 5.437 2.961h-7.146l1.709-2.961zm2.826 8.032L13.887 15h-3.732L8.29 11.768 9.887 9h3.917l1.773 3.071zM10.36 4.18L7.134 9.768 5.656 7.207C6.809 5.699 8.469 4.592 10.36 4.18zM4.61 15A7.757 7.757 0 0 1 4 12c0-.966.19-1.894.521-2.76L7.845 15H4.61zm6.429 4.934C8.958 19.671 7.097 18.576 5.812 17h6.92l-1.693 2.934zm2.348-.068l3.345-5.794 1.589 2.752c-1.203 1.558-2.953 2.678-4.934 3.042zM20 12a7.73 7.73 0 0 1-.537 2.803L16.113 9h3.276A7.74 7.74 0 0 1 20 12z"/></svg>