<?xml version="1.0" encoding="utf-8"?>
<!-- Generator: Adobe Illustrator 16.0.0, SVG Export Plug-In . SVG Version: 6.00 Build 0)  -->
<!DOCTYPE svg PUBLIC "-//W3C//DTD SVG 1.1//EN" "http://www.w3.org/Graphics/SVG/1.1/DTD/svg11.dtd">
<svg version="1.1" id="Layer_1" xmlns="http://www.w3.org/2000/svg" xmlns:xlink="http://www.w3.org/1999/xlink" x="0px" y="0px"
	 width="24px" height="24px" viewBox="0 0 24 24" enable-background="new 0 0 24 24" xml:space="preserve">
<g>
	<path d="M12,2C6.579,2,2,6.579,2,12s4.579,10,10,10s10-4.579,10-10S17.421,2,12,2z M13.887,15h-3.732l-1.865-3.232L9.887,9h3.917
		l1.773,3.071L13.887,15z M4,12c0-0.966,0.19-1.894,0.521-2.76L7.845,15H4.61C4.22,14.068,4,13.055,4,12z M16.113,9h3.276
		C19.78,9.932,20,10.945,20,12c0,0.981-0.196,1.925-0.537,2.803L16.113,9z M18.188,7h-7.146l1.709-2.961
		C14.916,4.252,16.859,5.37,18.188,7z M10.36,4.18L7.134,9.768L5.656,7.207C6.809,5.699,8.469,4.592,10.36,4.18z M5.812,17h6.92
		l-1.692,2.934C8.958,19.671,7.097,18.576,5.812,17z M13.387,19.866l3.345-5.794l1.589,2.752
		C17.118,18.382,15.368,19.502,13.387,19.866z"/>
</g>
</svg>
