<svg xmlns="http://www.w3.org/2000/svg" width="24" height="24" viewBox="0 0 24 24"><path d="M12,2C6.579,2,2,6.579,2,12s4.579,10,10,10s10-4.579,10-10S17.421,2,12,2z M12.751,4.039 C14.916,4.252,16.859,5.37,18.188,7h-7.146L12.751,4.039z M15.577,12.071L13.887,15h-3.732l-1.865-3.232L9.887,9h3.917 L15.577,12.071z M10.36,4.18L7.134,9.768L5.656,7.207C6.809,5.699,8.469,4.592,10.36,4.18z M4.61,15C4.22,14.068,4,13.055,4,12 c0-0.966,0.19-1.894,0.521-2.76L7.845,15H4.61z M11.039,19.934C8.958,19.671,7.097,18.576,5.812,17h6.92L11.039,19.934z M13.387,19.866l3.345-5.794l1.589,2.752C17.118,18.382,15.368,19.502,13.387,19.866z M20,12c0,0.981-0.196,1.925-0.537,2.803 L16.113,9h3.276C19.78,9.932,20,10.945,20,12z"/></svg>