<?xml version="1.0" encoding="utf-8"?>
<!-- Generator: Adobe Illustrator 16.0.0, SVG Export Plug-In . SVG Version: 6.00 Build 0)  -->
<!DOCTYPE svg PUBLIC "-//W3C//DTD SVG 1.1//EN" "http://www.w3.org/Graphics/SVG/1.1/DTD/svg11.dtd">
<svg version="1.1" id="Layer_1" xmlns="http://www.w3.org/2000/svg" xmlns:xlink="http://www.w3.org/1999/xlink" x="0px" y="0px"
	 width="24px" height="24px" viewBox="0 0 24 24" enable-background="new 0 0 24 24" xml:space="preserve">
<g>
	<polygon points="13,20 13,16 16,16 12,12 8,16 11,16 11,20 	"/>
	<path d="M21.929,8.628l-2-4.999C19.776,3.249,19.409,3,19,3H5C4.591,3,4.224,3.249,4.071,3.629L2.079,8.61
		c-0.001,0-0.001,0-0.001,0.001L2.071,8.629L2.074,8.63C2.028,8.745,2,8.869,2,9v10c0,0.553,0.447,1,1,1h6v-2H4v-8h16v8h-5v2h6
		c0.553,0,1-0.447,1-1V9c0-0.132-0.028-0.256-0.074-0.371L21.929,8.628z M5.677,5h12.646l1.2,3H4.477L5.677,5z"/>
</g>
</svg>
