<?xml version="1.0" encoding="utf-8"?>
<!-- Generator: Adobe Illustrator 16.0.0, SVG Export Plug-In . SVG Version: 6.00 Build 0)  -->
<!DOCTYPE svg PUBLIC "-//W3C//DTD SVG 1.1//EN" "http://www.w3.org/Graphics/SVG/1.1/DTD/svg11.dtd">
<svg version="1.1" id="Layer_1" xmlns="http://www.w3.org/2000/svg" xmlns:xlink="http://www.w3.org/1999/xlink" x="0px" y="0px"
	 width="24px" height="24px" viewBox="0 0 24 24" enable-background="new 0 0 24 24" xml:space="preserve">
<g>
	<path d="M12,2C6.486,2,2,6.486,2,12s4.486,10,10,10s10-4.486,10-10S17.514,2,12,2z M13,11V4.069
		c1.698,0.214,3.229,0.961,4.426,2.068c-1.294,1.265-2.138,3-2.361,4.862H13z M11,11H8.936C8.712,9.138,7.868,7.402,6.574,6.138
		C7.771,5.03,9.302,4.283,11,4.069V11z M6.913,11H4.069c0.153-1.217,0.578-2.349,1.216-3.333C6.144,8.55,6.713,9.728,6.913,11z
		 M6.897,13c-0.218,1.193-0.81,2.312-1.697,3.193C4.611,15.242,4.215,14.16,4.069,13H6.897z M8.932,13H11v6.931
		c-1.756-0.221-3.335-1.01-4.549-2.181C7.8,16.475,8.689,14.797,8.932,13z M13,13h2.068c0.242,1.797,1.132,3.475,2.48,4.75
		c-1.214,1.171-2.793,1.96-4.549,2.181V13z M17.103,13h2.828c-0.146,1.16-0.542,2.242-1.131,3.193
		C17.912,15.312,17.32,14.193,17.103,13z M17.087,11c0.2-1.272,0.77-2.45,1.628-3.333c0.638,0.984,1.063,2.116,1.216,3.333H17.087z"
		/>
</g>
</svg>
