<svg xmlns="http://www.w3.org/2000/svg" width="24" height="24" viewBox="0 0 24 24"><path d="M10.242 11.786C10.89 11.015 11 10.06 11 9.5 11 6.731 8.319 6 6.901 6H3a1 1 0 0 0-1 1v10a1 1 0 0 0 1 1h5c1.407 0 3.5-.932 3.5-3.5 0-1.225-.422-2.131-1.258-2.714zM4 8h2.901C6.987 8 9 8.017 9 9.5c0 .759-.155 1.5-2.005 1.5H4V8zm3.994 8H4v-3h2.995C9.5 13 9.5 13.867 9.5 14.5c0 1.324-1.051 1.49-1.506 1.5zM17.5 8a4.505 4.505 0 0 0-4.5 4.5v1c0 2.481 2.019 4.5 4.473 4.5h.001l.073.001c.42 0 2.163-.074 3.365-1.245.485-.473.801-1.073.961-1.756h-2.112a1.446 1.446 0 0 1-.238.317c-.573.564-1.591.683-1.994.683-1.18.031-2.245-.852-2.479-2H20v.006l1.108-.012A1 1 0 0 0 22 13v-.5c0-2.481-2.019-4.5-4.5-4.5zm-2.45 4c.232-1.14 1.243-2 2.45-2s2.218.86 2.45 2h-4.9zM14 5h6v2h-6z"/></svg>