<?xml version="1.0" encoding="utf-8"?>
<!-- Generator: Adobe Illustrator 16.0.0, SVG Export Plug-In . SVG Version: 6.00 Build 0)  -->
<!DOCTYPE svg PUBLIC "-//W3C//DTD SVG 1.1//EN" "http://www.w3.org/Graphics/SVG/1.1/DTD/svg11.dtd">
<svg version="1.1" id="Layer_1" xmlns="http://www.w3.org/2000/svg" xmlns:xlink="http://www.w3.org/1999/xlink" x="0px" y="0px"
	 width="24px" height="24px" viewBox="0 0 24 24" enable-background="new 0 0 24 24" xml:space="preserve">
<g>
	<path d="M3,18h5c1.407,0,3.5-0.932,3.5-3.5c0-1.225-0.422-2.131-1.258-2.714C10.89,11.015,11,10.06,11,9.5
		C11,6.731,8.319,6,6.901,6H3C2.447,6,2,6.447,2,7v10C2,17.553,2.447,18,3,18z M4,8h2.901C6.987,8,9,8.017,9,9.5
		C9,10.259,8.845,11,6.995,11H4V8z M4,13h2.995C9.5,13,9.5,13.867,9.5,14.5c0,1.324-1.051,1.49-1.506,1.5H4V13z"/>
	<path d="M17.5,8c-2.481,0-4.5,2.019-4.5,4.5v1c0,2.481,2.019,4.5,4.473,4.5h0.001c0.016,0,0.04,0.001,0.073,0.001
		c0.42,0,2.163-0.074,3.365-1.245c0.485-0.473,0.801-1.073,0.961-1.756h-2.112c-0.066,0.115-0.143,0.224-0.238,0.317
		C18.95,15.881,17.932,16,17.529,16c-1.18,0.031-2.245-0.852-2.479-2H20c0,0.002,0,0.004,0,0.006l1.108-0.012
		C21.61,13.939,22,13.516,22,13v-0.5C22,10.019,19.981,8,17.5,8z M15.05,12c0.232-1.14,1.243-2,2.45-2s2.218,0.86,2.45,2H15.05z"/>
	<rect x="14" y="5" width="6" height="2"/>
</g>
</svg>
