<svg xmlns="http://www.w3.org/2000/svg" width="24" height="24" viewBox="0 0 24 24"><path d="M3 18h5c1.407 0 3.5-.932 3.5-3.5 0-1.225-.422-2.131-1.258-2.714C10.89 11.015 11 10.06 11 9.5 11 6.731 8.319 6 6.901 6H3C2.447 6 2 6.447 2 7v10C2 17.553 2.447 18 3 18zM4 8h2.901C6.987 8 9 8.017 9 9.5 9 10.259 8.845 11 6.995 11H4V8zM4 13h2.995C9.5 13 9.5 13.867 9.5 14.5c0 1.324-1.051 1.49-1.506 1.5H4V13zM17.5 8c-2.481 0-4.5 2.019-4.5 4.5v1c0 2.481 2.019 4.5 4.473 4.5h.001c.016 0 .04.001.073.001.42 0 2.163-.074 3.365-1.245.485-.473.801-1.073.961-1.756h-2.112c-.066.115-.143.224-.238.317C18.95 15.881 17.932 16 17.529 16c-1.18.031-2.245-.852-2.479-2H20c0 .002 0 .004 0 .006l1.108-.012C21.61 13.939 22 13.516 22 13v-.5C22 10.019 19.981 8 17.5 8zM15.05 12c.232-1.14 1.243-2 2.45-2s2.218.86 2.45 2H15.05zM14 5H20V7H14z"/></svg>