<svg xmlns="http://www.w3.org/2000/svg" width="24" height="24" viewBox="0 0 24 24"><path d="M13.094,2.085l-1.013-0.082c-0.054-0.004-0.107-0.004-0.161,0L10.857,2.09C6.948,2.652,4,6.053,4,10v3.838l-0.948,2.846 c-0.103,0.305-0.051,0.641,0.137,0.901C3.377,17.846,3.679,18,4,18h4.5c0,1.93,1.57,3.5,3.5,3.5s3.5-1.57,3.5-3.5H20 c0.008,0.001,0.016,0.001,0.02,0c0.553,0,1-0.447,1-1c0-0.18-0.047-0.349-0.131-0.495L20,13.838V10 C20,6.06,17.058,2.66,13.094,2.085z M12,19.5c-0.841,0-1.5-0.659-1.5-1.5h3C13.5,18.841,12.841,19.5,12,19.5z M5.388,16 l0.561-1.684C5.982,14.214,6,14.107,6,14v-4c0-2.959,2.211-5.509,5.08-5.923l0.921-0.074l0.868,0.068C15.794,4.497,18,7.046,18,10 v4c0,0.107,0.018,0.214,0.052,0.316L18.612,16H5.388z"/></svg>