<svg xmlns="http://www.w3.org/2000/svg" width="24" height="24" viewBox="0 0 24 24"><path d="M2.293 3.707l2.629 2.629A7.88 7.88 0 0 0 4 10v3.838l-.948 2.846A1 1 0 0 0 4 18h4.5c0 1.93 1.57 3.5 3.5 3.5s3.5-1.57 3.5-3.5h1.086l3.707 3.707 1.414-1.414-18-18-1.414 1.414zM12 19.5c-.841 0-1.5-.659-1.5-1.5h3c0 .841-.659 1.5-1.5 1.5zM5.388 16l.561-1.684A1.03 1.03 0 0 0 6 14v-4c0-.758.165-1.479.435-2.151L14.586 16H5.388zM13.094 2.085l-1.013-.082a1.082 1.082 0 0 0-.161 0l-1.063.087a7.878 7.878 0 0 0-2.906 1.033L9.43 4.602a5.706 5.706 0 0 1 1.649-.525L12 4.003l.868.068C15.794 4.497 18 7.046 18 10v3.172l2.667 2.667L20 13.838V10c0-3.94-2.942-7.34-6.906-7.915z"/></svg>