<?xml version="1.0" encoding="utf-8"?>
<!-- Generator: Adobe Illustrator 16.0.0, SVG Export Plug-In . SVG Version: 6.00 Build 0)  -->
<!DOCTYPE svg PUBLIC "-//W3C//DTD SVG 1.1//EN" "http://www.w3.org/Graphics/SVG/1.1/DTD/svg11.dtd">
<svg version="1.1" id="Layer_1" xmlns="http://www.w3.org/2000/svg" xmlns:xlink="http://www.w3.org/1999/xlink" x="0px" y="0px"
	 width="24px" height="24px" viewBox="0 0 24 24" enable-background="new 0 0 24 24" xml:space="preserve">
<g>
	<rect x="8" y="9.99" width="8" height="2"/>
	<path d="M12,22c1.109,0,2-0.891,2-2h-4C10,21.109,10.891,22,12,22z"/>
	<path d="M20,15.764V10c0-3.94-2.942-7.34-6.906-7.915l-1.013-0.082c-0.054-0.004-0.107-0.004-0.161,0L10.857,2.09
		C6.948,2.652,4,6.053,4,10v5.764l-0.895,1.789c-0.155,0.31-0.139,0.678,0.044,0.973S3.653,19,4,19h16
		c0.008,0.001,0.015,0.001,0.02,0c0.553,0,1-0.447,1-1c0-0.229-0.076-0.439-0.205-0.607L20,15.764z M5.618,17l0.276-0.553
		C5.964,16.309,6,16.155,6,16v-6c0-2.959,2.211-5.509,5.08-5.923l0.921-0.074l0.868,0.068C15.794,4.497,18,7.046,18,10v6
		c0,0.155,0.036,0.309,0.105,0.447L18.382,17H5.618z"/>
</g>
</svg>
