<svg xmlns="http://www.w3.org/2000/svg" width="24" height="24" viewBox="0 0 24 24"><path d="M2.293 3.707l2.629 2.629C4.342 7.443 4 8.687 4 10v3.838l-.948 2.846c-.103.305-.051.641.137.901C3.377 17.846 3.679 18 4 18h4.5c0 1.93 1.57 3.5 3.5 3.5s3.5-1.57 3.5-3.5h1.086l3.707 3.707 1.414-1.414-18-18L2.293 3.707zM12 19.5c-.841 0-1.5-.659-1.5-1.5h3C13.5 18.841 12.841 19.5 12 19.5zM5.388 16l.561-1.684C5.982 14.214 6 14.107 6 14v-4c0-.758.165-1.479.435-2.151L14.586 16H5.388zM13.094 2.085l-1.013-.082c-.054-.004-.107-.004-.161 0L10.857 2.09C9.805 2.241 8.825 2.604 7.951 3.123l1.479 1.479c.517-.248 1.064-.44 1.649-.525l.921-.074.868.068C15.794 4.497 18 7.046 18 10v3.172l2.667 2.667L20 13.838V10C20 6.06 17.058 2.66 13.094 2.085z"/></svg>