<?xml version="1.0" encoding="utf-8"?>
<!-- Generator: Adobe Illustrator 16.0.0, SVG Export Plug-In . SVG Version: 6.00 Build 0)  -->
<!DOCTYPE svg PUBLIC "-//W3C//DTD SVG 1.1//EN" "http://www.w3.org/Graphics/SVG/1.1/DTD/svg11.dtd">
<svg version="1.1" id="Layer_1" xmlns="http://www.w3.org/2000/svg" xmlns:xlink="http://www.w3.org/1999/xlink" x="0px" y="0px"
	 width="24px" height="24px" viewBox="0 0 24 24" enable-background="new 0 0 24 24" xml:space="preserve">
<g>
	<path d="M14,20h-4c0,1.109,0.891,2,2,2S14,21.109,14,20z"/>
	<path d="M2.293,3.707l2.619,2.619C4.332,7.435,4,8.686,4,10v5.764l-0.895,1.789c-0.155,0.31-0.139,0.678,0.044,0.973S3.653,19,4,19
		h13.586l2.707,2.707l1.414-1.414l-18-18L2.293,3.707z M5.618,17l0.276-0.553C5.964,16.309,6,16.155,6,16v-6
		c0-0.759,0.163-1.481,0.431-2.155L15.586,17H5.618z"/>
	<path d="M20,14.172V10c0-3.94-2.942-7.34-6.906-7.915l-1.013-0.082c-0.054-0.004-0.107-0.004-0.161,0L10.857,2.09
		C10.06,2.205,9.305,2.443,8.604,2.775l1.53,1.53c0.307-0.1,0.621-0.182,0.946-0.229l0.921-0.074l0.868,0.068
		C15.794,4.497,18,7.046,18,10v2.172L20,14.172z"/>
</g>
</svg>
