<?xml version="1.0" encoding="utf-8"?>
<!-- Generator: Adobe Illustrator 16.0.0, SVG Export Plug-In . SVG Version: 6.00 Build 0)  -->
<!DOCTYPE svg PUBLIC "-//W3C//DTD SVG 1.1//EN" "http://www.w3.org/Graphics/SVG/1.1/DTD/svg11.dtd">
<svg version="1.1" id="Layer_1" xmlns="http://www.w3.org/2000/svg" xmlns:xlink="http://www.w3.org/1999/xlink" x="0px" y="0px"
	 width="24px" height="24px" viewBox="0 0 24 24" enable-background="new 0 0 24 24" xml:space="preserve">
<g>
	<path d="M2.293,3.707l2.629,2.629C4.342,7.443,4,8.687,4,10v3.838l-0.948,2.846c-0.103,0.305-0.051,0.641,0.137,0.901
		C3.377,17.846,3.679,18,4,18h4.5c0,1.93,1.57,3.5,3.5,3.5s3.5-1.57,3.5-3.5h1.086l3.707,3.707l1.414-1.414l-18-18L2.293,3.707z
		 M12,19.5c-0.841,0-1.5-0.659-1.5-1.5h3C13.5,18.841,12.841,19.5,12,19.5z M5.388,16l0.561-1.684C5.982,14.214,6,14.107,6,14v-4
		c0-0.758,0.165-1.479,0.435-2.151L14.586,16H5.388z"/>
	<path d="M13.094,2.085l-1.013-0.082c-0.054-0.004-0.107-0.004-0.161,0L10.857,2.09C9.805,2.241,8.825,2.604,7.951,3.123
		l1.479,1.479c0.517-0.248,1.064-0.44,1.649-0.525l0.921-0.074l0.868,0.068C15.794,4.497,18,7.046,18,10v3.172l2.667,2.667
		L20,13.838V10C20,6.06,17.058,2.66,13.094,2.085z"/>
</g>
</svg>
