<?xml version="1.0" encoding="utf-8"?>
<!-- Generator: Adobe Illustrator 16.0.0, SVG Export Plug-In . SVG Version: 6.00 Build 0)  -->
<!DOCTYPE svg PUBLIC "-//W3C//DTD SVG 1.1//EN" "http://www.w3.org/Graphics/SVG/1.1/DTD/svg11.dtd">
<svg version="1.1" id="Layer_1" xmlns="http://www.w3.org/2000/svg" xmlns:xlink="http://www.w3.org/1999/xlink" x="0px" y="0px"
	 width="24px" height="24px" viewBox="0 0 24 24" enable-background="new 0 0 24 24" xml:space="preserve">
<g>
	<path d="M12,2C6.486,2,2,6.486,2,12s4.486,10,10,10c5.514,0,10-4.486,10-10S17.514,2,12,2z M12,20c-4.411,0-8-3.589-8-8
		c0-1.846,0.634-3.542,1.688-4.897l11.209,11.209C15.543,19.366,13.846,20,12,20z M18.312,16.897L7.103,5.688
		C8.458,4.634,10.154,4,12,4c4.411,0,8,3.589,8,8C20,13.846,19.365,15.542,18.312,16.897z"/>
</g>
</svg>
