<?xml version="1.0" encoding="utf-8"?>
<!-- Generator: Adobe Illustrator 16.0.0, SVG Export Plug-In . SVG Version: 6.00 Build 0)  -->
<!DOCTYPE svg PUBLIC "-//W3C//DTD SVG 1.1//EN" "http://www.w3.org/Graphics/SVG/1.1/DTD/svg11.dtd">
<svg version="1.1" id="Layer_1" xmlns="http://www.w3.org/2000/svg" xmlns:xlink="http://www.w3.org/1999/xlink" x="0px" y="0px"
	 width="24px" height="24px" viewBox="0 0 24 24" enable-background="new 0 0 24 24" xml:space="preserve">
<g>
	<path d="M6.588,16.809l3.301-2.4V20c0,0.367,0.201,0.705,0.524,0.88c0.148,0.08,0.313,0.12,0.476,0.12
		c0.191,0,0.382-0.055,0.548-0.163l6.111-4c0.274-0.18,0.443-0.484,0.452-0.813c0.008-0.328-0.146-0.64-0.412-0.833L13.2,12
		l4.388-3.191c0.266-0.193,0.42-0.505,0.412-0.833c-0.009-0.329-0.178-0.632-0.452-0.813l-6.111-4c-0.308-0.2-0.7-0.217-1.023-0.043
		C10.09,3.295,9.889,3.633,9.889,4v5.592l-3.301-2.4L5.412,8.809L9.8,12l-4.388,3.191L6.588,16.809z M11.889,5.85l3.352,2.194
		l-3.352,2.438V5.85z M11.889,13.519l3.352,2.438l-3.352,2.194V13.519z"/>
</g>
</svg>
