<svg xmlns="http://www.w3.org/2000/svg" width="24" height="24" viewBox="0 0 24 24"><path d="M5.621,17.784L10,14.317V21c0,0.379,0.214,0.725,0.553,0.895C10.694,21.965,10.848,22,11,22c0.212,0,0.424-0.068,0.6-0.2 l6-4.5c0.248-0.186,0.396-0.477,0.4-0.787s-0.136-0.604-0.379-0.797L12.927,12l4.694-3.716C17.864,8.091,18.004,7.797,18,7.487 S17.848,6.886,17.6,6.7l-6-4.5c-0.302-0.229-0.709-0.264-1.047-0.095C10.214,2.275,10,2.621,10,3v6.683L5.621,6.216L4.379,7.784 L9.705,12l-5.326,4.216L5.621,17.784z M12,5l3.362,2.521L12,10.183V5z M12,13.817l3.362,2.662L12,19V13.817z"/></svg>