<?xml version="1.0" encoding="utf-8"?>
<!-- Generator: Adobe Illustrator 16.0.0, SVG Export Plug-In . SVG Version: 6.00 Build 0)  -->
<!DOCTYPE svg PUBLIC "-//W3C//DTD SVG 1.1//EN" "http://www.w3.org/Graphics/SVG/1.1/DTD/svg11.dtd">
<svg version="1.1" id="Layer_1" xmlns="http://www.w3.org/2000/svg" xmlns:xlink="http://www.w3.org/1999/xlink" x="0px" y="0px"
	 width="24px" height="24px" viewBox="0 0 24 24" enable-background="new 0 0 24 24" xml:space="preserve">
<g>
	<path d="M9,4H8H7v16h1h1h5v-0.051c2.244-0.252,4-2.139,4-4.449c0-1.665-0.919-3.105-2.267-3.883C16.514,10.807,17,9.711,17,8.5
		c0-2.31-1.756-4.197-4-4.449V4H9z M13.5,18H9v-5h4.5c1.379,0,2.5,1.122,2.5,2.5S14.879,18,13.5,18z M15,8.5
		c0,1.378-1.121,2.5-2.5,2.5H9V6h3.5C13.879,6,15,7.122,15,8.5z"/>
</g>
</svg>
