<?xml version="1.0" encoding="utf-8"?>
<!-- Generator: Adobe Illustrator 16.0.0, SVG Export Plug-In . SVG Version: 6.00 Build 0)  -->
<!DOCTYPE svg PUBLIC "-//W3C//DTD SVG 1.1//EN" "http://www.w3.org/Graphics/SVG/1.1/DTD/svg11.dtd">
<svg version="1.1" id="Layer_1" xmlns="http://www.w3.org/2000/svg" xmlns:xlink="http://www.w3.org/1999/xlink" x="0px" y="0px"
	 width="24px" height="24px" viewBox="0 0 24 24" enable-background="new 0 0 24 24" xml:space="preserve">
<g>
	<path d="M9.71,21.957C9.806,21.986,9.903,22,10,22c0.328,0,0.644-0.162,0.832-0.445l8-12c0.204-0.307,0.224-0.701,0.05-1.026
		S18.369,8,18,8h-4.819l0.806-4.835c0.049-0.29-0.033-0.586-0.224-0.811C13.573,2.129,13.294,2,13,2H7
		C6.486,2,6.056,2.389,6.005,2.9l-1,10c-0.028,0.281,0.064,0.562,0.254,0.771C5.448,13.881,5.718,14,6,14h3v7
		C9,21.44,9.288,21.829,9.71,21.957z M7.105,12l0.8-8h3.914l-0.806,4.835c-0.049,0.29,0.033,0.586,0.224,0.811
		C11.427,9.871,11.706,10,12,10h4.132L11,17.697V13c0-0.552-0.447-1-1-1H7.105z"/>
</g>
</svg>
