<?xml version="1.0" encoding="utf-8"?>
<!-- Generator: Adobe Illustrator 16.0.0, SVG Export Plug-In . SVG Version: 6.00 Build 0)  -->
<!DOCTYPE svg PUBLIC "-//W3C//DTD SVG 1.1//EN" "http://www.w3.org/Graphics/SVG/1.1/DTD/svg11.dtd">
<svg version="1.1" id="Layer_1" xmlns="http://www.w3.org/2000/svg" xmlns:xlink="http://www.w3.org/1999/xlink" x="0px" y="0px"
	 width="24px" height="24px" viewBox="0 0 24 24" enable-background="new 0 0 24 24" xml:space="preserve">
<g>
	<path d="M6,7C5.447,7,5,7.447,5,8v13c0,0.36,0.193,0.692,0.507,0.87s0.698,0.172,1.008-0.013L11,19.166l4.485,2.691
		C15.644,21.952,15.822,22,16,22c0.17,0,0.34-0.043,0.493-0.13C16.807,21.692,17,21.36,17,21V8c0-0.553-0.447-1-1-1H6z M15,19.233
		l-3.485-2.091C11.356,17.048,11.178,17,11,17s-0.356,0.048-0.515,0.143L7,19.233V9h8V19.233z"/>
	<path d="M21,17V4c0-0.553-0.447-1-1-1H10v2h9v12H21z"/>
</g>
</svg>
