<?xml version="1.0" encoding="utf-8"?>
<!-- Generator: Adobe Illustrator 16.0.0, SVG Export Plug-In . SVG Version: 6.00 Build 0)  -->
<!DOCTYPE svg PUBLIC "-//W3C//DTD SVG 1.1//EN" "http://www.w3.org/Graphics/SVG/1.1/DTD/svg11.dtd">
<svg version="1.1" id="Layer_1" xmlns="http://www.w3.org/2000/svg" xmlns:xlink="http://www.w3.org/1999/xlink" x="0px" y="0px"
	 width="24px" height="24px" viewBox="0 0 24 24" enable-background="new 0 0 24 24" xml:space="preserve">
<g>
	<path d="M17.884,2.551C17.714,2.213,17.368,2,16.99,2H7C5.794,2,4,2.799,4,5v2v1v11c0,2.201,1.794,3,3,3h12c0.553,0,1-0.448,1-1V7
		c0-0.162-0.047-0.309-0.115-0.444l0.009-0.004L17.884,2.551z M7.012,4h9.362l1.005,2H7.012C6.55,5.988,6,5.805,6,5
		S6.55,4.012,7.012,4z M18,20H7.012C6.55,19.988,6,19.805,6,19V8h12V20z"/>
	<rect x="9" y="10" width="7" height="2"/>
</g>
</svg>
