<?xml version="1.0" encoding="utf-8"?>
<!-- Generator: Adobe Illustrator 16.0.0, SVG Export Plug-In . SVG Version: 6.00 Build 0)  -->
<!DOCTYPE svg PUBLIC "-//W3C//DTD SVG 1.1//EN" "http://www.w3.org/Graphics/SVG/1.1/DTD/svg11.dtd">
<svg version="1.1" id="Layer_1" xmlns="http://www.w3.org/2000/svg" xmlns:xlink="http://www.w3.org/1999/xlink" x="0px" y="0px"
	 width="24px" height="24px" viewBox="0 0 24 24" enable-background="new 0 0 24 24" xml:space="preserve">
<g>
	<path d="M20,7c0-0.156-0.043-0.3-0.106-0.432L19.9,6.565l-1.928-4C17.807,2.22,17.456,2,17.072,2H7C5.794,2,4,2.799,4,5v2v1v11
		c0,2.201,1.794,3,3,3h12c0.553,0,1-0.447,1-1V7z M7,4h9.444l0.964,2H7.012C6.55,5.988,6,5.806,6,5S6.55,4.012,7,4z M18,20H7.012
		C6.55,19.988,6,19.806,6,19V8h6v6l2-1.5l2,1.5V8h2V20z"/>
</g>
</svg>
