<?xml version="1.0" encoding="utf-8"?>
<!-- Generator: Adobe Illustrator 16.0.0, SVG Export Plug-In . SVG Version: 6.00 Build 0)  -->
<!DOCTYPE svg PUBLIC "-//W3C//DTD SVG 1.1//EN" "http://www.w3.org/Graphics/SVG/1.1/DTD/svg11.dtd">
<svg version="1.1" id="Layer_1" xmlns="http://www.w3.org/2000/svg" xmlns:xlink="http://www.w3.org/1999/xlink" x="0px" y="0px"
	 width="24px" height="24px" viewBox="0 0 24 24" enable-background="new 0 0 24 24" xml:space="preserve">
<g>
	<path d="M21,7h-5V4c0-0.552-0.447-1-1-1H9C8.447,3,8,3.448,8,4v3L3,7C2.734,7,2.48,7.105,2.293,7.292S2,7.734,2,8v11
		c0,0.552,0.447,1,1,1h18c0.553,0,1-0.448,1-1V8C22,7.448,21.553,7,21,7z M10,5h4v2h-4V5z M8,9L8,9h7h1h4v2H4V9L8,9z M4,18v-5h6v2h4
		v-2h6v5H4z"/>
</g>
</svg>
