<?xml version="1.0" encoding="utf-8"?>
<!-- Generator: Adobe Illustrator 16.0.0, SVG Export Plug-In . SVG Version: 6.00 Build 0)  -->
<!DOCTYPE svg PUBLIC "-//W3C//DTD SVG 1.1//EN" "http://www.w3.org/Graphics/SVG/1.1/DTD/svg11.dtd">
<svg version="1.1" id="Layer_1" xmlns="http://www.w3.org/2000/svg" xmlns:xlink="http://www.w3.org/1999/xlink" x="0px" y="0px"
	 width="24px" height="24px" viewBox="0 0 24 24" enable-background="new 0 0 24 24" xml:space="preserve">
<g>
	<path d="M19.707,17.207c3.5-3.5,3.5-9.414,0-12.914l-1.414,1.414c2.733,2.733,2.733,7.353,0,10.086L19.707,17.207z"/>
	<path d="M16.707,14.207c0.944-0.943,1.465-2.172,1.465-3.457s-0.521-2.514-1.465-3.457l-1.414,1.414
		c0.566,0.566,0.879,1.292,0.879,2.043s-0.313,1.477-0.879,2.043L16.707,14.207z"/>
	<path d="M6.207,5.707L4.793,4.293c-3.5,3.5-3.5,9.414,0,12.914l1.414-1.414C3.474,13.06,3.474,8.44,6.207,5.707z"/>
	<path d="M7.293,7.293C6.349,8.236,5.828,9.465,5.828,10.75s0.521,2.514,1.465,3.457l1.414-1.414
		c-0.566-0.566-0.879-1.292-0.879-2.043s0.313-1.477,0.879-2.043L7.293,7.293z"/>
	<path d="M13,21v-8.777c0.596-0.347,1-0.984,1-1.723c0-1.104-0.896-2-2-2s-2,0.896-2,2c-0.001,0.738,0.404,1.377,1,1.723V21H13z"/>
</g>
</svg>
