<svg xmlns="http://www.w3.org/2000/svg" width="24" height="24" viewBox="0 0 24 24"><path d="M5,13.5c0,0.169,0.013,0.333,0.021,0.5H3v2h2.31c0.214,0.842,0.535,1.627,0.94,2.335l-1.957,1.958l1.414,1.414l1.752-1.751 C8.683,21.227,10.268,22,12,22s3.317-0.773,4.541-2.044l1.752,1.751l1.414-1.414l-1.957-1.958c0.405-0.708,0.727-1.493,0.94-2.335 H21v-2h-2.021C18.987,13.833,19,13.669,19,13.5c0-0.513-0.044-1.012-0.116-1.5h3.056v-2h-3.567 c-0.501-1.337-1.277-2.487-2.242-3.348L18.6,4.8L17.4,3.2l-3.063,2.297C13.604,5.181,12.82,5,12,5s-1.604,0.181-2.337,0.498 L6.6,3.2L5.4,4.8l2.47,1.853C6.905,7.513,6.129,8.663,5.628,10H2v2h3.116C5.044,12.488,5,12.987,5,13.5z M12,7 c1.766,0,3.316,1.199,4.206,3H7.794C8.684,8.199,10.234,7,12,7z M7.14,12h9.721c0.088,0.482,0.14,0.983,0.14,1.5 c0,3.584-2.243,6.5-5,6.5s-5-2.916-5-6.5C7,12.983,7.052,12.482,7.14,12z"/></svg>