<?xml version="1.0" encoding="utf-8"?>
<!-- Generator: Adobe Illustrator 16.0.0, SVG Export Plug-In . SVG Version: 6.00 Build 0)  -->
<!DOCTYPE svg PUBLIC "-//W3C//DTD SVG 1.1//EN" "http://www.w3.org/Graphics/SVG/1.1/DTD/svg11.dtd">
<svg version="1.1" id="Layer_1" xmlns="http://www.w3.org/2000/svg" xmlns:xlink="http://www.w3.org/1999/xlink" x="0px" y="0px"
	 width="24px" height="24px" viewBox="0 0 24 24" enable-background="new 0 0 24 24" xml:space="preserve">
<g>
	<path d="M5,13.5c0,0.169,0.013,0.333,0.021,0.5H4v2h1.31c0.182,0.712,0.442,1.381,0.763,2H4v2h3.499c1.218,1.246,2.788,2,4.501,2
		s3.283-0.754,4.501-2H20v-2h-2.072c0.32-0.619,0.581-1.288,0.763-2H20v-2h-1.021C18.987,13.833,19,13.669,19,13.5
		c0-0.513-0.044-1.012-0.116-1.5H21v-2h-2.628c-0.501-1.337-1.277-2.487-2.242-3.348L18.6,4.8L17.4,3.2l-3.063,2.297
		C13.604,5.181,12.82,5,12,5s-1.604,0.181-2.337,0.498L6.6,3.2L5.4,4.8l2.47,1.853C6.905,7.513,6.129,8.663,5.628,10H3v2h2.116
		C5.044,12.488,5,12.987,5,13.5z M12,7c1.766,0,3.316,1.199,4.206,3H7.794C8.684,8.199,10.234,7,12,7z M7.14,12h9.721
		c0.088,0.482,0.14,0.983,0.14,1.5c0,3.584-2.243,6.5-5,6.5s-5-2.916-5-6.5C7,12.983,7.052,12.482,7.14,12z"/>
</g>
</svg>
