<svg xmlns="http://www.w3.org/2000/svg" width="24" height="24"><path d="M5 13.5c0 .169.013.333.021.5H3v2h2.31c.214.842.535 1.627.94 2.335l-1.957 1.958 1.414 1.414 1.752-1.751C8.683 21.227 10.268 22 12 22s3.317-.773 4.541-2.044l1.752 1.751 1.414-1.414-1.957-1.958A9.297 9.297 0 0 0 18.69 16H21v-2h-2.021c.008-.167.021-.331.021-.5 0-.513-.044-1.012-.116-1.5h3.056v-2h-3.567c-.501-1.337-1.277-2.487-2.242-3.348L18.6 4.8l-1.2-1.6-3.063 2.297C13.604 5.181 12.82 5 12 5s-1.604.181-2.337.498L6.6 3.2 5.4 4.8l2.47 1.853c-.965.86-1.741 2.01-2.242 3.347H2v2h3.116c-.072.488-.116.987-.116 1.5zM12 7c1.766 0 3.316 1.199 4.206 3H7.794c.89-1.801 2.44-3 4.206-3zm-4.86 5h9.721c.088.482.14.983.14 1.5 0 3.584-2.243 6.5-5 6.5s-5-2.916-5-6.5A8.251 8.251 0 0 1 7.14 12z"/></svg>