<?xml version="1.0" encoding="utf-8"?>
<!-- Generator: Adobe Illustrator 16.0.0, SVG Export Plug-In . SVG Version: 6.00 Build 0)  -->
<!DOCTYPE svg PUBLIC "-//W3C//DTD SVG 1.1//EN" "http://www.w3.org/Graphics/SVG/1.1/DTD/svg11.dtd">
<svg version="1.1" id="Layer_1" xmlns="http://www.w3.org/2000/svg" xmlns:xlink="http://www.w3.org/1999/xlink" x="0px" y="0px"
	 width="24px" height="24px" viewBox="0 0 24 24" enable-background="new 0 0 24 24" xml:space="preserve">
<g>
	<path d="M5,22h14c0.553,0,1-0.448,1-1V3c0-0.552-0.447-1-1-1H5C4.447,2,4,2.448,4,3v18C4,21.552,4.447,22,5,22z M6,4h12v16h-4v-2
		h-4v2H6V4z"/>
	<rect x="8" y="6" width="3" height="2"/>
	<rect x="13" y="6" width="3" height="2"/>
	<rect x="8" y="10" width="3" height="2"/>
	<rect x="13" y="10.031" width="3" height="1.969"/>
	<rect x="8" y="14" width="3" height="2"/>
	<rect x="13" y="14" width="3" height="2"/>
</g>
</svg>
