<?xml version="1.0" encoding="utf-8"?>
<!-- Generator: Adobe Illustrator 16.0.0, SVG Export Plug-In . SVG Version: 6.00 Build 0)  -->
<!DOCTYPE svg PUBLIC "-//W3C//DTD SVG 1.1//EN" "http://www.w3.org/Graphics/SVG/1.1/DTD/svg11.dtd">
<svg version="1.1" id="Layer_1" xmlns="http://www.w3.org/2000/svg" xmlns:xlink="http://www.w3.org/1999/xlink" x="0px" y="0px"
	 width="24px" height="24px" viewBox="0 0 24 24" enable-background="new 0 0 24 24" xml:space="preserve">
<g>
	<rect x="9" y="20" width="6" height="2"/>
	<path d="M16.906,13.712C17.936,12.506,19,11.259,19,9c0-3.859-3.141-7-7-7S5,5.141,5,9c0,2.285,1.067,3.528,2.101,4.73
		c0.358,0.418,0.729,0.851,1.084,1.349c0.202,0.291,0.59,1.737,0.831,3.096L9.162,19h5.675l0.147-0.824
		c0.243-1.36,0.633-2.81,0.834-3.101C16.171,14.572,16.545,14.135,16.906,13.712z M14.182,13.925C13.748,14.542,13.386,16,13.176,17
		h-2.351c-0.209-1.002-0.572-2.463-1.011-3.08c-0.407-0.572-0.826-1.061-1.196-1.492C7.644,11.294,7,10.544,7,9c0-2.757,2.243-5,5-5
		s5,2.243,5,5c0,1.521-0.643,2.274-1.615,3.413C15.012,12.851,14.589,13.346,14.182,13.925z"/>
</g>
</svg>
