<?xml version="1.0" encoding="utf-8"?>
<!-- Generator: Adobe Illustrator 16.0.0, SVG Export Plug-In . SVG Version: 6.00 Build 0)  -->
<!DOCTYPE svg PUBLIC "-//W3C//DTD SVG 1.1//EN" "http://www.w3.org/Graphics/SVG/1.1/DTD/svg11.dtd">
<svg version="1.1" id="Layer_1" xmlns="http://www.w3.org/2000/svg" xmlns:xlink="http://www.w3.org/1999/xlink" x="0px" y="0px"
	 width="24px" height="24px" viewBox="0 0 24 24" enable-background="new 0 0 24 24" xml:space="preserve">
<g>
	<path d="M12,18c3.309,0,6-2.691,6-6s-2.691-6-6-6s-6,2.691-6,6S8.691,18,12,18z M12,8c2.206,0,4,1.794,4,4s-1.794,4-4,4
		s-4-1.794-4-4S9.794,8,12,8z"/>
	<path d="M12,22c5.421,0,10-4.579,10-10S17.421,2,12,2S2,6.579,2,12S6.579,22,12,22z M12,4c4.337,0,8,3.663,8,8s-3.663,8-8,8
		s-8-3.663-8-8S7.663,4,12,4z"/>
	<path d="M12,14c1.081,0,2-0.919,2-2s-0.919-2-2-2s-2,0.919-2,2S10.919,14,12,14z"/>
</g>
</svg>
