<?xml version="1.0" encoding="utf-8"?>
<!-- Generator: Adobe Illustrator 16.0.0, SVG Export Plug-In . SVG Version: 6.00 Build 0)  -->
<!DOCTYPE svg PUBLIC "-//W3C//DTD SVG 1.1//EN" "http://www.w3.org/Graphics/SVG/1.1/DTD/svg11.dtd">
<svg version="1.1" id="Layer_1" xmlns="http://www.w3.org/2000/svg" xmlns:xlink="http://www.w3.org/1999/xlink" x="0px" y="0px"
	 width="24px" height="24px" viewBox="0 0 24 24" enable-background="new 0 0 24 24" xml:space="preserve">
<g>
	<path d="M12,2C6.486,2,2,6.486,2,12s4.486,10,10,10s10-4.486,10-10S17.514,2,12,2z M11,4.069C11.328,4.028,11.66,4,12,4
		s0.672,0.028,1,0.069v3.032C12.677,7.035,12.343,7,12,7s-0.677,0.035-1,0.101V4.069z M9,4.589V8h0.031
		C8.639,8.292,8.292,8.639,8,9.031V9H4.589C5.402,7,6.999,5.402,9,4.589z M4,12c0-0.339,0.028-0.672,0.069-1h3.032
		C7.035,11.323,7,11.658,7,12s0.035,0.677,0.102,1H4.069C4.028,12.672,4,12.339,4,12z M9,19.411C6.999,18.598,5.402,17,4.589,15H8
		v-0.031c0.284,0.381,0.621,0.718,1,1.005V19.411z M13,19.931C12.672,19.972,12.34,20,12,20s-0.672-0.028-1-0.069v-3.032
		C11.323,16.965,11.657,17,12,17s0.677-0.035,1-0.101V19.931z M12,15c-1.654,0-3-1.346-3-3s1.346-3,3-3s3,1.346,3,3S13.654,15,12,15
		z M15,19.411v-3.437c0.379-0.287,0.716-0.624,1-1.005V15h3.411C18.598,17,17.001,18.598,15,19.411z M20,12
		c0,0.339-0.028,0.672-0.069,1h-3.032C16.965,12.677,17,12.342,17,12s-0.035-0.677-0.102-1h3.032C19.972,11.328,20,11.661,20,12z
		 M16,9v0.031C15.708,8.639,15.361,8.292,14.969,8H15V4.589C17.001,5.402,18.598,7,19.411,9H16z"/>
</g>
</svg>
