<!-- Generated by IcoMoon.io -->
<svg version="1.1" xmlns="http://www.w3.org/2000/svg" width="16" height="16" viewBox="0 0 16 16">
<title>bx-album</title>
<path d="M9.333 7.995c0 0.739-0.599 1.338-1.338 1.338s-1.338-0.599-1.338-1.338c0-0.739 0.599-1.338 1.338-1.338s1.338 0.599 1.338 1.338z"></path>
<path d="M8 1.333c-3.676 0-6.667 2.991-6.667 6.667s2.991 6.667 6.667 6.667 6.667-2.991 6.667-6.667-2.991-6.667-6.667-6.667zM8 13.333c-2.941 0-5.333-2.393-5.333-5.333s2.393-5.333 5.333-5.333 5.333 2.393 5.333 5.333-2.393 5.333-5.333 5.333z"></path>
<path d="M8 4c-2.206 0-4 1.794-4 4h1.333c0-1.471 1.196-2.667 2.667-2.667v-1.333z"></path>
</svg>
