<svg xmlns="http://www.w3.org/2000/svg" width="24" height="24"><path fill="none" d="M12 14c2.756 0 5-2.243 5-5.001A5.005 5.005 0 0 0 12 4C9.243 4 7 6.242 7 8.999A5.006 5.006 0 0 0 12 14zM9.777 15.632l-.517 3.62 2.293-1.146a1 1 0 0 1 .895 0l2.293 1.146-.518-3.62c-.7.235-1.445.368-2.223.368a6.969 6.969 0 0 1-2.223-.368z"/><path d="M5 8.999a6.989 6.989 0 0 0 2.896 5.659l-.886 6.2a1.002 1.002 0 0 0 1.437 1.036L12 20.118l3.553 1.776a.996.996 0 0 0 1.032-.082 1 1 0 0 0 .405-.953l-.886-6.2A6.992 6.992 0 0 0 19 8.999C19 5.14 15.86 2 12 2S5 5.14 5 8.999zm9.74 10.253l-2.293-1.146a1 1 0 0 0-.895 0L9.26 19.252l.517-3.62c.7.235 1.446.368 2.223.368.777 0 1.523-.133 2.222-.368l.518 3.62zM12 4c2.756 0 5 2.242 5 4.999A5.006 5.006 0 0 1 12 14c-2.757 0-5-2.243-5-5.001A5.005 5.005 0 0 1 12 4z"/></svg>