<!-- Generated by IcoMoon.io -->
<svg version="1.1" xmlns="http://www.w3.org/2000/svg" width="16" height="16" viewBox="0 0 16 16">
<title>bx-archive-out</title>
<path d="M8 10.667l2.667-2.667h-2v-1.333h-1.333v1.333h-2z"></path>
<path d="M14.531 4.284l0.010-0.007-1.917-2.666c-0.125-0.174-0.327-0.277-0.541-0.277h-8c-0.205 0-0.399 0.095-0.525 0.257l-2.083 2.667 0.009 0.007c-0.089 0.113-0.15 0.249-0.15 0.403v8c0 0.369 0.298 0.667 0.667 0.667h12c0.369 0 0.667-0.298 0.667-0.667v-8c0-0.146-0.056-0.273-0.135-0.383zM4.408 2.667h7.333l0.959 1.333h-9.333l1.041-1.333zM13.333 12h-10.667v-6.667h10.667v6.667z"></path>
</svg>
