<svg xmlns="http://www.w3.org/2000/svg" width="24" height="24" viewBox="0 0 24 24"><path d="M19.148,6.971C18.789,6.372,18.132,6,17.434,6H16V5c0-0.552-0.447-1-1-1H4C2.897,4,2,4.897,2,6v10 c0,0.77,0.441,1.431,1.08,1.766C3.029,18.003,3,18.248,3,18.5C3,20.43,4.57,22,6.5,22s3.5-1.57,3.5-3.5 c0-0.171-0.026-0.335-0.051-0.5h3.102C13.026,18.165,13,18.329,13,18.5c0,1.93,1.57,3.5,3.5,3.5s3.5-1.57,3.5-3.5 c0-0.171-0.026-0.335-0.051-0.5H20c1.103,0,2-0.897,2-2v-4c0-0.181-0.049-0.359-0.143-0.515L19.148,6.971z M17.434,8l1.8,3H16V8 H17.434z M4,6h10v10H8.941C8.311,15.383,7.45,15,6.5,15s-1.811,0.383-2.441,1H4V6z M6.5,20C5.673,20,5,19.327,5,18.5 S5.673,17,6.5,17S8,17.673,8,18.5S7.327,20,6.5,20z M16.5,20c-0.827,0-1.5-0.673-1.5-1.5s0.673-1.5,1.5-1.5s1.5,0.673,1.5,1.5 S17.327,20,16.5,20z M18.941,16c-0.631-0.617-1.491-1-2.441-1c-0.171,0-0.335,0.027-0.5,0.051V13h4v3H18.941z"/><path d="M8 14L10 14 10 12 12 12 12 10 10 10 10 8 8 8 8 10 6 10 6 12 8 12z"/></svg>