<!-- Generated by IcoMoon.io -->
<svg version="1.1" xmlns="http://www.w3.org/2000/svg" width="16" height="16" viewBox="0 0 16 16">
<title>bx-analyse</title>
<path d="M3.085 5.919c0.281-0.659 0.666-1.221 1.14-1.694l0-0c0.473-0.474 1.036-0.859 1.66-1.127l0.034-0.013c0.614-0.262 1.327-0.414 2.077-0.414 0.724 0 1.415 0.142 2.046 0.4l-0.036-0.013c0.027 0.895 0.759 1.609 1.658 1.609 0.001 0 0.002 0 0.003 0h-0c0.924 0 1.667-0.743 1.667-1.667s-0.743-1.667-1.667-1.667c-0.459 0-0.875 0.184-1.175 0.483-1.621-0.649-3.482-0.639-5.090 0.039-0.824 0.352-1.528 0.833-2.12 1.426l-0 0c-0.593 0.592-1.075 1.295-1.41 2.076l-0.016 0.043c-0.33 0.763-0.521 1.652-0.521 2.585 0 0.005 0 0.010 0 0.014v-0.001h1.333c0-0.724 0.141-1.424 0.418-2.081zM13.333 8c0 0.003 0 0.007 0 0.010 0 1.47-0.595 2.801-1.558 3.765l0-0c-0.473 0.474-1.036 0.859-1.66 1.127l-0.034 0.013c-0.614 0.262-1.327 0.414-2.077 0.414-0.724 0-1.415-0.142-2.046-0.4l0.036 0.013c-0.027-0.895-0.759-1.609-1.658-1.609-0.001 0-0.002 0-0.003 0h0c-0.924 0-1.667 0.743-1.667 1.667s0.743 1.667 1.667 1.667c0.459 0 0.875-0.184 1.175-0.483 0.736 0.306 1.591 0.483 2.488 0.483 0.001 0 0.003 0 0.004 0h-0c0.004 0 0.008 0 0.013 0 2.741 0 5.096-1.657 6.115-4.025l0.017-0.043c0.33-0.763 0.522-1.652 0.522-2.585 0-0.005 0-0.010-0-0.014v0.001h-1.333z"></path>
<path d="M8 4.975c-1.668 0-3.025 1.357-3.025 3.025s1.357 3.025 3.025 3.025 3.025-1.357 3.025-3.025-1.357-3.025-3.025-3.025zM8 9.692c-0.933 0-1.692-0.759-1.692-1.692s0.759-1.692 1.692-1.692 1.692 0.759 1.692 1.692-0.759 1.692-1.692 1.692z"></path>
</svg>
