<svg xmlns="http://www.w3.org/2000/svg" width="24" height="24"><path fill="none" d="M4 18h16V8.999H4V18zm3-7h2v2h6v-2h2v3a1 1 0 0 1-1 1H8a1 1 0 0 1-1-1v-3zM19.003 6.999L17.508 5h-11L5.004 6.999z"/><path d="M8 15h8a1 1 0 0 0 1-1v-3h-2v2H9v-2H7v3a1 1 0 0 0 1 1z"/><path d="M21.801 7.401l-2.991-4A1 1 0 0 0 18.009 3h-12a.997.997 0 0 0-.799.398L2.201 7.397l.014.01A.982.982 0 0 0 2 7.999V19a1 1 0 0 0 1 1h18a1 1 0 0 0 1-1V7.999a.98.98 0 0 0-.212-.588l.013-.01zM6.508 5h11l1.495 1.999H5.004L6.508 5zM20 18H4V8.999h16V18z"/></svg>