<!-- Generated by IcoMoon.io -->
<svg version="1.1" xmlns="http://www.w3.org/2000/svg" width="16" height="16" viewBox="0 0 16 16">
<title>bx-at</title>
<path d="M8 1.333c-3.676 0-6.667 2.991-6.667 6.667s2.991 6.667 6.667 6.667c0.977 0 1.974-0.247 2.961-0.736l-0.59-1.195c-0.803 0.397-1.601 0.598-2.371 0.598-2.941 0-5.333-2.393-5.333-5.333s2.393-5.333 5.333-5.333 5.333 2.393 5.333 5.333v0.667c0 0.461-0.209 1.333-1 1.333-0.931 0-0.996-1.213-1-1.333v-3.333h-1.333v0.017c-0.548-0.424-1.244-0.681-1.999-0.683h-0.001c-1.838 0-3.333 1.495-3.333 3.333s1.495 3.333 3.333 3.333c0.967 0 1.832-0.421 2.441-1.081 0.349 0.593 0.939 1.081 1.892 1.081 1.515 0 2.333-1.374 2.333-2.667v-0.667c0-3.676-2.991-6.667-6.667-6.667zM8 10c-1.103 0-2-0.897-2-2s0.897-2 2-2 2 0.897 2 2-0.897 2-2 2z"></path>
</svg>
