<svg xmlns="http://www.w3.org/2000/svg" width="24" height="24"><path fill="none" d="M12.959 17H5.812c1.329 1.63 3.272 2.748 5.438 2.961L12.959 17zM13.938 9h-3.736l-1.938 2.906L9.986 15h4.127l1.697-2.938zM4.508 9.273A7.738 7.738 0 0 0 4 12c0 1.055.22 2.068.61 3h3.086L4.508 9.273zM7.17 9.942L9 7.197V7h.132l1.961-2.941c-2.194.26-4.143 1.452-5.443 3.155l1.52 2.728zM11.535 7h6.653c-1.187-1.454-2.862-2.498-4.748-2.857L11.535 7zM16.997 14.005L13.64 19.82c2-.436 3.747-1.647 4.901-3.289l-1.544-2.526zM20 12c0-1.055-.22-2.068-.61-3h-3.106l3.319 5.432A7.766 7.766 0 0 0 20 12z"/><path d="M12 2C6.579 2 2 6.579 2 12s4.579 10 10 10 10-4.579 10-10S17.421 2 12 2zm2.113 13H9.986l-1.723-3.094L10.202 9h3.736l1.871 3.062L14.113 15zM4 12c0-.953.186-1.87.508-2.727L7.696 15H4.61A7.757 7.757 0 0 1 4 12zm12.283-3h3.106A7.74 7.74 0 0 1 20 12c0 .844-.143 1.66-.397 2.432L16.283 9zm1.905-2h-6.653l1.905-2.857c1.886.359 3.562 1.403 4.748 2.857zm-7.095-2.941L9.132 7H9v.197L7.17 9.942 5.65 7.214c1.3-1.703 3.249-2.895 5.443-3.155zM5.812 17h7.147l-1.709 2.961C9.084 19.748 7.141 18.63 5.812 17zm7.828 2.82l3.357-5.815 1.544 2.526c-1.154 1.642-2.901 2.854-4.901 3.289z"/></svg>