<!-- Generated by IcoMoon.io -->
<svg version="1.1" xmlns="http://www.w3.org/2000/svg" width="16" height="16" viewBox="0 0 16 16">
<title>bx-alarm</title>
<path d="M8 2.667c-3.253 0-6 2.747-6 6s2.747 6 6 6 6-2.747 6-6-2.747-6-6-6zM8 13.333c-2.529 0-4.667-2.137-4.667-4.667s2.137-4.667 4.667-4.667 4.667 2.137 4.667 4.667-2.137 4.667-4.667 4.667z"></path>
<path d="M8.667 8v-2.667h-1.333v4h4v-1.333zM11.523 2.471l0.941-0.944 2.007 2.001-0.942 0.944zM4.465 2.471l-1.993 1.999-0.945-0.942 1.993-1.999z"></path>
</svg>
