<!-- Generated by IcoMoon.io -->
<svg version="1.1" xmlns="http://www.w3.org/2000/svg" width="16" height="16" viewBox="0 0 16 16">
<title>bx-archive</title>
<path d="M4.667 9.333h6.667c0.369 0 0.667-0.298 0.667-0.667v-2h-1.333v1.333h-5.333v-1.333h-1.333v2c0 0.369 0.298 0.667 0.667 0.667z"></path>
<path d="M14.534 4.268l-1.994-2.667c-0.126-0.169-0.324-0.267-0.534-0.267h-8c-0.21 0-0.407 0.098-0.533 0.265l-2.006 2.667 0.009 0.007c-0.084 0.112-0.143 0.244-0.143 0.395v8c0 0.369 0.298 0.667 0.667 0.667h12c0.369 0 0.667-0.298 0.667-0.667v-8c0-0.15-0.059-0.281-0.141-0.392l0.009-0.007zM4.339 2.667h7.333l0.997 1.333h-9.333l1.003-1.333zM13.333 12h-10.667v-6.667h10.667v6.667z"></path>
</svg>
