<!-- Generated by IcoMoon.io -->
<svg version="1.1" xmlns="http://www.w3.org/2000/svg" width="16" height="16" viewBox="0 0 16 16">
<title>bx-alarm-off</title>
<path d="M12.465 1.528l2.007 2-0.941 0.944-2.007-2 0.941-0.944z"></path>
<path d="M14 8.667c0-3.253-2.747-6-6-6-1.225 0-2.375 0.394-3.337 1.054l-0.723-0.723 0.525-0.527-0.945-0.941-0.524 0.525-0.526-0.526-0.943 0.943 12 12 0.943-0.943-1.525-1.525c0.659-0.961 1.054-2.112 1.054-3.337zM8 4c2.529 0 4.667 2.137 4.667 4.667 0 0.861-0.258 1.671-0.685 2.373l-1.706-1.706h1.057v-1.333h-2.391l-0.276-0.276v-2.391h-1.333v1.057l-1.705-1.705c0.701-0.428 1.511-0.685 2.372-0.685z"></path>
<path d="M8 13.333c-2.529 0-4.667-2.137-4.667-4.667 0-0.741 0.187-1.446 0.511-2.075l-0.974-0.974c-0.547 0.9-0.87 1.944-0.87 3.049 0 3.253 2.747 6 6 6 1.105 0 2.15-0.323 3.049-0.87l-0.974-0.974c-0.629 0.323-1.335 0.511-2.075 0.511z"></path>
</svg>
