<!-- Generated by IcoMoon.io -->
<svg version="1.1" xmlns="http://www.w3.org/2000/svg" width="16" height="16" viewBox="0 0 16 16">
<title>bx-aperture</title>
<path d="M8 1.333c-3.614 0-6.667 3.053-6.667 6.667s3.053 6.667 6.667 6.667 6.667-3.053 6.667-6.667-3.053-6.667-6.667-6.667zM9.409 10h-2.751l-1.149-2.063 1.293-1.937h2.491l1.247 2.041-1.131 1.959zM2.667 8c0-0.635 0.124-1.247 0.339-1.818l2.125 3.818h-2.057c-0.256-0.59-0.405-1.277-0.407-1.999v-0.001zM10.855 6h2.071c0.256 0.59 0.406 1.277 0.407 1.999v0.001c0 0.563-0.095 1.107-0.265 1.621l-2.213-3.621zM12.125 4.667h-4.435l1.27-1.905c1.257 0.239 2.375 0.935 3.165 1.905zM7.395 2.706l-1.307 1.961h-0.088v0.131l-1.22 1.83-1.013-1.819c0.867-1.135 2.166-1.93 3.629-2.103zM3.875 11.333h4.765l-1.139 1.974c-1.444-0.142-2.739-0.887-3.625-1.974zM9.093 13.213l2.238-3.877 1.029 1.684c-0.769 1.095-1.934 1.903-3.267 2.193z"></path>
</svg>
