<!-- Generated by IcoMoon.io -->
<svg version="1.1" xmlns="http://www.w3.org/2000/svg" width="16" height="16" viewBox="0 0 16 16">
<title>bx-award</title>
<path d="M12.667 5.999c0-2.573-2.093-4.666-4.667-4.666s-4.667 2.093-4.667 4.666c0 1.268 0.51 2.418 1.333 3.26v4.741c0 0.231 0.12 0.445 0.316 0.567s0.443 0.132 0.649 0.029l2.369-1.185 2.369 1.184c0.094 0.047 0.196 0.071 0.298 0.071 0.122 0 0.243-0.033 0.35-0.099 0.197-0.122 0.317-0.336 0.317-0.567v-4.74c0.823-0.842 1.333-1.993 1.333-3.261zM8 2.667c1.837 0 3.333 1.495 3.333 3.333s-1.495 3.334-3.333 3.334-3.333-1.495-3.333-3.334c0-1.838 1.495-3.333 3.333-3.333zM8.298 12.070c-0.187-0.094-0.409-0.094-0.597 0l-1.701 0.851v-2.711c0.607 0.289 1.284 0.457 2 0.457s1.393-0.167 2-0.457v2.711l-1.702-0.851z"></path>
</svg>
