<!-- Generated by IcoMoon.io -->
<svg version="1.1" xmlns="http://www.w3.org/2000/svg" width="16" height="16" viewBox="0 0 16 16">
<title>bx-anchor</title>
<path d="M12.667 8.667h-1.333v1.333h0.609c-0.29 1.647-1.629 2.981-3.275 3.271v-4.604h1.333v-1.333h-1.333v-1.109c1.029-0.306 1.809-1.282 1.809-2.414 0-1.366-1.111-2.477-2.476-2.477s-2.476 1.111-2.476 2.477c0 1.132 0.781 2.108 1.809 2.414v1.109h-1.333v1.333h1.333v4.604c-1.647-0.29-2.986-1.624-3.275-3.271h0.609v-1.333h-1.333c-0.368 0-0.667 0.298-0.667 0.667v0c0 2.665 2.077 4.944 4.667 5.285v0.049h1.333v-0.049c2.59-0.341 4.667-2.619 4.667-5.285 0-0.368-0.298-0.667-0.667-0.667v0zM6.857 3.81c0-0.63 0.513-1.143 1.143-1.143s1.143 0.513 1.143 1.143c0 0.634-0.534 1.19-1.143 1.19s-1.143-0.556-1.143-1.19z"></path>
</svg>
