<svg xmlns="http://www.w3.org/2000/svg" width="24" height="24" viewBox="0 0 24 24"><path d="M19,13h-2v2h0.913c-0.435,2.47-2.443,4.471-4.913,4.906V13h2v-2h-2V9.336c1.543-0.459,2.714-1.923,2.714-3.621 C15.714,3.666,14.048,2,12,2S8.286,3.666,8.286,5.715c0,1.698,1.171,3.162,2.714,3.621V11H9v2h2v6.906 C8.53,19.471,6.521,17.47,6.087,15H7v-2H5c-0.553,0-1,0.447-1,1c0,3.998,3.115,7.416,7,7.927V22h2v-0.073 c3.885-0.511,7-3.929,7-7.927C20,13.447,19.553,13,19,13z M10.286,5.715C10.286,4.77,11.055,4,12,4s1.714,0.77,1.714,1.715 C13.714,6.666,12.913,7.5,12,7.5S10.286,6.666,10.286,5.715z"/></svg>