<svg xmlns="http://www.w3.org/2000/svg" width="24" height="24" viewBox="0 0 24 24"><path d="M22,9h-1V6.021c0.003-0.146-0.007-1.465-1.3-2.735C18.427,2.036,17.143,2,17,2H6.996C6.757,2,5.503,2.063,4.288,3.302 C3.036,4.578,3,5.859,3,6v3H2v3h1v7c0,0.553,0.447,1,1,1h1v1c0,0.553,0.447,1,1,1h2c0.553,0,1-0.447,1-1v-1h6v1 c0,0.553,0.447,1,1,1h2c0.553,0,1-0.447,1-1v-1h1c0.553,0,1-0.447,1-1v-7h1V9z M5,8h6v4H5V8z M13,8h6v4h-6V8z M7,4l9.975,0 c0.026,0.001,0.64,0.042,1.324,0.713C18.971,5.373,18.999,5.979,19,6H5.002c0.012-0.115,0.1-0.672,0.714-1.298 C6.375,4.03,6.981,4.001,7,4z M18,18h-2H8H6H5v-4h14v4H18z"/><path d="M6 15H8V16.991H6zM16 15H18V16.991H16z"/></svg>