<!-- Generated by IcoMoon.io -->
<svg version="1.1" xmlns="http://www.w3.org/2000/svg" width="16" height="16" viewBox="0 0 16 16">
<title>bx-broadcast</title>
<path d="M12.195 3.805c1.822 1.822 1.822 4.902 0 6.724l0.943 0.943c2.333-2.333 2.333-6.276 0-8.609l-0.943 0.943zM11.138 9.471c0.629-0.629 0.977-1.448 0.977-2.305s-0.347-1.676-0.977-2.305l-0.943 0.943c0.377 0.377 0.586 0.861 0.586 1.362s-0.209 0.985-0.586 1.362l0.943 0.943zM4.138 10.529c-1.822-1.822-1.822-4.902 0-6.724l-0.943-0.943c-2.333 2.333-2.333 6.276 0 8.609l0.943-0.943z"></path>
<path d="M4.862 4.862c-0.629 0.629-0.977 1.448-0.977 2.305s0.347 1.676 0.977 2.305l0.943-0.943c-0.377-0.377-0.586-0.861-0.586-1.362s0.209-0.985 0.586-1.362l-0.943-0.943zM8.667 14v-5.851c0.401-0.233 0.666-0.66 0.667-1.149v-0c0-0.736-0.597-1.333-1.333-1.333s-1.333 0.597-1.333 1.333v0c0.001 0.489 0.266 0.916 0.66 1.145l0.006 0.003v5.851h1.333z"></path>
</svg>
