<svg xmlns="http://www.w3.org/2000/svg" width="24" height="24" viewBox="0 0 24 24"><path d="M20.979 7.706c.005-.069.021-.137.021-.206C21 5.103 16.794 3 12 3S3 5.103 3 7.5c0 .069.016.137.022.206h-.001l.002.009c.016.147.046.293.092.437l1.906 9.055c.018.084.046.165.084.241C6.284 19.805 8.604 21 12 21s5.716-1.195 6.895-3.553c.038-.076.066-.157.084-.241l1.906-9.055c.046-.144.076-.289.092-.437l.002-.008zM12 5c4.333 0 6.868 1.804 6.988 2.451l-.048.228C18.554 8.408 16.07 10 12 10S5.446 8.408 5.06 7.679l-.048-.228C5.132 6.804 7.667 5 12 5zm5.05 11.661C16.207 18.234 14.554 19 12 19s-4.207-.766-5.05-2.339l-1.268-6.022C7.335 11.47 9.593 12 12 12s4.665-.53 6.317-1.361l-1.267 6.022z"/></svg>