<svg xmlns="http://www.w3.org/2000/svg" width="24" height="24" viewBox="0 0 24 24"><path d="M18.293 5.707c2.733 2.733 2.733 7.353 0 10.086l1.414 1.414c3.5-3.5 3.5-9.414 0-12.914L18.293 5.707zM16.707 14.207c.944-.943 1.465-2.172 1.465-3.457s-.521-2.514-1.465-3.457l-1.414 1.414c.566.566.879 1.292.879 2.043s-.313 1.477-.879 2.043L16.707 14.207zM6.207 15.793c-2.733-2.733-2.733-7.353 0-10.086L4.793 4.293c-3.5 3.5-3.5 9.414 0 12.914L6.207 15.793z"/><path d="M7.293 7.293C6.349 8.236 5.828 9.465 5.828 10.75s.521 2.514 1.465 3.457l1.414-1.414c-.566-.566-.879-1.292-.879-2.043s.313-1.477.879-2.043L7.293 7.293zM13 21v-8.777c.596-.347 1-.984 1-1.723 0-1.104-.896-2-2-2s-2 .896-2 2c-.001.738.404 1.377 1 1.723V21H13z"/></svg>