<!-- Generated by IcoMoon.io -->
<svg version="1.1" xmlns="http://www.w3.org/2000/svg" width="16" height="16" viewBox="0 0 16 16">
<title>bx-book-open</title>
<path d="M14 2c-1.217 0-4.57 0.122-6 1.341-1.43-1.219-4.783-1.341-6-1.341-0.368 0-0.667 0.298-0.667 0.667v0 8.667c0 0.368 0.298 0.667 0.667 0.667v0c3.645 0 5.513 1.789 5.531 1.807l0.005-0.005c0.060 0.059 0.127 0.111 0.207 0.145 0.076 0.033 0.165 0.052 0.258 0.052 0.182 0 0.348-0.073 0.468-0.191l-0 0c0.018-0.018 1.886-1.807 5.531-1.807 0.368 0 0.667-0.298 0.667-0.667v0-8.667c0-0.368-0.298-0.667-0.667-0.667v0zM2.667 3.347c2.323 0.088 4.667 0.624 4.667 1.32v7.361c-0.955-0.565-2.509-1.227-4.667-1.344v-7.337zM13.333 10.685c-2.156 0.116-3.711 0.778-4.667 1.343v-7.361c0-0.695 2.344-1.231 4.667-1.32v7.338z"></path>
</svg>
