<!-- Generated by IcoMoon.io -->
<svg version="1.1" xmlns="http://www.w3.org/2000/svg" width="16" height="16" viewBox="0 0 16 16">
<title>bx-barcode</title>
<path d="M14 2.667h-12c-0.368 0-0.667 0.298-0.667 0.667v0 9.333c0 0.368 0.298 0.667 0.667 0.667v0h12c0.368 0 0.667-0.298 0.667-0.667v0-9.333c0-0.368-0.298-0.667-0.667-0.667v0zM13.333 12h-10.667v-8h10.667v8z"></path>
<path d="M4 5.333h1.333v5.333h-1.333zM6 5.333h0.667v5.333h-0.667zM11.333 5.333h0.667v5.333h-0.667zM8.667 5.333h2v5.333h-2zM7.333 5.333h0.667v5.333h-0.667z"></path>
</svg>
