<svg xmlns="http://www.w3.org/2000/svg" width="24" height="24"><path fill="none" d="M5 20h14V8H5v12zm10.998-2C14.996 17.997 8 18 8 18v-2s7.001-.002 8.002 0l-.004 2zm-.498-8c.828 0 1.5.896 1.5 2s-.672 2-1.5 2-1.5-.896-1.5-2 .672-2 1.5-2zm-7 0c.828 0 1.5.896 1.5 2s-.672 2-1.5 2S7 13.104 7 12s.672-2 1.5-2z"/><ellipse cx="8.5" cy="12" rx="1.5" ry="2"/><ellipse cx="15.5" cy="12" rx="1.5" ry="2"/><path d="M21 7a1 1 0 0 0-1-1h-7V4.688c.305-.274.5-.668.5-1.11a1.5 1.5 0 0 0-3 0c0 .442.195.836.5 1.11V6H4a1 1 0 0 0-1 1v4H2v4h1v6a1 1 0 0 0 1 1h16a1 1 0 0 0 1-1v-6h1v-4h-1V7zm-2 13H5V8h14v12z"/><path d="M8 16v2s6.996-.003 7.998 0l.004-2C15.001 15.998 8 16 8 16z"/></svg>