<!-- Generated by IcoMoon.io -->
<svg version="1.1" xmlns="http://www.w3.org/2000/svg" width="16" height="16" viewBox="0 0 16 16">
<title>bx-block</title>
<path d="M8 14.667c3.676 0 6.667-2.991 6.667-6.667s-2.991-6.667-6.667-6.667-6.667 2.991-6.667 6.667 2.991 6.667 6.667 6.667zM13.333 8c-0 1.237-0.424 2.374-1.134 3.276l0.009-0.011-7.473-7.473c0.89-0.702 2.028-1.125 3.265-1.125v0c2.941 0 5.333 2.393 5.333 5.333zM3.792 4.735l7.473 7.473c-0.89 0.702-2.028 1.125-3.264 1.125-0 0-0 0-0 0h0c-2.941 0-5.333-2.393-5.333-5.333 0-1.231 0.423-2.361 1.125-3.265z"></path>
</svg>
