<!-- Generated by IcoMoon.io -->
<svg version="1.1" xmlns="http://www.w3.org/2000/svg" width="16" height="16" viewBox="0 0 16 16">
<title>bx-bell-ring</title>
<path d="M12 9.843v-1.843c0-1.727-1.13-3.246-2.751-3.789-0.189-0.516-0.675-0.877-1.246-0.877-0.001 0-0.002 0-0.002 0h0c-0.577 0-1.061 0.363-1.247 0.873-1.608 0.531-2.753 2.055-2.753 3.793v1.843l-0.597 1.193c-0.045 0.087-0.071 0.19-0.071 0.299 0 0.367 0.298 0.665 0.665 0.665 0.001 0 0.002 0 0.003 0h2.667c0 0.736 0.597 1.333 1.333 1.333s1.333-0.597 1.333-1.333v0h2.667c0.004 0 0.009 0 0.014 0 0.368 0 0.667-0.298 0.667-0.667 0-0.153-0.052-0.294-0.138-0.406l0.001 0.002-0.543-1.086zM5.079 10.667l0.184-0.369c0.045-0.086 0.071-0.189 0.071-0.297 0-0 0-0.001 0-0.001v0-2c0-1.315 0.983-2.448 2.243-2.631l0.425-0.034 0.387 0.030c1.293 0.2 2.273 1.302 2.279 2.634v2.001c0 0.103 0.024 0.206 0.070 0.298l0.185 0.369h-5.843zM3.531 2.86c-2.197 2.182-2.197 3.763-2.197 5.807h0.667l0.667-0.042c0-1.952 0-3.027 1.803-4.818l-0.939-0.947zM12.469 2.86l-0.939 0.947c1.803 1.791 1.803 2.866 1.803 4.86l1.333-0.042c0-2.001 0-3.583-2.197-5.765z"></path>
</svg>
