<!-- Generated by IcoMoon.io -->
<svg version="1.1" xmlns="http://www.w3.org/2000/svg" width="16" height="16" viewBox="0 0 16 16">
<title>bx-bell-minus</title>
<path d="M5.333 6.667h5.333v1.333h-5.333z"></path>
<path d="M13.333 9.892v-1.892c0-3.052-1.639-5.305-4.109-5.863-0.204-0.474-0.673-0.804-1.224-0.804s-1.020 0.33-1.224 0.804c-2.47 0.558-4.109 2.811-4.109 5.863v1.892l-0.632 1.897c-0.022 0.063-0.034 0.135-0.034 0.211 0 0.368 0.298 0.666 0.666 0.667h3.333c0 1.109 0.891 2 2 2s2-0.891 2-2h3.333c0.004 0 0.009 0 0.013 0 0.368 0 0.667-0.298 0.667-0.667 0-0.121-0.032-0.235-0.089-0.333l0.002 0.003-0.593-1.778zM3.592 11.333l0.374-1.123c0.021-0.063 0.034-0.135 0.034-0.211v-2c0-2.835 1.57-4.667 4-4.667s4 1.832 4 4.667v2c0 0.071 0.012 0.143 0.035 0.211l0.373 1.123h-8.816z"></path>
</svg>
