<!-- Generated by IcoMoon.io -->
<svg version="1.1" xmlns="http://www.w3.org/2000/svg" width="16" height="16" viewBox="0 0 16 16">
<title>bx-box</title>
<path d="M14 2h-12c-0.368 0-0.667 0.298-0.667 0.667v0 2.667c0 0.368 0.298 0.667 0.667 0.667v0 7.333c0 0.368 0.298 0.667 0.667 0.667v0h10.667c0.368 0 0.667-0.298 0.667-0.667v0-7.333c0.368 0 0.667-0.298 0.667-0.667v0-2.667c0-0.368-0.298-0.667-0.667-0.667v0zM2.667 3.333h10.667v1.333h-10.667v-1.333zM12.667 12.667h-9.333v-6.667h9.333v6.667z"></path>
<path d="M5.333 7.333h5.333v1.333h-5.333z"></path>
</svg>
