<!-- Generated by IcoMoon.io -->
<svg version="1.1" xmlns="http://www.w3.org/2000/svg" width="16" height="16" viewBox="0 0 16 16">
<title>bx-bullseye</title>
<path d="M8 12c2.206 0 4-1.794 4-4s-1.794-4-4-4-4 1.794-4 4 1.794 4 4 4zM8 5.333c1.471 0 2.667 1.196 2.667 2.667s-1.196 2.667-2.667 2.667-2.667-1.196-2.667-2.667 1.196-2.667 2.667-2.667z"></path>
<path d="M8 14.667c3.614 0 6.667-3.053 6.667-6.667s-3.053-6.667-6.667-6.667-6.667 3.053-6.667 6.667 3.053 6.667 6.667 6.667zM8 2.667c2.891 0 5.333 2.442 5.333 5.333s-2.442 5.333-5.333 5.333-5.333-2.442-5.333-5.333 2.442-5.333 5.333-5.333z"></path>
<path d="M8 9.333c0.721 0 1.333-0.613 1.333-1.333s-0.613-1.333-1.333-1.333-1.333 0.613-1.333 1.333 0.613 1.333 1.333 1.333z"></path>
</svg>
