<!-- Generated by IcoMoon.io -->
<svg version="1.1" xmlns="http://www.w3.org/2000/svg" width="16" height="16" viewBox="0 0 16 16">
<title>bx-ball</title>
<path d="M13.497 2.020c-0.046-0.012-1.161-0.289-2.701-0.289-1.895 0-4.579 0.427-6.607 2.458-3.559 3.566-2.227 9.073-2.168 9.307 0.062 0.239 0.246 0.423 0.48 0.483l0.005 0.001c0.046 0.012 1.151 0.284 2.679 0.284 1.899 0 4.589-0.427 6.621-2.459 3.557-3.557 2.234-9.067 2.176-9.299-0.061-0.239-0.246-0.424-0.48-0.485l-0.005-0.001zM10.862 10.862c-1.709 1.709-4.031 2.069-5.679 2.069-0.837 0-1.535-0.093-1.949-0.163-0.213-1.251-0.617-5.116 1.898-7.636 1.705-1.707 4.021-2.066 5.663-2.066 0.847 0 1.553 0.095 1.97 0.167 0.211 1.251 0.61 5.117-1.903 7.63z"></path>
<path d="M10.195 4.862l-1.195 1.195-1.195-1.195-0.943 0.943 1.196 1.195-1.057 1.057-1.195-1.196-0.943 0.943 1.195 1.196-1.195 1.195 0.943 0.943 1.195-1.195 1.195 1.195 0.943-0.943-1.195-1.195 1.057-1.057 1.195 1.195 0.943-0.943-1.195-1.195 1.195-1.195z"></path>
</svg>
