<svg xmlns="http://www.w3.org/2000/svg" width="24" height="24"><path fill="none" d="M16.193 4.598c-2.464 0-5.938.538-8.495 3.099-3.773 3.78-3.166 9.578-2.847 11.454.621.106 1.669.245 2.924.245 2.471 0 5.954-.539 8.518-3.103 3.77-3.77 3.171-9.568 2.854-11.445a17.543 17.543 0 0 0-2.954-.25zm.515 7.694l-1.414 1.414-1.794-1.792-1.585 1.586 1.792 1.793-1.415 1.414-1.792-1.792-1.792 1.792-1.414-1.414L9.086 13.5l-1.793-1.794 1.415-1.414 1.793 1.794 1.585-1.586-1.794-1.793 1.414-1.414L13.5 9.086l1.793-1.793 1.414 1.414-1.792 1.793 1.793 1.792z"/><path d="M20.245 3.03c-.069-.018-1.742-.433-4.052-.433-2.842 0-6.869.64-9.91 3.687-5.339 5.349-3.34 13.61-3.252 13.96a1 1 0 0 0 .727.726c.069.018 1.726.426 4.018.426 2.849 0 6.884-.641 9.932-3.688 5.335-5.335 3.351-13.6 3.264-13.949a1.003 1.003 0 0 0-.727-.729zm-3.952 13.263c-2.564 2.563-6.047 3.103-8.518 3.103-1.255 0-2.303-.139-2.924-.245-.319-1.876-.926-7.674 2.847-11.454 2.557-2.561 6.031-3.099 8.495-3.099 1.27 0 2.33.142 2.955.25.316 1.877.915 7.675-2.855 11.445z"/><path d="M15.293 7.293L13.5 9.086l-1.793-1.793-1.415 1.414 1.794 1.793-1.585 1.586-1.793-1.794-1.415 1.414L9.086 13.5l-1.793 1.793 1.415 1.414 1.792-1.792 1.792 1.792 1.415-1.414-1.792-1.793 1.585-1.586 1.793 1.792 1.415-1.414-1.793-1.792 1.793-1.793z"/></svg>