<!-- Generated by IcoMoon.io -->
<svg version="1.1" xmlns="http://www.w3.org/2000/svg" width="16" height="16" viewBox="0 0 16 16">
<title>bx-bell-off</title>
<path d="M4 10v-2c0-0.407 0.036-0.791 0.098-1.154l-1.093-1.094c-0.214 0.662-0.338 1.423-0.338 2.213 0 0.012 0 0.025 0 0.037v-0.002 1.892l-0.632 1.897c-0.022 0.063-0.034 0.135-0.034 0.211 0 0.368 0.298 0.666 0.666 0.667h3.436c0 1.109 0.891 2 2 2 0.001 0 0.002 0 0.003 0 1.043 0 1.899-0.804 1.98-1.826l0-0.007-1.5-1.5h-4.994l0.374-1.123c0.021-0.063 0.034-0.135 0.034-0.211v-0zM13.875 12.39c0.079-0.108 0.126-0.243 0.126-0.39 0-0.076-0.013-0.148-0.036-0.216l0.001 0.005-0.633-1.897v-1.892c0-3.052-1.639-5.305-4.109-5.863-0.209-0.477-0.677-0.804-1.221-0.804-0.001 0-0.002 0-0.003 0h0c-0.55 0-1.018 0.329-1.223 0.802-0.941 0.215-1.752 0.675-2.391 1.309l0-0-1.915-1.915-0.943 0.943 12 12 0.943-0.943-0.907-0.907c0.122-0.046 0.231-0.123 0.311-0.231zM8 3.333c2.43 0 4 1.832 4 4.667v2c0 0.071 0.012 0.143 0.035 0.211l0.373 1.123h-0.132l-6.958-6.958c0.679-0.666 1.591-1.042 2.682-1.042z"></path>
</svg>
