<svg xmlns="http://www.w3.org/2000/svg" width="24" height="24"><path d="M6 15v-3c0-.61.054-1.186.147-1.731l-1.64-1.641A11.116 11.116 0 0 0 4 12v2.838l-.948 2.846A1 1 0 0 0 4 19h5.154c0 1.664 1.336 3 3 3a2.98 2.98 0 0 0 2.975-2.75l-.25-.25-2-2H5.388l.561-1.684A1.03 1.03 0 0 0 6 15zM20.812 18.585a1 1 0 0 0 .137-.901L20 14.838V12c0-4.578-2.459-7.957-6.164-8.794A1.993 1.993 0 0 0 12 2c-.825 0-1.527.494-1.834 1.203A7.379 7.379 0 0 0 6.58 5.166L3.707 2.293 2.293 3.707l18 18 1.414-1.414-1.361-1.361c.183-.069.347-.184.466-.347zM12 5c3.645 0 6 2.748 6 7v3c0 .107.018.214.052.316l.56 1.684h-.198L7.977 6.563C8.995 5.564 10.363 5 12 5z"/></svg>