<svg xmlns="http://www.w3.org/2000/svg" width="24" height="24"><path fill="none" d="M6 19.277l5.504-3.145a.996.996 0 0 1 .992 0L18 19.277V4H6v15.277zm4.667-10.61L12 6l1.333 2.667L16 9l-2.223 1.889.89 3.111L12 12.222 9.333 14l.89-3.111L8 9l2.667-.333z"/><path d="M9.333 14L12 12.222 14.667 14l-.89-3.111L16 9l-2.667-.333L12 6l-1.333 2.667L8 9l2.223 1.889z"/><path d="M19 22a.998.998 0 0 0 1-1V3a1 1 0 0 0-1-1H5a1 1 0 0 0-1 1v18a1 1 0 0 0 1.496.868L12 18.152l6.504 3.716A.996.996 0 0 0 19 22zm-1-2.723l-5.504-3.145a.996.996 0 0 0-.992 0L6 19.277V4h12v15.277z"/></svg>