<!-- Generated by IcoMoon.io -->
<svg version="1.1" xmlns="http://www.w3.org/2000/svg" width="16" height="16" viewBox="0 0 16 16">
<title>bx-briefcase</title>
<path d="M14 4h-2.667v-2c0-0.368-0.298-0.667-0.667-0.667h-5.333c-0.369 0-0.667 0.299-0.667 0.667v2h-2.667c-0.369 0-0.667 0.299-0.667 0.667v8c0 0.368 0.298 0.667 0.667 0.667h12c0.369 0 0.667-0.299 0.667-0.667v-8c0-0.368-0.298-0.667-0.667-0.667zM10 2.667v1.333h-4v-1.333h4zM5.333 5.333h8v2h-10.667v-2h2.667zM2.667 12v-3.333h4v1.333h2.667v-1.333h4v3.333h-10.667z"></path>
</svg>
