<!-- Generated by IcoMoon.io -->
<svg version="1.1" xmlns="http://www.w3.org/2000/svg" width="16" height="16" viewBox="0 0 16 16">
<title>bx-bolt</title>
<path d="M6.473 14.638c0.058 0.018 0.125 0.029 0.194 0.029 0.23 0 0.433-0.117 0.553-0.294l0.002-0.002 5.333-8c0.070-0.104 0.112-0.232 0.112-0.37 0-0.368-0.298-0.667-0.667-0.667-0 0-0 0-0 0h-3.213l0.537-3.223c0.006-0.033 0.009-0.071 0.009-0.11 0-0.165-0.060-0.315-0.159-0.431l0.001 0.001c-0.123-0.145-0.305-0.236-0.508-0.236-0 0-0 0-0 0h-4c0 0 0 0-0 0-0.345 0-0.628 0.262-0.663 0.597l-0 0.003-0.667 6.667c-0.002 0.020-0.003 0.043-0.003 0.067 0 0.368 0.298 0.667 0.667 0.667 0 0 0 0 0 0h2v4.667c0 0.299 0.197 0.552 0.469 0.637l0.005 0.001zM4.737 8l0.533-5.333h2.609l-0.537 3.223c-0.006 0.033-0.009 0.071-0.009 0.11 0 0.165 0.060 0.315 0.159 0.431l-0.001-0.001c0.127 0.15 0.313 0.236 0.509 0.236h2.755l-3.421 5.131v-3.131c0-0.368-0.298-0.667-0.667-0.667v0h-1.93z"></path>
</svg>
