<!-- Generated by IcoMoon.io -->
<svg version="1.1" xmlns="http://www.w3.org/2000/svg" width="16" height="16" viewBox="0 0 16 16">
<title>bx-bug</title>
<path d="M11.263 4.346l1.875-1.875-0.943-0.943-1.897 1.897c-0.138-0.101-0.295-0.201-0.459-0.291l-0.023-0.011c-0.526-0.287-1.152-0.455-1.817-0.455s-1.291 0.169-1.837 0.465l0.020-0.010c-0.167 0.088-0.325 0.191-0.481 0.302l-1.897-1.897-0.943 0.943 1.875 1.875c-0.374 0.472-0.679 1.021-0.888 1.614l-0.012 0.040h-2.504v1.333h1.538c-0.043 0.33-0.071 0.665-0.071 1 0 0.338 0.028 0.675 0.071 1.007h-1.538v1.333h1.835c0.009 0.026 0.014 0.053 0.023 0.079 0.125 0.37 0.281 0.729 0.463 1.067 0.029 0.054 0.063 0.103 0.094 0.156l-1.553 1.553 0.943 0.943 1.407-1.407c0.387 0.431 0.843 0.792 1.352 1.066l0.026 0.013c0.319 0.169 0.655 0.299 0.997 0.387 0.324 0.087 0.696 0.136 1.080 0.136s0.754-0.050 1.108-0.143l-0.030 0.007c0.38-0.099 0.711-0.231 1.021-0.399l-0.024 0.012c0.31-0.164 0.609-0.367 0.889-0.603 0.172-0.145 0.333-0.308 0.489-0.477l1.407 1.407 0.943-0.943-1.553-1.553c0.031-0.053 0.065-0.103 0.095-0.157 0.182-0.337 0.338-0.695 0.463-1.066 0.009-0.026 0.014-0.053 0.023-0.079h1.836v-1.333h-1.539c0.043-0.333 0.071-0.669 0.071-1.007 0-0.335-0.028-0.67-0.071-1h1.538v-1.333h-2.504c-0.221-0.633-0.526-1.182-0.908-1.666l0.009 0.012zM5.787 5.165c0.297-0.372 0.64-0.662 1.019-0.863 0.345-0.19 0.756-0.301 1.194-0.301s0.849 0.112 1.207 0.308l-0.013-0.007c0.404 0.222 0.744 0.511 1.015 0.856l0.005 0.007c0.199 0.249 0.36 0.533 0.502 0.834h-5.431c0.143-0.301 0.303-0.586 0.503-0.835zM11.867 8.333c0 0.348-0.028 0.696-0.084 1.035-0.053 0.327-0.133 0.649-0.237 0.957-0.113 0.334-0.239 0.617-0.387 0.887l0.014-0.029c-0.154 0.282-0.316 0.524-0.496 0.75l0.008-0.010c-0.178 0.222-0.373 0.424-0.579 0.599s-0.426 0.323-0.653 0.443-0.463 0.211-0.705 0.273c-0.027 0.007-0.055 0.009-0.081 0.015v-3.921h-1.333v3.921c-0.027-0.006-0.055-0.009-0.081-0.015-0.241-0.062-0.478-0.153-0.705-0.273s-0.446-0.269-0.652-0.443c-0.213-0.182-0.404-0.378-0.574-0.591l-0.007-0.008c-0.173-0.216-0.335-0.457-0.474-0.713l-0.013-0.026c-0.133-0.241-0.26-0.525-0.362-0.82l-0.012-0.039c-0.094-0.269-0.177-0.591-0.232-0.923l-0.005-0.035c-0.053-0.309-0.083-0.666-0.083-1.029 0-0.355 0.029-0.702 0.084-1.041l-0.005 0.037h7.574c0.053 0.327 0.080 0.663 0.080 1z"></path>
</svg>
