<svg xmlns="http://www.w3.org/2000/svg" width="24" height="24"><path fill="none" d="M17.103 13a6.05 6.05 0 0 0 1.697 3.193A7.938 7.938 0 0 0 19.931 13h-2.828zM15.068 13H13v6.931a7.98 7.98 0 0 0 4.549-2.181c-1.349-1.275-2.238-2.953-2.481-4.75zM17.087 11h2.844a7.935 7.935 0 0 0-1.216-3.333c-.859.883-1.428 2.061-1.628 3.333zM11 13H8.932c-.242 1.797-1.132 3.475-2.48 4.75a7.98 7.98 0 0 0 4.549 2.181V13zM8.936 11H11V4.069a7.976 7.976 0 0 0-4.426 2.069c1.294 1.264 2.138 3 2.362 4.862zM17.426 6.138A7.976 7.976 0 0 0 13 4.069V11h2.064c.224-1.862 1.068-3.598 2.362-4.862zM6.913 11c-.2-1.272-.77-2.45-1.628-3.333A7.949 7.949 0 0 0 4.069 11h2.844zM6.897 13H4.069A7.938 7.938 0 0 0 5.2 16.193c.888-.881 1.48-2 1.697-3.193z"/><path d="M12 2C6.486 2 2 6.486 2 12s4.486 10 10 10 10-4.486 10-10S17.514 2 12 2zm1 9V4.069a7.981 7.981 0 0 1 4.426 2.068c-1.294 1.265-2.138 3-2.361 4.862H13zm-2 0H8.936c-.224-1.862-1.068-3.598-2.362-4.862A7.976 7.976 0 0 1 11 4.069V11zm-4.087 0H4.069a7.935 7.935 0 0 1 1.216-3.333C6.144 8.55 6.713 9.728 6.913 11zm-.016 2A6.05 6.05 0 0 1 5.2 16.193 7.938 7.938 0 0 1 4.069 13h2.828zm2.035 0H11v6.931a7.98 7.98 0 0 1-4.549-2.181C7.8 16.475 8.689 14.797 8.932 13zM13 13h2.068c.242 1.797 1.132 3.475 2.48 4.75a7.98 7.98 0 0 1-4.549 2.181V13zm4.103 0h2.828a7.938 7.938 0 0 1-1.131 3.193c-.888-.881-1.48-2-1.697-3.193zm-.016-2c.2-1.272.77-2.45 1.628-3.333A7.935 7.935 0 0 1 19.931 11h-2.844z"/></svg>