<!-- Generated by IcoMoon.io -->
<svg version="1.1" xmlns="http://www.w3.org/2000/svg" width="16" height="16" viewBox="0 0 16 16">
<title>bx-bicycle</title>
<path d="M12.459 8.12l-2.659-4.787h2.201v-1.333h-3.333c-0.368 0-0.666 0.299-0.666 0.667 0 0.119 0.031 0.23 0.085 0.327l-0.002-0.003 1.301 2.343h-4.903l-0.57-0.997c-0.117-0.202-0.332-0.336-0.579-0.336h-1.333v1.333h0.947l1.532 2.681c-0.049-0.002-0.096-0.015-0.145-0.015-1.654 0-3 1.346-3 3s1.346 3 3 3 3-1.346 3-3c-0.002-0.238-0.031-0.469-0.086-0.69l0.004 0.020 2.82-3.761 0.853 1.535c-1.295 0.332-2.258 1.499-2.258 2.896 0 1.654 1.346 3 3 3s3-1.346 3-3c0-1.378-0.939-2.531-2.208-2.88zM4.333 12.667c-0.919 0-1.667-0.747-1.667-1.667s0.747-1.667 1.667-1.667 1.667 0.747 1.667 1.667-0.747 1.667-1.667 1.667zM6.569 9.019c-0.002-0.003-0.004-0.006-0.007-0.008l0 0 0.016-0.009-1.335-2.335h3.089l-1.764 2.353zM11.667 12.667c-0.919 0-1.667-0.747-1.667-1.667s0.747-1.667 1.667-1.667 1.667 0.747 1.667 1.667-0.747 1.667-1.667 1.667z"></path>
</svg>
