<svg xmlns="http://www.w3.org/2000/svg" width="24" height="24"><path fill="none" d="M11 13v4.697L16.132 10H12a1.003 1.003 0 0 1-.987-1.165L11.819 4H7.905l-.8 8H10a1 1 0 0 1 1 1z"/><path d="M9.71 21.957a.999.999 0 0 0 1.122-.402l8-12A1 1 0 0 0 18 8h-4.819l.806-4.835a.996.996 0 0 0-.224-.811A.998.998 0 0 0 13 2H7a1 1 0 0 0-.995.9l-1 10A1 1 0 0 0 6 14h3v7a1 1 0 0 0 .71.957zM7.105 12l.8-8h3.914l-.806 4.835a.996.996 0 0 0 .224.811c.19.225.469.354.763.354h4.132L11 17.697V13a1 1 0 0 0-1-1H7.105z"/></svg>