<!-- Generated by IcoMoon.io -->
<svg version="1.1" xmlns="http://www.w3.org/2000/svg" width="16" height="16" viewBox="0 0 16 16">
<title>bx-bulb</title>
<path d="M6 13.333h4v1.333h-4zM11.271 9.141c0.687-0.804 1.396-1.635 1.396-3.141 0-2.573-2.094-4.667-4.667-4.667s-4.667 2.094-4.667 4.667c0 1.523 0.711 2.352 1.401 3.153 0.239 0.279 0.486 0.567 0.723 0.899 0.096 0.137 0.253 0.664 0.394 1.281h-0.517v1.333h5.333v-1.333h-0.516c0.142-0.618 0.3-1.146 0.395-1.283 0.235-0.335 0.484-0.627 0.725-0.909zM9.455 9.283c-0.289 0.411-0.531 1.383-0.671 2.050h-1.567c-0.139-0.668-0.381-1.642-0.674-2.053-0.273-0.374-0.535-0.698-0.81-1.009l0.013 0.015c-0.649-0.756-1.079-1.256-1.079-2.285 0-1.838 1.495-3.333 3.333-3.333s3.333 1.495 3.333 3.333c0 1.014-0.429 1.516-1.077 2.275-0.249 0.292-0.531 0.622-0.802 1.008z"></path>
</svg>
