<!-- Generated by IcoMoon.io -->
<svg version="1.1" xmlns="http://www.w3.org/2000/svg" width="16" height="16" viewBox="0 0 16 16">
<title>bx-buoy</title>
<path d="M8 1.333c-3.676 0-6.667 2.991-6.667 6.667s2.991 6.667 6.667 6.667 6.667-2.991 6.667-6.667-2.991-6.667-6.667-6.667zM12.941 6h-2.274v0.021c-0.197-0.263-0.424-0.49-0.679-0.681l-0.009-0.006h0.021v-2.274c1.34 0.556 2.384 1.6 2.928 2.905l0.013 0.035zM8 10c-1.103 0-2-0.897-2-2s0.897-2 2-2 2 0.897 2 2-0.897 2-2 2zM8.667 2.713v2.021c-0.2-0.043-0.431-0.068-0.667-0.068s-0.466 0.025-0.688 0.071l0.022-0.004v-2.021c0.219-0.027 0.44-0.046 0.667-0.046s0.448 0.019 0.667 0.046zM6 3.059v2.274h0.021c-0.263 0.197-0.49 0.424-0.681 0.679l-0.006 0.009v-0.021h-2.274c0.542-1.333 1.607-2.399 2.941-2.941zM2.713 7.333h2.021c-0.043 0.2-0.067 0.43-0.067 0.665 0 0.237 0.025 0.467 0.072 0.69l-0.004-0.022h-2.022c-0.027-0.219-0.046-0.441-0.046-0.667s0.019-0.448 0.046-0.667zM3.059 10h2.274v-0.021c0.189 0.254 0.414 0.479 0.667 0.67v2.291c-1.34-0.556-2.384-1.6-2.928-2.905l-0.013-0.035zM7.333 13.287v-2.021c0.2 0.043 0.431 0.068 0.667 0.068s0.466-0.025 0.688-0.071l-0.022 0.004v2.021c-0.219 0.027-0.44 0.046-0.667 0.046s-0.448-0.019-0.667-0.046zM10 12.941v-2.291c0.255-0.193 0.474-0.414 0.66-0.661l0.006-0.009v0.021h2.274c-0.556 1.34-1.6 2.384-2.905 2.928l-0.035 0.013zM13.287 8.667h-2.021c0.043-0.2 0.067-0.43 0.067-0.665 0-0.237-0.025-0.467-0.072-0.69l0.004 0.022h2.021c0.028 0.219 0.047 0.441 0.047 0.667s-0.019 0.448-0.046 0.667z"></path>
</svg>
