<svg xmlns="http://www.w3.org/2000/svg" width="24" height="24"><path fill="none" d="M13 7v11.041c1.433-.847 3.766-1.84 7-2.014V5.02c-3.484.134-7 .938-7 1.98zM11 7c0-1.044-3.516-1.848-7-1.98v11.007c3.237.174 5.567 1.168 7 2.016V7z"/><path d="M21 3c-1.826 0-6.855.183-9 2.011C9.855 3.183 4.826 3 3 3a1 1 0 0 0-1 1v13a1 1 0 0 0 1 1c5.467 0 8.269 2.684 8.297 2.71l.007-.007c.09.088.19.166.311.217a1.005 1.005 0 0 0 1.089-.209C12.731 20.684 15.533 18 21 18a1 1 0 0 0 1-1V4a1 1 0 0 0-1-1zM4 5.02c3.484.132 7 .936 7 1.98v11.042c-1.433-.847-3.763-1.841-7-2.016V5.02zm16 11.007c-3.234.174-5.567 1.167-7 2.014V7c0-1.042 3.516-1.846 7-1.98v11.007z"/></svg>