<svg xmlns="http://www.w3.org/2000/svg" width="24" height="24" viewBox="0 0 24 24"><path d="M18.688,12.18L14.699,5H18V3h-5c-0.354,0-0.683,0.188-0.862,0.493c-0.18,0.305-0.184,0.683-0.012,0.992L14.078,8H6.722 C6.009,6.767,4.685,6,3.259,6H2v2h1.259c0.716,0,1.382,0.386,1.737,1.008l1.723,3.015C6.645,12.019,6.575,12,6.5,12 C4.019,12,2,14.019,2,16.5S4.019,21,6.5,21s4.5-2.019,4.5-4.5c0-0.347-0.048-0.681-0.122-1.004l4.23-5.642l1.279,2.302 C14.445,12.654,13,14.404,13,16.5c0,2.481,2.019,4.5,4.5,4.5s4.5-2.019,4.5-4.5C22,14.433,20.591,12.704,18.688,12.18z M6.5,19 C5.121,19,4,17.879,4,16.5S5.121,14,6.5,14S9,15.121,9,16.5S7.879,19,6.5,19z M9.854,13.529c-0.003-0.004-0.006-0.008-0.01-0.012 l0.024-0.014L7.866,10H12.5L9.854,13.529z M17.5,19c-1.379,0-2.5-1.121-2.5-2.5s1.121-2.5,2.5-2.5s2.5,1.121,2.5,2.5 S18.879,19,17.5,19z"/></svg>