<svg xmlns="http://www.w3.org/2000/svg" width="24" height="24" viewBox="0 0 24 24"><path d="M17.5,11c-0.124,0-0.241,0.026-0.363,0.037L13.618,4H16V2h-4c-0.347,0-0.668,0.18-0.851,0.475s-0.199,0.663-0.044,0.973	L12.882,7H5.942L4.813,5.419C4.626,5.156,4.323,5,4,5H2v2h1.485l2.868,4.015C3.941,11.094,2,13.068,2,15.5C2,17.981,4.019,20,6.5,20	s4.5-2.019,4.5-4.5c0-0.863-0.256-1.663-0.68-2.349l3.876-3.523l1.011,2.021C13.892,12.436,13,13.859,13,15.5	c0,2.481,2.019,4.5,4.5,4.5s4.5-2.019,4.5-4.5S19.981,11,17.5,11z M6.5,18C5.121,18,4,16.879,4,15.5S5.121,13,6.5,13	S9,14.121,9,15.5S7.879,18,6.5,18z M9.168,11.496L7.421,9h4.492L9.168,11.496z M17.5,18c-1.379,0-2.5-1.121-2.5-2.5	c0-0.859,0.436-1.618,1.098-2.068l0.008,0.016l0.631-0.315C16.979,13.054,17.232,13,17.5,13c1.379,0,2.5,1.121,2.5,2.5	S18.879,18,17.5,18z"/></svg>