<svg xmlns="http://www.w3.org/2000/svg" width="24" height="24"><path d="M18.688 12.18L14.699 5H18V3h-5a1 1 0 0 0-.874 1.485L14.078 8H6.723l-.855-1.496A1 1 0 0 0 5 6H3v2h1.42l2.298 4.022C6.645 12.019 6.574 12 6.5 12 4.019 12 2 14.019 2 16.5S4.019 21 6.5 21s4.5-2.019 4.5-4.5a4.48 4.48 0 0 0-.122-1.004l4.23-5.642 1.279 2.302C14.445 12.654 13 14.404 13 16.5c0 2.481 2.019 4.5 4.5 4.5s4.5-2.019 4.5-4.5c0-2.067-1.409-3.796-3.312-4.32zM6.5 19C5.121 19 4 17.879 4 16.5S5.121 14 6.5 14 9 15.121 9 16.5 7.879 19 6.5 19zm3.354-5.471a.106.106 0 0 0-.01-.012l.024-.014L7.866 10H12.5l-2.646 3.529zM17.5 19c-1.379 0-2.5-1.121-2.5-2.5s1.121-2.5 2.5-2.5 2.5 1.121 2.5 2.5-1.121 2.5-2.5 2.5z"/></svg>