<svg xmlns="http://www.w3.org/2000/svg" width="24" height="24" viewBox="0 0 24 24"><path d="M21,3c-1.826,0-6.855,0.183-9,2.011C9.855,3.183,4.826,3,3,3C2.447,3,2,3.448,2,4v13c0,0.552,0.447,1,1,1	c5.467,0,8.269,2.684,8.297,2.71l0.007-0.007c0.09,0.088,0.19,0.166,0.311,0.217c0.125,0.052,0.256,0.078,0.386,0.078	c0.258,0,0.513-0.1,0.703-0.287C12.731,20.684,15.533,18,21,18c0.553,0,1-0.448,1-1V4C22,3.448,21.553,3,21,3z M4,5.02	C7.484,5.152,11,5.956,11,7v11.042c-1.433-0.847-3.763-1.841-7-2.016V5.02z M20,16.027c-3.234,0.174-5.567,1.167-7,2.014V7	c0-1.042,3.516-1.846,7-1.98V16.027z"/></svg>