<!-- Generated by IcoMoon.io -->
<svg version="1.1" xmlns="http://www.w3.org/2000/svg" width="16" height="16" viewBox="0 0 16 16">
<title>bx-bed</title>
<path d="M13.333 6.371v-4.371h-1.333v1.333h-8v-1.333h-1.333v4.371c-0.793 0.462-1.333 1.312-1.333 2.295v2.667c0 0.369 0.299 0.667 0.667 0.667h0.667v2.667h1.333v-2.667h8v2.667h1.333v-2.667h0.667c0.369 0 0.667-0.298 0.667-0.667v-2.667c0-0.983-0.541-1.833-1.333-2.295zM12 4.667v1.333h-3.333v-1.333h3.333zM4 4.667h3.333v1.333h-3.333v-1.333zM13.333 10.667h-10.667v-2c0-0.735 0.598-1.333 1.333-1.333h8c0.735 0 1.333 0.598 1.333 1.333v2z"></path>
</svg>
