<!-- Generated by IcoMoon.io -->
<svg version="1.1" xmlns="http://www.w3.org/2000/svg" width="16" height="16" viewBox="0 0 16 16">
<title>bx-bath</title>
<path d="M14 6.667h-9.333v-2c0-0.735 0.598-1.333 1.333-1.333s1.333 0.598 1.333 1.333h1.333c0-1.471-1.196-2.667-2.667-2.667s-2.667 1.196-2.667 2.667v2h-1.333c-0.369 0-0.667 0.298-0.667 0.667v1.333c0 1.737 1.116 3.215 2.667 3.767v2.233h1.333v-2h5.333v2h1.333v-2.233c1.551-0.551 2.667-2.029 2.667-3.767v-1.333c0-0.369-0.298-0.667-0.667-0.667zM13.333 8.667c0 1.471-1.196 2.667-2.667 2.667h-5.333c-1.471 0-2.667-1.196-2.667-2.667v-0.667h10.667v0.667z"></path>
</svg>
