<!-- Generated by IcoMoon.io -->
<svg version="1.1" xmlns="http://www.w3.org/2000/svg" width="16" height="16" viewBox="0 0 16 16">
<title>bx-battery-charging</title>
<path d="M4.667 8l2.667 0.667-0.667 2.667 3.333-3.333-2.667-0.667 0.667-2.667z"></path>
<path d="M2 12h3.333l0.357-1.333h-3.024v-5.333h3.149l1.389-1.333h-5.204c-0.368 0-0.667 0.298-0.667 0.667v0 6.667c0 0.368 0.298 0.667 0.667 0.667v0zM13.333 4.667c0-0.368-0.298-0.667-0.667-0.667v0h-3.333l-0.357 1.333h3.023v5.333h-3.149l-1.389 1.333h5.205c0.368 0 0.667-0.298 0.667-0.667v0-2h1.333v-2.667h-1.333v-2z"></path>
</svg>
