<svg xmlns="http://www.w3.org/2000/svg" width="24" height="24" viewBox="0 0 24 24"><path d="M20.245,3.03c-0.069-0.018-1.742-0.433-4.052-0.433c-2.842,0-6.869,0.64-9.91,3.687c-5.339,5.349-3.34,13.61-3.252,13.96 c0.09,0.357,0.369,0.637,0.727,0.726c0.069,0.018,1.726,0.426,4.018,0.426c2.849,0,6.884-0.641,9.932-3.688 c5.335-5.335,3.351-13.6,3.264-13.949C20.881,3.4,20.603,3.12,20.245,3.03z M16.293,16.293c-2.564,2.563-6.047,3.103-8.518,3.103 c-1.255,0-2.303-0.139-2.924-0.245c-0.319-1.876-0.926-7.674,2.847-11.454c2.557-2.561,6.031-3.099,8.495-3.099 c1.27,0,2.33,0.142,2.955,0.25C19.464,6.725,20.063,12.523,16.293,16.293z"/><path d="M16.293 6.293L14.5 8.086 13.208 6.793 11.793 8.207 13.086 9.5 12 10.586 10.708 9.293 9.293 10.707 10.586 12 9.5 13.086 8.208 11.793 6.793 13.207 8.086 14.5 6.293 16.293 7.708 17.707 9.5 15.914 10.793 17.207 12.208 15.793 10.915 14.5 12 13.414 13.293 14.707 14.708 13.293 13.415 12 14.5 10.914 15.793 12.207 17.208 10.793 15.915 9.5 17.708 7.707z"/></svg>