<svg xmlns="http://www.w3.org/2000/svg" width="24" height="24"><path fill="none" d="M16 15v-3c0-1.97-1.47-3.669-3.419-3.952l-.58-.045-.637.051C9.474 8.328 8 10.027 8 12v3c0 .155-.036.309-.105.447L7.618 16h8.764l-.276-.553A.99.99 0 0 1 16 15z"/><path d="M18 14.764V12c0-2.591-1.695-4.869-4.127-5.684A1.986 1.986 0 0 0 12 5c-.865 0-1.591.545-1.871 1.31C7.717 7.107 6 9.393 6 12v2.764l-.895 1.789A.998.998 0 0 0 6 18h4a2 2 0 0 0 4 0h4a1 1 0 0 0 .815-1.607L18 14.764zM7.618 16l.276-.553A.99.99 0 0 0 8 15v-3c0-1.973 1.474-3.672 3.364-3.946l.637-.051.58.045A4.015 4.015 0 0 1 16 12v3c0 .155.036.309.105.447l.277.553H7.618zM5.296 4.29C2 7.563 2 9.935 2 13h1l1-.063c0-2.928 0-4.541 2.704-7.227L5.296 4.29zM18.704 4.29l-1.408 1.42C20 8.396 20 10.009 20 13l2-.063c0-3.002 0-5.374-3.296-8.647z"/></svg>