<!-- Generated by IcoMoon.io -->
<svg version="1.1" xmlns="http://www.w3.org/2000/svg" width="16" height="16" viewBox="0 0 16 16">
<title>bx-bookmarks</title>
<path d="M2.667 14c0 0.368 0.299 0.667 0.667 0.667 0.127 0 0.245-0.035 0.346-0.097l-0.003 0.002 2.99-1.794 2.99 1.794c0.098 0.060 0.217 0.095 0.343 0.095 0.121 0 0.234-0.032 0.332-0.088l-0.003 0.002c0.203-0.117 0.338-0.333 0.338-0.58v0-9.333c0-0.368-0.298-0.667-0.667-0.667v0h-6.667c-0.368 0-0.667 0.298-0.667 0.667v0 9.333zM4 5.333h5.333v7.489l-2.323-1.394c-0.098-0.059-0.216-0.094-0.343-0.094s-0.246 0.035-0.347 0.097l0.003-0.002-2.323 1.393v-7.489z"></path>
<path d="M13.333 10.667v-8.667c0-0.368-0.298-0.667-0.667-0.667v0h-6v1.333h5.333v8h1.333z"></path>
</svg>
