<!-- Generated by IcoMoon.io -->
<svg version="1.1" xmlns="http://www.w3.org/2000/svg" width="16" height="16" viewBox="0 0 16 16">
<title>bx-briefcase-alt</title>
<path d="M14 4h-2.667v-2c0-0.368-0.298-0.667-0.667-0.667v0h-5.333c-0.368 0-0.667 0.298-0.667 0.667v0 2h-2.667c-0.368 0-0.667 0.298-0.667 0.667v0 8c0 0.368 0.298 0.667 0.667 0.667v0h12c0.368 0 0.667-0.298 0.667-0.667v0-8c0-0.368-0.298-0.667-0.667-0.667v0zM10.667 5.333v6.667h-5.333v-6.667h5.333zM10 2.667v1.333h-4v-1.333h4zM2.667 5.333h1.333v6.667h-1.333v-6.667zM13.333 12h-1.333v-6.667h1.333v6.667z"></path>
</svg>
