<!-- Generated by IcoMoon.io -->
<svg version="1.1" xmlns="http://www.w3.org/2000/svg" width="16" height="16" viewBox="0 0 16 16">
<title>bx-bus</title>
<path d="M14 4.014c0.002-0.097-0.005-0.977-0.867-1.823-0.849-0.833-1.705-0.857-1.8-0.857h-6.669c-0.159 0-0.995 0.042-1.805 0.868-0.835 0.851-0.859 1.705-0.859 1.799v2h-0.667v2h0.667v4.667c0 0.368 0.298 0.667 0.667 0.667v0h0.667v0.667c0 0.368 0.298 0.667 0.667 0.667v0h1.333c0.368 0 0.667-0.298 0.667-0.667v0-0.667h4v0.667c0 0.368 0.298 0.667 0.667 0.667v0h1.333c0.368 0 0.667-0.298 0.667-0.667v0-0.667h0.667c0.368 0 0.667-0.298 0.667-0.667v0-4.667h0.667v-2h-0.667v-1.986zM3.333 5.333h4v2.667h-4v-2.667zM8.667 5.333h4v2.667h-4v-2.667zM4.667 2.667h6.65c0.017 0.001 0.427 0.028 0.883 0.475 0.448 0.44 0.467 0.844 0.467 0.858h-9.332c0.008-0.077 0.067-0.448 0.476-0.865 0.439-0.448 0.843-0.467 0.856-0.468zM12 12h-8.667v-2.667h9.333v2.667h-0.667z"></path>
<path d="M4 10h1.333v1.333h-1.333zM10.667 10h1.333v1.333h-1.333z"></path>
</svg>
