<svg xmlns="http://www.w3.org/2000/svg" width="24" height="24"><path fill="none" d="M19 6c-.001-.021-.029-.627-.701-1.287-.685-.672-1.298-.712-1.324-.713H7c-.019.001-.625.03-1.284.702-.614.626-.702 1.183-.714 1.298H19zM13 8h6v4h-6zM5 14v4h14v-4H5zm3 3H6v-2h2v2zm10 0h-2v-2h2v2zM5 8h6v4H5z"/><path d="M21 6.021c.003-.146-.007-1.465-1.3-2.735C18.427 2.036 17.143 2 17 2H6.996c-.239 0-1.493.063-2.708 1.302C3.036 4.578 3 5.859 3 6v3H2v3h1v7a1 1 0 0 0 1 1h1v1a1 1 0 0 0 1 1h2a1 1 0 0 0 1-1v-1h6v1a1 1 0 0 0 1 1h2a1 1 0 0 0 1-1v-1h1a1 1 0 0 0 1-1v-7h1V9h-1V6.021zM5 8h6v4H5V8zm8 0h6v4h-6V8zM7 4h9.975c.026.001.64.042 1.324.713.672.66.7 1.266.701 1.287H5.002c.012-.115.1-.672.714-1.298C6.375 4.03 6.981 4.001 7 4zm11 14H5v-4h14v4h-1z"/><path d="M6 15h2v2H6zM16 15h2v2h-2z"/></svg>