<!-- Generated by IcoMoon.io -->
<svg version="1.1" xmlns="http://www.w3.org/2000/svg" width="16" height="16" viewBox="0 0 16 16">
<title>bx-bot</title>
<path d="M6.667 8c0 0.736-0.448 1.333-1 1.333s-1-0.597-1-1.333c0-0.736 0.448-1.333 1-1.333s1 0.597 1 1.333z"></path>
<path d="M11.333 8c0 0.736-0.448 1.333-1 1.333s-1-0.597-1-1.333c0-0.736 0.448-1.333 1-1.333s1 0.597 1 1.333z"></path>
<path d="M14 4.667c0-0.368-0.298-0.667-0.667-0.667v0h-4.667v-0.875c0.203-0.183 0.333-0.445 0.333-0.74 0-0.552-0.448-1-1-1s-1 0.448-1 1v0c0 0.295 0.13 0.557 0.333 0.74v0.875h-4.667c-0.368 0-0.667 0.298-0.667 0.667v0 2.667h-0.667v2.667h0.667v4c0 0.368 0.298 0.667 0.667 0.667v0h10.667c0.368 0 0.667-0.298 0.667-0.667v0-4h0.667v-2.667h-0.667v-2.667zM12.667 13.333h-9.333v-8h9.333v8z"></path>
<path d="M5.333 10.667v1.333s4.664-0.002 5.332 0l0.003-1.333c-0.667-0.001-5.335 0-5.335 0z"></path>
</svg>
