<!-- Generated by IcoMoon.io -->
<svg version="1.1" xmlns="http://www.w3.org/2000/svg" width="16" height="16" viewBox="0 0 16 16">
<title>bx-bookmark-star</title>
<path d="M6.222 9.333l1.778-1.185 1.778 1.185-0.593-2.074 1.482-1.259-1.778-0.222-0.889-1.778-0.889 1.778-1.778 0.222 1.482 1.259z"></path>
<path d="M12.667 14.667c0 0 0.001 0 0.001 0 0.367 0 0.665-0.298 0.665-0.665 0-0 0-0.001 0-0.001v0-12c0-0.368-0.298-0.667-0.667-0.667v0h-9.333c-0.368 0-0.667 0.298-0.667 0.667v0 12c0 0.368 0.299 0.666 0.667 0.666 0.122 0 0.236-0.033 0.334-0.089l-0.003 0.002 4.336-2.477 4.336 2.477c0.095 0.055 0.209 0.088 0.33 0.088 0 0 0 0 0 0h-0zM12 12.851l-3.669-2.097c-0.095-0.055-0.209-0.088-0.331-0.088s-0.236 0.033-0.334 0.090l0.003-0.002-3.669 2.097v-10.185h8v10.185z"></path>
</svg>
