<svg xmlns="http://www.w3.org/2000/svg" width="24" height="24"><path fill="none" d="M18.312 16.897A7.954 7.954 0 0 0 20 12c0-4.411-3.589-8-8-8a7.948 7.948 0 0 0-4.897 1.688l11.209 11.209zM12 20a7.946 7.946 0 0 0 4.897-1.688L5.688 7.103A7.948 7.948 0 0 0 4 12c0 4.411 3.589 8 8 8z"/><path d="M12 22c5.514 0 10-4.486 10-10S17.514 2 12 2 2 6.486 2 12s4.486 10 10 10zm8-10a7.954 7.954 0 0 1-1.688 4.897L7.103 5.688A7.948 7.948 0 0 1 12 4c4.411 0 8 3.589 8 8zM5.688 7.103l11.209 11.209A7.946 7.946 0 0 1 12 20c-4.411 0-8-3.589-8-8 0-1.846.634-3.542 1.688-4.897z"/></svg>