<!-- Generated by IcoMoon.io -->
<svg version="1.1" xmlns="http://www.w3.org/2000/svg" width="16" height="16" viewBox="0 0 16 16">
<title>bx-basketball</title>
<path d="M8 1.333c-3.676 0-6.667 2.991-6.667 6.667s2.991 6.667 6.667 6.667 6.667-2.991 6.667-6.667-2.991-6.667-6.667-6.667zM8.667 7.333v-4.621c1.151 0.15 2.164 0.647 2.954 1.382l-0.003-0.003c-0.863 0.843-1.425 2-1.574 3.241h-1.377zM7.333 7.333h-1.376c-0.149-1.241-0.712-2.399-1.575-3.241 0.786-0.732 1.8-1.23 2.924-1.376l0.027-0.003v4.621zM4.609 7.333h-1.896c0.107-0.837 0.395-1.59 0.823-2.242l-0.012 0.020c0.573 0.589 0.952 1.374 1.085 2.222zM4.598 8.667c-0.161 0.84-0.563 1.568-1.131 2.128l-0 0c-0.384-0.609-0.651-1.329-0.751-2.102l-0.003-0.027h1.885zM5.955 8.667h1.379v4.621c-1.189-0.154-2.233-0.68-3.034-1.455l0.001 0.001c0.899-0.85 1.492-1.969 1.654-3.167zM8.667 8.667h1.379c0.161 1.198 0.755 2.317 1.653 3.167-0.8 0.774-1.844 1.3-3.006 1.451l-0.027 0.003v-4.621zM11.402 8.667h1.885c-0.103 0.799-0.37 1.52-0.767 2.151l0.013-0.022c-0.592-0.587-0.987-1.333-1.131-2.129zM11.391 7.333c0.133-0.848 0.513-1.633 1.085-2.222 0.416 0.632 0.703 1.385 0.808 2.196l0.003 0.026h-1.896z"></path>
</svg>
