<!-- Generated by IcoMoon.io -->
<svg version="1.1" xmlns="http://www.w3.org/2000/svg" width="16" height="16" viewBox="0 0 16 16">
<title>bx-bookmark</title>
<path d="M2.667 14c0 0.368 0.299 0.666 0.667 0.666 0.122 0 0.236-0.033 0.334-0.089l-0.003 0.002 4.336-2.478 4.336 2.478c0.095 0.056 0.209 0.088 0.331 0.088 0.123 0 0.239-0.034 0.337-0.092l-0.003 0.002c0.2-0.118 0.332-0.332 0.332-0.577 0-0 0-0 0-0v0-12c0-0.368-0.298-0.667-0.667-0.667v0h-9.333c-0.368 0-0.667 0.298-0.667 0.667v0 12zM4 2.667h8v10.184l-3.669-2.097c-0.095-0.055-0.209-0.087-0.33-0.087s-0.236 0.033-0.334 0.089l0.003-0.002-3.669 2.096v-10.184z"></path>
</svg>
