<!-- Generated by IcoMoon.io -->
<svg version="1.1" xmlns="http://www.w3.org/2000/svg" width="16" height="16" viewBox="0 0 16 16">
<title>bx-building</title>
<path d="M3.333 14.667h9.333c0.368 0 0.667-0.298 0.667-0.667v0-12c0-0.368-0.298-0.667-0.667-0.667v0h-9.333c-0.368 0-0.667 0.298-0.667 0.667v0 12c0 0.368 0.298 0.667 0.667 0.667v0zM4 2.667h8v10.667h-2.667v-1.333h-2.667v1.333h-2.667v-10.667z"></path>
<path d="M5.333 4h2v1.333h-2zM8.667 4h2v1.333h-2zM5.333 6.667h2v1.333h-2zM8.667 6.687h2v1.313h-2zM5.333 9.333h2v1.333h-2zM8.667 9.333h2v1.333h-2z"></path>
</svg>
