<!-- Generated by IcoMoon.io -->
<svg version="1.1" xmlns="http://www.w3.org/2000/svg" width="16" height="16" viewBox="0 0 16 16">
<title>bx-bluetooth</title>
<path d="M3.747 11.856l2.919-2.311v4.455c0.001 0.368 0.299 0.666 0.667 0.666 0.151 0 0.289-0.050 0.401-0.134l-0.002 0.001 4-3c0.163-0.123 0.267-0.316 0.267-0.533 0-0.211-0.098-0.399-0.251-0.522l-0.001-0.001-3.129-2.477 3.129-2.477c0.154-0.123 0.252-0.311 0.252-0.523 0-0.217-0.104-0.41-0.265-0.532l-0.002-0.001-4-3c-0.11-0.083-0.249-0.133-0.399-0.133-0.368 0-0.667 0.298-0.667 0.666v4.455l-2.919-2.311-0.828 1.045 3.551 2.811-3.551 2.811 0.828 1.045zM8 3.333l2.241 1.681-2.241 1.775v-3.455zM8 9.211l2.241 1.775-2.241 1.681v-3.455z"></path>
</svg>
