<svg xmlns="http://www.w3.org/2000/svg" width="24" height="24" viewBox="0 0 24 24"><path d="M19.707,8.293L19,7.586V6V5c0-0.553-0.447-1-1-1h-2h-0.586l-0.707-0.707l-2-2c-0.391-0.391-1.023-0.391-1.414,0l-2,2 L8.586,4H7H6C5.447,4,5,4.447,5,5v1v1.586L4.293,8.293l-2,2c-0.391,0.391-0.391,1.023,0,1.414l2,2L5,14.414V16v1 c0,0.553,0.447,1,1,1h2h0.586l0.707,0.707l2,2C11.488,20.902,11.744,21,12,21s0.512-0.098,0.707-0.293l2-2L15.414,18H17h1 c0.553,0,1-0.447,1-1v-1v-1.586l0.707-0.707l2-2c0.391-0.391,0.391-1.023,0-1.414L19.707,8.293z M17.293,13.293L17,13.586V14v2h-2 h-0.414l-0.293,0.293l-1,1L12,18.586l-1.293-1.293l-1-1L9.414,16H9H8H7v-2v-0.414l-0.293-0.293l-1-1L4.414,11l1.293-1.293l1-1 L7,8.414V8V6h2h0.414l0.293-0.293l1-1L12,3.414l1.293,1.293l1,1L14.586,6H15h1h1v2v0.414l0.293,0.293l1,1L19.586,11l-1.293,1.293 L17.293,13.293z"/><path d="M12,7v8c2.206,0,4-1.794,4-4S14.206,7,12,7z"/></svg>