<!-- Generated by IcoMoon.io -->
<svg version="1.1" xmlns="http://www.w3.org/2000/svg" width="16" height="16" viewBox="0 0 16 16">
<title>bx-cart</title>
<path d="M5.385 10.923c0.103 0.243 0.34 0.41 0.615 0.41 0 0 0 0 0 0h5.999c0.278 0 0.527-0.173 0.625-0.432l2-5.333c0.026-0.069 0.042-0.149 0.042-0.233 0-0.369-0.298-0.667-0.666-0.669h-9.778l-0.94-2.257c-0.103-0.243-0.34-0.41-0.615-0.41-0 0-0 0-0 0h-1.333v1.333h0.889l3.163 7.59zM13.038 6l-1.5 4h-5.093l-1.667-4h8.26z"></path>
<path d="M8 13.667c0 0.552-0.448 1-1 1s-1-0.448-1-1c0-0.552 0.448-1 1-1s1 0.448 1 1z"></path>
<path d="M11.959 13.667c0 0.552-0.448 1-1 1s-1-0.448-1-1c0-0.552 0.448-1 1-1s1 0.448 1 1z"></path>
</svg>
