<!-- Generated by IcoMoon.io -->
<svg version="1.1" xmlns="http://www.w3.org/2000/svg" width="16" height="16" viewBox="0 0 16 16">
<title>bx-chart</title>
<path d="M14 13.333v-10.667c0-0.368-0.298-0.667-0.667-0.667v0h-10.667c-0.368 0-0.667 0.298-0.667 0.667v0 10.667c0 0.368 0.298 0.667 0.667 0.667v0h10.667c0.368 0 0.667-0.298 0.667-0.667v0zM12.667 12.667h-9.333v-9.333h9.333v9.333z"></path>
<path d="M6.921 8.206l2.115 1.057c0.087 0.044 0.19 0.070 0.298 0.070 0.242 0 0.453-0.128 0.57-0.321l0.002-0.003 2-3.333-1.143-0.686-1.682 2.804-2.115-1.057c-0.087-0.044-0.189-0.070-0.298-0.070-0.242 0-0.453 0.128-0.571 0.32l-0.002 0.003-2 3.333 1.143 0.686 1.682-2.804z"></path>
</svg>
