<svg xmlns="http://www.w3.org/2000/svg" width="24" height="24"><path fill="none" d="M12 4c-4.411 0-8 3.589-8 8s3.589 8 8 8 8-3.589 8-8-3.589-8-8-8zm-1.293 11.707a.997.997 0 0 1-1.413.001l-3.006-3L7.7 11.292l2.299 2.295 5.794-5.794 1.414 1.414-6.5 6.5z"/><path d="M12 2C6.486 2 2 6.486 2 12s4.486 10 10 10 10-4.486 10-10S17.514 2 12 2zm0 18c-4.411 0-8-3.589-8-8s3.589-8 8-8 8 3.589 8 8-3.589 8-8 8z"/><path d="M9.999 13.587L7.7 11.292l-1.412 1.416 3.006 3a.998.998 0 0 0 1.413-.001l6.5-6.5-1.414-1.414-5.794 5.794z"/></svg>