<!-- Generated by IcoMoon.io -->
<svg version="1.1" xmlns="http://www.w3.org/2000/svg" width="16" height="16" viewBox="0 0 16 16">
<title>bx-coffee</title>
<path d="M2 12.667c0 0.735 0.598 1.333 1.333 1.333h6.667c0.735 0 1.333-0.598 1.333-1.333v-0.667h2c0.368 0 0.667-0.298 0.667-0.667v0-4.667c0-0.368-0.298-0.667-0.667-0.667v0h-2v-0.667c0-0.368-0.298-0.667-0.667-0.667v0h-8c-0.368 0-0.667 0.298-0.667 0.667v0 7.333zM12.667 7.333v3.333h-1.333v-3.333h1.333zM3.333 6h6.667l0.001 6.667h-6.668v-6.667zM3.333 1.333h1.333v2h-1.333zM6 1.333h1.333v2h-1.333zM8.667 1.333h1.333v2h-1.333z"></path>
</svg>
