<!-- Generated by IcoMoon.io -->
<svg version="1.1" xmlns="http://www.w3.org/2000/svg" width="16" height="16" viewBox="0 0 16 16">
<title>bx-capsule</title>
<path d="M8.009 12.735l4.756-4.755c0.602-0.604 0.974-1.437 0.974-2.357s-0.372-1.754-0.975-2.358l0 0c-0.6-0.603-1.43-0.975-2.347-0.975-0.003 0-0.007 0-0.010 0h0.001c-0.89 0-1.727 0.347-2.356 0.976l-4.756 4.755c-0.602 0.604-0.974 1.437-0.974 2.358s0.372 1.753 0.974 2.357l-0-0c0.6 0.603 1.431 0.975 2.348 0.975 0.003 0 0.007 0 0.011-0h-0.001c0.002 0 0.005 0 0.008 0 0.918 0 1.748-0.373 2.348-0.976l0-0zM8.993 4.208c0.36-0.362 0.858-0.585 1.408-0.585 0.002 0 0.004 0 0.006 0h-0c0.535 0 1.037 0.208 1.415 0.585 0.362 0.362 0.585 0.862 0.585 1.415s-0.223 1.052-0.585 1.414l-1.929 1.928-2.828-2.829 1.928-1.927z"></path>
</svg>
