<!-- Generated by IcoMoon.io -->
<svg version="1.1" xmlns="http://www.w3.org/2000/svg" width="16" height="16" viewBox="0 0 16 16">
<title>bx-cast</title>
<path d="M1.333 6.667v1.333c3.308 0 6 2.692 6 6.001h1.333c0-4.044-3.29-7.334-7.333-7.334z"></path>
<path d="M4.667 14.001h1.333c0-2.573-2.093-4.667-4.667-4.667v1.333c1.838 0 3.333 1.495 3.333 3.334z"></path>
<path d="M3.333 13c0 0.552-0.448 1-1 1s-1-0.448-1-1c0-0.552 0.448-1 1-1s1 0.448 1 1z"></path>
<path d="M14 2.667h-12c-0.368 0-0.667 0.298-0.667 0.667v0 2h1.333v-1.333h10.667v8.667h-3.333v1.333h4c0.368 0 0.667-0.298 0.667-0.667v0-10c0-0.368-0.298-0.667-0.667-0.667v0z"></path>
</svg>
