<!-- Generated by IcoMoon.io -->
<svg version="1.1" xmlns="http://www.w3.org/2000/svg" width="16" height="16" viewBox="0 0 16 16">
<title>bx-clipboard</title>
<path d="M12.667 2h-2c0-0.368-0.298-0.667-0.667-0.667v0h-4c-0.368 0-0.667 0.298-0.667 0.667v0h-2c-0.368 0-0.667 0.298-0.667 0.667v0 11.333c0 0.368 0.298 0.667 0.667 0.667v0h9.333c0.368 0 0.667-0.298 0.667-0.667v0-11.333c0-0.368-0.298-0.667-0.667-0.667v0zM12 13.333h-8v-10h1.333v0.667c0 0.368 0.298 0.667 0.667 0.667v0h4c0.368 0 0.667-0.298 0.667-0.667v0-0.667h1.333v10z"></path>
</svg>
