<!-- Generated by IcoMoon.io -->
<svg version="1.1" xmlns="http://www.w3.org/2000/svg" width="16" height="16" viewBox="0 0 16 16">
<title>bx-camera</title>
<path d="M8 5.333c-1.445 0-2.667 1.221-2.667 2.667s1.221 2.667 2.667 2.667 2.667-1.221 2.667-2.667-1.221-2.667-2.667-2.667zM8 9.333c-0.71 0-1.333-0.623-1.333-1.333s0.623-1.333 1.333-1.333 1.333 0.623 1.333 1.333-0.623 1.333-1.333 1.333z"></path>
<path d="M14 3.333h-2.391l-1.805-1.805c-0.12-0.121-0.287-0.195-0.47-0.195-0 0-0.001 0-0.001 0h-2.667c-0 0-0.001 0-0.001 0-0.184 0-0.35 0.075-0.47 0.195l-1.805 1.805h-2.391c-0.368 0-0.667 0.298-0.667 0.667v0 8.667c0 0.368 0.298 0.667 0.667 0.667v0h12c0.368 0 0.667-0.298 0.667-0.667v0-8.667c0-0.368-0.298-0.667-0.667-0.667v0zM13.333 12h-10.667v-7.333h2c0.177 0 0.347-0.070 0.471-0.195l1.805-1.805h2.115l1.805 1.805c0.12 0.121 0.287 0.195 0.47 0.195 0 0 0.001 0 0.001 0h2v7.333z"></path>
</svg>
