<!-- Generated by IcoMoon.io -->
<svg version="1.1" xmlns="http://www.w3.org/2000/svg" width="16" height="16" viewBox="0 0 16 16">
<title>bx-code-curly</title>
<path d="M12.667 5.333c0-3.157-2.179-3.997-3.332-4l-0.009 1.333c0.205 0.004 2.007 0.115 2.007 2.667 0 1.329 0.554 2.164 1.251 2.667-0.697 0.503-1.251 1.338-1.251 2.667 0 2.551-1.802 2.663-2.007 2.667l0.007 0.667 0.001 0.667c1.153-0.003 3.332-0.843 3.332-4 0-1.882 1.669-1.996 2-2l0.004-1.333c-0.335-0.004-2.004-0.118-2.004-2zM3.333 10.667c0 3.157 2.179 3.997 3.332 4l0.009-1.333c-0.205-0.004-2.007-0.115-2.007-2.667 0-1.329-0.554-2.164-1.251-2.667 0.697-0.503 1.251-1.338 1.251-2.667 0-2.551 1.802-2.663 2.007-2.667l-0.007-0.667-0.001-0.667c-1.153 0.003-3.332 0.843-3.332 4 0 1.882-1.669 1.996-2 2l-0.004 1.333c0.335 0.004 2.004 0.118 2.004 2z"></path>
</svg>
