<svg xmlns="http://www.w3.org/2000/svg" width="24" height="24" viewBox="0 0 24 24"><path d="M21 5h-3.586l-2.707-2.707A.996.996 0 0 0 14 2h-4a.997.997 0 0 0-.707.293L8.207 3.379l1.414 1.414.793-.793h3.172l2.707 2.707A.996.996 0 0 0 17 7h3v8.172l2 2V6a1 1 0 0 0-1-1zM3 20h15.586l1.707 1.707 1.414-1.414-18-18-1.414 1.414L3.586 5H3a1 1 0 0 0-1 1v13a1 1 0 0 0 1 1zm7.083-8.502l2.406 2.406c-.668.153-1.419-.005-1.903-.489a1.98 1.98 0 0 1-.57-1.414c0-.175.027-.341.067-.503zM8.568 9.982A3.996 3.996 0 0 0 8.016 12c0 1.079.411 2.083 1.156 2.828A3.963 3.963 0 0 0 12 15.984a4 4 0 0 0 2.019-.552L16.586 18H4V7h1.586l2.982 2.982z"/></svg>