<!-- Generated by IcoMoon.io -->
<svg version="1.1" xmlns="http://www.w3.org/2000/svg" width="16" height="16" viewBox="0 0 16 16">
<title>bx-contact</title>
<path d="M8.667 8.667c-1.831 0-3.333 1.333-3.333 2.667h6.667c0-1.278-1.503-2.667-3.333-2.667zM8.667 8c0.959 0 1.667-0.707 1.667-1.667s-0.708-1.667-1.667-1.667-1.667 0.707-1.667 1.667 0.709 1.667 1.667 1.667z"></path>
<path d="M14 1.333h-10.667c-0.368 0-0.667 0.298-0.667 0.667v0 2.667h-1.333v1.333h1.333v1.333h-1.333v1.333h1.333v1.333h-1.333v1.333h1.333v2.667c0 0.368 0.298 0.667 0.667 0.667v0h10.667c0.368 0 0.667-0.298 0.667-0.667v0-12c0-0.368-0.298-0.667-0.667-0.667v0zM13.333 13.333h-9.333v-10.667h9.333v10.667z"></path>
</svg>
