<!-- Generated by IcoMoon.io -->
<svg version="1.1" xmlns="http://www.w3.org/2000/svg" width="16" height="16" viewBox="0 0 16 16">
<title>bx-camera-off</title>
<path d="M5.343 8.090c0.049 1.375 1.193 2.518 2.567 2.567l-2.567-2.567zM14 3.333h-2.391l-1.805-1.805c-0.12-0.121-0.287-0.195-0.47-0.195-0 0-0.001 0-0.001 0h-2.667c-0 0-0 0-0.001 0-0.184 0-0.35 0.075-0.471 0.195l-1.805 1.805h-0.115l-1.805-1.805-0.943 0.943 12 12 0.943-0.943-0.241-0.241c0.256-0.095 0.436-0.337 0.437-0.621v-8.667c0-0.368-0.298-0.667-0.667-0.667v0zM9.279 8.337l-1.616-1.617c0.109-0.031 0.221-0.053 0.337-0.053 0.71 0 1.333 0.623 1.333 1.333 0 0.116-0.022 0.228-0.054 0.337zM10.281 9.337c0.238-0.38 0.382-0.842 0.386-1.336l0-0.001c0-1.445-1.221-2.667-2.667-2.667-0.486 0-0.941 0.147-1.338 0.386l-1.386-1.386 1.667-1.667h2.115l1.805 1.805c0.12 0.121 0.287 0.195 0.47 0.195 0 0 0.001 0 0.001 0h2v7.333h-0.391l-2.662-2.663z"></path>
<path d="M2 13.333h8.586l-1.333-1.333h-6.586v-6.586l-1.333-1.333v8.586c0 0.368 0.298 0.667 0.667 0.667v0z"></path>
</svg>
