<!-- Generated by IcoMoon.io -->
<svg version="1.1" xmlns="http://www.w3.org/2000/svg" width="16" height="16" viewBox="0 0 16 16">
<title>bx-copy</title>
<path d="M9.333 6h-7.333c-0.368 0-0.667 0.298-0.667 0.667v0 7.333c0 0.368 0.298 0.667 0.667 0.667v0h7.333c0.368 0 0.667-0.298 0.667-0.667v0-7.333c0-0.368-0.298-0.667-0.667-0.667v0zM8.667 13.333h-6v-6h6v6z"></path>
<path d="M13.333 1.333h-8c-0.368 0-0.667 0.298-0.667 0.667v0 2h1.333v-1.333h6.667v6.667h-1.333v1.333h2c0.368 0 0.667-0.298 0.667-0.667v0-8c0-0.368-0.298-0.667-0.667-0.667v0z"></path>
</svg>
