<!-- Generated by IcoMoon.io -->
<svg version="1.1" xmlns="http://www.w3.org/2000/svg" width="16" height="16" viewBox="0 0 16 16">
<title>bx-chip</title>
<path d="M6 6h4v4h-4v-4z"></path>
<path d="M14.667 6v-1.333h-1.333v-1.333c0-0.369-0.298-0.667-0.667-0.667h-1.333v-1.333h-1.333v1.333h-1.333v-1.333h-1.333v1.333h-1.333v-1.333h-1.333v1.333h-1.333c-0.369 0-0.667 0.298-0.667 0.667v1.333h-1.333v1.333h1.333v1.333h-1.333v1.333h1.333v1.333h-1.333v1.333h1.333v1.333c0 0.369 0.298 0.667 0.667 0.667h1.333v1.333h1.333v-1.333h1.333v1.333h1.333v-1.333h1.333v1.333h1.333v-1.333h1.333c0.369 0 0.667-0.298 0.667-0.667v-1.333h1.333v-1.333h-1.333v-1.333h1.333v-1.333h-1.333v-1.333h1.333zM12 12h-8v-8h8v8z"></path>
</svg>
