<svg xmlns="http://www.w3.org/2000/svg" width="24" height="24"><path fill="none" d="M4 8v10h16V8H4zm6.707 7.293l-1.414 1.414-3-3a.999.999 0 0 1 0-1.414l3-3 1.414 1.414L8.414 13l2.293 2.293zm7-1.586l-3 3-1.414-1.414L15.586 13l-2.293-2.293 1.414-1.414 3 3a.999.999 0 0 1 0 1.414z"/><path d="M21 4H3a1 1 0 0 0-1 1v14a1 1 0 0 0 1 1h18a1 1 0 0 0 1-1V5a1 1 0 0 0-1-1zM4 18V8h16v10H4z"/><path d="M9.293 9.293l-3 3a.999.999 0 0 0 0 1.414l3 3 1.414-1.414L8.414 13l2.293-2.293-1.414-1.414zM14.707 9.293l-1.414 1.414L15.586 13l-2.293 2.293 1.414 1.414 3-3a.999.999 0 0 0 0-1.414l-3-3z"/></svg>