<!-- Generated by IcoMoon.io -->
<svg version="1.1" xmlns="http://www.w3.org/2000/svg" width="16" height="16" viewBox="0 0 16 16">
<title>bx-cog</title>
<path d="M8 10.667c1.471 0 2.667-1.196 2.667-2.667s-1.196-2.667-2.667-2.667-2.667 1.196-2.667 2.667 1.196 2.667 2.667 2.667zM8 6.667c0.723 0 1.333 0.611 1.333 1.333s-0.611 1.333-1.333 1.333-1.333-0.611-1.333-1.333 0.611-1.333 1.333-1.333z"></path>
<path d="M1.496 9.675c-0.045 0.171-0.021 0.353 0.067 0.506l1.333 2.307c0.184 0.318 0.593 0.427 0.911 0.244l0.931-0.537c0.387 0.305 0.814 0.555 1.263 0.741v1.065c0 0.368 0.298 0.667 0.667 0.667v0h2.667c0.368 0 0.667-0.298 0.667-0.667v0-1.065c0.483-0.203 0.899-0.452 1.275-0.75l-0.011 0.009 0.931 0.537c0.095 0.056 0.21 0.089 0.333 0.089 0.245 0 0.46-0.132 0.576-0.329l0.002-0.003 1.333-2.307c0.088-0.153 0.112-0.335 0.067-0.506s-0.157-0.317-0.311-0.405l-0.914-0.528c0.034-0.221 0.053-0.477 0.053-0.737 0-0.263-0.020-0.522-0.058-0.774l0.004 0.028 0.914-0.528c0.2-0.118 0.333-0.332 0.333-0.578 0-0.122-0.033-0.237-0.091-0.336l0.002 0.003-1.333-2.307c-0.118-0.201-0.332-0.333-0.578-0.333-0.123 0-0.238 0.033-0.336 0.091l0.003-0.002-0.931 0.537c-0.364-0.29-0.78-0.538-1.228-0.728l-0.035-0.013v-1.065c0-0.368-0.298-0.667-0.667-0.667v0h-2.667c-0.368 0-0.667 0.298-0.667 0.667v0 1.065c-0.483 0.203-0.899 0.452-1.275 0.75l0.011-0.009-0.93-0.537c-0.096-0.056-0.211-0.089-0.333-0.089-0.245 0-0.46 0.133-0.576 0.33l-0.002 0.003-1.333 2.307c-0.088 0.153-0.112 0.335-0.067 0.506s0.157 0.316 0.311 0.405l0.914 0.528c-0.034 0.223-0.054 0.48-0.054 0.741s0.020 0.519 0.057 0.77l-0.003-0.028-0.914 0.528c-0.151 0.089-0.263 0.231-0.31 0.401l-0.001 0.005zM4.113 8.919c-0.075-0.302-0.113-0.611-0.113-0.919s0.039-0.617 0.113-0.919c0.013-0.049 0.020-0.104 0.020-0.162 0-0.245-0.133-0.46-0.33-0.575l-0.003-0.002-0.749-0.433 0.666-1.153 0.763 0.441c0.096 0.056 0.211 0.089 0.333 0.089 0.178 0 0.34-0.070 0.459-0.184l-0 0c0.437-0.417 0.969-0.737 1.561-0.925l0.029-0.008c0.275-0.086 0.472-0.338 0.472-0.637 0-0 0-0.001 0-0.001v0-0.867h1.333v0.867c0 0 0 0 0 0 0 0.299 0.196 0.552 0.467 0.636l0.005 0.001c0.62 0.195 1.153 0.516 1.591 0.934l-0.002-0.002c0.119 0.113 0.281 0.183 0.459 0.183 0.123 0 0.237-0.033 0.336-0.091l-0.003 0.002 0.763-0.441 0.666 1.153-0.749 0.433c-0.201 0.117-0.333 0.332-0.333 0.577 0 0.057 0.007 0.113 0.021 0.166l-0.001-0.005c0.075 0.302 0.113 0.611 0.113 0.919s-0.039 0.617-0.113 0.919c-0.013 0.049-0.020 0.104-0.020 0.162 0 0.245 0.133 0.46 0.33 0.575l0.003 0.002 0.749 0.433-0.666 1.153-0.763-0.441c-0.096-0.056-0.211-0.089-0.333-0.089-0.178 0-0.34 0.070-0.459 0.184l0-0c-0.437 0.417-0.969 0.737-1.561 0.925l-0.029 0.008c-0.275 0.086-0.472 0.338-0.472 0.637 0 0 0 0.001 0 0.001v-0 0.867h-1.333v-0.867c0-0 0-0 0-0 0-0.299-0.196-0.552-0.467-0.636l-0.005-0.001c-0.62-0.195-1.153-0.516-1.591-0.934l0.002 0.002c-0.119-0.113-0.281-0.183-0.459-0.183-0.123 0-0.237 0.033-0.336 0.091l0.003-0.002-0.763 0.441-0.666-1.153 0.749-0.433c0.201-0.117 0.333-0.331 0.333-0.576 0-0.057-0.007-0.113-0.021-0.166l0.001 0.005z"></path>
</svg>
