<!-- Generated by IcoMoon.io -->
<svg version="1.1" xmlns="http://www.w3.org/2000/svg" width="16" height="16" viewBox="0 0 16 16">
<title>bx-command</title>
<path d="M4 9.333c-1.471 0-2.667 1.196-2.667 2.667s1.196 2.667 2.667 2.667c1.467-0.002 2.657-1.187 2.665-2.652v-0.001h0.001v-1.347h2.667v1.359h0.003c0.015 1.46 1.202 2.638 2.664 2.641h0c1.471 0 2.667-1.196 2.667-2.667s-1.196-2.667-2.667-2.667h-1.333v-2.667h1.333c1.471 0 2.667-1.196 2.667-2.667s-1.196-2.667-2.667-2.667-2.667 1.196-2.667 2.667v1.333h-2.667v-1.347h-0.001c-0.009-1.466-1.198-2.651-2.665-2.653h-0c-1.471 0-2.667 1.196-2.667 2.667s1.196 2.667 2.667 2.667h1.333v2.667h-1.333zM5.333 12c0 0.748-0.586 1.333-1.333 1.333s-1.333-0.585-1.333-1.333 0.586-1.333 1.333-1.333h1.333v1.333zM12 10.667c0.747 0 1.333 0.585 1.333 1.333s-0.586 1.333-1.333 1.333-1.333-0.585-1.333-1.333v-1.333h1.333zM10.667 4c0-0.748 0.586-1.333 1.333-1.333s1.333 0.585 1.333 1.333-0.586 1.333-1.333 1.333h-1.333v-1.333zM4 5.333c-0.747 0-1.333-0.585-1.333-1.333s0.586-1.333 1.333-1.333 1.333 0.585 1.333 1.333v1.333h-1.333zM6.667 6.667h2.667v2.667h-2.667v-2.667z"></path>
</svg>
