<svg xmlns="http://www.w3.org/2000/svg" width="24" height="24"><path fill="none" d="M5 20h14V8H5v12zm4.707-9.707L12 12.586l2.293-2.293 1.414 1.414L13.414 14l2.293 2.293-1.414 1.414L12 15.414l-2.293 2.293-1.414-1.414L10.586 14l-2.293-2.293 1.414-1.414z"/><path d="M8.293 16.293l1.414 1.414L12 15.414l2.293 2.293 1.414-1.414L13.414 14l2.293-2.293-1.414-1.414L12 12.586l-2.293-2.293-1.414 1.414L10.586 14z"/><path d="M20 4h-3V2h-2v2H9V2H7v2H4a1 1 0 0 0-1 1v16a1 1 0 0 0 1 1h16a1 1 0 0 0 1-1V5a1 1 0 0 0-1-1zm-1 16H5V8h14v12z"/></svg>