<!-- Generated by IcoMoon.io -->
<svg version="1.1" xmlns="http://www.w3.org/2000/svg" width="16" height="16" viewBox="0 0 16 16">
<title>bx-cart-alt</title>
<path d="M2.867 4l2.507 6.895c0.095 0.258 0.339 0.439 0.626 0.439 0 0 0 0 0 0h6v-1.333h-5.533l-0.485-1.333h6.685c0.297 0 0.559-0.197 0.641-0.484l1.333-4.667c0.016-0.055 0.025-0.118 0.025-0.183 0-0.152-0.050-0.291-0.135-0.404l0.001 0.002c-0.123-0.161-0.316-0.264-0.533-0.265h-12.667v1.333h1.533zM12.164 7.333h-6.667l-1.212-3.333h8.831l-0.952 3.333z"></path>
<path d="M8 13.667c0 0.552-0.448 1-1 1s-1-0.448-1-1c0-0.552 0.448-1 1-1s1 0.448 1 1z"></path>
<path d="M12 13.667c0 0.552-0.448 1-1 1s-1-0.448-1-1c0-0.552 0.448-1 1-1s1 0.448 1 1z"></path>
</svg>
