<!-- Generated by IcoMoon.io -->
<svg version="1.1" xmlns="http://www.w3.org/2000/svg" width="16" height="16" viewBox="0 0 16 16">
<title>bx-camera-alt</title>
<path d="M14 2.667h-1.333v-0.667h-2v0.667h-4.667v-1.333h-2.667v1.333h-1.333c-0.368 0-0.667 0.298-0.667 0.667v0 9.333c0 0.368 0.298 0.667 0.667 0.667v0h12c0.368 0 0.667-0.298 0.667-0.667v0-9.333c0-0.368-0.298-0.667-0.667-0.667v0zM2.667 4h10.667v2.667h-3.049c-0.47-0.787-1.323-1.333-2.285-1.333s-1.815 0.546-2.285 1.333h-3.049v-2.667zM8 6.667c0.71 0 1.333 0.623 1.333 1.333s-0.623 1.333-1.333 1.333-1.333-0.623-1.333-1.333 0.623-1.333 1.333-1.333zM2.667 12v-4h2.667c0 1.445 1.221 2.667 2.667 2.667s2.667-1.221 2.667-2.667h2.667v4h-10.667z"></path>
<path d="M12.667 6v-1.333h-1.333l0.007 1.333z"></path>
</svg>
