<!-- Generated by IcoMoon.io -->
<svg version="1.1" xmlns="http://www.w3.org/2000/svg" width="16" height="16" viewBox="0 0 16 16">
<title>bx-check-circle</title>
<path d="M8 1.333c-3.676 0-6.667 2.991-6.667 6.667s2.991 6.667 6.667 6.667 6.667-2.991 6.667-6.667-2.991-6.667-6.667-6.667zM8 13.333c-2.941 0-5.333-2.393-5.333-5.333s2.393-5.333 5.333-5.333 5.333 2.393 5.333 5.333-2.393 5.333-5.333 5.333z"></path>
<path d="M6.666 9.058l-1.533-1.53-0.941 0.944 2.004 2c0.12 0.121 0.287 0.195 0.471 0.195s0.351-0.075 0.471-0.196l4.333-4.333-0.943-0.943-3.863 3.863z"></path>
</svg>
