<!-- Generated by IcoMoon.io -->
<svg version="1.1" xmlns="http://www.w3.org/2000/svg" width="16" height="16" viewBox="0 0 16 16">
<title>bx-coupon</title>
<path d="M14 3.333h-12c-0.368 0-0.667 0.298-0.667 0.667v0 2.667c0 0.368 0.298 0.667 0.667 0.667v0c0.551 0 1 0.449 1 1s-0.449 1-1 1c-0.368 0-0.667 0.298-0.667 0.667v0 2c0 0.368 0.298 0.667 0.667 0.667v0h12c0.368 0 0.667-0.298 0.667-0.667v0-2c0-0.368-0.298-0.667-0.667-0.667v0c-0.551 0-1-0.449-1-1s0.449-1 1-1c0.368 0 0.667-0.298 0.667-0.667v0-2.667c0-0.368-0.298-0.667-0.667-0.667v0zM13.333 6.097c-0.963 0.288-1.667 1.181-1.667 2.236s0.704 1.949 1.667 2.236v0.764h-6v-1.333h-1.333v1.333h-3.333v-0.764c0.963-0.288 1.667-1.181 1.667-2.236s-0.704-1.949-1.667-2.236v-1.431h3.333v1.333h1.333v-1.333h6v1.431z"></path>
<path d="M6 7.333h1.333v1.333h-1.333z"></path>
</svg>
