<svg xmlns="http://www.w3.org/2000/svg" width="24" height="24"><path fill="none" d="M14.841 13.447l2.893-2.892a3.004 3.004 0 0 0-.001-4.243 2.982 2.982 0 0 0-2.122-.878c-.801 0-1.554.312-2.12.878l-2.892 2.892 4.242 4.243z"/><path d="M12.014 19.102l7.134-7.133a5.008 5.008 0 0 0-.001-7.072 4.969 4.969 0 0 0-3.536-1.463c-1.335 0-2.59.52-3.534 1.464l-7.134 7.133a5.01 5.01 0 0 0-.001 7.072 4.971 4.971 0 0 0 3.537 1.463 4.97 4.97 0 0 0 3.535-1.464zm1.476-12.79a2.979 2.979 0 0 1 2.12-.878c.802 0 1.556.312 2.122.878a3.004 3.004 0 0 1 .001 4.243l-2.893 2.892-4.242-4.244 2.892-2.891z"/></svg>