<!-- Generated by IcoMoon.io -->
<svg version="1.1" xmlns="http://www.w3.org/2000/svg" width="16" height="16" viewBox="0 0 16 16">
<title>bx-carousel</title>
<path d="M14 3.333h-2v-0.667c0-0.368-0.298-0.667-0.667-0.667v0h-6.667c-0.368 0-0.667 0.298-0.667 0.667v0 0.667h-2c-0.368 0-0.667 0.298-0.667 0.667v0 8c0 0.368 0.298 0.667 0.667 0.667v0h2v0.667c0 0.368 0.298 0.667 0.667 0.667v0h6.667c0.368 0 0.667-0.298 0.667-0.667v0-0.667h2c0.368 0 0.667-0.298 0.667-0.667v0-8c0-0.368-0.298-0.667-0.667-0.667v0zM2.667 11.333v-6.667h1.333v6.667h-1.333zM10.667 12.667h-5.333v-9.333h5.333v9.333zM13.333 11.333h-1.333v-6.667h1.333v6.667z"></path>
</svg>
