<!-- Generated by IcoMoon.io -->
<svg version="1.1" xmlns="http://www.w3.org/2000/svg" width="16" height="16" viewBox="0 0 16 16">
<title>bx-code-block</title>
<path d="M14 2.667h-12c-0.368 0-0.667 0.298-0.667 0.667v0 9.333c0 0.368 0.298 0.667 0.667 0.667v0h12c0.368 0 0.667-0.298 0.667-0.667v0-9.333c0-0.368-0.298-0.667-0.667-0.667v0zM2.667 12v-6.667h10.667v6.667h-10.667z"></path>
<path d="M6.195 6.195l-2 2c-0.121 0.121-0.195 0.287-0.195 0.471s0.075 0.351 0.195 0.471l2 2 0.943-0.943-1.529-1.529 1.529-1.529-0.943-0.943zM9.805 6.195l-0.943 0.943 1.529 1.529-1.529 1.529 0.943 0.943 2-2c0.121-0.121 0.195-0.287 0.195-0.471s-0.075-0.351-0.195-0.471l-2-2z"></path>
</svg>
