<!-- Generated by IcoMoon.io -->
<svg version="1.1" xmlns="http://www.w3.org/2000/svg" width="16" height="16" viewBox="0 0 16 16">
<title>bx-certification</title>
<path d="M1.371 9.785c0.047 0.174 0.159 0.316 0.307 0.403l0.003 0.002 1.273 0.736v1.466c0 0.368 0.298 0.667 0.667 0.667v0h1.466l0.736 1.273c0.118 0.2 0.332 0.332 0.577 0.333h0c0 0 0 0 0.001 0 0.123 0 0.238-0.033 0.337-0.091l-0.003 0.002 1.272-0.736 1.273 0.736c0.096 0.056 0.21 0.089 0.333 0.089 0.245 0 0.46-0.133 0.576-0.33l0.002-0.003 0.735-1.273h1.466c0.368 0 0.667-0.298 0.667-0.667v0-1.466l1.273-0.736c0.2-0.117 0.333-0.332 0.333-0.577 0-0.123-0.033-0.238-0.091-0.337l0.002 0.003-0.735-1.273 0.736-1.272c0.056-0.096 0.089-0.211 0.089-0.334 0-0.245-0.132-0.46-0.33-0.575l-0.003-0.002-1.273-0.736v-1.467c0-0.368-0.298-0.667-0.667-0.667v0h-1.466l-0.735-1.273c-0.089-0.151-0.231-0.263-0.4-0.31l-0.005-0.001c-0.052-0.015-0.112-0.023-0.173-0.023-0.123 0-0.237 0.033-0.336 0.091l0.003-0.002-1.274 0.735-1.273-0.736c-0.096-0.057-0.211-0.090-0.334-0.090-0.245 0-0.459 0.133-0.575 0.33l-0.002 0.003-0.736 1.273h-1.466c-0.368 0-0.667 0.298-0.667 0.667v0 1.466l-1.273 0.736c-0.2 0.118-0.332 0.333-0.332 0.578 0 0.123 0.033 0.238 0.091 0.337l-0.002-0.003 0.736 1.272-0.736 1.273c-0.057 0.095-0.090 0.21-0.090 0.333 0 0.061 0.008 0.121 0.024 0.177l-0.001-0.005zM3.521 7.673l-0.595-1.029 1.029-0.595c0.2-0.117 0.333-0.332 0.333-0.577 0-0 0-0 0-0v0-1.183h1.184c0.238 0 0.459-0.127 0.577-0.333l0.595-1.029 1.029 0.595c0.096 0.056 0.211 0.090 0.333 0.090s0.238-0.033 0.336-0.091l-0.003 0.002 1.030-0.595 0.594 1.029c0.117 0.201 0.332 0.333 0.577 0.333h1.184v1.184c0 0 0 0 0 0 0 0.245 0.132 0.459 0.33 0.575l0.003 0.002 1.029 0.595-0.595 1.029c-0.056 0.096-0.090 0.211-0.090 0.334s0.033 0.238 0.091 0.337l-0.002-0.003 0.595 1.029-1.029 0.595c-0.2 0.117-0.333 0.332-0.333 0.577 0 0 0 0 0 0v-0 1.184h-1.184c-0 0-0 0-0.001 0-0.245 0-0.459 0.133-0.575 0.33l-0.002 0.003-0.594 1.029-1.030-0.595c-0.096-0.056-0.211-0.090-0.334-0.090s-0.238 0.033-0.337 0.091l0.003-0.002-1.029 0.595-0.595-1.029c-0.118-0.2-0.332-0.333-0.577-0.333h-1.184v-1.184c0-0 0-0 0-0 0-0.245-0.132-0.459-0.33-0.575l-0.003-0.002-1.029-0.595 0.595-1.029c0.056-0.096 0.089-0.211 0.089-0.333s-0.033-0.239-0.092-0.338l0.002 0.003z"></path>
</svg>
