<!-- Generated by IcoMoon.io -->
<svg version="1.1" xmlns="http://www.w3.org/2000/svg" width="16" height="16" viewBox="0 0 16 16">
<title>bx-cube</title>
<path d="M1.346 11.327c0 0.267 0.157 0.497 0.384 0.604l0.004 0.002 5.987 2.755c0.010 0.005 0.021 0.003 0.031 0.007 0.080 0.032 0.163 0.054 0.247 0.054s0.167-0.021 0.245-0.053c0.011-0.004 0.022-0.003 0.033-0.007l5.987-2.749c0.237-0.109 0.389-0.346 0.389-0.606v-6.667l-0.001-0.004c-0.001-0.063-0.010-0.123-0.027-0.18l0.001 0.005c-0.005-0.019-0.014-0.035-0.021-0.053-0.015-0.042-0.032-0.078-0.052-0.112l0.002 0.003c-0.014-0.021-0.027-0.039-0.041-0.057l0.001 0.001c-0.037-0.049-0.079-0.091-0.126-0.128l-0.002-0.001c-0.014-0.011-0.025-0.024-0.040-0.034-0.017-0.012-0.038-0.017-0.056-0.027-0.013-0.006-0.021-0.015-0.035-0.021l-5.987-2.667c-0.080-0.036-0.173-0.058-0.271-0.058s-0.192 0.021-0.276 0.059l0.004-0.002-5.987 2.667c-0.013 0.006-0.023 0.015-0.035 0.022-0.019 0.010-0.038 0.016-0.055 0.027-0.015 0.010-0.026 0.023-0.040 0.034-0.050 0.036-0.092 0.078-0.126 0.127l-0.001 0.002c-0.013 0.016-0.026 0.034-0.038 0.053l-0.002 0.003c-0.020 0.035-0.036 0.071-0.050 0.109-0.007 0.019-0.016 0.035-0.021 0.053-0.016 0.052-0.026 0.113-0.026 0.175v0l-0.001 0.004v6.661zM2.679 5.697l4.654 2.089v5.256l-4.654-2.141v-5.204zM13.321 10.905l-4.654 2.137v-5.257l4.654-2.089v5.209zM8 2.73l4.354 1.939-4.354 1.955-4.354-1.955 4.354-1.939z"></path>
</svg>
