<svg xmlns="http://www.w3.org/2000/svg" width="24" height="24"><path fill="none" d="M12 14c1.065 0 2-.935 2-2s-.935-2-2-2-2 .935-2 2 .935 2 2 2z"/><path fill="none" d="M16 12c0 2.168-1.832 4-4 4s-4-1.832-4-4H4v6h16v-6h-4zM12 8c1.442 0 2.722.819 3.427 2H20V6H4v4h4.573C9.278 8.819 10.558 8 12 8zm7-1v2h-1.99L17 7h2z"/><path d="M21 4h-2V3h-3v1H9V2H5v2H3a1 1 0 0 0-1 1v14a1 1 0 0 0 1 1h18a1 1 0 0 0 1-1V5a1 1 0 0 0-1-1zM4 6h16v4h-4.573C14.722 8.819 13.442 8 12 8s-2.722.819-3.427 2H4V6zm8 4c1.065 0 2 .935 2 2s-.935 2-2 2-2-.935-2-2 .935-2 2-2zm-8 8v-6h4c0 2.168 1.832 4 4 4s4-1.832 4-4h4v6H4z"/><path d="M19 9V7h-2l.01 2z"/></svg>