<!-- Generated by IcoMoon.io -->
<svg version="1.1" xmlns="http://www.w3.org/2000/svg" width="16" height="16" viewBox="0 0 16 16">
<title>bx-closet</title>
<path d="M8.667 7.034v-0.452c1.159-0.308 1.999-1.347 2-2.582v-0c0-1.471-1.196-2.667-2.667-2.667s-2.667 1.196-2.667 2.667h1.333c0-0.735 0.598-1.333 1.333-1.333s1.333 0.598 1.333 1.333-0.598 1.333-1.333 1.333c-0.368 0-0.667 0.298-0.667 0.667v0 1.034l-5.777 5.135c-0.137 0.123-0.222 0.3-0.222 0.497 0 0.368 0.298 0.666 0.666 0.667h12c0.368-0.001 0.666-0.299 0.666-0.667 0-0.198-0.086-0.375-0.222-0.497l-0.001-0.001-5.776-5.134zM3.753 12l4.247-3.775 4.247 3.775h-8.493z"></path>
</svg>
