<!-- Generated by IcoMoon.io -->
<svg version="1.1" xmlns="http://www.w3.org/2000/svg" width="16" height="16" viewBox="0 0 16 16">
<title>bx-cloud-download</title>
<path d="M4.667 12.667h0.667v-1.333h-0.667c-1.103 0-2-0.897-2-2 0-0.936 0.799-1.838 1.782-2.011l0.387-0.068 0.128-0.372c0.469-1.367 1.633-2.216 3.036-2.216 1.838 0 3.333 1.495 3.333 3.333v0.667h0.667c0.735 0 1.333 0.598 1.333 1.333s-0.598 1.333-1.333 1.333h-1.333v1.333h1.333c1.471 0 2.667-1.196 2.667-2.667-0.002-1.249-0.86-2.297-2.019-2.588l-0.018-0.004c-0.291-2.295-2.256-4.075-4.629-4.075-1.837 0-3.433 1.073-4.162 2.766-1.432 0.429-2.505 1.781-2.505 3.234 0 1.838 1.495 3.333 3.333 3.333z"></path>
<path d="M7.333 7.333v2.667h-2l2.667 2.667 2.667-2.667h-2v-2.667z"></path>
</svg>
