<svg xmlns="http://www.w3.org/2000/svg" width="24" height="24"><path fill="none" d="M5 19h14V5H5v14zm4.143-8.515c.27-.447.836-.613 1.305-.38l3.172 1.586 2.523-4.206 1.715 1.029-3 5a1 1 0 0 1-1.305.38l-3.172-1.586-2.523 4.206-1.715-1.029 3-5z"/><path d="M21 20V4a1 1 0 0 0-1-1H4a1 1 0 0 0-1 1v16a1 1 0 0 0 1 1h16a1 1 0 0 0 1-1zm-2-1H5V5h14v14z"/><path d="M10.381 12.309l3.172 1.586a1 1 0 0 0 1.305-.38l3-5-1.715-1.029-2.523 4.206-3.172-1.586a1.002 1.002 0 0 0-1.305.38l-3 5 1.715 1.029 2.523-4.206z"/></svg>