<svg xmlns="http://www.w3.org/2000/svg" width="24" height="24"><path fill="none" d="M5 17h14v2H5zM8.781 9.625c-.381.475-1.182.475-1.563 0L5 6.851V15h14V6.851l-2.219 2.774c-.381.475-1.182.475-1.563 0L12 5.601 8.781 9.625z"/><path d="M11.219 3.375L8 7.399 4.781 3.375A1.002 1.002 0 0 0 3 4v16a1 1 0 0 0 1 1h16a1 1 0 0 0 1-1V4a1.002 1.002 0 0 0-1.781-.625L16 7.399l-3.219-4.024c-.381-.474-1.181-.474-1.562 0zM5 19v-2h14v2H5zm10.219-9.375c.381.475 1.182.475 1.563 0L19 6.851V15H5V6.851l2.219 2.774c.381.475 1.182.475 1.563 0L12 5.601l3.219 4.024z"/></svg>