<!-- Generated by IcoMoon.io -->
<svg version="1.1" xmlns="http://www.w3.org/2000/svg" width="16" height="16" viewBox="0 0 16 16">
<title>bx-car</title>
<path d="M14 6.667h-0.186l-1.181-3.544c-0.091-0.273-0.345-0.456-0.633-0.456h-8c-0.287 0-0.541 0.183-0.632 0.456l-1.182 3.544h-0.186c-0.369 0-0.667 0.298-0.667 0.667v4c0 0.369 0.298 0.667 0.667 0.667v1.333c0 0.369 0.298 0.667 0.667 0.667h0.667c0.369 0 0.667-0.298 0.667-0.667v-1.333h8v1.333c0 0.369 0.298 0.667 0.667 0.667h0.667c0.369 0 0.667-0.298 0.667-0.667v-1.333c0.369 0 0.667-0.298 0.667-0.667v-4c0-0.369-0.298-0.667-0.667-0.667zM3.333 10.667h-0.667v-2.667h10.667v2.667h-10zM4.481 4h7.039l0.889 2.667h-8.818l0.889-2.667z"></path>
<path d="M3.333 8.667h1.333v1.333h-1.333v-1.333z"></path>
<path d="M11.333 8.667h1.333v1.333h-1.333v-1.333z"></path>
</svg>
