<!-- Generated by IcoMoon.io -->
<svg version="1.1" xmlns="http://www.w3.org/2000/svg" width="16" height="16" viewBox="0 0 16 16">
<title>bx-copyright</title>
<path d="M8 14.667c3.614 0 6.667-3.053 6.667-6.667s-3.053-6.667-6.667-6.667-6.667 3.053-6.667 6.667 3.053 6.667 6.667 6.667zM8 2.667c2.891 0 5.333 2.442 5.333 5.333s-2.442 5.333-5.333 5.333-5.333-2.442-5.333-5.333 2.442-5.333 5.333-5.333z"></path>
<path d="M8 11.333c0.601 0 1.721-0.112 2.471-0.861l-0.943-0.944c-0.295 0.295-0.867 0.472-1.529 0.472-1.084 0-2-0.916-2-2s0.916-2 2-2c0.662 0 1.234 0.177 1.529 0.471l0.943-0.943c-0.75-0.75-1.871-0.862-2.471-0.862-1.838 0-3.333 1.495-3.333 3.333s1.495 3.333 3.333 3.333z"></path>
</svg>
