<!-- Generated by IcoMoon.io -->
<svg version="1.1" xmlns="http://www.w3.org/2000/svg" width="16" height="16" viewBox="0 0 16 16">
<title>bx-crosshair</title>
<path d="M8 1.333c-3.676 0-6.667 2.991-6.667 6.667s2.991 6.667 6.667 6.667 6.667-2.991 6.667-6.667-2.991-6.667-6.667-6.667zM8.667 13.287v-1.954h-1.333v1.954c-2.414-0.316-4.304-2.207-4.618-4.594l-0.003-0.027h1.954v-1.333h-1.954c0.316-2.414 2.207-4.304 4.594-4.618l0.027-0.003v1.954h1.333v-1.954c2.414 0.316 4.304 2.207 4.618 4.594l0.003 0.027h-1.954v1.333h1.954c-0.316 2.414-2.207 4.304-4.594 4.618l-0.027 0.003z"></path>
</svg>
