<!-- Generated by IcoMoon.io -->
<svg version="1.1" xmlns="http://www.w3.org/2000/svg" width="16" height="16" viewBox="0 0 16 16">
<title>bx-cut</title>
<path d="M5.435 9.623c-0.317-0.18-0.697-0.287-1.101-0.289h-0.001c-1.287 0-2.333 1.047-2.333 2.333s1.047 2.333 2.333 2.333 2.333-1.047 2.333-2.333c0-0.401-0.111-0.772-0.289-1.101l1.623-1.623 4.391 4.391h1.885l-7.899-7.899c0.18-0.317 0.287-0.697 0.289-1.101v-0.001c0-1.287-1.047-2.333-2.333-2.333s-2.333 1.047-2.333 2.333 1.047 2.333 2.333 2.333c0.401 0 0.772-0.111 1.101-0.289l1.623 1.623-1.623 1.623zM4.333 12.667c-0.551 0-1-0.449-1-1s0.449-1 1-1 1 0.449 1 1-0.449 1-1 1zM3.333 4.333c0-0.551 0.449-1 1-1s1 0.449 1 1-0.449 1-1 1-1-0.449-1-1z"></path>
<path d="M8.862 6.195l0.943 0.943 4.471-4.471h-1.885z"></path>
</svg>
