<!-- Generated by IcoMoon.io -->
<svg version="1.1" xmlns="http://www.w3.org/2000/svg" width="16" height="16" viewBox="0 0 16 16">
<title>bx-disc</title>
<path d="M8 14.667c-3.676 0-6.667-2.991-6.667-6.667s2.991-6.667 6.667-6.667 6.667 2.991 6.667 6.667-2.991 6.667-6.667 6.667zM8 2.667c-2.941 0-5.333 2.393-5.333 5.333s2.393 5.333 5.333 5.333 5.333-2.393 5.333-5.333-2.393-5.333-5.333-5.333z"></path>
<path d="M8 10.667c-1.471 0-2.667-1.196-2.667-2.667s1.196-2.667 2.667-2.667 2.667 1.196 2.667 2.667-1.196 2.667-2.667 2.667zM8 6.667c-0.735 0-1.333 0.598-1.333 1.333s0.598 1.333 1.333 1.333 1.333-0.598 1.333-1.333-0.598-1.333-1.333-1.333z"></path>
</svg>
