<!-- Generated by IcoMoon.io -->
<svg version="1.1" xmlns="http://www.w3.org/2000/svg" width="16" height="16" viewBox="0 0 16 16">
<title>bx-droplet</title>
<path d="M8 14.667c2.941 0 5.333-2.393 5.333-5.33 0.021-4.297-4.744-7.736-4.947-7.879-0.107-0.077-0.241-0.124-0.386-0.124s-0.279 0.046-0.388 0.125l0.002-0.001c-0.203 0.143-4.969 3.583-4.947 7.876 0 2.941 2.393 5.333 5.333 5.333zM8.001 2.843c1.074 0.869 4.014 3.521 3.999 6.491 0 2.206-1.794 4-4 4s-4-1.794-4-4.003c-0.015-2.959 2.927-5.617 4.001-6.487z"></path>
</svg>
