<!-- Generated by IcoMoon.io -->
<svg version="1.1" xmlns="http://www.w3.org/2000/svg" width="16" height="16" viewBox="0 0 16 16">
<title>bx-dashboard</title>
<path d="M12.72 3.292c-1.263-1.263-2.937-1.959-4.713-1.959s-3.452 0.696-4.715 1.959c-2.599 2.599-2.599 6.829 0 9.428 1.263 1.263 2.937 1.959 4.715 1.959s3.451-0.695 4.713-1.958c2.599-2.599 2.599-6.829 0-9.429zM12.623 10.667h-9.233c-0.359-0.625-0.583-1.304-0.669-2h1.279v-1.333h-1.277c0.117-0.925 0.473-1.823 1.073-2.595l0.905 0.905 0.943-0.943-0.905-0.905c0.757-0.591 1.648-0.961 2.596-1.081v1.286h1.333v-1.288c1.084 0.134 2.093 0.598 2.913 1.343l-3.143 2.701c-0.136-0.047-0.28-0.078-0.432-0.078-0.733 0-1.327 0.595-1.327 1.327 0 0.734 0.595 1.329 1.327 1.329 0.733 0 1.328-0.595 1.328-1.329 0-0.082-0.010-0.161-0.024-0.239l3.145-2.703c0.459 0.694 0.735 1.473 0.835 2.271h-1.289v1.333h1.291c-0.086 0.696-0.309 1.375-0.669 2z"></path>
</svg>
