<!-- Generated by IcoMoon.io -->
<svg version="1.1" xmlns="http://www.w3.org/2000/svg" width="16" height="16" viewBox="0 0 16 16">
<title>bx-dislike</title>
<path d="M14 2h-10c-0.278 0-0.527 0.173-0.625 0.433l-2 5.333c-0.027 0.069-0.042 0.149-0.042 0.233 0 0 0 0.001 0 0.001v-0 2c0 0.368 0.298 0.667 0.667 0.667v0h4.408l-1.041 3.123c-0.022 0.063-0.035 0.136-0.035 0.212 0 0.146 0.047 0.281 0.127 0.391l-0.001-0.002c0.126 0.174 0.327 0.277 0.541 0.277h2c0.198 0 0.385-0.088 0.513-0.24l3.133-3.76h2.354c0.368 0 0.667-0.298 0.667-0.667v0-7.333c0-0.368-0.298-0.667-0.667-0.667v0zM7.687 13.333h-0.763l1.041-3.123c0.022-0.063 0.034-0.135 0.034-0.211 0-0.368-0.298-0.666-0.666-0.667h-4.667v-1.213l1.795-4.787h6.205v6.425l-2.979 3.575zM13.333 9.333h-1.333v-6h1.333v6z"></path>
</svg>
