<svg xmlns="http://www.w3.org/2000/svg" width="24" height="24" viewBox="0 0 24 24"><path d="M21.769,8.359l-5-6C16.578,2.132,16.297,2,16,2h-3h-2H8C7.703,2,7.422,2.132,7.231,2.359l-5,6	C1.935,8.716,1.922,9.229,2.2,9.6l9,12c0.013,0.018,0.034,0.024,0.048,0.04c0.073,0.086,0.158,0.156,0.255,0.213	c0.032,0.02,0.062,0.038,0.097,0.053C11.724,21.961,11.856,22,12,22s0.276-0.039,0.4-0.095c0.035-0.016,0.064-0.033,0.097-0.053	c0.097-0.057,0.182-0.127,0.255-0.213c0.014-0.017,0.035-0.022,0.048-0.04l9-12C22.078,9.229,22.065,8.716,21.769,8.359z M18.865,8	h-3.145l-1.334-4h1.145L18.865,8z M8.22,10l1.609,6.439L5,10H8.22z M10.281,10h3.438L12,16.877L10.281,10z M15.78,10H19	l-4.829,6.439L15.78,10z M12.279,4l1.333,4h-3.225l1.333-4H12.279z M8.469,4h1.145L8.279,8H5.135L8.469,4z"/></svg>