<!-- Generated by IcoMoon.io -->
<svg version="1.1" xmlns="http://www.w3.org/2000/svg" width="16" height="16" viewBox="0 0 16 16">
<title>bx-dollar</title>
<path d="M5.333 10.667h-1.333c0 0.025 0.042 2.359 3.333 2.638v1.354h1.333v-1.352c2.879-0.227 3.333-1.929 3.333-2.973 0-0.843-0.343-2.729-3.333-2.973v-3.302c1.23 0.231 1.327 1.091 1.333 1.284l0.667-0.009h0.667c0-0.839-0.581-2.352-2.667-2.621v-1.379h-1.333v1.361c-2.991 0.243-3.333 2.13-3.333 2.973 0 1.044 0.454 2.747 3.333 2.973v3.325c-1.881-0.193-1.994-1.187-2-1.298zM10.666 10.333c0 0.413-0.007 1.446-2 1.634v-3.267c1.993 0.194 2 1.259 2 1.633zM5.333 5.667c0-0.374 0.007-1.439 2-1.633v3.267c-1.993-0.188-2-1.221-2-1.634z"></path>
</svg>
