<!-- Generated by IcoMoon.io -->
<svg version="1.1" xmlns="http://www.w3.org/2000/svg" width="16" height="16" viewBox="0 0 16 16">
<title>bx-discount</title>
<path d="M14 3.333h-12c-0.368 0-0.667 0.298-0.667 0.667v0 2.667c0 0.368 0.298 0.667 0.667 0.667v0c0.551 0 1 0.449 1 1s-0.449 1-1 1c-0.368 0-0.667 0.298-0.667 0.667v0 2c0 0.368 0.298 0.667 0.667 0.667v0h12c0.368 0 0.667-0.298 0.667-0.667v0-2c0-0.368-0.298-0.667-0.667-0.667v0c-0.551 0-1-0.449-1-1s0.449-1 1-1c0.368 0 0.667-0.298 0.667-0.667v0-2.667c0-0.368-0.298-0.667-0.667-0.667v0zM13.333 6.097c-0.963 0.288-1.667 1.181-1.667 2.236s0.704 1.949 1.667 2.236v0.764h-10.667v-0.764c0.963-0.288 1.667-1.181 1.667-2.236s-0.704-1.949-1.667-2.236v-1.431h10.667v1.431z"></path>
<path d="M6.667 6.667c0 0.368-0.298 0.667-0.667 0.667s-0.667-0.298-0.667-0.667c0-0.368 0.298-0.667 0.667-0.667s0.667 0.298 0.667 0.667z"></path>
<path d="M10.667 9.333c0 0.368-0.298 0.667-0.667 0.667s-0.667-0.298-0.667-0.667c0-0.368 0.298-0.667 0.667-0.667s0.667 0.298 0.667 0.667z"></path>
<path d="M9.888 6.37l-2.667 4-1.109-0.74 2.667-4z"></path>
</svg>
