<!-- Generated by IcoMoon.io -->
<svg version="1.1" xmlns="http://www.w3.org/2000/svg" width="16" height="16" viewBox="0 0 16 16">
<title>bx-duplicate</title>
<path d="M7.333 6.667h-1.333v2h-2v1.333h2v2h1.333v-2h2v-1.333h-2z"></path>
<path d="M2 14.667h9.333c0.368 0 0.667-0.298 0.667-0.667v0-9.333c0-0.368-0.298-0.667-0.667-0.667v0h-9.333c-0.368 0-0.667 0.298-0.667 0.667v0 9.333c0 0.368 0.298 0.667 0.667 0.667v0zM2.667 5.333h8v8h-8v-8z"></path>
<path d="M14 1.333h-8.667v1.333h8v8h1.333v-8.667c0-0.368-0.298-0.667-0.667-0.667v0z"></path>
</svg>
