<svg xmlns="http://www.w3.org/2000/svg" width="24" height="24" viewBox="0 0 24 24"><path d="M21.813,9.419l-5-7C16.626,2.156,16.323,2,16,2h-3h-2H8C7.677,2,7.374,2.156,7.187,2.419l-5,7	c-0.263,0.367-0.246,0.865,0.039,1.214l9,11c0.016,0.019,0.039,0.026,0.056,0.043c0.069,0.074,0.148,0.136,0.237,0.186	c0.032,0.019,0.062,0.037,0.096,0.052C11.734,21.964,11.862,22,12,22s0.266-0.036,0.386-0.087c0.034-0.015,0.063-0.033,0.096-0.052	c0.089-0.05,0.168-0.111,0.237-0.186c0.017-0.017,0.04-0.024,0.056-0.043l9-11C22.06,10.284,22.076,9.786,21.813,9.419z M19.057,9	h-3.302l-1.429-5h1.159L19.057,9z M8.236,11l1.563,5.73L5.11,11H8.236z M10.31,11h3.381L12,17.199L10.31,11z M15.764,11h3.126	l-4.688,5.73L15.764,11z M12.246,4l1.429,5h-3.35l1.429-5H12.246z M8.515,4h1.159L8.245,9H4.943L8.515,4z"/></svg>