<!-- Generated by IcoMoon.io -->
<svg version="1.1" xmlns="http://www.w3.org/2000/svg" width="16" height="16" viewBox="0 0 16 16">
<title>bx-dots-vertical-rounded</title>
<path d="M8 6.667c-0.733 0-1.333 0.6-1.333 1.333s0.6 1.333 1.333 1.333 1.333-0.6 1.333-1.333-0.6-1.333-1.333-1.333zM8 2.667c-0.733 0-1.333 0.6-1.333 1.333s0.6 1.333 1.333 1.333 1.333-0.6 1.333-1.333-0.6-1.333-1.333-1.333zM8 10.667c-0.733 0-1.333 0.6-1.333 1.333s0.6 1.333 1.333 1.333 1.333-0.6 1.333-1.333-0.6-1.333-1.333-1.333z"></path>
</svg>
