<!-- Generated by IcoMoon.io -->
<svg version="1.1" xmlns="http://www.w3.org/2000/svg" width="16" height="16" viewBox="0 0 16 16">
<title>bx-dollar-circle</title>
<path d="M8 1.333c-3.676 0-6.667 2.991-6.667 6.667s2.991 6.667 6.667 6.667 6.667-2.991 6.667-6.667-2.991-6.667-6.667-6.667zM8 13.333c-2.941 0-5.333-2.393-5.333-5.333s2.393-5.333 5.333-5.333 5.333 2.393 5.333 5.333-2.393 5.333-5.333 5.333z"></path>
<path d="M8 7.333c-1.333 0-1.333-0.417-1.333-0.667 0-0.323 0.467-0.667 1.333-0.667 0.79 0 0.924 0.425 0.933 0.679l0.667-0.012h0.667c0-0.684-0.444-1.646-1.6-1.919v-0.739h-1.333v0.715c-1.314 0.221-2 1.085-2 1.943 0 0.747 0.347 2 2.667 2 1.333 0 1.333 0.451 1.333 0.667 0 0.277-0.413 0.667-1.333 0.667-1.227 0-1.326-0.571-1.333-0.667h-1.333c0 0.612 0.441 1.702 2 1.947v0.72h1.333v-0.723c1.314-0.221 2-1.085 2-1.943 0-0.747-0.347-2-2.667-2z"></path>
</svg>
