<!-- Generated by IcoMoon.io -->
<svg version="1.1" xmlns="http://www.w3.org/2000/svg" width="16" height="16" viewBox="0 0 16 16">
<title>bx-directions</title>
<path d="M13.187 6.917c-0.123-0.153-0.31-0.25-0.52-0.25-0 0-0 0-0 0h-4v-5.333h-1.333v1.333h-4c-0 0-0 0-0 0-0.21 0-0.397 0.097-0.519 0.249l-0.001 0.001-1.333 1.667c-0.091 0.113-0.146 0.258-0.146 0.417s0.055 0.304 0.147 0.418l-0.001-0.001 1.333 1.667c0.123 0.153 0.31 0.25 0.52 0.25 0 0 0 0 0 0h4v7.333h1.333v-3.333h4c0 0 0 0 0 0 0.21 0 0.397-0.097 0.519-0.249l0.001-0.001 1.333-1.667c0.091-0.113 0.146-0.258 0.146-0.417s-0.055-0.304-0.147-0.418l0.001 0.001-1.333-1.667zM3.653 6l-0.8-1 0.8-1h3.68v2h-3.68zM12.347 10h-3.68v-2h3.68l0.8 1-0.8 1z"></path>
</svg>
