<svg xmlns="http://www.w3.org/2000/svg" width="24" height="24" viewBox="0 0 24 24"><path d="M19.781,11.375C19.591,11.138,19.304,11,19,11h-6V9h4c1.103,0,2-0.897,2-2V4c0-1.103-0.897-2-2-2H5 C4.696,2,4.409,2.138,4.219,2.375l-2,2.5c-0.292,0.365-0.292,0.885,0,1.25l2,2.5C4.409,8.862,4.696,9,5,9h6v2H7 c-1.103,0-2,0.897-2,2v3c0,1.103,0.897,2,2,2h4v4h2v-4h6c0.304,0,0.591-0.138,0.781-0.375l2-2.5c0.292-0.365,0.292-0.885,0-1.25 L19.781,11.375z M4.281,5.5L5.48,4H17l0.002,3H5.48L4.281,5.5z M18.52,16H7v-3h11.52l1.2,1.5L18.52,16z"/></svg>