<!-- Generated by IcoMoon.io -->
<svg version="1.1" xmlns="http://www.w3.org/2000/svg" width="16" height="16" viewBox="0 0 16 16">
<title>bx-data</title>
<path d="M2.667 4.667v6.667c0 1.445 2.442 2.667 5.333 2.667s5.333-1.221 5.333-2.667v-6.667c0-1.445-2.442-2.667-5.333-2.667s-5.333 1.221-5.333 2.667zM8 12.667c-2.461 0-3.954-1.005-4-1.333v-1.595c0.986 0.565 2.425 0.929 4 0.929s3.014-0.364 4-0.929v1.591c-0.046 0.333-1.539 1.337-4 1.337zM8 9.333c-2.461 0-3.954-1.005-4-1.333v-1.595c0.986 0.565 2.425 0.929 4 0.929s3.014-0.364 4-0.929v1.591c-0.046 0.333-1.539 1.337-4 1.337zM8 3.333c2.461 0 3.954 1.005 4 1.329-0.046 0.333-1.539 1.337-4 1.337s-3.954-1.005-4-1.329c0.046-0.333 1.539-1.337 4-1.337z"></path>
</svg>
