<!-- Generated by IcoMoon.io -->
<svg version="1.1" xmlns="http://www.w3.org/2000/svg" width="16" height="16" viewBox="0 0 16 16">
<title>bx-downvote</title>
<path d="M13.934 7.044c-0.111-0.23-0.344-0.377-0.601-0.377h-2.667v-4.667c0-0.369-0.298-0.667-0.667-0.667h-4c-0.369 0-0.667 0.298-0.667 0.667v4.667h-2.667c-0.257 0-0.489 0.147-0.601 0.377-0.111 0.231-0.080 0.505 0.080 0.706l5.333 6.667c0.127 0.158 0.318 0.25 0.521 0.25s0.394-0.092 0.521-0.25l5.333-6.667c0.16-0.201 0.191-0.475 0.080-0.706zM8 12.933l-3.946-4.933h1.946c0.369 0 0.667-0.298 0.667-0.667v-4.667h2.667v4.667c0 0.369 0.298 0.667 0.667 0.667h1.946l-3.946 4.933z"></path>
</svg>
