<!-- Generated by IcoMoon.io -->
<svg version="1.1" xmlns="http://www.w3.org/2000/svg" width="16" height="16" viewBox="0 0 16 16">
<title>bx-drink</title>
<path d="M2.079 2.352c-0.050 0.091-0.079 0.199-0.079 0.314 0 0.138 0.042 0.266 0.114 0.372l-0.002-0.002 5.221 7.833v2.465h-2v1.333h5.333v-1.333h-2v-2.465l5.221-7.832c0.070-0.104 0.112-0.232 0.112-0.37 0-0.368-0.298-0.667-0.667-0.667-0 0-0 0-0 0h-10.667c-0 0-0 0-0 0-0.253 0-0.473 0.141-0.586 0.349l-0.002 0.003zM6.134 6.667h3.732l-1.866 2.798-1.866-2.798zM12.088 3.333l-1.333 2h-5.509l-1.333-2h8.176z"></path>
</svg>
