<svg xmlns="http://www.w3.org/2000/svg" width="24" height="24"><path fill="none" d="M12 9c3.691 0 5.931-1.507 6-2.006C17.931 6.507 15.691 5 12 5S6.069 6.507 6 7.006C6.069 7.493 8.309 9 12 9zM12 16c-2.363 0-4.521-.546-6-1.393V17c.069.493 2.309 2 6 2s5.931-1.507 6-2.006v-2.387C16.521 15.454 14.363 16 12 16zM12 11c-2.363 0-4.521-.546-6-1.393V12c.069.493 2.309 2 6 2s5.931-1.507 6-2.006V9.607C16.521 10.454 14.363 11 12 11z"/><path d="M4 7v10c0 2.168 3.663 4 8 4s8-1.832 8-4V7c0-2.168-3.663-4-8-4S4 4.832 4 7zm8 12c-3.691 0-5.931-1.507-6-2v-2.393C7.479 15.454 9.637 16 12 16s4.521-.546 6-1.393v2.387c-.069.499-2.309 2.006-6 2.006zm0-5c-3.691 0-5.931-1.507-6-2V9.607C7.479 10.454 9.637 11 12 11s4.521-.546 6-1.393v2.387c-.069.499-2.309 2.006-6 2.006zm0-9c3.691 0 5.931 1.507 6 1.994C17.931 7.493 15.691 9 12 9S6.069 7.493 6 7.006C6.069 6.507 8.309 5 12 5z"/></svg>