<svg xmlns="http://www.w3.org/2000/svg" width="24" height="24"><path fill="none" d="M5.76 17a7.953 7.953 0 0 0 6.25 3.018A7.948 7.948 0 0 0 18.259 17H5.76zM19.934 11a7.956 7.956 0 0 0-1.319-3.496l-4.632 3.309c.004.059.017.117.017.177a1.993 1.993 0 0 1-1.992 1.993 1.992 1.992 0 0 1 0-3.983c.293 0 .568.067.819.181l4.452-3.18A7.931 7.931 0 0 0 13 4.068V6h-2V4.071a7.92 7.92 0 0 0-3.894 1.622L8.463 7.05 7.05 8.465 5.693 7.108A7.955 7.955 0 0 0 4.084 11H6v2H4.081c.084.682.249 1.354.509 2h14.838c.26-.646.425-1.318.509-2H18v-2h1.934z"/><path d="M12.01 2a9.941 9.941 0 0 0-7.072 2.938c-3.899 3.898-3.899 10.243 0 14.142 1.895 1.895 4.406 2.938 7.072 2.938s5.177-1.043 7.07-2.937c3.899-3.898 3.899-10.243 0-14.144A9.938 9.938 0 0 0 12.01 2zm7.927 11a7.945 7.945 0 0 1-.509 2H4.59a7.945 7.945 0 0 1-.509-2H6v-2H4.084a7.955 7.955 0 0 1 1.609-3.892L7.05 8.465l1.414-1.414-1.358-1.358A7.93 7.93 0 0 1 11 4.071V6h2V4.068a7.916 7.916 0 0 1 4.279 1.933l-4.452 3.18A1.97 1.97 0 0 0 12.008 9 1.992 1.992 0 1 0 14 10.99c0-.061-.013-.118-.018-.178l4.632-3.309a7.944 7.944 0 0 1 1.319 3.496H18v2h1.937zm-7.927 7.018A7.95 7.95 0 0 1 5.76 17h12.499a7.95 7.95 0 0 1-6.249 3.018z"/></svg>