<!-- Generated by IcoMoon.io -->
<svg version="1.1" xmlns="http://www.w3.org/2000/svg" width="16" height="16" viewBox="0 0 16 16">
<title>bx-diamond</title>
<path d="M1.484 7.089l6 7.333c0.011 0.013 0.026 0.017 0.037 0.029 0.045 0.048 0.097 0.090 0.155 0.122l0.003 0.002c0.021 0.013 0.041 0.025 0.064 0.035 0.079 0.033 0.165 0.057 0.257 0.057s0.177-0.024 0.257-0.058c0.023-0.010 0.042-0.022 0.064-0.035 0.061-0.034 0.113-0.075 0.158-0.124l0-0c0.011-0.011 0.027-0.016 0.037-0.029l6-7.333c0.094-0.114 0.15-0.261 0.15-0.422 0-0.145-0.047-0.28-0.126-0.39l0.001 0.002-3.333-4.667c-0.123-0.17-0.32-0.279-0.543-0.279h-5.333c-0 0-0 0-0 0-0.223 0-0.42 0.109-0.54 0.277l-0.001 0.002-3.333 4.667c-0.078 0.108-0.125 0.242-0.125 0.388 0 0.161 0.057 0.308 0.152 0.423l-0.001-0.001zM5.491 7.333l1.042 3.82-3.126-3.82h2.084zM12.593 7.333l-3.125 3.82 1.041-3.82h2.084zM8 11.466l-1.127-4.133h2.254l-1.127 4.133zM12.705 6h-2.201l-0.953-3.333h0.773l2.381 3.333zM8.164 2.667l0.953 3.333h-2.233l0.953-3.333h0.328zM5.677 2.667h0.773l-0.953 3.333h-2.201l2.381-3.333z"></path>
</svg>
