<svg xmlns="http://www.w3.org/2000/svg" width="24" height="24"><path fill="none" d="M12 4c-4.411 0-8 3.589-8 8s3.589 8 8 8 8-3.589 8-8-3.589-8-8-8zm1 13.131V18h-2v-.874c-2.339-.343-3-1.869-3-2.726h2c.03.271.486.8 2 .8 2 0 2-.771 2-1.101 0-.301 0-1.1-2-1.1-3.61 0-4-2.168-4-3.1 0-.655.242-2.64 3-3.028v-.86h2v.894c1.936.417 2.4 2.021 2.4 2.694h-1l-1 .025c-.013-.247-.178-.824-1.4-.824-2 0-2 .8-2 1.101 0 .356 0 1.1 2 1.1 3.712 0 4 2.372 4 3.1 0 .837-.322 2.665-3 3.03z"/><path d="M12 2C6.486 2 2 6.486 2 12s4.486 10 10 10 10-4.486 10-10S17.514 2 12 2zm0 18c-4.411 0-8-3.589-8-8s3.589-8 8-8 8 3.589 8 8-3.589 8-8 8z"/><path d="M12 11c-2 0-2-.743-2-1.1 0-.3 0-1.1 2-1.1 1.222 0 1.387.577 1.4.825l1-.025h1c0-.674-.465-2.277-2.4-2.694v-.894h-2v.86C8.242 7.261 8 9.245 8 9.9c0 .932.39 3.1 4 3.1 2 0 2 .799 2 1.1 0 .329 0 1.101-2 1.101-1.514 0-1.97-.529-2-.8H8c0 .856.661 2.383 3 2.726V18h2v-.869c2.678-.365 3-2.193 3-3.031 0-.728-.288-3.1-4-3.1z"/></svg>