<svg xmlns="http://www.w3.org/2000/svg" width="24" height="24"><path fill="none" d="M13.675 9l-1.429-5h-.492l-1.429 5zM8.245 9l1.429-5H8.515L4.943 9zM15.755 9h3.302l-3.572-5h-1.159zM12 17.199L13.69 11h-3.38zM18.89 11h-3.126l-1.563 5.73zM9.799 16.73L8.236 11H5.11z"/><path d="M2.226 10.633l9 11c.016.019.039.026.056.043a.975.975 0 0 0 .237.186c.032.019.062.037.096.052.119.05.247.086.385.086s.266-.036.386-.087c.034-.015.063-.033.096-.052a.951.951 0 0 0 .237-.186c.017-.017.04-.024.056-.043l9-11a1 1 0 0 0 .039-1.214l-5-7A1.002 1.002 0 0 0 16 2H8a.997.997 0 0 0-.813.419l-5 7a.998.998 0 0 0 .039 1.214zm6.01.367l1.563 5.73L5.11 11h3.126zm10.654 0l-4.688 5.73L15.764 11h3.126zM12 17.199L10.31 11h3.381L12 17.199zM19.057 9h-3.302l-1.429-5h1.159l3.572 5zm-6.811-5l1.429 5h-3.35l1.429-5h.492zM8.515 4h1.159L8.245 9H4.943l3.572-5z"/></svg>