<svg xmlns="http://www.w3.org/2000/svg" width="24" height="24" viewBox="0 0 24 24"><path d="M12,2C6.486,2,2,6.486,2,12s4.486,10,10,10s10-4.486,10-10S17.514,2,12,2z M12,20c-4.411,0-8-3.589-8-8s3.589-8,8-8 s8,3.589,8,8S16.411,20,12,20z"/><path d="M12,11c-1.999,0-1.999-0.578-1.999-1c0-0.826,1.087-1,1.999-1c1.391,0,2.356,0.766,2.366,0.773l1.273-1.542 c-0.05-0.042-1.067-0.86-2.64-1.136V6.012h-2v1.057C8.812,7.38,8.001,8.728,8.001,10c0,1.368,0.693,3,3.999,3 c1.999,0,1.999,0.602,1.999,1c0,0.826-1.087,1-1.999,1c-1.391,0-2.356-0.766-2.36-0.769L8.36,15.769 c0.05,0.042,1.067,0.86,2.64,1.136V18h2v-1.068c2.188-0.312,2.999-1.659,2.999-2.932C15.999,12.632,15.306,11,12,11z"/></svg>