<!-- Generated by IcoMoon.io -->
<svg version="1.1" xmlns="http://www.w3.org/2000/svg" width="16" height="16" viewBox="0 0 16 16">
<title>bx-envelope</title>
<path d="M14 2.667h-12c-0.368 0-0.667 0.298-0.667 0.667v9.333c0 0.369 0.299 0.667 0.667 0.667h12c0.369 0 0.667-0.298 0.667-0.667v-9.333c0-0.369-0.298-0.667-0.667-0.667zM13.333 4v0.341l-5.333 4.149-5.333-4.148v-0.341h10.667zM2.667 12v-5.971l4.924 3.83c0.12 0.094 0.265 0.141 0.409 0.141s0.289-0.047 0.409-0.141l4.924-3.829v5.97h-10.667z"></path>
</svg>
