<!-- Generated by IcoMoon.io -->
<svg version="1.1" xmlns="http://www.w3.org/2000/svg" width="16" height="16" viewBox="0 0 16 16">
<title>bx-error</title>
<path d="M7.333 6.667h1.333v3.333h-1.333zM7.333 10.667h1.333v1.333h-1.333z"></path>
<path d="M8.589 1.688c-0.231-0.436-0.948-0.436-1.179 0l-6 11.333c-0.049 0.091-0.078 0.198-0.078 0.313 0 0.368 0.298 0.666 0.666 0.666 0 0 0.001 0 0.001 0h12c0 0 0.001 0 0.001 0 0.367 0 0.665-0.298 0.665-0.665 0-0.114-0.029-0.222-0.080-0.316l0.002 0.004-5.999-11.334zM3.107 12.667l4.893-9.241 4.893 9.241h-9.785z"></path>
</svg>
