<!-- Generated by IcoMoon.io -->
<svg version="1.1" xmlns="http://www.w3.org/2000/svg" width="16" height="16" viewBox="0 0 16 16">
<title>bx-edit</title>
<path d="M14.501 3.558l-2-2c-0.261-0.261-0.682-0.261-0.943 0l-5.977 5.977c-0.085 0.085-0.146 0.193-0.175 0.309l-0.667 2.667c-0.057 0.227 0.010 0.467 0.175 0.633 0.126 0.127 0.297 0.195 0.471 0.195 0.054 0 0.108-0.007 0.161-0.020l2.667-0.667c0.117-0.029 0.225-0.090 0.31-0.175l5.977-5.977c0.125-0.125 0.195-0.295 0.195-0.471s-0.071-0.346-0.195-0.471zM7.711 9.405l-1.409 0.352 0.353-1.409 3.375-3.375 1.057 1.057-3.376 3.375zM12.030 5.087l-1.057-1.057 1.057-1.057 1.057 1.057-1.057 1.057z"></path>
<path d="M12.667 12.667h-9.333v-9.333h4.667v-1.333h-5.333c-0.369 0-0.667 0.299-0.667 0.667v10.667c0 0.368 0.298 0.667 0.667 0.667h10.667c0.369 0 0.667-0.299 0.667-0.667v-5.333h-1.333v4.667z"></path>
</svg>
