<!-- Generated by IcoMoon.io -->
<svg version="1.1" xmlns="http://www.w3.org/2000/svg" width="16" height="16" viewBox="0 0 16 16">
<title>bx-eyedropper</title>
<path d="M12.471 1.529c-0.121-0.121-0.287-0.195-0.471-0.195s-0.351 0.075-0.471 0.195l-2.197 2.197-0.865-0.864-0.943 0.943 0.865 0.864-5.527 5.527c-0.083 0.083-0.144 0.188-0.174 0.305l-0.001 0.005-0.667 2.667c-0.013 0.049-0.021 0.106-0.021 0.164 0 0.367 0.298 0.665 0.665 0.665 0.058 0 0.115-0.007 0.168-0.022l-0.005 0.001 2.667-0.667c0.117-0.029 0.225-0.090 0.31-0.175l5.528-5.528 0.863 0.861 0.943-0.943-0.863-0.861 2.196-2.196c0.121-0.121 0.195-0.287 0.195-0.471s-0.075-0.351-0.195-0.471l-2-2zM4.992 12.065l-1.409 0.353 0.353-1.409 5.397-5.397 1.057 1.056-5.397 5.397z"></path>
</svg>
