<!-- Generated by IcoMoon.io -->
<svg version="1.1" xmlns="http://www.w3.org/2000/svg" width="16" height="16" viewBox="0 0 16 16">
<title>bx-file-plus</title>
<path d="M3.333 14.667h4v-1.333h-3.333v-10.667h4v3.333c0 0.368 0.298 0.667 0.667 0.667v0h3.333v2h1.333v-2.667c0-0.014-0.007-0.027-0.009-0.041-0.004-0.063-0.016-0.122-0.035-0.177l0.001 0.004c-0.007-0.021-0.013-0.042-0.022-0.062-0.033-0.076-0.077-0.14-0.131-0.196l0 0-4-4c-0.055-0.053-0.119-0.097-0.19-0.128l-0.004-0.002c-0.021-0.010-0.042-0.015-0.065-0.023-0.049-0.017-0.107-0.029-0.166-0.033l-0.002-0c-0.015-0.001-0.029-0.009-0.044-0.009h-5.333c-0.368 0-0.667 0.298-0.667 0.667v0 12c0 0.368 0.298 0.667 0.667 0.667v0zM11.057 5.333h-1.724v-1.724l1.724 1.724z"></path>
<path d="M10 9.333v2h-2v1.333h2v2h1.333v-2h2v-1.333h-2v-2z"></path>
</svg>
