<!-- Generated by IcoMoon.io -->
<svg version="1.1" xmlns="http://www.w3.org/2000/svg" width="16" height="16" viewBox="0 0 16 16">
<title>bx-folder-open</title>
<path d="M14.557 7.633c-0.121-0.181-0.325-0.299-0.557-0.299h-0.667v-2.667c0-0.368-0.298-0.667-0.667-0.667v0h-5.77l-1.523-1.191c-0.112-0.089-0.255-0.142-0.411-0.142-0 0-0 0-0 0h-2.963c-0.368 0-0.667 0.298-0.667 0.667v0 9.333h0.005c-0 0.002-0 0.005-0 0.008 0 0.134 0.039 0.258 0.107 0.362l-0.002-0.003c0.124 0.187 0.333 0.299 0.557 0.299h10c0.267 0 0.508-0.159 0.613-0.404l2-4.667c0.034-0.078 0.054-0.168 0.054-0.263 0-0.137-0.041-0.264-0.112-0.369l0.002 0.002zM4.733 4l1.523 1.191c0.112 0.089 0.255 0.142 0.411 0.142 0 0 0 0 0 0h5.333v2h-8c-0.267 0-0.508 0.159-0.613 0.404l-0.721 1.682v-5.419h2.067zM11.561 12h-8.549l1.429-3.333h8.549l-1.429 3.333z"></path>
</svg>
