<!-- Generated by IcoMoon.io -->
<svg version="1.1" xmlns="http://www.w3.org/2000/svg" width="16" height="16" viewBox="0 0 16 16">
<title>bx-flask</title>
<path d="M13.273 13.724l-3.273-7.202v-3.189h0.667v-1.333h-5.333v1.333h0.667v3.189l-3.273 7.202c-0.094 0.207-0.076 0.447 0.046 0.637 0.123 0.191 0.334 0.306 0.561 0.306h9.333c0.227 0 0.437-0.115 0.561-0.306 0.122-0.19 0.14-0.43 0.046-0.637zM7.273 6.943c0.040-0.087 0.060-0.181 0.060-0.276v-3.333h1.333v3.333c0 0.095 0.020 0.189 0.060 0.276l1.693 3.724h-4.839l1.693-3.724z"></path>
</svg>
