<!-- Generated by IcoMoon.io -->
<svg version="1.1" xmlns="http://www.w3.org/2000/svg" width="16" height="16" viewBox="0 0 16 16">
<title>bx-female</title>
<path d="M8 1.333c-2.392 0.003-4.33 1.941-4.333 4.333v0c0 2.162 1.593 3.955 3.667 4.277v1.39h-2v1.333h2v1.992h1.333v-1.992h2v-1.333h-2v-1.39c2.073-0.322 3.667-2.115 3.667-4.277 0-2.389-1.944-4.333-4.333-4.333zM8.003 8.667h-0.007c-1.655-0.004-2.995-1.345-2.997-3v-0c0-1.654 1.346-3 3-3s3 1.346 3 3c-0.002 1.655-1.342 2.996-2.996 3h-0z"></path>
</svg>
