<svg xmlns="http://www.w3.org/2000/svg" width="24" height="24"><path fill="none" d="M16.586 8L14 5.414V8z"/><path fill="none" d="M18 10h-5a1 1 0 0 1-1-1V4H6v16h12V10zm-9 2a1 1 0 1 1 0 2 1 1 0 0 1 0-2zm4 6H8l2-3 1.125 1.125L13 13l3 5h-3z"/><path d="M11.125 16.125L10 15l-2 3h8l-3-5z"/><circle cx="9" cy="13" r="1"/><path d="M19 22a1 1 0 0 0 1-1V9c0-.021-.011-.041-.013-.062a.952.952 0 0 0-.051-.259c-.011-.032-.02-.063-.033-.093a.984.984 0 0 0-.196-.293l-6-6a1.002 1.002 0 0 0-.292-.195c-.031-.015-.063-.023-.097-.034a.946.946 0 0 0-.253-.05C13.043 2.012 13.022 2 13 2H5a1 1 0 0 0-1 1v18a1 1 0 0 0 1 1h14zM16.586 8H14V5.414L16.586 8zM6 4h6v5a1 1 0 0 0 1 1h5v10H6V4z"/></svg>