<svg xmlns="http://www.w3.org/2000/svg" width="24" height="24" viewBox="0 0 24 24"><path d="M19.987,8.938c-0.005-0.089-0.022-0.175-0.051-0.259c-0.011-0.032-0.02-0.063-0.033-0.094	c-0.049-0.106-0.11-0.207-0.196-0.293l-6-6c-0.086-0.086-0.187-0.147-0.293-0.196c-0.03-0.014-0.062-0.022-0.094-0.033	c-0.084-0.028-0.17-0.046-0.259-0.051C13.04,2.011,13.021,2,13,2H5C4.447,2,4,2.447,4,3v18c0,0.553,0.447,1,1,1h14	c0.553,0,1-0.447,1-1V9C20,8.979,19.989,8.96,19.987,8.938z M16.586,8H14V5.414L16.586,8z M6,20V4h6v5c0,0.553,0.447,1,1,1h5v10H6z"/></svg>