<!-- Generated by IcoMoon.io -->
<svg version="1.1" xmlns="http://www.w3.org/2000/svg" width="16" height="16" viewBox="0 0 16 16">
<title>bx-file</title>
<path d="M2.667 2v12c0 0.368 0.298 0.667 0.667 0.667v0h9.333c0.368 0 0.667-0.298 0.667-0.667v0-8c0-0.014-0.007-0.027-0.009-0.041-0.004-0.063-0.016-0.122-0.035-0.177l0.001 0.004c-0.007-0.021-0.013-0.042-0.022-0.062-0.033-0.076-0.077-0.14-0.131-0.196l0 0-4-4c-0.055-0.053-0.119-0.097-0.19-0.128l-0.004-0.002c-0.021-0.010-0.042-0.015-0.065-0.023-0.050-0.018-0.107-0.030-0.167-0.033l-0.002-0c-0.015-0.001-0.029-0.009-0.043-0.009h-5.333c-0.368 0-0.667 0.298-0.667 0.667v0zM11.057 5.333h-1.724v-1.724l1.724 1.724zM4 2.667h4v3.333c0 0.368 0.298 0.667 0.667 0.667v0h3.333v6.667h-8v-10.667z"></path>
<path d="M5.333 8h5.333v1.333h-5.333zM5.333 10.667h5.333v1.333h-5.333zM5.333 5.333h1.333v1.333h-1.333z"></path>
</svg>
