<!-- Generated by IcoMoon.io -->
<svg version="1.1" xmlns="http://www.w3.org/2000/svg" width="16" height="16" viewBox="0 0 16 16">
<title>bx-flag-alt</title>
<path d="M2.667 1.333v13.333h1.333v-5.333h3.131l1.832 1.221c0.109 0.073 0.239 0.112 0.37 0.112h4c0.368 0 0.667-0.298 0.667-0.667v0-6c0-0.368-0.298-0.667-0.667-0.667v0h-3.798l-1.832-1.221c-0.104-0.070-0.232-0.112-0.37-0.112h-3.333v-0.667h-1.333zM7.131 3.333l1.832 1.221c0.109 0.073 0.239 0.112 0.37 0.112h3.333v4.667h-3.131l-1.832-1.221c-0.104-0.070-0.232-0.112-0.37-0.112h-3.333v-4.667h3.131z"></path>
</svg>
