<!-- Generated by IcoMoon.io -->
<svg version="1.1" xmlns="http://www.w3.org/2000/svg" width="16" height="16" viewBox="0 0 16 16">
<title>bx-file-blank</title>
<path d="M13.291 5.787c-0.007-0.021-0.013-0.042-0.022-0.063-0.033-0.075-0.077-0.14-0.131-0.196l-4-4c-0.055-0.053-0.12-0.097-0.191-0.129l-0.004-0.002c-0.020-0.009-0.041-0.015-0.063-0.022-0.051-0.018-0.11-0.030-0.171-0.034l-0.002-0c-0.015-0.001-0.027-0.009-0.041-0.009h-5.333c-0.368 0-0.667 0.298-0.667 0.667v0 12c0 0.368 0.298 0.667 0.667 0.667v0h9.333c0.368 0 0.667-0.298 0.667-0.667v0-8c0-0.014-0.007-0.027-0.009-0.041-0.004-0.063-0.016-0.121-0.035-0.177l0.001 0.005zM11.057 5.333h-1.724v-1.724l1.724 1.724zM4 13.333v-10.667h4v3.333c0 0.368 0.298 0.667 0.667 0.667v0h3.333v6.667h-8z"></path>
</svg>
