<!-- Generated by IcoMoon.io -->
<svg version="1.1" xmlns="http://www.w3.org/2000/svg" width="16" height="16" viewBox="0 0 16 16">
<title>bx-files</title>
<path d="M13.333 11.333v-6h-0.006c0-0.002 0-0.005 0-0.007 0-0.181-0.072-0.345-0.189-0.464l-3.333-3.333c-0.119-0.117-0.282-0.189-0.462-0.189-0.003 0-0.007 0-0.010 0h0v-0.007h-4c-0.368 0-0.667 0.298-0.667 0.667v0 9.333c0 0.368 0.298 0.667 0.667 0.667v0h7.333c0.368 0 0.667-0.298 0.667-0.667v0zM10 3.609l1.057 1.057h-1.057v-1.057zM6 10.667v-8h2.667v2.667c0 0.368 0.298 0.667 0.667 0.667v0h2.667v4.667h-6z"></path>
<path d="M2 5.333v8.667c0 0.368 0.298 0.667 0.667 0.667v0h8v-1.333h-7.333v-8h-1.333z"></path>
</svg>
