<!-- Generated by IcoMoon.io -->
<svg version="1.1" xmlns="http://www.w3.org/2000/svg" width="16" height="16" viewBox="0 0 16 16">
<title>bx-film</title>
<path d="M14 13.333v-10.667c0-0.368-0.298-0.667-0.667-0.667v0h-10.667c-0.368 0-0.667 0.298-0.667 0.667v0 10.667c0 0.368 0.298 0.667 0.667 0.667v0h10.667c0.368 0 0.667-0.298 0.667-0.667v0zM12.667 10h-1.333v-1.333h1.333v1.333zM10 8.667v4h-4v-4h4zM6 7.333v-4h4v4h-4zM12.667 7.333h-1.333v-1.333h1.333v1.333zM12.667 4.667h-1.333v-1.333h1.333v1.333zM3.333 3.333h1.333v1.333h-1.333v-1.333zM3.333 6h1.333v1.333h-1.333v-1.333zM3.333 8.667h1.333v1.333h-1.333v-1.333zM3.333 11.333h1.333v1.333h-1.333v-1.333zM11.333 12.667v-1.333h1.333v1.333h-1.333z"></path>
</svg>
