<!-- Generated by IcoMoon.io -->
<svg version="1.1" xmlns="http://www.w3.org/2000/svg" width="16" height="16" viewBox="0 0 16 16">
<title>bx-football</title>
<path d="M8.001 1.327c-0.003 0-0.007-0-0.010-0-1.839 0-3.503 0.749-4.704 1.958l-0 0c-2.599 2.599-2.599 6.829 0 9.428 1.201 1.21 2.865 1.959 4.703 1.959 0.004 0 0.008 0 0.013-0h-0.001c0.003 0 0.008 0 0.012 0 1.838 0 3.501-0.749 4.701-1.958l0-0c2.599-2.599 2.599-6.829 0-9.429-1.201-1.209-2.865-1.958-4.703-1.958-0.004 0-0.007 0-0.011 0h0.001zM8.121 2.667h-0.239c0.041-0.001 0.079-0.006 0.12-0.006s0.079 0.005 0.119 0.006zM12.162 11.333h-1.495l-0.839 1.677c-0.543 0.207-1.171 0.327-1.827 0.329h-0.001c-0.658-0.001-1.287-0.122-1.867-0.341l0.037 0.012-0.837-1.67h-1.49c-0.529-0.654-0.91-1.45-1.077-2.321l-0.005-0.033 1.239-1.652-0.811-1.622c0.273-0.573 0.621-1.063 1.040-1.483l-0 0c0.584-0.586 1.304-1.037 2.109-1.302l0.038-0.011 1.625 1.084 1.625-1.083c0.842 0.275 1.562 0.726 2.147 1.312l0 0c0.418 0.419 0.766 0.909 1.025 1.449l0.014 0.032-0.811 1.624 1.239 1.652c-0.172 0.902-0.55 1.696-1.085 2.358l0.008-0.010z"></path>
<path d="M5.667 7.333l1 2.667h2.667l1-2.667-2.333-1.667z"></path>
</svg>
