<!-- Generated by IcoMoon.io -->
<svg version="1.1" xmlns="http://www.w3.org/2000/svg" width="16" height="16" viewBox="0 0 16 16">
<title>bx-first-aid</title>
<path d="M14 4h-2.667v-2c0-0.368-0.298-0.667-0.667-0.667v0h-5.333c-0.368 0-0.667 0.298-0.667 0.667v0 2h-2.667c-0.368 0-0.667 0.298-0.667 0.667v0 9.333c0 0.368 0.298 0.667 0.667 0.667v0h12c0.368 0 0.667-0.298 0.667-0.667v0-9.333c0-0.368-0.298-0.667-0.667-0.667v0zM6 2.667h4v1.333h-4v-1.333zM13.333 13.333h-10.667v-8h10.667v8z"></path>
<path d="M8.667 6.667h-1.333v2h-2v1.333h2v2h1.333v-2h2v-1.333h-2z"></path>
</svg>
