<!-- Generated by IcoMoon.io -->
<svg version="1.1" xmlns="http://www.w3.org/2000/svg" width="16" height="16" viewBox="0 0 16 16">
<title>bx-folder-minus</title>
<path d="M5.333 8h5.333v1.333h-5.333z"></path>
<path d="M14 3.333h-7.057l-1.138-1.138c-0.12-0.121-0.287-0.195-0.47-0.195-0 0-0.001 0-0.001 0h-3.333c-0.368 0-0.667 0.298-0.667 0.667v0 10.667c0 0.368 0.298 0.667 0.667 0.667v0h12c0.368 0 0.667-0.298 0.667-0.667v0-9.333c0-0.368-0.298-0.667-0.667-0.667v0zM13.333 12.667h-10.667v-9.333h2.391l1.138 1.138c0.12 0.121 0.287 0.195 0.47 0.195 0 0 0.001 0 0.001 0h6.667v8z"></path>
</svg>
