<svg xmlns="http://www.w3.org/2000/svg" width="24" height="24"><path fill="none" d="M12.181 4c-.061-.001-.119-.009-.18-.009s-.119.008-.18.009h.36zM18 11l1.215-2.437a7.94 7.94 0 0 0-1.558-2.221 8.002 8.002 0 0 0-3.22-1.968L12 6 9.563 4.375a7.994 7.994 0 0 0-3.22 1.969 7.936 7.936 0 0 0-1.559 2.224L6 11l-1.858 2.478a7.944 7.944 0 0 0 1.623 3.532H8l1.255 2.505a7.96 7.96 0 0 0 2.746.494c.95 0 1.873-.175 2.741-.493L16 17h2.243a7.952 7.952 0 0 0 1.615-3.522L18 11zm-4 4h-4l-1.5-4L12 8.5l3.5 2.5-1.5 4z"/><path d="M12.001 1.991a9.943 9.943 0 0 0-7.072 2.938c-3.899 3.898-3.899 10.243 0 14.142a9.94 9.94 0 0 0 7.073 2.938 9.936 9.936 0 0 0 7.07-2.937c3.899-3.898 3.899-10.243 0-14.144a9.942 9.942 0 0 0-7.071-2.937zM12.181 4h-.359c.061-.001.119-.009.18-.009s.118.008.179.009zm6.062 13H16l-1.258 2.516a7.956 7.956 0 0 1-2.741.493 7.96 7.96 0 0 1-2.746-.494L8 17.01H5.765a7.96 7.96 0 0 1-1.623-3.532L6 11 4.784 8.567a7.936 7.936 0 0 1 1.559-2.224 7.994 7.994 0 0 1 3.22-1.969L12 6l2.438-1.625a8.01 8.01 0 0 1 3.22 1.968 7.94 7.94 0 0 1 1.558 2.221L18 11l1.858 2.478A7.952 7.952 0 0 1 18.243 17z"/><path d="M8.5 11l1.5 4h4l1.5-4L12 8.5z"/></svg>