<!-- Generated by IcoMoon.io -->
<svg version="1.1" xmlns="http://www.w3.org/2000/svg" width="16" height="16" viewBox="0 0 16 16">
<title>bx-fingerprint</title>
<path d="M3.975 11.783c0.692 1.105 0.692 1.929 0.692 2.884h1.333c0-1.014 0-2.163-0.895-3.593l-1.13 0.709zM11.003 2.258c-1.671-0.975-5.931-1.612-8.115 0.645-2.259 2.335-1.522 5.959 0.001 7.528 0.125 0.129 0.24 0.255 0.349 0.377l0.996-0.887c-0.136-0.153-0.263-0.289-0.393-0.423l0.004 0.004c-1.094-1.127-1.651-3.965 0.001-5.673 1.715-1.773 5.323-1.099 6.485-0.421 1.794 1.046 2.731 2.872 2.739 2.889l1.193-0.597c-0.044-0.088-1.113-2.191-3.26-3.443z"></path>
<path d="M6.227 8.548c-0.687-0.84-1.191-1.545-0.928-2.337 0.175-0.523 0.542-0.883 1.091-1.069 0.816-0.273 1.947-0.107 2.693 0.401l0.749-1.103c-1.099-0.747-2.655-0.971-3.869-0.561-0.939 0.317-1.623 0.997-1.928 1.911-0.517 1.552 0.533 2.836 1.16 3.603 0.099 0.122 0.193 0.236 0.273 0.341 1.866 2.481 1.866 3.672 1.866 4.933h1.333c0-1.357 0-2.897-2.134-5.734-0.121-0.158-0.221-0.283-0.323-0.406l0.017 0.021zM10.087 6.319c1.223 1.176 2.023 2.965 2.593 5.801l1.307-0.263c-0.626-3.119-1.544-5.123-2.975-6.499l-0.925 0.961z"></path>
<path d="M7.704 6.113l-0.743 1.107c0.018 0.013 1.807 1.253 2.534 3.816l1.283-0.363c-0.866-3.055-2.984-4.499-3.073-4.559zM9.792 12.306c0.14 0.779 0.208 1.551 0.208 2.361h1.333c0-0.89-0.075-1.739-0.229-2.597l-1.313 0.236z"></path>
</svg>
