<svg xmlns="http://www.w3.org/2000/svg" width="24" height="24"><path fill="none" d="M13 10a1 1 0 0 1-1-1V4H6v16h12V10h-5z"/><path fill="none" d="M16.586 8L14 5.414V8z"/><path d="M19.937 8.68c-.011-.032-.02-.063-.033-.094a.997.997 0 0 0-.196-.293l-6-6a.997.997 0 0 0-.293-.196c-.03-.014-.062-.022-.094-.033a.991.991 0 0 0-.259-.051C13.04 2.011 13.021 2 13 2H5a1 1 0 0 0-1 1v18a1 1 0 0 0 1 1h14a1 1 0 0 0 1-1V9c0-.021-.011-.04-.013-.062a.99.99 0 0 0-.05-.258zM16.586 8H14V5.414L16.586 8zM6 20V4h6v5a1 1 0 0 0 1 1h5v10H6z"/></svg>