<!-- Generated by IcoMoon.io -->
<svg version="1.1" xmlns="http://www.w3.org/2000/svg" width="16" height="16" viewBox="0 0 16 16">
<title>bx-git-pull-request</title>
<path d="M2 12.333c0 1.287 1.047 2.333 2.333 2.333s2.333-1.047 2.333-2.333c0-1.053-0.707-1.935-1.667-2.225v-4.217c0.96-0.289 1.667-1.171 1.667-2.225 0-1.287-1.047-2.333-2.333-2.333s-2.333 1.047-2.333 2.333c0 1.053 0.707 1.935 1.667 2.225v4.217c-0.96 0.289-1.667 1.171-1.667 2.225zM5.333 12.333c0 0.551-0.449 1-1 1s-1-0.449-1-1 0.449-1 1-1 1 0.449 1 1zM3.333 3.667c0-0.551 0.449-1 1-1s1 0.449 1 1-0.449 1-1 1-1-0.449-1-1zM12.333 10.109v-4.775c0-1.006-0.639-2.455-2.333-2.631v-1.369l-2.667 2 2.667 2v-1.297c0.899 0.172 0.995 1.019 1 1.297v4.775c-0.96 0.289-1.667 1.171-1.667 2.225 0 1.287 1.047 2.333 2.333 2.333s2.333-1.047 2.333-2.333c0-1.053-0.707-1.935-1.667-2.225zM11.667 13.333c-0.551 0-1-0.449-1-1s0.449-1 1-1 1 0.449 1 1-0.449 1-1 1z"></path>
</svg>
