<!-- Generated by IcoMoon.io -->
<svg version="1.1" xmlns="http://www.w3.org/2000/svg" width="16" height="16" viewBox="0 0 16 16">
<title>bx-git-repo-forked</title>
<path d="M6.667 3.667c0-1.287-1.047-2.333-2.333-2.333s-2.333 1.047-2.333 2.333c0 1.068 0.725 1.961 1.706 2.237 0.111 0.789 0.526 2.138 2.058 2.719 1.569 0.597 1.569 1.067 1.569 1.377v0.109c-0.96 0.289-1.667 1.171-1.667 2.225 0 1.287 1.047 2.333 2.333 2.333s2.333-1.047 2.333-2.333c0-1.053-0.707-1.935-1.667-2.225v-0.109c0-0.311 0-0.781 1.569-1.377 1.532-0.581 1.947-1.931 2.058-2.719 0.981-0.277 1.706-1.169 1.706-2.237 0-1.287-1.047-2.333-2.333-2.333s-2.333 1.047-2.333 2.333c0 1.035 0.681 1.903 1.616 2.209-0.097 0.49-0.377 1.194-1.185 1.501-0.795 0.301-1.369 0.635-1.764 1.024-0.395-0.389-0.969-0.723-1.764-1.024-0.809-0.307-1.089-1.011-1.185-1.501 0.935-0.305 1.616-1.174 1.616-2.209zM11.667 2.667c0.551 0 1 0.449 1 1s-0.449 1-1 1-1-0.449-1-1 0.449-1 1-1zM9 12.333c0 0.551-0.449 1-1 1s-1-0.449-1-1 0.449-1 1-1 1 0.449 1 1zM4.333 4.667c-0.551 0-1-0.449-1-1s0.449-1 1-1 1 0.449 1 1-0.449 1-1 1z"></path>
</svg>
