<!-- Generated by IcoMoon.io -->
<svg version="1.1" xmlns="http://www.w3.org/2000/svg" width="16" height="16" viewBox="0 0 16 16">
<title>bx-globe</title>
<path d="M8 1.333c-3.676 0-6.667 2.991-6.667 6.667s2.991 6.667 6.667 6.667 6.667-2.991 6.667-6.667-2.991-6.667-6.667-6.667zM13.287 7.333h-1.843c-0.089-1.539-0.521-2.96-1.22-4.212l0.025 0.050c1.633 0.776 2.794 2.31 3.034 4.135l0.003 0.027zM8.353 2.685c0.69 0.909 1.618 2.52 1.751 4.649h-4.085c0.093-1.731 0.663-3.352 1.634-4.649 0.115-0.007 0.229-0.017 0.346-0.017 0.119 0 0.236 0.011 0.353 0.018zM5.792 3.151c-0.656 1.261-1.035 2.69-1.105 4.182h-1.974c0.245-1.868 1.425-3.413 3.046-4.168l0.033-0.014zM2.713 8.667h1.983c0.091 1.586 0.443 2.985 1.037 4.153-1.624-0.778-2.778-2.308-3.017-4.126l-0.003-0.027zM7.633 13.315c-0.934-1.132-1.485-2.718-1.606-4.649h4.075c-0.139 1.849-0.745 3.464-1.735 4.648-0.121 0.008-0.243 0.019-0.367 0.019s-0.245-0.011-0.367-0.018zM10.307 12.801c0.637-1.196 1.025-2.601 1.127-4.134h1.852c-0.24 1.83-1.377 3.35-2.948 4.12l-0.031 0.014z"></path>
</svg>
