<!-- Generated by IcoMoon.io -->
<svg version="1.1" xmlns="http://www.w3.org/2000/svg" width="16" height="16" viewBox="0 0 16 16">
<title>bx-git-merge</title>
<path d="M2 12.333c0 1.287 1.047 2.333 2.333 2.333s2.333-1.047 2.333-2.333c0-1.053-0.707-1.935-1.667-2.225v-2.001c0.069 0.058 0.134 0.119 0.209 0.172 0.787 0.563 1.745 0.732 2.612 0.732 0.644 0 1.235-0.093 1.671-0.187 0.342 0.888 1.186 1.507 2.176 1.51h0c1.287 0 2.333-1.047 2.333-2.333s-1.047-2.333-2.333-2.333c-1.102 0.002-2.024 0.768-2.266 1.796l-0.003 0.016c-0.865 0.214-2.443 0.411-3.413-0.284-0.411-0.294-0.68-0.758-0.833-1.35 0.89-0.341 1.512-1.187 1.515-2.178v-0c0-1.287-1.047-2.333-2.333-2.333s-2.333 1.047-2.333 2.333c0 1.053 0.707 1.935 1.667 2.225v4.217c-0.96 0.289-1.667 1.171-1.667 2.225zM11.667 7c0.551 0 1 0.449 1 1s-0.449 1-1 1-1-0.449-1-1 0.449-1 1-1zM5.333 12.333c0 0.551-0.449 1-1 1s-1-0.449-1-1 0.449-1 1-1 1 0.449 1 1zM3.333 3.667c0-0.551 0.449-1 1-1s1 0.449 1 1-0.449 1-1 1-1-0.449-1-1z"></path>
</svg>
