<!-- Generated by IcoMoon.io -->
<svg version="1.1" xmlns="http://www.w3.org/2000/svg" width="16" height="16" viewBox="0 0 16 16">
<title>bx-group</title>
<path d="M6.333 8.667c-2.792 0-4.987 1.755-5 3.996-0 0.002-0 0.004-0 0.007 0 0.367 0.297 0.664 0.664 0.664 0.001 0 0.002 0 0.003 0h8.667c0.368 0 0.667-0.298 0.667-0.667v0c0-2.281-2.15-4-5-4zM2.782 12c0.403-1.163 1.821-2 3.551-2 1.771 0 3.174 0.823 3.561 2h-7.112zM11.631 7.885c0.481-0.685 0.735-1.477 0.725-2.29-0.012-1.023-0.449-1.998-1.23-2.744l-0.92 0.964c0.527 0.504 0.809 1.125 0.817 1.795 0.008 0.695-0.287 1.375-0.828 1.918l-0.577 0.576 0.68 0.451c1.747 1.159 2.367 2.939 2.367 4.111h1.333c0-1.422-0.635-3.353-2.369-4.781zM6.333 8c1.471 0 2.667-1.196 2.667-2.667s-1.196-2.667-2.667-2.667-2.667 1.196-2.667 2.667 1.196 2.667 2.667 2.667zM6.333 4c0.735 0 1.333 0.598 1.333 1.333s-0.598 1.333-1.333 1.333-1.333-0.598-1.333-1.333 0.598-1.333 1.333-1.333z"></path>
</svg>
