<!-- Generated by IcoMoon.io -->
<svg version="1.1" xmlns="http://www.w3.org/2000/svg" width="16" height="16" viewBox="0 0 16 16">
<title>bx-git-branch</title>
<path d="M11.667 2.667c-1.287 0-2.333 1.047-2.333 2.333 0 1.036 0.683 1.906 1.62 2.21-0.097 0.621-0.365 1.133-0.82 1.549-1.297 1.182-3.685 1.29-4.8 1.271v-4.139c0.96-0.289 1.667-1.171 1.667-2.225 0-1.287-1.047-2.333-2.333-2.333s-2.333 1.047-2.333 2.333c0 1.053 0.707 1.935 1.667 2.225v4.217c-0.96 0.289-1.667 1.171-1.667 2.225 0 1.287 1.047 2.333 2.333 2.333s2.333-1.047 2.333-2.333c0-0.367-0.093-0.71-0.245-1.019 1.373-0.124 3.105-0.505 4.273-1.567 0.731-0.665 1.154-1.509 1.269-2.512 0.979-0.277 1.703-1.169 1.703-2.235 0-1.287-1.047-2.333-2.333-2.333zM3.667 3.667c0-0.551 0.449-1 1-1s1 0.449 1 1-0.449 1-1 1-1-0.449-1-1zM4.667 13.333c-0.551 0-1-0.449-1-1 0.001-0.548 0.441-0.992 0.987-0.999h0.001l0.087 0.007c0.534 0.021 0.959 0.459 0.959 0.996 0 0.55-0.446 0.997-0.997 0.997-0.013 0-0.026-0-0.039-0.001l0.002 0zM11.667 6c-0.551 0-1-0.449-1-1s0.449-1 1-1 1 0.449 1 1-0.449 1-1 1z"></path>
</svg>
