<svg xmlns="http://www.w3.org/2000/svg" width="24" height="24"><path d="M9.5 13c-4.188 0-7.481 2.633-7.5 5.994A.996.996 0 0 0 3 20h13a1 1 0 0 0 1-1c0-3.421-3.225-6-7.5-6zm-5.327 5c.604-1.744 2.731-3 5.327-3 2.657 0 4.761 1.235 5.341 3H4.173zM17.447 11.828c.721-1.028 1.102-2.216 1.088-3.435-.018-1.535-.673-2.997-1.845-4.116l-1.38 1.446c.79.756 1.214 1.687 1.226 2.693.012 1.042-.43 2.063-1.242 2.877l-.865.864 1.02.676C18.069 14.572 19 17.242 19 19h2c0-2.133-.953-5.029-3.553-7.172zM9.5 12c2.206 0 4-1.794 4-4s-1.794-4-4-4-4 1.794-4 4 1.794 4 4 4zm0-6c1.103 0 2 .897 2 2s-.897 2-2 2-2-.897-2-2 .897-2 2-2z"/></svg>