<svg xmlns="http://www.w3.org/2000/svg" width="24" height="24"><path fill="none" d="M8.5 4C7.673 4 7 4.673 7 5.5 7 7 7.626 7 8 7h2.698c-.484-1.475-1.31-3-2.198-3zM16 7c.374 0 1 0 1-1.5 0-.827-.673-1.5-1.5-1.5-.725 0-1.467 1.424-1.978 3H16zM6 14h5v6H6zM4 9h7v3H4zM13.017 9a2.554 2.554 0 0 0-.017.085V12h7V9h-6.983zM13 14h5v6h-5z"/><path d="M21 7h-2.209A4.92 4.92 0 0 0 19 5.5C19 3.57 17.43 2 15.5 2c-1.622 0-2.705 1.482-3.404 3.085C11.407 3.57 10.269 2 8.5 2 6.57 2 5 3.57 5 5.5c0 .596.079 1.089.209 1.5H3a1 1 0 0 0-1 1v5a1 1 0 0 0 1 1h1v7a1 1 0 0 0 1 1h14a1 1 0 0 0 1-1v-7h1a1 1 0 0 0 1-1V8a1 1 0 0 0-1-1zm-5.5-3c.827 0 1.5.673 1.5 1.5C17 7 16.374 7 16 7h-2.478c.511-1.576 1.253-3 1.978-3zM7 5.5C7 4.673 7.673 4 8.5 4c.888 0 1.714 1.525 2.198 3H8c-.374 0-1 0-1-1.5zM4 9h7v3H4V9zm2 11v-6h5v6H6zm12 0h-5v-6h5v6zm2-8h-7V9.085L13.017 9H20v3z"/></svg>