<!-- Generated by IcoMoon.io -->
<svg version="1.1" xmlns="http://www.w3.org/2000/svg" width="16" height="16" viewBox="0 0 16 16">
<title>bx-git-compare</title>
<path d="M4.34 1.333c-1.287 0-2.333 1.047-2.333 2.333 0 1.053 0.707 1.935 1.667 2.225v4.773c-0.001 0.119 0.018 1.187 0.783 1.954 0.401 0.403 0.923 0.626 1.544 0.687v1.361l2.667-2-2.667-2v1.297c-0.896-0.171-0.99-1.018-0.993-1.297v-4.775c0.96-0.289 1.667-1.171 1.667-2.225 0-1.287-1.047-2.333-2.333-2.333zM4.34 4.667c-0.551 0-1-0.449-1-1s0.449-1 1-1 1 0.449 1 1-0.449 1-1 1zM7.333 3.333l2.667 2v-1.297c0.901 0.172 1.001 1.021 1.007 1.297v4.775c-0.96 0.289-1.667 1.171-1.667 2.225 0 1.287 1.047 2.333 2.333 2.333s2.333-1.047 2.333-2.333c0-1.053-0.707-1.935-1.667-2.225v-4.777c-0.003-1.005-0.647-2.453-2.34-2.63v-1.368l-2.667 2zM12.673 12.333c0 0.551-0.449 1-1 1s-1-0.449-1-1 0.449-1 1-1 1 0.449 1 1z"></path>
</svg>
