<!-- Generated by IcoMoon.io -->
<svg version="1.1" xmlns="http://www.w3.org/2000/svg" width="16" height="16" viewBox="0 0 16 16">
<title>bx-globe-alt</title>
<path d="M7.333 12.527v0.806h-1.333v1.333h4v-1.333h-1.333v-1.23c0.795-0.349 1.473-0.817 2.047-1.389l-0 0c2.599-2.599 2.599-6.829 0-9.429l-0.943 0.943c2.079 2.080 2.079 5.463 0 7.543s-5.463 2.080-7.543 0l-0.943 0.943c1.203 1.204 2.866 1.949 4.703 1.949 0.004 0 0.008 0 0.012-0h-0.001c0.472-0 0.933-0.049 1.377-0.143l-0.043 0.008z"></path>
<path d="M6 10c2.206 0 4-1.794 4-4s-1.794-4-4-4-4 1.794-4 4 1.794 4 4 4zM6 3.333c1.471 0 2.667 1.196 2.667 2.667s-1.196 2.667-2.667 2.667-2.667-1.196-2.667-2.667 1.196-2.667 2.667-2.667z"></path>
</svg>
