<!-- Generated by IcoMoon.io -->
<svg version="1.1" xmlns="http://www.w3.org/2000/svg" width="16" height="16" viewBox="0 0 16 16">
<title>bx-grid-alt</title>
<path d="M6.667 2h-4c-0.368 0-0.667 0.298-0.667 0.667v0 4c0 0.368 0.298 0.667 0.667 0.667v0h4c0.368 0 0.667-0.298 0.667-0.667v0-4c0-0.368-0.298-0.667-0.667-0.667v0zM6 6h-2.667v-2.667h2.667v2.667zM9.333 7.333h4c0.368 0 0.667-0.298 0.667-0.667v0-4c0-0.368-0.298-0.667-0.667-0.667v0h-4c-0.368 0-0.667 0.298-0.667 0.667v0 4c0 0.368 0.298 0.667 0.667 0.667v0zM10 3.333h2.667v2.667h-2.667v-2.667zM2 13.333c0 0.368 0.298 0.667 0.667 0.667v0h4c0.368 0 0.667-0.298 0.667-0.667v0-4c0-0.368-0.298-0.667-0.667-0.667v0h-4c-0.368 0-0.667 0.298-0.667 0.667v0 4zM3.333 10h2.667v2.667h-2.667v-2.667zM8.667 13.333c0 0.368 0.298 0.667 0.667 0.667v0h4c0.368 0 0.667-0.298 0.667-0.667v0-4c0-0.368-0.298-0.667-0.667-0.667v0h-4c-0.368 0-0.667 0.298-0.667 0.667v0 4zM10 10h2.667v2.667h-2.667v-2.667z"></path>
</svg>
