<!-- Generated by IcoMoon.io -->
<svg version="1.1" xmlns="http://www.w3.org/2000/svg" width="16" height="16" viewBox="0 0 16 16">
<title>bx-glasses</title>
<path d="M14.667 7.333h-0.761c-0.298-1.147-1.333-2-2.572-2s-2.274 0.853-2.572 2h-1.522c-0.298-1.147-1.333-2-2.572-2s-2.274 0.853-2.572 2h-0.762v1.333h0.761c0.298 1.147 1.333 2 2.572 2s2.274-0.853 2.572-2h1.522c0.298 1.147 1.333 2 2.572 2s2.274-0.853 2.572-2h0.762v-1.333zM4.667 9.333c-0.735 0-1.333-0.598-1.333-1.333s0.598-1.333 1.333-1.333 1.333 0.598 1.333 1.333-0.598 1.333-1.333 1.333zM11.333 9.333c-0.735 0-1.333-0.598-1.333-1.333s0.598-1.333 1.333-1.333 1.333 0.598 1.333 1.333-0.598 1.333-1.333 1.333z"></path>
</svg>
