<svg xmlns="http://www.w3.org/2000/svg" width="24" height="24" viewBox="0 0 24 24"><path d="M17.707,7.293c-0.265-0.265-0.656-0.358-1.013-0.245c-0.356,0.114-0.619,0.418-0.681,0.788	c-0.392,2.348-1.275,3.484-2.604,3.483c1.023-2.493,1.098-4.602,0.219-6.278C12.29,2.487,9.27,2.028,9.142,2.01	C8.856,1.97,8.563,2.055,8.345,2.244C8.126,2.435,8,2.71,8,3c0,0.025-0.02,2.605-1.707,4.293C4.239,9.347,3,10.586,3,14	c0,5.526,4.27,8,8.5,8c4.094,0,8.5-2.504,8.5-8C20,13.819,19.974,9.56,17.707,7.293z M13.65,19.718C12.637,19.834,9.641,19.581,8,13	c0,0-1.387,3.475-0.688,5.786C5.965,17.85,5,16.32,5,14c0-2.586,0.737-3.323,2.707-5.293C9.115,7.3,9.658,5.493,9.868,4.293	c0.675,0.276,1.521,0.784,1.988,1.676c0.693,1.322,0.44,3.201-0.751,5.584c-0.118,0.237-0.138,0.512-0.054,0.764	c0.083,0.252,0.264,0.459,0.501,0.578c0.087,0.044,0.881,0.426,1.919,0.426c1.089,0,2.837-0.426,3.879-2.874	C17.985,12.113,18,13.975,18,14C18,17.385,15.953,19.097,13.65,19.718z"/></svg>