<!-- Generated by IcoMoon.io -->
<svg version="1.1" xmlns="http://www.w3.org/2000/svg" width="16" height="16" viewBox="0 0 16 16">
<title>bx-home-alt</title>
<path d="M2.667 14.667h10.667c0.368 0 0.667-0.298 0.667-0.667v0-6.667c0-0 0-0 0-0.001 0-0.184-0.075-0.35-0.195-0.471l-5.333-5.333c-0.121-0.121-0.287-0.195-0.471-0.195s-0.351 0.075-0.471 0.195l-5.333 5.333c-0.121 0.12-0.195 0.287-0.195 0.471 0 0 0 0 0 0.001v-0 6.667c0 0.368 0.298 0.667 0.667 0.667v0zM6.667 13.333v-3.333h2.667v3.333h-2.667zM3.333 7.609l4.667-4.667 4.667 4.667v5.724h-2v-4c0-0.368-0.298-0.667-0.667-0.667v0h-4c-0.368 0-0.667 0.298-0.667 0.667v0 4h-2v-5.724z"></path>
</svg>
