<!-- Generated by IcoMoon.io -->
<svg version="1.1" xmlns="http://www.w3.org/2000/svg" width="16" height="16" viewBox="0 0 16 16">
<title>bx-home</title>
<path d="M2 8.667h0.667v5.333c0 0.368 0.298 0.667 0.667 0.667v0h9.333c0.368 0 0.667-0.298 0.667-0.667v0-5.333h0.667c0.368-0 0.667-0.299 0.667-0.667 0-0.184-0.075-0.351-0.195-0.471l-6-6c-0.121-0.121-0.287-0.195-0.471-0.195s-0.351 0.075-0.471 0.195l-6 6c-0.121 0.121-0.195 0.287-0.195 0.471 0 0.368 0.298 0.667 0.667 0.667h0zM6.667 13.333v-2.667h2.667v2.667h-2.667zM8 2.943l4.433 4.433c-0.255 0.098-0.432 0.341-0.433 0.625v5.333h-1.333v-3.333c0-0.368-0.298-0.667-0.667-0.667v0h-4c-0.368 0-0.667 0.298-0.667 0.667v0 3.333h-1.333v-5.333c0-0.286-0.18-0.529-0.433-0.625l4.433-4.433z"></path>
</svg>
