<!-- Generated by IcoMoon.io -->
<svg version="1.1" xmlns="http://www.w3.org/2000/svg" width="16" height="16" viewBox="0 0 16 16">
<title>bx-hot</title>
<path d="M7.667 14.667c2.729 0 5.667-1.669 5.666-5.31 0.004-0.108 0.075-2.659-1.497-4.461l-0.928-1.065-0.233 1.393c-0.25 1.497-0.837 2.436-1.679 2.713 1.052-3.435-1.232-5.748-2.683-6.525l-0.981-0.525v1.113c0 1.684-1.129 2.852-1.138 2.862-1.457 1.457-2.195 2.961-2.195 4.471 0 3.684 2.847 5.333 5.667 5.333zM5.138 5.805c0.051-0.050 1.016-1.033 1.386-2.595 0.893 0.819 2.036 2.452 0.982 4.927-0.112 0.264-0.090 0.566 0.059 0.808 0.143 0.234 0.391 0.385 0.664 0.403 0.065 0.005 0.139 0.008 0.218 0.008h0.001c0.719 0 2.271-0.261 3.119-2.351 0.461 1.157 0.434 2.297 0.433 2.329 0 2.257-1.365 3.398-2.9 3.812-0.675 0.077-2.673-0.091-3.767-4.479 0 0-1.395 1.347-1.167 3.215-0.509-0.615-0.833-1.449-0.833-2.548 0-1.144 0.607-2.331 1.805-3.529z"></path>
</svg>
