<svg xmlns="http://www.w3.org/2000/svg" width="24" height="24" viewBox="0 0 24 24"><path d="M19,3.977h1v-2H4v2h1c0,3.313,1.166,5.528,4,7.528v0.949c-2.834,2.041-4,4.254-4,7.522H4v2h16v-2h-1	c0-3.269-1.166-5.481-4-7.522v-0.949C17.834,9.505,19,7.289,19,3.977z M13.44,13.806c2.628,1.772,3.56,3.387,3.56,6.171H7	c0-2.784,0.932-4.398,3.56-6.171C10.835,13.62,11,13.309,11,12.977v-2c0-0.336-0.169-0.65-0.45-0.835C7.962,8.437,7,6.766,7,3.977	h10c0,2.789-0.962,4.46-3.55,6.165C13.169,10.326,13,10.641,13,10.977v2C13,13.309,13.165,13.62,13.44,13.806z"/></svg>