<svg xmlns="http://www.w3.org/2000/svg" width="24" height="24" viewBox="0 0 24 24"><path d="M12 19c.946 0 1.81-.103 2.598-.281l-1.757-1.757C12.568 16.983 12.291 17 12 17c-5.351 0-7.424-3.846-7.926-5 .204-.47.674-1.381 1.508-2.297L4.184 8.305c-1.538 1.667-2.121 3.346-2.132 3.379-.069.205-.069.428 0 .633C2.073 12.383 4.367 19 12 19zM21.948 12.316c.069-.205.069-.428 0-.633C21.927 11.617 19.633 5 12 5c-1.837 0-3.346.396-4.604.981L3.707 2.293 2.293 3.707l18 18 1.414-1.414-3.319-3.319C21.002 15.022 21.935 12.358 21.948 12.316zM14.691 13.277C14.882 12.888 15 12.459 15 12c0-1.641-1.359-3-3-3-.459 0-.888.118-1.277.309L8.915 7.501C9.796 7.193 10.814 7 12 7c5.351 0 7.424 3.846 7.926 5-.302.692-1.166 2.342-2.954 3.558L14.691 13.277z"/></svg>