<!-- Generated by IcoMoon.io -->
<svg version="1.1" xmlns="http://www.w3.org/2000/svg" width="16" height="16" viewBox="0 0 16 16">
<title>bx-hdd</title>
<path d="M14.647 8.505l-1.333-5.333c-0.075-0.292-0.336-0.505-0.647-0.505h-8.667c-0.278 0-0.527 0.173-0.625 0.432l-2 5.333 0.005 0.002c-0.028 0.069-0.045 0.149-0.047 0.232l-0 0.001v4c0 0.368 0.298 0.667 0.667 0.667v0h12c0.368 0 0.667-0.298 0.667-0.667v0-4c0-0.056-0.019-0.106-0.032-0.159l0.012-0.003zM4.462 4h7.683l1.001 4h-10.184l1.5-4zM13.333 12h-10.667v-2.667h10.667v2.667z"></path>
<path d="M11.333 10h1.333v1.333h-1.333zM9.333 10h1.333v1.333h-1.333z"></path>
</svg>
