<svg xmlns="http://www.w3.org/2000/svg" width="24" height="24"><path fill="none" d="M6.25 17.822C5.907 15.02 8 13 8 13c1.641 6.581 4.637 6.834 5.65 6.718C15.953 19.097 18 17.385 18 14c.001-.047.041-1.757-.65-3.493-1.272 3.135-3.6 3.526-4.679 3.526h-.001c-.119 0-.229-.004-.327-.012a1.275 1.275 0 0 1-.996-.605 1.328 1.328 0 0 1-.088-1.212c1.581-3.712-.134-6.16-1.473-7.39-.555 2.343-2.003 3.818-2.079 3.893C5.911 10.503 5 12.284 5 14c0 1.648.486 2.899 1.25 3.822z"/><path d="M11.5 22c4.094 0 8.5-2.504 8.499-7.965.006-.162.112-3.988-2.245-6.692l-1.392-1.597-.349 2.09c-.375 2.245-1.256 3.654-2.518 4.069 1.578-5.153-1.848-8.622-4.024-9.787L8 1.33V3c0 2.526-1.693 4.278-1.707 4.293C4.107 9.478 3 11.734 3 14c0 5.526 4.27 8 8.5 8zM7.707 8.707c.076-.075 1.524-1.55 2.079-3.893 1.339 1.229 3.054 3.678 1.473 7.39-.168.396-.135.849.088 1.212.215.351.587.577.996.605.098.008.208.012.327.012h.001c1.079 0 3.406-.392 4.679-3.526.691 1.736.651 3.446.65 3.493 0 3.385-2.047 5.097-4.35 5.718-1.013.116-4.009-.137-5.65-6.718 0 0-2.093 2.02-1.75 4.822C5.486 16.899 5 15.648 5 14c0-1.716.911-3.497 2.707-5.293z"/></svg>