<svg xmlns="http://www.w3.org/2000/svg" width="24" height="24" viewBox="0 0 24 24"><circle cx="12.984" cy="3.984" r="2.016"/><path d="M18.929,15.629c-0.102-0.255-0.303-0.456-0.558-0.558L14,13.323V11h3V9h-3V7h-2v7c0,0.409,0.249,0.776,0.629,0.929 l4.602,1.841l1.841,4.602l1.857-0.742L18.929,15.629z"/><path d="M10.005,20.01C7.797,20.01,6,18.213,6,16.005S7.797,12,10.005,12v-2C6.693,10,4,12.693,4,16.005s2.693,6.005,6.005,6.005 c2.352,0,4.499-1.392,5.47-3.546l-1.824-0.822C13.003,19.08,11.571,20.01,10.005,20.01z"/></svg>