<svg xmlns="http://www.w3.org/2000/svg" width="24" height="24" viewBox="0 0 24 24"><circle cx="11" cy="4" r="2"/><path d="M17.177,14.368C16.904,13.55,16.142,13,15.279,13L12,13.049V11h3V9h-3V7h-2v2v2v2.099c-0.034,0.474,0.121,0.926,0.439,1.28 C10.794,14.773,11.314,15,11.867,15h3.412l1.544,4.632C17.096,20.45,17.858,21,18.721,21H21v-2h-2.279L17.177,14.368z"/><path d="M14.265,17.956c-0.17,0.259-0.361,0.504-0.584,0.727c-0.412,0.412-0.893,0.736-1.43,0.964 c-1.109,0.469-2.393,0.469-3.502,0c-0.537-0.228-1.018-0.552-1.432-0.966c-0.412-0.412-0.736-0.893-0.964-1.43 C6.119,16.696,6,16.107,6,15.5s0.119-1.196,0.354-1.751c0.228-0.537,0.552-1.018,0.966-1.432C7.528,12.107,7.757,11.922,8,11.76 V9.583L7.97,9.512c-0.775,0.328-1.471,0.797-2.064,1.392c-0.597,0.596-1.065,1.291-1.394,2.066C4.172,13.772,4,14.624,4,15.5 s0.172,1.728,0.512,2.53c0.328,0.775,0.797,1.471,1.392,2.064c0.596,0.597,1.291,1.065,2.066,1.394C8.772,21.828,9.624,22,10.5,22 s1.728-0.172,2.53-0.512c0.767-0.324,1.454-0.789,2.043-1.374c-0.101-0.148-0.191-0.306-0.25-0.482L14.265,17.956z"/></svg>