<!-- Generated by IcoMoon.io -->
<svg version="1.1" xmlns="http://www.w3.org/2000/svg" width="16" height="16" viewBox="0 0 16 16">
<title>bx-hide</title>
<path d="M8 12.667c0.631 0 1.207-0.069 1.732-0.187l-1.171-1.171c-0.182 0.014-0.367 0.025-0.561 0.025-3.567 0-4.949-2.564-5.284-3.333 0.267-0.588 0.604-1.094 1.009-1.536l-0.004 0.004-0.932-0.932c-1.025 1.111-1.414 2.231-1.421 2.253-0.022 0.063-0.034 0.136-0.034 0.211s0.013 0.148 0.036 0.216l-0.001-0.005c0.014 0.044 1.543 4.455 6.632 4.455zM14.632 8.211c0.022-0.063 0.034-0.136 0.034-0.211s-0.013-0.148-0.036-0.216l0.001 0.005c-0.014-0.044-1.543-4.455-6.632-4.455-1.225 0-2.231 0.264-3.069 0.654l-2.459-2.459-0.943 0.943 12 12 0.943-0.943-2.213-2.213c1.743-1.301 2.365-3.077 2.373-3.105zM9.794 8.851c0.127-0.259 0.206-0.545 0.206-0.851 0-1.094-0.906-2-2-2-0.306 0-0.592 0.079-0.851 0.206l-1.205-1.205c0.597-0.212 1.286-0.334 2.004-0.334 0.019 0 0.037 0 0.056 0l-0.003-0c3.567 0 4.949 2.564 5.284 3.333-0.201 0.461-0.777 1.561-1.969 2.372l-1.521-1.521z"></path>
</svg>
