<!-- Generated by IcoMoon.io -->
<svg version="1.1" xmlns="http://www.w3.org/2000/svg" width="16" height="16" viewBox="0 0 16 16">
<title>bx-heart</title>
<path d="M13.47 3.194c-0.717-0.722-1.709-1.168-2.806-1.169h-0c-1.029 0-1.965 0.395-2.667 1.041l0.003-0.002c-0.699-0.644-1.635-1.039-2.664-1.039v0c-1.098 0.001-2.092 0.449-2.808 1.172l-0 0c-1.569 1.575-1.568 4.039 0.001 5.608l4.888 4.888c0.113 0.199 0.332 0.328 0.583 0.328 0.217-0.002 0.408-0.108 0.527-0.271l0.001-0.002 4.943-4.943c1.569-1.569 1.57-4.033-0.001-5.611zM12.529 7.862l-4.529 4.529-4.529-4.529c-1.041-1.042-1.041-2.678-0.001-3.723 0.507-0.504 1.169-0.781 1.866-0.781s1.357 0.277 1.859 0.78l0.333 0.333c0.121 0.121 0.287 0.195 0.471 0.195s0.351-0.075 0.471-0.195l0.333-0.333c1.008-1.006 2.716-1.003 3.723-0.001 1.042 1.047 1.043 2.683 0.001 3.725z"></path>
</svg>
