<svg xmlns="http://www.w3.org/2000/svg" width="24" height="24" viewBox="0 0 24 24"><path d="M18,4h1V2h-2H7H5v2h1c0,3.29,0.682,5.014,3,7.41v1.181C6.682,14.986,6,16.71,6,20H5v2h2h10h2v-2h-1	c0-3.29-0.682-5.014-3-7.41V11.41C17.318,9.014,18,7.29,18,4z M13.293,13.707C15.627,16.041,16,17.266,16,20H8	c0-2.734,0.373-3.959,2.707-6.293C10.895,13.52,11,13.265,11,13v-2c0-0.265-0.105-0.52-0.293-0.707C8.373,7.959,8,6.734,8,4h8	c0,2.734-0.373,3.959-2.707,6.293C13.105,10.48,13,10.735,13,11v2C13,13.265,13.105,13.52,13.293,13.707z"/></svg>