<svg xmlns="http://www.w3.org/2000/svg" width="24" height="24" viewBox="0 0 24 24"><path d="M19,4h1V2H4v2h1c0,3,1.58,4.966,4,7.391v1.172C6.58,14.987,5,17,5,20H4v2h16v-2h-1c0-3-1.58-5.013-4-7.438v-1.172	C17.42,8.966,19,7,19,4z M13.293,13.695C15.761,16.164,17,17,17,20H7c0-3,1.239-3.836,3.707-6.305	C10.895,13.508,11,13.242,11,12.977v-2c0-0.266-0.105-0.508-0.293-0.695C8.239,7.813,7,7,7,4h10c0,3-1.239,3.813-3.707,6.281	C13.105,10.469,13,10.711,13,10.977v2C13,13.242,13.105,13.508,13.293,13.695z"/></svg>