<!-- Generated by IcoMoon.io -->
<svg version="1.1" xmlns="http://www.w3.org/2000/svg" width="16" height="16" viewBox="0 0 16 16">
<title>bx-handicap</title>
<path d="M10 2.656c0 0.742-0.602 1.344-1.344 1.344s-1.344-0.602-1.344-1.344c0-0.742 0.602-1.344 1.344-1.344s1.344 0.602 1.344 1.344z"></path>
<path d="M11.333 7.333v-1.333h-2v-1.333h-1.333v4.667c0 0.273 0.166 0.517 0.419 0.619l3.068 1.227 1.227 3.068 1.238-0.495-1.333-3.333c-0.069-0.17-0.202-0.303-0.368-0.37l-0.004-0.002-2.914-1.166v-1.549h2z"></path>
<path d="M6.67 8v-1.333c-2.208 0-4.003 1.795-4.003 4.003s1.795 4.003 4.003 4.003c1.614-0.004 3.004-0.962 3.636-2.339l0.010-0.025-1.216-0.548c-0.428 0.936-1.354 1.575-2.43 1.579h-0c-1.472 0-2.67-1.198-2.67-2.67s1.198-2.67 2.67-2.67z"></path>
</svg>
