<!-- Generated by IcoMoon.io -->
<svg version="1.1" xmlns="http://www.w3.org/2000/svg" width="16" height="16" viewBox="0 0 16 16">
<title>bx-help-circle</title>
<path d="M8 4c-1.446 0-2.623 1.177-2.623 2.623h1.333c0-0.711 0.579-1.289 1.289-1.289s1.289 0.578 1.289 1.289c0 0.399-0.321 0.688-0.811 1.084-0.169 0.137-0.331 0.269-0.461 0.399-0.665 0.665-0.684 1.371-0.684 1.449v0.111h1.333v-0.089c0.001-0.011 0.022-0.257 0.294-0.529 0.099-0.1 0.225-0.199 0.357-0.305 0.519-0.421 1.305-1.056 1.305-2.121 0.001-1.446-1.176-2.623-2.622-2.623z"></path>
<path d="M7.333 10.667h1.333v1.333h-1.333v-1.333z"></path>
<path d="M8 1.333c-3.676 0-6.667 2.991-6.667 6.667s2.991 6.667 6.667 6.667c3.676 0 6.667-2.991 6.667-6.667s-2.991-6.667-6.667-6.667zM8 13.333c-2.941 0-5.333-2.393-5.333-5.333s2.393-5.333 5.333-5.333 5.333 2.393 5.333 5.333-2.393 5.333-5.333 5.333z"></path>
</svg>
