<!-- Generated by IcoMoon.io -->
<svg version="1.1" xmlns="http://www.w3.org/2000/svg" width="16" height="16" viewBox="0 0 16 16">
<title>bx-id-card</title>
<path d="M6 9.067c-1.099 0-2 0.8-2 1.6h4c0-0.767-0.901-1.6-2-1.6z"></path>
<path d="M6 8.667c0.575 0 1-0.425 1-1s-0.425-1-1-1-1 0.425-1 1 0.425 1 1 1z"></path>
<path d="M14 2.667h-12c-0.369 0-0.667 0.299-0.667 0.667v9.333c0 0.368 0.298 0.667 0.667 0.667h12c0.369 0 0.667-0.299 0.667-0.667v-9.333c0-0.368-0.298-0.667-0.667-0.667zM13.333 12h-10.667v-6.667h10.667v6.667z"></path>
<path d="M8.667 6.667h3.333v1.333h-3.333v-1.333z"></path>
<path d="M9.333 9.333h2.667v1.333h-2.667v-1.333z"></path>
</svg>
