<svg xmlns="http://www.w3.org/2000/svg" width="24" height="24"><path fill="none" d="M9 11a1 1 0 0 1 1 1c0 1.103.897 2 2 2s2-.897 2-2a1 1 0 0 1 1-1h4.613l-2.334-7H6.721l-2.334 7H9z"/><path fill="none" d="M12 16a4.005 4.005 0 0 1-3.873-3H4v5h16v-5h-4.127A4.005 4.005 0 0 1 12 16z"/><path d="M21.948 11.684l-3-9A.997.997 0 0 0 18 2H6a.998.998 0 0 0-.948.684l-3 9 .012.004A.928.928 0 0 0 2 12v7a1 1 0 0 0 1 1h18a1 1 0 0 0 1-1v-7a.964.964 0 0 0-.063-.313l.011-.003zM6.721 4H17.28l2.334 7H15a1 1 0 0 0-1 1c0 1.103-.897 2-2 2s-2-.897-2-2a1 1 0 0 0-1-1H4.387l2.334-7zM20 18H4v-5h4.127c.444 1.724 2.013 3 3.873 3s3.429-1.276 3.873-3H20v5z"/></svg>