<!-- Generated by IcoMoon.io -->
<svg version="1.1" xmlns="http://www.w3.org/2000/svg" width="16" height="16" viewBox="0 0 16 16">
<title>bx-image-alt</title>
<path d="M13.333 2h-10.667c-0.368 0-0.667 0.298-0.667 0.667v0 10.667c0 0.368 0.298 0.667 0.667 0.667v0h10.667c0.368 0 0.667-0.298 0.667-0.667v0-10.667c0-0.368-0.298-0.667-0.667-0.667v0zM12.667 3.333v7.253l-2.125-2.974c-0.121-0.168-0.315-0.277-0.534-0.279h-0.008c-0.217 0-0.41 0.104-0.532 0.265l-0.001 0.002-2.11 2.814-1.552-1.552c-0.121-0.121-0.288-0.195-0.472-0.195-0.21 0-0.397 0.097-0.52 0.248l-0.001 0.001-1.478 1.849v-7.432h9.333zM5.667 12.667h-2.146l1.868-2.335 1.16 1.16-0.882 1.175zM9.987 9.129l2.527 3.538h-5.181l2.653-3.538z"></path>
</svg>
