<!-- Generated by IcoMoon.io -->
<svg version="1.1" xmlns="http://www.w3.org/2000/svg" width="16" height="16" viewBox="0 0 16 16">
<title>bx-images</title>
<path d="M14 1.333h-9.333c-0.368 0-0.667 0.298-0.667 0.667v0 9.333c0 0.368 0.298 0.667 0.667 0.667v0h9.333c0.368 0 0.667-0.298 0.667-0.667v0-9.333c0-0.368-0.298-0.667-0.667-0.667v0zM5.333 2.667h8v7.067l-2.667-3.733-2.357 3.301-0.976-1.301-2 2.667v-8z"></path>
<path d="M2.667 5.333h-1.333v8.667c0 0.368 0.298 0.667 0.667 0.667v0h8.667v-1.333h-8v-8z"></path>
<path d="M8.667 5c0 0.552-0.448 1-1 1s-1-0.448-1-1c0-0.552 0.448-1 1-1s1 0.448 1 1z"></path>
</svg>
