<!-- Generated by IcoMoon.io -->
<svg version="1.1" xmlns="http://www.w3.org/2000/svg" width="16" height="16" viewBox="0 0 16 16">
<title>bx-image</title>
<path d="M13.999 2.667h-11.865c-0.389-0.080-0.801 0.239-0.801 0.653v9.347c0 0.368 0.298 0.667 0.667 0.667v0h12c0.368 0 0.667-0.298 0.667-0.667v0-9.333c0-0.368-0.298-0.667-0.667-0.667v0zM13.333 12h-10.667v-8h10.667v8z"></path>
<path d="M7.999 10.667h4l-3-4-2 2.667-1-1.333-2 2.667h2z"></path>
<path d="M5.999 6.333c0 0.552-0.448 1-1 1s-1-0.448-1-1c0-0.552 0.448-1 1-1s1 0.448 1 1z"></path>
</svg>
