<!-- Generated by IcoMoon.io -->
<svg version="1.1" xmlns="http://www.w3.org/2000/svg" width="16" height="16" viewBox="0 0 16 16">
<title>bx-inbox</title>
<path d="M14.632 7.789l-2-6c-0.090-0.267-0.339-0.456-0.631-0.456-0 0-0.001 0-0.001 0h-8c-0 0-0 0-0 0-0.293 0-0.541 0.189-0.63 0.451l-0.001 0.005-2 6 0.008 0.003c-0.025 0.061-0.040 0.133-0.043 0.207l-0 0.001v4.667c0 0.368 0.298 0.667 0.667 0.667v0h12c0.368 0 0.667-0.298 0.667-0.667v0-4.667c-0.003-0.076-0.018-0.147-0.043-0.213l0.002 0.004 0.007-0.002zM4.481 2.667h7.039l1.556 4.667h-3.076c-0.368 0-0.667 0.298-0.667 0.667v0c0 0.735-0.598 1.333-1.333 1.333s-1.333-0.598-1.333-1.333c0-0.368-0.298-0.667-0.667-0.667v0h-3.075l1.556-4.667zM13.333 12h-10.667v-3.333h2.751c0.296 1.149 1.342 2 2.582 2s2.286-0.851 2.582-2h2.751v3.333z"></path>
</svg>
