<!-- Generated by IcoMoon.io -->
<svg version="1.1" xmlns="http://www.w3.org/2000/svg" width="16" height="16" viewBox="0 0 16 16">
<title>bx-idea</title>
<path d="M7.333 1.333h1.333v1.333h-1.333zM3.805 4.747l-0.943-0.943 0.943-0.943 0.943 0.943zM12.195 2.862l0.943 0.943-0.943 0.943-0.943-0.943zM10 12v-0.986c0.973-0.715 2-1.83 2-3.347 0-2.091-1.719-3.667-4-3.667s-4 1.576-4 3.667c0 1.517 1.027 2.631 2 3.347v0.986c0 0.368 0.298 0.667 0.667 0.667v0h2.667c0.368 0 0.667-0.298 0.667-0.667v0zM8.667 10.667v0.667h-1.333v-0.667c0-0.223-0.111-0.431-0.297-0.555-0.777-0.518-1.703-1.363-1.703-2.445 0-1.352 1.122-2.333 2.667-2.333s2.667 0.981 2.667 2.333c0 1.083-0.927 1.927-1.703 2.445-0.18 0.121-0.297 0.324-0.297 0.555v0zM6.667 13.333h2.667v1.333h-2.667z"></path>
</svg>
