<!-- Generated by IcoMoon.io -->
<svg version="1.1" xmlns="http://www.w3.org/2000/svg" width="16" height="16" viewBox="0 0 16 16">
<title>bx-joystick-alt</title>
<path d="M10.667 8.667c0 0.368-0.298 0.667-0.667 0.667s-0.667-0.298-0.667-0.667c0-0.368 0.298-0.667 0.667-0.667s0.667 0.298 0.667 0.667z"></path>
<path d="M12 7.333c0 0.368-0.298 0.667-0.667 0.667s-0.667-0.298-0.667-0.667c0-0.368 0.298-0.667 0.667-0.667s0.667 0.298 0.667 0.667z"></path>
<path d="M6.667 6h-1.333v1.333h-1.333v1.333h1.333v1.333h1.333v-1.333h1.333v-1.333h-1.333z"></path>
<path d="M10 3.333h-4c-2.565 0-4.656 2.088-4.667 4.659v0.025c0.009 2.565 2.101 4.649 4.667 4.649h4c2.569 0 4.663-2.091 4.667-4.663v-0.011c-0.010-2.571-2.1-4.66-4.667-4.66zM10 11.333h-4c-1.838-0.002-3.328-1.49-3.333-3.327v-0.001c0.002-1.841 1.498-3.339 3.333-3.339h4c1.836 0 3.331 1.498 3.333 3.337-0.005 1.838-1.495 3.327-3.333 3.329h-0z"></path>
</svg>
