<!-- Generated by IcoMoon.io -->
<svg version="1.1" xmlns="http://www.w3.org/2000/svg" width="16" height="16" viewBox="0 0 16 16">
<title>bx-joystick</title>
<path d="M14.653 6.435c-0.126-1.736-1.563-3.096-3.319-3.101h-6.667c-0.004-0-0.010-0-0.015-0-1.775 0-3.224 1.396-3.309 3.15l-0 0.008c-0.007 0.053-0.009 0.107-0.009 0.169v4.34c0 0.617 0.249 1.219 0.681 1.651 0.424 0.421 1.007 0.682 1.652 0.683h0c1.2 0 1.903-0.669 2.793-1.517 0.157-0.151 0.733-0.431 1.027-0.501 0.167-0.039 0.859-0.039 1.026 0 0.293 0.069 0.869 0.35 1.027 0.501 0.891 0.847 1.593 1.517 2.793 1.517 0.617 0 1.219-0.249 1.651-0.681 0.421-0.424 0.682-1.007 0.683-1.652v-4.334c0-0.063-0.003-0.12-0.009-0.173l-0.005-0.059zM13.333 11c0 0.265-0.106 0.523-0.292 0.709-0.182 0.18-0.432 0.291-0.708 0.291h-0c-0.639 0-1.037-0.352-1.873-1.149-0.384-0.367-1.214-0.732-1.64-0.833-0.277-0.066-0.633-0.075-0.82-0.075s-0.543 0.010-0.82 0.075c-0.426 0.101-1.256 0.466-1.639 0.832-0.837 0.798-1.235 1.15-1.874 1.15-0.265 0-0.523-0.106-0.709-0.292-0.18-0.182-0.291-0.432-0.291-0.708v-0l-0.006-4.319c0.007-0.034 0.011-0.069 0.012-0.103 0.041-1.064 0.913-1.911 1.983-1.911 0.004 0 0.008 0 0.011 0h6.666c1.045 0 1.918 0.817 1.987 1.813 0 0.040 0.003 0.080 0.007 0.080 0 0.043-0.002 0.065 0.007 0.107v4.333z"></path>
<path d="M11.333 8.667c0 0.368-0.298 0.667-0.667 0.667s-0.667-0.298-0.667-0.667c0-0.368 0.298-0.667 0.667-0.667s0.667 0.298 0.667 0.667z"></path>
<path d="M12.667 7.333c0 0.368-0.298 0.667-0.667 0.667s-0.667-0.298-0.667-0.667c0-0.368 0.298-0.667 0.667-0.667s0.667 0.298 0.667 0.667z"></path>
<path d="M11.333 6c0 0.368-0.298 0.667-0.667 0.667s-0.667-0.298-0.667-0.667c0-0.368 0.298-0.667 0.667-0.667s0.667 0.298 0.667 0.667z"></path>
<path d="M10 7.333c0 0.368-0.298 0.667-0.667 0.667s-0.667-0.298-0.667-0.667c0-0.368 0.298-0.667 0.667-0.667s0.667 0.298 0.667 0.667z"></path>
<path d="M6.667 7.333c0 0.736-0.597 1.333-1.333 1.333s-1.333-0.597-1.333-1.333c0-0.736 0.597-1.333 1.333-1.333s1.333 0.597 1.333 1.333z"></path>
</svg>
