<svg xmlns="http://www.w3.org/2000/svg" width="24" height="24" viewBox="0 0 24 24"><path d="M12,17c-0.205,0-0.411-0.063-0.586-0.189l-9-6.5C2.154,10.123,2,9.821,2,9.5s0.154-0.623,0.414-0.811l9-6.5 c0.35-0.252,0.822-0.252,1.172,0l9,6.5C21.846,8.877,22,9.179,22,9.5s-0.154,0.623-0.414,0.811l-9,6.5 C12.411,16.937,12.205,17,12,17z M4.708,9.5L12,14.767L19.292,9.5L12,4.233L4.708,9.5z"/><path d="M19.925,14L12,19.764L4.075,14l-1.7,1.236l9.037,6.572C11.587,21.937,11.794,22,12,22s0.413-0.063,0.588-0.191l9.037-6.572 L19.925,14z"/></svg>