<svg xmlns="http://www.w3.org/2000/svg" width="24" height="24"><path d="M6.558 12.762a6.47 6.47 0 0 1 .375-.279c.314-.229.532-.438.651-.629s.179-.391.179-.602a.949.949 0 0 0-.584-.887c-.182-.077-.436-.115-.762-.115-.313 0-.558.04-.735.12a.935.935 0 0 0-.411.349c-.098.15-.164.361-.201.629l.93.078c.026-.194.076-.329.151-.406a.391.391 0 0 1 .291-.114c.114 0 .208.038.284.111a.365.365 0 0 1 .113.269.55.55 0 0 1-.114.309c-.076.106-.25.266-.522.474-.445.339-.749.634-.91.883A1.797 1.797 0 0 0 5 13.75h2.785v-.779h-1.45c.085-.086.159-.157.223-.209zM7.409 17.189a1.093 1.093 0 0 0-.297-.113.983.983 0 0 0 .358-.312.696.696 0 0 0 .118-.396.784.784 0 0 0-.292-.621c-.193-.165-.509-.247-.944-.247-.38 0-.673.075-.88.227-.208.15-.348.368-.42.651l.877.158c.024-.167.07-.284.139-.352a.368.368 0 0 1 .267-.101c.107 0 .19.031.251.093a.335.335 0 0 1 .091.247c0 .107-.04.201-.122.279s-.185.118-.306.118a.849.849 0 0 1-.121-.012l-.048.673c.128-.037.229-.057.301-.057.137 0 .246.043.325.13.08.086.12.208.12.365a.536.536 0 0 1-.124.369.402.402 0 0 1-.311.138.407.407 0 0 1-.293-.109c-.077-.073-.133-.203-.169-.394L5 18.049c.061.212.148.387.261.524.113.141.258.245.433.318.176.074.415.109.719.109.312 0 .563-.049.754-.146.191-.099.338-.236.44-.418.102-.182.152-.369.152-.566a.845.845 0 0 0-.092-.406.732.732 0 0 0-.258-.275zM5.976 6.207V8.5h.938V5h-.768a1.52 1.52 0 0 1-.41.544c-.175.147-.42.273-.736.379v.783c.214-.066.393-.138.535-.212.141-.072.289-.169.441-.287zM10 6h8v2h-8zM10 11h8v2h-8zM10 16h8v2h-8z"/></svg>