<!-- Generated by IcoMoon.io -->
<svg version="1.1" xmlns="http://www.w3.org/2000/svg" width="16" height="16" viewBox="0 0 16 16">
<title>bx-like</title>
<path d="M14 5.333h-4.408l1.041-3.123c0.022-0.063 0.035-0.136 0.035-0.212 0-0.146-0.047-0.281-0.127-0.391l0.001 0.002c-0.123-0.168-0.319-0.277-0.541-0.277h-2c-0.198 0-0.385 0.088-0.513 0.24l-3.133 3.76h-2.354c-0.368 0-0.667 0.298-0.667 0.667v0 7.333c0 0.368 0.298 0.667 0.667 0.667v0h10c0.278 0 0.527-0.173 0.625-0.433l2-5.333c0.027-0.069 0.042-0.149 0.042-0.233 0-0 0-0.001 0-0.001v0-2c0-0.368-0.298-0.667-0.667-0.667v0zM2.667 6.667h1.333v6h-1.333v-6zM13.333 7.879l-1.795 4.787h-6.205v-6.425l2.979-3.575h0.763l-1.041 3.123c-0.022 0.063-0.034 0.135-0.034 0.211 0 0.368 0.298 0.666 0.666 0.667h4.667v1.213z"></path>
</svg>
