<!-- Generated by IcoMoon.io -->
<svg version="1.1" xmlns="http://www.w3.org/2000/svg" width="16" height="16" viewBox="0 0 16 16">
<title>bx-lock</title>
<path d="M8 1.333c-1.838 0-3.333 1.495-3.333 3.333v1.333h-1.333c-0.368 0-0.667 0.298-0.667 0.667v0 7.333c0 0.368 0.298 0.667 0.667 0.667v0h9.333c0.368 0 0.667-0.298 0.667-0.667v0-7.333c0-0.368-0.298-0.667-0.667-0.667v0h-1.333v-1.333c0-1.838-1.495-3.333-3.333-3.333zM6 4.667c0-1.103 0.897-2 2-2s2 0.897 2 2v1.333h-4v-1.333zM12 13.333h-3.333v-1.519c0.397-0.231 0.667-0.657 0.667-1.148 0-0.735-0.598-1.333-1.333-1.333s-1.333 0.598-1.333 1.333c0 0.491 0.27 0.917 0.667 1.148v1.519h-3.333v-6h8v6z"></path>
</svg>
