<svg xmlns="http://www.w3.org/2000/svg" width="24" height="24"><path fill="none" d="M4 10h2v9H4zM12.188 9.584a.999.999 0 0 1-.137-.901L13.612 4h-1.144L8 9.362V19h9.307L20 11.819V10h-7a1 1 0 0 1-.812-.416z"/><path d="M21 8h-6.612l1.561-4.684a.996.996 0 0 0-.137-.901A1.003 1.003 0 0 0 15 2h-3c-.297 0-.578.132-.769.36L6.531 8H3a1 1 0 0 0-1 1v11a1 1 0 0 0 1 1h15c.417 0 .79-.259.937-.649l3-8A1 1 0 0 0 22 12V9a1 1 0 0 0-1-1zM4 10h2v9H4v-9zm16 1.819L17.307 19H8V9.362L12.469 4h1.144l-1.561 4.684A1 1 0 0 0 13 10h7v1.819z"/></svg>