<!-- Generated by IcoMoon.io -->
<svg version="1.1" xmlns="http://www.w3.org/2000/svg" width="16" height="16" viewBox="0 0 16 16">
<title>bx-list-ol</title>
<path d="M4.109 8.45c0.038-0.031 0.111-0.087 0.221-0.165 0.186-0.133 0.314-0.258 0.384-0.371s0.106-0.23 0.106-0.354c0-0.117-0.031-0.223-0.093-0.315-0.061-0.093-0.145-0.164-0.253-0.209-0.107-0.047-0.257-0.069-0.45-0.069-0.184 0-0.329 0.023-0.433 0.070-0.105 0.048-0.185 0.117-0.243 0.207-0.057 0.088-0.097 0.212-0.119 0.371l0.549 0.047c0.015-0.115 0.045-0.195 0.090-0.241 0.044-0.045 0.101-0.067 0.171-0.067 0.067 0 0.123 0.021 0.167 0.067 0.045 0.043 0.067 0.096 0.067 0.158 0 0.056-0.023 0.117-0.067 0.182-0.045 0.063-0.148 0.156-0.309 0.279-0.263 0.201-0.442 0.374-0.537 0.521s-0.153 0.306-0.171 0.471h1.644v-0.459h-0.855c0.049-0.050 0.093-0.093 0.13-0.123z"></path>
<path d="M4.533 10.785c-0.041-0.026-0.099-0.048-0.175-0.068 0.095-0.052 0.165-0.112 0.211-0.183 0.047-0.070 0.069-0.147 0.069-0.235 0-0.147-0.057-0.268-0.172-0.366s-0.301-0.146-0.558-0.146c-0.224 0-0.397 0.044-0.52 0.134-0.123 0.087-0.205 0.216-0.248 0.384l0.517 0.093c0.014-0.099 0.041-0.168 0.082-0.207s0.093-0.060 0.157-0.060c0.063 0 0.112 0.019 0.148 0.055 0.036 0.037 0.054 0.085 0.054 0.146 0 0.064-0.023 0.119-0.071 0.165s-0.108 0.070-0.179 0.070c-0.017 0-0.041-0.003-0.071-0.007l-0.028 0.397c0.075-0.022 0.135-0.034 0.177-0.034 0.081 0 0.145 0.025 0.192 0.077 0.047 0.051 0.071 0.123 0.071 0.216 0 0.090-0.025 0.163-0.073 0.217-0.049 0.053-0.11 0.082-0.184 0.082-0.070 0-0.127-0.022-0.173-0.065s-0.079-0.12-0.099-0.232l-0.548 0.073c0.036 0.125 0.087 0.228 0.154 0.31s0.152 0.145 0.255 0.187c0.103 0.043 0.245 0.064 0.425 0.064 0.184 0 0.332-0.029 0.445-0.086 0.113-0.059 0.199-0.139 0.26-0.247 0.060-0.107 0.090-0.217 0.090-0.333 0-0.094-0.018-0.173-0.055-0.241-0.036-0.066-0.087-0.119-0.153-0.159z"></path>
<path d="M3.959 4.863v1.353h0.554v-2.065h-0.453c-0.058 0.127-0.139 0.235-0.241 0.321-0.103 0.087-0.249 0.161-0.435 0.224v0.462c0.126-0.040 0.231-0.081 0.316-0.125 0.084-0.043 0.17-0.099 0.259-0.169z"></path>
<path d="M6 4.667h6.667v1.333h-6.667v-1.333z"></path>
<path d="M6 7.333h6.667v1.333h-6.667v-1.333z"></path>
<path d="M6 10h6.667v1.333h-6.667v-1.333z"></path>
</svg>
