<!-- Generated by IcoMoon.io -->
<svg version="1.1" xmlns="http://www.w3.org/2000/svg" width="16" height="16" viewBox="0 0 16 16">
<title>bx-left-top-arrow-circle</title>
<path d="M8 1.338c-0.007-0-0.016-0-0.024-0-1.832 0-3.491 0.745-4.689 1.948l-0 0c-2.599 2.599-2.599 6.829 0 9.429 1.257 1.257 2.931 1.949 4.714 1.949s3.457-0.692 4.713-1.949c1.257-1.257 1.949-2.931 1.949-4.714s-0.692-3.458-1.949-4.714c-1.198-1.204-2.857-1.949-4.689-1.949-0.009 0-0.017 0-0.026 0h0.001zM11.771 11.771c-1.005 1.005-2.344 1.558-3.771 1.558s-2.767-0.553-3.771-1.558c-2.079-2.079-2.079-5.463 0-7.543 1.005-1.005 2.344-1.557 3.771-1.557s2.766 0.553 3.771 1.557c1.005 1.005 1.559 2.345 1.559 3.771s-0.553 2.766-1.559 3.771z"></path>
<path d="M9.776 6h-3.776v3.775l1.417-1.416 2.112 2.112 0.943-0.943-2.112-2.112z"></path>
</svg>
