<!-- Generated by IcoMoon.io -->
<svg version="1.1" xmlns="http://www.w3.org/2000/svg" width="16" height="16" viewBox="0 0 16 16">
<title>bx-link</title>
<path d="M5.643 7.529c0.755-0.755 2.073-0.755 2.828 0l0.471 0.471 0.943-0.943-0.471-0.471c-0.629-0.629-1.466-0.977-2.357-0.977s-1.728 0.347-2.357 0.977l-1.415 1.414c-0.602 0.604-0.974 1.437-0.974 2.357s0.372 1.753 0.974 2.357l-0-0c0.601 0.602 1.433 0.975 2.351 0.975 0.002 0 0.004 0 0.006 0h-0c0.002 0 0.004 0 0.007 0 0.918 0 1.749-0.373 2.35-0.975l0.471-0.471-0.943-0.943-0.471 0.471c-0.362 0.361-0.862 0.584-1.414 0.584s-1.052-0.223-1.414-0.584l0 0c-0.361-0.362-0.585-0.862-0.585-1.414s0.223-1.052 0.585-1.414l1.415-1.414z"></path>
<path d="M11.299 9.414l1.415-1.414c0.602-0.604 0.974-1.437 0.974-2.357s-0.372-1.753-0.974-2.357l0 0c-0.604-0.602-1.437-0.975-2.357-0.975s-1.753 0.372-2.357 0.975l-0.471 0.471 0.943 0.943 0.471-0.471c0.362-0.361 0.862-0.584 1.414-0.584s1.052 0.223 1.414 0.584l-0-0c0.361 0.362 0.585 0.862 0.585 1.414s-0.223 1.052-0.585 1.414l-1.415 1.414c-0.755 0.755-2.073 0.755-2.828 0l-0.471-0.471-0.943 0.943 0.471 0.471c0.629 0.629 1.466 0.977 2.357 0.977s1.728-0.347 2.357-0.977z"></path>
</svg>
