<!-- Generated by IcoMoon.io -->
<svg version="1.1" xmlns="http://www.w3.org/2000/svg" width="16" height="16" viewBox="0 0 16 16">
<title>bx-left-bottom-arrow-circle</title>
<path d="M8 1.337c-0.007-0-0.015-0-0.024-0-1.833 0-3.492 0.745-4.69 1.949l-0 0c-2.599 2.599-2.599 6.828 0 9.428 1.257 1.257 2.931 1.949 4.714 1.949s3.458-0.692 4.714-1.949c2.599-2.599 2.599-6.829 0-9.428-1.199-1.204-2.857-1.949-4.69-1.949-0.008 0-0.017 0-0.025 0h0.001zM11.771 11.771c-1.005 1.005-2.344 1.558-3.771 1.558s-2.767-0.553-3.771-1.558c-2.079-2.079-2.079-5.463 0-7.542 1.005-1.005 2.344-1.559 3.771-1.559s2.766 0.553 3.771 1.559c2.079 2.079 2.079 5.463 0 7.542z"></path>
<path d="M9.529 5.529l-2.112 2.112-1.417-1.417v3.776h3.775l-1.416-1.417 2.112-2.112z"></path>
</svg>
