<svg xmlns="http://www.w3.org/2000/svg" width="24" height="24"><path fill="none" d="M15 7c0-1.654-1.346-3-3-3S9 5.346 9 7v2h6V7zM6 20h5v-2.278c-.595-.347-1-.985-1-1.722 0-1.103.897-2 2-2s2 .897 2 2c0 .736-.405 1.375-1 1.722V20h5v-9H6v9z"/><path d="M12 2C9.243 2 7 4.243 7 7v2H5a1 1 0 0 0-1 1v11a1 1 0 0 0 1 1h14a1 1 0 0 0 1-1V10a1 1 0 0 0-1-1h-2V7c0-2.757-2.243-5-5-5zM9 7c0-1.654 1.346-3 3-3s3 1.346 3 3v2H9V7zm9 13h-5v-2.278c.595-.347 1-.985 1-1.722 0-1.103-.897-2-2-2s-2 .897-2 2c0 .736.405 1.375 1 1.722V20H6v-9h12v9z"/></svg>