<svg xmlns="http://www.w3.org/2000/svg" width="24" height="24" viewBox="0 0 24 24"><path fill="none" d="M8 14V8H6v6c0 3.309 2.691 6 6 6s6-2.691 6-6V8h-2v6c0 2.206-1.794 4-4 4S8 16.206 8 14zM6 4H8V6H6zM16 4H18V6H16z"/><path d="M10,3c0-0.553-0.447-1-1-1H5C4.447,2,4,2.447,4,3v4v7c0,4.411,3.589,8,8,8s8-3.589,8-8V7V3c0-0.553-0.447-1-1-1h-4 c-0.553,0-1,0.447-1,1v4v7c0,1.103-0.897,2-2,2s-2-0.897-2-2V7V3z M6,4h2v2H6V4z M16,4h2v2h-2V4z M12,18c2.206,0,4-1.794,4-4V8h2 v6c0,3.309-2.691,6-6,6s-6-2.691-6-6V8h2v6C8,16.206,9.794,18,12,18z"/></svg>