<svg xmlns="http://www.w3.org/2000/svg" width="24" height="24"><path fill="none" d="M13.685 8.729l1.605 1.567L18.586 7 17 5.414z"/><path d="M11 4l-.5-1-.5 1-1 .125.834.708L9.5 6l1-.666 1 .666-.334-1.167.834-.708zM18.5 13l-.834 1.666-1.666.209 1.389 1.181L16.834 18l1.666-1.111L20.166 18l-.555-1.944L21 14.875l-1.666-.209zM6.667 6.333L6 5l-.667 1.333L4 6.5l1.111.944L4.667 9 6 8.111 7.333 9l-.444-1.556L8 6.5zM17.707 3.293a.999.999 0 0 0-1.414 0l-13 13a.999.999 0 0 0 0 1.414l3 3a.997.997 0 0 0 1.414 0l13-13a.999.999 0 0 0 0-1.414l-3-3zm-2.417 7.003L13.685 8.73 17 5.414 18.586 7l-3.296 3.296z"/></svg>