<!-- Generated by IcoMoon.io -->
<svg version="1.1" xmlns="http://www.w3.org/2000/svg" width="16" height="16" viewBox="0 0 16 16">
<title>bx-microphone</title>
<path d="M7.875 1.336c-1.417 0.071-2.539 1.236-2.541 2.664v4c0 1.471 1.196 2.667 2.667 2.667s2.667-1.196 2.667-2.667v-4c0-1.478-1.19-2.681-2.653-2.681-0.047 0-0.093 0.006-0.139 0.017zM9.333 4v4c0 0.735-0.598 1.333-1.333 1.333s-1.333-0.598-1.333-1.333v-4c0-0.735 0.598-1.333 1.333-1.333 0 0 0 0 0 0 0.038 0 0.076-0.004 0.112-0.011l-0.004 0.001c0.683 0.050 1.225 0.633 1.225 1.343z"></path>
<path d="M7.333 13.287v1.379h1.333v-1.379c2.626-0.33 4.667-2.572 4.667-5.287h-1.333c0 2.206-1.794 4-4 4s-4-1.794-4-4h-1.333c0 2.715 2.041 4.957 4.667 5.287z"></path>
</svg>
