<!-- Generated by IcoMoon.io -->
<svg version="1.1" xmlns="http://www.w3.org/2000/svg" width="16" height="16" viewBox="0 0 16 16">
<title>bx-movie</title>
<path d="M2 14h12c0.368 0 0.667-0.298 0.667-0.667v0-10c0-0.368-0.298-0.667-0.667-0.667v0h-12c-0.368 0-0.667 0.298-0.667 0.667v0 10c0 0.368 0.298 0.667 0.667 0.667v0zM13.333 12.667h-10.667v-4.667h10.667v4.667zM9.69 6.667l-1.778-2.667h1.731l1.778 2.667h-1.731zM8.088 6.667h-1.731l-1.778-2.667h1.731l1.778 2.667zM13.333 6.667h-0.31l-1.778-2.667h2.088v2.667zM2.977 4l1.778 2.667h-2.088v-2.667h0.31z"></path>
</svg>
