<!-- Generated by IcoMoon.io -->
<svg version="1.1" xmlns="http://www.w3.org/2000/svg" width="16" height="16" viewBox="0 0 16 16">
<title>bx-map-alt</title>
<path d="M14.298 4.737l-4-2c-0.087-0.044-0.19-0.070-0.298-0.070s-0.211 0.026-0.302 0.072l0.004-0.002-3.701 1.851-3.702-1.851c-0.087-0.045-0.19-0.071-0.299-0.071-0.367 0-0.665 0.298-0.665 0.665 0 0.001 0 0.002 0 0.003v-0 7.333c0 0.253 0.143 0.483 0.369 0.597l4 2c0.087 0.044 0.19 0.070 0.298 0.070s0.211-0.026 0.302-0.072l-0.004 0.002 3.701-1.851 3.702 1.851c0.087 0.045 0.19 0.071 0.299 0.071 0.129 0 0.25-0.037 0.352-0.101l-0.003 0.002c0.197-0.122 0.317-0.336 0.317-0.567v-7.333c0-0.253-0.143-0.483-0.369-0.597zM6.667 5.745l2.667-1.333v5.843l-2.667 1.333v-5.843zM2.667 4.412l2.667 1.333v5.843l-2.667-1.333v-5.843zM13.333 11.588l-2.667-1.333v-5.843l2.667 1.333v5.843z"></path>
</svg>
