<svg xmlns="http://www.w3.org/2000/svg" width="24" height="24"><path fill="none" d="M18 18.5v-.061A1.505 1.505 0 0 0 16.5 17c-.831 0-1.507.676-1.507 1.507s.676 1.507 1.507 1.507 1.507-.676 1.507-1.507l-.001-.007H18zM9 14.5v-.074a1.505 1.505 0 0 0-3.007.068 1.508 1.508 0 0 0 3.013.006H9z"/><path d="M16.5 15c-1.934 0-3.507 1.573-3.507 3.507s1.573 3.507 3.507 3.507 3.507-1.573 3.507-3.507c0-.023-.007-.045-.007-.067V8a.999.999 0 0 0-.515-.874l-9-5A1 1 0 0 0 9 3v8.336a3.467 3.467 0 0 0-1.5-.35c-1.934 0-3.507 1.573-3.507 3.507S5.566 18 7.5 18s3.507-1.573 3.507-3.507c0-.023-.007-.045-.007-.067V4.699l7 3.89v6.761a3.467 3.467 0 0 0-1.5-.35zm-9 1c-.831 0-1.507-.676-1.507-1.507s.676-1.507 1.507-1.507c.808 0 1.464.641 1.5 1.439v.075h.006A1.508 1.508 0 0 1 7.5 16zm9 4.014c-.831 0-1.507-.676-1.507-1.507S15.669 17 16.5 17c.808 0 1.464.641 1.5 1.439v.061h.006l.001.007c0 .831-.676 1.507-1.507 1.507z"/></svg>