<!-- Generated by IcoMoon.io -->
<svg version="1.1" xmlns="http://www.w3.org/2000/svg" width="16" height="16" viewBox="0 0 16 16">
<title>bx-microphone-off</title>
<path d="M14.471 13.529l-2.259-2.259c0.698-0.888 1.12-2.023 1.121-3.256v-0h-1.333c-0.001 0.865-0.278 1.664-0.747 2.316l0.008-0.012-0.968-0.968c0.232-0.394 0.374-0.847 0.374-1.336v-4c0-1.478-1.19-2.681-2.653-2.681-0.047 0-0.093 0.006-0.139 0.017-1.417 0.070-2.54 1.236-2.541 2.664v0.377l-2.862-2.862-0.943 0.943 12 12 0.943-0.943zM6.667 4.014c0-0.735 0.598-1.333 1.333-1.333 0.039-0 0.076-0.004 0.113-0.011l-0.004 0.001c0.683 0.049 1.224 0.633 1.224 1.343v4c0 0.115-0.019 0.223-0.047 0.329l-2.619-2.619v-1.71zM4 8.014h-1.333c0 2.715 2.040 4.957 4.667 5.287v1.379h1.333v-1.38c0.549-0.070 1.049-0.213 1.512-0.421l-0.034 0.014-1.039-1.039c-0.331 0.1-0.712 0.158-1.106 0.159h-0c-2.206 0-4-1.795-4-4z"></path>
<path d="M5.341 8.088c0.042 1.41 1.174 2.543 2.581 2.585l0.004 0-2.585-2.585z"></path>
</svg>
