<svg xmlns="http://www.w3.org/2000/svg" width="24" height="24"><path fill="none" d="M12 17l-1-2v-2H5.781l-1.5 6h15.438l-1.5-6H13v2z"/><circle fill="none" cx="12" cy="5.5" r="1.5"/><path d="M5 11c-.459 0-.858.313-.97.758l-2 8A.998.998 0 0 0 3 21h18a.998.998 0 0 0 .97-1.242l-2-8A1.001 1.001 0 0 0 19 11h-6V8.837c1.44-.434 2.5-1.757 2.5-3.337C15.5 3.57 13.93 2 12 2S8.5 3.57 8.5 5.5c0 1.58 1.06 2.903 2.5 3.337V11H5zm5.5-5.5c0-.827.673-1.5 1.5-1.5s1.5.673 1.5 1.5S12.827 7 12 7s-1.5-.673-1.5-1.5zm7.719 7.5l1.5 6H4.281l1.5-6H11v2l1 2 1-2v-2h5.219z"/></svg>