<!-- Generated by IcoMoon.io -->
<svg version="1.1" xmlns="http://www.w3.org/2000/svg" width="16" height="16" viewBox="0 0 16 16">
<title>bx-message</title>
<path d="M2 11.333h2.667v2.667c0 0 0 0.001 0 0.001 0 0.368 0.298 0.666 0.666 0.666 0.184 0 0.351-0.075 0.472-0.196l3.138-3.138h5.057c0.368 0 0.667-0.298 0.667-0.667v0-7.333c0-0.368-0.298-0.667-0.667-0.667v0h-12c-0.368 0-0.667 0.298-0.667 0.667v0 7.333c0 0.368 0.298 0.667 0.667 0.667v0zM2.667 4h10.667v6h-4.667c-0 0-0.001 0-0.001 0-0.184 0-0.35 0.075-0.47 0.195l-2.195 2.195v-1.724c0-0.368-0.298-0.667-0.667-0.667v0h-2.667v-6z"></path>
</svg>
