<!-- Generated by IcoMoon.io -->
<svg version="1.1" xmlns="http://www.w3.org/2000/svg" width="16" height="16" viewBox="0 0 16 16">
<title>bx-message-rounded</title>
<path d="M8 2c-3.676 0-6.667 2.243-6.667 5 0 1.828 1.321 3.569 3.333 4.452v2.548c0 0 0 0.001 0 0.001 0 0.368 0.298 0.666 0.666 0.666 0.184 0 0.351-0.075 0.472-0.196l2.476-2.476c3.546-0.111 6.386-2.309 6.386-4.995 0-2.757-2.991-5-6.667-5zM8 10.667c-0 0-0.001 0-0.001 0-0.184 0-0.35 0.075-0.47 0.195l-1.529 1.529v-1.391c-0-0.287-0.182-0.532-0.437-0.626l-0.005-0.001c-1.729-0.62-2.891-1.975-2.891-3.373 0-2.021 2.393-3.667 5.333-3.667s5.333 1.645 5.333 3.667-2.393 3.667-5.333 3.667z"></path>
</svg>
