<svg xmlns="http://www.w3.org/2000/svg" width="24" height="24"><path fill="none" d="M12 5c-4.411 0-8 2.468-8 5.5 0 2.096 1.743 4.129 4.337 5.059A1 1 0 0 1 9 16.5v2.086l2.293-2.293A.996.996 0 0 1 12 16c4.411 0 8-2.468 8-5.5S16.411 5 12 5z"/><path d="M12 3C6.486 3 2 6.364 2 10.5c0 2.742 1.982 5.354 5 6.678V21a.999.999 0 0 0 1.707.707l3.714-3.714C17.74 17.827 22 14.529 22 10.5 22 6.364 17.514 3 12 3zm0 13a.996.996 0 0 0-.707.293L9 18.586V16.5a1 1 0 0 0-.663-.941C5.743 14.629 4 12.596 4 10.5 4 7.468 7.589 5 12 5s8 2.468 8 5.5-3.589 5.5-8 5.5z"/></svg>