<!-- Generated by IcoMoon.io -->
<svg version="1.1" xmlns="http://www.w3.org/2000/svg" width="16" height="16" viewBox="0 0 16 16">
<title>bx-music</title>
<path d="M11 10c-1.289 0-2.338 1.049-2.338 2.338s1.049 2.338 2.338 2.338 2.338-1.049 2.338-2.338c0-0.015-0.005-0.030-0.005-0.045v-6.96c0-0 0-0 0-0 0-0.249-0.137-0.467-0.34-0.581l-0.003-0.002-6-3.333c-0.093-0.053-0.205-0.084-0.323-0.084-0.368 0-0.666 0.298-0.667 0.666v5.557c-0.292-0.145-0.636-0.231-0.999-0.233h-0.001c-1.289 0-2.338 1.049-2.338 2.338s1.049 2.338 2.338 2.338 2.338-1.049 2.338-2.338c0-0.015-0.005-0.030-0.005-0.045v-6.485l4.667 2.593v4.507c-0.292-0.145-0.636-0.231-0.999-0.233h-0.001zM5 10.667c-0.554 0-1.005-0.451-1.005-1.005s0.451-1.005 1.005-1.005c0.539 0 0.976 0.427 1 0.959v0.050h0.004c-0.003 0.552-0.451 0.999-1.004 1h-0zM11 13.343c-0.554 0-1.005-0.451-1.005-1.005s0.451-1.005 1.005-1.005c0.539 0 0.976 0.427 1 0.959v0.041h0.004l0.001 0.005c0 0.554-0.451 1.005-1.005 1.005z"></path>
</svg>
