<!-- Generated by IcoMoon.io -->
<svg version="1.1" xmlns="http://www.w3.org/2000/svg" width="16" height="16" viewBox="0 0 16 16">
<title>bx-moon</title>
<path d="M8 13.362c2.545 0 4.731-1.589 5.313-3.863 0.013-0.050 0.021-0.107 0.021-0.165 0-0.368-0.298-0.667-0.667-0.667-0 0-0 0-0 0h0c-2.578 0-5.333-1.401-5.333-5.333 0-0 0-0 0-0 0-0.368-0.298-0.667-0.667-0.667-0.061 0-0.119 0.008-0.175 0.023l0.005-0.001c-2.219 0.589-3.829 2.835-3.829 5.34 0 2.941 2.393 5.333 5.333 5.333zM6.052 4.299c0.352 3.187 2.47 5.302 5.659 5.651-0.68 1.241-2.121 2.079-3.711 2.079-2.206 0-4-1.794-4-4 0-1.591 0.827-3.038 2.052-3.73z"></path>
</svg>
