<!-- Generated by IcoMoon.io -->
<svg version="1.1" xmlns="http://www.w3.org/2000/svg" width="16" height="16" viewBox="0 0 16 16">
<title>bx-mouse</title>
<path d="M7.983 14.667h0.017c2.573 0 4.667-2.093 4.667-4.667v-4c0-2.561-2.085-4.649-4.654-4.667h-0.040c-2.56 0.015-4.639 2.105-4.639 4.667v4c0 2.573 2.086 4.667 4.65 4.667zM4.667 6c0.003-1.836 1.488-3.325 3.323-3.333h0.001c1.843 0.004 3.343 1.499 3.343 3.333v4c0 1.838-1.495 3.333-3.333 3.333h-0.017c-1.859 0-3.317-1.464-3.317-3.333v-4z"></path>
<path d="M7.333 4h1.333v4h-1.333z"></path>
</svg>
