<svg xmlns="http://www.w3.org/2000/svg" width="24" height="24"><circle fill="none" cx="12" cy="10" r="2"/><path fill="none" d="M12 19.735c1.612-1.308 6.021-5.293 6-9.73C18 6.691 15.309 4 12 4s-6 2.691-6 6c-.021 4.441 4.389 8.427 6 9.735zM12 6c2.206 0 4 1.794 4 4s-1.794 4-4 4-4-1.794-4-4 1.794-4 4-4z"/><path d="M12 14c2.206 0 4-1.794 4-4s-1.794-4-4-4-4 1.794-4 4 1.794 4 4 4zm0-6c1.103 0 2 .897 2 2s-.897 2-2 2-2-.897-2-2 .897-2 2-2z"/><path d="M11.42 21.814a.998.998 0 0 0 1.16 0C12.884 21.599 20.029 16.44 20 10c0-4.411-3.589-8-8-8S4 5.589 4 9.995c-.029 6.445 7.116 11.604 7.42 11.819zM12 4c3.309 0 6 2.691 6 6.005.021 4.438-4.388 8.423-6 9.73-1.611-1.308-6.021-5.294-6-9.735 0-3.309 2.691-6 6-6z"/></svg>