<!-- Generated by IcoMoon.io -->
<svg version="1.1" xmlns="http://www.w3.org/2000/svg" width="16" height="16" viewBox="0 0 16 16">
<title>bx-microphone-alt</title>
<path d="M13.333 8h-1.333c0 2.206-1.794 4-4 4s-4-1.794-4-4h-1.333c0 2.715 2.041 4.957 4.667 5.287v1.379h1.333v-1.379c2.626-0.33 4.667-2.573 4.667-5.287z"></path>
<path d="M9.333 6.667h1.333v-1.333h-1.333v-1.333h1.333c0-1.478-1.19-2.681-2.653-2.681-0.050 0-0.098 0.006-0.144 0.018l0.004-0.001c-1.417 0.071-2.539 1.236-2.541 2.664v0h2.667v1.333h-2.667v1.333h2.667v1.333h-2.667c0 1.471 1.196 2.667 2.667 2.667s2.667-1.196 2.667-2.667h-1.333v-1.333z"></path>
</svg>
