<svg xmlns="http://www.w3.org/2000/svg" width="24" height="24" viewBox="0 0 24 24"><path d="M9.5 6L10.5 5.334 11.5 6 11.166 4.833 12 4.125 11 4 10.5 3 10 4 9 4.125 9.834 4.833zM19.334 14.666L18.5 13 17.666 14.666 16 14.875 17.389 16.056 16.834 18 18.5 16.889 20.166 18 19.611 16.056 21 14.875zM4.667 9L6 8.111 7.333 9 6.889 7.444 8 6.5 6.667 6.333 6 5 5.333 6.333 4 6.5 5.111 7.444zM20.707 6.293l-3-3c-.391-.391-1.023-.391-1.414 0l-13 13c-.391.391-.391 1.023 0 1.414l3 3C6.488 20.902 6.744 21 7 21s.512-.098.707-.293l13-13C21.098 7.316 21.098 6.684 20.707 6.293zM7 18.586L5.414 17 12 10.414 13.586 12 7 18.586zM15 10.586L13.414 9 17 5.414 18.586 7 15 10.586z"/></svg>