<!-- Generated by IcoMoon.io -->
<svg version="1.1" xmlns="http://www.w3.org/2000/svg" width="16" height="16" viewBox="0 0 16 16">
<title>bx-magnet</title>
<path d="M12.667 1.333h-2.667c-0.369 0-0.667 0.298-0.667 0.667v7.333c0 0.735-0.598 1.333-1.333 1.333s-1.333-0.598-1.333-1.333v-7.333c0-0.369-0.298-0.667-0.667-0.667h-2.667c-0.369 0-0.667 0.298-0.667 0.667v7.333c0 2.941 2.393 5.333 5.333 5.333s5.333-2.393 5.333-5.333v-7.333c0-0.369-0.298-0.667-0.667-0.667zM10.667 2.667h1.333v1.333h-1.333v-1.333zM4 2.667h1.333v1.333h-1.333v-1.333zM12 9.333c0 2.206-1.794 4-4 4s-4-1.794-4-4v-4h1.333v4c0 1.471 1.196 2.667 2.667 2.667s2.667-1.196 2.667-2.667v-4h1.333v4z"></path>
</svg>
