<!-- Generated by IcoMoon.io -->
<svg version="1.1" xmlns="http://www.w3.org/2000/svg" width="16" height="16" viewBox="0 0 16 16">
<title>bx-map-pin</title>
<path d="M3.333 7.333c-0.306 0-0.572 0.209-0.647 0.505l-1.333 5.333c-0.013 0.049-0.020 0.105-0.020 0.163 0 0.367 0.298 0.665 0.665 0.665 0.001 0 0.001 0 0.002 0h12c0 0 0.001 0 0.002 0 0.367 0 0.665-0.298 0.665-0.665 0-0.058-0.007-0.114-0.021-0.167l0.001 0.005-1.333-5.333c-0.075-0.292-0.336-0.505-0.647-0.505h-4v-1.442c0.96-0.289 1.667-1.171 1.667-2.225 0-1.287-1.047-2.333-2.333-2.333s-2.333 1.047-2.333 2.333c0 1.053 0.707 1.935 1.667 2.225v1.442h-4zM7 3.667c0-0.551 0.449-1 1-1s1 0.449 1 1-0.449 1-1 1-1-0.449-1-1zM12.146 8.667l1 4h-10.292l1-4h3.479v1.333l0.667 1.333 0.667-1.333v-1.333h3.479z"></path>
</svg>
