<!-- Generated by IcoMoon.io -->
<svg version="1.1" xmlns="http://www.w3.org/2000/svg" width="16" height="16" viewBox="0 0 16 16">
<title>bx-map</title>
<path d="M8 9.333c1.471 0 2.667-1.196 2.667-2.667s-1.196-2.667-2.667-2.667-2.667 1.196-2.667 2.667 1.196 2.667 2.667 2.667zM8 5.333c0.735 0 1.333 0.598 1.333 1.333s-0.598 1.333-1.333 1.333-1.333-0.598-1.333-1.333 0.598-1.333 1.333-1.333z"></path>
<path d="M7.613 14.543c0.107 0.077 0.242 0.124 0.387 0.124s0.279-0.046 0.389-0.125l-0.002 0.001c0.203-0.143 4.966-3.583 4.947-7.876 0-2.941-2.393-5.333-5.333-5.333s-5.333 2.393-5.333 5.33c-0.019 4.297 4.744 7.736 4.947 7.879zM8 2.667c2.206 0 4 1.794 4 4.003 0.014 2.959-2.925 5.615-4 6.487-1.074-0.872-4.014-3.529-4-6.49 0-2.206 1.794-4 4-4z"></path>
</svg>
