<!-- Generated by IcoMoon.io -->
<svg version="1.1" xmlns="http://www.w3.org/2000/svg" width="16" height="16" viewBox="0 0 16 16">
<title>bx-magic-wand</title>
<path d="M7.333 2.667l-0.333-0.667-0.333 0.667-0.667 0.083 0.556 0.472-0.223 0.778 0.667-0.444 0.667 0.444-0.223-0.778 0.556-0.472zM12.333 8.667l-0.556 1.111-1.111 0.139 0.926 0.787-0.37 1.296 1.111-0.741 1.111 0.741-0.37-1.296 0.926-0.787-1.111-0.139zM4.445 4.222l-0.445-0.889-0.445 0.889-0.889 0.111 0.741 0.629-0.296 1.037 0.889-0.593 0.889 0.593-0.296-1.037 0.741-0.629zM11.805 2.195c-0.121-0.121-0.287-0.195-0.471-0.195s-0.351 0.075-0.471 0.195l-8.667 8.667c-0.121 0.121-0.195 0.287-0.195 0.471s0.075 0.351 0.195 0.471l2 2c0.12 0.121 0.287 0.196 0.471 0.196s0.351-0.075 0.471-0.196l8.667-8.667c0.121-0.121 0.195-0.287 0.195-0.471s-0.075-0.351-0.195-0.471l-2-2zM10.193 6.864l-1.070-1.044 2.21-2.211 1.057 1.057-2.197 2.197z"></path>
</svg>
