<!-- Generated by IcoMoon.io -->
<svg version="1.1" xmlns="http://www.w3.org/2000/svg" width="16" height="16" viewBox="0 0 16 16">
<title>bx-message-alt</title>
<path d="M14 2.667h-12c-0.368 0-0.667 0.298-0.667 0.667v0 7.333c0 0.368 0.298 0.667 0.667 0.667v0h3.013l2.466 3.083c0.123 0.153 0.311 0.25 0.521 0.25s0.397-0.097 0.52-0.249l0.001-0.001 2.466-3.083h3.013c0.368 0 0.667-0.298 0.667-0.667v0-7.333c0-0.368-0.298-0.667-0.667-0.667v0zM13.333 10h-2.667c-0 0-0 0-0 0-0.21 0-0.397 0.097-0.519 0.249l-0.001 0.001-2.146 2.683-2.146-2.683c-0.123-0.153-0.31-0.25-0.52-0.25-0 0-0 0-0 0h-2.667v-6h10.667v6z"></path>
</svg>
