<svg xmlns="http://www.w3.org/2000/svg" width="24" height="24"><path fill="none" d="M11.555 14.832a1.004 1.004 0 0 1-1.027.05A1 1 0 0 1 10 14V7a1 1 0 0 1 1-1h5V4H6v13h10v-4h-1.697l-2.748 1.832z"/><path fill="none" d="M12 12.132l1.445-.964c.164-.109.358-.168.555-.168h6V8h-8v4.132zM12 19.001a1 1 0 1 0-1.005.999h.01a.998.998 0 0 0 .995-.999z"/><path d="M21 6h-3V3a1 1 0 0 0-1-1H5a1 1 0 0 0-1 1v18a1 1 0 0 0 1 1h12a1 1 0 0 0 1-1v-8h3a1 1 0 0 0 1-1V7a1 1 0 0 0-1-1zM10 19.001a1 1 0 1 1 1.005.999h-.01a.998.998 0 0 1-.995-.999zM16 17H6V4h10v2h-5a1 1 0 0 0-1 1v7a1 1 0 0 0 1.555.832L14.303 13H16v4zm4-6h-6c-.197 0-.391.059-.555.168L12 12.132V8h8v3z"/></svg>