<!-- Generated by IcoMoon.io -->
<svg version="1.1" xmlns="http://www.w3.org/2000/svg" width="16" height="16" viewBox="0 0 16 16">
<title>bx-notes</title>
<path d="M14 1.333h-9.333c-0.369 0-0.667 0.299-0.667 0.667v9.333c0 0.368 0.298 0.667 0.667 0.667h5.333c0.087 0 0.173-0.017 0.254-0.051s0.155-0.082 0.217-0.145l4-4c0.057-0.057 0.098-0.125 0.131-0.195 0.009-0.020 0.015-0.041 0.022-0.062 0.019-0.056 0.031-0.113 0.034-0.173 0.001-0.014 0.009-0.027 0.009-0.041v-5.333c0-0.368-0.298-0.667-0.667-0.667zM5.333 2.667h8v4h-3.333c-0.369 0-0.667 0.299-0.667 0.667v3.333h-4v-8zM10.667 9.724v-1.724h1.724l-1.724 1.724z"></path>
<path d="M6.667 4h5.333v1.333h-5.333v-1.333z"></path>
<path d="M6.667 6.667h1.333v1.333h-1.333v-1.333z"></path>
<path d="M2.667 5.333h-1.333v8.667c0 0.368 0.298 0.667 0.667 0.667h8.667v-1.333h-8v-8z"></path>
</svg>
