<!-- Generated by IcoMoon.io -->
<svg version="1.1" xmlns="http://www.w3.org/2000/svg" width="16" height="16" viewBox="0 0 16 16">
<title>bx-newsletter</title>
<path d="M14.47 4.863l0.001-0.001-1.138-1.138v-1.724c0-0.368-0.298-0.667-0.667-0.667v0h-9.333c-0.368 0-0.667 0.298-0.667 0.667v0 1.724l-1.138 1.138 0.001 0.001c-0.121 0.12-0.196 0.286-0.197 0.47v7.333c0 0.368 0.298 0.667 0.667 0.667v0h12c0.368 0 0.667-0.298 0.667-0.667v0-7.333c0-0.18-0.073-0.347-0.197-0.47zM12 2.667v3.199l-4 2.667-4-2.667v-3.199h8zM13.333 12h-10.667v-5.421l4.963 3.309c0.104 0.070 0.232 0.113 0.37 0.113s0.266-0.042 0.372-0.114l-0.002 0.001 4.964-3.309v5.421z"></path>
<path d="M8 4h2.667v1.333h-2.667zM5.333 4h1.333v1.333h-1.333z"></path>
</svg>
