<!-- Generated by IcoMoon.io -->
<svg version="1.1" xmlns="http://www.w3.org/2000/svg" width="16" height="16" viewBox="0 0 16 16">
<title>bx-news</title>
<path d="M13.333 2h-10.667c-0.368 0-0.667 0.298-0.667 0.667v0 10.667c0 0.368 0.298 0.667 0.667 0.667v0h10.667c0.368 0 0.667-0.298 0.667-0.667v0-10.667c0-0.368-0.298-0.667-0.667-0.667v0zM12.667 12.667h-9.333v-9.333h9.333v9.333z"></path>
<path d="M4.667 4.667h6.667v1.333h-6.667zM4.667 10h2.667v1.333h-2.667zM8.667 10h2.667v1.333h-2.667zM4.667 7.333h2.667v1.333h-2.667zM8.667 7.333h2.667v1.333h-2.667z"></path>
</svg>
