<!-- Generated by IcoMoon.io -->
<svg version="1.1" xmlns="http://www.w3.org/2000/svg" width="16" height="16" viewBox="0 0 16 16">
<title>bx-navigation</title>
<path d="M1.336 6.611c-0.002 0.017-0.002 0.036-0.002 0.056 0 0.249 0.137 0.467 0.34 0.581l0.003 0.002 4.547 2.527 2.527 4.547c0.116 0.207 0.333 0.344 0.583 0.344 0.289 0 0.535-0.184 0.627-0.441l0.001-0.005 4-11.333c0.024-0.066 0.038-0.142 0.038-0.221 0-0.369-0.299-0.667-0.667-0.667-0.079 0-0.155 0.014-0.226 0.039l0.005-0.001-11.333 4c-0.244 0.088-0.419 0.307-0.442 0.57l-0 0.002zM12.241 3.759l-3.043 8.623-1.338-2.407 2.141-3.976-3.975 2.141-2.407-1.338 8.623-3.043z"></path>
</svg>
