<svg xmlns="http://www.w3.org/2000/svg" width="24" height="24"><path fill="none" d="M8 4h8v2H8zM8 15v5h8v-5z"/><path fill="none" d="M16 8H4v8h2v-2a1 1 0 0 1 1-1h10a1 1 0 0 1 1 1v2h2V8h-4zm0 4h-2v-2h2v2zm3 0h-2v-2h2v2z"/><path d="M21 6h-3V3a1 1 0 0 0-1-1H7a1 1 0 0 0-1 1v3H3a1 1 0 0 0-1 1v10a1 1 0 0 0 1 1h3v3a1 1 0 0 0 1 1h10a1 1 0 0 0 1-1v-3h3a1 1 0 0 0 1-1V7a1 1 0 0 0-1-1zM8 4h8v2H8V4zm8 16H8v-5h8v5zm4-4h-2v-2a1 1 0 0 0-1-1H7a1 1 0 0 0-1 1v2H4V8h16v8z"/><path d="M17 10h2v2h-2zM14 10h2v2h-2z"/></svg>