<svg xmlns="http://www.w3.org/2000/svg" width="24" height="24" viewBox="0 0 24 24"><path d="M10.707 7.293l-4-4a.999.999 0 0 0-1.414 0l-3 3a1.007 1.007 0 0 0-.292.649c-.014.25-.301 6.172 4.292 10.765 3.988 3.988 8.99 4.299 10.428 4.299.219 0 .337-.008.337-.008.243-.015.478-.118.649-.291l3-3a.999.999 0 0 0 0-1.414l-4-4a.999.999 0 0 0-1.414 0l-1.594 1.594c-.739-.22-2.119-.72-2.992-1.594s-1.374-2.253-1.594-2.992l1.594-1.594a.999.999 0 0 0 0-1.414zm-1.414 7.414c1.66 1.66 4.387 2.247 4.502 2.271a.994.994 0 0 0 .912-.271L16 15.414 18.586 18l-2.005 2.005c-1.401-.021-5.548-.387-8.874-3.712-3.342-3.343-3.685-7.622-3.71-8.876L6 5.414 8.586 8 7.293 9.293a.996.996 0 0 0-.271.912c.023.115.611 2.842 2.271 4.502z"/><path d="M20.293 2.293l-5.172 5.172L13 5.344V11h5.656l-2.121-2.121 5.172-5.172z"/></svg>