<!-- Generated by IcoMoon.io -->
<svg version="1.1" xmlns="http://www.w3.org/2000/svg" width="16" height="16" viewBox="0 0 16 16">
<title>bx-pin</title>
<path d="M12 4.667v-2.667c0-0.368-0.298-0.667-0.667-0.667v0h-6.667c-0.368 0-0.667 0.298-0.667 0.667v0 2.667c0 0.368 0.298 0.667 0.667 0.667v0 2.391l-1.138 1.138c-0.121 0.12-0.195 0.287-0.195 0.47 0 0 0 0.001 0 0.001v-0 1.333c0 0.368 0.298 0.667 0.667 0.667v0h3.333v2l0.667 1.333 0.667-1.333v-2h3.333c0.368 0 0.667-0.298 0.667-0.667v0-1.333c0-0 0-0.001 0-0.001 0-0.184-0.075-0.35-0.195-0.47l-1.138-1.138v-2.391c0.368 0 0.667-0.298 0.667-0.667v0zM5.333 2.667h5.333v1.333h-5.333v-1.333zM10.195 8.471l1.138 1.138v0.391h-6.667v-0.391l1.138-1.138c0.121-0.12 0.195-0.287 0.195-0.47 0-0 0-0.001 0-0.001v0-2.667h4v2.667c0 0.177 0.070 0.347 0.195 0.471z"></path>
</svg>
