<!-- Generated by IcoMoon.io -->
<svg version="1.1" xmlns="http://www.w3.org/2000/svg" width="16" height="16" viewBox="0 0 16 16">
<title>bx-purchase-tag</title>
<path d="M8.471 1.529c-0.12-0.121-0.287-0.195-0.47-0.195-0 0-0.001 0-0.001 0h-6c-0.368 0-0.667 0.298-0.667 0.667v0 6c0 0.177 0.070 0.347 0.195 0.471l6 6c0.12 0.121 0.287 0.196 0.471 0.196s0.351-0.075 0.471-0.196l6-6c0.121-0.121 0.195-0.287 0.195-0.471s-0.075-0.351-0.195-0.471l-6-6zM8 13.057l-5.333-5.333v-5.057h5.057l5.333 5.333-5.057 5.057z"></path>
<path d="M6.008 5.003c0 0.554-0.449 1.003-1.003 1.003s-1.003-0.449-1.003-1.003c0-0.554 0.449-1.003 1.003-1.003s1.003 0.449 1.003 1.003z"></path>
</svg>
