<svg xmlns="http://www.w3.org/2000/svg" width="24" height="24"><path fill="none" d="M14.713 16.701a.992.992 0 0 1-.912.271c-.115-.024-2.842-.611-4.502-2.271s-2.247-4.387-2.271-4.502a.996.996 0 0 1 .271-.912l1.293-1.293-2.586-2.586-2.003 2.003c.025 1.254.368 5.533 3.71 8.876 3.326 3.325 7.473 3.69 8.874 3.712l2.005-2.005-2.586-2.586-1.293 1.293z"/><path d="M16.713 13.287a.999.999 0 0 0-1.414 0l-1.594 1.594c-.739-.22-2.118-.72-2.992-1.594s-1.374-2.253-1.594-2.992l1.594-1.594a.999.999 0 0 0 0-1.414l-4-4a.999.999 0 0 0-1.414 0l-3 3a.992.992 0 0 0-.291.65c-.015.25-.302 6.172 4.291 10.765C10.287 21.689 15.289 22 16.727 22c.219 0 .337-.008.337-.008.243-.015.478-.118.649-.291l3-3a.999.999 0 0 0 0-1.414l-4-4zm-.126 6.712c-1.401-.021-5.548-.387-8.874-3.712-3.342-3.343-3.685-7.622-3.71-8.876l2.003-2.003 2.586 2.586-1.293 1.293a1 1 0 0 0-.272.912c.024.115.611 2.842 2.271 4.502s4.387 2.247 4.502 2.271a.995.995 0 0 0 .912-.271l1.293-1.293 2.586 2.586-2.004 2.005zM20 10.999h2C22 5.869 18.127 2 12.99 2v2C17.052 4 20 6.943 20 10.999z"/><path d="M13 8c2.103 0 3 .897 3 3h2c0-3.225-1.775-5-5-5v2z"/></svg>