<!-- Generated by IcoMoon.io -->
<svg version="1.1" xmlns="http://www.w3.org/2000/svg" width="16" height="16" viewBox="0 0 16 16">
<title>bx-paste</title>
<path d="M14 7.333h-0.667v-4.667c0-0.368-0.298-0.667-0.667-0.667v0h-2c0-0.368-0.298-0.667-0.667-0.667v0h-4c-0.368 0-0.667 0.298-0.667 0.667v0h-2c-0.368 0-0.667 0.298-0.667 0.667v0 10c0 0.368 0.298 0.667 0.667 0.667v0h4v0.667c0 0.368 0.298 0.667 0.667 0.667v0h6c0.368 0 0.667-0.298 0.667-0.667v0-6c0-0.368-0.298-0.667-0.667-0.667v0zM7.333 8v4h-3.333v-8.667h1.333v0.667c0 0.368 0.298 0.667 0.667 0.667v0h4c0.368 0 0.667-0.298 0.667-0.667v0-0.667h1.333v4h-4c-0.368 0-0.667 0.298-0.667 0.667v0zM13.333 13.333h-4.667v-4.667h4.667v4.667z"></path>
</svg>
