<!-- Generated by IcoMoon.io -->
<svg version="1.1" xmlns="http://www.w3.org/2000/svg" width="16" height="16" viewBox="0 0 16 16">
<title>bx-pulse</title>
<path d="M11.221 5.63c-0.121-0.18-0.324-0.296-0.555-0.296-0.246 0-0.461 0.133-0.577 0.332l-0.002 0.003-1.927 3.372-2.195-6.585c-0.088-0.267-0.335-0.456-0.626-0.456-0.011 0-0.022 0-0.033 0.001l0.002-0c-0.3 0.012-0.548 0.22-0.62 0.499l-0.001 0.005-1.207 4.829h-2.146v1.333h2.667c0.306 0 0.572-0.209 0.647-0.505l0.779-3.112 1.943 5.828c0.091 0.267 0.339 0.456 0.632 0.456 0.247 0 0.462-0.134 0.577-0.333l0.002-0.003 2.131-3.73 0.735 1.103c0.124 0.185 0.332 0.297 0.555 0.297h2.667v-1.333h-2.31l-1.135-1.703z"></path>
</svg>
