<svg xmlns="http://www.w3.org/2000/svg" width="24" height="24" viewBox="0 0 24 24"><path fill="none" d="M7.297,9.288L8.59,7.995L6.004,5.409L4,7.414c0.019,1.222,0.343,5.506,3.711,8.874 c3.356,3.355,7.625,3.69,8.874,3.712l2.006-2.005l-2.586-2.586l-1.293,1.293c-0.239,0.239-0.581,0.343-0.912,0.271 c-0.115-0.024-2.842-0.611-4.502-2.271S7.05,10.315,7.026,10.2C6.957,9.87,7.059,9.526,7.297,9.288z"/><path d="M10.711,7.288l-4-4c-0.375-0.375-1.039-0.375-1.414,0l-2.709,2.71C2.206,6.378,1.991,6.902,2,7.435 c0.022,1.423,0.396,6.367,4.297,10.268C10.195,21.6,15.142,21.977,16.566,22c0.005,0,0.023,0,0.028,0 c0.528,0,1.027-0.208,1.405-0.586l2.712-2.712c0.391-0.391,0.391-1.023,0-1.414l-4-4c-0.391-0.391-1.023-0.391-1.414,0 l-1.597,1.596c-0.824-0.245-2.166-0.771-2.99-1.596c-0.874-0.874-1.374-2.253-1.594-2.992l1.594-1.594 C11.102,8.312,11.102,7.679,10.711,7.288z M9.297,14.702c1.66,1.66,4.387,2.247,4.502,2.271c0.331,0.071,0.673-0.032,0.912-0.271 l1.293-1.293l2.586,2.586L16.585,20c-1.248-0.021-5.518-0.356-8.874-3.712C4.343,12.92,4.019,8.636,4,7.414l2.004-2.005 L8.59,7.995L7.297,9.288C7.059,9.526,6.957,9.87,7.026,10.2C7.05,10.315,7.637,13.042,9.297,14.702z"/><path d="M20.298 2.288L15.126 7.46 13.005 5.339 13.005 10.995 18.661 10.995 16.54 8.874 21.712 3.702z"/></svg>