<!-- Generated by IcoMoon.io -->
<svg version="1.1" xmlns="http://www.w3.org/2000/svg" width="16" height="16" viewBox="0 0 16 16">
<title>bx-paperclip</title>
<path d="M11.336 3.333h-5.336c-2.529 0-4.667 2.137-4.667 4.667s2.137 4.667 4.667 4.667h4.667v-1.333h-4.667c-1.807 0-3.333-1.527-3.333-3.333s1.527-3.333 3.333-3.333h5.333v-0.667l0.001 0.667h0.002c1.082 0 1.997 0.916 1.997 2.001 0.001 0.527-0.209 1.027-0.59 1.407-0.359 0.364-0.858 0.591-1.41 0.592h-5.334c-0.355 0-0.667-0.312-0.667-0.667s0.312-0.667 0.667-0.667h4.667v-1.333h-4.667c-1.084 0-2 0.916-2 2s0.916 2 2 2h5.334c0.92-0.001 1.751-0.376 2.351-0.982l0-0c0.606-0.599 0.981-1.43 0.981-2.348 0-0.001 0-0.003 0-0.004v0c-0.002-1.839-1.492-3.329-3.33-3.333h-0z"></path>
</svg>
