<!-- Generated by IcoMoon.io -->
<svg version="1.1" xmlns="http://www.w3.org/2000/svg" width="16" height="16" viewBox="0 0 16 16">
<title>bx-photo-album</title>
<path d="M13.333 1.333h-9.333c-0.804 0-2 0.533-2 2v9.333c0 1.467 1.196 2 2 2h9.333c0.368 0 0.667-0.298 0.667-0.667v0-12c0-0.368-0.298-0.667-0.667-0.667v0zM3.333 3.333c0-0.537 0.367-0.659 0.667-0.667h8.667v8h-9.333v-7.333zM4.008 13.333c-0.308-0.008-0.675-0.129-0.675-0.667s0.367-0.659 0.675-0.667h8.659v1.333h-8.659z"></path>
<path d="M8 8.667h3.333l-2.333-3.333-1.651 2.357-0.683-1.024-1.333 2h1.333z"></path>
<path d="M7.337 4.998c0 0.553-0.449 1.002-1.002 1.002s-1.002-0.449-1.002-1.002c0-0.553 0.449-1.002 1.002-1.002s1.002 0.449 1.002 1.002z"></path>
</svg>
