<svg xmlns="http://www.w3.org/2000/svg" width="24" height="24" viewBox="0 0 24 24"><path d="M21.222,3.811c-0.661-0.744-1.58-1.091-2.575-0.983C17.815,2.919,16.96,3.33,16.098,4.02c-1.243-0.64-2.634-1-4.097-1	c-1.618,0-3.215,0.443-4.615,1.282C5.319,5.536,3.861,7.495,3.277,9.817c-0.449,1.788-0.333,3.63,0.306,5.325	c-1.065,1.203-2.054,3.677-0.823,5.063c0.517,0.581,1.257,0.841,2.147,0.841c0.975,0,2.133-0.319,3.373-0.86	c1.144,0.519,2.396,0.811,3.709,0.811c1.619,0,3.216-0.443,4.616-1.282c2.065-1.234,3.524-3.192,4.107-5.515	c0.412-1.643,0.344-3.329-0.163-4.908C21.859,7.055,22.303,5.028,21.222,3.811z M18.864,4.815c0.356-0.033,0.632,0.064,0.861,0.323	c0.231,0.261,0.169,0.946-0.252,1.929c-0.461-0.701-1.005-1.319-1.617-1.853C18.287,4.952,18.632,4.841,18.864,4.815z M5.217,10.305	C5.67,8.501,6.805,6.979,8.412,6.019c1.091-0.653,2.332-0.999,3.589-0.999c2.473,0,4.709,1.273,5.983,3.405	c0.13,0.218,0.245,0.44,0.351,0.667c-0.971,1.441-2.433,3.16-4.498,4.994c-2.063,1.833-3.942,3.082-5.488,3.876	c-0.939-0.578-1.749-1.376-2.343-2.371C5.044,13.985,4.764,12.107,5.217,10.305z M4.256,18.877c-0.217-0.244,0.003-1.07,0.377-1.76	c0.452,0.656,0.978,1.237,1.565,1.739C5.174,19.158,4.486,19.139,4.256,18.877z M18.773,13.712	c-0.453,1.804-1.587,3.325-3.194,4.285c-1.091,0.653-2.333,0.999-3.59,0.999c-0.422,0-0.833-0.05-1.237-0.122	c1.487-0.911,3.004-2.04,4.413-3.292c1.411-1.253,2.722-2.626,3.803-3.996C19.012,12.292,18.95,13.008,18.773,13.712z"/></svg>