<!-- Generated by IcoMoon.io -->
<svg version="1.1" xmlns="http://www.w3.org/2000/svg" width="16" height="16" viewBox="0 0 16 16">
<title>bx-pen</title>
<path d="M11.797 1.528c-0.12-0.12-0.286-0.195-0.469-0.195-0.001 0-0.001 0-0.002 0h0c-0.192 0.010-0.347 0.070-0.472 0.196l-1.66 1.667-1.471 1.471h-3.057c-0 0-0 0-0 0-0.286 0-0.53 0.181-0.624 0.434l-0.002 0.005-2.667 7.333c-0.089 0.243-0.028 0.516 0.155 0.699l1.333 1.333c0.12 0.121 0.287 0.195 0.471 0.195 0.082 0 0.161-0.015 0.233-0.042l-0.005 0.002 7.333-2.667c0.258-0.095 0.439-0.339 0.439-0.626 0-0 0-0 0-0.001v0-3.057l1.472-1.472 1.667-1.671c0.121-0.12 0.195-0.287 0.195-0.471s-0.075-0.352-0.197-0.472l-0-0-2.673-2.663zM10.195 7.529c-0.121 0.12-0.195 0.287-0.195 0.47 0 0 0 0.001 0 0.001v-0 2.867l-6.166 2.242 3.114-3.114c0.017 0.001 0.035 0.005 0.052 0.005 0.552 0 1-0.448 1-1s-0.448-1-1-1c-0.552 0-1 0.448-1 1v0c0 0.017 0.005 0.035 0.005 0.052l-3.114 3.114 2.242-6.166h2.867c0.177 0 0.347-0.070 0.471-0.195l1.195-1.195 1.724 1.724-1.195 1.195zM12.333 5.39l-1.724-1.724 0.72-0.723 1.728 1.721-0.724 0.726z"></path>
</svg>
