<!-- Generated by IcoMoon.io -->
<svg version="1.1" xmlns="http://www.w3.org/2000/svg" width="16" height="16" viewBox="0 0 16 16">
<title>bx-printer</title>
<path d="M14 4h-2v-2c0-0.368-0.298-0.667-0.667-0.667v0h-6.667c-0.368 0-0.667 0.298-0.667 0.667v0 2h-2c-0.368 0-0.667 0.298-0.667 0.667v0 6.667c0 0.368 0.298 0.667 0.667 0.667v0h2v2c0 0.368 0.298 0.667 0.667 0.667v0h6.667c0.368 0 0.667-0.298 0.667-0.667v0-2h2c0.368 0 0.667-0.298 0.667-0.667v0-6.667c0-0.368-0.298-0.667-0.667-0.667v0zM5.333 2.667h5.333v1.333h-5.333v-1.333zM10.667 13.333h-5.333v-3.333h5.333v3.333zM13.333 10.667h-1.333v-1.333c0-0.368-0.298-0.667-0.667-0.667v0h-6.667c-0.368 0-0.667 0.298-0.667 0.667v0 1.333h-1.333v-5.333h10.667v5.333z"></path>
<path d="M11.333 6.667h1.333v1.333h-1.333zM9.333 6.667h1.333v1.333h-1.333z"></path>
</svg>
