<!-- Generated by IcoMoon.io -->
<svg version="1.1" xmlns="http://www.w3.org/2000/svg" width="16" height="16" viewBox="0 0 16 16">
<title>bx-phone</title>
<path d="M11.805 8.195c-0.121-0.121-0.287-0.195-0.471-0.195s-0.351 0.075-0.471 0.195l-1.063 1.063c-0.493-0.147-1.412-0.48-1.995-1.063s-0.916-1.502-1.063-1.995l1.063-1.063c0.121-0.121 0.195-0.287 0.195-0.471s-0.075-0.351-0.195-0.471l-2.667-2.667c-0.121-0.121-0.287-0.195-0.471-0.195s-0.351 0.075-0.471 0.195l-2 2c-0.112 0.112-0.184 0.263-0.194 0.431l-0 0.002c-0.010 0.167-0.201 4.115 2.861 7.177 2.659 2.659 5.993 2.866 6.952 2.866 0.146 0 0.225-0.005 0.225-0.005 0.162-0.010 0.319-0.079 0.433-0.194l2-2c0.121-0.121 0.195-0.287 0.195-0.471s-0.075-0.351-0.195-0.471l-2.667-2.667zM11.721 12.67c-0.934-0.014-3.699-0.258-5.916-2.475-2.228-2.229-2.457-5.081-2.473-5.917l1.335-1.335 1.724 1.724-0.862 0.862c-0.121 0.121-0.195 0.287-0.195 0.472 0 0.048 0.005 0.095 0.015 0.141l-0.001-0.004c0.016 0.077 0.407 1.895 1.514 3.001s2.925 1.498 3.001 1.514c0.042 0.009 0.090 0.015 0.139 0.015 0.183 0 0.349-0.075 0.469-0.195l0.863-0.862 1.724 1.724-1.337 1.337z"></path>
</svg>
