<!-- Generated by IcoMoon.io -->
<svg version="1.1" xmlns="http://www.w3.org/2000/svg" width="16" height="16" viewBox="0 0 16 16">
<title>bx-paper-plane</title>
<path d="M1.333 8.12c0.004 0.268 0.165 0.497 0.396 0.6l0.004 0.002 3.6 1.575v3.815c0 0 0 0 0 0 0 0.368 0.298 0.667 0.667 0.667 0.138 0 0.266-0.042 0.372-0.114l-0.002 0.002 3.546-2.364 2.484 1.087c0.079 0.035 0.171 0.056 0.267 0.056 0.353 0 0.641-0.274 0.665-0.621l0-0.002 0.667-10c0.001-0.013 0.001-0.028 0.001-0.043 0-0.369-0.299-0.668-0.668-0.668-0.103 0-0.2 0.023-0.287 0.065l0.004-0.002-11.333 5.333c-0.237 0.112-0.387 0.351-0.383 0.613zM6.667 12.865v-1.985l1.798 0.787-1.798 1.198zM12.593 3.863l-0.529 7.924-3.513-1.537 2.115-4.138-5.099 2.833-1.955-0.855 8.981-4.227z"></path>
</svg>
