<svg xmlns="http://www.w3.org/2000/svg" width="24" height="24" viewBox="0 0 24 24"><path d="M16.672 2.914l-8.379 8.379c-.391.391-.391 1.023 0 1.414l3 3C11.488 15.902 11.744 16 12 16s.512-.098.707-.293l8.379-8.379c1.217-1.217 1.217-3.195-.002-4.414C19.906 1.734 17.85 1.734 16.672 2.914zM19.672 5.914L12 13.586 10.414 12l7.672-7.672c.424-.424 1.158-.426 1.586.002C20.108 4.767 20.108 5.478 19.672 5.914zM8 15c-1.265-.634-3.5 0-3.5 2 0 1.197.5 2-1.5 3 0 0 3.25 2.25 5.5 0C9.774 18.726 9.994 16 8 15z"/></svg>