<svg xmlns="http://www.w3.org/2000/svg" width="24" height="24"><path fill="none" d="M15.707 15.707a.989.989 0 0 1-.912.271c-.115-.024-2.842-.611-4.502-2.271S8.046 9.32 8.021 9.205a.999.999 0 0 1 .271-.912L9.586 7 7 4.414 4.997 6.417c.025 1.254.368 5.533 3.71 8.876 3.326 3.325 7.473 3.69 8.874 3.712L19.586 17 17 14.414l-1.293 1.293z"/><path d="M17.707 12.293a.999.999 0 0 0-1.414 0l-1.594 1.594c-.739-.22-2.118-.72-2.992-1.594s-1.374-2.253-1.594-2.992l1.594-1.594a.999.999 0 0 0 0-1.414l-4-4a.999.999 0 0 0-1.414 0l-3 3a.996.996 0 0 0-.291.649c-.015.25-.302 6.172 4.291 10.765 3.988 3.988 8.99 4.299 10.428 4.299.219 0 .337-.008.337-.008.243-.015.478-.118.649-.291l3-3a.999.999 0 0 0 0-1.414l-4-4zm-.126 6.712c-1.401-.021-5.548-.387-8.874-3.712-3.342-3.343-3.685-7.622-3.71-8.876L7 4.414 9.586 7 8.293 8.293a1 1 0 0 0-.272.912c.024.115.611 2.842 2.271 4.502s4.387 2.247 4.502 2.271a.991.991 0 0 0 .912-.271L17 14.414 19.586 17l-2.005 2.005z"/></svg>