<!-- Generated by IcoMoon.io -->
<svg version="1.1" xmlns="http://www.w3.org/2000/svg" width="16" height="16" viewBox="0 0 16 16">
<title>bx-package</title>
<path d="M14.662 5.297c-0.002-0.050-0.009-0.098-0.020-0.144l0.001 0.005c-0.007-0.024-0.019-0.045-0.028-0.069-0.013-0.031-0.022-0.063-0.039-0.091-0.015-0.025-0.035-0.047-0.053-0.070-0.017-0.022-0.032-0.046-0.052-0.067-0.021-0.021-0.047-0.038-0.071-0.056-0.021-0.015-0.039-0.035-0.062-0.048l-0.007-0.003-0.008-0.006-6.014-3.327c-0.093-0.052-0.204-0.083-0.323-0.083s-0.231 0.031-0.327 0.086l0.003-0.002-5.986 3.327c-0.001 0.002-0.003 0.004-0.005 0.005-0.003 0.002-0.006 0.002-0.009 0.004-0.030 0.017-0.054 0.041-0.080 0.063-0.017 0.013-0.037 0.025-0.052 0.040-0.026 0.026-0.046 0.057-0.068 0.087-0.012 0.017-0.027 0.032-0.037 0.050-0.017 0.031-0.033 0.068-0.045 0.105l-0.001 0.005c-0.006 0.017-0.015 0.033-0.020 0.049-0.012 0.043-0.019 0.091-0.020 0.142l-0 0.001c-0.001 0.011-0.005 0.021-0.005 0.032v5.335c0 0.242 0.131 0.465 0.343 0.583l6.001 3.333c0.029 0.016 0.060 0.025 0.090 0.036 0.021 0.009 0.042 0.020 0.065 0.026 0.051 0.014 0.109 0.021 0.169 0.021s0.118-0.008 0.173-0.022l-0.005 0.001c0.022-0.006 0.043-0.017 0.065-0.026 0.030-0.011 0.061-0.019 0.090-0.036l0.013-0.007 0.001-0.001 0.001-0.001 5.985-3.325c0.211-0.117 0.342-0.341 0.342-0.583v-5.335c0-0.013-0.004-0.023-0.005-0.035zM8.019 7.915l-1.903-1.057 4.625-2.565 1.887 1.044-4.609 2.579zM7.987 2.769l1.214 0.671-4.589 2.582-1.239-0.689 4.614-2.565zM2.667 6.471l1.333 0.746v1.383l1.333 0.733v-1.371l1.999 1.119 0.001 3.786-4.667-2.593v-3.803zM8.667 12.867v-3.787l4.667-2.611v3.804l-4.667 2.593z"></path>
</svg>
