<!-- Generated by IcoMoon.io -->
<svg version="1.1" xmlns="http://www.w3.org/2000/svg" width="16" height="16" viewBox="0 0 16 16">
<title>bx-playlist</title>
<path d="M8.667 10.995c0 1.289 1.049 2.338 2.338 2.338s2.338-1.049 2.338-2.338c0-0.118-0.018-0.231-0.035-0.345h0.026v-6.651h1.333v-1.333h-2c-0.368 0-0.667 0.298-0.667 0.667v0 5.555c-0.291-0.144-0.633-0.229-0.995-0.231h-0.001c-1.291 0.001-2.336 1.047-2.338 2.337v0zM12.009 10.995c0 0.554-0.451 1.005-1.005 1.005s-1.005-0.451-1.005-1.005 0.451-1.005 1.005-1.005 1.005 0.451 1.005 1.005zM1.333 3.333h9.333v1.333h-9.333z"></path>
<path d="M1.333 6h9.333v1.333h-9.333zM1.333 8.667h6v1.333h-6zM1.333 11.333h6v1.333h-6z"></path>
</svg>
