<!-- Generated by IcoMoon.io -->
<svg version="1.1" xmlns="http://www.w3.org/2000/svg" width="16" height="16" viewBox="0 0 16 16">
<title>bx-pencil</title>
<path d="M12.471 1.529c-0.121-0.121-0.287-0.195-0.471-0.195s-0.351 0.075-0.471 0.195l-8.667 8.667c-0.083 0.083-0.144 0.188-0.174 0.305l-0.001 0.005-0.667 2.667c-0.013 0.049-0.020 0.104-0.020 0.162 0 0.368 0.298 0.667 0.667 0.667 0.057 0 0.113-0.007 0.166-0.021l-0.005 0.001 2.667-0.667c0.117-0.029 0.225-0.090 0.31-0.175l8.667-8.667c0.121-0.121 0.195-0.287 0.195-0.471s-0.075-0.351-0.195-0.471l-2-2zM4.992 12.065l-1.409 0.352 0.353-1.409 6.065-6.065 1.057 1.057-6.065 6.065zM12 5.057l-1.057-1.057 1.057-1.057 1.057 1.057-1.057 1.057z"></path>
</svg>
