<!-- Generated by IcoMoon.io -->
<svg version="1.1" xmlns="http://www.w3.org/2000/svg" width="16" height="16" viewBox="0 0 16 16">
<title>bx-planet</title>
<path d="M14.148 2.541c-0.441-0.496-1.053-0.727-1.717-0.655-0.555 0.061-1.125 0.335-1.699 0.795-0.794-0.42-1.736-0.667-2.736-0.667-1.135 0-2.196 0.318-3.098 0.869l0.026-0.015c-1.349 0.809-2.338 2.103-2.73 3.635l-0.009 0.041c-0.114 0.435-0.18 0.935-0.18 1.451 0 0.755 0.141 1.476 0.398 2.14l-0.014-0.040c-0.71 0.802-1.369 2.451-0.549 3.375 0.345 0.387 0.838 0.561 1.431 0.561 0.65 0 1.422-0.213 2.249-0.573 0.726 0.34 1.576 0.539 2.472 0.541h0c1.137-0.001 2.199-0.319 3.104-0.87l-0.026 0.015c1.349-0.809 2.337-2.103 2.729-3.636l0.009-0.041c0.114-0.434 0.179-0.933 0.179-1.447 0-0.652-0.105-1.28-0.3-1.867l0.012 0.042c0.873-1.491 1.169-2.843 0.449-3.654zM12.576 3.21c0.237-0.022 0.421 0.043 0.574 0.215 0.154 0.174 0.113 0.631-0.168 1.286-0.312-0.47-0.668-0.876-1.071-1.229l-0.007-0.006c0.287-0.175 0.517-0.249 0.672-0.266zM3.478 6.87c0.312-1.223 1.081-2.229 2.109-2.846l0.021-0.012c0.683-0.417 1.509-0.664 2.392-0.666h0c1.649 0 3.139 0.849 3.989 2.27 0.087 0.145 0.163 0.293 0.234 0.445-0.647 0.961-1.622 2.107-2.999 3.329-1.375 1.222-2.628 2.055-3.659 2.584-0.644-0.399-1.17-0.931-1.55-1.56l-0.012-0.021c-0.419-0.682-0.667-1.508-0.667-2.392 0-0.402 0.051-0.792 0.148-1.165l-0.007 0.032zM2.837 12.585c-0.145-0.163 0.002-0.713 0.251-1.173 0.305 0.44 0.649 0.82 1.035 1.153l0.008 0.007c-0.683 0.201-1.141 0.189-1.295 0.014zM12.515 9.141c-0.312 1.223-1.080 2.228-2.108 2.845l-0.021 0.012c-0.683 0.417-1.509 0.664-2.393 0.666h-0c-0.281 0-0.555-0.033-0.825-0.081 1.108-0.69 2.069-1.414 2.962-2.213l-0.020 0.018c0.941-0.835 1.815-1.751 2.535-2.664 0.006 0.087 0.009 0.189 0.009 0.291 0 0.4-0.051 0.788-0.146 1.158l0.007-0.032z"></path>
</svg>
