<!-- Generated by IcoMoon.io -->
<svg version="1.1" xmlns="http://www.w3.org/2000/svg" width="16" height="16" viewBox="0 0 16 16">
<title>bx-pie-chart-alt</title>
<path d="M8.667 1.333c-0.368 0-0.667 0.298-0.667 0.667v0 5.333c0 0.368 0.298 0.667 0.667 0.667v0h5.333c0.368 0 0.667-0.298 0.667-0.667v0c0-3.309-2.691-6-6-6zM9.333 6.667v-3.953c2.048 0.307 3.646 1.905 3.949 3.927l0.003 0.026h-3.953z"></path>
<path d="M8 12.659c-2.572-0.003-4.656-2.087-4.659-4.659v-0c0-2.105 1.405-3.887 3.326-4.463v-1.375c-2.664 0.608-4.659 2.992-4.659 5.838 0 3.305 2.688 5.993 5.993 5.993 2.846 0 5.229-1.995 5.838-4.659h-1.375c-0.575 1.921-2.357 3.325-4.463 3.325z"></path>
</svg>
