<!-- Generated by IcoMoon.io -->
<svg version="1.1" xmlns="http://www.w3.org/2000/svg" width="16" height="16" viewBox="0 0 16 16">
<title>bx-phone-incoming</title>
<path d="M7.138 4.862l-2.667-2.667c-0.121-0.121-0.287-0.195-0.471-0.195s-0.351 0.075-0.471 0.195l-2 2c-0.112 0.112-0.184 0.263-0.195 0.431l-0 0.002c-0.009 0.167-0.201 4.115 2.861 7.177 2.659 2.659 5.993 2.866 6.952 2.866 0.146 0 0.225-0.005 0.225-0.005 0.162-0.010 0.319-0.079 0.433-0.194l2-2c0.121-0.121 0.195-0.287 0.195-0.471s-0.075-0.351-0.195-0.471l-2.667-2.667c-0.121-0.121-0.287-0.195-0.471-0.195s-0.351 0.075-0.471 0.195l-1.063 1.063c-0.493-0.147-1.413-0.48-1.995-1.063s-0.916-1.502-1.063-1.995l1.063-1.063c0.121-0.121 0.195-0.287 0.195-0.471s-0.075-0.351-0.195-0.471l-0-0zM6.195 9.805c1.107 1.107 2.925 1.498 3.001 1.514 0.042 0.009 0.089 0.015 0.138 0.015 0.184 0 0.35-0.075 0.47-0.195l0.862-0.862 1.724 1.724-1.337 1.337c-0.934-0.014-3.699-0.258-5.916-2.475-2.228-2.229-2.457-5.081-2.473-5.917l1.335-1.335 1.724 1.724-0.862 0.862c-0.121 0.12-0.195 0.286-0.195 0.47 0 0.049 0.005 0.096 0.015 0.142l-0.001-0.004c0.015 0.077 0.407 1.895 1.514 3.001z"></path>
<path d="M13.529 1.529l-3.448 3.448-1.414-1.414v3.771h3.771l-1.414-1.414 3.448-3.448z"></path>
</svg>
