<svg xmlns="http://www.w3.org/2000/svg" width="24" height="24"><path fill="none" d="M6.012 18C5.55 18.012 5 18.194 5 19s.55.988 1.012 1H19v-2H6.012zM19 16V4H6c-.45.012-1 .194-1 1v11h14zM9.503 5.994a1.503 1.503 0 1 1 0 3.006 1.503 1.503 0 0 1 0-3.006zM10 10l1.024 1.536L13.5 8l3.5 5H8l2-3z"/><path d="M20 2H6c-1.206 0-3 .799-3 3v14c0 2.201 1.794 3 3 3h14a1 1 0 0 0 1-1V3a1 1 0 0 0-1-1zM5 5c0-.806.55-.988 1-1h13v12H5V5zm1.012 15C5.55 19.988 5 19.806 5 19s.55-.988 1.012-1H19v2H6.012z"/><path d="M12 13h5l-3.5-5-2.476 3.536L10 10l-2 3h2z"/><circle cx="9.503" cy="7.497" r="1.503"/></svg>