<svg xmlns="http://www.w3.org/2000/svg" width="24" height="24" viewBox="0 0 24 24"><path fill="none" d="M16.585,20l2.006-2.005l-2.586-2.586l-1.293,1.293c-0.238,0.239-0.581,0.343-0.912,0.271 c-0.115-0.024-2.842-0.611-4.502-2.271S7.051,10.315,7.026,10.2C6.957,9.87,7.059,9.526,7.298,9.288l1.293-1.293L6.005,5.409 L4,7.414c0.02,1.223,0.346,5.508,3.712,8.874C11.067,19.644,15.337,19.979,16.585,20z"/><path d="M2,7.435c0.023,1.424,0.4,6.37,4.298,10.268S15.142,21.977,16.566,22c0.005,0,0.023,0,0.028,0 c0.528,0,1.027-0.208,1.405-0.586l2.712-2.712c0.391-0.391,0.391-1.023,0-1.414l-4-4c-0.391-0.391-1.023-0.391-1.414,0 l-1.594,1.594c-0.739-0.22-2.118-0.72-2.992-1.594s-1.374-2.253-1.594-2.992l1.594-1.594c0.391-0.391,0.391-1.023,0-1.414l-4-4 c-0.391-0.391-1.023-0.391-1.414,0L2.586,6C2.206,6.38,1.992,6.902,2,7.435z M6.005,5.409l2.586,2.586L7.298,9.288 C7.059,9.526,6.957,9.87,7.026,10.2c0.024,0.115,0.611,2.842,2.271,4.502s4.387,2.247,4.502,2.271 c0.331,0.071,0.674-0.032,0.912-0.271l1.293-1.293l2.586,2.586L16.585,20c-1.248-0.021-5.518-0.356-8.873-3.712 C4.346,12.922,4.02,8.637,4,7.414L6.005,5.409z"/><path d="M13.712 11.702L18.884 6.53 21.005 8.651 21.005 2.995 15.349 2.995 17.47 5.116 12.298 10.288z"/></svg>