<!-- Generated by IcoMoon.io -->
<svg version="1.1" xmlns="http://www.w3.org/2000/svg" width="16" height="16" viewBox="0 0 16 16">
<title>bx-question-mark</title>
<path d="M8 2.667c-1.838 0-3.333 1.495-3.333 3.333h1.333c0-1.103 0.897-2 2-2s2 0.897 2 2c0 0.652-0.473 1.083-1.195 1.667-0.225 0.182-0.437 0.355-0.609 0.528-0.838 0.838-0.862 1.708-0.862 1.805v0.667h1.333v-0.651c0.001-0.017 0.027-0.433 0.471-0.877 0.143-0.143 0.319-0.284 0.505-0.434 0.713-0.577 1.69-1.367 1.69-2.704 0-1.838-1.495-3.333-3.333-3.333z"></path>
<path d="M7.333 12h1.333v1.333h-1.333v-1.333z"></path>
</svg>
