<!-- Generated by IcoMoon.io -->
<svg version="1.1" xmlns="http://www.w3.org/2000/svg" width="16" height="16" viewBox="0 0 16 16">
<title>bx-quote-right</title>
<path d="M2 13.333c1.855 0 3.271-0.514 4.206-1.528 1.258-1.365 1.131-3.119 1.127-3.139v-5.333c0-0.368-0.298-0.667-0.667-0.667v0h-4.667c-0.368 0-0.667 0.298-0.667 0.667v0 5.333c0 0.368 0.298 0.667 0.667 0.667v0h1.186c-0.16 0.337-0.494 0.667-1.186 0.667-0.368 0-0.667 0.298-0.667 0.667v0 2c0 0.368 0.298 0.667 0.667 0.667v0zM2.667 11.265c1.454-0.316 2-1.658 2-2.598 0-0.368-0.298-0.667-0.667-0.667v0h-1.333v-4h3.333l0.002 4.717c0.001 0.013 0.077 1.268-0.787 2.195-0.566 0.607-1.421 0.963-2.548 1.059v-0.707zM9.333 10.023c-0.368 0-0.667 0.298-0.667 0.667v0 1.977c0 0.368 0.298 0.667 0.667 0.667v0c1.855 0 3.271-0.514 4.206-1.528 1.258-1.365 1.131-3.119 1.127-3.139v-5.333c0-0.368-0.298-0.667-0.667-0.667v0h-4.667c-0.368 0-0.667 0.298-0.667 0.667v0 5.333c0 0.368 0.298 0.667 0.667 0.667v0h1.189c-0.16 0.351-0.495 0.689-1.189 0.689zM11.333 8h-1.333v-4h3.333l0.002 4.717c0.001 0.013 0.077 1.268-0.787 2.195-0.567 0.607-1.421 0.962-2.548 1.059v-0.685c1.454-0.319 2-1.673 2-2.621-0-0.368-0.299-0.666-0.667-0.666v0z"></path>
</svg>
