<!-- Generated by IcoMoon.io -->
<svg version="1.1" xmlns="http://www.w3.org/2000/svg" width="16" height="16" viewBox="0 0 16 16">
<title>bx-quote-left</title>
<path d="M14 2.667h-4.667c-0.368 0-0.667 0.298-0.667 0.667v0l0.002 5.279c-0.006 0.074-0.133 1.827 1.125 3.193 0.935 1.014 2.351 1.528 4.206 1.528 0.368 0 0.667-0.298 0.667-0.667v0-2c0-0.368-0.298-0.667-0.667-0.667v0c-0.687 0-1.022-0.327-1.184-0.667h1.184c0.368 0 0.667-0.298 0.667-0.667v0-5.333c0-0.368-0.298-0.667-0.667-0.667v0zM13.333 8h-1.333c-0.368 0-0.667 0.298-0.667 0.667v0c0 0.94 0.546 2.282 2 2.598v0.708c-1.127-0.097-1.982-0.453-2.548-1.060-0.865-0.927-0.788-2.183-0.785-2.246v-4.667h3.333v4zM2.461 11.805c0.935 1.014 2.351 1.528 4.206 1.528 0.368 0 0.667-0.298 0.667-0.667v0-1.977c0-0.368-0.298-0.667-0.667-0.667v0c-0.695 0-1.030-0.34-1.189-0.689h1.189c0.368 0 0.667-0.298 0.667-0.667v0-5.333c0-0.368-0.298-0.667-0.667-0.667v0h-4.667c-0.368 0-0.667 0.298-0.667 0.667v0l0.002 5.279c-0.006 0.074-0.133 1.827 1.125 3.193zM2.667 8.667v-4.667h3.333v4h-1.333c-0.368 0-0.667 0.298-0.667 0.667v0c0 0.948 0.546 2.301 2 2.621v0.685c-1.127-0.097-1.982-0.453-2.548-1.060-0.865-0.927-0.788-2.183-0.785-2.246z"></path>
</svg>
