<svg xmlns="http://www.w3.org/2000/svg" width="24" height="24" viewBox="0 0 24 24"><path d="M6.713 17.587l-1.514 1.307c.141.163.287.32.438.47.923.923 2.007 1.62 3.223 2.072l.697-1.875c-.944-.352-1.788-.894-2.509-1.614C6.932 17.831 6.82 17.711 6.713 17.587zM7.051 8.051L5.637 6.637c-1.067 1.065-1.854 2.39-2.274 3.829l1.92.561C5.608 9.909 6.22 8.881 7.051 8.051zM5 13.011l.006-.264-2-.063L3 13c0 1.416.32 2.772.952 4.031l1.787-.896C5.249 15.156 5 14.103 5 13.011zM21 13c0-2.404-.937-4.664-2.637-6.363C16.664 4.937 14.404 4 12 4V2L8.025 5 12 8V6c1.87 0 3.627.729 4.949 2.051S19 11.13 19 13c0 .389-.039.777-.103 1.159-.104.63-.294 1.236-.563 1.809-.163.347-.35.679-.565.992-.019.028-.041.054-.061.082-.228.321-.479.627-.76.908-.001.001-.001.001-.002.002-.21.211-.44.405-.678.588-.49.379-1.021.694-1.585.929v-.001c-.256.106-.52.193-.786.268-.045.013-.091.022-.137.034-.229.059-.46.106-.693.142-.047.007-.093.015-.14.021-.245.032-.491.052-.736.059-.032.001-.064.005-.098.005-.282.005-.563-.006-.841-.034l-.209 1.988C11.357 21.982 11.677 22 12 22c.299 0 .596-.015.891-.043 1.645-.161 3.188-.773 4.501-1.763l.006.008c.034-.025.063-.058.097-.084.302-.233.595-.48.869-.755.2-.2.389-.409.567-.626.082-.098.154-.201.231-.302.091-.119.183-.237.268-.36.09-.132.171-.267.253-.402.061-.099.123-.196.18-.298.083-.148.157-.301.231-.453.031-.063.067-.124.097-.188l-.006-.003c.311-.681.537-1.397.669-2.142l.006.001c.023-.132.036-.268.054-.401.015-.114.035-.229.046-.345C20.985 13.563 21 13.281 21 13z"/></svg>