<!-- Generated by IcoMoon.io -->
<svg version="1.1" xmlns="http://www.w3.org/2000/svg" width="16" height="16" viewBox="0 0 16 16">
<title>bx-right-down-arrow-circle</title>
<path d="M8 1.338c-0.007-0-0.016-0-0.024-0-1.832 0-3.491 0.745-4.689 1.948l-0 0c-2.599 2.599-2.599 6.829 0 9.429 1.199 1.204 2.858 1.949 4.691 1.949 0.008 0 0.016-0 0.024-0h-0.001c0.007 0 0.015 0 0.023 0 1.833 0 3.492-0.745 4.691-1.948l0-0c2.599-2.599 2.599-6.829 0-9.429-1.199-1.203-2.857-1.948-4.69-1.948-0.009 0-0.017 0-0.026 0h0.001zM11.771 11.771c-0.959 0.963-2.286 1.558-3.752 1.558-0.007 0-0.013-0-0.020-0h0.001c-1.427 0-2.767-0.553-3.771-1.558-2.079-2.079-2.079-5.463 0-7.543 0.959-0.962 2.285-1.557 3.751-1.557 0.007 0 0.014 0 0.021 0h-0.001c1.427 0 2.767 0.553 3.771 1.557 2.079 2.079 2.079 5.463 0 7.543z"></path>
<path d="M6.471 5.529l-0.943 0.943 2.112 2.112-1.417 1.417h3.776v-3.775l-1.417 1.416z"></path>
</svg>
