<!-- Generated by IcoMoon.io -->
<svg version="1.1" xmlns="http://www.w3.org/2000/svg" width="16" height="16" viewBox="0 0 16 16">
<title>bx-rotate</title>
<path d="M13.333 8c0-2.891-2.442-5.333-5.333-5.333v1.333c2.168 0 4 1.832 4 4s-1.832 4-4 4v0.667l-0.001-0.667h-0.007c-0.291-0-0.575-0.033-0.847-0.094l0.026 0.005-0.287 1.302c0.364 0.080 0.737 0.121 1.108 0.121h0.010c2.891-0.001 5.332-2.443 5.332-5.333z"></path>
<path d="M7.983 1.333l-2.65 2 2.65 2zM5.185 5.182l-0.943-0.944c-0.526 0.526-0.945 1.159-1.221 1.863l-0.013 0.037 1.246 0.474c0.218-0.558 0.534-1.034 0.93-1.43l0-0zM2.667 8c0 0.641 0.117 1.271 0.346 1.872l1.246-0.475c-0.164-0.414-0.259-0.894-0.259-1.395 0-0.099 0.004-0.198 0.011-0.295l-0.001 0.013-1.329-0.095c-0.009 0.112-0.014 0.243-0.014 0.375 0 0 0 0.001 0 0.001v-0zM5.463 12.678l0.642-1.168c-0.513-0.287-0.943-0.662-1.284-1.107l-0.007-0.010-1.063 0.806c0.462 0.603 1.032 1.099 1.684 1.465l0.028 0.014z"></path>
</svg>
