<!-- Generated by IcoMoon.io -->
<svg version="1.1" xmlns="http://www.w3.org/2000/svg" width="16" height="16" viewBox="0 0 16 16">
<title>bx-right-arrow</title>
<path d="M4.667 13.333c0 0 0 0 0 0 0.133 0 0.256-0.039 0.36-0.106l-0.003 0.002 7.333-4.667c0.186-0.121 0.308-0.327 0.308-0.563s-0.122-0.442-0.305-0.561l-0.003-0.002-7.333-4.667c-0.101-0.066-0.226-0.105-0.359-0.105-0.368 0-0.666 0.298-0.666 0.666 0 0.001 0 0.001 0 0.002v-0 9.333c0 0 0 0.001 0 0.001 0 0.367 0.298 0.665 0.665 0.665 0 0 0.001 0 0.001 0h-0zM5.333 4.548l5.425 3.452-5.425 3.452v-6.904z"></path>
</svg>
