<!-- Generated by IcoMoon.io -->
<svg version="1.1" xmlns="http://www.w3.org/2000/svg" width="16" height="16" viewBox="0 0 16 16">
<title>bx-rocket</title>
<path d="M13.947 1.589c-0.686-0.162-1.473-0.256-2.282-0.256h-0c-1.723 0-3.109 0.475-4.007 1.374-0.695 0.695-1.385 1.392-2.071 2.094l-0.046 0.047c-0.809-0.091-2.718-0.135-4.011 1.159-0.121 0.12-0.196 0.287-0.196 0.471s0.075 0.351 0.196 0.471l7.542 7.542c0.12 0.121 0.287 0.196 0.471 0.196s0.351-0.075 0.471-0.196l0-0c1.303-1.302 1.263-3.209 1.178-4.007l2.123-2.122c2.127-2.127 1.16-6.121 1.118-6.29-0.062-0.239-0.246-0.423-0.481-0.483l-0.005-0.001zM12.371 7.421l-2.357 2.357c-0.12 0.121-0.195 0.287-0.195 0.471 0 0.046 0.005 0.092 0.014 0.135l-0.001-0.004c0.003 0.017 0.271 1.495-0.357 2.629l-6.463-6.463c1.133-0.625 2.627-0.336 2.632-0.336 0.22 0.047 0.456-0.024 0.615-0.189 0.002-0.002 0.937-0.969 2.341-2.373 0.812-0.812 2.114-0.983 3.064-0.983 0.631 0 1.195 0.074 1.555 0.135 0.163 0.954 0.417 3.355-0.847 4.619z"></path>
<path d="M11.819 5.536c0 0.736-0.597 1.333-1.333 1.333s-1.333-0.597-1.333-1.333c0-0.736 0.597-1.333 1.333-1.333s1.333 0.597 1.333 1.333z"></path>
<path d="M3.333 10.667c-1.333 0.667-1.333 3.333-1.333 3.333s2 0 3.333-1.333l-2-2z"></path>
</svg>
