<!-- Generated by IcoMoon.io -->
<svg version="1.1" xmlns="http://www.w3.org/2000/svg" width="16" height="16" viewBox="0 0 16 16">
<title>bx-ribbon</title>
<path d="M9.085 9.966c1.227-1.086 2.249-2.447 2.249-3.966 0-2.458-1.722-3.333-3.333-3.333s-3.333 0.875-3.333 3.333c0 1.519 1.021 2.879 2.247 3.965-0.959 0.655-1.921 1.159-2.518 1.425l0.542 1.219c0.123-0.055 1.574-0.709 3.062-1.781 1.488 1.071 2.939 1.725 3.063 1.781l0.542-1.219c-0.598-0.265-1.56-0.769-2.52-1.425zM7.999 9.149c-1.107-0.929-1.999-2.032-1.999-3.149 0-1.653 1.088-2 2-2s2 0.347 2 2c0 1.115-0.893 2.219-2.001 3.149z"></path>
</svg>
