<!-- Generated by IcoMoon.io -->
<svg version="1.1" xmlns="http://www.w3.org/2000/svg" width="16" height="16" viewBox="0 0 16 16">
<title>bx-radar</title>
<path d="M8 1.333c-3.614 0-6.667 3.053-6.667 6.667s3.053 6.667 6.667 6.667 6.667-3.053 6.667-6.667-3.053-6.667-6.667-6.667zM8 13.333c-2.891 0-5.333-2.443-5.333-5.333 0-2.665 2.077-4.945 4.667-5.285v1.345c-1.889 0.319-3.333 1.962-3.333 3.94 0 2.206 1.794 4 4 4 1.063 0 2.067-0.417 2.825-1.175l-0.943-0.943c-0.48 0.485-1.146 0.785-1.882 0.785-0 0-0 0-0 0h0c-1.471 0-2.667-1.196-2.667-2.667 0-1.239 0.853-2.274 2-2.572v1.431c-0.393 0.235-0.667 0.662-0.667 1.141 0 0.721 0.613 1.333 1.333 1.333s1.333-0.613 1.333-1.333c0-0.479-0.273-0.906-0.667-1.141v-4.143c2.59 0.34 4.667 2.619 4.667 5.285 0 2.891-2.442 5.333-5.333 5.333z"></path>
</svg>
