<svg xmlns="http://www.w3.org/2000/svg" width="24" height="24"><path fill="none" d="M12 4C9.757 4 8 5.757 8 8c.001.09.037 2.134 2.205 4.291L12 14.205l1.771-1.889C15.964 9.961 16 8.086 16 8.008 16 5.757 14.243 4 12 4z"/><path d="M12 2C8.636 2 6 4.636 6 7.986c-.002.119-.007 2.935 2.771 5.697l1.858 1.983-4.358 4.649 1.459 1.367L12 17.129l4.271 4.555 1.459-1.367-4.359-4.649 1.861-1.985C18.021 10.685 18.002 8.089 18 8c0-3.364-2.636-6-6-6zm1.771 10.316L12 14.205l-1.795-1.914C8.037 10.134 8.001 8.09 8 8c0-2.243 1.757-4 4-4s4 1.757 4 4.008c0 .078-.036 1.953-2.229 4.308z"/></svg>