<!-- Generated by IcoMoon.io -->
<svg version="1.1" xmlns="http://www.w3.org/2000/svg" width="16" height="16" viewBox="0 0 16 16">
<title>bx-right-top-arrow-circle</title>
<path d="M8 1.338c-0.007-0-0.016-0-0.025-0-1.832 0-3.491 0.745-4.689 1.948l-0 0c-2.599 2.599-2.599 6.829 0 9.428 1.257 1.257 2.931 1.949 4.714 1.949s3.458-0.692 4.714-1.949c2.599-2.599 2.599-6.828 0-9.428-1.199-1.203-2.857-1.948-4.689-1.948-0.009 0-0.017 0-0.026 0h0.001zM11.771 11.771c-1.005 1.005-2.345 1.559-3.771 1.559s-2.766-0.553-3.771-1.559c-2.079-2.079-2.079-5.463 0-7.542 1.005-1.005 2.343-1.557 3.771-1.557s2.767 0.553 3.771 1.557c2.079 2.079 2.079 5.463 0 7.542z"></path>
<path d="M7.641 7.417l-2.112 2.112 0.943 0.943 2.112-2.112 1.417 1.417v-3.776h-3.775z"></path>
</svg>
