<svg xmlns="http://www.w3.org/2000/svg" width="24" height="24" viewBox="0 0 24 24"><path d="M21 12.989l-.006-.305-2 .063L19 13c0 1.103-.249 2.156-.739 3.135l1.787.896C20.68 15.772 21 14.416 21 12.989zM15.141 21.436c1.216-.452 2.3-1.149 3.22-2.069.153-.152.3-.31.44-.473l-1.514-1.307c-.107.124-.219.244-.338.362-.718.718-1.562 1.26-2.506 1.611L15.141 21.436zM3.041 13.844c.011.116.031.23.046.345.018.134.03.27.054.401l.006-.001c.132.744.358 1.461.669 2.142L3.81 16.733c.029.064.065.125.097.188.074.152.148.305.231.453.057.102.119.199.18.299.082.135.163.27.253.4.085.125.179.244.271.364.076.1.147.202.228.299.18.216.367.425.567.625l0 0c.001.001.001.001.001.001.274.274.567.521.869.755.034.026.063.059.097.084l.006-.008c1.313.989 2.856 1.602 4.501 1.763C11.404 21.985 11.701 22 12 22c.323 0 .643-.018.956-.051l-.209-1.988C12.471 19.989 12.19 20 11.91 19.996c-.039-.001-.078-.005-.117-.006-.238-.008-.477-.026-.714-.058-.052-.007-.104-.015-.155-.022-.229-.035-.455-.082-.679-.14-.049-.012-.098-.022-.146-.036-.266-.074-.528-.161-.783-.267v.001c-.564-.234-1.095-.55-1.585-.929-.238-.184-.469-.378-.681-.591-.28-.28-.531-.586-.759-.906-.02-.028-.042-.055-.062-.083-.215-.313-.401-.646-.564-.992-.27-.573-.459-1.179-.563-1.81C5.039 13.777 5 13.389 5 13c0-1.87.729-3.627 2.051-4.949S10.13 6 12 6v2l3.975-3L12 2v2C9.596 4 7.336 4.937 5.637 6.637 3.937 8.336 3 10.596 3 13 3 13.281 3.015 13.563 3.041 13.844zM16.949 8.051c.831.83 1.442 1.858 1.769 2.976l1.92-.561c-.421-1.439-1.207-2.764-2.274-3.829L16.949 8.051z"/></svg>