<!-- Generated by IcoMoon.io -->
<svg version="1.1" xmlns="http://www.w3.org/2000/svg" width="16" height="16" viewBox="0 0 16 16">
<title>bx-radio</title>
<path d="M12.667 10c0 0.736-0.597 1.333-1.333 1.333s-1.333-0.597-1.333-1.333c0-0.736 0.597-1.333 1.333-1.333s1.333 0.597 1.333 1.333z"></path>
<path d="M14.209 3.375l0.003-0.007-6-2-0.422 1.264 2.103 0.701h-7.893c-0.368 0-0.667 0.298-0.667 0.667v0 8.667c0 0.368 0.298 0.667 0.667 0.667v0h12c0.368 0 0.667-0.298 0.667-0.667v0-8.667c-0.001-0.291-0.191-0.537-0.453-0.623l-0.005-0.001zM13.333 4.667v2h-10.667v-2h10.667zM2.667 12v-4h10.667v4h-10.667z"></path>
<path d="M4 9.333h1.333v1.333h-1.333zM6 9.333h1.333v1.333h-1.333z"></path>
</svg>
