<svg xmlns="http://www.w3.org/2000/svg" width="24" height="24"><path fill="none" d="M16.586 8L14 5.414V8z"/><path fill="none" d="M13 10a1 1 0 0 1-1-1V4H6v16h12V10h-5zm-3 8H8v-8h2v8zm3 0h-2v-6h2v6zm3 0h-2v-4h2v4z"/><path d="M20 21V9c0-.021-.011-.04-.013-.062a.952.952 0 0 0-.051-.259c-.011-.032-.02-.063-.033-.094a.997.997 0 0 0-.196-.293l-6-6a1.002 1.002 0 0 0-.294-.196c-.029-.014-.06-.021-.09-.032a.998.998 0 0 0-.265-.053C13.039 2.011 13.021 2 13 2H5a1 1 0 0 0-1 1v18a1 1 0 0 0 1 1h14a1 1 0 0 0 1-1zM16.586 8H14V5.414L16.586 8zM6 20V4h6v5a1 1 0 0 0 1 1h5v10H6z"/><path d="M8 10h2v8H8zM11 12h2v6h-2zM14 14h2v4h-2z"/></svg>