<svg xmlns="http://www.w3.org/2000/svg" width="24" height="24" viewBox="0 0 24 24"><path d="M21.647,3.111c-0.089-0.358-0.369-0.639-0.728-0.728C20.857,2.368,19.364,2,17.496,2c-2.585,0-4.663,0.713-6.011,2.061 C9.997,5.549,8.857,6.712,8.31,7.273C7.096,7.136,4.233,7.07,2.293,9.011C2.105,9.198,2,9.452,2,9.718s0.105,0.52,0.293,0.707 l11.313,11.313c0.188,0.188,0.441,0.293,0.707,0.293s0.52-0.105,0.707-0.293c1.954-1.953,1.894-4.814,1.767-6.01l3.184-3.183 C23.162,9.354,21.711,3.364,21.647,3.111z M15.021,14.667c-0.236,0.236-0.339,0.575-0.273,0.903 c0.005,0.025,0.407,2.242-0.536,3.944L4.517,9.82c1.7-0.938,3.941-0.504,3.948-0.504c0.33,0.07,0.684-0.036,0.923-0.283 c0.003-0.003,1.406-1.453,3.512-3.559C14.118,4.256,16.071,4,17.496,4c0.947,0,1.793,0.111,2.332,0.203 c0.244,1.431,0.625,5.032-1.271,6.929L15.021,14.667z"/><circle cx="15.728" cy="8.304" r="2"/><path d="M3,21c0,0,3,0,5-2l-3-3C3,17,3,21,3,21z"/></svg>