<!-- Generated by IcoMoon.io -->
<svg version="1.1" xmlns="http://www.w3.org/2000/svg" width="16" height="16" viewBox="0 0 16 16">
<title>bx-shopping-bag-alt</title>
<path d="M14 2.667h-12c-0.368 0-0.667 0.298-0.667 0.667v0 10c0 0.368 0.298 0.667 0.667 0.667v0h12c0.368 0 0.667-0.298 0.667-0.667v0-10c0-0.368-0.298-0.667-0.667-0.667v0zM13.333 12.667h-10.667v-8.667h10.667v8.667z"></path>
<path d="M7.983 9.333c2.218-0.003 4.015-1.8 4.017-4.017v-0h-1.333c-0.002 1.482-1.202 2.682-2.684 2.684h-0c-1.482-0.002-2.682-1.202-2.684-2.684v-0h-1.333c0.003 2.218 1.8 4.015 4.017 4.017h0z"></path>
</svg>
