<!-- Generated by IcoMoon.io -->
<svg version="1.1" xmlns="http://www.w3.org/2000/svg" width="16" height="16" viewBox="0 0 16 16">
<title>bx-snowflake</title>
<path d="M13.805 5.805l-0.943-0.943-2.471 2.471h-1.724v-1.724l2.471-2.471-0.943-0.943-1.529 1.529v-2.391h-1.333v2.391l-1.529-1.529-0.943 0.943 2.471 2.471v1.724h-1.724l-2.471-2.471-0.943 0.943 1.529 1.529h-2.391v1.333h2.391l-1.529 1.529 0.943 0.943 2.471-2.471h1.724v1.724l-2.471 2.471 0.943 0.943 1.529-1.529v2.391h1.333v-2.391l1.529 1.529 0.943-0.943-2.471-2.471v-1.724h1.724l2.471 2.471 0.943-0.943-1.529-1.529h2.391v-1.333h-2.391z"></path>
</svg>
