<!-- Generated by IcoMoon.io -->
<svg version="1.1" xmlns="http://www.w3.org/2000/svg" width="16" height="16" viewBox="0 0 16 16">
<title>bx-store</title>
<path d="M13.263 3.035c-0.112-0.22-0.337-0.369-0.597-0.369v0-1.333h-9.333v1.333c-0.253 0-0.483 0.143-0.597 0.369l-1.333 2.667c-0.044 0.087-0.070 0.189-0.070 0.298 0 0 0 0 0 0v-0c0.003 0.671 0.255 1.283 0.669 1.748l-0.002-0.003v6.255c0 0.368 0.298 0.667 0.667 0.667v0h10.667c0.368 0 0.667-0.298 0.667-0.667v0-6.255c0.411-0.462 0.664-1.074 0.667-1.745v-0.001c0-0.103-0.024-0.206-0.070-0.298l-1.333-2.667zM13.325 6.143c-0.075 0.672-0.64 1.19-1.325 1.191h-0c-0.735 0-1.333-0.598-1.333-1.333 0-0.056-0.019-0.106-0.032-0.159l0.012-0.003-0.46-1.839h2.068l1.071 2.143zM7.187 4h1.626l0.514 2.057c-0.030 0.708-0.611 1.276-1.327 1.276s-1.297-0.568-1.327-1.276l0.514-2.057zM3.745 4h2.068l-0.46 1.839 0.012 0.003c-0.013 0.053-0.032 0.103-0.032 0.159 0 0.735-0.598 1.333-1.333 1.333-0.686-0.001-1.25-0.519-1.325-1.185l-0.001-0.006 1.071-2.143zM6.667 13.333v-2h2.667v2h-2.667zM10.667 13.333v-2.667c0-0.368-0.298-0.667-0.667-0.667v0h-4c-0.368 0-0.667 0.298-0.667 0.667v0 2.667h-2v-4.761c0.214 0.055 0.435 0.095 0.667 0.095 0 0 0.001 0 0.001 0 0.795 0 1.509-0.349 1.996-0.902l0.003-0.003c0.489 0.555 1.205 0.905 2 0.905s1.511-0.35 2-0.905c0.49 0.556 1.204 0.905 1.999 0.905 0 0 0.001 0 0.001 0h-0c0.232 0 0.453-0.039 0.667-0.095v4.761h-2z"></path>
</svg>
