<!-- Generated by IcoMoon.io -->
<svg version="1.1" xmlns="http://www.w3.org/2000/svg" width="16" height="16" viewBox="0 0 16 16">
<title>bx-select-arrows</title>
<path d="M4.667 7.333h6.667c0.368-0.001 0.666-0.299 0.666-0.667 0-0.145-0.046-0.279-0.125-0.389l0.001 0.002-3.333-4.667c-0.25-0.351-0.835-0.351-1.085 0l-3.333 4.667c-0.078 0.108-0.124 0.242-0.124 0.387 0 0.368 0.298 0.666 0.666 0.667h0zM8 3.147l2.038 2.853h-4.076l2.038-2.853zM4.125 9.721l3.333 4.667c0.122 0.17 0.319 0.28 0.542 0.28s0.42-0.11 0.541-0.278l0.001-0.002 3.333-4.667c0.078-0.108 0.124-0.242 0.124-0.387 0-0.368-0.298-0.666-0.666-0.667h-6.667c-0.25 0-0.479 0.139-0.593 0.361-0.046 0.088-0.073 0.193-0.073 0.304 0 0.146 0.047 0.281 0.126 0.39l-0.001-0.002zM10.038 10l-2.038 2.853-2.038-2.853h4.076z"></path>
</svg>
