<!-- Generated by IcoMoon.io -->
<svg version="1.1" xmlns="http://www.w3.org/2000/svg" width="16" height="16" viewBox="0 0 16 16">
<title>bx-selection</title>
<path d="M13.333 6c0.368 0 0.667-0.298 0.667-0.667v0-2.667c0-0.368-0.298-0.667-0.667-0.667v0h-2.667c-0.368 0-0.667 0.298-0.667 0.667v0 0.667h-4v-0.667c0-0.368-0.298-0.667-0.667-0.667v0h-2.667c-0.368 0-0.667 0.298-0.667 0.667v0 2.667c0 0.368 0.298 0.667 0.667 0.667v0h0.667v4h-0.667c-0.368 0-0.667 0.298-0.667 0.667v0 2.667c0 0.368 0.298 0.667 0.667 0.667v0h2.667c0.368 0 0.667-0.298 0.667-0.667v0-0.667h4v0.667c0 0.368 0.298 0.667 0.667 0.667v0h2.667c0.368 0 0.667-0.298 0.667-0.667v0-2.667c0-0.368-0.298-0.667-0.667-0.667v0h-0.667v-4h0.667zM11.333 3.333h1.333v1.333h-1.333v-1.333zM3.333 3.333h1.333v1.333h-1.333v-1.333zM4.667 12.667h-1.333v-1.333h1.333v1.333zM12.667 12.667h-1.333v-1.333h1.333v1.333zM11.333 10h-0.667c-0.368 0-0.667 0.298-0.667 0.667v0 0.667h-4v-0.667c0-0.368-0.298-0.667-0.667-0.667v0h-0.667v-4h0.667c0.368 0 0.667-0.298 0.667-0.667v0-0.667h4v0.667c0 0.368 0.298 0.667 0.667 0.667v0h0.667v4z"></path>
</svg>
