<!-- Generated by IcoMoon.io -->
<svg version="1.1" xmlns="http://www.w3.org/2000/svg" width="16" height="16" viewBox="0 0 16 16">
<title>bx-strikethrough</title>
<path d="M5.333 5.667c0-0.412 0-1.667 2.667-1.667 1.867 0 1.993 1.119 2 1.343l0.667-0.009h0.667c0-0.923-0.697-2.667-3.333-2.667-3.611 0-4 2.098-4 3 0 0.485 0.099 1.111 0.491 1.667h-1.824v1.333h10.667v-1.333h-5.333c-2.667 0-2.667-1.211-2.667-1.667zM8 12c-2.529 0-2.66-1.21-2.667-1.333h-1.333c0 0.027 0.046 2.667 4 2.667 3.481 0 4-1.879 4-3 0-0.097-0.006-0.211-0.019-0.333h-1.337c0.021 0.133 0.023 0.251 0.023 0.333 0 0.456 0 1.667-2.667 1.667z"></path>
</svg>
