<svg xmlns="http://www.w3.org/2000/svg" width="24" height="24"><path fill="none" d="M12 4c-5.252 0-8 3.521-8 7 0 1.583.865 2.989 2.572 4.18A1 1 0 0 1 7 16v3h2v-3h2v3h2v-3h2v3h2v-3a1 1 0 0 1 .428-.82C19.135 13.989 20 12.583 20 11c0-3.479-2.748-7-8-7zm-4 9c-1.122 0-2-1.098-2-2.5S6.878 8 8 8s2 1.098 2 2.5S9.122 13 8 13zm8 0c-1.121 0-2-1.098-2-2.5S14.879 8 16 8s2 1.098 2 2.5-.879 2.5-2 2.5z"/><path d="M12 2C5.505 2 2 6.637 2 11c0 2.128 1.009 3.979 3 5.507V20a1 1 0 0 0 1 1h12a1 1 0 0 0 1-1v-3.493c1.991-1.528 3-3.379 3-5.507 0-4.363-3.505-9-10-9zm5.428 13.18A1 1 0 0 0 17 16v3h-2v-3h-2v3h-2v-3H9v3H7v-3a1 1 0 0 0-.428-.82C4.865 13.989 4 12.583 4 11c0-3.479 2.748-7 8-7s8 3.521 8 7c0 1.583-.865 2.989-2.572 4.18z"/><path d="M8 8c-1.122 0-2 1.098-2 2.5S6.878 13 8 13s2-1.098 2-2.5S9.122 8 8 8zM16 8c-1.121 0-2 1.098-2 2.5s.879 2.5 2 2.5 2-1.098 2-2.5S17.121 8 16 8z"/></svg>