<!-- Generated by IcoMoon.io -->
<svg version="1.1" xmlns="http://www.w3.org/2000/svg" width="16" height="16" viewBox="0 0 16 16">
<title>bx-save</title>
<path d="M2.667 14h10.667c0.368 0 0.667-0.298 0.667-0.667v0-8c0-0 0-0 0-0.001 0-0.184-0.075-0.35-0.195-0.471l-2.667-2.667c-0.12-0.121-0.287-0.195-0.47-0.195-0 0-0.001 0-0.001 0h-8c-0.368 0-0.667 0.298-0.667 0.667v0 10.667c0 0.368 0.298 0.667 0.667 0.667v0zM10 12.667h-4v-2.667h4v2.667zM8.667 4.667h-1.333v-1.333h1.333v1.333zM3.333 3.333h1.333v2.667h5.333v-2.667h0.391l2.276 2.276v7.057h-1.333v-3.333c0-0.368-0.298-0.667-0.667-0.667v0h-5.333c-0.368 0-0.667 0.298-0.667 0.667v0 3.333h-1.333v-9.333z"></path>
</svg>
