<!-- Generated by IcoMoon.io -->
<svg version="1.1" xmlns="http://www.w3.org/2000/svg" width="16" height="16" viewBox="0 0 16 16">
<title>bx-spreadsheet</title>
<path d="M14 13.333v-10.667c0-0.368-0.298-0.667-0.667-0.667v0h-10.667c-0.368 0-0.667 0.298-0.667 0.667v0 10.667c0 0.368 0.298 0.667 0.667 0.667v0h10.667c0.368 0 0.667-0.298 0.667-0.667v0zM12.667 12.667h-9.333v-9.333h9.333v9.333z"></path>
<path d="M4.667 4.667h1.332v1.333h-1.332zM7.333 4.667h4v1.333h-4zM4.667 7.333h1.332v1.333h-1.332zM7.333 7.333h4v1.333h-4zM4.667 10h1.332v1.333h-1.332zM7.333 10h4v1.333h-4z"></path>
</svg>
