<svg xmlns="http://www.w3.org/2000/svg" width="24" height="24" viewBox="0 0 24 24"><path d="M18.937 4.648A1.002 1.002 0 0 0 18 4h-2v2h1.307l1.38 3.679A4.443 4.443 0 0 0 17.5 9.5c-2.137 0-3.922 1.5-4.379 3.5h-2.242c-.457-2-2.242-3.5-4.379-3.5-.413 0-.806.074-1.187.179L6.693 6H8V4H6c-.417 0-.79.259-.937.648l-3 8A1.01 1.01 0 0 0 2 13v.938h.006c0 .021-.006.041-.006.062 0 2.481 2.019 4.5 4.5 4.5 2.137 0 3.922-1.5 4.379-3.5h2.242c.457 2 2.242 3.5 4.379 3.5 2.481 0 4.5-2.019 4.5-4.5 0-.021-.006-.041-.006-.063H22V13c0-.12-.021-.239-.063-.352l-3-8zM6.5 16.5C5.121 16.5 4 15.379 4 14s1.121-2.5 2.5-2.5S9 12.621 9 14s-1.121 2.5-2.5 2.5zm11 0c-1.379 0-2.5-1.121-2.5-2.5s1.121-2.5 2.5-2.5S20 12.621 20 14s-1.121 2.5-2.5 2.5z"/></svg>