<svg xmlns="http://www.w3.org/2000/svg" width="24" height="24" viewBox="0 0 24 24"><path d="M22,8c0-0.182-0.049-0.359-0.143-0.515l-3-5C18.677,2.185,18.352,2,18,2H6C5.648,2,5.323,2.185,5.143,2.485l-3,5 C2.049,7.641,2,7.818,2,8c0,1.006,0.386,1.914,1,2.618V21c0,0.553,0.447,1,1,1h5h6h5c0.553,0,1-0.447,1-1V10.618 C21.614,9.914,22,9.006,22,8z M19.984,8.251C19.86,9.235,19.018,10,18,10c-1.103,0-2-0.897-2-2c0-0.068-0.025-0.128-0.039-0.192 l0.02-0.004L15.22,4h2.214L19.984,8.251z M10.819,4h2.361l0.813,4.065C13.958,9.137,13.08,10,12,10s-1.958-0.863-1.993-1.935 L10.819,4z M6.566,4H8.78L8.02,7.804l0.02,0.004C8.025,7.872,8,7.932,8,8c0,1.103-0.897,2-2,2c-1.018,0-1.86-0.765-1.984-1.749 L6.566,4z M10,20v-4h4v4H10z M16,20v-5c0-0.553-0.447-1-1-1H9c-0.553,0-1,0.447-1,1v5H5v-8.142C5.321,11.941,5.652,12,6,12 c1.193,0,2.267-0.525,3-1.357C9.733,11.475,10.807,12,12,12s2.267-0.525,3-1.357C15.733,11.475,16.807,12,18,12 c0.348,0,0.679-0.059,1-0.142V20H16z"/></svg>