<!-- Generated by IcoMoon.io -->
<svg version="1.1" xmlns="http://www.w3.org/2000/svg" width="16" height="16" viewBox="0 0 16 16">
<title>bx-swim</title>
<path d="M13.805 3.485c0 0.737-0.598 1.335-1.335 1.335s-1.335-0.598-1.335-1.335c0-0.737 0.598-1.335 1.335-1.335s1.335 0.598 1.335 1.335z"></path>
<path d="M11.331 9.333c-0.599 0-0.859-0.207-1.251-0.521-0.453-0.362-1.017-0.813-2.085-0.813s-1.63 0.451-2.083 0.813c-0.392 0.313-0.65 0.521-1.25 0.521-0.599 0-0.857-0.207-1.249-0.52-0.453-0.363-1.015-0.813-2.081-0.813v1.333c0.598 0 0.857 0.207 1.248 0.52 0.453 0.363 1.015 0.813 2.082 0.813s1.631-0.451 2.083-0.813c0.391-0.313 0.651-0.52 1.249-0.52 0.6 0 0.874 0.219 1.252 0.521 0.453 0.362 1.016 0.813 2.083 0.813s1.631-0.451 2.085-0.813c0.392-0.313 0.651-0.521 1.251-0.521v-1.333c-1.067 0-1.631 0.451-2.083 0.813-0.378 0.302-0.652 0.521-1.252 0.521zM11.331 12.667c-0.599 0-0.859-0.207-1.251-0.521-0.453-0.362-1.017-0.813-2.085-0.813s-1.63 0.451-2.083 0.813c-0.392 0.313-0.65 0.521-1.25 0.521-0.599 0-0.857-0.207-1.249-0.52-0.453-0.363-1.015-0.813-2.081-0.813v1.333c0.598 0 0.857 0.207 1.248 0.52 0.453 0.363 1.015 0.813 2.082 0.813s1.631-0.451 2.083-0.813c0.391-0.313 0.651-0.52 1.249-0.52 0.6 0 0.874 0.219 1.252 0.521 0.453 0.362 1.016 0.813 2.083 0.813s1.631-0.451 2.085-0.813c0.392-0.313 0.651-0.521 1.251-0.521v-1.333c-1.067 0-1.631 0.451-2.083 0.813-0.378 0.302-0.652 0.521-1.252 0.521zM7.996 6.817c0.489 0 0.869 0.097 1.184 0.234l0.958-0.958 1.907 1.907c0.189-0.093 0.351-0.221 0.539-0.371 0.167-0.133 0.349-0.279 0.567-0.409l-3.541-3.541c-0.12-0.121-0.287-0.195-0.471-0.195-0 0-0 0-0.001 0h-3.333v1.333h3.057l0.333 0.333-1.709 1.709c0.157-0.024 0.323-0.041 0.509-0.041z"></path>
</svg>
