<!-- Generated by IcoMoon.io -->
<svg version="1.1" xmlns="http://www.w3.org/2000/svg" width="16" height="16" viewBox="0 0 16 16">
<title>bx-sun</title>
<path d="M5.329 8c0 1.473 1.199 2.671 2.671 2.671s2.671-1.199 2.671-2.671-1.199-2.671-2.671-2.671-2.671 1.199-2.671 2.671zM8 6.662c0.737 0 1.338 0.6 1.338 1.338s-0.6 1.338-1.338 1.338-1.338-0.601-1.338-1.338 0.601-1.338 1.338-1.338zM11.529 12.471l-1.333-1.333 0.943-0.943 1.333 1.333zM4.862 5.805l-1.333-1.333 0.943-0.943 1.333 1.333zM2.342 7.333h1.886v1.333h-1.886zM11.77 7.333h1.885v1.333h-1.885zM7.332 2.343h1.333v1.886h-1.333zM7.332 11.771h1.333v1.885h-1.333zM11.137 5.805l-0.943-0.943 1.334-1.333 0.943 0.943zM4.471 12.471l-0.943-0.943 1.333-1.333 0.943 0.943z"></path>
</svg>
