<!-- Generated by IcoMoon.io -->
<svg version="1.1" xmlns="http://www.w3.org/2000/svg" width="16" height="16" viewBox="0 0 16 16">
<title>bx-smiley-happy</title>
<path d="M6.667 6.667c0 0.736-0.448 1.333-1 1.333s-1-0.597-1-1.333c0-0.736 0.448-1.333 1-1.333s1 0.597 1 1.333z"></path>
<path d="M11.333 6.667c0 0.736-0.448 1.333-1 1.333s-1-0.597-1-1.333c0-0.736 0.448-1.333 1-1.333s1 0.597 1 1.333z"></path>
<path d="M8 1.333c-3.676 0-6.667 2.991-6.667 6.667s2.991 6.667 6.667 6.667 6.667-2.991 6.667-6.667-2.991-6.667-6.667-6.667zM8 13.333c-2.941 0-5.333-2.393-5.333-5.333s2.393-5.333 5.333-5.333 5.333 2.393 5.333 5.333-2.393 5.333-5.333 5.333z"></path>
<path d="M8 10.667c-0.003 0-0.007 0-0.010 0-0.867 0-1.636-0.417-2.119-1.060l-0.005-0.007-1.066 0.801c0.731 0.975 1.885 1.599 3.184 1.599 0.006 0 0.011-0 0.017-0h-0.001c0.004 0 0.010 0 0.015 0 1.3 0 2.453-0.624 3.178-1.589l0.007-0.010-1.067-0.801c-0.488 0.65-1.257 1.067-2.123 1.067-0.004 0-0.007 0-0.011-0h0.001z"></path>
</svg>
