<!-- Generated by IcoMoon.io -->
<svg version="1.1" xmlns="http://www.w3.org/2000/svg" width="16" height="16" viewBox="0 0 16 16">
<title>bx-sync</title>
<path d="M8.667 4.737c1.5 0.319 2.667 1.683 2.667 3.263 0 0.944-0.334 1.789-0.941 2.379l0.93 0.955c0.867-0.844 1.344-2.028 1.344-3.335 0-2.303-1.773-4.275-4-4.611v-2.055l-2.667 2.667 2.667 2.667v-1.929zM7.399 12.621v1.965l2.667-2.667-2.667-2.667v2.018c-1.531-0.293-2.732-1.669-2.732-3.271 0-0.944 0.334-1.789 0.941-2.38l-0.929-0.955c-0.867 0.844-1.345 2.029-1.345 3.335 0 2.326 1.808 4.315 4.065 4.621z"></path>
</svg>
