<svg xmlns="http://www.w3.org/2000/svg" width="24" height="24"><path fill="none" d="M12 20c4.411 0 8-3.589 8-8s-3.589-8-8-8-8 3.589-8 8 3.589 8 8 8zm3.5-12c.828 0 1.5.896 1.5 2s-.672 2-1.5 2-1.5-.896-1.5-2 .672-2 1.5-2zm.5 7v2H8v-2h8zM8.5 8c.828 0 1.5.896 1.5 2s-.672 2-1.5 2S7 11.104 7 10s.672-2 1.5-2z"/><ellipse cx="8.5" cy="10" rx="1.5" ry="2"/><ellipse cx="15.5" cy="10" rx="1.5" ry="2"/><path d="M12 22c5.514 0 10-4.486 10-10S17.514 2 12 2 2 6.486 2 12s4.486 10 10 10zm0-18c4.411 0 8 3.589 8 8s-3.589 8-8 8-8-3.589-8-8 3.589-8 8-8z"/><path d="M8 15h8v2H8z"/></svg>