<svg xmlns="http://www.w3.org/2000/svg" width="24" height="24"><path fill="none" d="M15.28 6l.689 2.758-.018.004c.021.079.049.154.049.238 0 1.103.897 2 2 2 1.03 0 1.882-.784 1.988-1.786L18.382 6H15.28zM6 11c1.103 0 2-.897 2-2 0-.084.028-.159.048-.238l-.018-.004L8.72 6H5.618L4.012 9.214A2.002 2.002 0 0 0 6 11zM10 17h4v3h-4z"/><path fill="none" d="M18 13a3.99 3.99 0 0 1-3-1.357c-.733.832-1.807 1.357-3 1.357s-2.267-.525-3-1.357A3.99 3.99 0 0 1 6 13c-.348 0-.679-.059-1-.142V20h3v-4a1 1 0 0 1 1-1h6a1 1 0 0 1 1 1v4h3v-7.142A3.971 3.971 0 0 1 18 13zM12 11a1.998 1.998 0 0 0 1.991-1.914L13.22 6h-2.44l-.771 3.086A1.998 1.998 0 0 0 12 11z"/><path d="M19.895 4.553A1.001 1.001 0 0 0 19 4V2H5v2c-.379 0-.725.214-.895.553l-2 4A1.002 1.002 0 0 0 2 9a3.97 3.97 0 0 0 1 2.618V21a1 1 0 0 0 1 1h16a1 1 0 0 0 1-1v-9.382A3.97 3.97 0 0 0 22 9c0-.155-.036-.309-.105-.447l-2-4zm.093 4.661A2.002 2.002 0 0 1 18 11c-1.103 0-2-.897-2-2 0-.084-.028-.159-.048-.238l.018-.004L15.28 6h3.102l1.606 3.214zM10.78 6h2.439l.771 3.086C13.945 10.148 13.073 11 12 11s-1.945-.852-1.991-1.914L10.78 6zM5.618 6H8.72l-.69 2.758.018.004C8.028 8.841 8 8.916 8 9c0 1.103-.897 2-2 2a2.002 2.002 0 0 1-1.988-1.786L5.618 6zM10 20v-3h4v3h-4zm6 0v-4a1 1 0 0 0-1-1H9a1 1 0 0 0-1 1v4H5v-7.142c.321.083.652.142 1 .142a3.99 3.99 0 0 0 3-1.357c.733.832 1.807 1.357 3 1.357s2.267-.525 3-1.357A3.99 3.99 0 0 0 18 13c.348 0 .679-.059 1-.142V20h-3z"/></svg>