<!-- Generated by IcoMoon.io -->
<svg version="1.1" xmlns="http://www.w3.org/2000/svg" width="16" height="16" viewBox="0 0 16 16">
<title>bx-station</title>
<path d="M9.333 8c0 0.736-0.597 1.333-1.333 1.333s-1.333-0.597-1.333-1.333c0-0.736 0.597-1.333 1.333-1.333s1.333 0.597 1.333 1.333z"></path>
<path d="M5.172 10.829l0.943-0.943c-0.483-0.48-0.782-1.144-0.782-1.878 0-0.003 0-0.006 0-0.010v0c0-0.712 0.278-1.381 0.782-1.883l-0.943-0.944c-0.725 0.72-1.173 1.717-1.173 2.818 0 0.003 0 0.006 0 0.009v-0c0 1.069 0.417 2.075 1.173 2.831zM10.828 10.829c0.724-0.72 1.172-1.716 1.172-2.818 0-0.004 0-0.008-0-0.011v0.001c0-0.003 0-0.007 0-0.011 0-1.101-0.448-2.098-1.172-2.818l-0-0-0.943 0.943c0.504 0.504 0.781 1.174 0.781 1.886s-0.277 1.382-0.781 1.886l0.943 0.943z"></path>
<path d="M4.229 11.771c-0.966-0.96-1.563-2.29-1.563-3.759 0-0.005 0-0.009 0-0.014v0.001c0-1.425 0.555-2.763 1.563-3.769l-0.943-0.943c-1.26 1.257-1.954 2.931-1.954 4.713s0.694 3.455 1.954 4.715l0.943-0.943zM11.771 4.229c0.965 0.96 1.562 2.289 1.562 3.757 0 0.005 0 0.010-0 0.015v-0.001c0 0.004 0 0.009 0 0.015 0 1.468-0.597 2.797-1.562 3.757l-0 0 0.943 0.943c1.206-1.2 1.953-2.86 1.953-4.695 0-0.007-0-0.013-0-0.020v0.001c0-0.005 0-0.012 0-0.018 0-1.835-0.746-3.496-1.952-4.696l-0-0-0.943 0.943z"></path>
</svg>
