<!-- Generated by IcoMoon.io -->
<svg version="1.1" xmlns="http://www.w3.org/2000/svg" width="16" height="16" viewBox="0 0 16 16">
<title>bx-skull</title>
<path d="M8 1.333c-4.33 0-6.667 3.091-6.667 6 0 1.419 0.673 2.653 2 3.671v2.329c0 0.368 0.298 0.667 0.667 0.667v0h8c0.368 0 0.667-0.298 0.667-0.667v0-2.329c1.327-1.019 2-2.253 2-3.671 0-2.909-2.337-6-6.667-6zM11.619 10.12c-0.173 0.122-0.285 0.321-0.285 0.547v2h-1.333v-2h-1.333v2h-1.333v-2h-1.333v2h-1.333v-2c-0-0.225-0.112-0.425-0.283-0.545l-0.002-0.001c-1.138-0.794-1.715-1.731-1.715-2.787 0-2.319 1.832-4.667 5.333-4.667s5.333 2.347 5.333 4.667c0 1.055-0.577 1.993-1.715 2.787z"></path>
<path d="M5.333 5.333c-0.748 0-1.333 0.732-1.333 1.667s0.585 1.667 1.333 1.667 1.333-0.732 1.333-1.667-0.585-1.667-1.333-1.667zM10.667 5.333c-0.747 0-1.333 0.732-1.333 1.667s0.586 1.667 1.333 1.667 1.333-0.732 1.333-1.667-0.586-1.667-1.333-1.667z"></path>
</svg>
