<!-- Generated by IcoMoon.io -->
<svg version="1.1" xmlns="http://www.w3.org/2000/svg" width="16" height="16" viewBox="0 0 16 16">
<title>bx-server</title>
<path d="M14 2h-12c-0.368 0-0.667 0.298-0.667 0.667v0 4c0 0.368 0.298 0.667 0.667 0.667v0h12c0.368 0 0.667-0.298 0.667-0.667v0-4c0-0.368-0.298-0.667-0.667-0.667v0zM13.333 6h-10.667v-2.667h10.667v2.667zM14 8.667h-12c-0.368 0-0.667 0.298-0.667 0.667v0 4c0 0.368 0.298 0.667 0.667 0.667v0h12c0.368 0 0.667-0.298 0.667-0.667v0-4c0-0.368-0.298-0.667-0.667-0.667v0zM13.333 12.667h-10.667v-2.667h10.667v2.667z"></path>
<path d="M11.333 4h1.333v1.333h-1.333zM9.333 4h1.333v1.333h-1.333zM11.333 10.667h1.333v1.333h-1.333zM9.333 10.667h1.333v1.333h-1.333z"></path>
</svg>
