<svg xmlns="http://www.w3.org/2000/svg" width="24" height="24" viewBox="0 0 24 24"><circle cx="19.003" cy="4.998" r="2.002"/><path d="M18.875 13.219C18.308 13.672 17.897 14 16.997 14c-.899 0-1.288-.311-1.876-.781C14.441 12.676 13.596 12 11.994 12c-1.601 0-2.445.676-3.124 1.219C8.282 13.689 7.895 14 6.995 14c-.898 0-1.286-.311-1.873-.78C4.443 12.676 3.6 12 2 12v2c.897 0 1.285.311 1.872.78C4.551 15.324 5.395 16 6.995 16s2.446-.676 3.125-1.22c.587-.47.976-.78 1.874-.78.9 0 1.311.328 1.878.781C14.551 15.324 15.396 16 16.997 16c1.602 0 2.447-.676 3.127-1.219C20.712 14.311 21.101 14 22 14v-2C20.399 12 19.554 12.676 18.875 13.219zM16.997 19c-.899 0-1.288-.311-1.876-.781C14.441 17.676 13.596 17 11.994 17c-1.601 0-2.445.676-3.124 1.219C8.282 18.689 7.895 19 6.995 19c-.898 0-1.286-.311-1.873-.78C4.443 17.676 3.6 17 2 17v2c.897 0 1.285.311 1.872.78C4.551 20.324 5.395 21 6.995 21s2.446-.676 3.125-1.22c.587-.47.976-.78 1.874-.78.9 0 1.311.328 1.878.781C14.551 20.324 15.396 21 16.997 21c1.602 0 2.447-.676 3.127-1.219C20.712 19.311 21.101 19 22 19v-2c-1.601 0-2.446.676-3.125 1.219C18.308 18.672 17.897 19 16.997 19zM9.535 7h3.184l-2.794 3.492c.434-.23.964-.409 1.635-.466l-.037.037c.194-.03.408-.045.63-.052.973.029 1.662.308 2.202.646l1.284-1.605 2.722 2.723c.283-.139.526-.332.808-.557.25-.2.524-.418.85-.614l-2.815-2.807.005-.005-2.5-2.5C14.52 5.105 14.266 5 14 5H9C8.666 5 8.354 5.167 8.168 5.445l-2 3 1.664 1.109L9.535 7z"/></svg>