<!-- Generated by IcoMoon.io -->
<svg version="1.1" xmlns="http://www.w3.org/2000/svg" width="16" height="16" viewBox="0 0 16 16">
<title>bx-show</title>
<path d="M8 6c-1.102 0.008-1.992 0.898-2 1.999v0.001c0 1.095 0.905 2 2 2s2-0.905 2-2c0-1.094-0.906-2-2-2z"></path>
<path d="M8 3.333c-5.089 0-6.618 4.411-6.632 4.456-0.022 0.063-0.034 0.136-0.034 0.211s0.013 0.148 0.036 0.216l-0.001-0.005c0.014 0.044 1.543 4.455 6.632 4.455s6.618-4.411 6.632-4.456c0.022-0.063 0.034-0.136 0.034-0.211s-0.013-0.148-0.036-0.216l0.001 0.005c-0.014-0.044-1.543-4.455-6.632-4.455zM8 11.333c-3.567 0-4.949-2.564-5.284-3.333 0.336-0.772 1.719-3.333 5.284-3.333 3.567 0 4.949 2.564 5.284 3.333-0.336 0.772-1.719 3.333-5.284 3.333z"></path>
</svg>
