<!-- Generated by IcoMoon.io -->
<svg version="1.1" xmlns="http://www.w3.org/2000/svg" width="16" height="16" viewBox="0 0 16 16">
<title>bx-stats</title>
<path d="M13.333 8c-0.169 0.001-0.33 0.034-0.478 0.092l0.009-0.003-1.599-1.309c0.039-0.143 0.067-0.291 0.067-0.447 0-0.924-0.743-1.667-1.667-1.667s-1.667 0.743-1.667 1.667c0 0.264 0.067 0.51 0.175 0.731l-1.939 2.292c-0.070-0.014-0.151-0.022-0.234-0.023l-0.001-0c-0.119 0-0.232 0.020-0.341 0.049l-1.709-1.709c0.030-0.109 0.050-0.221 0.050-0.341 0-0.739-0.595-1.333-1.333-1.333s-1.333 0.595-1.333 1.333 0.595 1.333 1.333 1.333c0.119 0 0.232-0.020 0.341-0.049l1.709 1.709c-0.031 0.102-0.049 0.219-0.050 0.34v0.001c0 0.739 0.595 1.333 1.333 1.333s1.333-0.595 1.333-1.333c0-0.158-0.032-0.307-0.082-0.447l1.942-2.295c0.151 0.044 0.308 0.075 0.473 0.075 0.276-0.002 0.536-0.071 0.764-0.192l-0.009 0.004 1.599 1.309c-0.012 0.063-0.020 0.136-0.021 0.21l-0 0.002c0 0.739 0.595 1.333 1.333 1.333s1.333-0.595 1.333-1.333-0.595-1.333-1.333-1.333z"></path>
</svg>
