<!-- Generated by IcoMoon.io -->
<svg version="1.1" xmlns="http://www.w3.org/2000/svg" width="16" height="16" viewBox="0 0 16 16">
<title>bx-search-alt</title>
<path d="M6.667 12c1.237-0 2.374-0.424 3.276-1.134l-0.011 0.009 2.931 2.931 0.943-0.943-2.931-2.931c0.702-0.89 1.126-2.028 1.126-3.265v-0c0-2.941-2.393-5.333-5.333-5.333s-5.333 2.393-5.333 5.333 2.393 5.333 5.333 5.333zM6.667 2.667c2.206 0 4 1.794 4 4s-1.794 4-4 4-4-1.794-4-4 1.794-4 4-4z"></path>
<path d="M7.608 5.724c0.253 0.253 0.392 0.588 0.392 0.943h1.333c0-0.001 0-0.003 0-0.004 0-0.735-0.299-1.4-0.783-1.881l-0-0c-1.009-1.008-2.759-1.008-3.768 0l0.941 0.944c0.507-0.505 1.38-0.504 1.884-0.001z"></path>
</svg>
