<!-- Generated by IcoMoon.io -->
<svg version="1.1" xmlns="http://www.w3.org/2000/svg" width="16" height="16" viewBox="0 0 16 16">
<title>bx-slider-alt</title>
<path d="M5 9.667c-1.053 0-1.935 0.707-2.225 1.667h-1.442v1.333h1.442c0.289 0.96 1.171 1.667 2.225 1.667s1.935-0.707 2.225-1.667h7.442v-1.333h-7.442c-0.289-0.96-1.171-1.667-2.225-1.667zM5 13c-0.551 0-1-0.449-1-1s0.449-1 1-1 1 0.449 1 1-0.449 1-1 1z"></path>
<path d="M11 5.667c-1.053 0-1.935 0.707-2.225 1.667h-7.442v1.333h7.442c0.289 0.96 1.171 1.667 2.225 1.667s1.935-0.707 2.225-1.667h1.442v-1.333h-1.442c-0.289-0.96-1.171-1.667-2.225-1.667zM11 9c-0.551 0-1-0.449-1-1s0.449-1 1-1 1 0.449 1 1-0.449 1-1 1z"></path>
<path d="M8.558 3.333c-0.289-0.96-1.171-1.667-2.225-1.667s-1.935 0.707-2.225 1.667h-2.775v1.333h2.775c0.289 0.96 1.171 1.667 2.225 1.667s1.935-0.707 2.225-1.667h6.192v-1.333h-6.192zM6.333 5c-0.551 0-1-0.449-1-1s0.449-1 1-1 1 0.449 1 1-0.449 1-1 1z"></path>
</svg>
