<!-- Generated by IcoMoon.io -->
<svg version="1.1" xmlns="http://www.w3.org/2000/svg" width="16" height="16" viewBox="0 0 16 16">
<title>bx-select-multiple</title>
<path d="M14 1.333h-9.333c-0.368 0-0.667 0.298-0.667 0.667v0 9.333c0 0.368 0.298 0.667 0.667 0.667v0h9.333c0.368 0 0.667-0.298 0.667-0.667v0-9.333c0-0.368-0.298-0.667-0.667-0.667v0zM13.333 10.667h-8v-8h8v8z"></path>
<path d="M2 14.667h8.667v-1.333h-8v-8h-1.333v8.667c0 0.368 0.298 0.667 0.667 0.667v0zM8.667 9.333l0.030-0.001c0.187-0.009 0.362-0.095 0.483-0.239l3.333-4-1.025-0.854-2.866 3.439-1.151-1.151-0.943 0.943 1.667 1.667c0.12 0.121 0.286 0.195 0.47 0.195 0.001 0 0.001 0 0.002 0h-0z"></path>
</svg>
