<svg xmlns="http://www.w3.org/2000/svg" width="24" height="24"><path fill="none" d="M12 4c-4.411 0-8 3.589-8 8s3.589 8 8 8 8-3.589 8-8-3.589-8-8-8zM8.5 8c.828 0 1.5.896 1.5 2s-.672 2-1.5 2S7 11.104 7 10s.672-2 1.5-2zM12 18a5.954 5.954 0 0 1-4.8-2.399L8.799 14.4A3.971 3.971 0 0 0 12 16c1.27 0 2.436-.583 3.2-1.601l1.6 1.201A5.955 5.955 0 0 1 12 18zm3.5-6c-.828 0-1.5-.896-1.5-2s.672-2 1.5-2 1.5.896 1.5 2-.672 2-1.5 2z"/><ellipse cx="8.5" cy="10" rx="1.5" ry="2"/><ellipse cx="15.5" cy="10" rx="1.5" ry="2"/><path d="M12 2C6.486 2 2 6.486 2 12s4.486 10 10 10 10-4.486 10-10S17.514 2 12 2zm0 18c-4.411 0-8-3.589-8-8s3.589-8 8-8 8 3.589 8 8-3.589 8-8 8z"/><path d="M12 16a3.97 3.97 0 0 1-3.201-1.601L7.2 15.601A5.954 5.954 0 0 0 12 18a5.957 5.957 0 0 0 4.8-2.399L15.2 14.4A3.97 3.97 0 0 1 12 16z"/></svg>