<!-- Generated by IcoMoon.io -->
<svg version="1.1" xmlns="http://www.w3.org/2000/svg" width="16" height="16" viewBox="0 0 16 16">
<title>bx-smiley-meh</title>
<path d="M6.667 6.667c0 0.736-0.448 1.333-1 1.333s-1-0.597-1-1.333c0-0.736 0.448-1.333 1-1.333s1 0.597 1 1.333z"></path>
<path d="M11.333 6.667c0 0.736-0.448 1.333-1 1.333s-1-0.597-1-1.333c0-0.736 0.448-1.333 1-1.333s1 0.597 1 1.333z"></path>
<path d="M8 14.667c3.676 0 6.667-2.991 6.667-6.667s-2.991-6.667-6.667-6.667-6.667 2.991-6.667 6.667 2.991 6.667 6.667 6.667zM8 2.667c2.941 0 5.333 2.393 5.333 5.333s-2.393 5.333-5.333 5.333-5.333-2.393-5.333-5.333 2.393-5.333 5.333-5.333z"></path>
<path d="M5.333 10h5.333v1.333h-5.333z"></path>
</svg>
