<!-- Generated by IcoMoon.io -->
<svg version="1.1" xmlns="http://www.w3.org/2000/svg" width="16" height="16" viewBox="0 0 16 16">
<title>bx-shopping-bag</title>
<path d="M8 1.333c-1.838 0-3.333 1.495-3.333 3.333v0.667h-2c-0.368 0-0.667 0.298-0.667 0.667v0 8c0 0.368 0.298 0.667 0.667 0.667v0h10.667c0.368 0 0.667-0.298 0.667-0.667v0-8c0-0.368-0.298-0.667-0.667-0.667v0h-2v-0.667c0-1.838-1.495-3.333-3.333-3.333zM6 4.667c0-1.103 0.897-2 2-2s2 0.897 2 2v0.667h-4v-0.667zM12.667 6.667v6.667h-9.333v-6.667h1.333v1.333h1.333v-1.333h4v1.333h1.333v-1.333h1.333z"></path>
</svg>
