<svg xmlns="http://www.w3.org/2000/svg" width="24" height="24"><path d="M10 18c0 .348-.059.679-.142 1H22v-2H9.858c.083.321.142.652.142 1zM6 15.5A2.5 2.5 0 0 0 3.712 17H2v2h1.712A2.5 2.5 0 0 0 6 20.5c1.379 0 2.5-1.121 2.5-2.5S7.379 15.5 6 15.5zM19 12c0 .348-.059.679-.142 1H22v-2h-3.142c.083.321.142.652.142 1zM15 14.5c1.379 0 2.5-1.121 2.5-2.5 0-1.378-1.121-2.5-2.5-2.5a2.503 2.503 0 0 0-2.288 1.5H2v2h10.712A2.5 2.5 0 0 0 15 14.5zM11 8.5c1.379 0 2.5-1.122 2.5-2.5S12.379 3.5 11 3.5A2.503 2.503 0 0 0 8.712 5H2v2h6.712A2.503 2.503 0 0 0 11 8.5zM14.858 5c.083.321.142.652.142 1s-.059.679-.142 1H22V5h-7.142z"/></svg>