<!-- Generated by IcoMoon.io -->
<svg version="1.1" xmlns="http://www.w3.org/2000/svg" width="16" height="16" viewBox="0 0 16 16">
<title>bx-screenshot</title>
<path d="M12.667 9.333h-1.333v2h-2v1.333h2v2h1.333v-2h2v-1.333h-2zM2 12c0 0.368 0.298 0.667 0.667 0.667v0h2v-1.333h-1.333v-1.333h-1.333v2zM12.667 2.667c0-0.368-0.298-0.667-0.667-0.667v0h-2v1.333h1.333v1.333h1.333v-2zM3.333 3.333h1.333v-1.333h-2c-0.368 0-0.667 0.298-0.667 0.667v0 2h1.333v-1.333zM2 6h1.333v2.667h-1.333zM11.333 6h1.333v2h-1.333zM6 2h2.667v1.333h-2.667zM6 11.333h2v1.333h-2z"></path>
</svg>
