<!-- Generated by IcoMoon.io -->
<svg version="1.1" xmlns="http://www.w3.org/2000/svg" width="16" height="16" viewBox="0 0 16 16">
<title>bx-share-alt</title>
<path d="M1.333 7.667c0 1.287 1.047 2.333 2.333 2.333 0.607 0 1.155-0.239 1.571-0.62l4.173 2.385c-0.047 0.17-0.075 0.365-0.078 0.567l-0 0.002c0 1.287 1.047 2.333 2.333 2.333s2.333-1.047 2.333-2.333-1.047-2.333-2.333-2.333c-0.607 0-1.155 0.239-1.571 0.62l-4.173-2.385c0.042-0.165 0.069-0.335 0.072-0.512l4.101-2.343c0.417 0.381 0.965 0.62 1.572 0.62 1.287 0 2.333-1.047 2.333-2.333s-1.047-2.333-2.333-2.333-2.333 1.047-2.333 2.333c0 0.197 0.032 0.385 0.078 0.569l-3.789 2.166c-0.421-0.646-1.139-1.067-1.955-1.068h-0c-1.287 0-2.333 1.047-2.333 2.333zM11.667 11.333c0.551 0 1 0.449 1 1s-0.449 1-1 1-1-0.449-1-1 0.449-1 1-1zM11.667 2.667c0.551 0 1 0.449 1 1s-0.449 1-1 1-1-0.449-1-1 0.449-1 1-1zM3.667 6.667c0.551 0 1 0.449 1 1s-0.449 1-1 1-1-0.449-1-1 0.449-1 1-1z"></path>
</svg>
