<!-- Generated by IcoMoon.io -->
<svg version="1.1" xmlns="http://www.w3.org/2000/svg" width="16" height="16" viewBox="0 0 16 16">
<title>bx-shield-alt</title>
<path d="M7.647 14.565c0.1 0.063 0.222 0.101 0.353 0.101s0.253-0.038 0.356-0.103l-0.003 0.002c5.582-3.489 5.647-8.999 5.647-9.232 0 0 0 0 0 0 0-0.237-0.124-0.446-0.311-0.564l-0.003-0.002-5.333-3.333c-0.1-0.064-0.223-0.102-0.354-0.102s-0.253 0.038-0.356 0.103l0.003-0.002-5.333 3.333c-0.189 0.12-0.313 0.328-0.313 0.565v0c0 0.233 0.065 5.743 5.647 9.232zM8 2.787l4.647 2.903c-0.103 1.168-0.739 4.885-4.647 7.515-3.908-2.631-4.543-6.35-4.647-7.515l4.647-2.903z"></path>
<path d="M8 4v8c3.333-3.417 3.333-6 3.333-6l-3.333-2z"></path>
</svg>
