<svg xmlns="http://www.w3.org/2000/svg" width="24" height="24"><circle cx="18.705" cy="5.227" r="2.002"/><path d="M16.997 14c-.899 0-1.288-.311-1.876-.781-.68-.543-1.525-1.219-3.127-1.219-1.601 0-2.445.676-3.124 1.219-.588.47-.975.781-1.875.781-.898 0-1.286-.311-1.873-.78C4.443 12.676 3.6 12 2 12v2c.897 0 1.285.311 1.872.78.679.544 1.523 1.22 3.123 1.22s2.446-.676 3.125-1.22c.587-.47.976-.78 1.874-.78.9 0 1.311.328 1.878.781.679.543 1.524 1.219 3.125 1.219 1.602 0 2.447-.676 3.127-1.219.588-.47.977-.781 1.876-.781v-2c-1.601 0-2.446.676-3.125 1.219-.567.453-.978.781-1.878.781zM16.997 19c-.899 0-1.288-.311-1.876-.781-.68-.543-1.525-1.219-3.127-1.219-1.601 0-2.445.676-3.124 1.219-.588.47-.975.781-1.875.781-.898 0-1.286-.311-1.873-.78C4.443 17.676 3.6 17 2 17v2c.897 0 1.285.311 1.872.78.679.544 1.523 1.22 3.123 1.22s2.446-.676 3.125-1.22c.587-.47.976-.78 1.874-.78.9 0 1.311.328 1.878.781.679.543 1.524 1.219 3.125 1.219 1.602 0 2.447-.676 3.127-1.219.588-.47.977-.781 1.876-.781v-2c-1.601 0-2.446.676-3.125 1.219-.567.453-.978.781-1.878.781zM11.994 10.225c.733 0 1.303.146 1.776.351l1.437-1.437L18.067 12c.283-.139.526-.332.808-.557.25-.2.524-.418.85-.614l-5.311-5.312a.997.997 0 0 0-.707-.293h-5v2h4.586l.5.5-2.563 2.563c.236-.036.485-.062.764-.062z"/></svg>