<!-- Generated by IcoMoon.io -->
<svg version="1.1" xmlns="http://www.w3.org/2000/svg" width="16" height="16" viewBox="0 0 16 16">
<title>bx-star</title>
<path d="M13.687 6.659c-0.079-0.241-0.287-0.417-0.539-0.453l-3.144-0.457-1.407-2.85c-0.224-0.456-0.971-0.456-1.195 0l-1.407 2.851-3.144 0.457c-0.251 0.037-0.459 0.212-0.539 0.453-0.078 0.241-0.013 0.507 0.169 0.683l2.275 2.219-0.536 3.133c-0.043 0.25 0.060 0.503 0.265 0.653 0.207 0.149 0.479 0.169 0.703 0.050l2.813-1.479 2.812 1.479c0.097 0.051 0.205 0.077 0.311 0.077 0.138 0 0.275-0.043 0.392-0.127 0.205-0.149 0.308-0.403 0.265-0.653l-0.536-3.133 2.275-2.219c0.182-0.177 0.247-0.442 0.169-0.684zM9.811 9.095l0.267 1.56 0.159 0.933-2.237-1.177-2.238 1.176 0.159-0.933 0.267-1.56-1.81-1.764 0.474-0.069 2.027-0.294 0.849-1.721 0.271-0.547 1.119 2.268 2.501 0.363-1.809 1.765z"></path>
</svg>
