<!-- Generated by IcoMoon.io -->
<svg version="1.1" xmlns="http://www.w3.org/2000/svg" width="16" height="16" viewBox="0 0 16 16">
<title>bx-sitemap</title>
<path d="M11.333 12v2.667h2.667v-2.667h-0.667v-0.66c0-1.471-1.196-2.667-2.667-2.667h-2v-2.007h1.333c0.368 0 0.667-0.298 0.667-0.667v0-4c0-0.368-0.298-0.667-0.667-0.667v0h-4c-0.368 0-0.667 0.298-0.667 0.667v0 4c0 0.368 0.298 0.667 0.667 0.667v0h1.333v2.007h-2c-1.451 0.002-2.63 1.161-2.664 2.604l-0 0.003c-0.002 0.017-0.003 0.036-0.003 0.055 0 0.001 0 0.003 0 0.004v-0 0.66h-0.667v2.667h2.667v-2.667h-0.667v-0.609c0.001-0.015 0.002-0.033 0.002-0.051 0-0 0-0 0-0v0c0-0.735 0.597-1.333 1.333-1.333h1.998v1.993h-0.667v2.667h2.667v-2.667h-0.667v-1.993h2c0.735 0 1.333 0.598 1.333 1.333v0.66h-0.667zM6.667 5.333v-2.667h2.667v2.667h-2.667z"></path>
</svg>
