<!-- Generated by IcoMoon.io -->
<svg version="1.1" xmlns="http://www.w3.org/2000/svg" width="16" height="16" viewBox="0 0 16 16">
<title>bx-share</title>
<path d="M7.333 4.703v-2.036c-0-0.368-0.299-0.667-0.667-0.667-0.184 0-0.351 0.075-0.471 0.195l-4.667 4.667c-0.121 0.121-0.195 0.287-0.195 0.471s0.075 0.351 0.195 0.471l4.667 4.667c0.121 0.121 0.288 0.196 0.472 0.196 0.368 0 0.666-0.298 0.666-0.666 0-0.001 0-0.001 0-0.002v0-2.064c0.189-0.013 0.377-0.019 0.562-0.019 3.617 0 5.493 2.381 5.575 2.487 0.122 0.161 0.314 0.264 0.53 0.264 0.076 0 0.149-0.013 0.217-0.036l-0.005 0.001c0.266-0.091 0.455-0.34 0.455-0.632v0c0-6.083-5.391-7.121-7.333-7.297zM7.895 8.583c-0.431 0-0.875 0.030-1.317 0.089-0.328 0.045-0.579 0.324-0.579 0.661v0 1.057l-3.057-3.057 3.057-3.057v1.057c0 0.368 0.314 0.667 0.681 0.667 0.607 0 5.409 0.134 6.453 4.283-1.103-0.812-2.854-1.7-5.239-1.7z"></path>
</svg>
