<svg xmlns="http://www.w3.org/2000/svg" width="24" height="24"><path fill="none" d="M12 7C9.806 7 8.656 5.662 8.216 4.315L4 5.721v3.892l1.684-.561a.991.991 0 0 1 .901.136c.261.189.415.491.415.812v10h10V10c0-.321.154-.623.415-.812a.99.99 0 0 1 .901-.136l1.684.56V5.721l-4.216-1.405C15.344 5.662 14.194 7 12 7z"/><path d="M21.316 4.052l-6-2c-.305-.105-.64-.052-.901.136S14 2.679 14 3c0 .334-.097 2-2 2-1.826 0-1.992-1.536-2-2 0-.321-.154-.623-.415-.812a.991.991 0 0 0-.901-.136l-6 2A.998.998 0 0 0 2 5v6a.996.996 0 0 0 1.316.949L5 11.388V21a1 1 0 0 0 1 1h12a1 1 0 0 0 1-1v-9.612l1.684.561a.994.994 0 0 0 .901-.137c.261-.189.415-.491.415-.812V5a.998.998 0 0 0-.684-.948zM20 9.612l-1.684-.561a.993.993 0 0 0-.901.137A1.003 1.003 0 0 0 17 10v10H7V10c0-.321-.154-.623-.415-.812a.991.991 0 0 0-.901-.136L4 9.612V5.721l4.216-1.405C8.656 5.662 9.806 7 12 7s3.344-1.338 3.784-2.685L20 5.721v3.891z"/></svg>