<!-- Generated by IcoMoon.io -->
<svg version="1.1" xmlns="http://www.w3.org/2000/svg" width="16" height="16" viewBox="0 0 16 16">
<title>bx-tab</title>
<path d="M12.667 14.667c0.368 0 0.667-0.298 0.667-0.667v0-12c0-0.368-0.298-0.667-0.667-0.667v0h-9.333c-0.368 0-0.667 0.298-0.667 0.667v0 12c0 0.368 0.298 0.667 0.667 0.667v0h9.333zM7.333 12.667c0-0.368 0.298-0.667 0.667-0.667s0.667 0.298 0.667 0.667v0c0 0.368-0.298 0.667-0.667 0.667s-0.667-0.298-0.667-0.667v0zM12 2.667v8.666h-8v-8.666h8z"></path>
</svg>
