<!-- Generated by IcoMoon.io -->
<svg version="1.1" xmlns="http://www.w3.org/2000/svg" width="16" height="16" viewBox="0 0 16 16">
<title>bx-t-shirt</title>
<path d="M14.211 2.701l-4-1.333c-0.203-0.070-0.427-0.035-0.601 0.091s-0.277 0.327-0.277 0.541c0 0.223-0.065 1.333-1.333 1.333-1.217 0-1.328-1.024-1.333-1.333 0-0.214-0.103-0.415-0.277-0.541-0.107-0.079-0.242-0.126-0.388-0.126-0.076 0-0.149 0.013-0.217 0.037l0.005-0.001-4 1.333c-0.267 0.090-0.456 0.339-0.456 0.632 0 0 0 0 0 0v-0 4c0 0.001-0 0.003-0 0.004 0 0.367 0.297 0.664 0.664 0.664 0.076 0 0.15-0.013 0.218-0.037l-0.005 0.001 1.123-0.374v6.408c0 0.368 0.298 0.667 0.667 0.667v0h8c0.368 0 0.667-0.298 0.667-0.667v0-6.408l1.123 0.374c0.063 0.022 0.136 0.035 0.212 0.035 0.146 0 0.281-0.047 0.391-0.127l-0.002 0.001c0.174-0.126 0.277-0.327 0.277-0.541v-4c0-0 0-0 0-0 0-0.293-0.189-0.541-0.451-0.63l-0.005-0.001zM13.333 6.408l-1.123-0.374c-0.063-0.022-0.136-0.035-0.212-0.035-0.146 0-0.281 0.047-0.391 0.127l0.002-0.001c-0.168 0.123-0.277 0.319-0.277 0.541v6.667h-6.667v-6.667c0-0.214-0.103-0.415-0.277-0.541-0.107-0.079-0.242-0.126-0.388-0.126-0.076 0-0.149 0.013-0.217 0.037l0.005-0.001-1.123 0.373v-2.594l2.811-0.937c0.293 0.897 1.060 1.789 2.523 1.789s2.229-0.892 2.523-1.79l2.811 0.937v2.594z"></path>
</svg>
