<svg xmlns="http://www.w3.org/2000/svg" width="24" height="24"><path fill="none" d="M18 5h-2v1a1 1 0 0 1-1 1H9a1 1 0 0 1-1-1V5H6v15h12V5zm-6.293 11.707a.997.997 0 0 1-1.414 0l-2.5-2.5 1.414-1.414L11 14.586l3.793-3.793 1.414 1.414-4.5 4.5z"/><path d="M4 21a1 1 0 0 0 1 1h14a1 1 0 0 0 1-1V4a1 1 0 0 0-1-1h-3a1 1 0 0 0-1-1H9a1 1 0 0 0-1 1H5a1 1 0 0 0-1 1v17zM6 5h2v1a1 1 0 0 0 1 1h6a1 1 0 0 0 1-1V5h2v15H6V5z"/><path d="M11 14.586l-1.793-1.793-1.414 1.414 2.5 2.5a.997.997 0 0 0 1.414 0l4.5-4.5-1.414-1.414L11 14.586z"/></svg>