<!-- Generated by IcoMoon.io -->
<svg version="1.1" xmlns="http://www.w3.org/2000/svg" width="16" height="16" viewBox="0 0 16 16">
<title>bx-truck</title>
<path d="M14.619 7.753l-1.333-3.333c-0.101-0.248-0.34-0.419-0.619-0.419h-2.667v-0.667c0-0.368-0.298-0.667-0.667-0.667v0h-7.333c-0.368 0-0.667 0.298-0.667 0.667v0 8c0 0.368 0.298 0.667 0.667 0.667v0h0.034c-0.017 0.11-0.034 0.219-0.034 0.333 0 1.287 1.047 2.333 2.333 2.333s2.333-1.047 2.333-2.333c0-0.114-0.017-0.223-0.034-0.333h2.068c-0.017 0.11-0.034 0.219-0.034 0.333 0 1.287 1.047 2.333 2.333 2.333s2.333-1.047 2.333-2.333c0-0.114-0.017-0.223-0.034-0.333h0.701c0.368 0 0.667-0.298 0.667-0.667v0-3.333c0-0.085-0.016-0.169-0.047-0.247zM10 5.333h2.215l0.8 2h-3.015v-2zM4.333 13.333c-0.551 0-1-0.449-1-1s0.449-1 1-1 1 0.449 1 1-0.449 1-1 1zM8.667 10.667h-2.706c-0.42-0.411-0.994-0.667-1.627-0.667s-1.207 0.256-1.627 0.667h-0.039v-6.667h6v6.667zM11 13.333c-0.551 0-1-0.449-1-1s0.449-1 1-1 1 0.449 1 1-0.449 1-1 1zM12.627 10.667c-0.419-0.412-0.993-0.666-1.627-0.667h-0c-0.359 0-0.696 0.089-1 0.235v-1.568h3.333v2h-0.706z"></path>
</svg>
