<svg xmlns="http://www.w3.org/2000/svg" width="24" height="24" viewBox="0 0 24 24"><path d="M21.515 5.143l-5-3a1.008 1.008 0 0 0-.857-.08 1.007 1.007 0 0 0-.604.616C15.021 2.773 14.224 5 12 5S8.979 2.773 8.948 2.684a.99.99 0 0 0-.601-.621.993.993 0 0 0-.861.08l-5 3A.998.998 0 0 0 2 6v6a1.001 1.001 0 0 0 1.448.895L6 11.618V21a1 1 0 0 0 1 1h10a1 1 0 0 0 1-1v-9.382l2.553 1.276A1 1 0 0 0 22 12V6a1 1 0 0 0-.485-.857zM20 10.382l-2.553-1.276A.998.998 0 0 0 16 10v10H8V10a1.001 1.001 0 0 0-1.447-.895L4 10.382V6.566l3.586-2.151C8.252 5.502 9.604 7 12 7s3.748-1.498 4.414-2.585L20 6.566v3.816z"/></svg>