<!-- Generated by IcoMoon.io -->
<svg version="1.1" xmlns="http://www.w3.org/2000/svg" width="16" height="16" viewBox="0 0 16 16">
<title>bx-taxi</title>
<path d="M14 6.667h-0.255l-1.816-3.631c-0.113-0.226-0.343-0.369-0.596-0.369h-2v-0.667c0-0.369-0.298-0.667-0.667-0.667h-1.333c-0.369 0-0.667 0.298-0.667 0.667v0.667h-2c-0.253 0-0.483 0.143-0.597 0.369l-1.815 3.631h-0.255c-0.369 0-0.667 0.298-0.667 0.667v4c0 0.369 0.298 0.667 0.667 0.667v1.333c0 0.369 0.298 0.667 0.667 0.667h0.667c0.369 0 0.667-0.298 0.667-0.667v-1.333h8v1.333c0 0.369 0.298 0.667 0.667 0.667h0.667c0.369 0 0.667-0.298 0.667-0.667v-1.333c0.369 0 0.667-0.298 0.667-0.667v-4c0-0.369-0.298-0.667-0.667-0.667zM3.333 10.667h-0.667v-2.667h10.667v2.667h-10zM5.079 4h5.843l1.333 2.667h-8.509l1.333-2.667z"></path>
<path d="M3.333 8.667h1.333v1.333h-1.333v-1.333z"></path>
<path d="M11.333 8.667h1.333v1.333h-1.333v-1.333z"></path>
</svg>
