<!-- Generated by IcoMoon.io -->
<svg version="1.1" xmlns="http://www.w3.org/2000/svg" width="16" height="16" viewBox="0 0 16 16">
<title>bx-target-lock</title>
<path d="M10 8c0 1.105-0.895 2-2 2s-2-0.895-2-2c0-1.105 0.895-2 2-2s2 0.895 2 2z"></path>
<path d="M8.667 2.713v-1.379h-1.333v1.379c-2.414 0.316-4.304 2.207-4.618 4.594l-0.003 0.027h-1.379v1.333h1.379c0.316 2.414 2.207 4.304 4.594 4.618l0.027 0.003v1.379h1.333v-1.379c2.414-0.316 4.304-2.207 4.618-4.594l0.003-0.027h1.379v-1.333h-1.379c-0.316-2.414-2.207-4.304-4.594-4.618l-0.027-0.003zM8 12c-2.206 0-4-1.794-4-4s1.794-4 4-4 4 1.794 4 4-1.794 4-4 4z"></path>
</svg>
