<svg xmlns="http://www.w3.org/2000/svg" width="24" height="24" viewBox="0 0 24 24"><path d="M11 14H13V18H11zM11 2H13V6H11z"/><path transform="rotate(45.001 6.5 4.5)" d="M4.379 3.5H8.622V5.5H4.379z"/><path transform="rotate(45.001 17.5 4.5)" d="M16.5 2.379H18.5V6.622H16.5z"/><path d="M18,8H6C5.447,8,5,8.448,5,9v1c0,2.554,1.248,3.929,2,4.526V21c0,0.552,0.447,1,1,1h8c0.553,0,1-0.448,1-1v-6.607 c0.633-0.715,2-2.48,2-4.393V9C19,8.448,18.553,8,18,8z M15.292,13.294C15.105,13.481,15,13.736,15,14v6H9v-6 c0-0.368-0.216-0.713-0.54-0.888C8.4,13.08,7,12.298,7,10h10C17,11.29,15.767,12.815,15.292,13.294z"/></svg>