<!-- Generated by IcoMoon.io -->
<svg version="1.1" xmlns="http://www.w3.org/2000/svg" width="16" height="16" viewBox="0 0 16 16">
<title>bx-terminal</title>
<path d="M8 9.333h4v1.333h-4zM5.138 10.471l2-2c0.121-0.121 0.195-0.287 0.195-0.471s-0.075-0.351-0.195-0.471l-2-2-0.943 0.943 1.529 1.529-1.529 1.529 0.943 0.943z"></path>
<path d="M14 2.667h-12c-0.368 0-0.667 0.298-0.667 0.667v0 9.333c0 0.368 0.298 0.667 0.667 0.667v0h12c0.368 0 0.667-0.298 0.667-0.667v0-9.333c0-0.368-0.298-0.667-0.667-0.667v0zM13.333 12h-10.667v-8h10.667v8z"></path>
</svg>
