<svg xmlns="http://www.w3.org/2000/svg" width="24" height="24" viewBox="0 0 24 24"><path d="M17,22H7c-0.553,0-1-0.447-1-1V10.618l-2.553,1.276c-0.311,0.153-0.679,0.139-0.973-0.044C2.18,11.668,2,11.347,2,11V6 c0-0.352,0.185-0.677,0.485-0.857l5-3c0.26-0.157,0.578-0.187,0.861-0.08c0.285,0.104,0.506,0.334,0.602,0.621 C8.979,2.773,9.776,5,12,5s3.021-2.227,3.053-2.321c0.099-0.285,0.321-0.513,0.604-0.616c0.284-0.101,0.599-0.075,0.857,0.08l5,3 C21.815,5.323,22,5.648,22,6v5c0,0.347-0.18,0.668-0.475,0.851s-0.662,0.198-0.973,0.044L18,10.618V21C18,21.553,17.553,22,17,22z M8,20h8V9c0-0.347,0.18-0.668,0.475-0.851c0.295-0.184,0.662-0.198,0.973-0.044L20,9.382V6.566l-3.586-2.151 C15.748,5.502,14.396,7,12,7S8.252,5.502,7.586,4.415L4,6.566v2.815l2.553-1.276c0.31-0.155,0.678-0.14,0.973,0.044 C7.82,8.332,8,8.653,8,9V20z"/></svg>