<!-- Generated by IcoMoon.io -->
<svg version="1.1" xmlns="http://www.w3.org/2000/svg" width="16" height="16" viewBox="0 0 16 16">
<title>bx-trash</title>
<path d="M3.333 14c0 0.368 0.298 0.667 0.667 0.667v0h8c0.368 0 0.667-0.298 0.667-0.667v0-8.667h1.333v-1.333h-2.667v-2c0-0.368-0.298-0.667-0.667-0.667v0h-5.333c-0.368 0-0.667 0.298-0.667 0.667v0 2h-2.667v1.333h1.333v8.667zM6 2.667h4v1.333h-4v-1.333zM5.333 5.333h6v8h-6.667v-8h0.667z"></path>
<path d="M6 6.667h1.333v5.333h-1.333zM8.667 6.667h1.333v5.333h-1.333z"></path>
</svg>
