<svg xmlns="http://www.w3.org/2000/svg" width="24" height="24"><path fill="none" d="M8.46 13.112l.525.283L9 14v6h6v-6.618l.553-.276C15.6 13.08 17 12.298 17 10H7c0 2.298 1.4 3.08 1.46 3.112zM11 14h2v4h-2v-4z"/><path d="M11 14h2v4h-2zM11 2h2v4h-2zM5.707 2.293l3 3-1.414 1.414-3-3zM18.293 2.293l1.414 1.414-3 3-1.415-1.414z"/><path d="M18 8H6a1 1 0 0 0-1 1v1c0 2.554 1.248 3.929 2 4.526V21a1 1 0 0 0 1 1h8a1 1 0 0 0 1-1v-6.474c.752-.597 2-1.973 2-4.526V9a1 1 0 0 0-1-1zm-2.447 5.105l-.553.277V20H9v-6l-.015-.604-.525-.284C8.4 13.08 7 12.298 7 10h10c0 2.298-1.4 3.08-1.447 3.105z"/></svg>