<!-- Generated by IcoMoon.io -->
<svg version="1.1" xmlns="http://www.w3.org/2000/svg" width="16" height="16" viewBox="0 0 16 16">
<title>bx-toggle-right</title>
<path d="M10.667 6.667c-0.723 0-1.333 0.61-1.333 1.333s0.61 1.333 1.333 1.333 1.333-0.61 1.333-1.333-0.61-1.333-1.333-1.333z"></path>
<path d="M10.667 4h-5.333c-2.197 0-3.988 1.788-4 3.991v0.028c0.014 2.2 1.799 3.978 4 3.981h5.334c2.206 0 4-1.794 4-4s-1.794-4-4-4zM10.667 10.667h-5.333c-1.47-0.002-2.661-1.191-2.667-2.659v-0.001c0.003-1.474 1.199-2.673 2.667-2.673h5.333c1.471 0 2.667 1.196 2.667 2.667s-1.196 2.667-2.667 2.667z"></path>
</svg>
