<!-- Generated by IcoMoon.io -->
<svg version="1.1" xmlns="http://www.w3.org/2000/svg" width="16" height="16" viewBox="0 0 16 16">
<title>bx-task</title>
<path d="M2.667 14c0 0.368 0.298 0.667 0.667 0.667v0h9.333c0.368 0 0.667-0.298 0.667-0.667v0-11.333c0-0.368-0.298-0.667-0.667-0.667v0h-2c0-0.368-0.298-0.667-0.667-0.667v0h-4c-0.368 0-0.667 0.298-0.667 0.667v0h-2c-0.368 0-0.667 0.298-0.667 0.667v0 11.333zM4 3.333h1.333v0.667c0 0.368 0.298 0.667 0.667 0.667v0h4c0.368 0 0.667-0.298 0.667-0.667v0-0.667h1.333v10h-8v-10z"></path>
<path d="M7.333 9.724l-1.195-1.195-0.943 0.943 1.667 1.667c0.12 0.121 0.287 0.196 0.471 0.196s0.351-0.075 0.471-0.196l3-3-0.943-0.943-2.529 2.529z"></path>
</svg>
