<!-- Generated by IcoMoon.io -->
<svg version="1.1" xmlns="http://www.w3.org/2000/svg" width="16" height="16" viewBox="0 0 16 16">
<title>bx-tennis-ball</title>
<path d="M8 1.333c-3.676 0-6.667 2.991-6.667 6.667s2.991 6.667 6.667 6.667 6.667-2.991 6.667-6.667-2.991-6.667-6.667-6.667zM3.523 5.111c0.72 0.741 1.143 1.792 1.143 2.889 0 1.041-0.445 2.045-1.2 2.795-0.502-0.794-0.8-1.761-0.8-2.798 0-1.074 0.32-2.072 0.869-2.906l-0.012 0.020zM4.301 11.833c1.064-1.007 1.699-2.391 1.699-3.833 0-1.487-0.601-2.915-1.617-3.908 0.952-0.882 2.221-1.425 3.617-1.425s2.665 0.543 3.617 1.425c-1.016 0.993-1.617 2.421-1.617 3.908 0 1.443 0.635 2.827 1.699 3.833-0.961 0.927-2.263 1.5-3.699 1.5s-2.739-0.573-3.699-1.5zM12.533 10.795c-0.755-0.75-1.2-1.755-1.2-2.795 0-1.097 0.423-2.148 1.143-2.889 0.537 0.814 0.857 1.813 0.857 2.886 0 1.036-0.298 2.003-0.813 2.819l0.013-0.022z"></path>
</svg>
