<!-- Generated by IcoMoon.io -->
<svg version="1.1" xmlns="http://www.w3.org/2000/svg" width="16" height="16" viewBox="0 0 16 16">
<title>bx-toggle-left</title>
<path d="M5.333 6.667c-0.723 0-1.333 0.61-1.333 1.333s0.61 1.333 1.333 1.333 1.333-0.61 1.333-1.333-0.61-1.333-1.333-1.333z"></path>
<path d="M10.667 4h-5.333c-2.197 0-3.988 1.788-4 3.991v0.028c0.014 2.2 1.799 3.978 4 3.981h5.334c2.206-0.004 3.994-1.79 4-3.995v-0.013c-0.010-2.202-1.802-3.992-4-3.992zM10.667 10.667h-5.333c-1.47-0.002-2.661-1.191-2.667-2.659v-0.001c0.003-1.474 1.199-2.673 2.667-2.673h5.333c1.468 0 2.664 1.199 2.667 2.671-0.005 1.47-1.196 2.66-2.666 2.663h-0z"></path>
</svg>
