<svg xmlns="http://www.w3.org/2000/svg" width="24" height="24"><path fill="none" d="M20 17V7H8.469l-4.167 5 4.167 5H20zm-8.707-7.293l1.414-1.414L15 10.586l2.293-2.293 1.414 1.414L16.414 12l2.293 2.293-1.414 1.414L15 13.414l-2.293 2.293-1.414-1.414L13.586 12l-2.293-2.293z"/><path d="M12.707 15.707L15 13.414l2.293 2.293 1.414-1.414L16.414 12l2.293-2.293-1.414-1.414L15 10.586l-2.293-2.293-1.414 1.414L13.586 12l-2.293 2.293z"/><path d="M7.231 18.641c.191.227.472.359.769.359h13a1 1 0 0 0 1-1V6a1 1 0 0 0-1-1H8c-.297 0-.578.132-.769.359l-5 6c-.309.371-.309.91 0 1.281l5 6.001zM8.469 7H20v10H8.469l-4.167-5 4.167-5z"/></svg>