<!-- Generated by IcoMoon.io -->
<svg version="1.1" xmlns="http://www.w3.org/2000/svg" width="16" height="16" viewBox="0 0 16 16">
<title>bx-timer</title>
<path d="M10 13.333c2.573 0 4.667-2.093 4.667-4.667s-2.094-4.667-4.667-4.667-4.667 2.093-4.667 4.667 2.094 4.667 4.667 4.667zM10 5.333c1.838 0 3.333 1.495 3.333 3.333s-1.495 3.333-3.333 3.333-3.333-1.495-3.333-3.333 1.495-3.333 3.333-3.333z"></path>
<path d="M9.333 6.667h1.333v2.667h-1.333zM8 1.333h4v1.333h-4zM2 5.333h2.667v1.333h-2.667zM2 10.667h2.667v1.333h-2.667zM1.333 8h2.66v1.333h-2.66zM14.195 4.471l-1.333-1.333 0.943-0.943 1.333 1.333z"></path>
</svg>
