<!-- Generated by IcoMoon.io -->
<svg version="1.1" xmlns="http://www.w3.org/2000/svg" width="16" height="16" viewBox="0 0 16 16">
<title>bx-train</title>
<path d="M4.667 9.333h1.333v1.327h-1.333v-1.327z"></path>
<path d="M10 9.333h1.333v1.327h-1.333v-1.327z"></path>
<path d="M12.581 2.223c-0.771-0.865-1.575-0.89-1.664-0.89h-5.836c-0.149 0-0.933 0.043-1.669 0.901-0.725 0.843-0.745 1.674-0.745 1.766v8c0 0.369 0.298 0.667 0.667 0.667h1.333l-1.333 2h1.545l0.445-0.667h5.333l0.451 0.667h1.559l-1.333-2h1.333c0.369 0 0.667-0.298 0.667-0.667v-8c0.001-0.125-0.021-0.956-0.753-1.777zM12 11.333h-8v-2.667h8v2.667zM12 7.333h-8v-2h8v2zM4.001 4c0.004-0.065 0.047-0.46 0.423-0.898 0.351-0.409 0.659-0.435 0.659-0.435l5.807-0.001c0.013 0.001 0.327 0.033 0.694 0.444 0.401 0.449 0.415 0.873 0.415 0.89h-7.999z"></path>
</svg>
