<!-- Generated by IcoMoon.io -->
<svg version="1.1" xmlns="http://www.w3.org/2000/svg" width="16" height="16" viewBox="0 0 16 16">
<title>bx-toggle</title>
<path d="M11.667 3.333c-0.542 0-1 0.458-1 1s0.458 1 1 1 1-0.458 1-1-0.458-1-1-1z"></path>
<path d="M11.667 1.333h-7.333c-1.665 0-3.020 1.341-3.020 2.989 0 0.058 0.009 0.115 0.024 0.17 0.089 1.586 1.396 2.838 2.996 2.841h7.334c1.654 0 3-1.346 3-3.011 0-1.648-1.346-2.989-3-2.989zM11.667 6h-7.333c-0.92-0.001-1.666-0.747-1.667-1.667v-0c-0-0.048-0.006-0.095-0.016-0.139l0.001 0.004c0.065-0.855 0.795-1.531 1.682-1.531h7.333c0.935 0 1.667 0.727 1.667 1.667 0 0.919-0.747 1.667-1.667 1.667zM4.333 10.667c-0.542 0-1 0.458-1 1s0.458 1 1 1 1-0.458 1-1-0.458-1-1-1z"></path>
<path d="M11.667 8.667h-7.333c-1.665 0-3.020 1.341-3.020 2.989 0 0.058 0.009 0.115 0.024 0.17 0.089 1.586 1.396 2.838 2.996 2.841h7.334c1.654 0 3-1.346 3-3.011 0-1.648-1.346-2.989-3-2.989zM11.667 13.333h-7.333c-0.92-0.001-1.666-0.746-1.667-1.667v-0c-0-0.048-0.006-0.095-0.016-0.139l0.001 0.004c0.065-0.855 0.795-1.531 1.682-1.531h7.333c0.935 0 1.667 0.727 1.667 1.667 0 0.919-0.747 1.667-1.667 1.667z"></path>
</svg>
