<svg xmlns="http://www.w3.org/2000/svg" width="24" height="24"><path fill="none" d="M16.336 3.999L7.625 4c-.001.001-.462.039-.989.653-.564.657-.628 1.249-.634 1.347H18c-.001-.025-.022-.661-.623-1.335-.55-.617-1.022-.664-1.041-.666zM6 18h12v-4H6v4zm9-3h2v1.991h-2V15zm-8 0h2v1.991H7V15zM6 8h12v4H6z"/><path d="M7 15h2v1.991H7zM15 15h2v1.991h-2z"/><path d="M20 19V6c.001-.188-.032-1.434-1.129-2.665C17.715 2.037 16.509 2 16.375 2H7.621c-.224 0-1.399.065-2.503 1.351C4.031 4.616 4 5.862 4 6v13a1 1 0 0 0 1 1h2l-2 2h14l-2-2h2a1 1 0 0 0 1-1zm-2-1H6v-4h12v4zm0-6H6V8h12v4zM6.002 6c.006-.098.07-.69.634-1.347.527-.614.988-.652.989-.653l8.711-.001c.02.002.491.049 1.041.666.601.674.622 1.31.623 1.335H6.002z"/></svg>