<!-- Generated by IcoMoon.io -->
<svg version="1.1" xmlns="http://www.w3.org/2000/svg" width="16" height="16" viewBox="0 0 16 16">
<title>bx-thermometer</title>
<path d="M7.333 1.333h-2.667c-0.368 0-0.667 0.298-0.667 0.667v0 6.638c-0.842 0.619-1.333 1.599-1.333 2.695 0 1.838 1.495 3.333 3.333 3.333s3.333-1.495 3.333-3.333c0-1.097-0.491-2.077-1.333-2.695v-6.638c0-0.368-0.298-0.667-0.667-0.667v0zM6.667 2.667v3.333h-1.333v-3.333h1.333zM6 13.333c-1.103 0-2-0.897-2-2 0-0.748 0.371-1.403 0.993-1.752 0.205-0.116 0.341-0.333 0.341-0.581v-1.667h1.333v1.667c0 0.248 0.136 0.465 0.337 0.58l0.003 0.002c0.621 0.349 0.993 1.004 0.993 1.752 0 1.103-0.897 2-2 2zM9.333 2h4v1.333h-4zM9.333 4.667h3.333v1.333h-3.333zM9.333 7.333h2.667v1.333h-2.667z"></path>
</svg>
