<svg xmlns="http://www.w3.org/2000/svg" width="24" height="24"><path fill="none" d="M10.511 14.372A1 1 0 0 1 10 13.5V11H8v2.5a1 1 0 0 1-.511.872C6.557 14.896 6 15.878 6 17c0 1.654 1.346 3 3 3s3-1.346 3-3c0-1.122-.557-2.104-1.489-2.628zM8 4h2v5H8z"/><path d="M11 2H7a1 1 0 0 0-1 1v9.957c-1.263.928-2 2.398-2 4.043 0 2.757 2.243 5 5 5s5-2.243 5-5c0-1.645-.737-3.115-2-4.043V3a1 1 0 0 0-1-1zm-1 2v5H8V4h2zM9 20c-1.654 0-3-1.346-3-3 0-1.122.557-2.104 1.489-2.628A1 1 0 0 0 8 13.5V11h2v2.5a1 1 0 0 0 .511.872C11.443 14.896 12 15.878 12 17c0 1.654-1.346 3-3 3zM14 3h6v2h-6zM14 7h5v2h-5zM14 11h4v2h-4z"/></svg>