<svg xmlns="http://www.w3.org/2000/svg" width="24" height="24"><path fill="none" d="M4 16h16v-4H4v4zm13-3h2v2h-2v-2zM5 13h2v2H5v-2zM16.382 6H7.618l-2 4h12.764z"/><path d="M21 10h-.382l-2.724-5.447A.998.998 0 0 0 17 4h-3V3a1 1 0 0 0-1-1h-2a1 1 0 0 0-1 1v1H7c-.379 0-.725.214-.895.553L3.382 10H3a1 1 0 0 0-1 1v6a1 1 0 0 0 1 1h1v2a1 1 0 0 0 1 1h1a1 1 0 0 0 1-1v-2h10v2a1 1 0 0 0 1 1h1a1 1 0 0 0 1-1v-2h1a1 1 0 0 0 1-1v-6a1 1 0 0 0-1-1zM7.618 6h8.764l2 4H5.618l2-4zM20 16H4v-4h16v4z"/><path d="M5 13h2v2H5zM17 13h2v2h-2z"/></svg>