<!-- Generated by IcoMoon.io -->
<svg version="1.1" xmlns="http://www.w3.org/2000/svg" width="16" height="16" viewBox="0 0 16 16">
<title>bx-user-detail</title>
<path d="M10 7.333h4.667v1.333h-4.667zM10.667 10h4v1.333h-4zM9.333 4.667h5.333v1.333h-5.333zM2 13.333h6.667c0.368 0 0.667-0.298 0.667-0.667v0-0.667c0-1.745-1.906-3.333-4-3.333-2.131 0-4 1.557-4 3.333v0.667c0 0.368 0.298 0.667 0.667 0.667v0zM5.333 10c1.477 0 2.667 1.094 2.667 2h-5.333c0-0.925 1.165-2 2.667-2zM5.333 8c1.33 0 2.333-1.003 2.333-2.333s-1.003-2.333-2.333-2.333-2.333 1.003-2.333 2.333 1.003 2.333 2.333 2.333zM5.333 4.667c0.589 0 1 0.411 1 1s-0.411 1-1 1-1-0.411-1-1 0.411-1 1-1z"></path>
</svg>
