<!-- Generated by IcoMoon.io -->
<svg version="1.1" xmlns="http://www.w3.org/2000/svg" width="16" height="16" viewBox="0 0 16 16">
<title>bx-upvote</title>
<path d="M8.521 1.583c-0.254-0.317-0.787-0.317-1.041 0l-5.333 6.667c-0.16 0.201-0.191 0.475-0.080 0.706 0.111 0.23 0.344 0.377 0.601 0.377h2.667v4.667c0 0.369 0.298 0.667 0.667 0.667h4c0.369 0 0.667-0.298 0.667-0.667v-4.667h2.667c0.257 0 0.489-0.147 0.601-0.377 0.111-0.231 0.080-0.505-0.080-0.706l-5.333-6.667zM10 8c-0.369 0-0.667 0.298-0.667 0.667v4.667h-2.667v-4.667c0-0.369-0.298-0.667-0.667-0.667h-1.946l3.946-4.933 3.946 4.933h-1.946z"></path>
</svg>
