<svg xmlns="http://www.w3.org/2000/svg" width="24" height="24"><path fill="none" d="M12 4c-4.337 0-8 3.663-8 8 0 2.29 1.027 4.385 2.629 5.859C7.63 16.201 9.711 15 12 15c2.246 0 4.342 1.221 5.357 2.872C18.967 16.397 20 14.296 20 12c0-4.337-3.663-8-8-8zm0 10c-1.995 0-3.5-1.505-3.5-3.5S10.005 7 12 7s3.5 1.505 3.5 3.5S13.995 14 12 14z"/><path fill="none" d="M12 17c-1.74 0-3.168.963-3.732 2.04A7.81 7.81 0 0 0 12 20a7.82 7.82 0 0 0 3.725-.956C15.148 17.976 13.707 17 12 17zM12 9c-.883 0-1.5.617-1.5 1.5S11.117 12 12 12s1.5-.617 1.5-1.5S12.883 9 12 9z"/><path d="M12 2C6.579 2 2 6.579 2 12c0 3.191 1.594 6.082 4.005 7.927-.001.024-.005.049-.005.073h.102C7.77 21.245 9.813 22 12 22s4.23-.755 5.898-2H18c0-.024-.004-.049-.005-.073C20.406 18.082 22 15.191 22 12c0-5.421-4.579-10-10-10zM8.268 19.04C8.832 17.963 10.26 17 12 17c1.707 0 3.148.976 3.725 2.044A7.82 7.82 0 0 1 12 20a7.81 7.81 0 0 1-3.732-.96zm9.089-1.168C16.342 16.221 14.246 15 12 15c-2.289 0-4.37 1.201-5.371 2.859C5.027 16.385 4 14.29 4 12c0-4.337 3.663-8 8-8s8 3.663 8 8c0 2.296-1.033 4.397-2.643 5.872z"/><path d="M12 7c-1.995 0-3.5 1.505-3.5 3.5S10.005 14 12 14s3.5-1.505 3.5-3.5S13.995 7 12 7zm0 5c-.883 0-1.5-.617-1.5-1.5S11.117 9 12 9s1.5.617 1.5 1.5S12.883 12 12 12z"/></svg>