<!-- Generated by IcoMoon.io -->
<svg version="1.1" xmlns="http://www.w3.org/2000/svg" width="16" height="16" viewBox="0 0 16 16">
<title>bx-user-x</title>
<path d="M2 13.333h6.667c0.368 0 0.667-0.298 0.667-0.667v0-0.667c0-1.745-1.906-3.333-4-3.333-2.131 0-4 1.558-4 3.333v0.667c0 0.368 0.298 0.667 0.667 0.667v0zM5.333 10c1.477 0 2.667 1.095 2.667 2h-5.333c0-0.925 1.165-2 2.667-2zM7.667 5.667c0-1.33-1.003-2.333-2.333-2.333s-2.333 1.003-2.333 2.333 1.003 2.333 2.333 2.333 2.333-1.003 2.333-2.333zM4.333 5.667c0-0.589 0.411-1 1-1s1 0.411 1 1-0.411 1-1 1-1-0.411-1-1zM10.471 10.471l1.529-1.529 1.529 1.529 0.943-0.943-1.529-1.529 1.529-1.529-0.943-0.943-1.529 1.529-1.529-1.529-0.943 0.943 1.528 1.528-1.529 1.529z"></path>
</svg>
