<!-- Generated by IcoMoon.io -->
<svg version="1.1" xmlns="http://www.w3.org/2000/svg" width="16" height="16" viewBox="0 0 16 16">
<title>bx-user</title>
<path d="M8 1.333c-1.838 0-3.333 1.495-3.333 3.333s1.495 3.333 3.333 3.333 3.333-1.495 3.333-3.333-1.495-3.333-3.333-3.333zM8 6.667c-1.103 0-2-0.897-2-2s0.897-2 2-2 2 0.897 2 2-0.897 2-2 2zM14 14v-0.667c0-2.442-2.86-4.667-6-4.667s-6 2.225-6 4.667v0.667c0 0.368 0.298 0.667 0.667 0.667v0h10.667c0.368 0 0.667-0.298 0.667-0.667v0zM3.333 13.333c0-1.542 2.039-3.333 4.667-3.333s4.667 1.792 4.667 3.333h-9.333z"></path>
</svg>
