<!-- Generated by IcoMoon.io -->
<svg version="1.1" xmlns="http://www.w3.org/2000/svg" width="16" height="16" viewBox="0 0 16 16">
<title>bx-usb</title>
<path d="M5.333 7.333c0-0.736-0.597-1.333-1.333-1.333s-1.333 0.597-1.333 1.333v0c0 0.492 0.269 0.917 0.667 1.149v0.185c0 1.471 1.196 2.667 2.667 2.667h1.333v0.851c-0.401 0.233-0.666 0.66-0.667 1.149v0c0 0.736 0.597 1.333 1.333 1.333s1.333-0.597 1.333-1.333v0c0-0.492-0.269-0.917-0.667-1.149v-2.851h1.333c1.471 0 2.667-1.196 2.667-2.667h0.667v-2.667h-2.667v2.667h0.667c0 0.735-0.598 1.333-1.333 1.333h-1.333v-4h1.333l-2-2.667-2 2.667h1.333v6h-1.333c-0.735 0-1.333-0.598-1.333-1.333v-0.185c0.397-0.231 0.667-0.657 0.667-1.149z"></path>
</svg>
