<svg xmlns="http://www.w3.org/2000/svg" width="24" height="24"><path fill="none" d="M8 15c-2.253 0-4 1.613-4 3h8c0-1.359-1.784-3-4-3zM8 10c.883 0 1.5-.617 1.5-1.5S8.883 7 8 7s-1.5.617-1.5 1.5S7.117 10 8 10z"/><path d="M15 11h7v2h-7zM16 15h6v2h-6zM14 7h8v2h-8zM3 20h10a1 1 0 0 0 1-1v-1c0-2.617-2.859-5-6-5-3.196 0-6 2.336-6 5v1a1 1 0 0 0 1 1zm5-5c2.216 0 4 1.641 4 3H4c0-1.387 1.747-3 4-3zM8 12c1.995 0 3.5-1.505 3.5-3.5S9.995 5 8 5 4.5 6.505 4.5 8.5 6.005 12 8 12zm0-5c.883 0 1.5.617 1.5 1.5S8.883 10 8 10s-1.5-.617-1.5-1.5S7.117 7 8 7z"/></svg>