<svg xmlns="http://www.w3.org/2000/svg" width="24" height="24"><path fill="none" d="M8 15c-2.253 0-4 1.612-4 3h8c0-1.358-1.784-3-4-3zM6.5 8.5c0 .883.617 1.5 1.5 1.5s1.5-.617 1.5-1.5S8.883 7 8 7s-1.5.617-1.5 1.5z"/><path d="M3 20h10a1 1 0 0 0 1-1v-1c0-2.617-2.859-5-6-5-3.196 0-6 2.337-6 5v1a1 1 0 0 0 1 1zm5-5c2.216 0 4 1.642 4 3H4c0-1.388 1.747-3 4-3zM4.5 8.5C4.5 10.495 6.005 12 8 12s3.5-1.505 3.5-3.5S9.995 5 8 5 4.5 6.505 4.5 8.5zm5 0c0 .883-.617 1.5-1.5 1.5s-1.5-.617-1.5-1.5S7.117 7 8 7s1.5.617 1.5 1.5zM14 11h8v2h-8z"/></svg>