<!-- Generated by IcoMoon.io -->
<svg version="1.1" xmlns="http://www.w3.org/2000/svg" width="16" height="16" viewBox="0 0 16 16">
<title>bx-user-circle</title>
<path d="M8 1.333c-3.614 0-6.667 3.053-6.667 6.667 0 2.127 1.063 4.055 2.67 5.285-0.001 0.016-0.003 0.033-0.003 0.049h0.068c1.112 0.83 2.474 1.333 3.932 1.333s2.82-0.503 3.932-1.333h0.068c0-0.016-0.003-0.033-0.003-0.049 1.607-1.23 2.67-3.157 2.67-5.285 0-3.614-3.053-6.667-6.667-6.667zM5.512 12.693c0.376-0.718 1.328-1.36 2.488-1.36 1.138 0 2.099 0.651 2.483 1.363-0.717 0.399-1.572 0.635-2.483 0.637h-0.001c-0.913-0.002-1.77-0.239-2.515-0.654l0.027 0.014zM11.571 11.915c-0.677-1.101-2.074-1.915-3.571-1.915-1.526 0-2.913 0.801-3.581 1.906-1.068-0.983-1.753-2.379-1.753-3.906 0-2.891 2.442-5.333 5.333-5.333s5.333 2.442 5.333 5.333c0 1.531-0.689 2.931-1.762 3.915z"></path>
<path d="M8 4.667c-1.33 0-2.333 1.003-2.333 2.333s1.003 2.333 2.333 2.333 2.333-1.003 2.333-2.333-1.003-2.333-2.333-2.333zM8 8c-0.589 0-1-0.411-1-1s0.411-1 1-1 1 0.411 1 1-0.411 1-1 1z"></path>
</svg>
