<!-- Generated by IcoMoon.io -->
<svg version="1.1" xmlns="http://www.w3.org/2000/svg" width="16" height="16" viewBox="0 0 16 16">
<title>bx-voicemail</title>
<path d="M11.667 5.333c-1.656 0.002-2.998 1.344-3 3v0c0 0.617 0.187 1.189 0.508 1.667h-2.349c0.32-0.477 0.507-1.050 0.507-1.667 0-1.654-1.346-3-3-3s-3 1.346-3 3 1.346 3 3 3c0.114 0 0.223-0.021 0.333-0.034v0.034h7.333v-0.034c1.496-0.168 2.667-1.426 2.667-2.966 0-1.654-1.346-3-3-3zM2.667 8.333c0-0.919 0.747-1.667 1.667-1.667s1.667 0.747 1.667 1.667-0.747 1.667-1.667 1.667-1.667-0.747-1.667-1.667zM11.667 10c-0.919 0-1.667-0.747-1.667-1.667s0.747-1.667 1.667-1.667 1.667 0.747 1.667 1.667-0.747 1.667-1.667 1.667z"></path>
</svg>
