<!-- Generated by IcoMoon.io -->
<svg version="1.1" xmlns="http://www.w3.org/2000/svg" width="16" height="16" viewBox="0 0 16 16">
<title>bx-volume-mute</title>
<path d="M8.981 2.079c-0.091-0.050-0.199-0.079-0.314-0.079-0.138 0-0.266 0.042-0.372 0.114l0.002-0.002-3.146 2.097-2.68-2.68-0.943 0.943 12 12 0.943-0.943-1.347-1.347c0.958-1.11 1.541-2.566 1.541-4.158 0-0.008-0-0.017-0-0.025v0.001c0-2.727-1.648-4.969-3.999-6v1.333c1.591 0.924 2.666 2.698 2.666 4.667-0.004 1.238-0.422 2.378-1.123 3.289l0.009-0.013-0.857-0.857c0.401-0.728 0.639-1.625 0.639-2.419 0-1.181-0.517-2.6-1.333-3.333v5.057l-1.333-1.333v-5.724c0-0 0-0 0-0 0-0.253-0.141-0.473-0.348-0.586l-0.004-0.002zM8 3.912v3.145l-1.887-1.887 1.887-1.258zM2 11.333h2.465l3.832 2.555c0.104 0.070 0.232 0.112 0.37 0.112 0.115 0 0.223-0.029 0.318-0.080l-0.004 0.002c0.211-0.115 0.352-0.335 0.352-0.588 0-0 0-0 0-0v0-1.253l-1.333-1.333v1.341l-2.963-1.976c-0.104-0.070-0.232-0.112-0.37-0.112h-2v-4h0.586l-1.32-1.319c-0.336 0.031-0.598 0.311-0.599 0.652v5.334c0 0.368 0.298 0.667 0.667 0.667v0z"></path>
</svg>
