<!-- Generated by IcoMoon.io -->
<svg version="1.1" xmlns="http://www.w3.org/2000/svg" width="16" height="16" viewBox="0 0 16 16">
<title>bx-volume-low</title>
<path d="M2 11.333h2.465l3.832 2.555c0.104 0.070 0.232 0.112 0.37 0.112 0.115 0 0.223-0.029 0.318-0.080l-0.004 0.002c0.211-0.115 0.352-0.335 0.352-0.588 0-0 0-0 0-0v0-10.667c-0-0.368-0.299-0.666-0.667-0.666-0.138 0-0.266 0.042-0.372 0.113l0.002-0.002-3.833 2.555h-2.465c-0.368 0-0.667 0.298-0.667 0.667v0 5.333c0 0.368 0.298 0.667 0.667 0.667v0zM2.667 6h2c0.131 0 0.261-0.039 0.37-0.112l2.963-1.976v8.176l-2.963-1.976c-0.104-0.070-0.232-0.112-0.37-0.112h-2v-4zM10.667 11.333c0.817-0.733 1.333-2.153 1.333-3.333s-0.517-2.6-1.333-3.333v6.667z"></path>
</svg>
