<svg xmlns="http://www.w3.org/2000/svg" width="24" height="24" viewBox="0 0 24 24"><path d="M21.383,7.076c-0.375-0.154-0.804-0.069-1.09,0.217L18,9.586V5c0-0.552-0.447-1-1-1H3C2.447,4,2,4.448,2,5v14 c0,0.552,0.447,1,1,1h14c0.553,0,1-0.448,1-1v-4.586l2.293,2.293c0.287,0.287,0.716,0.373,1.09,0.217 C21.757,16.769,22,16.404,22,16V8C22,7.596,21.757,7.231,21.383,7.076z M16,18H4V6h12V18z M20,13.586L18.414,12L20,10.414V13.586z"/><path d="M9 16L11 16 11 13 14 13 14 11 11 11 11 8 9 8 9 11 6 11 6 13 9 13z"/></svg>