<!-- Generated by IcoMoon.io -->
<svg version="1.1" xmlns="http://www.w3.org/2000/svg" width="16" height="16" viewBox="0 0 16 16">
<title>bx-wind</title>
<path d="M8.667 3.667c0-1.287-1.047-2.333-2.333-2.333-1.356 0-2.167 1.017-2.167 2h1.333c0-0.277 0.259-0.667 0.833-0.667 0.551 0 1 0.449 1 1s-0.449 1-1 1h-5v1.333h5c1.287 0 2.333-1.047 2.333-2.333zM10.333 13.333c-0.575 0-0.833-0.39-0.833-0.667h-1.333c0 0.983 0.811 2 2.167 2 1.287 0 2.333-1.047 2.333-2.333s-1.047-2.333-2.333-2.333h-5v1.333h5c0.551 0 1 0.449 1 1s-0.449 1-1 1z"></path>
<path d="M12 3.333c-1.471 0-2.667 1.196-2.667 2.667h1.333c0-0.735 0.598-1.333 1.333-1.333s1.333 0.598 1.333 1.333-0.598 1.333-1.333 1.333h-10.667v1.333h10.667c1.471 0 2.667-1.196 2.667-2.667s-1.196-2.667-2.667-2.667zM1.333 10h2.667v1.333h-2.667z"></path>
</svg>
