<!-- Generated by IcoMoon.io -->
<svg version="1.1" xmlns="http://www.w3.org/2000/svg" width="16" height="16" viewBox="0 0 16 16">
<title>bx-world</title>
<path d="M13.333 4h-0.013c-1.217-1.616-3.145-2.667-5.32-2.667-3.676 0-6.667 2.991-6.667 6.667s2.991 6.667 6.667 6.667c2.175 0 4.103-1.051 5.32-2.667h0.013v-0.017c0.833-1.113 1.333-2.489 1.333-3.983s-0.5-2.87-1.333-3.983v-0.017zM2.667 8c0-0.227 0.019-0.448 0.046-0.667h0.621l0.667 1.333v1.333l2 2v0.941c-1.952-0.793-3.333-2.707-3.333-4.941zM8 13.333c-0.447-0.002-0.879-0.058-1.293-0.163l0.037 0.008 1.256-2.511v-1.333h-1.333l-0.667-0.667h-0.667l-0.667-1.333 0.667-1.333 1.333-1.333 0.667-1.333v-0.621c0.219-0.027 0.44-0.046 0.667-0.046 1.261 0 2.419 0.442 3.333 1.177v0.823l-0.667 1.333 0.667 0.667v0.667l-1.333 0.667-0.667 0.677 0.667 0.656 0.667 0.667 0.667 1.333 0.436 0.436c-0.963 0.966-2.295 1.564-3.766 1.564-0.001 0-0.002 0-0.003 0h0z"></path>
</svg>
