<svg xmlns="http://www.w3.org/2000/svg" width="24" height="24"><path fill="none" d="M12 6.002c-3.308 0-5.999 2.691-5.999 5.999S8.692 18 12 18s6-2.691 6-5.999-2.691-5.999-6-5.999zM16 13h-5V8h2v3h3v2z"/><path d="M16 5.084V2h-2v2.265a7.998 7.998 0 0 0-2-.263c-.692 0-1.36.098-2 .264V2H8v3.085c-2.386 1.386-3.999 3.963-3.999 6.916S5.614 17.531 8 18.917V22h2v-2.264A7.959 7.959 0 0 0 12 20c.691 0 1.359-.098 2-.263V22h2v-3.082c2.387-1.386 4-3.964 4-6.917s-1.613-5.531-4-6.917zM12 18c-3.308 0-5.999-2.691-5.999-5.999S8.692 6.002 12 6.002s6 2.691 6 5.999S15.309 18 12 18z"/><path d="M13 8h-2v5h5v-2h-3z"/></svg>