<svg xmlns="http://www.w3.org/2000/svg" width="24" height="24"><path d="M7.16 21.376a.997.997 0 0 1-.707-.293l-3.536-3.536a.997.997 0 0 1 0-1.414l3.796-3.794A7.481 7.481 0 0 1 8.575 4.82a7.443 7.443 0 0 1 5.3-2.196c.986 0 1.947.189 2.856.563a.999.999 0 0 1 .328 1.632l-3.182 3.182 2.121 2.122 3.184-3.182a1 1 0 0 1 1.632.328 7.488 7.488 0 0 1-1.632 8.158 7.452 7.452 0 0 1-5.303 2.195 7.474 7.474 0 0 1-2.218-.333l-3.794 3.795a1 1 0 0 1-.707.292zM5.039 16.84l2.122 2.122 3.535-3.536a.998.998 0 0 1 1.087-.218c2.02.831 4.435.354 5.985-1.196a5.49 5.49 0 0 0 1.586-4.415l-2.648 2.647a.999.999 0 0 1-1.414 0l-3.535-3.536a.999.999 0 0 1 0-1.414l2.646-2.646a5.507 5.507 0 0 0-4.412 1.585 5.488 5.488 0 0 0-1.197 5.984.997.997 0 0 1-.218 1.087L5.039 16.84z"/></svg>