<!-- Generated by IcoMoon.io -->
<svg version="1.1" xmlns="http://www.w3.org/2000/svg" width="16" height="16" viewBox="0 0 16 16">
<title>bx-watch</title>
<path d="M10.667 3.389v-2.056h-1.333v1.51c-0.399-0.109-0.858-0.173-1.332-0.175h-0.001c-0.461 0-0.907 0.065-1.333 0.176v-1.511h-1.333v2.057c-1.591 0.924-2.666 2.642-2.666 4.611s1.075 3.687 2.666 4.611v2.055h1.333v-1.509c0.399 0.11 0.858 0.174 1.332 0.176h0.001c0.461 0 0.906-0.065 1.333-0.175v1.509h1.333v-2.055c1.591-0.924 2.667-2.643 2.667-4.611s-1.075-3.687-2.667-4.611zM8 12c-2.205 0-3.999-1.794-3.999-3.999s1.794-3.999 3.999-3.999 4 1.794 4 3.999-1.794 3.999-4 3.999z"></path>
<path d="M8.667 5.333h-1.333v3.333h3.333v-1.333h-2z"></path>
</svg>
