<!-- Generated by IcoMoon.io -->
<svg version="1.1" xmlns="http://www.w3.org/2000/svg" width="16" height="16" viewBox="0 0 16 16">
<title>bx-window-close</title>
<path d="M14 2.667h-12c-0.368 0-0.667 0.298-0.667 0.667v0 9.333c0 0.368 0.298 0.667 0.667 0.667v0h12c0.368 0 0.667-0.298 0.667-0.667v0-9.333c0-0.368-0.298-0.667-0.667-0.667v0zM2.667 12v-6.667h10.667v6.667h-10.667z"></path>
<path d="M9.529 6.195l-1.529 1.529-1.529-1.529-0.943 0.943 1.529 1.529-1.529 1.529 0.943 0.943 1.529-1.529 1.529 1.529 0.943-0.943-1.529-1.529 1.529-1.529z"></path>
</svg>
