<!-- Generated by IcoMoon.io -->
<svg version="1.1" xmlns="http://www.w3.org/2000/svg" width="16" height="16" viewBox="0 0 16 16">
<title>bx-wallet</title>
<path d="M10.667 8h1.333v2h-1.333z"></path>
<path d="M14 4.667h-0.667v-2c0-0.368-0.298-0.667-0.667-0.667v0h-9.333c-0.804 0-2 0.533-2 2v7.333c0 1.467 1.196 2 2 2h10.667c0.368 0 0.667-0.298 0.667-0.667v0-7.333c0-0.368-0.298-0.667-0.667-0.667v0zM3.333 3.333h8.667v1.333h-8.659c-0.308-0.008-0.675-0.13-0.675-0.667s0.367-0.659 0.667-0.667zM13.333 12h-9.992c-0.308-0.008-0.675-0.13-0.675-0.667v-5.445c0.231 0.077 0.461 0.111 0.667 0.111h10v6z"></path>
</svg>
