<!-- Generated by IcoMoon.io -->
<svg version="1.1" xmlns="http://www.w3.org/2000/svg" width="16" height="16" viewBox="0 0 16 16">
<title>bx-water</title>
<path d="M3.997 6c0.942 0 1.44-0.498 1.803-0.862 0.327-0.327 0.487-0.471 0.861-0.471s0.535 0.145 0.861 0.471c0.363 0.364 0.861 0.862 1.804 0.862s1.442-0.498 1.807-0.862c0.327-0.327 0.488-0.471 0.863-0.471s0.536 0.145 0.863 0.471c0.364 0.364 0.863 0.862 1.806 0.862v-1.333c-0.375 0-0.536-0.145-0.863-0.471-0.364-0.364-0.863-0.862-1.806-0.862s-1.441 0.498-1.806 0.861c-0.327 0.327-0.487 0.472-0.864 0.472-0.375 0-0.535-0.145-0.861-0.471-0.363-0.364-0.861-0.862-1.804-0.862s-1.441 0.498-1.804 0.862c-0.327 0.327-0.487 0.471-0.861 0.471s-0.534-0.145-0.861-0.471c-0.363-0.364-0.861-0.862-1.803-0.862v1.333c0.374 0 0.534 0.145 0.861 0.471 0.363 0.364 0.861 0.862 1.803 0.862zM3.997 9.333c0.942 0 1.44-0.498 1.803-0.862 0.327-0.327 0.487-0.471 0.861-0.471s0.535 0.145 0.861 0.471c0.363 0.364 0.861 0.862 1.804 0.862s1.442-0.498 1.807-0.862c0.327-0.327 0.488-0.471 0.863-0.471s0.536 0.145 0.863 0.471c0.364 0.364 0.863 0.862 1.806 0.862v-1.333c-0.375 0-0.536-0.145-0.863-0.471-0.364-0.364-0.863-0.862-1.806-0.862s-1.441 0.498-1.806 0.861c-0.327 0.327-0.487 0.472-0.864 0.472-0.375 0-0.535-0.145-0.861-0.471-0.363-0.364-0.861-0.862-1.804-0.862s-1.441 0.498-1.804 0.862c-0.327 0.327-0.487 0.471-0.861 0.471s-0.534-0.145-0.861-0.471c-0.363-0.364-0.861-0.862-1.803-0.862v1.333c0.374 0 0.534 0.145 0.861 0.471 0.363 0.364 0.861 0.862 1.803 0.862zM3.997 12.667c0.942 0 1.44-0.498 1.803-0.862 0.327-0.327 0.487-0.471 0.861-0.471s0.535 0.145 0.861 0.471c0.363 0.364 0.861 0.862 1.804 0.862s1.442-0.498 1.807-0.862c0.327-0.327 0.488-0.471 0.863-0.471s0.536 0.145 0.863 0.471c0.364 0.364 0.863 0.862 1.806 0.862v-1.333c-0.375 0-0.536-0.145-0.863-0.471-0.364-0.364-0.863-0.862-1.806-0.862s-1.441 0.498-1.806 0.861c-0.327 0.327-0.487 0.472-0.864 0.472-0.375 0-0.535-0.145-0.861-0.471-0.363-0.364-0.861-0.862-1.804-0.862s-1.441 0.498-1.804 0.862c-0.327 0.327-0.487 0.471-0.861 0.471s-0.534-0.145-0.861-0.471c-0.363-0.364-0.861-0.862-1.803-0.862v1.333c0.374 0 0.534 0.145 0.861 0.471 0.363 0.364 0.861 0.862 1.803 0.862z"></path>
</svg>
