<!-- Generated by IcoMoon.io -->
<svg version="1.1" xmlns="http://www.w3.org/2000/svg" width="16" height="16" viewBox="0 0 16 16">
<title>bx-wrench</title>
<path d="M4.773 14.251c-0 0-0 0-0.001 0-0.184 0-0.35-0.075-0.471-0.195l-2.357-2.357c-0.121-0.12-0.196-0.287-0.196-0.471s0.075-0.351 0.196-0.471l2.531-2.529c-0.143-0.443-0.225-0.952-0.225-1.481 0-1.38 0.56-2.629 1.466-3.532l0-0c0.899-0.904 2.144-1.464 3.519-1.464 0.005 0 0.010 0 0.015 0h-0.001c0.657 0 1.298 0.126 1.904 0.375 0.245 0.102 0.414 0.34 0.414 0.617 0 0.184-0.075 0.351-0.196 0.471l-2.121 2.121 1.414 1.415 2.123-2.121c0.121-0.121 0.287-0.195 0.471-0.195 0.277 0 0.514 0.169 0.615 0.409l0.002 0.004c0.239 0.563 0.378 1.218 0.378 1.905 0 1.38-0.56 2.63-1.466 3.533l-0 0c-0.9 0.904-2.145 1.463-3.521 1.463-0.005 0-0.010 0-0.015-0h0.001c-0.002 0-0.005 0-0.008 0-0.525 0-1.031-0.081-1.506-0.232l0.035 0.010-2.529 2.53c-0.121 0.12-0.287 0.195-0.471 0.195-0 0-0 0-0.001 0h0zM3.359 11.227l1.415 1.415 2.357-2.357c0.12-0.121 0.287-0.196 0.471-0.196 0.091 0 0.179 0.018 0.258 0.052l-0.004-0.002c1.347 0.554 2.957 0.236 3.99-0.797 0.664-0.663 1.074-1.579 1.074-2.59 0-0.124-0.006-0.247-0.018-0.368l0.001 0.015-1.765 1.765c-0.121 0.121-0.287 0.195-0.471 0.195s-0.351-0.075-0.471-0.195l-2.357-2.357c-0.121-0.121-0.195-0.287-0.195-0.471s0.075-0.351 0.195-0.471l1.764-1.764c-0.104-0.010-0.225-0.016-0.347-0.016-1.013 0-1.93 0.41-2.594 1.073l0-0c-0.665 0.662-1.076 1.579-1.076 2.591 0 0.504 0.102 0.985 0.287 1.422l-0.009-0.024c0.032 0.075 0.050 0.162 0.050 0.254 0 0.184-0.075 0.351-0.196 0.471l-2.358 2.357z"></path>
</svg>
