<!-- Generated by IcoMoon.io -->
<svg version="1.1" xmlns="http://www.w3.org/2000/svg" width="16" height="16" viewBox="0 0 16 16">
<title>bx-x-circle</title>
<path d="M9.862 5.195l-1.862 1.862-1.862-1.862-0.943 0.943 1.862 1.862-1.862 1.862 0.943 0.943 1.862-1.862 1.862 1.862 0.943-0.943-1.862-1.862 1.862-1.862z"></path>
<path d="M8 1.333c-3.676 0-6.667 2.991-6.667 6.667s2.991 6.667 6.667 6.667 6.667-2.991 6.667-6.667-2.991-6.667-6.667-6.667zM8 13.333c-2.941 0-5.333-2.393-5.333-5.333s2.393-5.333 5.333-5.333 5.333 2.393 5.333 5.333-2.393 5.333-5.333 5.333z"></path>
</svg>
