<!-- Generated by IcoMoon.io -->
<svg version="1.1" xmlns="http://www.w3.org/2000/svg" width="16" height="16" viewBox="0 0 16 16">
<title>bx-x-square</title>
<path d="M6.138 10.805l1.862-1.862 1.862 1.862 0.943-0.943-1.862-1.862 1.862-1.862-0.943-0.943-1.862 1.862-1.862-1.862-0.943 0.943 1.862 1.862-1.862 1.862z"></path>
<path d="M13.333 2h-10.667c-0.368 0-0.667 0.298-0.667 0.667v0 10.667c0 0.368 0.298 0.667 0.667 0.667v0h10.667c0.368 0 0.667-0.298 0.667-0.667v0-10.667c0-0.368-0.298-0.667-0.667-0.667v0zM12.667 12.667h-9.333v-9.333h9.333v9.333z"></path>
</svg>
