<!-- Generated by IcoMoon.io -->
<svg version="1.1" xmlns="http://www.w3.org/2000/svg" width="16" height="16" viewBox="0 0 16 16">
<title>bx-zoom-in</title>
<path d="M7.333 4h-1.333v2h-2v1.333h2v2h1.333v-2h2v-1.333h-2z"></path>
<path d="M6.667 1.333c-2.941 0-5.333 2.393-5.333 5.333s2.393 5.333 5.333 5.333c1.237-0 2.374-0.424 3.276-1.134l-0.011 0.009 2.931 2.931 0.943-0.943-2.931-2.931c0.702-0.89 1.126-2.028 1.126-3.265v-0c0-2.941-2.393-5.333-5.333-5.333zM6.667 10.667c-2.206 0-4-1.794-4-4s1.794-4 4-4 4 1.794 4 4-1.794 4-4 4z"></path>
</svg>
