<!-- Generated by IcoMoon.io -->
<svg version="1.1" xmlns="http://www.w3.org/2000/svg" width="16" height="16" viewBox="0 0 16 16">
<title>bx-zap</title>
<path d="M2.019 8.161c0.061 0.24 0.246 0.425 0.481 0.485l0.005 0.001 4.665 1.167-1.145 4.004c-0.016 0.055-0.026 0.118-0.026 0.183 0 0.368 0.298 0.667 0.667 0.667 0.172 0 0.329-0.065 0.447-0.172l-0.001 0.001 6.667-6c0.136-0.123 0.22-0.299 0.22-0.495 0-0.311-0.213-0.572-0.5-0.646l-0.005-0.001-4.665-1.167 1.145-4.004c0.016-0.055 0.026-0.118 0.026-0.184 0-0.368-0.298-0.667-0.667-0.667-0.172 0-0.329 0.065-0.447 0.172l0.001-0.001-6.667 6c-0.136 0.123-0.221 0.3-0.221 0.497 0 0.057 0.007 0.112 0.020 0.165l-0.001-0.005zM8.055 4.047l-0.697 2.436c-0.016 0.055-0.026 0.118-0.026 0.184 0 0.311 0.213 0.572 0.501 0.644l0.005 0.001 4.117 1.030-4.011 3.609 0.697-2.436c0.016-0.055 0.026-0.118 0.026-0.184 0-0.311-0.213-0.572-0.501-0.644l-0.005-0.001-4.117-1.030 4.011-3.609z"></path>
</svg>
