<!-- Generated by IcoMoon.io -->
<svg version="1.1" xmlns="http://www.w3.org/2000/svg" width="16" height="16" viewBox="0 0 16 16">
<title>bxl-apple</title>
<path d="M13.11 11.207c-0.191 0.443-0.418 0.85-0.681 1.225-0.358 0.511-0.652 0.865-0.877 1.061-0.35 0.321-0.726 0.487-1.128 0.496-0.288 0-0.636-0.082-1.041-0.249-0.407-0.166-0.78-0.247-1.122-0.247-0.358 0-0.742 0.081-1.153 0.247s-0.743 0.254-0.997 0.262c-0.385 0.017-0.769-0.153-1.153-0.509-0.245-0.213-0.551-0.58-0.918-1.099-0.393-0.553-0.717-1.196-0.97-1.927-0.271-0.791-0.407-1.557-0.407-2.298 0-0.849 0.183-1.581 0.551-2.195 0.289-0.493 0.673-0.882 1.153-1.167s1.001-0.432 1.56-0.441c0.307 0 0.709 0.095 1.207 0.281s0.818 0.281 0.957 0.281c0.105 0 0.459-0.111 1.062-0.332 0.569-0.205 1.049-0.289 1.442-0.256 1.067 0.086 1.867 0.506 2.4 1.263-0.953 0.578-1.425 1.387-1.415 2.425 0.008 0.809 0.302 1.481 0.878 2.015 0.261 0.248 0.553 0.439 0.877 0.575-0.071 0.205-0.145 0.4-0.224 0.588v0zM10.665 1.587c0 0.633-0.232 1.225-0.693 1.773-0.557 0.651-1.231 1.027-1.961 0.968-0.009-0.076-0.014-0.156-0.014-0.24 0-0.609 0.264-1.259 0.735-1.792 0.235-0.269 0.533-0.494 0.895-0.673 0.361-0.176 0.703-0.273 1.024-0.29 0.009 0.085 0.013 0.17 0.013 0.254v0z"></path>
</svg>
