<!-- Generated by IcoMoon.io -->
<svg version="1.1" xmlns="http://www.w3.org/2000/svg" width="16" height="16" viewBox="0 0 16 16">
<title>bxl-whatsapp</title>
<path d="M12.269 3.755c-1.13-1.131-2.633-1.755-4.233-1.755-3.299 0-5.984 2.685-5.985 5.985 0 1.055 0.275 2.084 0.799 2.992l-0.849 3.101 3.173-0.833c0.875 0.477 1.859 0.728 2.86 0.729h0.003c3.298 0 5.983-2.685 5.985-5.985 0-1.599-0.621-3.102-1.751-4.233zM8.035 12.963h-0.002c-0.893-0.001-1.768-0.24-2.532-0.694l-0.181-0.108-1.883 0.494 0.502-1.835-0.118-0.188c-0.498-0.792-0.761-1.707-0.761-2.647 0.001-2.743 2.233-4.974 4.977-4.974 1.329 0.001 2.577 0.519 3.517 1.459s1.456 2.19 1.455 3.519c-0.001 2.743-2.233 4.975-4.974 4.975zM10.764 9.237c-0.15-0.075-0.885-0.437-1.022-0.487s-0.236-0.075-0.336 0.075-0.387 0.486-0.474 0.586-0.175 0.112-0.324 0.037-0.631-0.233-1.203-0.742c-0.445-0.397-0.745-0.886-0.832-1.036s-0.009-0.231 0.066-0.305c0.067-0.067 0.149-0.175 0.224-0.262s0.099-0.149 0.149-0.249 0.025-0.187-0.013-0.262c-0.037-0.075-0.337-0.811-0.461-1.111-0.121-0.29-0.244-0.251-0.336-0.255-0.087-0.004-0.187-0.005-0.286-0.005s-0.262 0.037-0.399 0.187c-0.137 0.15-0.523 0.511-0.523 1.247s0.536 1.447 0.611 1.547c0.075 0.1 1.055 1.61 2.555 2.258 0.357 0.154 0.636 0.246 0.853 0.315 0.358 0.114 0.684 0.097 0.942 0.059 0.287-0.043 0.885-0.361 1.009-0.711s0.125-0.649 0.087-0.711c-0.037-0.063-0.138-0.101-0.287-0.175z"></path>
</svg>
