<!-- Generated by IcoMoon.io -->
<svg version="1.1" xmlns="http://www.w3.org/2000/svg" width="16" height="16" viewBox="0 0 16 16">
<title>bxl-medium</title>
<path d="M2.857 4.846c0.015-0.155-0.043-0.309-0.16-0.413l-1.18-1.422v-0.213h3.665l2.833 6.213 2.491-6.213h3.494v0.213l-1.010 0.967c-0.087 0.067-0.129 0.176-0.112 0.283v7.111c-0.017 0.108 0.025 0.217 0.112 0.283l0.986 0.967v0.213h-4.957v-0.213l1.019-0.991c0.101-0.1 0.101-0.13 0.101-0.283v-5.748l-2.839 7.211h-0.383l-3.305-7.211v4.833c-0.027 0.203 0.040 0.408 0.183 0.555l1.328 1.611v0.213h-3.765v-0.213l1.328-1.611c0.141-0.147 0.205-0.353 0.171-0.555v-5.587z"></path>
</svg>
