<!-- Generated by IcoMoon.io -->
<svg version="1.1" xmlns="http://www.w3.org/2000/svg" width="16" height="16" viewBox="0 0 16 16">
<title>bxl-play-store</title>
<path d="M8.636 7.744l1.971-1.971-6.367-3.579c-0.422-0.228-0.817-0.26-1.164-0.011l5.56 5.561zM10.943 10.052l2.049-1.153c0.4-0.224 0.619-0.541 0.619-0.893s-0.219-0.669-0.619-0.893l-1.855-1.042-2.089 2.088 1.894 1.893zM2.733 2.668c-0.043 0.131-0.067 0.278-0.067 0.439v9.803c0 0.254 0.056 0.473 0.157 0.647l5.398-5.399-5.489-5.49zM8.636 8.571l-5.368 5.369c0.103 0.039 0.213 0.060 0.33 0.060 0.208 0 0.425-0.061 0.645-0.184l6.17-3.465-1.777-1.78z"></path>
</svg>
