<!-- Generated by IcoMoon.io -->
<svg version="1.1" xmlns="http://www.w3.org/2000/svg" width="16" height="16" viewBox="0 0 16 16">
<title>bxl-behance</title>
<path d="M5.202 3.821c0.393 0 0.746 0.034 1.070 0.103 0.322 0.069 0.597 0.182 0.829 0.339 0.229 0.157 0.407 0.365 0.536 0.626 0.125 0.258 0.187 0.581 0.187 0.962 0 0.413-0.093 0.759-0.281 1.034-0.189 0.276-0.467 0.502-0.837 0.677 0.505 0.146 0.879 0.401 1.127 0.764 0.249 0.366 0.371 0.804 0.371 1.317 0 0.417-0.079 0.775-0.239 1.075-0.16 0.305-0.379 0.553-0.649 0.743-0.272 0.193-0.584 0.334-0.933 0.427-0.346 0.091-0.705 0.137-1.073 0.137h-3.977v-8.204h3.869zM4.968 7.135c0.32 0 0.585-0.076 0.795-0.23 0.208-0.152 0.309-0.403 0.309-0.746 0-0.191-0.034-0.348-0.101-0.471-0.069-0.122-0.161-0.218-0.278-0.285-0.116-0.070-0.246-0.117-0.398-0.143-0.149-0.029-0.305-0.041-0.465-0.041h-1.69v1.917h1.828zM5.069 10.628c0.178 0 0.347-0.015 0.507-0.051 0.161-0.035 0.303-0.091 0.425-0.174 0.121-0.080 0.221-0.189 0.293-0.327 0.073-0.137 0.108-0.317 0.108-0.532 0-0.423-0.119-0.723-0.355-0.905-0.237-0.18-0.554-0.269-0.943-0.269h-1.963v2.26h1.929zM10.779 10.601c0.245 0.239 0.597 0.359 1.056 0.359 0.329 0 0.613-0.083 0.852-0.249 0.236-0.166 0.38-0.343 0.435-0.527h1.437c-0.231 0.715-0.581 1.225-1.059 1.533-0.473 0.309-1.048 0.462-1.72 0.462-0.468 0-0.889-0.075-1.267-0.225-0.378-0.151-0.695-0.363-0.959-0.639-0.259-0.277-0.46-0.605-0.603-0.99-0.142-0.383-0.213-0.807-0.213-1.266 0-0.444 0.074-0.859 0.219-1.243 0.149-0.385 0.353-0.717 0.623-0.995 0.27-0.28 0.59-0.501 0.963-0.663 0.373-0.161 0.783-0.241 1.239-0.241 0.503 0 0.942 0.097 1.319 0.293 0.375 0.195 0.684 0.458 0.927 0.788 0.242 0.329 0.415 0.705 0.522 1.127s0.145 0.861 0.114 1.322h-4.287c0.001 0.469 0.159 0.914 0.404 1.153zM12.653 7.48c-0.194-0.215-0.522-0.331-0.923-0.331-0.261 0-0.476 0.043-0.649 0.133-0.169 0.089-0.307 0.198-0.413 0.327-0.105 0.131-0.177 0.27-0.219 0.419-0.041 0.145-0.067 0.275-0.074 0.391h2.655c-0.039-0.416-0.181-0.723-0.376-0.939zM10.041 4.371h3.326v0.81h-3.326z"></path>
</svg>
