<!-- Generated by IcoMoon.io -->
<svg version="1.1" xmlns="http://www.w3.org/2000/svg" width="16" height="16" viewBox="0 0 16 16">
<title>bxl-instagram</title>
<path d="M7.999 4.918c-1.703 0-3.082 1.38-3.082 3.082s1.379 3.083 3.082 3.083c1.701 0 3.082-1.38 3.082-3.083s-1.381-3.082-3.082-3.082v0zM7.999 10.003c-1.106 0-2.003-0.897-2.003-2.002s0.897-2.002 2.003-2.002 2.001 0.896 2.001 2.002c0 1.105-0.895 2.002-2.001 2.002v0z"></path>
<path d="M11.923 4.805c0 0.397-0.322 0.719-0.719 0.719s-0.719-0.322-0.719-0.719c0-0.397 0.322-0.719 0.719-0.719s0.719 0.322 0.719 0.719z"></path>
<path d="M13.689 4.074c-0.313-0.806-0.949-1.443-1.755-1.755-0.466-0.175-0.959-0.269-1.457-0.28-0.642-0.028-0.845-0.036-2.473-0.036s-1.837 0-2.473 0.036c-0.497 0.010-0.99 0.104-1.456 0.28-0.807 0.311-1.443 0.949-1.755 1.755-0.175 0.467-0.269 0.959-0.279 1.457-0.029 0.641-0.037 0.845-0.037 2.473s0 1.835 0.037 2.473c0.010 0.499 0.104 0.991 0.279 1.458 0.313 0.805 0.949 1.443 1.756 1.755 0.464 0.181 0.957 0.284 1.457 0.3 0.642 0.028 0.845 0.037 2.473 0.037s1.837 0 2.473-0.037c0.498-0.010 0.991-0.105 1.457-0.279 0.806-0.313 1.443-0.949 1.755-1.755 0.175-0.467 0.269-0.959 0.279-1.457 0.029-0.641 0.037-0.845 0.037-2.473s0-1.835-0.037-2.473c-0.009-0.505-0.102-1.006-0.281-1.478zM12.877 10.429c-0.005 0.384-0.074 0.765-0.207 1.125-0.203 0.525-0.617 0.939-1.141 1.141-0.357 0.133-0.733 0.202-1.113 0.207-0.633 0.029-0.812 0.037-2.436 0.037-1.625 0-1.791 0-2.437-0.037-0.379-0.005-0.757-0.075-1.113-0.207-0.526-0.201-0.943-0.615-1.146-1.141-0.131-0.356-0.201-0.733-0.207-1.113-0.029-0.633-0.035-0.812-0.035-2.436s0-1.791 0.035-2.437c0.005-0.384 0.074-0.764 0.207-1.125 0.203-0.526 0.62-0.94 1.146-1.141 0.356-0.132 0.733-0.202 1.113-0.207 0.634-0.029 0.812-0.037 2.437-0.037s1.791 0 2.436 0.037c0.381 0.005 0.757 0.075 1.113 0.207 0.524 0.202 0.938 0.617 1.141 1.141 0.131 0.356 0.201 0.733 0.207 1.113 0.029 0.634 0.036 0.812 0.036 2.437s0 1.799-0.029 2.436h-0.007z"></path>
</svg>
