<!-- Generated by IcoMoon.io -->
<svg version="1.1" xmlns="http://www.w3.org/2000/svg" width="16" height="16" viewBox="0 0 16 16">
<title>bxl-reddit</title>
<path d="M7.114 8.667c0 0.369-0.299 0.667-0.667 0.667s-0.667-0.299-0.667-0.667c0-0.369 0.299-0.667 0.667-0.667s0.667 0.299 0.667 0.667z"></path>
<path d="M9.393 10.26c-0.405 0.291-0.896 0.434-1.393 0.407-0.496 0.023-0.986-0.126-1.387-0.42-0.066-0.054-0.161-0.054-0.228 0-0.077 0.063-0.088 0.177-0.025 0.253 0.473 0.357 1.055 0.539 1.647 0.513 0.591 0.025 1.173-0.156 1.647-0.513v0.027c0.073-0.071 0.074-0.19 0.004-0.264-0.073-0.073-0.191-0.075-0.265-0.003zM9.533 8.027c-0.368 0-0.666 0.299-0.666 0.667s0.298 0.666 0.666 0.666l-0.005 0.026c0.011 0.001 0.022 0 0.034 0 0.367-0.014 0.653-0.325 0.639-0.692 0-0.369-0.298-0.667-0.667-0.667z"></path>
<path d="M8 1.333c-3.681 0-6.667 2.985-6.667 6.667 0 3.681 2.986 6.667 6.667 6.667s6.667-2.986 6.667-6.667c0-3.682-2.986-6.667-6.667-6.667zM11.907 8.887c0.007 0.097 0.007 0.195 0 0.293 0 1.494-1.74 2.708-3.887 2.708s-3.887-1.213-3.887-2.708c-0.008-0.097-0.008-0.195 0-0.293-0.097-0.044-0.183-0.103-0.261-0.176-0.391-0.369-0.409-0.985-0.042-1.375 0.368-0.392 0.985-0.411 1.375-0.042 0.768-0.521 1.673-0.806 2.599-0.82l0.495-2.313c0-0.001 0-0.001 0-0.003 0.025-0.111 0.135-0.181 0.247-0.157l1.633 0.327c0.107-0.183 0.294-0.305 0.505-0.328 0.367-0.039 0.695 0.225 0.735 0.592s-0.225 0.695-0.593 0.734c-0.365 0.039-0.694-0.225-0.735-0.591l-1.425-0.3-0.433 2.080c0.917 0.019 1.808 0.305 2.567 0.82 0.173-0.165 0.399-0.262 0.638-0.271 0.538-0.019 0.989 0.4 1.008 0.937 0.006 0.375-0.205 0.72-0.54 0.887z"></path>
</svg>
