<!-- Generated by IcoMoon.io -->
<svg version="1.1" xmlns="http://www.w3.org/2000/svg" width="16" height="16" viewBox="0 0 16 16">
<title>bxl-slack-rounded</title>
<path d="M9.063 8.518l-1.602 0.536-0.518-1.547 1.602-0.536z"></path>
<path d="M13.503 6.352c-1.238-4.127-3.023-5.087-7.151-3.848-4.127 1.237-5.087 3.023-3.849 7.149s3.023 5.087 7.151 3.849c4.126-1.238 5.087-3.023 3.849-7.15zM11.419 9.030l-0.777 0.259 0.269 0.806c0.105 0.327-0.068 0.681-0.394 0.787-0.067 0.019-0.144 0.039-0.211 0.029-0.249-0.010-0.489-0.173-0.576-0.423l-0.267-0.806-1.603 0.537 0.269 0.806c0.105 0.326-0.068 0.681-0.394 0.787-0.068 0.019-0.145 0.039-0.211 0.029-0.25-0.010-0.489-0.173-0.576-0.423l-0.268-0.806-0.777 0.259c-0.068 0.019-0.145 0.039-0.211 0.029-0.249-0.009-0.489-0.173-0.575-0.422-0.105-0.327 0.067-0.681 0.394-0.787l0.777-0.259-0.518-1.545-0.779 0.26c-0.067 0.019-0.143 0.039-0.211 0.029-0.25-0.010-0.489-0.173-0.576-0.423-0.106-0.326 0.067-0.681 0.393-0.787l0.779-0.26-0.27-0.805c-0.106-0.327 0.067-0.681 0.393-0.787s0.681 0.067 0.787 0.393l0.269 0.806 1.603-0.537-0.269-0.806c-0.106-0.327 0.067-0.681 0.393-0.787s0.682 0.067 0.787 0.393l0.269 0.806 0.778-0.259c0.326-0.106 0.681 0.067 0.787 0.393s-0.067 0.681-0.393 0.787l-0.779 0.259 0.519 1.545 0.777-0.26c0.327-0.105 0.681 0.067 0.788 0.393 0.105 0.328-0.068 0.683-0.395 0.789z"></path>
</svg>
