<!-- Generated by IcoMoon.io -->
<svg version="1.1" xmlns="http://www.w3.org/2000/svg" width="16" height="16" viewBox="0 0 16 16">
<title>bxl-twitter</title>
<path d="M13.089 5.331c0.009 0.117 0.009 0.233 0.009 0.349 0 3.55-2.702 7.641-7.64 7.641-1.521 0-2.935-0.441-4.124-1.206 0.216 0.025 0.424 0.033 0.649 0.033 1.255 0 2.411-0.424 3.334-1.147-1.181-0.025-2.17-0.798-2.511-1.862 0.166 0.025 0.333 0.041 0.507 0.041 0.241 0 0.483-0.033 0.707-0.091-1.231-0.249-2.153-1.33-2.153-2.635v-0.033c0.358 0.199 0.773 0.324 1.213 0.341-0.723-0.481-1.197-1.305-1.197-2.236 0-0.499 0.133-0.956 0.365-1.355 1.322 1.629 3.309 2.693 5.537 2.81-0.041-0.2-0.067-0.407-0.067-0.615 0-1.48 1.197-2.685 2.685-2.685 0.773 0 1.471 0.324 1.962 0.848 0.607-0.117 1.188-0.341 1.704-0.649-0.199 0.623-0.624 1.147-1.181 1.48 0.541-0.059 1.065-0.208 1.546-0.416-0.365 0.532-0.822 1.006-1.346 1.389z"></path>
</svg>
