<!-- Generated by IcoMoon.io -->
<svg version="1.1" xmlns="http://www.w3.org/2000/svg" width="16" height="16" viewBox="0 0 16 16">
<title>bxl-google-plus-circle</title>
<path d="M14.676 7.983c-0.012-3.675-2.995-6.649-6.671-6.649-3.677 0-6.659 2.975-6.671 6.649 0-0.007-0.001-0.011-0.001-0.017v0.036c0 0 0 0.001 0 0.002 0 0 0 0.001 0 0.001v0.036c0-0.005 0-0.010 0.001-0.015 0.011 3.675 2.994 6.651 6.671 6.651 3.676 0 6.659-2.975 6.671-6.649 0 0.006 0.001 0.011 0.001 0.017v-0.036c0-0.001 0-0.002 0-0.003s0-0.002 0-0.003v-0.036c0 0.007-0.001 0.011-0.001 0.017zM6.187 11.038c-1.673 0-3.032-1.359-3.032-3.033s1.359-3.033 3.032-3.033c0.82 0 1.505 0.301 2.031 0.792l-0.863 0.837c-0.217-0.206-0.599-0.449-1.167-0.449-1.003 0-1.822 0.834-1.822 1.857s0.819 1.856 1.822 1.856c1.161 0 1.589-0.804 1.668-1.28h-1.669v-1.132h2.837c0.044 0.191 0.077 0.369 0.077 0.621 0 1.731-1.161 2.963-2.912 2.963zM13.159 8.308h-1.213v1.213h-0.909v-1.213h-1.213v-0.909h1.213v-1.213h0.909v1.213h1.213v0.909z"></path>
</svg>
