<!-- Generated by IcoMoon.io -->
<svg version="1.1" xmlns="http://www.w3.org/2000/svg" width="16" height="16" viewBox="0 0 16 16">
<title>bxl-bitcoin</title>
<path d="M7.969 5.879l-0.365 1.46c0.413 0.103 1.686 0.523 1.892-0.304 0.215-0.861-1.115-1.053-1.527-1.156zM7.421 8.077l-0.402 1.61c0.495 0.123 2.025 0.614 2.251-0.294 0.237-0.948-1.353-1.193-1.849-1.316z"></path>
<path d="M9.614 1.533c-3.571-0.89-7.187 1.283-8.077 4.855-0.891 3.57 1.283 7.187 4.851 8.077 3.571 0.89 7.189-1.283 8.078-4.854 0.891-3.571-1.283-7.187-4.853-8.078zM10.941 7.049c-0.097 0.649-0.457 0.963-0.935 1.074 0.657 0.341 0.99 0.865 0.673 1.774-0.395 1.127-1.332 1.223-2.58 0.987l-0.303 1.213-0.731-0.182 0.298-1.196c-0.189-0.047-0.383-0.097-0.583-0.152l-0.299 1.203-0.73-0.183 0.303-1.215c-0.171-0.044-0.345-0.091-0.521-0.135l-0.953-0.237 0.364-0.837c0 0 0.539 0.143 0.531 0.133 0.207 0.051 0.299-0.083 0.335-0.174l0.479-1.917c0.027 0.007 0.053 0.013 0.077 0.019-0.029-0.012-0.055-0.019-0.076-0.025l0.341-1.369c0.009-0.156-0.044-0.352-0.341-0.426 0.012-0.007-0.531-0.132-0.531-0.132l0.194-0.781 1.009 0.252-0.001 0.003c0.151 0.038 0.307 0.074 0.467 0.11l0.299-1.201 0.731 0.182-0.293 1.177c0.196 0.045 0.394 0.090 0.586 0.138l0.292-1.17 0.731 0.182-0.299 1.201c0.923 0.319 1.597 0.797 1.465 1.683z"></path>
</svg>
