<!-- Generated by IcoMoon.io -->
<svg version="1.1" xmlns="http://www.w3.org/2000/svg" width="16" height="16" viewBox="0 0 16 16">
<title>bxl-facebook-square</title>
<path d="M13.333 2h-10.667c-0.369 0-0.667 0.299-0.667 0.667v10.667c0 0.368 0.298 0.667 0.667 0.667h5.743v-4.64h-1.559v-1.817h1.559v-1.333c0-1.55 0.947-2.395 2.333-2.395 0.466-0.001 0.933 0.023 1.397 0.071v1.613h-0.957c-0.752 0-0.899 0.359-0.899 0.883v1.157h1.798l-0.233 1.817h-1.565v4.643h3.049c0.369 0 0.667-0.299 0.667-0.667v-10.667c0-0.368-0.298-0.667-0.667-0.667z"></path>
</svg>
