<!-- Generated by IcoMoon.io -->
<svg version="1.1" xmlns="http://www.w3.org/2000/svg" width="16" height="16" viewBox="0 0 16 16">
<title>bxl-vk</title>
<path d="M14.386 4.57c0.093-0.31 0-0.537-0.441-0.537h-1.462c-0.372 0-0.542 0.197-0.635 0.413 0 0-0.743 1.813-1.797 2.988-0.34 0.342-0.495 0.45-0.681 0.45-0.093 0-0.227-0.108-0.227-0.418v-2.895c0-0.372-0.107-0.537-0.417-0.537h-2.297c-0.232 0-0.372 0.172-0.372 0.336 0 0.352 0.527 0.433 0.581 1.425v2.152c0 0.471-0.085 0.557-0.271 0.557-0.495 0-1.701-1.819-2.416-3.902-0.139-0.405-0.28-0.568-0.653-0.568h-1.461c-0.418 0-0.501 0.197-0.501 0.413 0 0.388 0.495 2.308 2.307 4.847 1.208 1.734 2.909 2.674 4.458 2.674 0.929 0 1.043-0.209 1.043-0.569v-1.311c0-0.417 0.089-0.501 0.383-0.501 0.216 0 0.588 0.109 1.455 0.945 0.991 0.991 1.155 1.435 1.711 1.435h1.461c0.417 0 0.626-0.209 0.506-0.621-0.131-0.41-0.605-1.007-1.233-1.713-0.341-0.403-0.851-0.836-1.007-1.053-0.217-0.279-0.154-0.403 0-0.651 0.001 0.001 1.781-2.507 1.967-3.36z"></path>
</svg>
