<!-- Generated by IcoMoon.io -->
<svg version="1.1" xmlns="http://www.w3.org/2000/svg" width="16" height="16" viewBox="0 0 16 16">
<title>bxl-vimeo</title>
<path d="M14.041 6.943c-1.357 2.899-4.633 6.845-6.703 6.845-2.040 0-2.334-4.351-3.449-7.246-0.549-1.425-0.903-1.097-1.931-0.378l-0.626-0.809c1.499-1.317 2.999-2.848 3.92-2.933 1.039-0.099 1.678 0.611 1.915 2.129 0.317 1.996 0.758 5.094 1.527 5.094 0.6 0 2.078-2.457 2.155-3.336 0.135-1.287-0.947-1.326-1.885-0.925 1.485-4.863 7.663-3.967 5.076 1.559z"></path>
</svg>
