<!-- Generated by IcoMoon.io -->
<svg version="1.1" xmlns="http://www.w3.org/2000/svg" width="16" height="16" viewBox="0 0 16 16">
<title>bxl-slack</title>
<path d="M13.957 8.431c-0.187-0.561-0.787-0.867-1.348-0.689l-1.088 0.355c-0.237-0.733-0.49-1.512-0.728-2.243 0.001-0.001 0.002-0.001 0.004-0.001-0.001-0.001-0.002-0.004-0.003-0.005 0.655-0.212 1.075-0.349 1.075-0.349 0.561-0.187 0.867-0.788 0.69-1.349-0.187-0.561-0.789-0.867-1.35-0.689l-1.081 0.351c-0.21-0.651-0.346-1.069-0.346-1.069-0.187-0.561-0.787-0.867-1.349-0.689-0.561 0.187-0.866 0.787-0.689 1.349l0.348 1.073-2.245 0.728c-0.212-0.653-0.349-1.074-0.349-1.074-0.186-0.561-0.788-0.867-1.348-0.689-0.562 0.187-0.867 0.788-0.689 1.349l0.349 1.077-1.108 0.361c-0.521 0.187-0.817 0.759-0.659 1.3 0.167 0.571 0.768 0.915 1.319 0.728 0.004 0 0.439-0.139 1.11-0.357l0.733 2.257h-0.001v0.001l-1.113 0.363c-0.521 0.187-0.817 0.758-0.658 1.299 0.167 0.571 0.767 0.916 1.319 0.729 0.005 0 0.439-0.141 1.11-0.359l0.002 0.003c0.001 0 0.004-0.001 0.005-0.001l0.359 1.105c0.187 0.522 0.759 0.817 1.299 0.659 0.571-0.167 0.915-0.767 0.729-1.319 0-0.004-0.139-0.436-0.355-1.103v0c-0.001-0.002-0.001-0.004-0.002-0.006 0.736-0.239 1.517-0.493 2.251-0.732l0.362 1.112c0.187 0.521 0.759 0.817 1.299 0.659 0.571-0.167 0.916-0.768 0.728-1.319 0-0.005-0.139-0.439-0.357-1.109 0.005-0.001 0.009-0.003 0.013-0.004-0.001-0.001-0.001-0.003-0.002-0.005 0.653-0.211 1.073-0.348 1.073-0.348 0.562-0.187 0.867-0.788 0.69-1.349zM7.24 9.492c-0.239-0.735-0.493-1.518-0.731-2.251 0.001 0 0.003-0.001 0.003-0.001 0-0.001 0-0.003 0-0.004 0.732-0.237 1.512-0.49 2.242-0.728l0.732 2.251-2.246 0.733z"></path>
</svg>
