<!-- Generated by IcoMoon.io -->
<svg version="1.1" xmlns="http://www.w3.org/2000/svg" width="16" height="16" viewBox="0 0 16 16">
<title>bxl-youtube</title>
<path d="M14.395 4.802c-0.153-0.572-0.603-1.023-1.175-1.177-1.044-0.287-5.221-0.291-5.221-0.291s-4.176-0.005-5.221 0.269c-0.56 0.153-1.023 0.614-1.177 1.185-0.275 1.044-0.278 3.209-0.278 3.209s-0.003 2.176 0.271 3.209c0.153 0.571 0.603 1.023 1.175 1.177 1.055 0.287 5.22 0.291 5.22 0.291s4.177 0.005 5.221-0.269c0.571-0.153 1.023-0.604 1.178-1.175 0.276-1.043 0.278-3.208 0.278-3.208s0.013-2.177-0.271-3.221zM6.664 10.003l0.003-4 3.471 2.003-3.475 1.997z"></path>
</svg>
