<!-- Generated by IcoMoon.io -->
<svg version="1.1" xmlns="http://www.w3.org/2000/svg" width="16" height="16" viewBox="0 0 16 16">
<title>bxl-google-plus</title>
<path d="M13.030 10.017v-1.614h1.615v-1.21h-1.615v-1.614h-1.21v1.614h-1.614v1.21h1.614v1.614zM5.368 5.535c0.755 0 1.264 0.323 1.553 0.597l1.148-1.113c-0.699-0.653-1.61-1.053-2.701-1.053-2.225-0.001-4.035 1.807-4.035 4.035s1.809 4.035 4.035 4.035c2.329 0 3.875-1.638 3.875-3.942 0-0.335-0.043-0.573-0.102-0.827h-3.775v1.504h2.221c-0.105 0.634-0.674 1.704-2.219 1.704-1.335 0-2.425-1.11-2.425-2.469 0-1.361 1.089-2.471 2.425-2.471z"></path>
</svg>
