<!-- Generated by IcoMoon.io -->
<svg version="1.1" xmlns="http://www.w3.org/2000/svg" width="16" height="16" viewBox="0 0 16 16">
<title>bxl-twitter-square</title>
<path d="M12.5 14h-9c-0.828 0-1.5-0.672-1.5-1.5v-9c0-0.828 0.672-1.5 1.5-1.5h9c0.828 0 1.5 0.672 1.5 1.5v9c0 0.828-0.672 1.5-1.5 1.5zM6.608 11.048c2.829 0 4.377-2.347 4.377-4.377 0-0.067 0-0.132-0.004-0.198 0.3-0.216 0.561-0.489 0.768-0.798-0.276 0.123-0.573 0.204-0.885 0.243 0.318-0.189 0.561-0.492 0.678-0.853-0.297 0.177-0.627 0.303-0.978 0.373-0.283-0.3-0.681-0.486-1.122-0.486-0.849 0-1.54 0.69-1.54 1.539 0 0.12 0.015 0.237 0.040 0.351-1.278-0.063-2.413-0.678-3.171-1.608-0.132 0.227-0.206 0.491-0.206 0.773 0 0.534 0.273 1.005 0.683 1.281-0.251-0.009-0.489-0.078-0.696-0.192 0 0.006 0 0.012 0 0.021 0 0.744 0.531 1.368 1.234 1.509-0.129 0.036-0.264 0.054-0.405 0.054-0.099 0-0.195-0.009-0.288-0.027 0.195 0.612 0.765 1.056 1.437 1.068-0.528 0.414-1.191 0.66-1.911 0.66-0.123 0-0.246-0.006-0.367-0.021 0.678 0.432 1.488 0.687 2.355 0.687z"></path>
</svg>
