<!-- Generated by IcoMoon.io -->
<svg version="1.1" xmlns="http://www.w3.org/2000/svg" width="16" height="16" viewBox="0 0 16 16">
<title>bxl-linkedin</title>
<path d="M4.781 3.339c0 0.806-0.653 1.459-1.459 1.459s-1.459-0.653-1.459-1.459c0-0.806 0.653-1.459 1.459-1.459s1.459 0.653 1.459 1.459z"></path>
<path d="M6.158 5.903v8.093h2.513v-4.002c0-1.056 0.199-2.079 1.508-2.079 1.291 0 1.307 1.207 1.307 2.145v3.936h2.514v-4.438c0-2.18-0.469-3.855-3.017-3.855-1.223 0-2.043 0.671-2.379 1.307h-0.034v-1.107h-2.412zM2.063 5.903h2.517v8.093h-2.517z"></path>
</svg>
