<!-- Generated by IcoMoon.io -->
<svg version="1.1" xmlns="http://www.w3.org/2000/svg" width="16" height="16" viewBox="0 0 16 16">
<title>bxl-android</title>
<path d="M12.229 5.807c-0.471 0-0.853 0.381-0.853 0.852v3.020c0 0.473 0.381 0.853 0.853 0.853s0.853-0.381 0.853-0.853v-3.020c0-0.471-0.381-0.852-0.853-0.852zM3.771 5.807c-0.471 0-0.853 0.381-0.853 0.852v3.020c0 0.473 0.381 0.853 0.853 0.853s0.853-0.381 0.853-0.853v-3.020c0.001-0.471-0.381-0.852-0.853-0.852zM9.697 3.267l0.512-0.925c0.064-0.111 0.022-0.251-0.089-0.313-0.112-0.063-0.253-0.022-0.314 0.090l-0.526 0.947c-0.392-0.157-0.824-0.245-1.28-0.245s-0.888 0.088-1.28 0.245l-0.526-0.945c-0.060-0.112-0.201-0.153-0.314-0.090-0.111 0.062-0.151 0.202-0.089 0.313l0.512 0.925c-0.922 0.525-1.538 1.465-1.538 2.539 0 0.007 0 0.014 0.001 0.023-0.001 0.004-0.001 0.009-0.001 0.013v0.001l6.469-0.001c0-0.004 0-0.009 0-0.013 0-0.009 0-0.015 0-0.023 0.001-1.074-0.615-2.013-1.537-2.539zM6.507 4.579c-0.126 0-0.229-0.104-0.229-0.231s0.103-0.231 0.229-0.231c0.127 0 0.232 0.103 0.232 0.231s-0.105 0.231-0.232 0.231zM9.493 4.579c-0.127 0-0.231-0.104-0.231-0.231s0.103-0.231 0.231-0.231c0.126 0 0.229 0.103 0.229 0.231s-0.103 0.231-0.229 0.231zM4.765 10.747c0 0.431 0.35 0.781 0.783 0.781h0.391v1.601c0 0.471 0.383 0.852 0.853 0.852s0.853-0.381 0.853-0.852v-1.601h0.711v1.601c0 0.471 0.381 0.852 0.851 0.852 0.473 0 0.854-0.381 0.854-0.852v-1.601h0.391c0.432 0 0.783-0.349 0.783-0.781v-4.728h-6.468v4.728z"></path>
</svg>
