<!-- Generated by IcoMoon.io -->
<svg version="1.1" xmlns="http://www.w3.org/2000/svg" width="16" height="16" viewBox="0 0 16 16">
<title>bxl-pinterest</title>
<path d="M7.993 1.333c-3.679 0-6.66 2.982-6.66 6.66 0 2.821 1.755 5.233 4.233 6.204-0.059-0.527-0.111-1.337 0.023-1.912 0.121-0.52 0.781-3.311 0.781-3.311s-0.199-0.399-0.199-0.989c0-0.925 0.537-1.617 1.205-1.617 0.569 0 0.843 0.427 0.843 0.938 0 0.572-0.364 1.426-0.551 2.218-0.157 0.663 0.333 1.203 0.986 1.203 1.183 0 2.094-1.248 2.094-3.050 0-1.595-1.146-2.709-2.782-2.709-1.895 0-3.008 1.421-3.008 2.89 0 0.572 0.221 1.186 0.496 1.52 0.054 0.066 0.062 0.123 0.046 0.191-0.051 0.21-0.163 0.663-0.185 0.755-0.029 0.122-0.097 0.148-0.223 0.089-0.831-0.387-1.351-1.603-1.351-2.581 0-2.101 1.526-4.030 4.401-4.030 2.311 0 4.106 1.646 4.106 3.847 0 2.296-1.447 4.142-3.456 4.142-0.675 0-1.309-0.35-1.527-0.764 0 0-0.334 1.271-0.415 1.583-0.15 0.579-0.556 1.304-0.827 1.747 0.623 0.193 1.285 0.297 1.972 0.297 3.678 0 6.66-2.982 6.66-6.66s-2.983-6.661-6.661-6.661z"></path>
</svg>
