<!-- Generated by IcoMoon.io -->
<svg version="1.1" xmlns="http://www.w3.org/2000/svg" width="16" height="16" viewBox="0 0 16 16">
<title>bxl-blogger</title>
<path d="M13.969 7.111c-0.048-0.215-0.181-0.414-0.335-0.497-0.047-0.026-0.348-0.059-0.669-0.073-0.539-0.024-0.599-0.035-0.768-0.134-0.27-0.158-0.344-0.329-0.345-0.791-0.001-0.885-0.369-1.706-1.097-2.447-0.517-0.529-1.097-0.886-1.756-1.086-0.157-0.048-0.512-0.065-1.697-0.079-1.858-0.022-2.27 0.016-2.904 0.268-1.165 0.465-2.005 1.444-2.31 2.7-0.058 0.235-0.069 0.613-0.083 2.785-0.017 2.72 0.003 3.12 0.172 3.659 0.141 0.445 0.283 0.718 0.574 1.105 0.557 0.739 1.389 1.271 2.223 1.422 0.397 0.071 5.287 0.090 5.789 0.021 0.871-0.119 1.554-0.468 2.195-1.123 0.463-0.473 0.753-0.986 0.943-1.666 0.078-0.283 0.085-0.42 0.099-2.078 0.011-1.252 0.001-1.839-0.031-1.987zM5.338 5.405c0.209-0.211 0.266-0.219 1.576-0.219 1.176 0 1.215 0.003 1.387 0.089 0.25 0.126 0.359 0.304 0.359 0.587 0 0.256-0.102 0.435-0.329 0.579-0.123 0.077-0.195 0.082-1.347 0.089-0.711 0.005-1.277-0.009-1.362-0.032-0.446-0.123-0.612-0.762-0.284-1.093zM10.475 10.763l-0.398 0.065-2.076 0.023c-1.824 0.022-2.341-0.012-2.435-0.053-0.192-0.083-0.369-0.315-0.401-0.52-0.028-0.195 0.069-0.464 0.22-0.6 0.19-0.171 0.273-0.177 2.607-0.18 2.401-0.001 2.389-0.002 2.617 0.21 0.321 0.3 0.254 0.834-0.134 1.055z"></path>
</svg>
