<!-- Generated by IcoMoon.io -->
<svg version="1.1" xmlns="http://www.w3.org/2000/svg" width="16" height="16" viewBox="0 0 16 16">
<title>bxl-dribbble</title>
<path d="M13.773 4.653c-0.596-1.022-1.405-1.831-2.427-2.427s-2.137-0.893-3.346-0.893-2.324 0.298-3.347 0.893c-1.022 0.595-1.831 1.405-2.427 2.427s-0.893 2.138-0.893 3.347 0.297 2.325 0.893 3.347c0.596 1.023 1.405 1.831 2.427 2.427s2.137 0.893 3.346 0.893 2.324-0.298 3.347-0.893c1.022-0.595 1.831-1.404 2.427-2.427s0.893-2.138 0.893-3.347-0.297-2.325-0.893-3.347zM8 2.44c1.333 0 2.515 0.427 3.547 1.279-0.613 0.783-1.524 1.427-2.733 1.933-0.668-1.209-1.392-2.218-2.174-3.027 0.455-0.124 0.907-0.186 1.361-0.186zM3.673 4.533c0.503-0.631 1.104-1.124 1.807-1.48 0.808 0.801 1.55 1.8 2.227 3-1.333 0.4-2.743 0.6-4.227 0.6-0.382 0-0.671-0.009-0.867-0.027 0.205-0.765 0.558-1.462 1.060-2.093zM2.44 8c0-0.036 0.002-0.080 0.007-0.133s0.007-0.097 0.007-0.133c0.169 0.009 0.427 0.013 0.774 0.013 1.777 0 3.431-0.245 4.959-0.733 0.125 0.249 0.254 0.529 0.387 0.84-0.88 0.195-1.783 0.671-2.707 1.427s-1.599 1.551-2.026 2.387c-0.933-1.058-1.4-2.28-1.4-3.667zM8 13.56c-1.263 0-2.396-0.391-3.401-1.173 0.401-0.791 1.016-1.548 1.847-2.267s1.655-1.169 2.473-1.347c0.515 1.422 0.862 2.893 1.040 4.413-0.649 0.249-1.303 0.373-1.96 0.373zM12.72 10.92c-0.444 0.711-1.017 1.293-1.72 1.747-0.16-1.387-0.467-2.738-0.919-4.054 0.621-0.044 1.177-0.067 1.667-0.067 0.533 0 1.124 0.023 1.773 0.067-0.089 0.827-0.356 1.595-0.8 2.307zM11.893 7.587c-0.773 0-1.489 0.031-2.147 0.093-0.169-0.435-0.32-0.795-0.453-1.080 1.377-0.604 2.355-1.337 2.933-2.2 0.8 0.943 1.236 2.018 1.307 3.227-0.541-0.027-1.088-0.040-1.639-0.040z"></path>
</svg>
