<!-- Generated by IcoMoon.io -->
<svg version="1.1" xmlns="http://www.w3.org/2000/svg" width="16" height="16" viewBox="0 0 16 16">
<title>bxl-github</title>
<path d="M8.017 1.333c-3.673 0-6.649 2.977-6.649 6.649 0 2.937 1.905 5.43 4.547 6.31 0.333 0.060 0.453-0.145 0.453-0.321 0-0.158-0.005-0.577-0.007-1.131-1.85 0.401-2.241-0.892-2.241-0.892-0.301-0.768-0.738-0.973-0.738-0.973-0.603-0.413 0.046-0.403 0.046-0.403 0.668 0.047 1.018 0.685 1.018 0.685 0.593 1.016 1.557 0.723 1.935 0.553 0.061-0.43 0.234-0.723 0.423-0.889-1.476-0.167-3.028-0.738-3.028-3.287 0-0.725 0.259-1.319 0.683-1.783-0.067-0.169-0.297-0.845 0.066-1.76 0 0 0.558-0.179 1.828 0.681 0.532-0.147 1.099-0.221 1.664-0.224 0.566 0.003 1.134 0.077 1.664 0.224 1.271-0.861 1.828-0.681 1.828-0.681 0.363 0.915 0.135 1.591 0.066 1.76 0.427 0.464 0.683 1.058 0.683 1.783 0 2.555-1.553 3.117-3.035 3.281 0.237 0.205 0.45 0.611 0.45 1.231 0 0.889-0.008 1.607-0.008 1.825 0 0.178 0.119 0.385 0.458 0.319 2.641-0.881 4.544-3.372 4.544-6.309 0-3.673-2.977-6.649-6.649-6.649z"></path>
</svg>
