<!-- Generated by IcoMoon.io -->
<svg version="1.1" xmlns="http://www.w3.org/2000/svg" width="16" height="16" viewBox="0 0 16 16">
<title>bxl-discord</title>
<path d="M6.395 7.314c-0.361 0-0.646 0.317-0.646 0.703 0 0.385 0.291 0.703 0.646 0.703 0.361 0 0.645-0.318 0.645-0.703 0.007-0.387-0.285-0.703-0.645-0.703zM8.707 7.314c-0.361 0-0.646 0.317-0.646 0.703 0 0.385 0.291 0.703 0.646 0.703 0.361 0 0.645-0.318 0.645-0.703-0.001-0.387-0.285-0.703-0.645-0.703z"></path>
<path d="M11.785 2h-8.487c-0.715 0-1.298 0.583-1.298 1.305v8.563c0 0.722 0.583 1.305 1.298 1.305h7.182l-0.337-1.173 0.811 0.754 0.766 0.709 1.363 1.204v-11.362c0-0.722-0.583-1.305-1.298-1.305zM9.34 10.271c0 0-0.228-0.272-0.417-0.514 0.829-0.235 1.146-0.753 1.146-0.753-0.26 0.171-0.507 0.292-0.729 0.375-0.317 0.132-0.62 0.221-0.918 0.272-0.608 0.113-1.165 0.082-1.641-0.007-0.361-0.070-0.671-0.171-0.931-0.273-0.145-0.057-0.305-0.125-0.462-0.214-0.019-0.014-0.038-0.019-0.057-0.032-0.013-0.007-0.019-0.013-0.026-0.020-0.114-0.063-0.177-0.107-0.177-0.107s0.304 0.507 1.109 0.747c-0.19 0.24-0.425 0.526-0.425 0.526-1.399-0.045-1.931-0.963-1.931-0.963 0-2.039 0.912-3.692 0.912-3.692 0.912-0.685 1.779-0.665 1.779-0.665l0.063 0.076c-1.14 0.33-1.666 0.83-1.666 0.83s0.14-0.076 0.374-0.183c0.677-0.297 1.215-0.38 1.437-0.399 0.038-0.006 0.070-0.013 0.108-0.013 0.387-0.051 0.823-0.063 1.279-0.013 0.602 0.070 1.249 0.247 1.907 0.608 0 0-0.501-0.475-1.577-0.804l0.089-0.101c0 0 0.868-0.019 1.779 0.665 0 0 0.912 1.653 0.912 3.692 0-0.001-0.538 0.917-1.938 0.962z"></path>
</svg>
