<!-- Generated by IcoMoon.io -->
<svg version="1.1" xmlns="http://www.w3.org/2000/svg" width="16" height="16" viewBox="0 0 16 16">
<title>bxl-linkedin-square</title>
<path d="M13.112 2h-10.227c-0.489 0-0.885 0.387-0.885 0.865v10.269c0 0.477 0.397 0.866 0.885 0.866h10.227c0.489 0 0.887-0.388 0.887-0.866v-10.269c0-0.478-0.399-0.865-0.887-0.865zM5.559 12.225h-1.781v-5.727h1.781v5.727zM4.669 5.716c-0.571 0-1.032-0.463-1.032-1.032s0.461-1.032 1.032-1.032c0.569 0 1.032 0.462 1.032 1.032s-0.463 1.032-1.032 1.032zM12.225 12.225h-1.779v-2.785c0-0.664-0.012-1.518-0.925-1.518-0.927 0-1.067 0.724-1.067 1.471v2.832h-1.778v-5.727h1.707v0.783h0.025c0.237-0.45 0.818-0.925 1.683-0.925 1.803 0 2.135 1.185 2.135 2.728v3.14z"></path>
</svg>
