<!-- Generated by IcoMoon.io -->
<svg version="1.1" xmlns="http://www.w3.org/2000/svg" width="16" height="16" viewBox="0 0 16 16">
<title>bxl-skype</title>
<path d="M7.905 11.611c-1.965 0-2.863-1.016-2.863-1.761 0-0.177 0.072-0.347 0.199-0.47s0.298-0.186 0.473-0.176c0.841 0 0.621 1.28 2.191 1.28 0.802 0 1.273-0.491 1.273-0.95 0-0.277-0.156-0.593-0.685-0.719l-1.753-0.449c-1.407-0.363-1.653-1.158-1.653-1.895 0-1.529 1.379-2.083 2.691-2.083 1.209 0 2.647 0.677 2.647 1.594 0 0.395-0.325 0.607-0.703 0.607-0.719 0-0.598-1.024-2.042-1.024-0.718 0-1.097 0.342-1.097 0.82s0.559 0.64 1.049 0.749l1.294 0.297c1.417 0.324 1.794 1.167 1.794 1.975 0 1.243-0.949 2.203-2.817 2.203zM13.329 8.982c0.057-0.327 0.085-0.657 0.085-0.988 0.007-1.663-0.714-3.244-1.968-4.316-1.253-1.073-2.91-1.525-4.525-1.237-0.495-0.29-1.058-0.442-1.631-0.441-1.175 0.007-2.258 0.647-2.847 1.679-0.587 1.033-0.591 2.305-0.010 3.341-0.325 1.809 0.244 3.665 1.521 4.969s3.103 1.89 4.889 1.57c0.495 0.29 1.057 0.442 1.629 0.441 1.176-0.007 2.257-0.647 2.846-1.679s0.593-2.303 0.011-3.339z"></path>
</svg>
