<svg xmlns="http://www.w3.org/2000/svg" width="24" height="24" viewBox="0 0 24 24"><path transform="rotate(161.496 12.004 12.018)" d="M10.737 10.794H13.271V13.241H10.737z"/><path transform="rotate(161.496 12.004 12.018)" d="M10.737 10.794H13.271V13.241H10.737z"/><path d="M20.254,9.528c-1.857-6.191-4.535-7.63-10.726-5.772C3.338,5.612,1.897,8.29,3.754,14.48 c1.857,6.191,4.535,7.63,10.727,5.773C20.67,18.396,22.111,15.719,20.254,9.528z M17.129,13.545l-1.165,0.388l0.403,1.209 c0.158,0.49-0.102,1.022-0.591,1.181c-0.101,0.029-0.216,0.058-0.317,0.044c-0.373-0.015-0.733-0.26-0.864-0.634l-0.401-1.209 l-2.405,0.806l0.404,1.209c0.158,0.489-0.102,1.022-0.591,1.18c-0.102,0.029-0.217,0.058-0.317,0.043 c-0.375-0.015-0.733-0.259-0.864-0.634l-0.402-1.209l-1.166,0.389c-0.102,0.029-0.217,0.058-0.317,0.043 c-0.374-0.014-0.733-0.259-0.863-0.633c-0.158-0.49,0.101-1.022,0.591-1.181l1.165-0.389l-0.777-2.318L7.483,12.22 c-0.101,0.029-0.215,0.058-0.316,0.043c-0.375-0.015-0.734-0.259-0.864-0.634c-0.159-0.489,0.101-1.022,0.59-1.18l1.168-0.39 L7.656,8.852c-0.159-0.49,0.101-1.022,0.59-1.181c0.49-0.159,1.022,0.101,1.181,0.59L9.83,9.47l2.405-0.806l-0.403-1.209 c-0.159-0.49,0.1-1.022,0.589-1.181c0.49-0.158,1.023,0.101,1.181,0.59l0.403,1.209l1.167-0.389c0.489-0.159,1.021,0.1,1.18,0.59 c0.159,0.49-0.101,1.022-0.589,1.181l-1.168,0.389l0.779,2.318l1.165-0.39c0.49-0.158,1.022,0.101,1.182,0.59 C17.878,12.854,17.619,13.386,17.129,13.545z"/></svg>