<!-- Generated by IcoMoon.io -->
<svg version="1.1" xmlns="http://www.w3.org/2000/svg" width="16" height="16" viewBox="0 0 16 16">
<title>bxl-medium-square</title>
<path d="M2 2v12h12v-12h-12zM11.969 4.843l-0.644 0.617c-0.055 0.042-0.083 0.111-0.071 0.181v4.534c-0.012 0.069 0.015 0.139 0.071 0.181l0.628 0.617v0.136h-3.161v-0.136l0.651-0.632c0.065-0.064 0.065-0.083 0.065-0.181v-3.665l-1.811 4.597h-0.245l-2.107-4.597v3.081c-0.017 0.129 0.026 0.26 0.117 0.354l0.847 1.027v0.135h-2.403v-0.135l0.847-1.027c0.091-0.094 0.131-0.225 0.109-0.354v-3.563c0.010-0.099-0.027-0.197-0.101-0.263l-0.753-0.907v-0.135h2.337l1.807 3.962 1.588-3.962h2.229v0.135z"></path>
</svg>
