<!-- Generated by IcoMoon.io -->
<svg version="1.1" xmlns="http://www.w3.org/2000/svg" width="16" height="16" viewBox="0 0 16 16">
<title>bxs-purchase-tag</title>
<path d="M8.471 1.529c-0.12-0.121-0.287-0.195-0.47-0.195-0 0-0.001 0-0.001 0h-6c-0.368 0-0.667 0.298-0.667 0.667v0 6c0 0.177 0.070 0.347 0.195 0.471l6 6c0.12 0.121 0.287 0.196 0.471 0.196s0.351-0.075 0.471-0.196l6-6c0.121-0.121 0.195-0.287 0.195-0.471s-0.075-0.351-0.195-0.471l-6-6zM4.667 6c-0.736-0-1.333-0.597-1.333-1.334s0.597-1.334 1.334-1.334c0 0 0 0 0 0h-0c0.736 0 1.333 0.597 1.333 1.334s-0.597 1.334-1.334 1.334c-0 0-0 0-0 0h0z"></path>
</svg>
