<!-- Generated by IcoMoon.io -->
<svg version="1.1" xmlns="http://www.w3.org/2000/svg" width="16" height="16" viewBox="0 0 16 16">
<title>bxs-contact</title>
<path d="M14 1.333h-10.667c-0.368 0-0.667 0.298-0.667 0.667v0 2.667h-1.333v1.333h1.333v1.333h-1.333v1.333h1.333v1.333h-1.333v1.333h1.333v2.667c0 0.368 0.298 0.667 0.667 0.667v0h10.667c0.368 0 0.667-0.298 0.667-0.667v0-12c0-0.368-0.298-0.667-0.667-0.667v0zM8.667 3.333c1.099 0 2 0.901 2 2-0.004 1.103-0.897 1.996-2 2.001h-0c-1.098 0-2-0.902-2-2.001s0.902-2 2-2zM12.667 12h-8v-0.5c0-1.479 1.803-3 4-3s4 1.521 4 3v0.5z"></path>
</svg>
