<!-- Generated by IcoMoon.io -->
<svg version="1.1" xmlns="http://www.w3.org/2000/svg" width="16" height="16" viewBox="0 0 16 16">
<title>bxs-ball</title>
<path d="M13.498 2.023c-0.046-0.012-1.161-0.289-2.701-0.289-1.895 0-4.579 0.427-6.607 2.458-3.56 3.566-2.227 9.073-2.168 9.307 0.062 0.239 0.246 0.423 0.481 0.483l0.005 0.001c0.046 0.012 1.151 0.284 2.679 0.284 1.899 0 4.589-0.427 6.621-2.459 3.557-3.557 2.234-9.067 2.176-9.299-0.062-0.239-0.246-0.424-0.481-0.485l-0.005-0.001zM11.14 8.197l-0.943 0.943-1.195-1.195-1.057 1.057 1.195 1.195-0.943 0.943-1.195-1.195-1.195 1.195-0.943-0.943 1.195-1.195-1.195-1.196 0.943-0.943 1.195 1.196 1.057-1.057-1.196-1.195 0.943-0.943 1.196 1.195 1.195-1.195 0.943 0.943-1.195 1.195 1.195 1.195z"></path>
</svg>
