<!-- Generated by IcoMoon.io -->
<svg version="1.1" xmlns="http://www.w3.org/2000/svg" width="16" height="16" viewBox="0 0 16 16">
<title>bxs-map</title>
<path d="M8 1.333c-2.941 0-5.333 2.393-5.333 5.33-0.019 4.297 4.744 7.736 4.947 7.879 0.107 0.077 0.242 0.124 0.387 0.124s0.279-0.046 0.389-0.125l-0.002 0.001c0.203-0.143 4.966-3.583 4.947-7.876 0-2.941-2.393-5.333-5.333-5.333zM8 9.333c-1.473 0-2.667-1.193-2.667-2.667s1.193-2.667 2.667-2.667 2.667 1.193 2.667 2.667-1.193 2.667-2.667 2.667z"></path>
</svg>
