<svg xmlns="http://www.w3.org/2000/svg" width="24" height="24"><path fill="none" d="M4 6h16v2H4zM14.305 10.281l-2.293 2.293-2.293-2.293-1.414 1.414 2.293 2.293-2.293 2.293 1.414 1.414 2.293-2.293 2.293 2.293 1.414-1.414-2.293-2.293 2.293-2.293z"/><path d="M21 4H3a1 1 0 0 0-1 1v14a1 1 0 0 0 1 1h18a1 1 0 0 0 1-1V5a1 1 0 0 0-1-1zm-5.281 12.281l-1.414 1.414-2.293-2.293-2.293 2.293-1.414-1.414 2.293-2.293-2.293-2.293 1.414-1.414 2.293 2.293 2.293-2.293 1.414 1.414-2.293 2.293 2.293 2.293zM20 8H4V6h16v2z"/></svg>