<!-- Generated by IcoMoon.io -->
<svg version="1.1" xmlns="http://www.w3.org/2000/svg" width="16" height="16" viewBox="0 0 16 16">
<title>bxs-share</title>
<path d="M12.949 6.431c-1.753-1.591-4.355-1.795-5.615-1.791v-1.307c-0-0.368-0.299-0.667-0.667-0.667-0.184 0-0.351 0.075-0.471 0.195l-4 4c-0.121 0.121-0.196 0.287-0.196 0.472 0 0.205 0.093 0.389 0.239 0.511l0.001 0.001 4 3.333c0.115 0.096 0.264 0.155 0.428 0.155 0.103 0 0.2-0.023 0.286-0.064l-0.004 0.002c0.234-0.11 0.384-0.345 0.384-0.604v-1.488c3.352-0.799 6.167 1.931 6.196 1.961l1.137 1.128v-1.601c0-1.775-0.578-3.199-1.718-4.235z"></path>
</svg>
