<!-- Generated by IcoMoon.io -->
<svg version="1.1" xmlns="http://www.w3.org/2000/svg" width="16" height="16" viewBox="0 0 16 16">
<title>bxs-cart</title>
<path d="M13.333 4.667h-9.111l-0.94-2.257c-0.103-0.248-0.346-0.41-0.615-0.41h-1.333v1.333h0.889l1.111 2.665v0.002h0.001l2.051 4.923c0.103 0.248 0.346 0.41 0.615 0.41h5.333c0.278 0 0.527-0.173 0.625-0.432l2.337-6.235h-0.962z"></path>
<path d="M8 13.667c0 0.552-0.448 1-1 1s-1-0.448-1-1c0-0.552 0.448-1 1-1s1 0.448 1 1z"></path>
<path d="M12 13.667c0 0.552-0.448 1-1 1s-1-0.448-1-1c0-0.552 0.448-1 1-1s1 0.448 1 1z"></path>
</svg>
