<svg xmlns="http://www.w3.org/2000/svg" width="24" height="24"><path fill="none" d="M9.083 16h7.027a3.928 3.928 0 0 0-.711-.7L13.4 13.8a1 1 0 0 1-.4-.8v-2a1 1 0 0 1 .4-.8l2-1.5A4.023 4.023 0 0 0 17 5.5V4H7v1.5c0 1.252.599 2.448 1.601 3.2l1.999 1.5c.252.188.4.485.4.8v2a1 1 0 0 1-.4.8l-2 1.5c-.27.202-.504.441-.711.7h1.194zM9 6h6s-2 3.032-3 3.016S9 6 9 6z"/><path d="M18 22h2v-2h-1v-1.5a6.03 6.03 0 0 0-2.4-4.8L15 12.5v-1l1.601-1.2A6.032 6.032 0 0 0 19 5.5V4h1V2H4v2h1v1.5a6.03 6.03 0 0 0 2.4 4.8L9 11.5v1l-1.601 1.2A6.032 6.032 0 0 0 5 18.5V20H4v2h14zm-9.4-6.7l2-1.5a.998.998 0 0 0 .4-.8v-2a1 1 0 0 0-.4-.8L8.601 8.7A4.021 4.021 0 0 1 7 5.5V4h10v1.5a4.023 4.023 0 0 1-1.6 3.2l-2 1.5a1 1 0 0 0-.4.8v2a1 1 0 0 0 .4.8l1.999 1.5c.27.202.504.441.711.7H7.889c.207-.259.441-.498.711-.7z"/><path d="M15 6H9s2 3 3 3.016S15 6 15 6z"/></svg>