<svg xmlns="http://www.w3.org/2000/svg" width="24" height="24"><path fill="none" d="M17 5.765V7l-1 2 1 1v1l-2 1-1 1.016L15 14l1 1 1 2 .654.654A7.984 7.984 0 0 0 17 5.765zM12 16v-2h-2l-1-1H8l-1-2 1-2 1-1 1-1 1-2v-.931A8.008 8.008 0 0 0 4.069 11H5l1 2v2l2 2 1 1v1.411c.359.146.733.263 1.116.355L11 18l1-2z"/><path d="M12 2C6.486 2 2 6.486 2 12s4.486 10 10 10 10-4.486 10-10S17.514 2 12 2zM9 19.411V18l-1-1-2-2v-2l-1-2h-.931A8.008 8.008 0 0 1 11 4.069V5l-1 2-1 1-1 1-1 2 1 2h1l1 1h2v2l-1 2-.884 1.767A7.926 7.926 0 0 1 9 19.411zm8.654-1.757L17 17l-1-2-1-1-1-.984L15 12l2-1v-1l-1-1 1-2V5.765a7.984 7.984 0 0 1 .654 11.889z"/></svg>