<!-- Generated by IcoMoon.io -->
<svg version="1.1" xmlns="http://www.w3.org/2000/svg" width="16" height="16" viewBox="0 0 16 16">
<title>bxs-bell-ring</title>
<path d="M9.249 4.211c-0.189-0.516-0.675-0.877-1.246-0.877-0.001 0-0.002 0-0.002 0h0c-0.577 0-1.061 0.363-1.247 0.873-1.608 0.531-2.753 2.055-2.753 3.793v1.843l-0.597 1.193c-0.044 0.087-0.070 0.189-0.070 0.298 0 0.368 0.298 0.667 0.667 0.667 0 0 0 0 0 0h8c0.004 0 0.009 0 0.014 0 0.368 0 0.667-0.298 0.667-0.667 0-0.153-0.052-0.294-0.138-0.406l0.001 0.002-0.543-1.086v-1.843c0-1.727-1.13-3.246-2.751-3.789zM8 14c0.736 0 1.333-0.597 1.333-1.333v0h-2.667c0 0.736 0.597 1.333 1.333 1.333v0zM1.333 8.667h0.667l0.667-0.042c0-1.952 0-3.027 1.803-4.818l-0.94-0.947c-2.197 2.182-2.197 3.763-2.197 5.807zM11.531 3.807c1.803 1.791 1.803 2.866 1.803 4.86l1.333-0.042c0-2.002 0-3.583-2.197-5.765l-0.939 0.947z"></path>
</svg>
