<!-- Generated by IcoMoon.io -->
<svg version="1.1" xmlns="http://www.w3.org/2000/svg" width="16" height="16" viewBox="0 0 16 16">
<title>bxs-watch-alt</title>
<path d="M4.687 1.839l-0.54 2.161h-0.147c-0.368 0-0.667 0.298-0.667 0.667v0 6.667c0 0.368 0.298 0.667 0.667 0.667v0h0.147l0.541 2.161c0.074 0.297 0.34 0.505 0.646 0.505h4.667c0.306 0 0.572-0.209 0.647-0.505l0.54-2.161h0.147c0.368 0 0.667-0.298 0.667-0.667v0-2h0.667v-2.667h-0.667v-2c0-0.368-0.298-0.667-0.667-0.667v0h-0.147l-0.54-2.161c-0.075-0.292-0.336-0.505-0.647-0.505h-4.667c-0.306 0-0.572 0.209-0.647 0.505zM10.667 10.667h-6v-5.333h6v5.333z"></path>
</svg>
