<!-- Generated by IcoMoon.io -->
<svg version="1.1" xmlns="http://www.w3.org/2000/svg" width="16" height="16" viewBox="0 0 16 16">
<title>bxs-carousel</title>
<path d="M4.667 14h6.667c0.368 0 0.667-0.298 0.667-0.667v0-10.667c0-0.368-0.298-0.667-0.667-0.667v0h-6.667c-0.368 0-0.667 0.298-0.667 0.667v0 10.667c0 0.368 0.298 0.667 0.667 0.667v0zM2 12.667h0.667v-9.333h-0.667c-0.368 0-0.667 0.298-0.667 0.667v0 8c0 0.368 0.298 0.667 0.667 0.667v0zM14 3.333h-0.667v9.333h0.667c0.368 0 0.667-0.298 0.667-0.667v0-8c0-0.368-0.298-0.667-0.667-0.667v0z"></path>
</svg>
