<!-- Generated by IcoMoon.io -->
<svg version="1.1" xmlns="http://www.w3.org/2000/svg" width="16" height="16" viewBox="0 0 16 16">
<title>bxs-bell-off</title>
<path d="M8 14.667c0.001 0 0.002 0 0.002 0 0.863 0 1.598-0.55 1.872-1.319l0.004-0.014h-3.757c0.278 0.783 1.013 1.333 1.876 1.333 0.001 0 0.002 0 0.003 0h-0zM13.353 11.964c0.003 0 0.006 0 0.009 0 0.368 0 0.667-0.298 0.667-0.667 0-0.154-0.052-0.296-0.14-0.409l0.001 0.002-0.549-1.083-0.011-1.842c-0.018-3.036-1.653-5.27-4.106-5.829-0.209-0.476-0.676-0.803-1.219-0.803-0.001 0-0.003 0-0.004 0h0c-0.001 0-0.002 0-0.004 0-0.54 0-1.006 0.323-1.212 0.787l-0.003 0.008c-0.944 0.214-1.759 0.674-2.4 1.31l0-0-1.91-1.91-0.943 0.943 12 12 0.943-0.943-1.562-1.562 0.443-0.003zM2.118 11.714c0.12 0.189 0.328 0.313 0.565 0.313 0.001 0 0.003 0 0.004-0h-0l6.586-0.039-6.285-6.211c-0.206 0.65-0.325 1.397-0.325 2.171 0 0.028 0 0.055 0 0.083l-0-0.004 0.011 1.843-0.589 1.197c-0.043 0.086-0.069 0.187-0.069 0.294 0 0.131 0.038 0.253 0.104 0.356l-0.002-0.003z"></path>
</svg>
