<!-- Generated by IcoMoon.io -->
<svg version="1.1" xmlns="http://www.w3.org/2000/svg" width="16" height="16" viewBox="0 0 16 16">
<title>bxs-discount</title>
<path d="M14 6.667h0.667v-2.667c0-0.368-0.298-0.667-0.667-0.667v0h-12c-0.368 0-0.667 0.298-0.667 0.667v0 2.667h0.667c0.736 0 1.333 0.597 1.333 1.333s-0.597 1.333-1.333 1.333v0h-0.667v2.667c0 0.368 0.298 0.667 0.667 0.667v0h12c0.368 0 0.667-0.298 0.667-0.667v0-2.667h-0.667c-0.736 0-1.333-0.597-1.333-1.333s0.597-1.333 1.333-1.333v0zM6 6c0.368 0 0.667 0.298 0.667 0.667s-0.298 0.667-0.667 0.667v0c-0.368 0-0.667-0.298-0.667-0.667s0.298-0.667 0.667-0.667v0zM5.467 10.267l4-5.333 1.067 0.8-4 5.333-1.067-0.8zM10 10c-0.368 0-0.667-0.298-0.667-0.667s0.298-0.667 0.667-0.667v0c0.368 0 0.667 0.298 0.667 0.667s-0.298 0.667-0.667 0.667v0z"></path>
</svg>
