<svg xmlns="http://www.w3.org/2000/svg" width="24" height="24"><path fill="none" d="M12 16c2.206 0 4-1.794 4-4s-1.794-4-4-4-4 1.794-4 4 1.794 4 4 4z"/><path d="M2.244 14.512c-.068.256-.032.529.1.759l2 3.46c.276.477.889.641 1.366.366l1.396-.806c.58.457 1.221.832 1.895 1.112V21a1 1 0 0 0 1 1h4a1 1 0 0 0 1-1v-1.598a8.094 8.094 0 0 0 1.895-1.112l1.396.806a1.003 1.003 0 0 0 1.366-.366l2-3.46c.132-.229.168-.502.1-.759s-.236-.475-.466-.607l-1.371-.792a7.683 7.683 0 0 0-.002-2.224l1.371-.792a1.002 1.002 0 0 0 .366-1.366l-2-3.46a1.001 1.001 0 0 0-1.366-.366l-1.396.806A8.034 8.034 0 0 0 15 4.598V3a1 1 0 0 0-1-1h-4a1 1 0 0 0-1 1v1.598A8.094 8.094 0 0 0 7.105 5.71L5.71 4.904a1 1 0 0 0-1.366.366l-2 3.46c-.132.229-.168.502-.1.759s.236.474.466.607l1.371.792a7.683 7.683 0 0 0 0 2.224l-1.371.792a1 1 0 0 0-.466.608zM12 8c2.206 0 4 1.794 4 4s-1.794 4-4 4-4-1.794-4-4 1.794-4 4-4z"/></svg>