<!-- Generated by IcoMoon.io -->
<svg version="1.1" xmlns="http://www.w3.org/2000/svg" width="16" height="16" viewBox="0 0 16 16">
<title>bxs-hourglass</title>
<path d="M12 14.667h1.333v-1.333h-0.667v-1c-0.003-1.303-0.626-2.461-1.59-3.193l-0.010-0.007-1.067-0.8v-0.667l1.067-0.8c0.973-0.74 1.596-1.897 1.599-3.199v-1.001h0.667v-1.333h-10.667v1.333h0.667v1c0.003 1.303 0.626 2.461 1.59 3.193l0.010 0.007 1.067 0.8v0.667l-1.067 0.8c-0.973 0.74-1.596 1.897-1.599 3.199v1.001h-0.667v1.333h9.333zM5.733 10.2l1.333-1c0.163-0.123 0.267-0.316 0.267-0.533 0-0 0-0 0-0.001v0-1.333c0-0.217-0.104-0.41-0.265-0.532l-0.002-0.001-1.333-1c-0.649-0.493-1.065-1.264-1.067-2.133v-1h6.667v1c-0.003 0.869-0.418 1.64-1.060 2.129l-0.007 0.005-1.333 1c-0.163 0.123-0.267 0.316-0.267 0.533v0 1.333c0 0.217 0.104 0.41 0.265 0.532l0.002 0.001 1.333 1c0.18 0.135 0.336 0.294 0.474 0.467h-5.481c0.138-0.173 0.294-0.332 0.474-0.467z"></path>
<path d="M10 4h-4s1.333 2 2 2.011 2-2.011 2-2.011z"></path>
</svg>
