<!-- Generated by IcoMoon.io -->
<svg version="1.1" xmlns="http://www.w3.org/2000/svg" width="16" height="16" viewBox="0 0 16 16">
<title>bxs-buoy</title>
<path d="M11.265 7.333h3.367c-0.313-3.145-2.821-5.653-5.966-5.966v3.367c1.309 0.277 2.322 1.29 2.595 2.578l0.004 0.022zM8.667 14.633c3.145-0.314 5.653-2.821 5.966-5.966h-3.367c-0.276 1.309-1.29 2.323-2.577 2.595l-0.022 0.004v3.367zM7.333 4.734v-3.367c-3.145 0.313-5.653 2.821-5.966 5.966h3.367c0.276-1.309 1.29-2.323 2.577-2.595l0.022-0.004zM7.333 14.633v-3.367c-1.309-0.277-2.322-1.29-2.595-2.578l-0.004-0.022h-3.367c0.313 3.145 2.821 5.653 5.966 5.966z"></path>
</svg>
