<svg xmlns="http://www.w3.org/2000/svg" width="24" height="24" viewBox="0 0 24 24"><path d="M20,5H4C2.896,5,2,5.896,2,7v3h0.893c0.996,0,1.92,0.681,2.08,1.664C5.177,12.917,4.215,14,3,14H2v3c0,1.104,0.896,2,2,2 h16c1.104,0,2-0.896,2-2v-3c0,0-0.447,0-1,0c-1.215,0-2.177-1.083-1.973-2.336c0.16-0.983,1.084-1.664,2.08-1.664H22V7 C22,5.896,21.104,5,20,5z M9,9c0.553,0,1,0.447,1,1s-0.447,1-1,1s-1-0.447-1-1S8.447,9,9,9z M8.2,15.4l6-8L15.8,8.6l-6,8L8.2,15.4z M15,15c-0.553,0-1-0.447-1-1s0.447-1,1-1s1,0.447,1,1S15.553,15,15,15z"/></svg>