<!-- Generated by IcoMoon.io -->
<svg version="1.1" xmlns="http://www.w3.org/2000/svg" width="16" height="16" viewBox="0 0 16 16">
<title>bxs-idea</title>
<path d="M7.333 1.333h1.333v1.333h-1.333zM3.805 4.747l-0.943-0.943 0.943-0.943 0.943 0.943zM12.195 2.862l0.943 0.943-0.943 0.943-0.943-0.943zM6.667 13.333h2.667v1.333h-2.667zM4.333 7.667c0.001 1.544 0.957 2.865 2.309 3.404l0.025 0.009v1.587h2.667v-1.587c1.376-0.548 2.331-1.87 2.331-3.414 0-2.024-1.641-3.665-3.665-3.665h-0c-2.025 0-3.667 1.642-3.667 3.667v0z"></path>
</svg>
