<!-- Generated by IcoMoon.io -->
<svg version="1.1" xmlns="http://www.w3.org/2000/svg" width="16" height="16" viewBox="0 0 16 16">
<title>bxs-map-alt</title>
<path d="M14.298 4.737l-4-2c-0.017-0.009-0.035-0.011-0.052-0.018-0.022-0.010-0.050-0.020-0.078-0.028l-0.004-0.001c-0.027-0.007-0.053-0.010-0.079-0.014-0.028-0.003-0.056-0.007-0.085-0.007s-0.057 0.004-0.085 0.007c-0.027 0.004-0.053 0.007-0.079 0.014-0.032 0.009-0.060 0.019-0.086 0.030l0.004-0.002c-0.017 0.007-0.035 0.010-0.052 0.018l-3.702 1.851-3.702-1.851c-0.087-0.045-0.19-0.071-0.299-0.071-0.367 0-0.665 0.298-0.665 0.665 0 0.001 0 0.002 0 0.003v-0 7.333c0 0.253 0.143 0.483 0.369 0.597l4 2c0.010 0.005 0.021 0.003 0.031 0.007 0.085 0.037 0.175 0.063 0.267 0.063s0.181-0.025 0.267-0.063c0.011-0.005 0.021-0.002 0.031-0.007l3.702-1.851 3.702 1.851c0.087 0.045 0.19 0.071 0.299 0.071 0.129 0 0.25-0.037 0.352-0.101l-0.003 0.002c0.197-0.122 0.317-0.336 0.317-0.567v-7.333c0-0.253-0.143-0.483-0.369-0.597zM6.667 5.745l2.667-1.333v5.843l-2.667 1.333v-5.843z"></path>
</svg>
