<svg xmlns="http://www.w3.org/2000/svg" width="24" height="24" viewBox="0 0 24 24"><path d="M11.586 2l-.024.024c-1.219.133-2.27.821-2.909 1.801l1.479 1.479L14 9.172l2 2V6c0-2.217-1.785-4.021-3.979-4.021L11.586 2zM17.898 13.071l1.624 1.624C19.826 13.851 20 12.947 20 12h-2C18 12.366 17.962 12.723 17.898 13.071zM8 12c0 2.206 1.794 4 4 4 .74 0 1.422-.217 2.015-.571l1.445 1.445C14.479 17.572 13.293 18 12 18c-3.309 0-6-2.691-6-6H4c0 4.072 3.06 7.436 7 7.931V22h2v-2.07c1.455-.184 2.779-.772 3.885-1.631l3.408 3.408 1.414-1.414-18-18L2.293 3.707 8 9.414V12z"/></svg>