<!-- Generated by IcoMoon.io -->
<svg version="1.1" xmlns="http://www.w3.org/2000/svg" width="16" height="16" viewBox="0 0 16 16">
<title>bxs-inbox</title>
<path d="M14.632 7.789l-2-6c-0.090-0.267-0.339-0.456-0.631-0.456-0 0-0.001 0-0.001 0h-8c-0 0-0 0-0 0-0.293 0-0.541 0.189-0.63 0.451l-0.001 0.005-2 6 0.008 0.003c-0.025 0.061-0.040 0.133-0.043 0.207l-0 0.001v4.667c0 0.368 0.298 0.667 0.667 0.667v0h12c0.368 0 0.667-0.298 0.667-0.667v0-4.667c-0.003-0.076-0.018-0.147-0.043-0.213l0.002 0.004 0.007-0.002zM10.667 7.333h-0.095c-0.297 1.148-1.331 2-2.572 2s-2.275-0.852-2.572-2h-2.503l1.556-4.667h7.039l1.556 4.667h-2.409z"></path>
</svg>
