<svg xmlns="http://www.w3.org/2000/svg" width="24" height="24" viewBox="0 0 24 24"><path d="M3 20h12.879l-4.014-4.014c-2.061-.074-3.777-1.79-3.851-3.851L2 6.121V19C2 19.553 2.447 20 3 20zM21 5h-3.586l-2.707-2.707C14.52 2.105 14.266 2 14 2h-4C9.734 2 9.48 2.105 9.293 2.293L6.586 5H6.414L3.707 2.293 2.293 3.707l18 18 1.414-1.414-.362-.362C21.726 19.79 22 19.431 22 19V6C22 5.448 21.553 5 21 5zM13.919 12.505C13.967 12.342 14 12.174 14 12c0-1.065-.935-2-2-2-.174 0-.342.034-.505.081L9.994 8.58C10.588 8.22 11.271 8 12 8c2.168 0 4 1.832 4 4 0 .729-.221 1.412-.58 2.006L13.919 12.505z"/></svg>