<!-- Generated by IcoMoon.io -->
<svg version="1.1" xmlns="http://www.w3.org/2000/svg" width="16" height="16" viewBox="0 0 16 16">
<title>bxs-star-half</title>
<path d="M13.687 6.643c-0.079-0.241-0.287-0.417-0.539-0.453l-3.143-0.457-1.407-2.85c-0.224-0.456-0.971-0.456-1.195 0l-1.408 2.85-3.144 0.457c-0.251 0.036-0.459 0.212-0.538 0.453s-0.013 0.507 0.169 0.683l2.275 2.219-0.536 3.133c-0.043 0.25 0.060 0.503 0.265 0.653 0.207 0.149 0.479 0.169 0.703 0.050l2.812-1.479 2.812 1.479c0.097 0.051 0.205 0.077 0.311 0.077 0.138 0 0.275-0.043 0.392-0.127 0.205-0.149 0.308-0.403 0.265-0.653l-0.536-3.133 2.275-2.219c0.182-0.177 0.247-0.441 0.169-0.683zM8 4.684l1.119 2.268 2.501 0.363-1.81 1.765 0.267 1.56 0.159 0.933-2.237-1.176z"></path>
</svg>
