<!-- Generated by IcoMoon.io -->
<svg version="1.1" xmlns="http://www.w3.org/2000/svg" width="16" height="16" viewBox="0 0 16 16">
<title>bxs-film</title>
<path d="M12.667 2.667v0.667h-1.333v-1.333h-6.667v1.333h-1.333v-1.333h-1.333v12h1.333v-1.333h1.333v1.333h6.667v-1.333h1.333v1.333h1.333v-12h-1.333v0.667zM3.333 4.667h1.333v1.333h-1.333v-1.333zM3.333 7.333h1.333v1.333h-1.333v-1.333zM3.333 11.333v-1.333h1.333v1.333h-1.333zM11.333 11.333v-1.333h1.333v1.333h-1.333zM12.667 8.667h-1.333v-1.333h1.333v1.333zM11.333 6v-1.333h1.333v1.333h-1.333z"></path>
</svg>
