<svg xmlns="http://www.w3.org/2000/svg" width="24" height="24" viewBox="0 0 24 24"><path d="M17.707,7.293c-0.265-0.265-0.656-0.358-1.013-0.245c-0.356,0.114-0.619,0.418-0.681,0.788	c-0.367,2.205-1.224,3.604-2.45,4.046c0.852-2.293,0.896-4.326,0.129-6.06c-1.271-2.871-4.294-3.749-4.422-3.785	c-0.3-0.082-0.625-0.023-0.874,0.166C8.146,2.392,8,2.687,8,3c0,2.526-1.693,4.278-1.707,4.293C4.107,9.478,3,11.734,3,14	c0,3.465,1.706,5.793,4,7c-1.937-3.979,1-8,1-8c1.807,7.248,6.891,7.927,7.834,7.991C18.199,19.795,20,17.511,20,14	C20,13.819,19.974,9.56,17.707,7.293z"/></svg>