<!-- Generated by IcoMoon.io -->
<svg version="1.1" xmlns="http://www.w3.org/2000/svg" width="16" height="16" viewBox="0 0 16 16">
<title>bxs-notes</title>
<path d="M14 1.333h-9.333c-0.369 0-0.667 0.298-0.667 0.667v9.333c0 0.369 0.298 0.667 0.667 0.667h5.333c0.177 0 0.347-0.070 0.471-0.195l4-4c0.125-0.125 0.195-0.294 0.195-0.471v-5.333c0-0.369-0.298-0.667-0.667-0.667zM8.042 7.333h-2v-1.333h2v1.333zM6.042 4.667v-1.333h6.667v1.333h-6.667zM10 10.667v-3.333c0 0 0.298 0 0.667 0h2.667l-3.333 3.333z"></path>
<path d="M10.667 14.667h-8.667c-0.369 0-0.667-0.298-0.667-0.667v-8.667h1.333v8h8v1.333z"></path>
</svg>
