<svg xmlns="http://www.w3.org/2000/svg" width="24" height="24"><path fill="none" d="M4 6h16v2H4zM13.293 11.707L15.586 14l-2.293 2.293 1.414 1.414L18.414 14l-3.707-3.707zM9.293 10.293L5.586 14l3.707 3.707 1.414-1.414L8.414 14l2.293-2.293z"/><path d="M21 4H3a1 1 0 0 0-1 1v14a1 1 0 0 0 1 1h18a1 1 0 0 0 1-1V5a1 1 0 0 0-1-1zM10.707 16.293l-1.414 1.414L5.586 14l3.707-3.707 1.414 1.414L8.414 14l2.293 2.293zm4 1.414l-1.414-1.414L15.586 14l-2.293-2.293 1.414-1.414L18.414 14l-3.707 3.707zM20 8H4V6h16v2z"/></svg>