<svg xmlns="http://www.w3.org/2000/svg" width="24" height="24" viewBox="0 0 24 24"><path d="M4,15c-0.553,0-1,0.447-1,1v4c0,0.553,0.447,1,1,1h4c0.553,0,1-0.447,1-1v-1h6v1c0,0.553,0.447,1,1,1h4 c0.553,0,1-0.447,1-1v-4c0-0.553-0.447-1-1-1h-1V9h1c0.553,0,1-0.448,1-1V4c0-0.552-0.447-1-1-1h-4c-0.553,0-1,0.448-1,1v1H9V4 c0-0.552-0.447-1-1-1H4C3.447,3,3,3.448,3,4v4c0,0.552,0.447,1,1,1h1v6H4z M7,9h1c0.553,0,1-0.448,1-1V7h6v1c0,0.552,0.447,1,1,1h1 v6h-1c-0.553,0-1,0.447-1,1v1H9v-1c0-0.553-0.447-1-1-1H7V9z"/></svg>