<!-- Generated by IcoMoon.io -->
<svg version="1.1" xmlns="http://www.w3.org/2000/svg" width="16" height="16" viewBox="0 0 16 16">
<title>bxs-planet</title>
<path d="M12.431 1.885c-0.554 0.061-1.124 0.335-1.699 0.795-0.794-0.42-1.736-0.667-2.736-0.667-1.135 0-2.196 0.318-3.098 0.869l0.026-0.015c-1.349 0.809-2.338 2.103-2.73 3.635l-0.009 0.041c-0.114 0.435-0.18 0.935-0.18 1.451 0 0.755 0.141 1.476 0.398 2.14l-0.014-0.040c-0.71 0.802-1.369 2.451-0.549 3.375 0.345 0.387 0.838 0.561 1.431 0.561 1.805 0 4.539-1.599 6.839-3.643 3.058-2.715 5.427-6.283 4.038-7.847-0.441-0.497-1.056-0.726-1.717-0.656zM12.576 3.21c0.239-0.023 0.421 0.043 0.574 0.215 0.154 0.174 0.113 0.631-0.168 1.286-0.312-0.47-0.668-0.876-1.071-1.229l-0.007-0.006c0.287-0.175 0.517-0.249 0.672-0.266zM2.837 12.585c-0.145-0.163 0.001-0.713 0.251-1.173 0.305 0.439 0.65 0.819 1.037 1.151l0.008 0.007c-0.683 0.202-1.143 0.189-1.297 0.015zM10.777 11.055c-1.289 1.146-2.711 2.139-4.033 2.801 0.374 0.086 0.805 0.137 1.247 0.141l0.003 0c1.137-0.001 2.199-0.319 3.104-0.87l-0.026 0.015c1.757-1.054 2.915-2.949 2.915-5.114 0-0.186-0.009-0.371-0.025-0.553l0.002 0.023c-0.809 1.198-1.937 2.447-3.185 3.555z"></path>
</svg>
