<!-- Generated by IcoMoon.io -->
<svg version="1.1" xmlns="http://www.w3.org/2000/svg" width="16" height="16" viewBox="0 0 16 16">
<title>bxs-volume-mute</title>
<path d="M5.151 4.209l-2.68-2.68-0.943 0.943 12 12 0.943-0.943-1.349-1.349c0.959-1.11 1.543-2.566 1.543-4.16 0-0.007-0-0.014-0-0.021v0.001c0-2.727-1.648-4.969-3.999-6v1.333c1.591 0.924 2.666 2.698 2.666 4.667-0.003 1.238-0.422 2.378-1.124 3.288l0.009-0.013-0.857-0.857c0.401-0.728 0.639-1.625 0.639-2.419 0-1.181-0.517-2.6-1.333-3.333v5.057l-1.333-1.333v-6.969l-4.182 2.787zM2 11.333h2.465l4.869 3.245v-2.498l-7.401-7.4c-0.336 0.031-0.598 0.311-0.599 0.652v5.334c0 0.368 0.298 0.667 0.667 0.667v0z"></path>
</svg>
