<!-- Generated by IcoMoon.io -->
<svg version="1.1" xmlns="http://www.w3.org/2000/svg" width="16" height="16" viewBox="0 0 16 16">
<title>bxs-smiley-happy</title>
<path d="M8 1.333c-3.676 0-6.667 2.991-6.667 6.667s2.991 6.667 6.667 6.667 6.667-2.991 6.667-6.667-2.991-6.667-6.667-6.667zM5.667 5.333c0.552 0 1 0.597 1 1.333s-0.448 1.333-1 1.333-1-0.597-1-1.333 0.448-1.333 1-1.333zM8 12c-0.005 0-0.010 0-0.016 0-1.299 0-2.453-0.624-3.177-1.589l-0.007-0.010 1.066-0.801c0.488 0.65 1.257 1.067 2.124 1.067 0.004 0 0.007 0 0.011-0h-0.001c0.847 0 1.624-0.389 2.133-1.067l1.067 0.801c-0.732 0.976-1.885 1.6-3.185 1.6-0.005 0-0.011-0-0.016-0h0.001zM10.333 8c-0.552 0-1-0.597-1-1.333s0.448-1.333 1-1.333 1 0.597 1 1.333-0.448 1.333-1 1.333z"></path>
</svg>
