<!-- Generated by IcoMoon.io -->
<svg version="1.1" xmlns="http://www.w3.org/2000/svg" width="16" height="16" viewBox="0 0 16 16">
<title>bxs-certification</title>
<path d="M1.365 9.778c0.047 0.174 0.159 0.317 0.308 0.403l0.003 0.002 1.273 0.736v1.466c0 0.368 0.298 0.667 0.667 0.667v0h1.466l0.736 1.273c0.118 0.2 0.332 0.333 0.578 0.333 0.122 0 0.237-0.033 0.336-0.091l-0.003 0.002 1.273-0.735 1.273 0.736c0.096 0.056 0.21 0.089 0.333 0.089 0.245 0 0.46-0.132 0.576-0.33l0.002-0.003 0.735-1.273h1.466c0.368 0 0.667-0.298 0.667-0.667v0-1.466l1.273-0.736c0.201-0.117 0.334-0.332 0.334-0.577 0-0.123-0.033-0.238-0.091-0.337l0.002 0.003-0.735-1.273 0.736-1.273c0.056-0.096 0.089-0.211 0.089-0.333 0-0.245-0.133-0.46-0.33-0.576l-0.003-0.002-1.273-0.736v-1.466c0-0.368-0.298-0.667-0.667-0.667v0h-1.466l-0.735-1.273c-0.089-0.151-0.231-0.263-0.4-0.31l-0.005-0.001c-0.052-0.015-0.112-0.023-0.173-0.023-0.123 0-0.237 0.033-0.336 0.091l0.003-0.002-1.274 0.735-1.273-0.736c-0.096-0.057-0.211-0.090-0.334-0.090-0.245 0-0.459 0.133-0.575 0.33l-0.002 0.003-0.736 1.273h-1.466c-0.368 0-0.667 0.298-0.667 0.667v0 1.466l-1.273 0.737c-0.2 0.118-0.333 0.332-0.333 0.577 0 0.123 0.033 0.238 0.091 0.337l-0.002-0.003 0.735 1.273-0.736 1.273c-0.056 0.096-0.089 0.211-0.089 0.334 0 0.061 0.008 0.12 0.024 0.177l-0.001-0.005z"></path>
</svg>
