<!-- Generated by IcoMoon.io -->
<svg version="1.1" xmlns="http://www.w3.org/2000/svg" width="16" height="16" viewBox="0 0 16 16">
<title>bxs-files</title>
<path d="M2 5.333v8.667c0 0.368 0.298 0.667 0.667 0.667v0h8v-1.333h-7.333v-8h-1.333z"></path>
<path d="M13.333 11.333v-6c0-0 0-0 0-0.001 0-0.184-0.075-0.35-0.195-0.471l-3.333-3.333c-0.12-0.121-0.287-0.195-0.47-0.195-0 0-0.001 0-0.001 0h-4c-0.368 0-0.667 0.298-0.667 0.667v0 9.333c0 0.368 0.298 0.667 0.667 0.667v0h7.333c0.368 0 0.667-0.298 0.667-0.667v0zM10 5.333h-0.667v-2.667l2.667 2.667h-2z"></path>
</svg>
