<!-- Generated by IcoMoon.io -->
<svg version="1.1" xmlns="http://www.w3.org/2000/svg" width="16" height="16" viewBox="0 0 16 16">
<title>bxs-file-plus</title>
<path d="M8.667 1.333h-5.333c-0.368 0-0.667 0.298-0.667 0.667v0 12c0 0.368 0.298 0.667 0.667 0.667v0h9.333c0.368 0 0.667-0.298 0.667-0.667v0-8c0-0 0-0.001 0-0.001 0-0.184-0.075-0.35-0.195-0.47l-4-4c-0.12-0.121-0.287-0.195-0.47-0.195-0 0-0.001 0-0.001 0h0zM10.667 10.667h-2v2h-1.333v-2h-2v-1.333h2v-2h1.333v2h2v1.333zM9.333 6h-0.667v-3.333l3.333 3.333h-2.667z"></path>
</svg>
