<!-- Generated by IcoMoon.io -->
<svg version="1.1" xmlns="http://www.w3.org/2000/svg" width="16" height="16" viewBox="0 0 16 16">
<title>bxs-right-arrow</title>
<path d="M4.346 13.251c0.093 0.052 0.203 0.083 0.321 0.083 0.133 0 0.256-0.039 0.36-0.106l-0.003 0.002 7.333-4.667c0.186-0.121 0.308-0.327 0.308-0.563s-0.122-0.442-0.305-0.561l-0.003-0.002-7.333-4.667c-0.101-0.066-0.226-0.105-0.359-0.105-0.368 0-0.666 0.298-0.666 0.666 0 0.001 0 0.001 0 0.002v-0 9.333c0 0.243 0.133 0.467 0.346 0.584z"></path>
</svg>
