<!-- Generated by IcoMoon.io -->
<svg version="1.1" xmlns="http://www.w3.org/2000/svg" width="16" height="16" viewBox="0 0 16 16">
<title>bxs-group</title>
<path d="M6.333 8c1.282 0 2.333-1.052 2.333-2.334 0-1.283-1.051-2.333-2.333-2.333-1.287 0.005-2.329 1.047-2.333 2.333v0c0.005 1.287 1.047 2.329 2.333 2.334h0zM6.333 8.875c-2.379 0-4.333 1.648-4.333 3.25v0.541h8.667v-0.542c0-1.602-1.954-3.249-4.333-3.249zM11.597 7.857c0.335-0.575 0.533-1.266 0.533-2.004 0-0.006-0-0.011-0-0.017v0.001c-0.011-0.901-0.357-1.703-1.003-2.319l-0.92 0.964c0.385 0.369 0.583 0.829 0.59 1.371 0.009 0.775-0.364 1.439-0.601 1.677l-0.577 0.576 0.68 0.451c1.747 1.159 2.367 2.939 2.367 4.111h1.333c0-1.431-0.644-3.378-2.403-4.809z"></path>
</svg>
