<svg xmlns="http://www.w3.org/2000/svg" width="24" height="24" viewBox="0 0 24 24"><path fill="none" d="M9 9L7 9 7 11 5 11 5 13 7 13 7 15 9 15 9 13 11 13 11 11 9 11z"/><circle fill="none" cx="16" cy="13" r="1"/><circle fill="none" cx="18" cy="11" r="1"/><path d="M16,6H8c-3.313,0-6,2.687-6,6s2.687,6,6,6h8c3.313,0,6-2.687,6-6S19.313,6,16,6z M11,13H9v2H7v-2H5v-2h2V9h2v2h2V13z M16,14c-0.553,0-1-0.448-1-1s0.447-1,1-1s1,0.448,1,1S16.553,14,16,14z M18,12c-0.553,0-1-0.448-1-1s0.447-1,1-1s1,0.448,1,1 S18.553,12,18,12z"/></svg>