<svg xmlns="http://www.w3.org/2000/svg" width="24" height="24" viewBox="0 0 24 24"><path d="M21 4h-7c-.553 0-1 .447-1 1l.003 7.919c-.009.111-.199 2.741 1.688 4.789C16.094 19.229 18.217 20 21 20c.553 0 1-.447 1-1v-2c0-.459-.313-.859-.758-.971-1.075-.268-1.791-.706-2.128-1.303-.14-.248-.2-.503-.22-.727H21c.553 0 1-.447 1-1V5C22 4.447 21.553 4 21 4zM3.691 17.708C5.094 19.229 7.217 20 10 20c.553 0 1-.447 1-1v-1.966c0-.456-.309-.854-.75-.968-1.074-.278-1.791-.726-2.13-1.33C7.979 14.484 7.918 14.226 7.897 14H10c.553 0 1-.447 1-1V5c0-.553-.447-1-1-1H3C2.447 4 2 4.447 2 5l.003 7.919C1.994 13.03 1.804 15.66 3.691 17.708z"/></svg>