<svg xmlns="http://www.w3.org/2000/svg" width="24" height="24" viewBox="0 0 24 24"><path d="M13.707 11.707L18.879 6.535 21 8.656 21 3 15.344 3 17.465 5.121 12.293 10.293zM7.3 16.408c4.006 4.006 9.023 4.299 10.406 4.299.201 0 .326-.006.357-.008.246-.014.477-.117.65-.291l1-1 .697-.697-5.414-5.414L14.3 13.994l-1.66 1.66c-.578-.109-1.734-.471-2.926-1.66-1.194-1.193-1.554-2.354-1.661-2.926l1.661-1.66.701-.701L5 3.293 4.3 3.994l-1.001 1C3.125 5.168 3.021 5.398 3.008 5.643 2.994 5.893 2.707 11.814 7.3 16.408z"/></svg>