<!-- Generated by IcoMoon.io -->
<svg version="1.1" xmlns="http://www.w3.org/2000/svg" width="16" height="16" viewBox="0 0 16 16">
<title>bxs-quote-left</title>
<path d="M6.667 2.667h-4.667c-0.368 0-0.667 0.298-0.667 0.667v0 3.333l0.002 1.946c-0.006 0.074-0.133 1.827 1.125 3.193 0.935 1.014 2.351 1.528 4.206 1.528h0.667v-1.879l-0.536-0.107c-0.913-0.183-1.549-0.542-1.889-1.069-0.17-0.269-0.277-0.592-0.292-0.94l-0-0.004h2.050c0.368 0 0.667-0.298 0.667-0.667v0-5.333c0-0.368-0.298-0.667-0.667-0.667v0zM14 9.333c0.368 0 0.667-0.298 0.667-0.667v0-5.333c0-0.368-0.298-0.667-0.667-0.667v0h-4.667c-0.368 0-0.667 0.298-0.667 0.667v0 3.333l0.002 1.946c-0.006 0.074-0.133 1.827 1.125 3.193 0.935 1.014 2.351 1.528 4.206 1.528h0.667v-1.879l-0.536-0.107c-0.913-0.183-1.549-0.542-1.889-1.069-0.17-0.268-0.277-0.592-0.292-0.939l-0-0.004h2.050z"></path>
</svg>
