<svg xmlns="http://www.w3.org/2000/svg" width="24" height="24"><path d="M20.332 3.668a5.507 5.507 0 0 0-7.778 0 5.5 5.5 0 0 0-1.338 5.581l-7.501 7.5a.997.997 0 0 0-.282.566l-.354 2.475a1 1 0 0 0 1.131 1.131l2.475-.354c.375-.053.687-.315.808-.673L8 17.99s.472.405.665.466c.412.13.813-.274.948-.684L10 16s.577.292.786.335c.266.055.524-.109.707-.293a.988.988 0 0 0 .241-.391L12 14s.675.187.906.214c.263.03.519-.104.707-.293l1.138-1.137a5.502 5.502 0 0 0 5.581-1.338 5.507 5.507 0 0 0 0-7.778zM16.5 10a2.5 2.5 0 1 1 0-5 2.5 2.5 0 0 1 0 5z"/></svg>