<svg xmlns="http://www.w3.org/2000/svg" width="24" height="24"><path d="M21.929 11.629l-2-5A1.002 1.002 0 0 0 19 6h-4V5a1 1 0 0 0-1-1H3a1 1 0 0 0-1 1v12a1 1 0 0 0 1 1h.051c-.025.165-.051.329-.051.5C3 20.43 4.57 22 6.5 22s3.5-1.57 3.5-3.5c0-.171-.026-.335-.051-.5h3.102c-.025.165-.051.329-.051.5 0 1.93 1.57 3.5 3.5 3.5s3.5-1.57 3.5-3.5c0-.171-.026-.335-.051-.5H21a1 1 0 0 0 1-1v-5c0-.127-.024-.253-.071-.371zM15 8h3.323l1.2 3H15V8zM6.5 20c-.827 0-1.5-.673-1.5-1.5S5.673 17 6.5 17s1.5.673 1.5 1.5S7.327 20 6.5 20zm10 0c-.827 0-1.5-.673-1.5-1.5s.673-1.5 1.5-1.5 1.5.673 1.5 1.5-.673 1.5-1.5 1.5z"/></svg>