<svg xmlns="http://www.w3.org/2000/svg" width="24" height="24" viewBox="0 0 24 24"><path d="M19.92,3.029c-0.001,0-0.002,0-0.004,0C16.972,3.161,13.628,3.641,12,5.013c-1.628-1.372-4.972-1.852-7.916-1.983 C3.542,2.996,3.01,3.206,2.618,3.58C2.226,3.956,2,4.483,2,5.028v11c0,1.06,0.842,1.938,1.917,1.998 c4.861,0.27,7.354,2.661,7.38,2.685l0.007-0.007c0.09,0.088,0.19,0.166,0.311,0.217c0.125,0.052,0.256,0.078,0.386,0.078 c0.258,0,0.513-0.1,0.703-0.287c0.025-0.024,2.519-2.415,7.38-2.685C21.158,17.965,22,17.087,22,16.027v-11 C22,3.926,21.107,3.029,19.92,3.029z M19.972,16.028c-3.22,0.179-5.543,1.169-6.972,2.013V7c0-0.804,2.455-1.769,7-1.972 L19.972,16.028z"/></svg>