<!-- Generated by IcoMoon.io -->
<svg version="1.1" xmlns="http://www.w3.org/2000/svg" width="16" height="16" viewBox="0 0 16 16">
<title>bxs-dashboard</title>
<path d="M12.72 3.286c-1.263-1.263-2.937-1.959-4.713-1.959s-3.452 0.696-4.715 1.959c-2.599 2.599-2.599 6.829 0 9.428 1.263 1.263 2.937 1.959 4.715 1.959s3.451-0.695 4.713-1.958c2.599-2.599 2.599-6.829 0-9.429zM13.291 8.661h-1.291v-1.333h1.289c0.056 0.443 0.057 0.891 0.002 1.333zM8.007 13.339c-1.421 0-2.761-0.557-3.772-1.568-0.339-0.339-0.616-0.714-0.845-1.111h9.233c-0.229 0.397-0.507 0.773-0.845 1.111-1.011 1.011-2.349 1.567-3.771 1.567zM2.723 7.327h1.277v1.333h-1.279c-0.055-0.443-0.054-0.891 0.002-1.333zM4.737 3.79l0.905 0.905-0.942 0.943-0.905-0.904c0.135-0.174 0.279-0.344 0.439-0.504s0.329-0.303 0.503-0.439zM11.777 4.229c0.257 0.258 0.483 0.535 0.677 0.828l-3.145 2.703c0.014 0.078 0.024 0.157 0.024 0.239 0 0.734-0.595 1.329-1.328 1.329s-1.327-0.595-1.327-1.329c0-0.732 0.595-1.327 1.327-1.327 0.153 0 0.296 0.031 0.432 0.078l3.143-2.701c0.066 0.059 0.134 0.116 0.197 0.179zM8.667 3.994h-1.333v-1.285c0.222-0.028 0.446-0.047 0.673-0.047 0.223 0 0.442 0.018 0.66 0.045v1.287z"></path>
</svg>
