<!-- Generated by IcoMoon.io -->
<svg version="1.1" xmlns="http://www.w3.org/2000/svg" width="16" height="16" viewBox="0 0 16 16">
<title>bxs-package</title>
<path d="M14.663 5.301c-0.002-0.052-0.009-0.101-0.021-0.149l0.001 0.005c-0.005-0.018-0.015-0.034-0.021-0.051-0.013-0.037-0.026-0.074-0.045-0.108-0.011-0.019-0.027-0.035-0.040-0.053-0.021-0.029-0.041-0.059-0.066-0.084-0.017-0.017-0.039-0.030-0.058-0.045-0.025-0.019-0.047-0.042-0.074-0.058l-0.009-0.003-0.007-0.005-2.191-1.212-6.798 3.754v2.041l-1.333-0.733v-1.933c0-0.271 0.021-0.313 0.257-0.445l6.323-3.541-2.271-1.257c-0.093-0.052-0.204-0.083-0.323-0.083s-0.231 0.031-0.327 0.086l0.003-0.002-5.986 3.327c-0.002 0.001-0.003 0.003-0.006 0.004-0.003 0.002-0.006 0.002-0.009 0.004-0.030 0.017-0.054 0.041-0.080 0.063-0.017 0.013-0.037 0.025-0.052 0.040-0.026 0.026-0.046 0.057-0.068 0.087-0.012 0.017-0.027 0.032-0.037 0.050-0.017 0.031-0.033 0.068-0.045 0.105l-0.001 0.005c-0.006 0.017-0.015 0.033-0.020 0.049-0.012 0.043-0.019 0.091-0.020 0.142l-0 0.001c-0.001 0.011-0.005 0.021-0.005 0.032v5.335c0 0.242 0.131 0.465 0.343 0.583l6.001 3.333c0.029 0.016 0.060 0.025 0.090 0.036 0.021 0.009 0.042 0.020 0.065 0.026 0.051 0.014 0.109 0.021 0.169 0.021s0.118-0.008 0.173-0.022l-0.005 0.001c0.022-0.006 0.043-0.017 0.065-0.026 0.030-0.011 0.061-0.019 0.090-0.036l0.013-0.007 0.001-0.001 0.001-0.001 5.985-3.325c0.211-0.117 0.342-0.341 0.342-0.583v-5.335c0-0.011-0.004-0.020-0.004-0.031zM8.667 12.867v-3.787l4.667-2.611v3.804l-4.667 2.593z"></path>
</svg>
