<svg xmlns="http://www.w3.org/2000/svg" width="24" height="24" viewBox="0 0 24 24"><path d="M12,2c-3.86,0-7,3.14-7,6.999C5,12.859,8.141,16,12,16s7-3.141,7-7.001C19,5.14,15.86,2,12,2z M15,8.999	C15,7.346,13.654,6,12,6V4c2.756,0,5,2.242,5,4.999H15z"/><path d="M12 16c1.958 0 3.728-.811 5-2.11V13h-1-1H9 8 7v.889C8.272 15.189 10.042 16 12 16zM12 18c-1.849 0-3.569-.562-5-1.522V21c0 .347.18.668.474.851.295.184.664.198.973.044L12 20.118l3.553 1.776C15.694 21.965 15.847 22 16 22c.183 0 .365-.05.525-.149C16.82 21.668 17 21.347 17 21v-4.521C15.569 17.438 13.85 18 12 18z"/></svg>