<!-- Generated by IcoMoon.io -->
<svg version="1.1" xmlns="http://www.w3.org/2000/svg" width="16" height="16" viewBox="0 0 16 16">
<title>bxs-barcode</title>
<path d="M14 2.667h-12c-0.368 0-0.667 0.298-0.667 0.667v0 9.333c0 0.368 0.298 0.667 0.667 0.667v0h12c0.368 0 0.667-0.298 0.667-0.667v0-9.333c0-0.368-0.298-0.667-0.667-0.667v0zM5.333 11.333h-2v-6.667h2v6.667zM6.667 11.333h-0.667v-6.667h0.667v6.667zM8 11.333h-0.667v-6.667h0.667v6.667zM10.667 11.333h-2v-6.667h2v6.667zM12.667 11.333h-1.333v-6.667h1.333v6.667z"></path>
</svg>
