<!-- Generated by IcoMoon.io -->
<svg version="1.1" xmlns="http://www.w3.org/2000/svg" width="16" height="16" viewBox="0 0 16 16">
<title>bxs-widget</title>
<path d="M2.667 7.333h4c0.368 0 0.667-0.298 0.667-0.667v0-4c0-0.368-0.298-0.667-0.667-0.667v0h-4c-0.368 0-0.667 0.298-0.667 0.667v0 4c0 0.368 0.298 0.667 0.667 0.667v0zM2 13.333c0 0.368 0.298 0.667 0.667 0.667v0h4c0.368 0 0.667-0.298 0.667-0.667v0-4c0-0.368-0.298-0.667-0.667-0.667v0h-4c-0.368 0-0.667 0.298-0.667 0.667v0 4zM13.333 8.667h-4c-0.368 0-0.667 0.298-0.667 0.667v0 4c0 0.368 0.298 0.667 0.667 0.667v0h4c0.368 0 0.667-0.298 0.667-0.667v0-4c0-0.368-0.298-0.667-0.667-0.667v0zM11.805 1.529c-0.121-0.121-0.287-0.195-0.471-0.195s-0.351 0.075-0.471 0.195l-2.667 2.667c-0.121 0.121-0.195 0.287-0.195 0.471s0.075 0.351 0.195 0.471l2.667 2.667c0.12 0.121 0.287 0.196 0.471 0.196s0.351-0.075 0.471-0.196l2.667-2.667c0.121-0.121 0.195-0.287 0.195-0.471s-0.075-0.351-0.195-0.471l-2.667-2.667z"></path>
</svg>
