<!-- Generated by IcoMoon.io -->
<svg version="1.1" xmlns="http://www.w3.org/2000/svg" width="16" height="16" viewBox="0 0 16 16">
<title>bxs-smiley-meh</title>
<path d="M8 1.333c-3.676 0-6.667 2.991-6.667 6.667s2.991 6.667 6.667 6.667 6.667-2.991 6.667-6.667-2.991-6.667-6.667-6.667zM4.667 6.667c0-0.736 0.448-1.333 1-1.333s1 0.597 1 1.333-0.448 1.333-1 1.333-1-0.597-1-1.333zM10.667 11.333h-5.333v-1.333h5.333v1.333zM10.333 8c-0.552 0-1-0.597-1-1.333s0.448-1.333 1-1.333 1 0.597 1 1.333-0.448 1.333-1 1.333z"></path>
</svg>
