<svg xmlns="http://www.w3.org/2000/svg" width="24" height="24"><path d="M20 10.999h2C22 5.869 18.127 2 12.99 2v2C17.052 4 20 6.943 20 10.999z"/><path d="M13 8c2.103 0 3 .897 3 3h2c0-3.225-1.775-5-5-5v2zM13.299 15.286l-1.66 1.66c-.577-.109-1.734-.47-2.926-1.66-1.193-1.193-1.553-2.353-1.661-2.925L8.713 10.7l1.707-1.707-5.414-5.414-1.707 1.707-1 1a.992.992 0 0 0-.291.65c-.015.25-.302 6.171 4.291 10.764 4.006 4.006 9.024 4.3 10.406 4.3.202 0 .326-.007.358-.009a.994.994 0 0 0 .649-.291l1-1 1.707-1.707-5.414-5.414-1.706 1.707z"/></svg>