<!-- Generated by IcoMoon.io -->
<svg version="1.1" xmlns="http://www.w3.org/2000/svg" width="16" height="16" viewBox="0 0 16 16">
<title>bxs-paper-plane</title>
<path d="M13.709 2.227c-0.105-0.072-0.236-0.116-0.376-0.116-0.103 0-0.2 0.023-0.287 0.065l0.004-0.002-11.333 5.333c-0.228 0.109-0.382 0.338-0.382 0.603 0 0.272 0.162 0.505 0.396 0.609l0.004 0.002 2.301 1.007 6.632-3.617-4 4.667 5.733 2.611c0.079 0.035 0.171 0.056 0.267 0.056 0.353 0 0.641-0.274 0.665-0.621l0-0.002 0.667-10c0.001-0.013 0.001-0.027 0.001-0.042 0-0.229-0.115-0.431-0.29-0.552l-0.002-0.001zM5.333 11.749v2.363c0 0 0 0 0 0 0 0.368 0.298 0.667 0.667 0.667 0.138 0 0.266-0.042 0.372-0.114l-0.002 0.002 2.148-1.431-3.185-1.486z"></path>
</svg>
