<!-- Generated by IcoMoon.io -->
<svg version="1.1" xmlns="http://www.w3.org/2000/svg" width="16" height="16" viewBox="0 0 16 16">
<title>bxs-bell-minus</title>
<path d="M13.333 9.843v-1.843c0-3.052-1.639-5.305-4.109-5.863-0.204-0.474-0.673-0.804-1.224-0.804s-1.020 0.33-1.224 0.804c-2.47 0.558-4.109 2.811-4.109 5.863v1.843l-0.597 1.193c-0.045 0.087-0.071 0.19-0.071 0.299 0 0.367 0.298 0.665 0.665 0.665 0.001 0 0.002 0 0.003 0h10.68c0 0 0 0 0 0 0.368 0 0.667-0.298 0.667-0.667 0-0.153-0.051-0.294-0.138-0.406l0.001 0.002-0.543-1.086zM10.667 8h-5.333v-1.333h5.333v1.333zM8 14.667c0.001 0 0.002 0 0.002 0 0.863 0 1.598-0.55 1.872-1.319l0.004-0.014h-3.757c0.278 0.783 1.013 1.333 1.876 1.333 0.001 0 0.002 0 0.003 0h-0z"></path>
</svg>
