<!-- Generated by IcoMoon.io -->
<svg version="1.1" xmlns="http://www.w3.org/2000/svg" width="16" height="16" viewBox="0 0 16 16">
<title>bxs-lock</title>
<path d="M8 1.333c-1.838 0-3.333 1.495-3.333 3.333v2h-1.333c-0.368 0-0.667 0.298-0.667 0.667v0 6.667c0 0.368 0.298 0.667 0.667 0.667v0h9.333c0.368 0 0.667-0.298 0.667-0.667v0-6.667c0-0.368-0.298-0.667-0.667-0.667v0h-1.333v-2c0-1.838-1.495-3.333-3.333-3.333zM6 4.667c0-1.103 0.897-2 2-2s2 0.897 2 2v2h-4v-2zM8.667 11.815v1.518h-1.333v-1.518c-0.397-0.231-0.667-0.655-0.667-1.149 0-0.736 0.597-1.333 1.333-1.333s1.333 0.597 1.333 1.333v0c-0.001 0.489-0.266 0.916-0.66 1.145l-0.006 0.003z"></path>
</svg>
