<!-- Generated by IcoMoon.io -->
<svg version="1.1" xmlns="http://www.w3.org/2000/svg" width="16" height="16" viewBox="0 0 16 16">
<title>bxs-notification</title>
<path d="M14 4c0 1.105-0.895 2-2 2s-2-0.895-2-2c0-1.105 0.895-2 2-2s2 0.895 2 2z"></path>
<path d="M3.333 2.667c-0.368 0-0.667 0.298-0.667 0.667v0 9.333c0 0.368 0.298 0.667 0.667 0.667v0h9.333c0.368 0 0.667-0.298 0.667-0.667v0-5.615c-0.392 0.178-0.851 0.281-1.333 0.281h-0c-1.841 0-3.333-1.492-3.333-3.333v0c0-0.475 0.102-0.925 0.281-1.333h-5.615z"></path>
</svg>
