<!-- Generated by IcoMoon.io -->
<svg version="1.1" xmlns="http://www.w3.org/2000/svg" width="16" height="16" viewBox="0 0 16 16">
<title>bxs-hot</title>
<path d="M11.836 5.239l-0.928-1.065-0.233 1.393c-0.237 1.425-0.781 2.345-1.559 2.669 0.49-1.164 0.564-2.278 0.218-3.319-0.714-2.154-2.975-3.145-3.071-3.185l-0.929-0.399v1.011c0 1.684-1.129 2.852-1.138 2.862-1.457 1.456-2.195 2.961-2.195 4.471 0 1.897 0.757 3.251 1.875 4.121-0.541-2.029 1.459-4.788 1.459-4.788 0.564 3.943 4.918 4.552 6.26 4.647 1.036-0.873 1.739-2.178 1.739-3.957 0.004-0.108 0.075-2.659-1.497-4.462z"></path>
</svg>
