<!-- Generated by IcoMoon.io -->
<svg version="1.1" xmlns="http://www.w3.org/2000/svg" width="16" height="16" viewBox="0 0 16 16">
<title>bxs-first-aid</title>
<path d="M14 4h-2.667v-2c0-0.368-0.298-0.667-0.667-0.667v0h-5.333c-0.368 0-0.667 0.298-0.667 0.667v0 2h-2.667c-0.368 0-0.667 0.298-0.667 0.667v0 9.333c0 0.368 0.298 0.667 0.667 0.667v0h12c0.368 0 0.667-0.298 0.667-0.667v0-9.333c0-0.368-0.298-0.667-0.667-0.667v0zM6 2.667h4v1.333h-4v-1.333zM11.333 10h-2.667v2.667h-1.333v-2.667h-2.667v-1.333h2.667v-2.667h1.333v2.667h2.667v1.333z"></path>
</svg>
