<!-- Generated by IcoMoon.io -->
<svg version="1.1" xmlns="http://www.w3.org/2000/svg" width="16" height="16" viewBox="0 0 16 16">
<title>bxs-alarm-off</title>
<path d="M13.529 4.472l-2.007-2 0.941-0.945 2.007 2zM14 8.667c0-3.253-2.747-6-6-6-1.225 0-2.375 0.394-3.337 1.053l-0.723-0.723 0.525-0.527-0.944-0.941-0.524 0.525-0.526-0.526-0.943 0.943 12 12 0.943-0.943-1.525-1.525c0.659-0.962 1.053-2.112 1.053-3.337zM11.333 9.333h-1.057l-1.333-1.333h2.391v1.333zM7.333 5.333h1.333v2.391l-1.333-1.333v-1.057zM8 14.667c1.129-0.005 2.182-0.328 3.074-0.884l-0.025 0.014-8.179-8.179c-0.542 0.867-0.865 1.92-0.87 3.048v0.001c0 3.253 2.747 6 6 6z"></path>
</svg>
