<!-- Generated by IcoMoon.io -->
<svg version="1.1" xmlns="http://www.w3.org/2000/svg" width="16" height="16" viewBox="0 0 16 16">
<title>bxs-joystick</title>
<path d="M14.657 6.493c-0.001-0.019-0.003-0.039-0.005-0.059-0.117-1.739-1.575-3.101-3.319-3.101h-6.667c-1.786 0-3.239 1.384-3.325 3.158-0.007 0.053-0.009 0.107-0.009 0.169v4.34c0 0.617 0.249 1.219 0.681 1.651 0.433 0.434 1.035 0.683 1.652 0.683 1.2 0 1.669-0.667 2.333-2 0.097-0.195 0.661-1.333 2-1.333 1.331 0 1.902 1.138 2 1.333 0.669 1.333 1.133 2 2.333 2 0.617 0 1.219-0.249 1.651-0.681 0.434-0.433 0.683-1.035 0.683-1.652v-4.333c0-0.063-0.003-0.12-0.009-0.173zM4.667 8.021c-0.737 0-1.333-0.597-1.333-1.333s0.597-1.333 1.333-1.333 1.333 0.597 1.333 1.333-0.597 1.333-1.333 1.333zM11.333 4.687c0.369 0 0.667 0.298 0.667 0.667s-0.298 0.667-0.667 0.667-0.667-0.298-0.667-0.667 0.298-0.667 0.667-0.667zM10 7.354c-0.369 0-0.667-0.298-0.667-0.667s0.298-0.667 0.667-0.667 0.667 0.298 0.667 0.667-0.298 0.667-0.667 0.667zM11.333 8.687c-0.369 0-0.667-0.298-0.667-0.667s0.298-0.667 0.667-0.667 0.667 0.298 0.667 0.667-0.298 0.667-0.667 0.667zM12.667 7.354c-0.369 0-0.667-0.298-0.667-0.667s0.298-0.667 0.667-0.667 0.667 0.298 0.667 0.667-0.298 0.667-0.667 0.667z"></path>
</svg>
