<svg xmlns="http://www.w3.org/2000/svg" width="24" height="24"><path fill="none" d="M4 11h2v2H4zM6.956 5.543l1.5 1.5-1.413 1.414-1.5-1.5zM11.999 12.975a1.993 1.993 0 0 0 1.949-2.4l3.972-3.581-1.34-1.486-3.979 3.587a1.976 1.976 0 0 0-.603-.103 1.992 1.992 0 0 0 .001 3.983zM12 20c5 0 7-4 7-4H5s2 4 7 4zM18 11h2v2h-2zM11 4h2v2h-2z"/><path d="M4.929 19.071c1.895 1.895 4.406 2.938 7.072 2.938s5.177-1.043 7.07-2.937c3.899-3.898 3.899-10.243 0-14.144a9.936 9.936 0 0 0-7.07-2.938 9.941 9.941 0 0 0-7.072 2.938c-3.9 3.9-3.9 10.245 0 14.143zM12 20c-5 0-7-4-7-4h14s-2 4-7 4zm6-9h2v2h-2v-2zm-7-7h2v2h-2V4zm.999 4.991c.211 0 .411.042.603.103l3.979-3.587 1.34 1.486-3.972 3.581a1.993 1.993 0 0 1-1.949 2.4 1.99 1.99 0 1 1-.001-3.983zM6.957 5.543l1.5 1.499-1.414 1.414-1.5-1.499 1.414-1.414zM6 11v2H4v-2h2z"/></svg>