<!-- Generated by IcoMoon.io -->
<svg version="1.1" xmlns="http://www.w3.org/2000/svg" width="16" height="16" viewBox="0 0 16 16">
<title>bxs-hdd</title>
<path d="M14 8h-12c-0.368 0-0.667 0.298-0.667 0.667v0 4c0 0.368 0.298 0.667 0.667 0.667v0h12c0.368 0 0.667-0.298 0.667-0.667v0-4c0-0.368-0.298-0.667-0.667-0.667v0zM10.667 11.333h-1.333v-1.333h1.333v1.333zM13.333 11.333h-1.333v-1.333h1.333v1.333zM14.15 6.667l-0.837-3.495c-0.075-0.292-0.336-0.505-0.647-0.505h-8.667c-0.278 0-0.527 0.173-0.625 0.432l-1.287 3.568h12.062z"></path>
</svg>
