<!-- Generated by IcoMoon.io -->
<svg version="1.1" xmlns="http://www.w3.org/2000/svg" width="16" height="16" viewBox="0 0 16 16">
<title>bxs-task</title>
<path d="M2.667 3.333v10.667c0 0.368 0.298 0.667 0.667 0.667v0h9.333c0.368 0 0.667-0.298 0.667-0.667v0-10.667c0-0.368-0.298-0.667-0.667-0.667v0h-2v-0.667c0-0.368-0.298-0.667-0.667-0.667v0h-4c-0.368 0-0.667 0.298-0.667 0.667v0 0.667h-2c-0.368 0-0.667 0.298-0.667 0.667v0zM6.667 2.667h2.667v1.333h-2.667v-1.333zM6.138 8.529l1.195 1.195 2.529-2.529 0.943 0.943-3.471 3.471-2.138-2.138 0.943-0.943z"></path>
</svg>
