<!-- Generated by IcoMoon.io -->
<svg version="1.1" xmlns="http://www.w3.org/2000/svg" width="16" height="16" viewBox="0 0 16 16">
<title>bxs-phone-outgoing</title>
<path d="M11.643 3.414l-3.448 3.448 0.943 0.943 3.448-3.448 1.414 1.414v-3.771h-3.771z"></path>
<path d="M9.533 9.329l-1.107 1.107c-0.385-0.073-1.156-0.314-1.951-1.107-0.796-0.795-1.036-1.569-1.107-1.951l1.575-1.574-3.61-3.609-0.467 0.467-0.667 0.667c-0.116 0.116-0.185 0.269-0.194 0.433-0.009 0.167-0.201 4.114 2.861 7.177 2.671 2.671 6.015 2.866 6.937 2.866 0.134 0 0.217-0.004 0.238-0.005 0.164-0.009 0.318-0.078 0.433-0.194l1.131-1.131-3.609-3.609-0.464 0.465z"></path>
</svg>
