<svg xmlns="http://www.w3.org/2000/svg" width="24" height="24" viewBox="0 0 24 24"><path d="M19.148,6.971C18.789,6.372,18.132,6,17.434,6H15V5c0-0.553-0.447-1-1-1H4C2.897,4,2,4.897,2,6v10 c0,0.77,0.441,1.432,1.081,1.766C3.029,18.003,3,18.248,3,18.5C3,20.43,4.57,22,6.5,22s3.5-1.57,3.5-3.5 c0-0.171-0.026-0.335-0.051-0.5h3.102C13.026,18.165,13,18.329,13,18.5c0,1.93,1.57,3.5,3.5,3.5s3.5-1.57,3.5-3.5 c0-0.171-0.026-0.335-0.051-0.5H20c1.103,0,2-0.897,2-2v-4c0-0.182-0.049-0.359-0.143-0.515L19.148,6.971z M15,8h2.434l1.8,3H15V8z M5,9h2V7h2v2h2v2H9v2H7v-2H5V9z M6.5,20C5.673,20,5,19.327,5,18.5S5.673,17,6.5,17S8,17.673,8,18.5S7.327,20,6.5,20z M16.5,20 c-0.827,0-1.5-0.673-1.5-1.5s0.673-1.5,1.5-1.5s1.5,0.673,1.5,1.5S17.327,20,16.5,20z"/></svg>