<!-- Generated by IcoMoon.io -->
<svg version="1.1" xmlns="http://www.w3.org/2000/svg" width="16" height="16" viewBox="0 0 16 16">
<title>bxs-award</title>
<path d="M8 1.333c-2.573 0-4.667 2.093-4.667 4.666 0 1.545 0.759 2.914 1.919 3.764v0c0 0 0.001 0.001 0.001 0.001 0.379 0.277 0.801 0.499 1.254 0.653 0.011 0.004 0.023 0.009 0.034 0.013 0.211 0.069 0.429 0.123 0.651 0.162 0.041 0.007 0.083 0.013 0.124 0.019 0.224 0.034 0.45 0.057 0.683 0.057 0.001 0 0.001 0 0.001 0v0c0 0 0 0 0 0 0.233 0 0.46-0.023 0.685-0.056 0.041-0.006 0.081-0.012 0.121-0.019 0.224-0.039 0.443-0.093 0.654-0.162 0.010-0.003 0.019-0.007 0.028-0.011 1.845-0.624 3.179-2.367 3.179-4.42 0-2.573-2.093-4.666-4.667-4.666zM10 5.999c0-1.102-0.897-1.999-2-1.999v-1.333c1.837 0 3.333 1.495 3.333 3.333h-1.333z"></path>
<path d="M5.014 11.197v3.47l2.986-1 2.986 1 0.001-3.47c-0.881 0.508-1.899 0.803-2.987 0.803s-2.106-0.295-2.986-0.803z"></path>
</svg>
