<!-- Generated by IcoMoon.io -->
<svg version="1.1" xmlns="http://www.w3.org/2000/svg" width="16" height="16" viewBox="0 0 16 16">
<title>bxs-hexagon</title>
<path d="M11 2h-6c-0 0-0 0-0 0-0.249 0-0.467 0.137-0.581 0.34l-0.002 0.003-2.963 5.333c-0.053 0.093-0.084 0.205-0.084 0.324s0.031 0.23 0.086 0.327l-0.002-0.003 2.963 5.333c0.116 0.206 0.333 0.343 0.583 0.343 0 0 0 0 0 0h6c0 0 0 0 0 0 0.249 0 0.467-0.137 0.581-0.34l0.002-0.003 2.963-5.333c0.053-0.093 0.084-0.205 0.084-0.324s-0.031-0.23-0.086-0.327l0.002 0.003-2.963-5.333c-0.116-0.206-0.333-0.343-0.583-0.343-0 0-0 0-0 0v0z"></path>
</svg>
