<svg xmlns="http://www.w3.org/2000/svg" width="24" height="24" viewBox="0 0 24 24"><path d="M16.507,14.986c-1.934,0-3.507,1.573-3.507,3.507S14.573,22,16.507,22c1.76,0,3.207-1.308,3.456-3H20v-0.371 c0.002-0.047,0.014-0.09,0.014-0.136S20.002,18.404,20,18.357V7c0-0.396-0.232-0.753-0.594-0.914l-9-4 c-0.309-0.138-0.667-0.108-0.951,0.075C9.171,2.346,9,2.661,9,3v8.319c-0.455-0.216-0.957-0.347-1.493-0.347 C5.573,10.973,4,12.546,4,14.479s1.573,3.507,3.507,3.507c1.755,0,3.2-1.301,3.454-2.986H11v-0.385 c0.002-0.047,0.014-0.09,0.014-0.136S11.002,14.391,11,14.344V4.539l7,3.11v7.684C17.545,15.117,17.043,14.986,16.507,14.986z"/></svg>