<!-- Generated by IcoMoon.io -->
<svg version="1.1" xmlns="http://www.w3.org/2000/svg" width="16" height="16" viewBox="0 0 16 16">
<title>bxs-store</title>
<path d="M13.238 2.323c-0.119-0.195-0.33-0.323-0.571-0.323h-9.429c-0.234 0-0.451 0.123-0.571 0.323l-1.238 2.667c-0.060 0.098-0.095 0.216-0.095 0.343 0 0 0 0 0 0.001v-0c0 1.471 1.196 2.667 2.667 2.667 0 0 0.001 0 0.001 0 0.795 0 1.509-0.349 1.996-0.902l0.003-0.003c0.489 0.555 1.205 0.905 2 0.905s1.511-0.35 2-0.905c0.49 0.556 1.204 0.905 1.999 0.905 0 0 0.001 0 0.001 0h-0c1.471 0 2.667-1.196 2.667-2.667 0-0 0-0 0-0.001 0-0.127-0.035-0.245-0.097-0.346l0.002 0.003-1.333-2.667zM6 5.333h-1.333l0.667-2h1.333l-0.667 2zM10.667 5.333h-0.667l-0.667-2h1.333l0.667 2h-0.667zM13.333 14c0.368 0 0.667-0.298 0.667-0.667v0-4.921c-0.487 0.564-1.202 0.919-2 0.921h-0c-0 0-0.001 0-0.001 0-0.795 0-1.509-0.349-1.996-0.902l-0.003-0.003c-0.489 0.555-1.205 0.905-2 0.905s-1.511-0.35-2-0.905c-0.49 0.556-1.204 0.905-1.999 0.905-0 0-0.001 0-0.001 0h0c-0.8 0-1.511-0.361-2-0.921v4.921c0 0.368 0.298 0.667 0.667 0.667v0h3.337v-3.333h4v3.333h3.329z"></path>
</svg>
