<!-- Generated by IcoMoon.io -->
<svg version="1.1" xmlns="http://www.w3.org/2000/svg" width="16" height="16" viewBox="0 0 16 16">
<title>bxs-coffee</title>
<path d="M13.333 6h-2v-1.333h-9.333v8.667c0 0.369 0.298 0.667 0.667 0.667h8c0.369 0 0.667-0.298 0.667-0.667v-1.333h2c0.369 0 0.667-0.298 0.667-0.667v-4.667c0-0.369-0.298-0.667-0.667-0.667zM12.667 10.667h-1.333v-3.333h1.333v3.333z"></path>
<path d="M3.333 1.333h1.333v2h-1.333v-2z"></path>
<path d="M6 1.333h1.333v2h-1.333v-2z"></path>
<path d="M8.667 1.333h1.333v2h-1.333v-2z"></path>
</svg>
