<svg xmlns="http://www.w3.org/2000/svg" width="24" height="24"><path fill="none" d="M13 11c1.648 0 3-1.353 3-3.001 0-1.649-1.352-3-3-3-1.647 0-3 1.351-3 3A3.013 3.013 0 0 0 13 11zM13 12.75c-3.295 0-6 2.281-6 4.5V18h12v-.75c0-2.219-2.705-4.5-6-4.5z"/><path d="M21 2H5a1 1 0 0 0-1 1v4H2v2h2v2H2v2h2v2H2v2h2v4a1 1 0 0 0 1 1h16a1 1 0 0 0 1-1V3a1 1 0 0 0-1-1zm-8 2.999c1.648 0 3 1.351 3 3A3.012 3.012 0 0 1 13 11c-1.647 0-3-1.353-3-3.001 0-1.649 1.353-3 3-3zM19 18H7v-.75c0-2.219 2.705-4.5 6-4.5s6 2.281 6 4.5V18z"/></svg>