<!-- Generated by IcoMoon.io -->
<svg version="1.1" xmlns="http://www.w3.org/2000/svg" width="16" height="16" viewBox="0 0 16 16">
<title>bxs-camera</title>
<path d="M8 6c-1.084 0-2 0.916-2 2s0.916 2 2 2 2-0.916 2-2-0.916-2-2-2z"></path>
<path d="M14 3.333h-2.391l-2-2h-3.219l-2 2h-2.391c-0.368 0-0.667 0.298-0.667 0.667v0 8.667c0 0.368 0.298 0.667 0.667 0.667v0h12c0.368 0 0.667-0.298 0.667-0.667v0-8.667c0-0.368-0.298-0.667-0.667-0.667v0zM8 11.333c-1.807 0-3.333-1.527-3.333-3.333s1.527-3.333 3.333-3.333 3.333 1.527 3.333 3.333-1.527 3.333-3.333 3.333z"></path>
</svg>
