<svg xmlns="http://www.w3.org/2000/svg" width="24" height="24"><path fill="none" d="M12.008 15.998a1 1 0 0 1 .555.168l3.736 2.491-1.253-4.385c-.11-.388.022-.804.337-1.056l3.251-2.601-3.79-.632a1.002 1.002 0 0 1-.73-.539l-2.105-4.211v10.765z"/><path d="M5.046 20.724a1.001 1.001 0 0 0 1.517 1.106l5.445-3.63 5.445 3.63a.998.998 0 0 0 1.145-.024c.338-.247.487-.68.372-1.082l-1.817-6.36 4.48-3.584a1.001 1.001 0 0 0-.461-1.767l-5.497-.917-2.772-5.544c-.34-.678-1.449-.678-1.789 0L8.341 8.095l-5.497.917a1 1 0 0 0-.461 1.767l4.48 3.584-1.817 6.361zm9.067-11.279c.144.286.415.486.73.539l3.79.632-3.251 2.601a1.003 1.003 0 0 0-.337 1.056l1.253 4.385-3.736-2.491a.998.998 0 0 0-.555-.168V5.234l2.106 4.211z"/></svg>