<!-- Generated by IcoMoon.io -->
<svg version="1.1" xmlns="http://www.w3.org/2000/svg" width="16" height="16" viewBox="0 0 16 16">
<title>bxs-briefcase</title>
<path d="M14 4h-2.667v-2c0-0.368-0.298-0.667-0.667-0.667h-5.333c-0.369 0-0.667 0.299-0.667 0.667v2h-2.667c-0.369 0-0.667 0.299-0.667 0.667v2.667h13.333v-2.667c0-0.368-0.298-0.667-0.667-0.667zM6 2.667h4v1.333h-4v-1.333z"></path>
<path d="M9.333 10h-2.667v-1.333h-5.333v4c0 0.368 0.298 0.667 0.667 0.667h12c0.369 0 0.667-0.299 0.667-0.667v-4h-5.333v1.333z"></path>
</svg>
