<svg xmlns="http://www.w3.org/2000/svg" width="24" height="24"><path fill="none" d="M11.999 6.001c-3.307 0-5.998 2.691-5.998 5.999s2.691 5.999 5.998 5.999c3.309 0 6-2.691 6-5.999s-2.691-5.999-6-5.999zM16 13h-5V8h2v3h3v2z"/><path d="M13 8h-2v5h5v-2h-3z"/><path d="M16 5.084V3a1 1 0 0 0-1-1H9a1 1 0 0 0-1 1v2.083C5.613 6.469 4.001 9.047 4.001 12a8.003 8.003 0 0 0 4.136 7H8v2.041a1 1 0 0 0 1 1h6a1 1 0 0 0 1-1V19h-.138a8.002 8.002 0 0 0 4.137-7c0-2.953-1.612-5.53-3.999-6.916zm-4.001 12.915c-3.307 0-5.998-2.691-5.998-5.999s2.691-5.999 5.998-5.999c3.309 0 6 2.691 6 5.999s-2.691 5.999-6 5.999z"/></svg>