<!-- Generated by IcoMoon.io -->
<svg version="1.1" xmlns="http://www.w3.org/2000/svg" width="16" height="16" viewBox="0 0 16 16">
<title>bxs-cube</title>
<path d="M7.729 1.391l-5.353 2.384 5.625 2.813 5.625-2.813-5.353-2.384c-0.080-0.036-0.173-0.057-0.272-0.057s-0.192 0.021-0.276 0.059l0.004-0.002zM14.654 11.333v-6.582l-5.987 2.994v6.764l5.599-2.57c0.231-0.108 0.389-0.338 0.389-0.606 0-0 0-0 0-0.001v0zM1.346 11.327c0 0.267 0.157 0.497 0.384 0.604l0.004 0.002 5.599 2.577v-6.764l-5.987-2.994v6.576z"></path>
</svg>
