<!-- Generated by IcoMoon.io -->
<svg version="1.1" xmlns="http://www.w3.org/2000/svg" width="16" height="16" viewBox="0 0 16 16">
<title>bxs-diamond</title>
<path d="M8 1.333l-1.673 4.667h3.347l-1.667-4.667zM9.845 7.333h-3.689l1.845 7.333zM1.684 7.333l4.484 5.481-1.387-5.481zM4.791 1.613l-3.135 4.387h3.255l1.667-4.667h-1.245c-0 0-0 0-0 0-0.223 0-0.42 0.109-0.54 0.277l-0.001 0.002zM11.219 7.333l-1.387 5.481 4.484-5.481zM11.209 1.613c-0.122-0.17-0.319-0.279-0.542-0.279-0 0-0 0-0 0h-1.245l1.667 4.667h3.255l-3.135-4.387z"></path>
</svg>
