<!-- Generated by IcoMoon.io -->
<svg version="1.1" xmlns="http://www.w3.org/2000/svg" width="16" height="16" viewBox="0 0 16 16">
<title>bxs-help-circle</title>
<path d="M8 1.333c-3.676 0-6.667 2.991-6.667 6.667s2.991 6.667 6.667 6.667 6.667-2.991 6.667-6.667-2.991-6.667-6.667-6.667zM8.667 12h-1.333v-1.333h1.333v1.333zM9.317 8.743c-0.131 0.105-0.257 0.206-0.357 0.306-0.272 0.271-0.293 0.518-0.294 0.529v0.089h-1.333v-0.111c0-0.079 0.019-0.785 0.684-1.449 0.13-0.13 0.291-0.262 0.461-0.399 0.489-0.397 0.811-0.686 0.811-1.085 0.001-0.711-0.578-1.289-1.289-1.289s-1.289 0.578-1.289 1.289h-1.333c0-1.446 1.177-2.623 2.623-2.623s2.623 1.177 2.623 2.623c0 1.065-0.786 1.7-1.305 2.121z"></path>
</svg>
