<!-- Generated by IcoMoon.io -->
<svg version="1.1" xmlns="http://www.w3.org/2000/svg" width="16" height="16" viewBox="0 0 16 16">
<title>bxs-news</title>
<path d="M13.333 4v7.333c0 0.368-0.298 0.667-0.667 0.667s-0.667-0.298-0.667-0.667v0-8.115c0-0.328-0.266-0.595-0.595-0.595v0h-9.52c-0.328 0-0.595 0.266-0.595 0.595v0 9.52c0.001 0.329 0.267 0.595 0.595 0.595h10.781c1.103 0 2-0.897 2-2v-7.333h-1.333zM5.958 11.291h-2.667v-1.333h2.667v1.333zM5.958 8.625h-2.667v-1.333h2.667v1.333zM9.958 11.291h-2.667v-1.333h2.667v1.333zM9.958 8.625h-2.667v-1.333h2.667v1.333zM9.958 5.958h-6.667v-1.333h6.667v1.333z"></path>
</svg>
