<!-- Generated by IcoMoon.io -->
<svg version="1.1" xmlns="http://www.w3.org/2000/svg" width="16" height="16" viewBox="0 0 16 16">
<title>bxs-printer</title>
<path d="M14 4.667h-2v-2.667c0-0.368-0.298-0.667-0.667-0.667v0h-6.667c-0.368 0-0.667 0.298-0.667 0.667v0 2.667h-2c-0.368 0-0.667 0.298-0.667 0.667v0 6c0 0.368 0.298 0.667 0.667 0.667v0h2v2c0 0.368 0.298 0.667 0.667 0.667v0h6.667c0.368 0 0.667-0.298 0.667-0.667v0-2h2c0.368 0 0.667-0.298 0.667-0.667v0-6c0-0.368-0.298-0.667-0.667-0.667v0zM9.333 8v-1.333h1.333v1.333h-1.333zM5.333 2.667h5.333v2h-5.333v-2zM10.667 13.333h-5.333v-3.333h5.333v3.333zM12.667 8h-1.333v-1.333h1.333v1.333z"></path>
</svg>
