<!-- Generated by IcoMoon.io -->
<svg version="1.1" xmlns="http://www.w3.org/2000/svg" width="16" height="16" viewBox="0 0 16 16">
<title>bxs-camera-off</title>
<path d="M8 11.333c-1.807 0-3.333-1.527-3.333-3.333 0-0.181 0.026-0.357 0.055-0.531l-3.389-3.389v8.586c0 0.368 0.298 0.667 0.667 0.667v0h8.586l-2.055-2.055c-0.158 0.031-0.34 0.051-0.527 0.055l-0.003 0zM14.667 12.667v-8.667c0-0.368-0.298-0.667-0.667-0.667v0h-2.391l-2-2h-3.219l-2 2h-0.115l-1.805-1.805-0.943 0.943 12 12 0.943-0.943-0.241-0.241c0.256-0.095 0.436-0.337 0.437-0.621v-0zM10.765 9.823l-0.97-0.97c0.343-0.741 0.22-1.666-0.381-2.267s-1.525-0.724-2.267-0.381l-0.97-0.97c0.51-0.353 1.141-0.565 1.822-0.568h0.001c1.807 0 3.333 1.527 3.333 3.333-0.003 0.681-0.215 1.313-0.575 1.834l0.007-0.011z"></path>
</svg>
