<svg xmlns="http://www.w3.org/2000/svg" width="24" height="24" viewBox="0 0 24 24"><path d="M2.293 3.707l3.319 3.319c-2.614 1.952-3.547 4.615-3.561 4.657-.069.205-.069.428 0 .633C2.073 12.383 4.367 19 12 19c1.835 0 3.355-.389 4.615-.971l3.678 3.678 1.414-1.414-18-18L2.293 3.707zM12 15c-1.657 0-3-1.343-3-3 0-.462.118-.891.305-1.281l3.977 3.977C12.891 14.882 12.462 15 12 15zM21.948 11.684C21.927 11.617 19.633 5 12 5c-.886 0-1.692.097-2.439.254l1.776 1.776 1.005 1.005 3.623 3.623 2.542 2.542 1.396 1.396c1.471-1.633 2.035-3.247 2.046-3.279C22.018 12.111 22.018 11.889 21.948 11.684z"/></svg>