<!-- Generated by IcoMoon.io -->
<svg version="1.1" xmlns="http://www.w3.org/2000/svg" width="16" height="16" viewBox="0 0 16 16">
<title>bxs-smiley-sad</title>
<path d="M8 1.333c-3.676 0-6.667 2.991-6.667 6.667s2.991 6.667 6.667 6.667 6.667-2.991 6.667-6.667-2.991-6.667-6.667-6.667zM5.667 5.333c0.552 0 1 0.597 1 1.333s-0.448 1.333-1 1.333-1-0.597-1-1.333 0.448-1.333 1-1.333zM10.133 11.733c-0.509-0.678-1.287-1.067-2.133-1.067s-1.625 0.389-2.133 1.067l-1.067-0.801c0.732-0.976 1.885-1.6 3.185-1.6 0.005 0 0.011 0 0.016 0h-0.001c1.269 0 2.436 0.583 3.2 1.599l-1.067 0.801zM10.333 8c-0.552 0-1-0.597-1-1.333s0.448-1.333 1-1.333 1 0.597 1 1.333-0.448 1.333-1 1.333z"></path>
</svg>
