<!-- Generated by IcoMoon.io -->
<svg version="1.1" xmlns="http://www.w3.org/2000/svg" width="16" height="16" viewBox="0 0 16 16">
<title>bxs-dislike</title>
<path d="M14 2h-1.333v8.667h1.333c0.368 0 0.667-0.298 0.667-0.667v0-7.333c0-0.368-0.298-0.667-0.667-0.667v0zM2 10.667h5.333l-1.041 3.123c-0.021 0.063-0.034 0.135-0.034 0.21 0 0.368 0.298 0.667 0.667 0.667h1.075l3.333-3.625v-9.041h-7.333l-2.625 5.766c-0.027 0.069-0.042 0.149-0.042 0.233 0 0 0 0.001 0 0.001v-0 2c0 0.368 0.298 0.667 0.667 0.667v0z"></path>
</svg>
