<svg xmlns="http://www.w3.org/2000/svg" width="24" height="24" viewBox="0 0 24 24"><path d="M14.5,19h-5c0,1.387,1.113,2.5,2.5,2.5S14.5,20.387,14.5,19z"/><path d="M2.293 3.707l2.629 2.629C4.342 7.443 4 8.687 4 10v3.838l-.948 2.846c-.103.305-.051.641.137.901C3.377 17.846 3.679 18 4 18h12.586l3.707 3.707 1.414-1.414-18-18L2.293 3.707zM13.094 2.085l-1.013-.082c-.054-.004-.107-.004-.161 0L10.857 2.09C9.805 2.241 8.825 2.604 7.951 3.123l1.479 1.479L18 13.172l2.667 2.667L20 13.838V10C20 6.06 17.058 2.66 13.094 2.085z"/></svg>