<!-- Generated by IcoMoon.io -->
<svg version="1.1" xmlns="http://www.w3.org/2000/svg" width="16" height="16" viewBox="0 0 16 16">
<title>bxs-building</title>
<path d="M12 1.333h-8c-0.368 0-0.667 0.298-0.667 0.667v0 12c0 0.368 0.298 0.667 0.667 0.667v0h2.667v-2.667h2.667v2.667h2.667c0.368 0 0.667-0.298 0.667-0.667v0-12c0-0.368-0.298-0.667-0.667-0.667v0zM7.333 10.667h-2v-1.333h2v1.333zM7.333 8h-2v-1.333h2v1.333zM7.333 5.333h-2v-1.333h2v1.333zM10.667 10.667h-2v-1.333h2v1.333zM10.667 8h-2v-1.333h2v1.333zM10.667 5.333h-2v-1.333h2v1.333z"></path>
</svg>
