<svg xmlns="http://www.w3.org/2000/svg" width="24" height="24"><ellipse fill="none" cx="15.5" cy="12" rx="1.5" ry="2"/><path fill="none" d="M8 16v2c.001 0 6.997-.003 7.998 0l.004-2C15.001 15.998 8 16 8 16z"/><ellipse fill="none" cx="8.5" cy="12" rx="1.5" ry="2"/><path d="M21 7a1 1 0 0 0-1-1h-7V4.688c.305-.274.5-.668.5-1.11a1.5 1.5 0 0 0-3 0c0 .442.195.836.5 1.11V6H4a1 1 0 0 0-1 1v4H2v4h1v6a1 1 0 0 0 1 1h16a1 1 0 0 0 1-1v-6h1v-4h-1V7zM7 12c0-1.104.672-2 1.5-2s1.5.896 1.5 2-.672 2-1.5 2S7 13.104 7 12zm8.998 6c-1.001-.003-7.997 0-7.998 0v-2s7.001-.002 8.002 0l-.004 2zm-.498-4c-.828 0-1.5-.896-1.5-2s.672-2 1.5-2 1.5.896 1.5 2-.672 2-1.5 2z"/></svg>