<!-- Generated by IcoMoon.io -->
<svg version="1.1" xmlns="http://www.w3.org/2000/svg" width="16" height="16" viewBox="0 0 16 16">
<title>bxs-rocket</title>
<path d="M14.097 1.881s-4.085-1.021-6.127 1.021c-1.527 1.527-2.544 2.578-2.544 2.578s-2.562-0.535-4.094 0.997l8.17 8.17c1.532-1.532 1.021-4.085 1.021-4.085s1.903-1.903 2.554-2.553c2.042-2.043 1.021-6.128 1.021-6.128zM11.407 6.458c-0.243 0.251-0.583 0.407-0.959 0.407-0.736 0-1.333-0.597-1.333-1.333 0-0.376 0.156-0.716 0.407-0.959l0-0c0.24-0.232 0.566-0.374 0.926-0.374 0.736 0 1.333 0.597 1.333 1.333 0 0.36-0.143 0.687-0.375 0.927l0-0zM1.979 13.979s2 0 3.333-1.333l-2-2c-1.333 0.667-1.333 3.333-1.333 3.333z"></path>
</svg>
