<!-- Generated by IcoMoon.io -->
<svg version="1.1" xmlns="http://www.w3.org/2000/svg" width="16" height="16" viewBox="0 0 16 16">
<title>bxs-like</title>
<path d="M2 14h1.333v-8.667h-1.333c-0.368 0-0.667 0.298-0.667 0.667v0 7.333c0 0.368 0.298 0.667 0.667 0.667v0zM14 5.333h-5.333l1.041-3.123c0.021-0.063 0.034-0.135 0.034-0.21 0-0.368-0.298-0.667-0.667-0.667h-1.075l-3.333 3.625v9.041h7.333l2.625-5.766c0.027-0.069 0.042-0.149 0.042-0.233 0-0 0-0.001 0-0.001v0-2c0-0.368-0.298-0.667-0.667-0.667v0z"></path>
</svg>
