<!-- Generated by IcoMoon.io -->
<svg version="1.1" xmlns="http://www.w3.org/2000/svg" width="16" height="16" viewBox="0 0 16 16">
<title>bxs-copyright</title>
<path d="M8 14.667c3.614 0 6.667-3.053 6.667-6.667s-3.053-6.667-6.667-6.667-6.667 3.053-6.667 6.667 3.053 6.667 6.667 6.667zM8 4.667c0.601 0 1.721 0.112 2.471 0.862l-0.943 0.943c-0.295-0.295-0.867-0.471-1.529-0.471-1.084 0-2 0.916-2 2s0.916 2 2 2c0.661 0 1.233-0.177 1.529-0.472l0.943 0.944c-0.751 0.749-1.871 0.861-2.471 0.861-1.838 0-3.333-1.495-3.333-3.333s1.495-3.333 3.333-3.333z"></path>
</svg>
