<!-- Generated by IcoMoon.io -->
<svg version="1.1" xmlns="http://www.w3.org/2000/svg" width="16" height="16" viewBox="0 0 16 16">
<title>bxs-image</title>
<path d="M13.999 2.667h-11.865c-0.389-0.080-0.801 0.239-0.801 0.653v9.347c0 0.368 0.298 0.667 0.667 0.667v0h12c0.368 0 0.667-0.298 0.667-0.667v0-9.333c0-0.368-0.298-0.667-0.667-0.667v0zM4.333 4.667c0.552 0 1 0.448 1 1s-0.448 1-1 1v0c-0.552 0-1-0.448-1-1s0.448-1 1-1v0zM7.999 11.333h-4.667l2.333-3.111 1.167 1.555 2.333-3.111 3.5 4.667h-4.667z"></path>
</svg>
