<svg xmlns="http://www.w3.org/2000/svg" width="24" height="24" viewBox="0 0 24 24"><path d="M8.267 15.621c-.184 0-.308.018-.372.036v1.178c.076.018.171.023.302.023.479 0 .774-.242.774-.651C8.971 15.84 8.717 15.621 8.267 15.621zM11.754 15.633c-.2 0-.33.018-.407.036v2.61c.077.017.201.017.313.017.817.006 1.349-.444 1.349-1.396C13.015 16.071 12.53 15.633 11.754 15.633z"/><path d="M14,2H6C4.896,2,4,2.896,4,4v16c0,1.104,0.896,2,2,2h12c1.104,0,2-0.896,2-2V8L14,2z M9.498,17.13 c-0.309,0.29-0.765,0.42-1.296,0.42c-0.119,0-0.226-0.005-0.308-0.018v1.426H7v-3.936c0.278-0.047,0.669-0.083,1.219-0.083 c0.557,0,0.953,0.106,1.22,0.32c0.254,0.201,0.426,0.533,0.426,0.923S9.734,16.905,9.498,17.13z M13.305,18.485 C12.885,18.834,12.246,19,11.465,19c-0.468,0-0.799-0.029-1.024-0.059v-3.918c0.332-0.053,0.764-0.083,1.22-0.083 c0.757,0,1.249,0.137,1.633,0.426c0.415,0.308,0.675,0.799,0.675,1.503C13.968,17.633,13.689,18.16,13.305,18.485z M17,15.709 h-1.532v0.912h1.432v0.734h-1.432v1.604h-0.906V14.97H17V15.709z M14,9c-0.553,0-1,0-1,0V4l5,5H14z"/></svg>