<!-- Generated by IcoMoon.io -->
<svg version="1.1" xmlns="http://www.w3.org/2000/svg" width="16" height="16" viewBox="0 0 16 16">
<title>bxs-volume-full</title>
<path d="M10.667 14c2.351-1.031 3.999-3.273 3.999-6s-1.648-4.969-3.999-6v1.333c1.591 0.924 2.666 2.698 2.666 4.667s-1.075 3.743-2.666 4.667v1.333z"></path>
<path d="M10.667 4.667v6.667c0.817-0.733 1.333-2.153 1.333-3.333s-0.517-2.6-1.333-3.333zM2 11.333h2.465l4.869 3.245v-13.157l-4.869 3.245h-2.465c-0.368 0-0.667 0.298-0.667 0.667v0 5.333c0 0.368 0.298 0.667 0.667 0.667v0z"></path>
</svg>
