<!-- Generated by IcoMoon.io -->
<svg version="1.1" xmlns="http://www.w3.org/2000/svg" width="16" height="16" viewBox="0 0 16 16">
<title>bxs-quote-right</title>
<path d="M14.667 8.667v-5.333c0-0.368-0.298-0.667-0.667-0.667v0h-4.667c-0.368 0-0.667 0.298-0.667 0.667v0 5.333c0 0.368 0.298 0.667 0.667 0.667v0h2.052c-0.015 0.346-0.12 0.666-0.291 0.939l0.005-0.008c-0.339 0.534-0.977 0.899-1.897 1.083l-0.535 0.107v1.88h0.667c1.855 0 3.271-0.514 4.206-1.528 1.258-1.365 1.131-3.119 1.127-3.139zM7.329 6.667v-3.333c0-0.368-0.298-0.667-0.667-0.667v0h-4.667c-0.368 0-0.667 0.298-0.667 0.667v0 5.333c0 0.368 0.298 0.667 0.667 0.667v0h2.052c-0.015 0.346-0.12 0.666-0.291 0.939l0.005-0.008c-0.339 0.534-0.977 0.899-1.897 1.083l-0.535 0.107v1.88h0.667c1.855 0 3.271-0.514 4.206-1.528 1.259-1.365 1.131-3.119 1.127-3.139v-2z"></path>
</svg>
