<!-- Generated by IcoMoon.io -->
<svg version="1.1" xmlns="http://www.w3.org/2000/svg" width="16" height="16" viewBox="0 0 16 16">
<title>bxs-bug</title>
<path d="M12.195 1.529l-1.897 1.897c-0.138-0.101-0.295-0.201-0.459-0.291l-0.023-0.011c-0.526-0.287-1.152-0.455-1.817-0.455s-1.291 0.169-1.837 0.465l0.020-0.010c-0.167 0.088-0.325 0.191-0.481 0.302l-1.897-1.897-0.943 0.943 1.875 1.875c-0.079 0.101-0.14 0.215-0.213 0.321h6.951c-0.072-0.105-0.134-0.221-0.212-0.321l1.875-1.875-0.943-0.943zM3.837 6h-2.504v1.333h1.538c-0.043 0.33-0.071 0.665-0.071 1 0 0.338 0.028 0.675 0.071 1.007h-1.538v1.333h1.835c0.009 0.026 0.014 0.053 0.023 0.079 0.125 0.37 0.281 0.729 0.463 1.067 0.029 0.054 0.063 0.103 0.094 0.156l-1.553 1.553 0.943 0.943 1.407-1.407c0.387 0.431 0.843 0.792 1.352 1.066l0.026 0.013c0.319 0.169 0.655 0.299 0.997 0.387 0.136 0.035 0.274 0.057 0.412 0.079v-3.942h1.333v3.943c0.164-0.023 0.304-0.050 0.441-0.085l-0.029 0.006c0.38-0.099 0.711-0.231 1.021-0.399l-0.024 0.012c0.31-0.164 0.609-0.367 0.889-0.603 0.172-0.145 0.333-0.308 0.489-0.477l1.407 1.407 0.943-0.943-1.553-1.553c0.031-0.053 0.065-0.103 0.095-0.157 0.182-0.337 0.338-0.695 0.463-1.066 0.009-0.026 0.014-0.053 0.023-0.079h1.837v-1.333h-1.539c0.043-0.333 0.071-0.669 0.071-1.007 0-0.335-0.028-0.67-0.071-1h1.538v-1.333h-10.829z"></path>
</svg>
