<!-- Generated by IcoMoon.io -->
<svg version="1.1" xmlns="http://www.w3.org/2000/svg" width="16" height="16" viewBox="0 0 16 16">
<title>bxs-select-multiple</title>
<path d="M2 14.667h8.667v-1.333h-8v-8h-1.333v8.667c0 0.368 0.298 0.667 0.667 0.667v0z"></path>
<path d="M14 1.333h-9.333c-0.368 0-0.667 0.298-0.667 0.667v0 9.333c0 0.368 0.298 0.667 0.667 0.667v0h9.333c0.368 0 0.667-0.298 0.667-0.667v0-9.333c0-0.368-0.298-0.667-0.667-0.667v0zM8.711 9.654l-2.183-2.183 0.943-0.943 1.151 1.151 2.866-3.439 1.025 0.854-3.801 4.56z"></path>
</svg>
