<!-- Generated by IcoMoon.io -->
<svg version="1.1" xmlns="http://www.w3.org/2000/svg" width="16" height="16" viewBox="0 0 16 16">
<title>bxs-share-alt</title>
<path d="M11.333 10c-0.529 0-1.008 0.21-1.366 0.547l-3.994-2.282c0.012-0.087 0.027-0.174 0.027-0.265s-0.015-0.177-0.027-0.265l3.994-2.282c0.358 0.337 0.837 0.547 1.366 0.547 1.103 0 2-0.897 2-2s-0.897-2-2-2-2 0.897-2 2c0 0.091 0.015 0.177 0.027 0.265l-3.994 2.282c-0.355-0.338-0.836-0.546-1.366-0.547h-0c-1.103 0-2 0.897-2 2s0.897 2 2 2c0.529 0 1.008-0.21 1.366-0.547l3.994 2.283c-0.012 0.087-0.027 0.173-0.027 0.264 0 1.103 0.897 2 2 2s2-0.897 2-2-0.897-2-2-2z"></path>
</svg>
