<svg xmlns="http://www.w3.org/2000/svg" width="24" height="24" viewBox="0 0 24 24"><path d="M8.014 12.135l-3.83-3.83c-1.538 1.667-2.121 3.346-2.132 3.379-.069.205-.069.428 0 .633C2.073 12.383 4.367 19 12 19c.946 0 1.81-.103 2.598-.281l-2.732-2.732C9.766 15.915 8.085 14.234 8.014 12.135zM21.948 12.316c.069-.205.069-.428 0-.633C21.927 11.617 19.633 5 12 5c-1.837 0-3.346.396-4.604.981L3.707 2.293 2.293 3.707l18 18 1.414-1.414-3.319-3.319C21.002 15.022 21.935 12.358 21.948 12.316zM13.925 12.511c.177-.666.012-1.402-.511-1.925s-1.259-.688-1.925-.511L9.98 8.566C10.574 8.215 11.259 8 12 8c2.21 0 4 1.79 4 4 0 .741-.215 1.426-.566 2.02L13.925 12.511z"/></svg>