<!-- Generated by IcoMoon.io -->
<svg version="1.1" xmlns="http://www.w3.org/2000/svg" width="16" height="16" viewBox="0 0 16 16">
<title>bxs-cog</title>
<path d="M1.496 9.675c-0.045 0.171-0.021 0.353 0.067 0.506l1.333 2.307c0.184 0.318 0.593 0.427 0.911 0.244l0.931-0.537c0.387 0.305 0.814 0.555 1.263 0.741v1.065c0 0.368 0.298 0.667 0.667 0.667v0h2.667c0.368 0 0.667-0.298 0.667-0.667v0-1.065c0.483-0.203 0.899-0.452 1.275-0.75l-0.011 0.009 0.931 0.537c0.095 0.056 0.21 0.089 0.333 0.089 0.245 0 0.46-0.132 0.576-0.329l0.002-0.003 1.333-2.307c0.088-0.153 0.112-0.335 0.067-0.506s-0.157-0.317-0.311-0.405l-0.914-0.528c0.034-0.221 0.053-0.477 0.053-0.737 0-0.263-0.020-0.522-0.058-0.774l0.004 0.028 0.914-0.528c0.2-0.118 0.333-0.332 0.333-0.578 0-0.122-0.033-0.237-0.091-0.336l0.002 0.003-1.333-2.307c-0.118-0.201-0.332-0.333-0.578-0.333-0.123 0-0.238 0.033-0.336 0.091l0.003-0.002-0.931 0.537c-0.364-0.29-0.78-0.538-1.228-0.728l-0.035-0.013v-1.065c0-0.368-0.298-0.667-0.667-0.667v0h-2.667c-0.368 0-0.667 0.298-0.667 0.667v0 1.065c-0.483 0.203-0.899 0.452-1.275 0.75l0.011-0.009-0.93-0.537c-0.096-0.056-0.211-0.089-0.333-0.089-0.245 0-0.46 0.133-0.576 0.33l-0.002 0.003-1.333 2.307c-0.088 0.153-0.112 0.335-0.067 0.506s0.157 0.316 0.311 0.405l0.914 0.528c-0.034 0.223-0.054 0.48-0.054 0.741s0.020 0.519 0.057 0.77l-0.003-0.028-0.914 0.528c-0.151 0.089-0.263 0.231-0.31 0.401l-0.001 0.005zM8 5.333c1.471 0 2.667 1.196 2.667 2.667s-1.196 2.667-2.667 2.667-2.667-1.196-2.667-2.667 1.196-2.667 2.667-2.667z"></path>
</svg>
