<!-- Generated by IcoMoon.io -->
<svg version="1.1" xmlns="http://www.w3.org/2000/svg" width="16" height="16" viewBox="0 0 16 16">
<title>bxs-playlist</title>
<path d="M12 3.333v5.555c-0.291-0.144-0.633-0.229-0.995-0.231h-0.001c-1.289 0-2.338 1.049-2.338 2.338s1.049 2.337 2.338 2.337 2.338-1.049 2.338-2.338c0-0.118-0.018-0.231-0.035-0.345h0.026v-6.651h1.333v-1.333h-2c-0.368 0-0.667 0.298-0.667 0.667v0zM1.333 3.333h9.333v1.333h-9.333z"></path>
<path d="M1.333 6h9.333v1.333h-9.333zM1.333 8.667h6v1.333h-6zM1.333 11.333h6v1.333h-6z"></path>
</svg>
