<!-- Generated by IcoMoon.io -->
<svg version="1.1" xmlns="http://www.w3.org/2000/svg" width="16" height="16" viewBox="0 0 16 16">
<title>bxs-calculator</title>
<path d="M3.333 14.667h9.333c0.368 0 0.667-0.298 0.667-0.667v0-12c0-0.368-0.298-0.667-0.667-0.667v0h-9.333c-0.368 0-0.667 0.298-0.667 0.667v0 12c0 0.368 0.298 0.667 0.667 0.667v0zM6 12.667h-1.333v-1.333h1.333v1.333zM6 10h-1.333v-1.333h1.333v1.333zM6 7.333h-1.333v-1.333h1.333v1.333zM8.667 12.667h-1.333v-1.333h1.333v1.333zM8.667 10h-1.333v-1.333h1.333v1.333zM8.667 7.333h-1.333v-1.333h1.333v1.333zM11.333 12.667h-1.333v-4h1.333v4zM11.333 7.333h-1.333v-1.333h1.333v1.333zM4 2.667h8v2h-8v-2z"></path>
</svg>
