<!-- Generated by IcoMoon.io -->
<svg version="1.1" xmlns="http://www.w3.org/2000/svg" width="16" height="16" viewBox="0 0 16 16">
<title>bxs-joystick-alt</title>
<path d="M10.667 4h-5.333c-2.209 0-4 1.791-4 4s1.791 4 4 4h5.333c2.209 0 4-1.791 4-4s-1.791-4-4-4zM7.333 8.667h-1.333v1.333h-1.333v-1.333h-1.333v-1.333h1.333v-1.333h1.333v1.333h1.333v1.333zM10.667 9.333c-0.369 0-0.667-0.299-0.667-0.667s0.298-0.667 0.667-0.667 0.667 0.299 0.667 0.667-0.298 0.667-0.667 0.667zM12 8c-0.369 0-0.667-0.299-0.667-0.667s0.298-0.667 0.667-0.667 0.667 0.299 0.667 0.667-0.298 0.667-0.667 0.667z"></path>
</svg>
