<!-- Generated by IcoMoon.io -->
<svg version="1.1" xmlns="http://www.w3.org/2000/svg" width="16" height="16" viewBox="0 0 16 16">
<title>bxs-pen</title>
<path d="M9.057 3.333l-1.333 1.333h-3.057c-0.281 0-0.531 0.175-0.626 0.439l-2.667 7.333c-0.089 0.243-0.028 0.516 0.155 0.699l0.195 0.195 4.281-4.281c-0.001-0.017-0.005-0.035-0.005-0.052 0-0.552 0.448-1 1-1s1 0.448 1 1-0.448 1-1 1c-0.017 0-0.035-0.005-0.052-0.005l-4.281 4.281 0.195 0.195c0.127 0.127 0.297 0.195 0.471 0.195 0.076 0 0.153-0.013 0.228-0.041l7.333-2.667c0.264-0.096 0.439-0.346 0.439-0.626v-3.057l1.333-1.333-3.609-3.609z"></path>
<path d="M11.373 1.293l3.333 3.333-1.414 1.414-3.333-3.333 1.414-1.414z"></path>
</svg>
