<!-- Generated by IcoMoon.io -->
<svg version="1.1" xmlns="http://www.w3.org/2000/svg" width="16" height="16" viewBox="0 0 16 16">
<title>bxs-toggle</title>
<path d="M11.667 1.333h-7.333c-1.665 0-3.020 1.341-3.020 2.989 0 0.058 0.009 0.115 0.024 0.17 0.089 1.586 1.396 2.838 2.996 2.841h7.334c1.654 0 3-1.346 3-3.011 0-1.648-1.346-2.989-3-2.989zM11.667 6c-0.903 0-1.667-0.763-1.667-1.667s0.763-1.667 1.667-1.667 1.667 0.763 1.667 1.667-0.763 1.667-1.667 1.667zM11.667 8.667h-7.333c-1.665 0-3.020 1.341-3.020 2.989 0 0.058 0.009 0.115 0.024 0.17 0.089 1.586 1.396 2.838 2.996 2.841h7.334c1.654 0 3-1.346 3-3.011 0-1.648-1.346-2.989-3-2.989zM4.333 13.333c-0.903 0-1.667-0.763-1.667-1.667s0.763-1.667 1.667-1.667 1.667 0.763 1.667 1.667-0.763 1.667-1.667 1.667z"></path>
</svg>
