<!-- Generated by IcoMoon.io -->
<svg version="1.1" xmlns="http://www.w3.org/2000/svg" width="16" height="16" viewBox="0 0 16 16">
<title>bxs-layer</title>
<path d="M14.391 5.793l-6-4.333c-0.108-0.079-0.244-0.126-0.391-0.126s-0.282 0.047-0.393 0.127l0.002-0.001-6 4.333c-0.168 0.123-0.276 0.319-0.276 0.541s0.108 0.418 0.274 0.539l0.002 0.001 6 4.333c0.108 0.079 0.244 0.126 0.391 0.126s0.282-0.047 0.393-0.127l-0.002 0.001 6-4.333c0.168-0.123 0.276-0.319 0.276-0.541s-0.108-0.418-0.274-0.539l-0.002-0.001z"></path>
<path d="M8 14.667c0 0 0.001 0 0.001 0 0.147 0 0.283-0.048 0.393-0.129l-0.002 0.001 6.025-4.381-1.133-0.825-5.283 3.843-5.283-3.843-1.133 0.824 6.025 4.381c0.108 0.080 0.244 0.128 0.39 0.128 0.001 0 0.001 0 0.002 0h-0z"></path>
</svg>
