<svg xmlns="http://www.w3.org/2000/svg" width="24" height="24" viewBox="0 0 24 24"><path fill="none" d="M18 14L20 12 18 10zM6 14L6 10 4 12zM12 20L14 18 10 18zM10 6L14 6 12 4z"/><circle fill="none" cx="12" cy="12" r="2"/><path d="M20,8h-4V4c0-1.104-0.896-2-2-2h-4C8.896,2,8,2.896,8,4v4H4c-1.104,0-2,0.896-2,2v4c0,1.104,0.896,2,2,2h4v4 c0,1.104,0.896,2,2,2h4c1.104,0,2-0.896,2-2v-4h4c1.104,0,2-0.896,2-2v-4C22,8.896,21.104,8,20,8z M6,14l-2-2l2-2V14z M12,20l-2-2 h4L12,20z M12,14c-1.104,0-2-0.896-2-2s0.896-2,2-2s2,0.896,2,2S13.104,14,12,14z M10,6l2-2l2,2H10z M18,14v-4l2,2L18,14z"/></svg>