<svg xmlns="http://www.w3.org/2000/svg" width="24" height="24" viewBox="0 0 24 24"><path d="M4.293,14.707L5,15.414V17v1c0,0.553,0.447,1,1,1h2h0.586l0.707,0.707l2,2C11.488,21.902,11.744,22,12,22 s0.512-0.098,0.707-0.293l2-2L15.414,19H17h1c0.553,0,1-0.447,1-1v-1v-1.586l0.707-0.707l2-2c0.391-0.391,0.391-1.023,0-1.414l-2-2 L19,8.586V7V6c0-0.553-0.447-1-1-1h-2h-0.586l-0.707-0.707l-2-2c-0.391-0.391-1.023-0.391-1.414,0l-2,2L8.586,5H7H6 C5.447,5,5,5.447,5,6v1v1.586L4.293,9.293l-2,2c-0.391,0.391-0.391,1.023,0,1.414L4.293,14.707z M12,8c2.209,0,4,1.791,4,4 s-1.791,4-4,4s-4-1.791-4-4S9.791,8,12,8z"/></svg>