<!-- Generated by IcoMoon.io -->
<svg version="1.1" xmlns="http://www.w3.org/2000/svg" width="16" height="16" viewBox="0 0 16 16">
<title>bxs-categories</title>
<path d="M6.667 2h-4c-0.368 0-0.667 0.298-0.667 0.667v5.333c0 0.369 0.299 0.667 0.667 0.667h4c0.368 0 0.667-0.298 0.667-0.667v-5.333c0-0.369-0.299-0.667-0.667-0.667z"></path>
<path d="M6.667 10h-4c-0.368 0-0.667 0.298-0.667 0.667v2.667c0 0.369 0.299 0.667 0.667 0.667h4c0.368 0 0.667-0.298 0.667-0.667v-2.667c0-0.369-0.299-0.667-0.667-0.667z"></path>
<path d="M13.333 8h-4c-0.369 0-0.667 0.298-0.667 0.667v4.667c0 0.369 0.298 0.667 0.667 0.667h4c0.369 0 0.667-0.298 0.667-0.667v-4.667c0-0.369-0.298-0.667-0.667-0.667z"></path>
<path d="M13.333 2h-4c-0.369 0-0.667 0.298-0.667 0.667v3.333c0 0.369 0.298 0.667 0.667 0.667h4c0.369 0 0.667-0.298 0.667-0.667v-3.333c0-0.369-0.298-0.667-0.667-0.667z"></path>
</svg>
