<!-- Generated by IcoMoon.io -->
<svg version="1.1" xmlns="http://www.w3.org/2000/svg" width="16" height="16" viewBox="0 0 16 16">
<title>bxs-server</title>
<path d="M14 2h-12c-0.368 0-0.667 0.298-0.667 0.667v0 4c0 0.368 0.298 0.667 0.667 0.667v0h12c0.368 0 0.667-0.298 0.667-0.667v0-4c0-0.368-0.298-0.667-0.667-0.667v0zM10 5.333h-1.333v-1.333h1.333v1.333zM12.667 5.333h-1.333v-1.333h1.333v1.333zM14 8.667h-12c-0.368 0-0.667 0.298-0.667 0.667v0 4c0 0.368 0.298 0.667 0.667 0.667v0h12c0.368 0 0.667-0.298 0.667-0.667v0-4c0-0.368-0.298-0.667-0.667-0.667v0zM10 12h-1.333v-1.333h1.333v1.333zM12.667 12h-1.333v-1.333h1.333v1.333z"></path>
</svg>
