<!-- Generated by IcoMoon.io -->
<svg version="1.1" xmlns="http://www.w3.org/2000/svg" width="16" height="16" viewBox="0 0 16 16">
<title>bxs-paste</title>
<path d="M14 7.333h-6c-0.368 0-0.667 0.298-0.667 0.667v0 6c0 0.368 0.298 0.667 0.667 0.667v0h6c0.368 0 0.667-0.298 0.667-0.667v0-6c0-0.368-0.298-0.667-0.667-0.667v0z"></path>
<path d="M13.333 3.333c0-0.368-0.298-0.667-0.667-0.667v0h-2v-0.667c0-0.368-0.298-0.667-0.667-0.667v0h-4c-0.368 0-0.667 0.298-0.667 0.667v0 0.667h-2c-0.368 0-0.667 0.298-0.667 0.667v0 9.333c0 0.368 0.298 0.667 0.667 0.667v0h2.667v-6.667c0-0.667 0.667-0.667 0.667-0.667h6.667v-2.667zM9.333 4h-2.667v-1.333h2.667v1.333z"></path>
</svg>
