<!-- Generated by IcoMoon.io -->
<svg version="1.1" xmlns="http://www.w3.org/2000/svg" width="16" height="16" viewBox="0 0 16 16">
<title>bxs-bolt</title>
<path d="M9.175 1.569c-0.123-0.145-0.305-0.236-0.508-0.236-0 0-0 0-0 0h-4c0 0 0 0-0 0-0.345 0-0.628 0.262-0.663 0.597l-0 0.003-0.667 6.667c-0.002 0.020-0.003 0.043-0.003 0.067 0 0.368 0.298 0.667 0.667 0.667 0 0 0 0 0 0h2v5.234l6.521-8.151c0.091-0.113 0.146-0.258 0.146-0.416 0-0.368-0.298-0.667-0.666-0.667h-3.213l0.537-3.223c0.006-0.033 0.009-0.070 0.009-0.109 0-0.165-0.060-0.316-0.159-0.433l0.001 0.001z"></path>
</svg>
