<svg xmlns="http://www.w3.org/2000/svg" width="24" height="24"><path fill="none" d="M14 6.618l-4 2v8.764l4-2z"/><path d="M21.447 7.105l-6-3c-.025-.013-.053-.017-.078-.027a.945.945 0 0 0-.123-.043c-.04-.01-.079-.015-.119-.021-.042-.004-.084-.01-.127-.01s-.085.006-.127.011c-.04.006-.08.011-.119.021a.945.945 0 0 0-.123.043c-.025.011-.053.015-.078.027L9 6.882 3.447 4.105A.998.998 0 0 0 2 5v11c0 .379.214.725.553.895l6 3c.015.008.031.004.047.011.128.056.262.094.4.094s.272-.038.4-.095c.016-.007.032-.003.047-.011L15 17.118l5.553 2.776a.992.992 0 0 0 .972-.043c.295-.183.475-.504.475-.851V8c0-.379-.214-.725-.553-.895zM10 8.618l4-2v8.764l-4 2V8.618z"/></svg>