<!-- Generated by IcoMoon.io -->
<svg version="1.1" xmlns="http://www.w3.org/2000/svg" width="16" height="16" viewBox="0 0 16 16">
<title>bxs-book</title>
<path d="M13.257 4.371l0.006-0.003-1.333-2.667c-0.113-0.226-0.344-0.369-0.597-0.369h-7.333c-0.804 0-2 0.533-2 2v9.333c0 1.467 1.196 2 2 2h8.667c0.369 0 0.667-0.299 0.667-0.667v-9.333c0-0.107-0.031-0.205-0.076-0.295zM3.333 3.333c0-0.537 0.367-0.659 0.675-0.667h6.913l0.667 1.333h-7.58c-0.308-0.008-0.675-0.13-0.675-0.667zM11.333 7.333h-5.333v-1.333h5.333v1.333z"></path>
</svg>
