<!-- Generated by IcoMoon.io -->
<svg version="1.1" xmlns="http://www.w3.org/2000/svg" width="16" height="16" viewBox="0 0 16 16">
<title>bxs-phone-incoming</title>
<path d="M10.081 4.977l-1.414-1.414v3.771h3.771l-1.414-1.414 3.448-3.448-0.943-0.943z"></path>
<path d="M9.533 9.329l-1.107 1.107c-0.385-0.073-1.157-0.314-1.951-1.107-0.795-0.795-1.035-1.569-1.107-1.951l1.575-1.574-3.61-3.609-1.134 1.134c-0.116 0.116-0.185 0.269-0.194 0.433-0.010 0.167-0.201 4.115 2.861 7.177 2.671 2.671 6.016 2.866 6.938 2.866 0.134 0 0.217-0.004 0.238-0.005 0.164-0.009 0.318-0.078 0.433-0.194l1.131-1.131-3.609-3.609-0.464 0.464z"></path>
</svg>
