<svg xmlns="http://www.w3.org/2000/svg" width="24" height="24" viewBox="0 0 24 24"><path d="M6 12c1.193 0 2.267-.525 3-1.357C9.733 11.475 10.807 12 12 12s2.267-.525 3-1.357C15.733 11.475 16.807 12 18 12c2.206 0 4-1.794 4-4 0-.182-.049-.359-.143-.515l-3-5C18.677 2.185 18.352 2 18 2H6C5.648 2 5.323 2.185 5.143 2.485l-3 5C2.049 7.641 2 7.818 2 8 2 10.206 3.794 12 6 12zM16 4l1 4h-1-1l-1-4H16zM8 4h2L9 8c0-.012 0-.006 0 0H7L8 4zM15 12.643C14.267 13.475 13.193 14 12 14s-2.267-.525-3-1.357C8.267 13.475 7.193 14 6 14c-1.2 0-2.267-.542-3-1.382V21c0 .553.447 1 1 1h5.006v-5h6v5H20c.553 0 1-.447 1-1v-8.382C20.267 13.458 19.2 14 18 14 16.807 14 15.733 13.475 15 12.643z"/></svg>