<svg xmlns="http://www.w3.org/2000/svg" width="24" height="24" viewBox="0 0 24 24"><path d="M20.466,7.647l-7.294-5.273c-0.701-0.5-1.641-0.501-2.348,0.003L3.532,7.649C3.016,8.024,2.708,8.629,2.708,9.268 s0.308,1.243,0.825,1.619l7.295,5.274c0.351,0.25,0.76,0.375,1.171,0.375s0.823-0.126,1.177-0.378l7.291-5.271c0,0,0,0,0.001-0.001 c0.517-0.375,0.824-0.979,0.824-1.618S20.984,8.024,20.466,7.647z"/><path d="M11.936,19.766l-7.229-5.204l-1.694,1.246l7.758,5.583c0.351,0.25,0.762,0.376,1.171,0.376 c0.412,0,0.824-0.126,1.175-0.378l7.873-5.665l-1.717-1.233L11.936,19.766z"/></svg>