<!-- Generated by IcoMoon.io -->
<svg version="1.1" xmlns="http://www.w3.org/2000/svg" width="16" height="16" viewBox="0 0 16 16">
<title>bxs-skull</title>
<path d="M8 1.333c-4.33 0-6.667 3.091-6.667 6 0 1.419 0.673 2.653 2 3.672v2.328c0 0.368 0.298 0.667 0.667 0.667v0h1.333v-2h1.333v2h2.667v-2h1.333v2h1.333c0.368 0 0.667-0.298 0.667-0.667v0-2.329c1.327-1.019 2-2.253 2-3.671 0-2.909-2.337-6-6.667-6zM5.333 8.667c-0.747 0-1.333-0.732-1.333-1.667s0.586-1.667 1.333-1.667 1.333 0.732 1.333 1.667-0.586 1.667-1.333 1.667zM10.667 8.667c-0.747 0-1.333-0.732-1.333-1.667s0.586-1.667 1.333-1.667 1.333 0.732 1.333 1.667-0.586 1.667-1.333 1.667z"></path>
</svg>
