<!-- Generated by IcoMoon.io -->
<svg version="1.1" xmlns="http://www.w3.org/2000/svg" width="16" height="16" viewBox="0 0 16 16">
<title>bxs-key</title>
<path d="M8.369 2.452c-1.005 1.005-1.301 2.453-0.892 3.721l-5.001 5c-0.102 0.102-0.168 0.235-0.188 0.377l-0.236 1.65c-0.030 0.208 0.040 0.417 0.188 0.566s0.358 0.218 0.566 0.188l1.65-0.236c0.25-0.035 0.458-0.21 0.539-0.449l0.338-1.269c0 0 0.315 0.27 0.443 0.311 0.275 0.087 0.542-0.183 0.632-0.456l0.258-1.181c0 0 0.385 0.195 0.524 0.223 0.177 0.037 0.349-0.073 0.471-0.195 0.071-0.071 0.127-0.159 0.161-0.261l0.177-1.101c0 0 0.45 0.125 0.604 0.143 0.175 0.020 0.346-0.069 0.471-0.195l0.759-0.758c1.267 0.408 2.715 0.113 3.721-0.892 1.429-1.43 1.429-3.756 0-5.185s-3.756-1.429-5.185 0zM9.588 3.671c0.759-0.757 1.989-0.757 2.748 0 0.757 0.759 0.757 1.989 0 2.748z"></path>
</svg>
