<!-- Generated by IcoMoon.io -->
<svg version="1.1" xmlns="http://www.w3.org/2000/svg" width="16" height="16" viewBox="0 0 16 16">
<title>bxs-wrench</title>
<path d="M13.399 8.789c0.784-0.784 1.269-1.868 1.269-3.064 0-0.595-0.12-1.162-0.337-1.678l0.011 0.029-2.593 2.593-2.357-2.357 2.593-2.593c-0.487-0.206-1.054-0.326-1.648-0.326-2.394 0-4.334 1.94-4.334 4.334 0 0.595 0.12 1.161 0.337 1.677l-0.011-0.029-4.655 4.655 2.357 2.357 4.655-4.655c0.488 0.206 1.055 0.326 1.65 0.326 1.197 0 2.28-0.485 3.065-1.269l-0 0z"></path>
</svg>
