<!-- Generated by IcoMoon.io -->
<svg version="1.1" xmlns="http://www.w3.org/2000/svg" width="16" height="16" viewBox="0 0 16 16">
<title>bxs-flame</title>
<path d="M8.386 1.457c-0.231-0.165-0.542-0.165-0.772 0-0.203 0.143-4.947 4.501-4.947 7.876 0 2.165 1.299 4.029 3.156 4.864-0.306-0.434-0.489-0.961-0.489-1.531-0.011-2.147 2.372-4.595 2.473-4.667 0.115-0.083 0.271-0.083 0.386 0 0.101 0.071 2.474 1.983 2.474 4.668 0 0.569-0.183 1.095-0.489 1.529 1.857-0.835 3.155-2.699 3.155-4.861 0-4.678-4.744-7.736-4.947-7.879z"></path>
</svg>
