<svg xmlns="http://www.w3.org/2000/svg" width="24" height="24"><path fill="none" d="M9.707 18.707L12 16.414l2.293 2.293 1.414-1.414L13.414 15l2.293-2.293-1.414-1.414L12 13.586l-2.293-2.293-1.414 1.414L10.586 15l-2.293 2.293z"/><path d="M20 4h-3V2h-2v2H9V2H7v2H4a1 1 0 0 0-1 1v2h18V5a1 1 0 0 0-1-1zM3 21a1 1 0 0 0 1 1h16a1 1 0 0 0 1-1V9H3v12zm5.293-8.293l1.414-1.414L12 13.586l2.293-2.293 1.414 1.414L13.414 15l2.293 2.293-1.414 1.414L12 16.414l-2.293 2.293-1.414-1.414L10.586 15l-2.293-2.293z"/></svg>