<!-- Generated by IcoMoon.io -->
<svg version="1.1" xmlns="http://www.w3.org/2000/svg" width="16" height="16" viewBox="0 0 16 16">
<title>bxs-calendar</title>
<path d="M2.667 14.667h10.667c0.368 0 0.667-0.298 0.667-0.667v0-7.993h-12v7.993c0 0.368 0.298 0.667 0.667 0.667v0zM10 8h1.333v1.333h-1.333v-1.333zM10 10.667h1.333v1.333h-1.333v-1.333zM7.333 8h1.333v1.333h-1.333v-1.333zM7.333 10.667h1.333v1.333h-1.333v-1.333zM4.667 8h1.333v1.333h-1.333v-1.333zM4.667 10.667h1.333v1.333h-1.333v-1.333zM14 3.333c0-0.368-0.298-0.667-0.667-0.667v0h-2v-1.333h-1.333v1.333h-4v-1.333h-1.333v1.333h-2c-0.368 0-0.667 0.298-0.667 0.667v0 1.34h12v-1.34z"></path>
</svg>
