<!-- Generated by IcoMoon.io -->
<svg version="1.1" xmlns="http://www.w3.org/2000/svg" width="16" height="16" viewBox="0 0 16 16">
<title>bxs-pin</title>
<path d="M11.805 8.862l-1.805-1.138v-3.057h0.667c0.369 0 0.667-0.298 0.667-0.667v-2c0-0.369-0.298-0.667-0.667-0.667h-5.333c-0.368 0-0.667 0.298-0.667 0.667v2c0 0.369 0.299 0.667 0.667 0.667h0.667v3.057l-1.805 1.138c-0.125 0.125-0.195 0.294-0.195 0.471v2c0 0 0.299 0 0.667 0h2.667v2l0.667 1.333 0.667-1.333v-2h2.667c0.369 0 0.667 0 0.667 0v-2c0-0.177-0.070-0.347-0.195-0.471z"></path>
</svg>
