<svg xmlns="http://www.w3.org/2000/svg" width="24" height="24"><path d="M10 4H3a1 1 0 0 0-1 1v5l.003 2.919c-.009.111-.199 2.741 1.688 4.789C5.094 19.229 7.217 20 10 20h1v-2.819l-.804-.161c-1.37-.274-2.323-.813-2.833-1.604A2.902 2.902 0 0 1 6.925 14H10a1 1 0 0 0 1-1V5a1 1 0 0 0-1-1zM21 14a1 1 0 0 0 1-1V5a1 1 0 0 0-1-1h-7a1 1 0 0 0-1 1v5l.003 2.919c-.009.111-.199 2.741 1.688 4.789C16.094 19.229 18.217 20 21 20h1v-2.819l-.804-.161c-1.37-.274-2.323-.813-2.833-1.604a2.895 2.895 0 0 1-.438-1.415H21z"/></svg>