<svg xmlns="http://www.w3.org/2000/svg" width="24" height="24" viewBox="0 0 24 24"><path d="M15,12c0-3.02,1.499-5.689,3.787-7.323C17.002,3.021,14.621,2,12,2S6.998,3.021,5.213,4.677C7.501,6.311,9,8.98,9,12 s-1.499,5.689-3.787,7.323C6.998,20.979,9.379,22,12,22s5.002-1.021,6.787-2.677C16.499,17.689,15,15.02,15,12z"/><path d="M17 12c0 2.424 1.239 4.563 3.116 5.819C21.297 16.178 22 14.172 22 12s-.703-4.178-1.884-5.819C18.239 7.438 17 9.576 17 12zM3.884 17.819C5.761 16.563 7 14.424 7 12S5.761 7.438 3.884 6.181C2.703 7.822 2 9.828 2 12S2.703 16.178 3.884 17.819z"/></svg>