<!-- Generated by IcoMoon.io -->
<svg version="1.1" xmlns="http://www.w3.org/2000/svg" width="16" height="16" viewBox="0 0 16 16">
<title>bxs-send</title>
<path d="M14.284 7.397l-11.333-5.333c-0.083-0.040-0.181-0.063-0.284-0.063-0.368 0-0.667 0.298-0.667 0.667 0 0.057 0.007 0.113 0.021 0.166l-0.001-0.005 0.98 3.922 5 1.25-5 1.25-0.98 3.922c-0.013 0.049-0.020 0.106-0.020 0.164 0 0.367 0.298 0.665 0.665 0.665 0.104 0 0.202-0.024 0.29-0.066l-0.004 0.002 11.333-5.333c0.228-0.109 0.383-0.338 0.383-0.603s-0.155-0.494-0.379-0.602l-0.004-0.002z"></path>
</svg>
