<!-- Generated by IcoMoon.io -->
<svg version="1.1" xmlns="http://www.w3.org/2000/svg" width="16" height="16" viewBox="0 0 16 16">
<title>bxs-spreadsheet</title>
<path d="M13.333 2h-10.667c-0.368 0-0.667 0.298-0.667 0.667v0 10.667c0 0.368 0.298 0.667 0.667 0.667v0h10.667c0.368 0 0.667-0.298 0.667-0.667v0-10.667c0-0.368-0.298-0.667-0.667-0.667v0zM5.333 11.333h-1.333v-1.333h1.333v1.333zM5.333 8.667h-1.333v-1.333h1.333v1.333zM5.333 6h-1.333v-1.333h1.333v1.333zM12 11.333h-5.333v-1.333h5.333v1.333zM12 8.667h-5.333v-1.333h5.333v1.333zM12 6h-5.333v-1.333h5.333v1.333z"></path>
</svg>
