<!-- Generated by IcoMoon.io -->
<svg version="1.1" xmlns="http://www.w3.org/2000/svg" width="16" height="16" viewBox="0 0 16 16">
<title>bxs-calendar-check</title>
<path d="M13.333 2.667h-2v-1.333h-1.333v1.333h-4v-1.333h-1.333v1.333h-2c-0.368 0-0.667 0.298-0.667 0.667v0 1.333h12v-1.333c0-0.368-0.298-0.667-0.667-0.667v0zM2 14c0 0.368 0.298 0.667 0.667 0.667v0h10.667c0.368 0 0.667-0.298 0.667-0.667v0-8h-12v8zM6.471 9.529l0.862 0.862 2.529-2.529 0.943 0.943-3 3c-0.12 0.121-0.287 0.196-0.471 0.196s-0.351-0.075-0.471-0.196l-1.333-1.333 0.943-0.943z"></path>
</svg>
