<svg xmlns="http://www.w3.org/2000/svg" width="24" height="24" viewBox="0 0 24 24"><path d="M2.293,3.707l0.791,0.791L2.292,5.293l1.416,1.412l0.79-0.793l0.979,0.979C3.956,8.511,3,10.663,3,13c0,4.879,4.121,9,9,9 c2.337,0,4.489-0.956,6.108-2.478l2.185,2.185l1.414-1.414l-18-18L2.293,3.707z M11,14v-1.586L12.586,14H11z"/><path transform="rotate(-45.082 19.494 4.5)" d="M18.495 2.375H20.495V6.625H18.495z"/><path d="M12,4c-0.946,0-1.862,0.159-2.728,0.444l1.651,1.651l7.98,7.98l1.651,1.651C20.841,14.862,21,13.946,21,13 C21,8.121,16.879,4,12,4z"/></svg>