<!-- Generated by IcoMoon.io -->
<svg version="1.1" xmlns="http://www.w3.org/2000/svg" width="16" height="16" viewBox="0 0 16 16">
<title>bxs-tag-x</title>
<path d="M14 4h-8.667c-0 0-0 0-0.001 0-0.21 0-0.397 0.097-0.518 0.249l-0.001 0.001h-0.001l-2.999 3.75 2.999 3.75c0.123 0.153 0.31 0.25 0.52 0.25 0 0 0 0 0 0h8.667c0.368 0 0.667-0.298 0.667-0.667v0-6.667c0-0.368-0.298-0.667-0.667-0.667v0zM12.471 9.529l-0.943 0.943-1.529-1.529-1.529 1.529-0.943-0.943 1.529-1.529-1.529-1.529 0.943-0.943 1.529 1.529 1.529-1.529 0.943 0.943-1.529 1.529 1.529 1.529z"></path>
</svg>
