<!-- Generated by IcoMoon.io -->
<svg version="1.1" xmlns="http://www.w3.org/2000/svg" width="16" height="16" viewBox="0 0 16 16">
<title>bxs-hide</title>
<path d="M8.036 12.667c0.619 0 1.183-0.068 1.701-0.182l-1.831-1.831c-1.366-0.068-2.456-1.158-2.524-2.518l-0-0.006-2.575-2.575c-1.013 1.105-1.397 2.211-1.404 2.234l-0.071 0.211 0.070 0.211c0.015 0.045 1.544 4.456 6.633 4.456zM14.668 8.211l0.070-0.211-0.070-0.211c-0.015-0.045-1.543-4.456-6.632-4.456-1.237 0-2.25 0.269-3.095 0.665l-2.47-2.47-0.943 0.943 12 12 0.943-0.943-2.199-2.199c1.759-1.302 2.386-3.091 2.395-3.119zM9.307 8.364c0.125-0.451 0.019-0.959-0.328-1.307s-0.855-0.453-1.307-0.328l-1.005-1.005c0.39-0.243 0.862-0.388 1.369-0.391h0.001c1.471 0 2.667 1.196 2.667 2.667-0.002 0.507-0.148 0.979-0.398 1.38l0.006-0.011-1.005-1.005z"></path>
</svg>
