<!-- Generated by IcoMoon.io -->
<svg version="1.1" xmlns="http://www.w3.org/2000/svg" width="16" height="16" viewBox="0 0 16 16">
<title>bxs-rename</title>
<path d="M12.667 4.667v7.333h1.333c0.368 0 0.667-0.298 0.667-0.667v0-6.667c0-0.368-0.298-0.667-0.667-0.667v0h-1.333v0.667z"></path>
<path d="M2 12h8c0 0.063-0.032 1.333-2 1.333v1.333c1.335 0 2.171-0.449 2.673-1.011 0.033 0.037 0.059 0.074 0.095 0.11 0.596 0.599 1.459 0.901 2.565 0.901v-1.333c-1.869 0-1.994-1.117-2-1.332v-7.985c0.009-0.225 0.147-1.349 2-1.349v-1.333c-1.324 0-2.159 0.447-2.662 1.007-0.501-0.561-1.338-1.007-2.671-1.007v1.333c1.867 0 1.993 1.119 2 1.333h-8c-0.368 0-0.667 0.298-0.667 0.667v0 6.667c0 0.368 0.298 0.667 0.667 0.667v0zM4 6.667h6v2.667h-6v-2.667z"></path>
</svg>
