<svg xmlns="http://www.w3.org/2000/svg" width="24" height="24" viewBox="0 0 24 24"><path d="M19,4h1V2h-2H5.99H4v2h1.022c0,3.3,1.16,5.514,3.978,7.525v0.95C6.166,14.495,5,16.709,5,20H4v2h2h12h2v-2h-1	c0-3.291-1.166-5.505-4-7.525v-0.949C17.834,9.505,19,7.291,19,4z M7.022,4H17c0,2.178-0.573,3.637-2.054,5h-5.89	C7.598,7.648,7.027,6.191,7.022,4z M10.555,13.832C10.833,13.646,11,13.334,11,13v4H7.565C8.097,15.82,9.035,14.845,10.555,13.832z M16.435,17H13v-4c0,0.334,0.167,0.646,0.445,0.832C14.965,14.845,15.903,15.82,16.435,17z"/></svg>