<!-- Generated by IcoMoon.io -->
<svg version="1.1" xmlns="http://www.w3.org/2000/svg" width="16" height="16" viewBox="0 0 16 16">
<title>bxs-globe-alt</title>
<path d="M9.771 2.229c2.079 2.080 2.079 5.463 0 7.543s-5.463 2.080-7.543 0l-0.943 0.943c1.203 1.205 2.867 1.95 4.704 1.95 0.476 0 0.94-0.050 1.387-0.145l-0.043 0.008v0.806h-1.333v1.333h4v-1.333h-1.333v-1.23c0.795-0.349 1.473-0.817 2.047-1.389l-0 0c2.599-2.599 2.599-6.829 0-9.429l-0.943 0.943z"></path>
<path d="M6 10c2.206 0 4-1.794 4-4s-1.794-4-4-4-4 1.794-4 4 1.794 4 4 4z"></path>
</svg>
