<svg xmlns="http://www.w3.org/2000/svg" width="24" height="24" viewBox="0 0 24 24"><path d="M3 20c2.783 0 4.906-.771 6.309-2.292C11.196 15.66 11.006 13.03 11 13V5c0-.552-.447-1-1-1H3C2.447 4 2 4.448 2 5v8c0 .552.447 1 1 1h1.779C4.539 14.505 4.038 15 3 15c-.553 0-1 .448-1 1v3C2 19.552 2.447 20 3 20zM14 20c2.783 0 4.906-.771 6.309-2.292C22.196 15.66 22.006 13.03 22 13V5c0-.552-.447-1-1-1h-7c-.553 0-1 .448-1 1v8c0 .552.447 1 1 1h1.784c-.24.526-.742 1.034-1.784 1.034-.553 0-1 .448-1 1V19C13 19.552 13.447 20 14 20z"/></svg>