<svg xmlns="http://www.w3.org/2000/svg" width="24" height="24"><path d="M9.5 12c1.923 0 3.5-1.578 3.5-3.501 0-1.925-1.577-3.5-3.5-3.5a3.512 3.512 0 0 0-3.5 3.5A3.514 3.514 0 0 0 9.5 12zM9.5 13.313c-3.569 0-6.5 2.472-6.5 4.875V19h13v-.813c0-2.403-2.931-4.874-6.5-4.874zM17.396 11.785a6.052 6.052 0 0 0 .799-3.03c-.016-1.352-.536-2.555-1.505-3.479l-1.38 1.446c.577.553.875 1.244.885 2.056.013 1.162-.546 2.159-.901 2.515l-.865.864 1.02.676C18.069 14.571 19 17.241 19 18.999h2c0-2.146-.966-5.067-3.604-7.214z"/></svg>