<!-- Generated by IcoMoon.io -->
<svg version="1.1" xmlns="http://www.w3.org/2000/svg" width="16" height="16" viewBox="0 0 16 16">
<title>bxs-tennis-ball</title>
<path d="M6 8c0 2.013-0.999 3.793-2.525 4.882 1.19 1.104 2.777 1.785 4.525 1.785s3.335-0.681 4.525-1.785c-1.525-1.089-2.525-2.869-2.525-4.882s0.999-3.793 2.525-4.882c-1.19-1.104-2.777-1.785-4.525-1.785s-3.335 0.681-4.525 1.785c1.525 1.089 2.525 2.869 2.525 4.882z"></path>
<path d="M11.333 8c0 1.611 0.818 3.031 2.061 3.869l0.017 0.011c0.785-1.075 1.256-2.422 1.256-3.879s-0.471-2.805-1.269-3.898l0.013 0.019c-1.259 0.848-2.077 2.268-2.077 3.879v0zM2.589 11.879c1.251-0.837 2.077-2.263 2.077-3.879s-0.826-3.041-2.077-3.879c-0.785 1.075-1.256 2.422-1.256 3.879s0.471 2.805 1.269 3.898l-0.013-0.019z"></path>
</svg>
