<!-- Generated by IcoMoon.io -->
<svg version="1.1" xmlns="http://www.w3.org/2000/svg" width="16" height="16" viewBox="0 0 16 16">
<title>bxs-copy</title>
<path d="M10 5.333h-8c-0.368 0-0.667 0.298-0.667 0.667v0 8c0 0.368 0.298 0.667 0.667 0.667v0h8c0.368 0 0.667-0.298 0.667-0.667v0-8c0-0.368-0.298-0.667-0.667-0.667v0z"></path>
<path d="M14 1.333h-8c-0.368 0-0.667 0.298-0.667 0.667v0 2h6c0.667 0 0.667 0.298 0.667 0.667v6h2c0.368 0 0.667-0.298 0.667-0.667v0-8c0-0.368-0.298-0.667-0.667-0.667v0z"></path>
</svg>
