<!-- Generated by IcoMoon.io -->
<svg version="1.1" xmlns="http://www.w3.org/2000/svg" width="16" height="16" viewBox="0 0 16 16">
<title>bxs-camera-alt</title>
<path d="M9.333 8c0-0.71-0.623-1.333-1.333-1.333s-1.333 0.623-1.333 1.333 0.623 1.333 1.333 1.333 1.333-0.623 1.333-1.333zM14 2.667h-1.333v-0.667h-2v0.667h-4.667v-1.333h-2.667v1.333h-1.333c-0.368 0-0.667 0.298-0.667 0.667v0 3.333h4.382c0.47-0.787 1.323-1.333 2.285-1.333s1.815 0.546 2.285 1.333h4.382v-3.333c0-0.368-0.298-0.667-0.667-0.667v0zM12.667 5.333h-1.333v-1.333h1.333v1.333z"></path>
<path d="M8 10.667c-1.445 0-2.667-1.221-2.667-2.667h-4v4.667c0 0.368 0.298 0.667 0.667 0.667v0h12c0.368 0 0.667-0.298 0.667-0.667v0-4.667h-4c0 1.445-1.221 2.667-2.667 2.667z"></path>
</svg>
