<!-- Generated by IcoMoon.io -->
<svg version="1.1" xmlns="http://www.w3.org/2000/svg" width="16" height="16" viewBox="0 0 16 16">
<title>bxs-archive</title>
<path d="M14.534 4.267l-1.994-2.667c-0.126-0.169-0.324-0.267-0.534-0.267h-8c-0.21 0-0.407 0.098-0.533 0.265l-2.006 2.666 0.009 0.007c-0.084 0.112-0.143 0.244-0.143 0.395v8.001c0 0.369 0.298 0.667 0.667 0.667h12c0.369 0 0.667-0.298 0.667-0.667v-8.001c0-0.15-0.059-0.281-0.141-0.392l0.009-0.007zM4.339 2.667h7.333l0.997 1.333h-9.333l1.003-1.333zM12 8.667c0 0.369 0 0.667 0 0.667h-6.667c-0.369 0-1.333 0-1.333 0v-2.667h1.333v1.333h5.333v-1.333h1.333v2z"></path>
</svg>
