<svg xmlns="http://www.w3.org/2000/svg" width="24" height="24" viewBox="0 0 24 24"><path d="M12,3C7.206,3,3,5.103,3,7.5c0,0.069,0.016,0.137,0.022,0.206H3.021l0.002,0.009c0.016,0.147,0.046,0.293,0.092,0.437 l1.906,9.055c0.018,0.084,0.046,0.165,0.084,0.241C6.284,19.805,8.604,21,12,21s5.716-1.195,6.895-3.553 c0.038-0.076,0.066-0.157,0.084-0.241l1.906-9.055c0.046-0.144,0.076-0.289,0.092-0.437l0.002-0.009h-0.001 C20.984,7.637,21,7.569,21,7.5C21,5.103,16.794,3,12,3z M12,5c4.333,0,6.868,1.804,6.988,2.451L18.94,7.679 C18.554,8.408,16.07,10,12,10S5.446,8.408,5.06,7.679L5.012,7.451C5.132,6.804,7.667,5,12,5z"/></svg>