<!-- Generated by IcoMoon.io -->
<svg version="1.1" xmlns="http://www.w3.org/2000/svg" width="16" height="16" viewBox="0 0 16 16">
<title>bxs-cart-alt</title>
<path d="M3.333 2.667h-2v1.333h1.533l2.507 6.895c0.095 0.263 0.345 0.439 0.626 0.439h6v-1.333h-5.533l-0.485-1.333h6.019c0.297 0 0.559-0.197 0.641-0.484l1.576-5.516h-10.884z"></path>
<path d="M8 13.667c0 0.552-0.448 1-1 1s-1-0.448-1-1c0-0.552 0.448-1 1-1s1 0.448 1 1z"></path>
<path d="M12 13.667c0 0.552-0.448 1-1 1s-1-0.448-1-1c0-0.552 0.448-1 1-1s1 0.448 1 1z"></path>
</svg>
