<!-- Generated by IcoMoon.io -->
<svg version="1.1" xmlns="http://www.w3.org/2000/svg" width="16" height="16" viewBox="0 0 16 16">
<title>bxs-code-block</title>
<path d="M14 2.667h-12c-0.368 0-0.667 0.298-0.667 0.667v0 9.333c0 0.368 0.298 0.667 0.667 0.667v0h12c0.368 0 0.667-0.298 0.667-0.667v0-9.333c0-0.368-0.298-0.667-0.667-0.667v0zM7.138 10.862l-0.943 0.943-2.471-2.471 2.471-2.471 0.943 0.943-1.529 1.529 1.529 1.529zM9.805 11.805l-0.943-0.943 1.529-1.529-1.529-1.529 0.943-0.943 2.471 2.471-2.471 2.471zM13.333 5.333h-10.667v-1.333h10.667v1.333z"></path>
</svg>
