<!-- Generated by IcoMoon.io -->
<svg version="1.1" xmlns="http://www.w3.org/2000/svg" width="16" height="16" viewBox="0 0 16 16">
<title>bxs-microphone-off</title>
<path d="M14.471 13.529l-2.267-2.267c0.703-0.889 1.128-2.026 1.129-3.262v-0h-1.333c-0.001 0.868-0.28 1.67-0.754 2.323l0.008-0.011-0.966-0.967c0.236-0.383 0.376-0.847 0.379-1.344v-4.001c0-1.478-1.19-2.681-2.653-2.681-0.047 0-0.093 0.006-0.139 0.017-1.417 0.071-2.539 1.236-2.541 2.664v0.391l-2.862-2.862-0.943 0.943 12 12 0.943-0.943zM4 8h-1.333c0 2.715 2.040 4.957 4.667 5.287v1.379h1.333v-1.379c0.555-0.072 1.060-0.22 1.527-0.434l-0.033 0.014-1.033-1.032c-0.338 0.104-0.726 0.164-1.128 0.165h-0c-2.206 0-4-1.794-4-4z"></path>
<path d="M5.338 8.045c0.026 1.435 1.182 2.592 2.615 2.617l0.002 0-2.617-2.617z"></path>
</svg>
