<!-- Generated by IcoMoon.io -->
<svg version="1.1" xmlns="http://www.w3.org/2000/svg" width="16" height="16" viewBox="0 0 16 16">
<title>bxs-sun</title>
<path d="M5.329 8c0 1.473 1.199 2.671 2.671 2.671s2.671-1.199 2.671-2.671-1.199-2.671-2.671-2.671-2.671 1.199-2.671 2.671zM12.471 11.529l-0.943 0.943-1.333-1.333 0.943-0.943zM4.862 5.805l-1.333-1.333 0.943-0.943 1.333 1.333zM2.342 7.333h1.886v1.333h-1.886zM11.77 7.333h1.885v1.333h-1.885zM7.332 2.343h1.333v1.886h-1.333zM7.332 11.771h1.333v1.885h-1.333zM10.194 4.863l1.335-1.334 0.943 0.943-1.334 1.334zM4.471 12.471l-0.943-0.943 1.333-1.333 0.943 0.943z"></path>
</svg>
