<!-- Generated by IcoMoon.io -->
<svg version="1.1" xmlns="http://www.w3.org/2000/svg" width="16" height="16" viewBox="0 0 16 16">
<title>bxs-album</title>
<path d="M8 1.333c-3.676 0-6.667 2.991-6.667 6.667s2.991 6.667 6.667 6.667 6.667-2.991 6.667-6.667-2.991-6.667-6.667-6.667zM4.929 6.703c-0.166 0.38-0.262 0.824-0.262 1.289 0 0.003 0 0.005 0 0.008v-0h-1.333c0-0.002 0-0.004 0-0.006 0-1.287 0.523-2.452 1.367-3.294l0-0c0.414-0.415 0.907-0.753 1.453-0.988l0.030-0.012 0.519 1.228c-0.397 0.168-0.753 0.408-1.060 0.715s-0.547 0.663-0.715 1.061zM7.995 9.333c-0.739 0-1.338-0.599-1.338-1.338s0.599-1.338 1.338-1.338v0c0.739 0 1.338 0.599 1.338 1.338s-0.599 1.338-1.338 1.338v0z"></path>
</svg>
