<svg xmlns="http://www.w3.org/2000/svg" width="24" height="24"><path fill="none" d="M12 7a4.88 4.88 0 0 0-2.734.852l1.455 1.455c1.112-.514 2.498-.33 3.4.572.902.902 1.086 2.288.572 3.4l1.455 1.455A4.88 4.88 0 0 0 17 12c0-2.71-2.29-5-5-5z"/><path d="M12 17c-2.71 0-5-2.29-5-5 0-.271.039-.535.083-.796L2 6.121V19a1 1 0 0 0 1 1h12.879l-3.083-3.083A4.774 4.774 0 0 1 12 17zM22 19V6a1 1 0 0 0-1-1h-3.586l-3-3H9.586l-3 3h-.172L3.707 2.293 2.293 3.707l18 18 1.414-1.414-.362-.362A.992.992 0 0 0 22 19zm-5.852-4.266l-1.455-1.455c.514-1.112.33-2.499-.572-3.4-.902-.902-2.288-1.086-3.4-.572L9.266 7.852A4.88 4.88 0 0 1 12 7c2.71 0 5 2.29 5 5a4.88 4.88 0 0 1-.852 2.734z"/></svg>