<svg xmlns="http://www.w3.org/2000/svg" width="24" height="24" viewBox="0 0 24 24"><path d="M17.707,7.293c-0.265-0.265-0.656-0.358-1.013-0.245c-0.356,0.114-0.619,0.418-0.681,0.788	c-0.392,2.348-1.275,3.484-2.604,3.483c1.023-2.493,1.098-4.602,0.219-6.278C12.29,2.487,9.27,2.028,9.142,2.01	C8.856,1.97,8.563,2.055,8.345,2.244C8.126,2.435,8,2.71,8,3c0,0.025-0.02,2.605-1.707,4.293C4.239,9.347,3,10.586,3,14	c0,3.94,2.174,6.321,4.954,7.368C6.04,18.891,8,13,8,13c1.672,6.706,6.264,7.854,7.709,8.051C18.136,19.872,20,17.571,20,14	C20,13.819,19.974,9.56,17.707,7.293z"/></svg>