<!-- Generated by IcoMoon.io -->
<svg version="1.1" xmlns="http://www.w3.org/2000/svg" width="16" height="16" viewBox="0 0 16 16">
<title>bxs-watch</title>
<path d="M8.667 5.333h-1.333v3.333h3.333v-1.333h-2z"></path>
<path d="M10.667 3.389v-1.389c0-0.368-0.298-0.667-0.667-0.667v0h-4c-0.368 0-0.667 0.298-0.667 0.667v0 1.389c-1.591 0.924-2.666 2.643-2.666 4.611 0.002 1.999 1.102 3.74 2.73 4.653l0.027 0.014h-0.091v1.361c0 0.368 0.298 0.667 0.667 0.667v0h4c0.368 0 0.667-0.298 0.667-0.667v0-1.361h-0.092c1.655-0.926 2.756-2.668 2.758-4.666v-0c0-1.969-1.075-3.687-2.666-4.611zM7.999 11.999c-2.205 0-3.999-1.794-3.999-3.999s1.794-3.999 3.999-3.999c2.206 0 4 1.794 4 3.999s-1.794 3.999-4 3.999z"></path>
</svg>
