<svg xmlns="http://www.w3.org/2000/svg" width="24" height="24"><path d="M12 22a2.98 2.98 0 0 0 2.818-2H9.182A2.98 2.98 0 0 0 12 22zM20.029 17.946a1 1 0 0 0 .805-1.611l-.823-1.625-.017-2.763c-.027-4.554-2.48-7.905-6.159-8.743A1.991 1.991 0 0 0 12 2a1.99 1.99 0 0 0-1.829 1.193 7.373 7.373 0 0 0-3.599 1.965L3.707 2.293 2.293 3.707l18 18 1.414-1.414-2.343-2.343.665-.004zM3.177 17.571a.999.999 0 0 0 .853.47l9.879-.059-9.428-9.316a11.122 11.122 0 0 0-.487 3.375l.017 2.764-.884 1.795a.995.995 0 0 0 .05.971z"/></svg>