<!-- Generated by IcoMoon.io -->
<svg version="1.1" xmlns="http://www.w3.org/2000/svg" width="16" height="16" viewBox="0 0 16 16">
<title>bxs-octagon</title>
<path d="M12.571 2.99c-0.082-0.135-0.207-0.237-0.356-0.288l-0.005-0.001-4-1.333c-0.063-0.022-0.136-0.034-0.211-0.034s-0.148 0.012-0.216 0.035l0.005-0.001-4 1.333c-0.151 0.051-0.278 0.153-0.36 0.289l-2 3.333c-0.060 0.098-0.095 0.217-0.095 0.344 0 0.033 0.002 0.066 0.007 0.098l-0-0.004 0.667 4.667c0.024 0.168 0.111 0.32 0.243 0.427l3.333 2.667c0.119 0.094 0.265 0.145 0.417 0.145h4c0 0 0 0 0 0 0.158 0 0.303-0.055 0.418-0.147l-0.001 0.001 3.333-2.667c0.132-0.106 0.219-0.259 0.243-0.427l0.667-4.667c0.004-0.028 0.007-0.060 0.007-0.093 0-0.127-0.035-0.246-0.097-0.347l0.002 0.003-2-3.333z"></path>
</svg>
