<!-- Generated by IcoMoon.io -->
<svg version="1.1" xmlns="http://www.w3.org/2000/svg" width="16" height="16" viewBox="0 0 16 16">
<title>bxs-world</title>
<path d="M8 1.333c-3.676 0-6.667 2.991-6.667 6.667s2.991 6.667 6.667 6.667 6.667-2.991 6.667-6.667-2.991-6.667-6.667-6.667zM6 12.941v-0.941l-2-2v-1.333l-0.667-1.333h-0.621c0.316-2.414 2.207-4.304 4.594-4.618l0.027-0.003v0.621l-0.667 1.333-1.333 1.333-0.667 1.333 0.667 1.333h0.667l0.667 0.667h1.333v1.333l-1.256 2.511c-0.292-0.070-0.54-0.152-0.779-0.25l0.035 0.013zM11.769 11.769l-0.436-0.436-0.667-1.333-0.667-0.667-0.667-0.656 0.667-0.677 1.333-0.667v-0.667l-0.667-0.667 0.667-1.333v-0.823c1.223 0.984 1.999 2.48 1.999 4.158 0 1.472-0.598 2.805-1.563 3.768l-0 0z"></path>
</svg>
