<!-- Generated by IcoMoon.io -->
<svg version="1.1" xmlns="http://www.w3.org/2000/svg" width="16" height="16" viewBox="0 0 16 16">
<title>bxs-dollar-circle</title>
<path d="M8 1.333c-3.676 0-6.667 2.991-6.667 6.667s2.991 6.667 6.667 6.667 6.667-2.991 6.667-6.667-2.991-6.667-6.667-6.667zM8.667 11.277v0.723h-1.333v-0.72c-1.559-0.245-2-1.335-2-1.947h1.333c0.007 0.095 0.106 0.667 1.333 0.667 0.92 0 1.333-0.39 1.333-0.667 0-0.216 0-0.667-1.333-0.667-2.32 0-2.667-1.253-2.667-2 0-0.859 0.686-1.723 2-1.943v-0.715h1.333v0.739c1.156 0.273 1.6 1.235 1.6 1.919h-0.667l-0.667 0.012c-0.009-0.253-0.143-0.679-0.933-0.679-0.866 0-1.333 0.344-1.333 0.667 0 0.249 0 0.667 1.333 0.667 2.32 0 2.667 1.253 2.667 2 0 0.859-0.686 1.723-2 1.943z"></path>
</svg>
