<svg xmlns="http://www.w3.org/2000/svg" width="24" height="24" viewBox="0 0 24 24"><path d="M14 8.172V4c0-.369-.203-.708-.528-.882-.324-.174-.72-.154-1.026.05l-2.069 1.38 1.441 1.441L12 6.172 14 8.172zM3 17h3.697l5.748 3.832C12.612 20.943 12.806 21 13 21c.162 0 .324-.039.472-.118C13.797 20.708 14 20.369 14 20v-4.586l2.938 2.938C16.642 18.591 16.329 18.809 16 19v2c.811-.355 1.558-.813 2.238-1.348l2.055 2.055 1.414-1.414-18-18L2.293 3.707 5.586 7H3C2.447 7 2 7.447 2 8v8C2 16.553 2.447 17 3 17zM16 10.172l1.991 1.991C17.993 12.109 18 12.054 18 12c0-1.771-.775-3.9-2-5V10.172zM21.344 15.516c.422-1.083.655-2.265.655-3.516 0-4.091-2.472-7.453-5.999-9v2c2.387 1.386 3.999 4.047 3.999 7 0 .662-.092 1.305-.244 1.927L21.344 15.516z"/></svg>