<!-- Generated by IcoMoon.io -->
<svg version="1.1" xmlns="http://www.w3.org/2000/svg" width="16" height="16" viewBox="0 0 16 16">
<title>bxs-car</title>
<path d="M14 6.667h-0.2l-1.2-3.533c-0.067-0.267-0.333-0.467-0.6-0.467h-8c-0.267 0-0.533 0.2-0.6 0.467l-1.2 3.533h-0.2c-0.4 0-0.667 0.267-0.667 0.667v4c0 0.4 0.267 0.667 0.667 0.667v1.333c0 0.4 0.267 0.667 0.667 0.667h0.667c0.4 0 0.667-0.267 0.667-0.667v-1.333h8v1.333c0 0.4 0.267 0.667 0.667 0.667h0.667c0.4 0 0.667-0.267 0.667-0.667v-1.333c0.4 0 0.667-0.267 0.667-0.667v-4c0-0.4-0.267-0.667-0.667-0.667zM4 10h-1.333v-1.333h1.333v1.333zM11.867 6.667h-8.267l0.867-2.667h7.067l0.867 2.667h-0.533zM13.333 10h-1.333v-1.333h1.333v1.333z"></path>
</svg>
