<!-- Generated by IcoMoon.io -->
<svg version="1.1" xmlns="http://www.w3.org/2000/svg" width="16" height="16" viewBox="0 0 16 16">
<title>bxs-trash</title>
<path d="M4 5.333c-0.369 0-0.667 0-0.667 0v8.667c0 0.368 0.298 0.667 0.667 0.667h8c0.369 0 0.667-0.299 0.667-0.667v-8.667c0 0-0.298 0-0.667 0h-8zM6.667 12.667h-1.333v-5.333h1.333v5.333zM10.667 12.667h-1.333v-5.333h1.333v5.333z"></path>
<path d="M11.079 2.667l-0.483-0.965c-0.113-0.226-0.343-0.369-0.596-0.369h-4c-0.253 0-0.483 0.143-0.597 0.369l-0.482 0.965h-2.921v1.333h12v-1.333h-2.921z"></path>
</svg>
