<!-- Generated by IcoMoon.io -->
<svg version="1.1" xmlns="http://www.w3.org/2000/svg" width="16" height="16" viewBox="0 0 16 16">
<title>bxs-radio</title>
<path d="M14.209 3.375l0.003-0.007-6-2-0.422 1.264 2.103 0.701h-7.893c-0.368 0-0.667 0.298-0.667 0.667v0 8.667c0 0.368 0.298 0.667 0.667 0.667v0h12c0.368 0 0.667-0.298 0.667-0.667v0-8.667c-0.001-0.291-0.191-0.537-0.453-0.623l-0.005-0.001zM5.333 10.667h-1.333v-1.333h1.333v1.333zM7.333 10.667h-1.333v-1.333h1.333v1.333zM11.333 11.333c-0.009 0-0.020 0-0.030 0-0.736 0-1.333-0.597-1.333-1.333s0.597-1.333 1.333-1.333c0.010 0 0.021 0 0.031 0l-0.002-0c0.724 0.017 1.304 0.607 1.304 1.333s-0.58 1.316-1.302 1.333l-0.002 0zM13.333 6.792h-10.667v-2.125h10.667v2.125z"></path>
</svg>
