<!-- Generated by IcoMoon.io -->
<svg version="1.1" xmlns="http://www.w3.org/2000/svg" width="16" height="16" viewBox="0 0 16 16">
<title>bxs-music</title>
<path d="M11 10c-1.287 0-2.333 1.047-2.333 2.333s1.047 2.333 2.333 2.333 2.333-1.047 2.333-2.333v-7c0-0 0-0 0-0 0-0.249-0.137-0.467-0.34-0.581l-0.003-0.002-6-3.333c-0.093-0.053-0.205-0.084-0.323-0.084-0.368 0-0.666 0.298-0.667 0.666v5.568c-0.292-0.146-0.636-0.233-0.999-0.235h-0.001c-1.287 0-2.333 1.047-2.333 2.333s1.047 2.333 2.333 2.333 2.333-1.047 2.333-2.333v-6.534l4.667 2.593v4.509c-0.292-0.146-0.636-0.233-0.999-0.235h-0.001z"></path>
</svg>
