<svg xmlns="http://www.w3.org/2000/svg" width="24" height="24"><path fill="none" d="M19.474 7.067c.421-.982.483-1.668.252-1.929-.229-.259-.503-.357-.861-.323-.232.025-.577.137-1.008.399a9.059 9.059 0 0 1 1.617 1.853zM4.633 17.118c-.375.688-.594 1.515-.377 1.759.231.262.92.281 1.945-.021a9.014 9.014 0 0 1-1.568-1.738z"/><path d="M18.646 2.827c-.831.092-1.686.503-2.548 1.193a8.922 8.922 0 0 0-8.712.282 8.917 8.917 0 0 0-4.109 5.515 8.892 8.892 0 0 0 .306 5.325c-1.065 1.203-2.054 3.677-.823 5.063.517.581 1.257.841 2.147.841 2.707 0 6.808-2.398 10.258-5.464 4.587-4.073 8.141-9.424 6.057-11.771-.661-.745-1.584-1.089-2.576-.984zm.218 1.988c.358-.034.632.064.861.323.231.261.169.946-.252 1.929a9.059 9.059 0 0 0-1.617-1.853c.431-.262.776-.373 1.008-.399zM4.256 18.877c-.217-.244.002-1.07.377-1.759a8.979 8.979 0 0 0 1.568 1.737c-1.025.303-1.714.284-1.945.022zM16.165 16.582c-1.934 1.719-4.066 3.208-6.05 4.202a9.082 9.082 0 0 0 1.874.212 8.986 8.986 0 0 0 4.616-1.282 8.915 8.915 0 0 0 4.337-8.465c-1.213 1.797-2.905 3.671-4.777 5.333z"/></svg>