<svg xmlns="http://www.w3.org/2000/svg" width="24" height="24" viewBox="0 0 24 24"><path d="M19.707,9.293L19,8.586V7V6c0-0.553-0.447-1-1-1h-2h-0.586l-0.707-0.707l-2-2c-0.391-0.391-1.023-0.391-1.414,0l-2,2 L8.586,5H7H6C5.447,5,5,5.447,5,6v1v1.586L4.293,9.293l-2,2c-0.391,0.391-0.391,1.023,0,1.414l2,2L5,15.414V17v1 c0,0.553,0.447,1,1,1h2h0.586l0.707,0.707l2,2C11.488,21.902,11.744,22,12,22s0.512-0.098,0.707-0.293l2-2L15.414,19H17h1 c0.553,0,1-0.447,1-1v-1v-1.586l0.707-0.707l2-2c0.391-0.391,0.391-1.023,0-1.414L19.707,9.293z M12,16V8c2.209,0,4,1.791,4,4 S14.209,16,12,16z"/></svg>