<!-- Generated by IcoMoon.io -->
<svg version="1.1" xmlns="http://www.w3.org/2000/svg" width="16" height="16" viewBox="0 0 16 16">
<title>bxs-user-check</title>
<path d="M5.333 8c1.099 0 2-0.902 2-2.001s-0.901-2-2-2c-1.098 0-2 0.901-2 2 0.005 1.103 0.897 1.996 2 2.001h0zM5.333 9.167c-2.197 0-4 1.521-4 3v0.5h8v-0.5c0-1.479-1.803-3-4-3zM10.663 8.389l-0.861-0.861-0.943 0.943 1.333 1.332c0.12 0.121 0.287 0.196 0.471 0.196s0.35-0.075 0.471-0.195l0-0 3.337-3.331-0.941-0.944-2.867 2.861z"></path>
</svg>
