<svg xmlns="http://www.w3.org/2000/svg" width="24" height="24"><path fill="none" d="M14 5l1 3h2l-1-3zM7 8h2l1-3H8z"/><path d="M19.857 3.485A1 1 0 0 0 19 3H4.857c-.351 0-.676.185-.857.485l-1.857 4A.995.995 0 0 0 2 8c0 2.206 1.794 4 4 4a3.99 3.99 0 0 0 3-1.357c.733.832 1.807 1.357 3 1.357s2.267-.525 3-1.357A3.99 3.99 0 0 0 18 12c2.206 0 4-1.794 4-4a.995.995 0 0 0-.143-.515l-2-4zM9 8H7l1-3h2L9 8zm7 0h-1l-1-3h2l1 3h-1zM20 21a1 1 0 0 0 1-1v-7.382A3.974 3.974 0 0 1 18 14a3.99 3.99 0 0 1-3-1.357c-.733.832-1.807 1.357-3 1.357s-2.267-.525-3-1.357A3.99 3.99 0 0 1 6 14c-1.2 0-2.267-.542-3-1.382V20a1 1 0 0 0 1 1h5.006v-5h6v5H20z"/></svg>