<!-- Generated by IcoMoon.io -->
<svg version="1.1" xmlns="http://www.w3.org/2000/svg" width="16" height="16" viewBox="0 0 16 16">
<title>bxs-file</title>
<path d="M13.138 5.529l-4-4c-0.12-0.121-0.287-0.195-0.47-0.195-0 0-0.001 0-0.001 0h-5.333c-0.368 0-0.667 0.298-0.667 0.667v0 12c0 0.368 0.298 0.667 0.667 0.667v0h9.333c0.368 0 0.667-0.298 0.667-0.667v0-8c0-0 0-0 0-0.001 0-0.184-0.075-0.35-0.195-0.471l-0-0zM4.667 5.333h2v1.333h-2v-1.333zM11.333 12h-6.667v-1.333h6.667v1.333zM11.333 9.333h-6.667v-1.333h6.667v1.333zM9.333 6h-0.667v-3.333l3.333 3.333h-2.667z"></path>
</svg>
