<svg xmlns="http://www.w3.org/2000/svg" width="24" height="24" viewBox="0 0 24 24"><path d="M21,11h-0.382l-2.724-5.447C17.725,5.214,17.379,5,17,5h-3V3c0-0.553-0.447-1-1-1h-2c-0.553,0-1,0.447-1,1v2H7 C6.621,5,6.275,5.214,6.105,5.553L3.382,11H3c-0.553,0-1,0.447-1,1v6c0,0.553,0.447,1,1,1h1v2c0,0.553,0.447,1,1,1h1 c0.553,0,1-0.447,1-1v-2h10v2c0,0.553,0.447,1,1,1h1c0.553,0,1-0.447,1-1v-2h1c0.553,0,1-0.447,1-1v-6C22,11.447,21.553,11,21,11z M17,16v-2h2v2H17z M7.618,7h8.764l2,4H5.618L7.618,7z M7,16H5v-2h2V16z"/></svg>