<svg xmlns="http://www.w3.org/2000/svg" width="24" height="24" viewBox="0 0 24 24"><path d="M20.971,3.758c-0.09-0.358-0.369-0.638-0.727-0.728c-0.07-0.018-1.731-0.429-4.029-0.429c-2.846,0-6.877,0.641-9.923,3.692	c-5.338,5.349-3.35,13.601-3.262,13.949c0.089,0.357,0.369,0.638,0.728,0.727c0.069,0.018,1.726,0.426,4.018,0.426	c2.849,0,6.884-0.641,9.932-3.688C23.042,12.372,21.058,4.107,20.971,3.758z M15.914,9.5l1.293,1.293l-1.414,1.414L14.5,10.914	L13.414,12l1.293,1.293l-1.414,1.414L12,13.414L10.914,14.5l1.293,1.293l-1.414,1.414L9.5,15.914l-1.793,1.793l-1.414-1.414	L8.086,14.5l-1.293-1.293l1.414-1.414L9.5,13.086L10.586,12l-1.293-1.293l1.414-1.414L12,10.586L13.086,9.5l-1.293-1.293	l1.414-1.414L14.5,8.086l1.793-1.793l1.414,1.414L15.914,9.5z"/></svg>