<svg xmlns="http://www.w3.org/2000/svg" width="24" height="24"><ellipse fill="none" cx="8.5" cy="10" rx="1.5" ry="2"/><ellipse fill="none" cx="15.5" cy="10" rx="1.5" ry="2"/><path fill="none" d="M12 14a5.957 5.957 0 0 0-4.8 2.399L8.8 17.6c.763-1.017 1.93-1.6 3.2-1.6s2.437.583 3.2 1.6l1.6-1.201A5.956 5.956 0 0 0 12 14z"/><path d="M12 2C6.486 2 2 6.486 2 12s4.486 10 10 10 10-4.486 10-10S17.514 2 12 2zM8.5 8c.828 0 1.5.896 1.5 2s-.672 2-1.5 2S7 11.104 7 10s.672-2 1.5-2zm6.7 9.6c-.763-1.017-1.93-1.6-3.2-1.6s-2.437.583-3.2 1.601L7.2 16.4A5.955 5.955 0 0 1 12 14c1.904 0 3.654.874 4.8 2.398L15.2 17.6zm.3-5.6c-.828 0-1.5-.896-1.5-2s.672-2 1.5-2 1.5.896 1.5 2-.672 2-1.5 2z"/></svg>