<!-- Generated by IcoMoon.io -->
<svg version="1.1" xmlns="http://www.w3.org/2000/svg" width="16" height="16" viewBox="0 0 16 16">
<title>bxs-show</title>
<path d="M8 3.333c-5.089 0-6.618 4.411-6.632 4.456l-0.071 0.211 0.070 0.211c0.015 0.045 1.544 4.456 6.633 4.456s6.618-4.411 6.632-4.456l0.071-0.211-0.070-0.211c-0.015-0.045-1.544-4.456-6.633-4.456zM8 10.667c-1.471 0-2.667-1.196-2.667-2.667s1.196-2.667 2.667-2.667 2.667 1.196 2.667 2.667-1.196 2.667-2.667 2.667z"></path>
<path d="M8 6.667c-0.723 0-1.333 0.611-1.333 1.333s0.611 1.333 1.333 1.333 1.333-0.611 1.333-1.333-0.611-1.333-1.333-1.333z"></path>
</svg>
