<!-- Generated by IcoMoon.io -->
<svg version="1.1" xmlns="http://www.w3.org/2000/svg" width="16" height="16" viewBox="0 0 16 16">
<title>bxs-mobile-message</title>
<path d="M14 4h-2v-2c0-0.369-0.298-0.667-0.667-0.667h-8c-0.369 0-0.667 0.298-0.667 0.667v12c0 0.369 0.298 0.667 0.667 0.667h8c0.369 0 0.667-0.298 0.667-0.667v-5.333h2c0.369 0 0.667-0.298 0.667-0.667v-3.333c0-0.369-0.298-0.667-0.667-0.667zM6.667 12.667c0-0.369 0.298-0.667 0.667-0.667s0.667 0.298 0.667 0.667c0 0.367-0.296 0.664-0.663 0.666h-0.007c-0.367-0.002-0.663-0.299-0.663-0.666zM10.667 11.333h-6.667v-8.667h6.667v1.333h-2.667c-0.369 0-0.667 0.298-0.667 0.667v5.079l2.157-1.079h1.176v2.667z"></path>
</svg>
