<svg xmlns="http://www.w3.org/2000/svg" width="24" height="24" viewBox="0 0 24 24"><path d="M20.116 6.181C18.503 7.262 17.369 8.996 17.08 11h4.869C21.771 9.212 21.113 7.567 20.116 6.181zM11 2.051C8.774 2.272 6.769 3.234 5.213 4.677 7.244 6.128 8.651 8.396 8.941 11H11V2.051zM3.884 17.819C5.497 16.738 6.631 15.004 6.92 13H2.051C2.229 14.788 2.887 16.433 3.884 17.819zM13 11h2.059c.29-2.604 1.697-4.872 3.729-6.323C17.231 3.234 15.226 2.272 13 2.051V11zM20.116 17.819c.997-1.387 1.654-3.031 1.833-4.819H17.08C17.369 15.004 18.503 16.738 20.116 17.819zM3.884 6.181C2.887 7.567 2.229 9.212 2.051 11H6.92C6.631 8.996 5.497 7.262 3.884 6.181zM13 21.949c2.226-.222 4.231-1.184 5.787-2.626-2.031-1.451-3.438-3.719-3.729-6.323H13V21.949zM5.213 19.323c1.556 1.442 3.562 2.404 5.787 2.626V13H8.941C8.651 15.604 7.244 17.872 5.213 19.323z"/></svg>