<svg xmlns="http://www.w3.org/2000/svg" width="24" height="24" viewBox="0 0 24 24"><path d="M21 5h-3.586l-2.707-2.707C14.52 2.105 14.266 2 14 2h-4C9.734 2 9.48 2.105 9.293 2.293L8.207 3.379l4.759 4.759c1.405.365 2.531 1.491 2.896 2.897L22 17.172V6C22 5.448 21.553 5 21 5zM3 20h15.586l1.707 1.707 1.414-1.414-18-18L2.293 3.707 3.586 5H3C2.447 5 2 5.448 2 6v13C2 19.553 2.447 20 3 20zM10.088 11.502c-.162.667-.001 1.413.498 1.912s1.245.66 1.912.498l1.505 1.505C13.409 15.777 12.729 16 12 16c-2.168 0-4-1.832-4-4 0-.729.223-1.409.583-2.003L10.088 11.502z"/></svg>