<!-- Generated by IcoMoon.io -->
<svg version="1.1" xmlns="http://www.w3.org/2000/svg" width="16" height="16" viewBox="0 0 16 16">
<title>bxs-user-circle</title>
<path d="M8 1.333c-3.614 0-6.667 3.053-6.667 6.667s3.053 6.667 6.667 6.667 6.667-3.053 6.667-6.667-3.053-6.667-6.667-6.667zM11.663 11.831c-0.767-0.925-2.12-1.623-3.663-1.623s-2.897 0.697-3.663 1.623c-1.021-0.979-1.67-2.344-1.67-3.831 0-2.891 2.442-5.333 5.333-5.333s5.333 2.442 5.333 5.333c0 1.487-0.649 2.852-1.67 3.831z"></path>
<path d="M8 4.667c-1.281 0-2.333 1.049-2.333 2.333 0 1.281 1.052 2.333 2.333 2.333s2.333-1.052 2.333-2.333c0-1.284-1.051-2.333-2.333-2.333z"></path>
</svg>
