<!-- Generated by IcoMoon.io -->
<svg version="1.1" xmlns="http://www.w3.org/2000/svg" width="16" height="16" viewBox="0 0 16 16">
<title>bxs-bus</title>
<path d="M14 6v-1.986c0.002-0.097-0.005-0.977-0.867-1.823-0.849-0.833-1.705-0.857-1.8-0.857h-6.669c-0.159 0-0.995 0.042-1.805 0.868-0.835 0.851-0.859 1.705-0.859 1.799v2h-0.667v2h0.667v4.667c0 0.369 0.298 0.667 0.667 0.667h0.667v0.667c0 0.369 0.298 0.667 0.667 0.667h1.333c0.369 0 0.667-0.298 0.667-0.667v-0.667h4v0.667c0 0.369 0.298 0.667 0.667 0.667h1.333c0.369 0 0.667-0.298 0.667-0.667v-0.667h0.667c0.369 0 0.667-0.298 0.667-0.667v-4.667h0.667v-2h-0.667zM6 2.667h4v1.333h-4v-1.333zM4.667 11.327h-1.333v-1.327h1.333v1.327zM7.333 8.667h-4v-3.333h4v3.333zM12.667 11.327h-1.333v-1.327h1.333v1.327zM12.667 8.667h-4v-3.333h4v3.333z"></path>
</svg>
