<!-- Generated by IcoMoon.io -->
<svg version="1.1" xmlns="http://www.w3.org/2000/svg" width="16" height="16" viewBox="0 0 16 16">
<title>bxs-gift</title>
<path d="M7.333 14.667v-5.333h-4.667v4.667c0 0.368 0.298 0.667 0.667 0.667v0h4zM13.333 14v-4.667h-4.667v5.333h4c0.368 0 0.667-0.298 0.667-0.667v0zM14 4.667h-1.473c0.089-0.283 0.14-0.609 0.14-0.947 0-0.019-0-0.037-0-0.056l0 0.003c0-1.287-1.047-2.333-2.333-2.333-1.081 0-1.803 0.988-2.269 2.057-0.459-1.010-1.218-2.057-2.397-2.057-1.287 0-2.333 1.047-2.333 2.333 0 0.397 0.053 0.726 0.139 1h-1.473c-0.368 0-0.667 0.298-0.667 0.667v0 2c0 0.368 0.298 0.667 0.667 0.667v0h5.333v-1.333h1.333v1.333h5.333c0.368 0 0.667-0.298 0.667-0.667v0-2c0-0.368-0.298-0.667-0.667-0.667v0zM10.333 2.667c0.551 0 1 0.449 1 1 0 1-0.417 1-0.667 1h-1.652c0.341-1.051 0.835-2 1.319-2zM4.667 3.667c0-0.551 0.449-1 1-1 0.592 0 1.143 1.017 1.465 2h-1.799c-0.249 0-0.667 0-0.667-1z"></path>
</svg>
