<svg xmlns="http://www.w3.org/2000/svg" width="24" height="24" viewBox="0 0 24 24"><path d="M19,4h1V2h-1H4.957H4v2h1.022c0,3.3,1.16,5.514,3.978,7.525v0.95C6.166,14.495,5,16.709,5,20H4v2h1h14h1v-2h-1	c0-3.291-1.166-5.505-4-7.525v-0.949C17.834,9.505,19,7.291,19,4z M10.555,13.832L11,13.535V17H7.565	C8.097,15.82,9.035,14.845,10.555,13.832z M16.435,17H13v-3.465l0.445,0.297C14.965,14.845,15.903,15.82,16.435,17z M14.946,9h-5.89	C7.598,7.648,7.027,6.191,7.022,4H17C17,6.178,16.427,7.637,14.946,9z"/></svg>