<svg xmlns="http://www.w3.org/2000/svg" width="24" height="24" viewBox="0 0 24 24"><path d="M20,3h-9C9.897,3,9,3.897,9,5v2H4C2.897,7,2,7.897,2,9v7c0,1.103,0.897,2,2,2h1v3c0,0.404,0.243,0.769,0.617,0.924 C5.741,21.975,5.871,22,6,22c0.26,0,0.516-0.102,0.707-0.293L10.414,18H13c1.103,0,2-0.897,2-2v-0.586l2.293,2.293 C17.484,17.898,17.74,18,18,18c0.129,0,0.259-0.025,0.383-0.076C18.757,17.769,19,17.404,19,17v-3h1c1.103,0,2-0.897,2-2V5 C22,3.897,21.103,3,20,3z M13,16h-3H9.586l-0.293,0.293L7,18.586V18v-1v-1H6H5H4V9h6h3v3v1v1V16z"/></svg>