<!-- Generated by IcoMoon.io -->
<svg version="1.1" xmlns="http://www.w3.org/2000/svg" width="16" height="16" viewBox="0 0 16 16">
<title>bxs-book-bookmark</title>
<path d="M13.267 4.377l-1.285-2.667c-0.11-0.23-0.344-0.377-0.6-0.377h-7.381c-0.804 0-2 0.533-2 2v9.333c0 1.467 1.196 2 2 2h8.667c0.369 0 0.667-0.298 0.667-0.667v-9.333c0-0.104-0.029-0.2-0.071-0.288l0.004-0.002zM3.333 3.333c0-0.537 0.367-0.659 0.667-0.667h6.963l0.643 1.333h-7.597c-0.308-0.008-0.675-0.129-0.675-0.667zM11.333 9.333l-1.333-0.667-1.333 0.667v-4h2.667v4z"></path>
</svg>
