<svg xmlns="http://www.w3.org/2000/svg" width="24" height="24" viewBox="0 0 24 24"><path d="M21.979,9.652C21.802,7.044,19.615,5,17,5H7C4.321,5,2.142,7.076,2.013,9.737C2.003,9.816,2,9.898,2,9.99v6.51 c0,0.925,0.373,1.828,1.022,2.476C3.672,19.627,4.575,20,5.5,20c1.8,0,2.854-1.004,4.19-2.276c0.236-0.226,1.1-0.646,1.54-0.751 c0.25-0.059,1.289-0.059,1.539,0c0.44,0.104,1.304,0.525,1.541,0.752C15.646,18.996,16.7,20,18.5,20 c0.925,0,1.828-0.373,2.476-1.022C21.627,18.328,22,17.425,22,16.5V10c0-0.095-0.004-0.18-0.014-0.26 C21.984,9.712,21.981,9.683,21.979,9.652z M8,13c-1.105,0-2-0.895-2-2s0.895-2,2-2s2,0.895,2,2S9.105,13,8,13z M16,8 c0.553,0,1,0.447,1,1s-0.447,1-1,1s-1-0.447-1-1S15.447,8,16,8z M14,12c-0.553,0-1-0.447-1-1s0.447-1,1-1s1,0.447,1,1 S14.553,12,14,12z M16,14c-0.553,0-1-0.447-1-1s0.447-1,1-1s1,0.447,1,1S16.553,14,16,14z M18,12c-0.553,0-1-0.447-1-1s0.447-1,1-1 s1,0.447,1,1S18.553,12,18,12z"/></svg>