<svg xmlns="http://www.w3.org/2000/svg" width="24" height="24"><path fill="none" d="M15.414 14H17v-2h-3.586zM13 8h-2v1.586l2 2z"/><path d="M20.294 6.708l-3.01-3 1.411-1.417 3.01 3zM21 13c0-4.879-4.121-9-9-9-1.838 0-3.563.591-5.006 1.58L5.91 4.496l.788-.79-1.416-1.412-.786.788-.789-.789-1.414 1.414 18 18 1.414-1.414-2.287-2.287C20.409 16.563 21 14.838 21 13zm-4 1h-1.586l-2-2H17v2zm-6-6h2v3.586l-2-2V8zM12 22a8.792 8.792 0 0 0 4.574-1.305L5.766 9.887 4.305 8.426A8.792 8.792 0 0 0 3 13c0 4.879 4.121 9 9 9z"/></svg>