<!-- Generated by IcoMoon.io -->
<svg version="1.1" xmlns="http://www.w3.org/2000/svg" width="16" height="16" viewBox="0 0 16 16">
<title>bxs-phone-call</title>
<path d="M13.333 7.333h1.333c0-3.42-2.582-5.999-6.007-5.999v1.333c2.708 0 4.673 1.962 4.673 4.666z"></path>
<path d="M8.667 5.333c1.402 0 2 0.598 2 2h1.333c0-2.15-1.183-3.333-3.333-3.333v1.333z"></path>
<path d="M9.533 9.329l-1.107 1.107c-0.385-0.073-1.156-0.314-1.951-1.107-0.795-0.795-1.035-1.569-1.107-1.951l1.575-1.574-3.609-3.609-1.134 1.134c-0.116 0.116-0.185 0.269-0.194 0.433-0.010 0.167-0.201 4.115 2.861 7.177 2.671 2.671 6.016 2.866 6.937 2.866 0.135 0 0.217-0.004 0.239-0.005 0.163-0.009 0.317-0.078 0.433-0.194l1.131-1.131-3.609-3.609-0.464 0.464z"></path>
</svg>
