<svg xmlns="http://www.w3.org/2000/svg" width="24" height="24"><path fill="none" d="M12 4c-4.337 0-8 3.663-8 8 0 2.508 1.229 4.785 3.101 6.265C7.564 16.537 9.593 15 12 15c2.155 0 4.833 1.628 5.233 2.984C18.915 16.506 20 14.355 20 12c0-4.337-3.663-8-8-8zm0 9c-1.438 0-2.5-1.061-2.5-2.5S10.562 8 12 8s2.5 1.061 2.5 2.5S13.438 13 12 13z"/><path d="M12 2C6.579 2 2 6.579 2 12s4.579 10 10 10 10-4.579 10-10S17.421 2 12 2zm5.233 15.984C16.833 16.628 14.155 15 12 15c-2.407 0-4.436 1.537-4.899 3.265C5.229 16.785 4 14.508 4 12c0-4.337 3.663-8 8-8s8 3.663 8 8c0 2.355-1.085 4.506-2.767 5.984z"/><path d="M12 8c-1.438 0-2.5 1.061-2.5 2.5S10.562 13 12 13s2.5-1.061 2.5-2.5S13.438 8 12 8z"/></svg>