<!-- Generated by IcoMoon.io -->
<svg version="1.1" xmlns="http://www.w3.org/2000/svg" width="16" height="16" viewBox="0 0 16 16">
<title>bxs-crown</title>
<path d="M14 2.667c-0.002-0.367-0.3-0.665-0.668-0.665-0.209 0-0.396 0.096-0.518 0.247l-0.001 0.001-2.146 2.683-2.146-2.683c-0.254-0.317-0.788-0.317-1.042 0l-2.145 2.683-2.146-2.683c-0.123-0.152-0.31-0.248-0.519-0.248-0.368 0-0.666 0.297-0.668 0.664v7.334h12v-7.333zM2.667 14h10.667c0.368 0 0.667-0.298 0.667-0.667v0-2h-12v2c0 0.368 0.298 0.667 0.667 0.667v0z"></path>
</svg>
