<svg xmlns="http://www.w3.org/2000/svg" width="24" height="24" viewBox="0 0 24 24"><path d="M19,4h1V2h-2H5.99H4v2h1.022c0,3.3,1.651,5.083,3.978,7.414v1.172C6.58,15.011,5,16.716,5,20H4v2h1.615H6h12h2v-2h-1	c0-3.284-1.58-4.989-4-7.414v-1.172C17.42,8.989,19,7.284,19,4z M13.293,13.707c0.473,0.473,0.887,0.892,1.269,1.293H9.438	c0.382-0.401,0.796-0.82,1.269-1.293C10.895,13.52,11,13.265,11,13v-2c0-0.265-0.105-0.52-0.293-0.707	C8.163,7.749,7.032,6.513,7.022,4H17c0,2.586-1.239,3.825-3.707,6.293C13.105,10.48,13,10.735,13,11v2	C13,13.265,13.105,13.52,13.293,13.707z"/></svg>