<svg xmlns="http://www.w3.org/2000/svg" width="24" height="24" viewBox="0 0 24 24"><path d="M20 19v-5h-1-1-5v6h6C19.553 20 20 19.553 20 19zM11 20v-6H6 5 4v5c0 .553.448 1 1 1H11zM21 7h-2.209C18.922 6.589 19 6.096 19 5.5 19 3.57 17.43 2 15.5 2c-1.689 0-2.803 1.434-3.5 2.882C11.303 3.434 10.19 2 8.5 2 6.57 2 5 3.57 5 5.5 5 6.096 5.079 6.589 5.209 7H3C2.448 7 2 7.448 2 8v3c0 .552.448 1 1 1h8V9h2v3h8c.553 0 1-.448 1-1V8C22 7.448 21.553 7 21 7zM15.5 4C16.327 4 17 4.673 17 5.5 17 7 16.374 7 16 7h-2.694C13.757 5.632 14.557 4 15.5 4zM7 5.5C7 4.673 7.673 4 8.5 4c.888 0 1.714 1.525 2.198 3H8C7.626 7 7 7 7 5.5z"/></svg>