<!-- Generated by IcoMoon.io -->
<svg version="1.1" xmlns="http://www.w3.org/2000/svg" width="16" height="16" viewBox="0 0 16 16">
<title>bxs-bulb</title>
<path d="M6 13.333h4v1.333h-4zM11.271 9.141c0.687-0.804 1.396-1.635 1.396-3.141 0-2.573-2.094-4.667-4.667-4.667s-4.667 2.094-4.667 4.667c0 1.523 0.711 2.352 1.401 3.153 0.239 0.279 0.486 0.567 0.723 0.899 0.096 0.137 0.253 0.664 0.394 1.281h-0.528v1.333h5.355v-1.333h-0.527c0.142-0.618 0.3-1.146 0.395-1.283 0.235-0.335 0.484-0.627 0.725-0.909zM8 2.667c1.78 0.002 3.222 1.444 3.224 3.224v0h-1.333c-0.002-1.044-0.847-1.889-1.891-1.891h-0v-1.333z"></path>
</svg>
