<!-- Generated by IcoMoon.io -->
<svg version="1.1" xmlns="http://www.w3.org/2000/svg" width="16" height="16" viewBox="0 0 16 16">
<title>bxs-train</title>
<path d="M12.6 2.2c-0.8-0.867-1.6-0.867-1.667-0.867h-5.867c-0.133 0-0.933 0.067-1.667 0.933s-0.733 1.667-0.733 1.733v8c0 0.4 0.267 0.667 0.667 0.667h1.333l-1.333 2h1.6l0.467-0.667h5.333l0.467 0.667h1.533l-1.333-2h1.333c0.4 0 0.667-0.267 0.667-0.667v-8c-0.067-0.133-0.067-0.933-0.8-1.8zM6.667 2.667h2.667v1.333h-2.667v-1.333zM5.333 11.333h-1.333v-1.333h1.333v1.333zM12 11.333h-1.333v-1.333h1.333v1.333zM12 8.667h-8v-3.333h8v3.333z"></path>
</svg>
