<svg xmlns="http://www.w3.org/2000/svg" width="24" height="24" viewBox="0 0 24 24"><path d="M3.999,3v18c0,0.553,0.447,1,1,1h14c0.553,0,1-0.447,1-1V3c0-0.552-0.447-1-1-1h-14C4.446,2,3.999,2.448,3.999,3z M5.999,4 h12v16h-12V4z"/><path d="M7.999 6H15.998999999999999V8H7.999zM7.999 10H9.998999999999999V12H7.999zM10.999 10H12.999V12H10.999zM7.999 13H9.998999999999999V15H7.999zM10.999 13H12.999V15H10.999zM7.999 16H9.998999999999999V18H7.999zM10.999 16H12.999V18H10.999zM13.999 10H15.999V12H13.999zM13.999 13H15.999V18H13.999z"/></svg>