<?xml version="1.0" encoding="utf-8"?>
<!-- Generator: Adobe Illustrator 16.0.0, SVG Export Plug-In . SVG Version: 6.00 Build 0)  -->
<!DOCTYPE svg PUBLIC "-//W3C//DTD SVG 1.1//EN" "http://www.w3.org/Graphics/SVG/1.1/DTD/svg11.dtd">
<svg version="1.1" id="Layer_1" xmlns="http://www.w3.org/2000/svg" xmlns:xlink="http://www.w3.org/1999/xlink" x="0px" y="0px"
	 width="24px" height="24px" viewBox="0 0 24 24" enable-background="new 0 0 24 24" xml:space="preserve">
<g>
	<path d="M3.999,3v18c0,0.553,0.447,1,1,1h14c0.553,0,1-0.447,1-1V3c0-0.552-0.447-1-1-1h-14C4.446,2,3.999,2.448,3.999,3z M5.999,4
		h12v16h-12V4z"/>
	<rect x="7.999" y="6" width="8" height="2"/>
	<rect x="7.999" y="10" width="2" height="2"/>
	<rect x="10.999" y="10" width="2" height="2"/>
	<rect x="7.999" y="13" width="2" height="2"/>
	<rect x="10.999" y="13" width="2" height="2"/>
	<rect x="7.999" y="16" width="2" height="2"/>
	<rect x="10.999" y="16" width="2" height="2"/>
	<rect x="13.999" y="10" width="2" height="2"/>
	<rect x="13.999" y="13" width="2" height="5"/>
</g>
</svg>
