<?xml version="1.0" encoding="utf-8"?>
<!-- Generator: Adobe Illustrator 16.0.0, SVG Export Plug-In . SVG Version: 6.00 Build 0)  -->
<!DOCTYPE svg PUBLIC "-//W3C//DTD SVG 1.1//EN" "http://www.w3.org/Graphics/SVG/1.1/DTD/svg11.dtd">
<svg version="1.1" id="Layer_1" xmlns="http://www.w3.org/2000/svg" xmlns:xlink="http://www.w3.org/1999/xlink" x="0px" y="0px"
	 width="24px" height="24px" viewBox="0 0 24 24" enable-background="new 0 0 24 24" xml:space="preserve">
<g>
	<path d="M4,10h16v3.99h2V5c0-0.553-0.447-1-1-1h-4V2h-2v2H9V2H7v2H3C2.447,4,2,4.447,2,5v16c0,0.553,0.447,1,1,1h10v-2H4V10z M7,6
		v1h2V6h6v1h2V6h3v2H4V6H7z"/>
	<rect x="7" y="12" width="2" height="2"/>
	<rect x="7" y="16" width="2" height="2"/>
	<rect x="11" y="12" width="2" height="2"/>
	<polygon points="17,19.586 15.707,18.293 14.293,19.707 17,22.414 22.707,16.707 21.293,15.293 	"/>
</g>
</svg>
