<?xml version="1.0" encoding="utf-8"?>
<!-- Generator: Adobe Illustrator 16.0.0, SVG Export Plug-In . SVG Version: 6.00 Build 0)  -->
<!DOCTYPE svg PUBLIC "-//W3C//DTD SVG 1.1//EN" "http://www.w3.org/Graphics/SVG/1.1/DTD/svg11.dtd">
<svg version="1.1" id="Layer_1" xmlns="http://www.w3.org/2000/svg" xmlns:xlink="http://www.w3.org/1999/xlink" x="0px" y="0px"
	 width="24px" height="24px" viewBox="0 0 24 24" enable-background="new 0 0 24 24" xml:space="preserve">
<g>
	<path d="M3,22h18c0.553,0,1-0.448,1-1V5c0-0.552-0.447-1-1-1h-4V2h-2v2H9V2H7v2H3C2.447,4,2,4.448,2,5v16C2,21.552,2.447,22,3,22z
		 M4,6h3v1h2V6h6v1h2V6h3v2H4V6z M4,10h16v10H4V10z"/>
	<rect x="7" y="12" width="2" height="2"/>
	<rect x="7" y="16" width="2" height="2"/>
	<rect x="11" y="12" width="2" height="2"/>
	<rect x="11" y="16" width="2" height="2"/>
	<rect x="15" y="12" width="2" height="2"/>
	<rect x="15" y="16" width="2" height="2"/>
</g>
</svg>
