<?xml version="1.0" encoding="utf-8"?>
<!-- Generator: Adobe Illustrator 16.0.0, SVG Export Plug-In . SVG Version: 6.00 Build 0)  -->
<!DOCTYPE svg PUBLIC "-//W3C//DTD SVG 1.1//EN" "http://www.w3.org/Graphics/SVG/1.1/DTD/svg11.dtd">
<svg version="1.1" id="Layer_1" xmlns="http://www.w3.org/2000/svg" xmlns:xlink="http://www.w3.org/1999/xlink" x="0px" y="0px"
	 width="24px" height="24px" viewBox="0 0 24 24" enable-background="new 0 0 24 24" xml:space="preserve">
<g>
	<polygon points="20.293,14.293 18,16.586 15.707,14.293 14.293,15.707 16.586,18 14.293,20.293 15.707,21.707 18,19.414 
		20.293,21.707 21.707,20.293 19.414,18 21.707,15.707 	"/>
	<path d="M21,4h-4V2h-2v2H9V2H7v2H3C2.447,4,2,4.447,2,5v16c0,0.553,0.447,1,1,1h10v-2H4V10h16v2.989h2V5C22,4.447,21.553,4,21,4z
		 M4,8V6h3v1h2V6h6v1h2V6h3v2H4z"/>
	<rect x="7" y="12" width="2" height="2"/>
	<rect x="7" y="16" width="2" height="2"/>
	<rect x="11" y="12" width="2" height="2"/>
</g>
</svg>
