<svg xmlns="http://www.w3.org/2000/svg" width="24" height="24"><path d="M21 6h-3.586l-2.707-2.707A.996.996 0 0 0 14 3h-4a.997.997 0 0 0-.707.293l-.586.586 1.414 1.414.293-.293h3.172l2.707 2.707A.996.996 0 0 0 17 8h3v7.172l2 2V7a1 1 0 0 0-1-1zM3 20h15.586l1.707 1.707 1.414-1.414-18-18-1.414 1.414L4.586 6H3a1 1 0 0 0-1 1v12a1 1 0 0 0 1 1zm7.079-8.507l2.428 2.428A1.755 1.755 0 0 1 12 14c-1.065 0-2-.935-2-2 0-.175.03-.344.079-.507zM4 8h2.586l1.997 1.997A3.855 3.855 0 0 0 8 12c0 2.168 1.832 4 4 4 .729 0 1.409-.223 2.003-.583L16.586 18H4V8z"/></svg>