<svg xmlns="http://www.w3.org/2000/svg" width="24" height="24" viewBox="0 0 24 24"><path d="M12,8c-2.168,0-4,1.832-4,4c0,2.168,1.832,4,4,4s4-1.832,4-4C16,9.832,14.168,8,12,8z M12,14c-1.065,0-2-0.935-2-2 s0.935-2,2-2s2,0.935,2,2S13.065,14,12,14z"/><path d="M3,20h18c0.553,0,1-0.447,1-1V7c0-0.552-0.447-1-1-1h-3.586l-2.707-2.707C14.52,3.105,14.266,3,14,3h-4 C9.734,3,9.48,3.105,9.293,3.293L6.586,6H3C2.447,6,2,6.448,2,7v12C2,19.553,2.447,20,3,20z M4,8h3c0.266,0,0.52-0.105,0.707-0.293 L10.414,5h3.172l2.707,2.707C16.48,7.895,16.734,8,17,8h3v10H4V8z"/></svg>