<svg xmlns="http://www.w3.org/2000/svg" width="24" height="24" viewBox="0 0 24 24"><path d="M21 6h-3.586l-2.707-2.707C14.52 3.105 14.266 3 14 3h-4C9.735 3 9.48 3.105 9.293 3.293L8.707 3.879l1.414 1.414L10.414 5h3.172l2.707 2.707C16.48 7.895 16.734 8 17 8h3v7.172l2 2V7C22 6.448 21.553 6 21 6zM3 20h15.586l1.707 1.707 1.414-1.414-18-18L2.293 3.707 4.586 6H3C2.448 6 2 6.448 2 7v12C2 19.552 2.448 20 3 20zM10.079 11.493l2.428 2.428C12.344 13.97 12.175 14 12 14c-1.065 0-2-.935-2-2C10 11.825 10.03 11.656 10.079 11.493zM4 8h2.586l1.997 1.997C8.223 10.591 8 11.271 8 12c0 2.168 1.832 4 4 4 .729 0 1.409-.223 2.003-.583L16.586 18H4V8z"/></svg>