<?xml version="1.0" encoding="utf-8"?>
<!-- Generator: Adobe Illustrator 16.0.0, SVG Export Plug-In . SVG Version: 6.00 Build 0)  -->
<!DOCTYPE svg PUBLIC "-//W3C//DTD SVG 1.1//EN" "http://www.w3.org/Graphics/SVG/1.1/DTD/svg11.dtd">
<svg version="1.1" id="Layer_1" xmlns="http://www.w3.org/2000/svg" xmlns:xlink="http://www.w3.org/1999/xlink" x="0px" y="0px"
	 width="24px" height="24px" viewBox="0 0 24 24" enable-background="new 0 0 24 24" xml:space="preserve">
<g>
	<path d="M7.071,16.371C7.224,16.751,7.591,17,8,17h8c0.4,0,0.762-0.238,0.919-0.606l3-7c0.133-0.309,0.101-0.663-0.084-0.944
		C19.649,8.169,19.336,8,19,8H5.877L4.929,5.629C4.776,5.249,4.409,5,4,5H2v2h1.323L7.071,16.371z M17.483,10l-2.143,5H8.677l-2-5
		H17.483z"/>
	<circle cx="8.5" cy="20.5" r="1.5"/>
	<circle cx="15.5" cy="20.5" r="1.5"/>
</g>
</svg>
