<?xml version="1.0" encoding="utf-8"?>
<!-- Generator: Adobe Illustrator 16.0.0, SVG Export Plug-In . SVG Version: 6.00 Build 0)  -->
<!DOCTYPE svg PUBLIC "-//W3C//DTD SVG 1.1//EN" "http://www.w3.org/Graphics/SVG/1.1/DTD/svg11.dtd">
<svg version="1.1" id="Layer_1" xmlns="http://www.w3.org/2000/svg" xmlns:xlink="http://www.w3.org/1999/xlink" x="0px" y="0px"
	 width="24px" height="24px" viewBox="0 0 24 24" enable-background="new 0 0 24 24" xml:space="preserve">
<g>
	<path d="M20,5c0-0.553-0.447-1-1-1h-2V2h-2v2h-2V2h-2v2H9V2H7v2H5C4.447,4,4,4.447,4,5v2H2v2h2v2H2v2h2v2H2v2h2v2
		c0,0.553,0.447,1,1,1h2v2h2v-2h2v2h2v-2h2v2h2v-2h2c0.553,0,1-0.447,1-1v-2h2v-2h-2v-2h2v-2h-2V9h2V7h-2V5z M18,18H6V6h12V18z"/>
	<rect x="10" y="10" width="4" height="4"/>
</g>
</svg>
