<?xml version="1.0" encoding="utf-8"?>
<!-- Generator: Adobe Illustrator 16.0.0, SVG Export Plug-In . SVG Version: 6.00 Build 0)  -->
<!DOCTYPE svg PUBLIC "-//W3C//DTD SVG 1.1//EN" "http://www.w3.org/Graphics/SVG/1.1/DTD/svg11.dtd">
<svg version="1.1" id="Layer_1" xmlns="http://www.w3.org/2000/svg" xmlns:xlink="http://www.w3.org/1999/xlink" x="0px" y="0px"
	 width="24px" height="24px" viewBox="0 0 24 24" enable-background="new 0 0 24 24" xml:space="preserve">
<g>
	<path d="M12,2C6.58,2,2,6.579,2,12s4.58,10,10,10c5.421,0,10-4.579,10-10S17.421,2,12,2z M12,4c2.464,0,4.707,1.184,6.188,3H12
		c-1.831,0-3.419,1.001-4.29,2.474L6.363,6.385C7.822,4.921,9.826,4,12,4z M15,12c0,0.969-0.494,1.842-1.233,2.394l-0.023-0.019
		l-0.087,0.108C13.178,14.808,12.607,15,12,15c-1.626,0-3-1.374-3-3s1.374-3,3-3S15,10.374,15,12z M9.563,19.601
		C6.375,18.542,4,15.491,4,12c0-1.355,0.358-2.646,0.983-3.778l2.101,4.816l0.025-0.011c0.453,2.159,2.308,3.789,4.562,3.939
		L9.563,19.601z M20,12c0,4.337-3.663,8-8,8c-0.063,0-0.124-0.008-0.187-0.01l3.264-4.079C16.238,14.995,17,13.591,17,12
		c0-1.13-0.391-2.162-1.025-3h3.415C19.78,9.932,20,10.945,20,12z"/>
</g>
</svg>
