<svg xmlns="http://www.w3.org/2000/svg" width="24" height="24"><path d="M12 2C6.58 2 2 6.579 2 12s4.58 10 10 10c5.421 0 10-4.579 10-10S17.421 2 12 2zm0 2c2.464 0 4.707 1.184 6.188 3H12c-1.831 0-3.419 1.001-4.29 2.474L6.363 6.385C7.822 4.921 9.826 4 12 4zm3 8c0 .969-.494 1.842-1.233 2.394l-.023-.019-.087.108A2.948 2.948 0 0 1 12 15c-1.626 0-3-1.374-3-3s1.374-3 3-3 3 1.374 3 3zm-5.437 7.601C6.375 18.542 4 15.491 4 12c0-1.355.358-2.646.983-3.778l2.101 4.816.025-.011a4.995 4.995 0 0 0 4.562 3.939l-2.108 2.635zM20 12c0 4.337-3.663 8-8 8-.063 0-.124-.008-.187-.01l3.264-4.079C16.238 14.995 17 13.591 17 12c0-1.13-.391-2.162-1.025-3h3.415c.39.932.61 1.945.61 3z"/></svg>