<?xml version="1.0" encoding="utf-8"?>
<!-- Generator: Adobe Illustrator 16.0.0, SVG Export Plug-In . SVG Version: 6.00 Build 0)  -->
<!DOCTYPE svg PUBLIC "-//W3C//DTD SVG 1.1//EN" "http://www.w3.org/Graphics/SVG/1.1/DTD/svg11.dtd">
<svg version="1.1" id="Layer_1" xmlns="http://www.w3.org/2000/svg" xmlns:xlink="http://www.w3.org/1999/xlink" x="0px" y="0px"
	 width="24px" height="24px" viewBox="0 0 24 24" enable-background="new 0 0 24 24" xml:space="preserve">
<g>
	<polygon points="11,10 11,14 8,14 12,18 16,14 13,14 13,10 	"/>
	<path d="M7,18h2l-2-2c-1.654,0-3-1.346-3-3c0-1.404,1.199-2.756,2.673-3.015l0.581-0.102l0.192-0.558C8.149,7.274,9.895,6,12,6
		c2.757,0,5,2.243,5,5v1h1c1.103,0,2,0.897,2,2c0,1.103-0.897,2-2,2h-1l-2,2h3c2.206,0,4-1.794,4-4c0-1.88-1.305-3.462-3.056-3.888
		C18.507,6.67,15.56,4,12,4C9.244,4,6.85,5.611,5.757,8.15C3.609,8.792,2,10.82,2,13C2,15.757,4.243,18,7,18z"/>
</g>
</svg>
