<?xml version="1.0" encoding="utf-8"?>
<!-- Generator: Adobe Illustrator 16.0.0, SVG Export Plug-In . SVG Version: 6.00 Build 0)  -->
<!DOCTYPE svg PUBLIC "-//W3C//DTD SVG 1.1//EN" "http://www.w3.org/Graphics/SVG/1.1/DTD/svg11.dtd">
<svg version="1.1" id="Layer_1" xmlns="http://www.w3.org/2000/svg" xmlns:xlink="http://www.w3.org/1999/xlink" x="0px" y="0px"
	 width="24px" height="24px" viewBox="0 0 24 24" enable-background="new 0 0 24 24" xml:space="preserve">
<g>
	<path d="M18.944,10.112C18.507,6.67,15.56,4,12,4C9.244,4,6.85,5.611,5.757,8.15C3.609,8.792,2,10.82,2,13c0,2.757,2.243,5,5,5h11
		c2.206,0,4-1.794,4-4C22,12.12,20.695,10.538,18.944,10.112z M18,16H7c-1.654,0-3-1.346-3-3c0-1.404,1.199-2.756,2.673-3.015
		l0.581-0.102l0.192-0.558C8.149,7.274,9.895,6,12,6c2.757,0,5,2.243,5,5v1h1c1.103,0,2,0.897,2,2S19.103,16,18,16z"/>
</g>
</svg>
