<svg xmlns="http://www.w3.org/2000/svg" width="24" height="24" viewBox="0 0 24 24"><path d="M8 12H10V15H8zM8 16H10V19H8zM11 14H13V17H11zM11 18H13V21H11zM14 12H16V15H14zM14 16H16V19H14z"/><path d="M18.944,9.112C18.507,5.67,15.56,3,12,3C9.245,3,6.85,4.611,5.757,7.15C3.609,7.792,2,9.819,2,12c0,2.757,2.243,5,5,5v-2 c-1.654,0-3-1.346-3-3c0-1.403,1.199-2.756,2.673-3.015l0.582-0.103l0.191-0.559C8.149,6.273,9.895,5,12,5c2.757,0,5,2.243,5,5v1h1 c1.103,0,2,0.897,2,2s-0.897,2-2,2h-1v2h1c2.206,0,4-1.794,4-4C22,11.119,20.695,9.538,18.944,9.112z"/></svg>