<?xml version="1.0" encoding="utf-8"?>
<!-- Generator: Adobe Illustrator 16.0.0, SVG Export Plug-In . SVG Version: 6.00 Build 0)  -->
<!DOCTYPE svg PUBLIC "-//W3C//DTD SVG 1.1//EN" "http://www.w3.org/Graphics/SVG/1.1/DTD/svg11.dtd">
<svg version="1.1" id="Layer_1" xmlns="http://www.w3.org/2000/svg" xmlns:xlink="http://www.w3.org/1999/xlink" x="0px" y="0px"
	 width="24px" height="24px" viewBox="0 0 24 24" enable-background="new 0 0 24 24" xml:space="preserve">
<g>
	<polygon points="10,13 9,18 11,18 11,22 14.975,16 13,16 14,13 	"/>
	<path d="M18.944,10.112C18.507,6.67,15.56,4,12,4C9.244,4,6.85,5.611,5.757,8.15C3.609,8.792,2,10.819,2,13c0,2.757,2.243,5,5,5v-2
		c-1.654,0-3-1.346-3-3c0-1.403,1.199-2.756,2.673-3.015l0.581-0.103l0.192-0.559C8.149,7.273,9.895,6,12,6c2.757,0,5,2.243,5,5v1h1
		c1.103,0,2,0.897,2,2s-0.897,2-2,2h-1v2h1c2.206,0,4-1.794,4-4C22,12.119,20.695,10.538,18.944,10.112z"/>
</g>
</svg>
