<?xml version="1.0" encoding="utf-8"?>
<!-- Generator: Adobe Illustrator 16.0.0, SVG Export Plug-In . SVG Version: 6.00 Build 0)  -->
<!DOCTYPE svg PUBLIC "-//W3C//DTD SVG 1.1//EN" "http://www.w3.org/Graphics/SVG/1.1/DTD/svg11.dtd">
<svg version="1.1" id="Layer_1" xmlns="http://www.w3.org/2000/svg" xmlns:xlink="http://www.w3.org/1999/xlink" x="0px" y="0px"
	 width="24px" height="24px" viewBox="0 0 24 24" enable-background="new 0 0 24 24" xml:space="preserve">
<g>
	<path d="M19,8c0-4.736-3.269-5.996-4.998-6l-0.013,2C14.297,4.006,17,4.173,17,8c0,1.993,0.831,3.246,1.877,4
		C17.831,12.754,17,14.007,17,16c0,3.827-2.703,3.994-3.011,4L14,21l0.002,1C15.731,21.996,19,20.736,19,16c0-2.823,2.504-2.994,3-3
		l0.006-2C21.504,10.994,19,10.823,19,8z"/>
	<path d="M5,16c0,4.736,3.269,5.996,4.998,6l0.013-2C9.703,19.994,7,19.827,7,16c0-1.993-0.831-3.246-1.877-4
		C6.169,11.246,7,9.993,7,8c0-3.827,2.703-3.994,3.011-4L10,3L9.998,2C8.269,2.004,5,3.264,5,8c0,2.823-2.504,2.994-3,3l-0.006,2
		C2.496,13.006,5,13.177,5,16z"/>
</g>
</svg>
