<svg xmlns="http://www.w3.org/2000/svg" width="24" height="24"><path d="M21.555 8.168l-9-6a.995.995 0 0 0-1.109 0l-9 6A1 1 0 0 0 2 9v6c0 .334.167.646.445.832l9 6a1 1 0 0 0 1.11 0l9-6c.278-.186.445-.498.445-.832V9c0-.334-.167-.646-.445-.832zM13 4.869L19.197 9 16.5 10.798 13 8.465V4.869zm-2 0v3.596l-3.5 2.333L4.803 9 11 4.869zm-7 5.999L5.697 12 4 13.132v-2.264zm7 8.263L4.803 15 7.5 13.202l3.5 2.333v3.596zm1-5.333L9.303 12 12 10.202 14.697 12 12 13.798zm1 5.333v-3.596l3.5-2.333L19.197 15 13 19.131zm7-5.999L18.303 12 20 10.868v2.264z"/></svg>