<svg xmlns="http://www.w3.org/2000/svg" width="24" height="24" viewBox="0 0 24 24"><path d="M21.555 8.168l-9-6a.995.995 0 0 0-1.109 0l-9 6A1 1 0 0 0 2 9v6c0 .334.167.646.445.832l9 6a1 1 0 0 0 1.11 0l9-6c.278-.186.445-.498.445-.832V9c0-.334-.167-.646-.445-.832zM20 13.132L18.303 12 20 10.868v2.264zm-3.5-2.334L13 8.465V4.869L19.197 9 16.5 10.798zm-4.5 3L9.303 12 12 10.202 14.697 12 12 13.798zm-1-8.929v3.596l-3.5 2.333L4.803 9 11 4.869zm-7 5.999L5.697 12 4 13.132v-2.264zm3.5 2.334l3.5 2.333v3.596L4.803 15 7.5 13.202zm5.5 5.929v-3.596l3.5-2.333L19.197 15 13 19.131z"/></svg>