<?xml version="1.0" encoding="utf-8"?>
<!-- Generator: Adobe Illustrator 16.0.0, SVG Export Plug-In . SVG Version: 6.00 Build 0)  -->
<!DOCTYPE svg PUBLIC "-//W3C//DTD SVG 1.1//EN" "http://www.w3.org/Graphics/SVG/1.1/DTD/svg11.dtd">
<svg version="1.1" id="Layer_1" xmlns="http://www.w3.org/2000/svg" xmlns:xlink="http://www.w3.org/1999/xlink" x="0px" y="0px"
	 width="24px" height="24px" viewBox="0 0 24 24" enable-background="new 0 0 24 24" xml:space="preserve">
<g>
	<path d="M21.555,8.168l-9-6c-0.336-0.225-0.773-0.225-1.109,0l-9,6C2.167,8.354,2,8.666,2,9v6c0,0.334,0.167,0.646,0.445,0.832l9,6
		C11.613,21.944,11.807,22,12,22s0.387-0.056,0.555-0.168l9-6C21.833,15.646,22,15.334,22,15V9C22,8.666,21.833,8.354,21.555,8.168z
		 M13,4.869L19.197,9L16.5,10.798L13,8.465V4.869z M11,4.869v3.596l-3.5,2.333L4.803,9L11,4.869z M4,10.868L5.697,12L4,13.132
		V10.868z M11,19.131L4.803,15L7.5,13.202l3.5,2.333V19.131z M12,13.798L9.303,12L12,10.202L14.697,12L12,13.798z M13,19.131v-3.596
		l3.5-2.333L19.197,15L13,19.131z M20,13.132L18.303,12L20,10.868V13.132z"/>
</g>
</svg>
