<?xml version="1.0" encoding="utf-8"?>
<!-- Generator: Adobe Illustrator 16.0.0, SVG Export Plug-In . SVG Version: 6.00 Build 0)  -->
<!DOCTYPE svg PUBLIC "-//W3C//DTD SVG 1.1//EN" "http://www.w3.org/Graphics/SVG/1.1/DTD/svg11.dtd">
<svg version="1.1" id="Layer_1" xmlns="http://www.w3.org/2000/svg" xmlns:xlink="http://www.w3.org/1999/xlink" x="0px" y="0px"
	 width="24px" height="24px" viewBox="0 0 24 24" enable-background="new 0 0 24 24" xml:space="preserve">
<g>
	<path d="M4,16c0,0.553,0.447,1,1,1h12c0.553,0,1-0.447,1-1v-3h3c0.553,0,1-0.447,1-1V7c0-0.553-0.447-1-1-1h-3V4
		c0-0.553-0.447-1-1-1H5C4.447,3,4,3.447,4,4V16z M20,8v3h-2V8H20z M6,5h10v10H6V5z"/>
	<rect x="4" y="19" width="14" height="2"/>
</g>
</svg>
