<svg xmlns="http://www.w3.org/2000/svg" width="24" height="24"><path d="M21 9h-1.58l-.051-.125 1.118-1.119a1 1 0 0 0 0-1.414l-2.83-2.83a1.003 1.003 0 0 0-.707-.292h-.002a.993.993 0 0 0-.707.295l-1.11 1.117A3.62 3.62 0 0 0 15 4.578V3a1 1 0 0 0-1-1h-4a1 1 0 0 0-1 1v1.573c-.045.017-.09.036-.135.055L7.759 3.515a1.005 1.005 0 0 0-.707-.295H7.05a.996.996 0 0 0-.707.293l-2.83 2.83a.997.997 0 0 0 0 1.414L4.626 8.87c-.019.043-.036.087-.054.13H3a1 1 0 0 0-1 1v4a1 1 0 0 0 1 1h1.576l.053.127-1.116 1.116a1 1 0 0 0 0 1.414l2.83 2.83a.999.999 0 0 0 1.414 0l1.119-1.118.124.051V21a1 1 0 0 0 1 1h4a1 1 0 0 0 1-1v-1.582l.123-.051 1.12 1.12a.999.999 0 0 0 1.414 0l2.83-2.83a1 1 0 0 0 0-1.414l-1.118-1.119.051-.125H21a1 1 0 0 0 1-1v-4A1 1 0 0 0 21 9zm-1 4h-1.29c-.442 0-.833.291-.959.715-.121.409-.274.78-.469 1.135a.999.999 0 0 0 .171 1.187l.913.913-1.416 1.416-.913-.913a1.001 1.001 0 0 0-1.188-.17 6.118 6.118 0 0 1-1.141.47c-.42.129-.708.517-.708.957V20h-2v-1.29a.999.999 0 0 0-.714-.958 5.745 5.745 0 0 1-1.136-.468 1.002 1.002 0 0 0-1.188.17l-.912.912-1.416-1.416.913-.913a1 1 0 0 0 .171-1.187 5.203 5.203 0 0 1-.464-1.117A1 1 0 0 0 5.29 13H4v-2h1.29a1 1 0 0 0 .964-.734c.11-.398.259-.758.454-1.1a1 1 0 0 0-.161-1.204l-.913-.912 1.414-1.414.903.909c.31.312.831.382 1.215.164a4.726 4.726 0 0 1 1.101-.455A1 1 0 0 0 11 5.29V4h2v1.29a1 1 0 0 0 .729.962c.374.105.751.262 1.121.464.382.209.895.137 1.199-.172l.903-.909 1.414 1.414-.913.913a1 1 0 0 0-.171 1.187c.194.355.348.726.469 1.135a1 1 0 0 0 .959.716H20v2z"/><path d="M11.997 7.995c-2.207 0-4.003 1.795-4.003 4.002S9.79 16 11.997 16 16 14.204 16 11.997s-1.796-4.002-4.003-4.002zm0 6.005a2.005 2.005 0 0 1-2.003-2.003c0-1.104.898-2.002 2.003-2.002S14 10.893 14 11.997A2.005 2.005 0 0 1 11.997 14z"/></svg>