<svg xmlns="http://www.w3.org/2000/svg" width="24" height="24" viewBox="0 0 24 24"><path d="M21,9h-1.58c-0.017-0.042-0.034-0.083-0.051-0.125l1.118-1.119c0.188-0.188,0.293-0.442,0.293-0.707 s-0.105-0.52-0.293-0.707l-2.83-2.83C17.47,3.326,17.216,3.22,16.95,3.22c-0.001,0-0.001,0-0.002,0 c-0.266,0-0.52,0.106-0.707,0.295l-1.11,1.117C15.087,4.613,15.044,4.595,15,4.578V3c0-0.552-0.447-1-1-1h-4C9.447,2,9,2.448,9,3 v1.573C8.955,4.59,8.91,4.609,8.865,4.628L7.759,3.515C7.571,3.327,7.317,3.221,7.052,3.22c-0.001,0-0.001,0-0.002,0 c-0.266,0-0.52,0.105-0.707,0.293l-2.83,2.83C3.325,6.53,3.22,6.785,3.22,7.05s0.105,0.52,0.293,0.707L4.626,8.87 C4.607,8.913,4.59,8.957,4.572,9H3c-0.553,0-1,0.448-1,1v4c0,0.552,0.447,1,1,1h1.576c0.017,0.042,0.034,0.084,0.053,0.127 l-1.116,1.116C3.325,16.431,3.22,16.685,3.22,16.95s0.105,0.52,0.293,0.707l2.83,2.83c0.391,0.391,1.023,0.391,1.414,0l1.119-1.118 C8.917,19.386,8.958,19.403,9,19.42V21c0,0.552,0.447,1,1,1h4c0.553,0,1-0.448,1-1v-1.582c0.041-0.017,0.082-0.034,0.123-0.051 l1.12,1.12c0.391,0.391,1.023,0.391,1.414,0l2.83-2.83c0.188-0.188,0.293-0.442,0.293-0.707s-0.105-0.52-0.293-0.707l-1.118-1.119 c0.017-0.042,0.034-0.083,0.051-0.125H21c0.553,0,1-0.448,1-1v-4C22,9.448,21.553,9,21,9z M20,13h-1.29 c-0.442,0-0.833,0.291-0.959,0.715c-0.121,0.409-0.274,0.78-0.469,1.135c-0.213,0.39-0.144,0.873,0.171,1.187l0.913,0.913 l-1.416,1.416l-0.913-0.913c-0.314-0.314-0.798-0.383-1.188-0.17c-0.335,0.183-0.719,0.341-1.141,0.47 C13.288,17.882,13,18.27,13,18.71V20h-2v-1.29c0-0.442-0.29-0.832-0.714-0.958c-0.414-0.123-0.785-0.276-1.136-0.468 c-0.39-0.213-0.872-0.144-1.188,0.17L7.05,18.366L5.634,16.95l0.913-0.913c0.314-0.314,0.384-0.797,0.171-1.187 c-0.211-0.386-0.363-0.751-0.464-1.117C6.134,13.3,5.74,13,5.29,13H4v-2h1.29c0.45,0,0.844-0.3,0.964-0.734 c0.11-0.398,0.259-0.758,0.454-1.1c0.224-0.392,0.158-0.885-0.161-1.204L5.634,7.05l1.414-1.414l0.903,0.909 c0.31,0.312,0.831,0.382,1.215,0.164c0.343-0.196,0.703-0.345,1.101-0.455C10.7,6.134,11,5.74,11,5.29V4h2v1.29 c0,0.448,0.298,0.841,0.729,0.962c0.374,0.105,0.751,0.262,1.121,0.464c0.382,0.209,0.895,0.137,1.199-0.172l0.903-0.909 l1.414,1.414l-0.913,0.913c-0.314,0.314-0.384,0.797-0.171,1.187c0.194,0.355,0.348,0.726,0.469,1.135 C17.877,10.709,18.268,11,18.71,11H20V13z"/><path d="M11.997,7.995c-2.207,0-4.003,1.795-4.003,4.002S9.79,16,11.997,16S16,14.204,16,11.997S14.204,7.995,11.997,7.995z M11.997,14c-1.104,0-2.003-0.898-2.003-2.003c0-1.104,0.898-2.002,2.003-2.002S14,10.893,14,11.997C14,13.102,13.102,14,11.997,14 z"/></svg>