<?xml version="1.0" encoding="utf-8"?>
<!-- Generator: Adobe Illustrator 16.0.0, SVG Export Plug-In . SVG Version: 6.00 Build 0)  -->
<!DOCTYPE svg PUBLIC "-//W3C//DTD SVG 1.1//EN" "http://www.w3.org/Graphics/SVG/1.1/DTD/svg11.dtd">
<svg version="1.1" id="Layer_1" xmlns="http://www.w3.org/2000/svg" xmlns:xlink="http://www.w3.org/1999/xlink" x="0px" y="0px"
	 width="24px" height="24px" viewBox="0 0 24 24" enable-background="new 0 0 24 24" xml:space="preserve">
<g>
	<polygon points="4.707,20.707 7.879,17.535 10,19.656 10,14 4.344,14 6.465,16.121 3.293,19.293 	"/>
	<polygon points="19.293,3.293 16.121,6.465 14,4.344 14,10 19.656,10 17.535,7.879 20.707,4.707 	"/>
	<polygon points="14,19.656 16.121,17.535 19.293,20.707 20.707,19.293 17.535,16.121 19.656,14 14,14 	"/>
	<polygon points="10,10 10,4.344 7.879,6.465 4.707,3.293 3.293,4.707 6.465,7.879 4.344,10 	"/>
</g>
</svg>
