<?xml version="1.0" encoding="utf-8"?>
<!-- Generator: Adobe Illustrator 16.0.0, SVG Export Plug-In . SVG Version: 6.00 Build 0)  -->
<!DOCTYPE svg PUBLIC "-//W3C//DTD SVG 1.1//EN" "http://www.w3.org/Graphics/SVG/1.1/DTD/svg11.dtd">
<svg version="1.1" id="Layer_1" xmlns="http://www.w3.org/2000/svg" xmlns:xlink="http://www.w3.org/1999/xlink" x="0px" y="0px"
	 width="24px" height="24px" viewBox="0 0 24 24" enable-background="new 0 0 24 24" xml:space="preserve">
<g>
	<polygon points="10,10 10,6 8.707,7.293 4.707,3.293 3.293,4.707 7.293,8.707 6,10 	"/>
	<polygon points="4.707,20.707 8.707,16.707 10,18 10,14 6,14 7.293,15.293 3.293,19.293 	"/>
	<polygon points="14,18 15.293,16.707 19.293,20.707 20.707,19.293 16.707,15.293 18,14 14,14 	"/>
	<polygon points="19.293,3.293 15.293,7.293 14,6 14,10 18,10 16.707,8.707 20.707,4.707 	"/>
</g>
</svg>
