<svg xmlns="http://www.w3.org/2000/svg" width="24" height="24" viewBox="0 0 24 24"><path d="M21,2H5.063c-0.553,0-1,0.447-1,1v4H2v2h2.063v2H2v2h2.063v2H2v2h2.063v4c0,0.553,0.447,1,1,1H21c0.553,0,1-0.447,1-1V3 C22,2.447,21.553,2,21,2z M20,20H6.063V4H20V20z"/><path d="M8,17h2c0-1.203,0.292-4,3-4s3,2.797,3,4h2c0-2.467-0.865-4.289-2.346-5.245c0.52-0.61,0.846-1.392,0.846-2.255 C16.5,7.57,14.93,6,13,6S9.5,7.57,9.5,9.5c0,0.863,0.326,1.645,0.846,2.255C8.865,12.711,8,14.533,8,17z M13,8 c0.827,0,1.5,0.673,1.5,1.5S13.827,11,13,11s-1.5-0.673-1.5-1.5S12.173,8,13,8z"/></svg>