<?xml version="1.0" encoding="utf-8"?>
<!-- Generator: Adobe Illustrator 16.0.0, SVG Export Plug-In . SVG Version: 6.00 Build 0)  -->
<!DOCTYPE svg PUBLIC "-//W3C//DTD SVG 1.1//EN" "http://www.w3.org/Graphics/SVG/1.1/DTD/svg11.dtd">
<svg version="1.1" id="Layer_1" xmlns="http://www.w3.org/2000/svg" xmlns:xlink="http://www.w3.org/1999/xlink" x="0px" y="0px"
	 width="24px" height="24px" viewBox="0 0 24 24" enable-background="new 0 0 24 24" xml:space="preserve">
<g>
	<path d="M21,2H5.063c-0.553,0-1,0.447-1,1v4H2v2h2.063v2H2v2h2.063v2H2v2h2.063v4c0,0.553,0.447,1,1,1H21c0.553,0,1-0.447,1-1V3
		C22,2.447,21.553,2,21,2z M20,20H6.063V4H20V20z"/>
	<path d="M13,13c2.708,0,3,2.797,3,4h2c0-2.467-0.865-4.289-2.346-5.245c0.52-0.61,0.846-1.392,0.846-2.255C16.5,7.57,14.93,6,13,6
		S9.5,7.57,9.5,9.5c0,0.863,0.326,1.645,0.846,2.255C8.865,12.711,8,14.533,8,17h2C10,15.797,10.292,13,13,13z M11.5,9.5
		C11.5,8.673,12.173,8,13,8s1.5,0.673,1.5,1.5S13.827,11,13,11S11.5,10.327,11.5,9.5z"/>
</g>
</svg>
