<svg xmlns="http://www.w3.org/2000/svg" width="24" height="24" viewBox="0 0 24 24"><path d="M21 2H5.063a1 1 0 0 0-1 1v4H2v2h2.063v2H2v2h2.063v2H2v2h2.063v4a1 1 0 0 0 1 1H21a1 1 0 0 0 1-1V3a1 1 0 0 0-1-1zm-1 18H6.063V4H20v16z"/><path d="M13 13c2.708 0 3 2.797 3 4h2c0-2.467-.865-4.289-2.346-5.245.52-.61.846-1.392.846-2.255C16.5 7.57 14.93 6 13 6S9.5 7.57 9.5 9.5c0 .863.326 1.645.846 2.255C8.865 12.711 8 14.533 8 17h2c0-1.203.292-4 3-4zm-1.5-3.5c0-.827.673-1.5 1.5-1.5s1.5.673 1.5 1.5S13.827 11 13 11s-1.5-.673-1.5-1.5z"/></svg>