<?xml version="1.0" encoding="utf-8"?>
<!-- Generator: Adobe Illustrator 16.0.0, SVG Export Plug-In . SVG Version: 6.00 Build 0)  -->
<!DOCTYPE svg PUBLIC "-//W3C//DTD SVG 1.1//EN" "http://www.w3.org/Graphics/SVG/1.1/DTD/svg11.dtd">
<svg version="1.1" id="Layer_1" xmlns="http://www.w3.org/2000/svg" xmlns:xlink="http://www.w3.org/1999/xlink" x="0px" y="0px"
	 width="24px" height="24px" viewBox="0 0 24 24" enable-background="new 0 0 24 24" xml:space="preserve">
<g>
	<path d="M21,2H9C8.447,2,8,2.447,8,3v5H3C2.447,8,2,8.447,2,9v12c0,0.553,0.447,1,1,1h12c0.553,0,1-0.447,1-1v-5h5
		c0.553,0,1-0.447,1-1V3C22,2.447,21.553,2,21,2z M14,20H4V10h10V20z M20,14h-4V9c0-0.553-0.447-1-1-1h-5V4h10V14z"/>
</g>
</svg>
