<?xml version="1.0" encoding="utf-8"?>
<!-- Generator: Adobe Illustrator 16.0.0, SVG Export Plug-In . SVG Version: 6.00 Build 0)  -->
<!DOCTYPE svg PUBLIC "-//W3C//DTD SVG 1.1//EN" "http://www.w3.org/Graphics/SVG/1.1/DTD/svg11.dtd">
<svg version="1.1" id="Layer_1" xmlns="http://www.w3.org/2000/svg" xmlns:xlink="http://www.w3.org/1999/xlink" x="0px" y="0px"
	 width="24px" height="24px" viewBox="0 0 24 24" enable-background="new 0 0 24 24" xml:space="preserve">
<g>
	<path d="M12,22c5.421,0,10-4.579,10-10S17.421,2,12,2S2,6.579,2,12S6.579,22,12,22z M12,4c4.337,0,8,3.663,8,8s-3.663,8-8,8
		s-8-3.663-8-8S7.663,4,12,4z"/>
	<path d="M12,17c0.901,0,2.581-0.168,3.707-1.292l-1.414-1.416C13.85,14.735,12.992,15,12,15c-1.626,0-3-1.374-3-3s1.374-3,3-3
		c0.993,0,1.851,0.265,2.293,0.707l1.414-1.414C14.582,7.168,12.901,7,12,7c-2.757,0-5,2.243-5,5S9.243,17,12,17z"/>
</g>
</svg>
