<?xml version="1.0" encoding="utf-8"?>
<!-- Generator: Adobe Illustrator 16.0.0, SVG Export Plug-In . SVG Version: 6.00 Build 0)  -->
<!DOCTYPE svg PUBLIC "-//W3C//DTD SVG 1.1//EN" "http://www.w3.org/Graphics/SVG/1.1/DTD/svg11.dtd">
<svg version="1.1" id="Layer_1" xmlns="http://www.w3.org/2000/svg" xmlns:xlink="http://www.w3.org/1999/xlink" x="0px" y="0px"
	 width="24px" height="24px" viewBox="0 0 24 24" enable-background="new 0 0 24 24" xml:space="preserve">
<g>
	<path d="M12,2C6.486,2,2,6.486,2,12s4.486,10,10,10s10-4.486,10-10S17.514,2,12,2z M19.931,13
		c-0.453,3.611-3.319,6.478-6.931,6.931V17h-2v2.931C7.389,19.478,4.522,16.611,4.069,13H7v-2H4.069
		C4.522,7.389,7.389,4.522,11,4.069V7h2V4.069c3.611,0.453,6.478,3.319,6.931,6.931H17v2H19.931z"/>
</g>
</svg>
