<svg xmlns="http://www.w3.org/2000/svg" width="24" height="24" viewBox="0 0 24 24"><path d="M11.219,3.375L8,7.399L4.781,3.375C4.515,3.043,4.068,2.916,3.669,3.056C3.269,3.197,3,3.575,3,4v16c0,0.552,0.447,1,1,1 h16c0.553,0,1-0.448,1-1V4c0-0.425-0.269-0.803-0.669-0.944c-0.4-0.138-0.846-0.012-1.112,0.319L16,7.399l-3.219-4.024 C12.4,2.901,11.6,2.901,11.219,3.375z M19,19H5v-2.004L19,17V19z M16.781,9.625L19,6.851V15L5,14.996V6.851l2.219,2.774 c0.381,0.475,1.182,0.475,1.563,0L12,5.601l3.219,4.024C15.6,10.099,16.4,10.099,16.781,9.625z"/></svg>