<?xml version="1.0" encoding="utf-8"?>
<!-- Generator: Adobe Illustrator 16.0.0, SVG Export Plug-In . SVG Version: 6.00 Build 0)  -->
<!DOCTYPE svg PUBLIC "-//W3C//DTD SVG 1.1//EN" "http://www.w3.org/Graphics/SVG/1.1/DTD/svg11.dtd">
<svg version="1.1" id="Layer_1" xmlns="http://www.w3.org/2000/svg" xmlns:xlink="http://www.w3.org/1999/xlink" x="0px" y="0px"
	 width="24px" height="24px" viewBox="0 0 24 24" enable-background="new 0 0 24 24" xml:space="preserve">
<g>
	<path d="M2.522,7.133C2.52,7.135,2.516,7.136,2.512,7.138C2.471,7.161,2.438,7.194,2.402,7.223c-0.03,0.024-0.063,0.044-0.09,0.07
		C2.276,7.329,2.25,7.371,2.22,7.412C2.198,7.441,2.172,7.467,2.154,7.499C2.126,7.547,2.108,7.6,2.089,7.652
		C2.078,7.682,2.062,7.708,2.054,7.738C2.031,7.822,2.019,7.91,2.019,8v7.991c0,0.358,0.192,0.69,0.504,0.868l8.981,5.132
		c0.057,0.032,0.117,0.053,0.178,0.073c0.021,0.007,0.041,0.02,0.063,0.025c0.084,0.021,0.17,0.033,0.256,0.033
		s0.172-0.011,0.255-0.033c0.074-0.02,0.146-0.052,0.215-0.088c0.008-0.005,0.018-0.006,0.025-0.011h0.001
		c0.002-0.001,0.004-0.002,0.006-0.003s0.003-0.003,0.005-0.004l8.97-5.116c0.313-0.178,0.505-0.509,0.505-0.868V8
		c0-0.09-0.013-0.178-0.035-0.262c-0.008-0.03-0.024-0.057-0.035-0.086c-0.02-0.053-0.037-0.105-0.065-0.153
		c-0.018-0.032-0.044-0.058-0.065-0.087c-0.03-0.041-0.057-0.083-0.093-0.119c-0.026-0.026-0.06-0.046-0.09-0.07
		c-0.036-0.028-0.068-0.062-0.109-0.085c-0.004-0.002-0.008-0.003-0.011-0.005c-0.004-0.002-0.006-0.005-0.01-0.007l-8.981-5
		c-0.303-0.168-0.67-0.168-0.973,0l-8.981,5C2.528,7.128,2.526,7.131,2.522,7.133z M4.019,9.701L11,13.588V19.4l-6.981-3.989V9.701z
		 M13,19.401v-5.813l6.981-3.887v5.718L13,19.401z M12,4.145L18.926,8L12,11.855L5.074,8L12,4.145z"/>
</g>
</svg>
