<svg xmlns="http://www.w3.org/2000/svg" width="24" height="24"><path d="M2.522 7.133l-.01.005c-.041.023-.074.056-.11.085-.03.024-.063.044-.09.07-.036.036-.062.078-.092.119-.022.029-.048.055-.066.087-.028.048-.046.101-.065.153-.011.03-.027.056-.035.086A.992.992 0 0 0 2.019 8v7.991a1 1 0 0 0 .504.868l8.981 5.132a.98.98 0 0 0 .178.073c.021.007.041.02.063.025a.997.997 0 0 0 .511 0 1.08 1.08 0 0 0 .215-.088c.008-.005.018-.006.025-.011h.001l.006-.003.005-.004 8.97-5.116a.998.998 0 0 0 .505-.868V8c0-.09-.013-.178-.035-.262-.008-.03-.024-.057-.035-.086-.02-.053-.037-.105-.065-.153-.018-.032-.044-.058-.065-.087-.03-.041-.057-.083-.093-.119-.026-.026-.06-.046-.09-.07-.036-.028-.068-.062-.109-.085l-.011-.005-.01-.007-8.981-5a1.002 1.002 0 0 0-.973 0l-8.981 5c-.007.002-.009.005-.013.007zm17.459 8.286L13 19.401v-5.813l6.981-3.887v5.718zM12 4.145L18.926 8 12 11.855 5.074 8 12 4.145zM4.019 9.701L11 13.588V19.4l-6.981-3.989v-5.71z"/></svg>