<svg xmlns="http://www.w3.org/2000/svg" width="24" height="24" viewBox="0 0 24 24"><path d="M2.019 16.991a1 1 0 0 0 .582.908l8.981 4.132c.015.007.032.004.047.011.12.048.244.081.371.081s.25-.032.368-.08c.016-.006.033-.004.049-.011l8.981-4.123c.355-.163.583-.519.583-.909V7v-.001l-.001-.006a.967.967 0 0 0-.039-.263c-.008-.028-.021-.053-.031-.08a1.047 1.047 0 0 0-.075-.163 1.035 1.035 0 0 0-.06-.083.98.98 0 0 0-.191-.193c-.021-.017-.037-.036-.06-.051-.026-.018-.057-.026-.084-.041-.019-.009-.032-.023-.052-.032l-8.981-4a1.003 1.003 0 0 0-.814 0l-8.981 4c-.02.009-.035.023-.053.033-.028.015-.057.024-.083.04-.022.015-.039.034-.06.051a.779.779 0 0 0-.191.193 1.035 1.035 0 0 0-.06.083c-.03.052-.054.107-.075.163-.01.028-.024.052-.031.08a.93.93 0 0 0-.039.263l-.001.006V16.991zm2-8.446L11 11.679v7.884l-6.981-3.212V8.545zm15.962 7.813L13 19.563v-7.885l6.981-3.134v7.814zM12 4.095l6.531 2.909-3.604 1.618L12 9.936 9.073 8.622 5.469 7.004 12 4.095z"/></svg>