<?xml version="1.0" encoding="utf-8"?>
<!-- Generator: Adobe Illustrator 16.0.0, SVG Export Plug-In . SVG Version: 6.00 Build 0)  -->
<!DOCTYPE svg PUBLIC "-//W3C//DTD SVG 1.1//EN" "http://www.w3.org/Graphics/SVG/1.1/DTD/svg11.dtd">
<svg version="1.1" id="Layer_1" xmlns="http://www.w3.org/2000/svg" xmlns:xlink="http://www.w3.org/1999/xlink" x="0px" y="0px"
	 width="24px" height="24px" viewBox="0 0 24 24" enable-background="new 0 0 24 24" xml:space="preserve">
<g>
	<path d="M8.152,14.434C7.658,14.166,7.101,14,6.5,14C4.57,14,3,15.57,3,17.5S4.57,21,6.5,21s3.5-1.57,3.5-3.5
		c0-0.601-0.166-1.158-0.434-1.652L12,13.414L18.586,20h2.828L9.566,8.152C9.834,7.658,10,7.101,10,6.5C10,4.57,8.43,3,6.5,3
		S3,4.57,3,6.5S4.57,10,6.5,10c0.601,0,1.158-0.166,1.652-0.434L10.586,12L8.152,14.434z M6.5,19C5.673,19,5,18.327,5,17.5
		S5.673,16,6.5,16S8,16.673,8,17.5S7.327,19,6.5,19z M5,6.5C5,5.673,5.673,5,6.5,5S8,5.673,8,6.5S7.327,8,6.5,8S5,7.327,5,6.5z"/>
	<polygon points="13.293,9.293 14.707,10.707 21.414,4 18.586,4 	"/>
</g>
</svg>
