<svg xmlns="http://www.w3.org/2000/svg" width="24" height="24"><path d="M4 6v12c0 2.168 3.663 4 8 4s8-1.832 8-4V6c0-2.168-3.663-4-8-4S4 3.832 4 6zm14 11.994c-.069.499-2.309 2.006-6 2.006s-5.931-1.507-6-2v-1.393C7.479 17.454 9.637 18 12 18s4.521-.546 6-1.393v1.387zm0-4c-.069.499-2.309 2.006-6 2.006s-5.931-1.507-6-2v-1.393C7.479 13.454 9.637 14 12 14s4.521-.546 6-1.393v1.387zm0-4c-.069.499-2.309 2.006-6 2.006s-5.931-1.507-6-2V8.607C7.479 9.454 9.637 10 12 10s4.521-.546 6-1.393v1.387zm0-4C17.931 6.493 15.691 8 12 8S6.069 6.493 6 6.006C6.069 5.507 8.309 4 12 4s5.931 1.507 6 1.994z"/></svg>