<?xml version="1.0" encoding="utf-8"?>
<!-- Generator: Adobe Illustrator 16.0.0, SVG Export Plug-In . SVG Version: 6.00 Build 0)  -->
<!DOCTYPE svg PUBLIC "-//W3C//DTD SVG 1.1//EN" "http://www.w3.org/Graphics/SVG/1.1/DTD/svg11.dtd">
<svg version="1.1" id="Layer_1" xmlns="http://www.w3.org/2000/svg" xmlns:xlink="http://www.w3.org/1999/xlink" x="0px" y="0px"
	 width="24px" height="24px" viewBox="0 0 24 24" enable-background="new 0 0 24 24" xml:space="preserve">
<g>
	<path d="M4,6v12c0,2.168,3.663,4,8,4s8-1.832,8-4V6c0-2.168-3.663-4-8-4S4,3.832,4,6z M12,20c-3.691,0-5.931-1.507-6-2v-1.393
		C7.479,17.454,9.637,18,12,18s4.521-0.546,6-1.393v1.387C17.931,18.493,15.691,20,12,20z M12,16c-3.691,0-5.931-1.507-6-2v-1.393
		C7.479,13.454,9.637,14,12,14s4.521-0.546,6-1.393v1.387C17.931,14.493,15.691,16,12,16z M12,12c-3.691,0-5.931-1.507-6-2V8.607
		C7.479,9.454,9.637,10,12,10s4.521-0.546,6-1.393v1.387C17.931,10.493,15.691,12,12,12z M18,5.994C17.931,6.493,15.691,8,12,8
		S6.069,6.493,6,6.006C6.069,5.507,8.309,4,12,4S17.931,5.507,18,5.994z"/>
</g>
</svg>
