<?xml version="1.0" encoding="utf-8"?>
<!-- Generator: Adobe Illustrator 16.0.0, SVG Export Plug-In . SVG Version: 6.00 Build 0)  -->
<!DOCTYPE svg PUBLIC "-//W3C//DTD SVG 1.1//EN" "http://www.w3.org/Graphics/SVG/1.1/DTD/svg11.dtd">
<svg version="1.1" id="Layer_1" xmlns="http://www.w3.org/2000/svg" xmlns:xlink="http://www.w3.org/1999/xlink" x="0px" y="0px"
	 width="24px" height="24px" viewBox="0 0 24 24" enable-background="new 0 0 24 24" xml:space="preserve">
<g>
	<path d="M18.781,9.245C18.6,9.087,18.366,9,18.125,9H13V4V2h-2v1H5.375C5.101,3,4.839,3.112,4.65,3.312l-2.375,2.5
		c-0.367,0.386-0.367,0.991,0,1.377l2.375,2.5C4.839,9.888,5.101,10,5.375,10H11v12h2v-6h5.125c0.241,0,0.475-0.087,0.656-0.245
		l2.875-2.5C21.875,13.064,22,12.789,22,12.5s-0.125-0.564-0.344-0.755L18.781,9.245z M5.804,8L4.379,6.5L5.804,5H11v3H5.804z
		 M17.751,14h-4.626v-3h4.626l1.725,1.5L17.751,14z"/>
</g>
</svg>
