<?xml version="1.0" encoding="utf-8"?>
<!-- Generator: Adobe Illustrator 16.0.0, SVG Export Plug-In . SVG Version: 6.00 Build 0)  -->
<!DOCTYPE svg PUBLIC "-//W3C//DTD SVG 1.1//EN" "http://www.w3.org/Graphics/SVG/1.1/DTD/svg11.dtd">
<svg version="1.1" id="Layer_1" xmlns="http://www.w3.org/2000/svg" xmlns:xlink="http://www.w3.org/1999/xlink" x="0px" y="0px"
	 width="24px" height="24px" viewBox="0 0 24 24" enable-background="new 0 0 24 24" xml:space="preserve">
<g>
	<path d="M18.641,10.231C18.461,10.082,18.234,10,18,10h-5V9V4V2h-2v1H6C5.766,3,5.54,3.082,5.36,3.231l-3,2.5
		C2.132,5.922,2,6.203,2,6.5s0.132,0.578,0.36,0.769l3,2.5C5.54,9.918,5.766,10,6,10h5v1v5v6h2v-5h5
		c0.234,0,0.461-0.082,0.641-0.231l3-2.5C21.868,14.078,22,13.797,22,13.5s-0.132-0.578-0.359-0.769L18.641,10.231z M6.362,8
		l-1.8-1.5l1.8-1.5H11v3H6.362z M17.638,15H13v-3h4.638l1.8,1.5L17.638,15z"/>
</g>
</svg>
