<svg xmlns="http://www.w3.org/2000/svg" width="24" height="24" viewBox="0 0 24 24"><path d="M12,2C6.486,2,2,6.486,2,12c0,5.514,4.486,10,10,10s10-4.486,10-10C22,6.486,17.514,2,12,2z M12,20c-4.411,0-8-3.589-8-8 s3.589-8,8-8s8,3.589,8,8S16.411,20,12,20z"/><path d="M13,11h-2c-0.552,0-1-0.449-1-0.994C10,9.996,10.028,9,12,9h2.985V7H13V6h-2v1.08c-2.328,0.368-2.995,2-3,2.92 c0,1.654,1.346,3,3,3h2c0.552,0,1,0.448,1.001,0.963C13.988,14.136,13.832,15,12,15H9v2h2v1h2v-1.08 c2.321-0.368,2.991-1.998,3-2.92C16,12.346,14.654,11,13,11z"/></svg>