<svg xmlns="http://www.w3.org/2000/svg" width="24" height="24" viewBox="0 0 24 24"><path d="M12.999,21.988v-2.036c3.659-0.327,5-2.45,5-4.452c0-2.847-2.821-4.281-5-4.475V6.042c2.144,0.174,3.54,0.847,3.556,0.854 l0.892-1.791c-0.081-0.04-1.809-0.882-4.447-1.066V1.995h-2v2.054c-3.659,0.327-5,2.45-5,4.452c0,2.847,2.821,4.281,5,4.475v4.984 c-2.144-0.175-3.54-0.847-3.553-0.854l-0.895,1.789c0.081,0.04,1.809,0.882,4.447,1.065v2.028H12.999z M12.999,13.037 c1.368,0.174,3,1.033,3,2.463c0,1.365-1.083,2.227-3,2.442V13.037z M7.999,8.5c0-1.389,1.06-2.236,3-2.445v4.91 C9.745,10.801,7.999,10.046,7.999,8.5z"/></svg>