<?xml version="1.0" encoding="utf-8"?>
<!-- Generator: Adobe Illustrator 16.0.0, SVG Export Plug-In . SVG Version: 6.00 Build 0)  -->
<!DOCTYPE svg PUBLIC "-//W3C//DTD SVG 1.1//EN" "http://www.w3.org/Graphics/SVG/1.1/DTD/svg11.dtd">
<svg version="1.1" id="Layer_1" xmlns="http://www.w3.org/2000/svg" xmlns:xlink="http://www.w3.org/1999/xlink" x="0px" y="0px"
	 width="24px" height="24px" viewBox="0 0 24 24" enable-background="new 0 0 24 24" xml:space="preserve">
<g>
	<path d="M12.999,21v-2.034c1.597-0.128,4-0.768,4-3.966c0-2.542-1.458-4-4-4V7.094c1.361,0.224,2.539,0.794,2.554,0.801l0.894-1.79
		c-0.077-0.038-1.631-0.799-3.447-1.033V3h-2v2.034c-1.597,0.129-4,0.768-4,3.966c0,2.58,1.421,4,4,4v3.906
		c-1.361-0.224-2.539-0.794-2.554-0.802l-0.894,1.79c0.077,0.038,1.631,0.799,3.447,1.033V21H12.999z M8.999,9
		c0-0.978,0.168-1.756,2-1.951V11C9.541,11,8.999,10.458,8.999,9z M14.999,15c0,0.978-0.168,1.756-2,1.951V13
		C14.438,13,14.999,13.561,14.999,15z"/>
</g>
</svg>
