<?xml version="1.0" encoding="utf-8"?>
<!-- Generator: Adobe Illustrator 16.0.0, SVG Export Plug-In . SVG Version: 6.00 Build 0)  -->
<!DOCTYPE svg PUBLIC "-//W3C//DTD SVG 1.1//EN" "http://www.w3.org/Graphics/SVG/1.1/DTD/svg11.dtd">
<svg version="1.1" id="Layer_1" xmlns="http://www.w3.org/2000/svg" xmlns:xlink="http://www.w3.org/1999/xlink" x="0px" y="0px"
	 width="24px" height="24px" viewBox="0 0 24 24" enable-background="new 0 0 24 24" xml:space="preserve">
<g>
	<path d="M4,20h16v-2h-6.75l5.55-7.4c0.228-0.303,0.264-0.708,0.095-1.047C18.725,9.214,18.379,9,18,9h-2V5c0-0.553-0.447-1-1-1H9
		C8.447,4,8,4.447,8,5v4H6C5.621,9,5.275,9.214,5.105,9.553C4.937,9.892,4.973,10.297,5.2,10.6l5.55,7.4H4V20z M8,11h1
		c0.553,0,1-0.447,1-1V6h4v4c0,0.553,0.447,1,1,1h1l-4,5.333L8,11z"/>
</g>
</svg>
