<?xml version="1.0" encoding="utf-8"?>
<!-- Generator: Adobe Illustrator 16.0.0, SVG Export Plug-In . SVG Version: 6.00 Build 0)  -->
<!DOCTYPE svg PUBLIC "-//W3C//DTD SVG 1.1//EN" "http://www.w3.org/Graphics/SVG/1.1/DTD/svg11.dtd">
<svg version="1.1" id="Layer_1" xmlns="http://www.w3.org/2000/svg" xmlns:xlink="http://www.w3.org/1999/xlink" x="0px" y="0px"
	 width="24px" height="24px" viewBox="0 0 24 24" enable-background="new 0 0 24 24" xml:space="preserve">
<g>
	<path d="M12,2C6.579,2,2,6.579,2,12s4.579,10,10,10s10-4.579,10-10S17.421,2,12,2z M17.555,6.309
		c1.378,1.347,2.281,3.171,2.418,5.17C18.826,11.161,17.663,11,16.5,11c-0.76,0-1.502,0.077-2.226,0.214
		c-0.228-0.496-0.457-0.975-0.688-1.438C15.08,8.867,16.422,7.701,17.555,6.309z M15.966,5.098c-0.951,1.159-2.068,2.137-3.31,2.907
		c-0.937-1.706-1.788-3.039-2.314-3.821C10.879,4.065,11.434,4,12,4C13.433,4,14.788,4.406,15.966,5.098z M8.404,4.893
		c0.409,0.594,1.379,2.058,2.47,4.042C9.282,9.615,7.568,10,5.813,10c-0.485,0-0.99-0.045-1.509-0.11
		C4.918,7.732,6.435,5.915,8.404,4.893z M4,12c0-0.045,0.006-0.09,0.007-0.135C4.625,11.945,5.228,12,5.813,12
		c2.084,0,4.113-0.469,5.992-1.295c0.17,0.342,0.34,0.695,0.508,1.055c-2.531,0.958-4.729,2.801-6.385,5.377
		C4.733,15.735,4,13.937,4,12z M7.423,18.507c1.074-1.761,2.892-3.906,5.687-4.92c0.759,1.851,1.403,3.843,1.771,5.848
		C13.98,19.794,13.01,20,12,20C10.313,20,8.73,19.44,7.423,18.507z M16.724,18.396c-0.386-1.826-0.975-3.614-1.645-5.29
		C15.534,13.044,16.003,13,16.5,13c1.118,0,2.239,0.187,3.343,0.535C19.443,15.498,18.295,17.222,16.724,18.396z"/>
</g>
</svg>
