<svg xmlns="http://www.w3.org/2000/svg" width="24" height="24" viewBox="0 0 24 24"><path d="M12 2C6.579 2 2 6.579 2 12s4.579 10 10 10 10-4.579 10-10S17.421 2 12 2zm0 2c1.433 0 2.788.406 3.966 1.098a13.447 13.447 0 0 1-3.31 2.907 50.879 50.879 0 0 0-2.314-3.821A7.659 7.659 0 0 1 12 4zm-3.596.893a49.271 49.271 0 0 1 2.47 4.042C9.282 9.615 7.568 10 5.813 10c-.485 0-.99-.045-1.509-.11.614-2.158 2.131-3.975 4.1-4.997zM4 12c0-.045.006-.09.007-.135.618.08 1.221.135 1.806.135 2.084 0 4.113-.469 5.992-1.295.17.342.34.695.508 1.055-2.531.958-4.729 2.801-6.385 5.377C4.733 15.735 4 13.937 4 12zm8 8c-1.688 0-3.27-.56-4.577-1.493 1.074-1.761 2.892-3.906 5.687-4.92.759 1.851 1.403 3.843 1.771 5.848A7.767 7.767 0 0 1 12 20zm4.724-1.604c-.386-1.826-.975-3.614-1.645-5.29.455-.062.924-.106 1.421-.106 1.118 0 2.239.187 3.343.535-.4 1.963-1.548 3.687-3.119 4.861zM16.5 11c-.76 0-1.502.077-2.226.214a49.972 49.972 0 0 0-.688-1.438 15.471 15.471 0 0 0 3.969-3.467c1.378 1.347 2.281 3.171 2.418 5.17A12.975 12.975 0 0 0 16.5 11z"/></svg>