<?xml version="1.0" encoding="utf-8"?>
<!-- Generator: Adobe Illustrator 16.0.0, SVG Export Plug-In . SVG Version: 6.00 Build 0)  -->
<!DOCTYPE svg PUBLIC "-//W3C//DTD SVG 1.1//EN" "http://www.w3.org/Graphics/SVG/1.1/DTD/svg11.dtd">
<svg version="1.1" id="Layer_1" xmlns="http://www.w3.org/2000/svg" xmlns:xlink="http://www.w3.org/1999/xlink" x="0px" y="0px"
	 width="24px" height="24px" viewBox="0 0 24 24" enable-background="new 0 0 24 24" xml:space="preserve">
<g>
	<path d="M12,22c4.411,0,8-3.589,8-7.995c0.032-6.445-7.116-11.604-7.42-11.819c-0.347-0.248-0.813-0.248-1.159,0
		C11.116,2.401,3.967,7.56,4,14C4,18.411,7.589,22,12,22z M12.001,4.264C13.612,5.568,18.022,9.545,18,14c0,3.309-2.691,6-6,6
		s-6-2.691-6-6.005C5.978,9.556,10.39,5.57,12.001,4.264z"/>
</g>
</svg>
