<?xml version="1.0" encoding="utf-8"?>
<!-- Generator: Adobe Illustrator 16.0.0, SVG Export Plug-In . SVG Version: 6.00 Build 0)  -->
<!DOCTYPE svg PUBLIC "-//W3C//DTD SVG 1.1//EN" "http://www.w3.org/Graphics/SVG/1.1/DTD/svg11.dtd">
<svg version="1.1" id="Layer_1" xmlns="http://www.w3.org/2000/svg" xmlns:xlink="http://www.w3.org/1999/xlink" x="0px" y="0px"
	 width="24px" height="24px" viewBox="0 0 24 24" enable-background="new 0 0 24 24" xml:space="preserve">
<g>
	<polygon points="11,10 9,10 9,13 6,13 6,15 9,15 9,18 11,18 11,15 14,15 14,13 11,13 	"/>
	<path d="M3,22h14c0.553,0,1-0.447,1-1V7c0-0.552-0.447-1-1-1H3C2.447,6,2,6.448,2,7v14C2,21.553,2.447,22,3,22z M4,8h12v12H4V8z"/>
	<path d="M21,2H8v2h12v12h2V3C22,2.448,21.553,2,21,2z"/>
</g>
</svg>
