<?xml version="1.0" encoding="utf-8"?>
<!-- Generator: Adobe Illustrator 16.0.0, SVG Export Plug-In . SVG Version: 6.00 Build 0)  -->
<!DOCTYPE svg PUBLIC "-//W3C//DTD SVG 1.1//EN" "http://www.w3.org/Graphics/SVG/1.1/DTD/svg11.dtd">
<svg version="1.1" id="Layer_1" xmlns="http://www.w3.org/2000/svg" xmlns:xlink="http://www.w3.org/1999/xlink" x="0px" y="0px"
	 width="24px" height="24px" viewBox="0 0 24 24" enable-background="new 0 0 24 24" xml:space="preserve">
<g>
	<path d="M16.793,2.793l-9,9c-0.153,0.153-0.252,0.352-0.283,0.565l-0.5,3.5c-0.044,0.312,0.061,0.626,0.283,0.849
		C7.481,16.896,7.736,17,8,17c0.047,0,0.094-0.003,0.142-0.01l3.5-0.5c0.214-0.03,0.412-0.13,0.565-0.283l9-9
		c0.391-0.391,0.391-1.023,0-1.414l-3-3C17.816,2.402,17.184,2.402,16.793,2.793z M11.028,14.557l-1.85,0.264l0.264-1.85L17.5,4.914
		L19.086,6.5L11.028,14.557z"/>
	<path d="M4,21h16c0.553,0,1-0.448,1-1v-8h-2v7H5V5h7V3H4C3.447,3,3,3.448,3,4v16C3,20.552,3.447,21,4,21z"/>
</g>
</svg>
