<?xml version="1.0" encoding="utf-8"?>
<!-- Generator: Adobe Illustrator 16.0.0, SVG Export Plug-In . SVG Version: 6.00 Build 0)  -->
<!DOCTYPE svg PUBLIC "-//W3C//DTD SVG 1.1//EN" "http://www.w3.org/Graphics/SVG/1.1/DTD/svg11.dtd">
<svg version="1.1" id="Layer_1" xmlns="http://www.w3.org/2000/svg" xmlns:xlink="http://www.w3.org/1999/xlink" x="0px" y="0px"
	 width="24px" height="24px" viewBox="0 0 24 24" enable-background="new 0 0 24 24" xml:space="preserve">
<g>
	<path d="M18.974,2.026c-0.391-0.391-1.023-0.391-1.414,0l-9,9c-0.153,0.153-0.252,0.352-0.283,0.565l-0.5,3.5
		c-0.044,0.312,0.061,0.626,0.283,0.849c0.188,0.189,0.443,0.293,0.707,0.293c0.047,0,0.094-0.003,0.142-0.01l3.5-0.5
		c0.214-0.03,0.412-0.13,0.565-0.283l9-9c0.391-0.391,0.391-1.023,0-1.414L18.974,2.026z M11.795,13.79l-1.85,0.264l0.264-1.85
		l8.058-8.057l1.586,1.586L11.795,13.79z"/>
	<path d="M5,20h14c0.553,0,1-0.448,1-1v-7h-2v6H6V6h6V4H5C4.447,4,4,4.448,4,5v14C4,19.552,4.447,20,5,20z"/>
</g>
</svg>
