<?xml version="1.0" encoding="utf-8"?>
<!-- Generator: Adobe Illustrator 16.0.0, SVG Export Plug-In . SVG Version: 6.00 Build 0)  -->
<!DOCTYPE svg PUBLIC "-//W3C//DTD SVG 1.1//EN" "http://www.w3.org/Graphics/SVG/1.1/DTD/svg11.dtd">
<svg version="1.1" id="Layer_1" xmlns="http://www.w3.org/2000/svg" xmlns:xlink="http://www.w3.org/1999/xlink" x="0px" y="0px"
	 width="24px" height="24px" viewBox="0 0 24 24" enable-background="new 0 0 24 24" xml:space="preserve">
<g>
	<path d="M21,4H3C2.448,4,2,4.447,2,5v14c0,0.553,0.448,1,1,1h18c0.553,0,1-0.447,1-1V5C22,4.447,21.553,4,21,4z M19.484,6
		L12,12.661L4.516,6H19.484z M4,18V8.219l7.335,6.528C11.525,14.916,11.762,15,12,15s0.475-0.084,0.665-0.253L20,8.219V18H4z"/>
</g>
</svg>
