<?xml version="1.0" encoding="utf-8"?>
<!-- Generator: Adobe Illustrator 16.0.0, SVG Export Plug-In . SVG Version: 6.00 Build 0)  -->
<!DOCTYPE svg PUBLIC "-//W3C//DTD SVG 1.1//EN" "http://www.w3.org/Graphics/SVG/1.1/DTD/svg11.dtd">
<svg version="1.1" id="Layer_1" xmlns="http://www.w3.org/2000/svg" xmlns:xlink="http://www.w3.org/1999/xlink" x="0px" y="0px"
	 width="24px" height="24px" viewBox="0 0 24 24" enable-background="new 0 0 24 24" xml:space="preserve">
<g>
	<path d="M6.293,19.707C6.48,19.895,6.734,20,7,20h12v-2h-4.586l7.293-7.293c0.369-0.37,0.393-0.961,0.052-1.358l-6-7
		c-0.181-0.211-0.442-0.338-0.721-0.348c-0.28-0.015-0.549,0.095-0.745,0.292l-12,12c-0.391,0.391-0.391,1.023,0,1.414L6.293,19.707
		z M14.943,4.471l4.694,5.477L17.5,12.085L12.414,7L14.943,4.471z M11,8.414l5.086,5.085L11.585,18H7.414l-3-3L11,8.414z"/>
</g>
</svg>
