<?xml version="1.0" encoding="utf-8"?>
<!-- Generator: Adobe Illustrator 16.0.0, SVG Export Plug-In . SVG Version: 6.00 Build 0)  -->
<!DOCTYPE svg PUBLIC "-//W3C//DTD SVG 1.1//EN" "http://www.w3.org/Graphics/SVG/1.1/DTD/svg11.dtd">
<svg version="1.1" id="Layer_1" xmlns="http://www.w3.org/2000/svg" xmlns:xlink="http://www.w3.org/1999/xlink" x="0px" y="0px"
	 width="24px" height="24px" viewBox="0 0 24 24" enable-background="new 0 0 24 24" xml:space="preserve">
<g>
	<polygon points="15.707,9.707 19.707,5.707 21,7 21,3 17,3 18.293,4.293 14.293,8.293 	"/>
	<polygon points="18.293,19.707 17,21 21,21 21,17 19.707,18.293 15.707,14.293 14.293,15.707 	"/>
	<polygon points="8.293,14.293 4.293,18.293 3,17 3,21 7,21 5.707,19.707 9.707,15.707 	"/>
	<polygon points="5.707,4.293 7,3 3,3 3,7 4.293,5.707 8.293,9.707 9.707,8.293 	"/>
</g>
</svg>
