<?xml version="1.0" encoding="utf-8"?>
<!-- Generator: Adobe Illustrator 16.0.0, SVG Export Plug-In . SVG Version: 6.00 Build 0)  -->
<!DOCTYPE svg PUBLIC "-//W3C//DTD SVG 1.1//EN" "http://www.w3.org/Graphics/SVG/1.1/DTD/svg11.dtd">
<svg version="1.1" id="Layer_1" xmlns="http://www.w3.org/2000/svg" xmlns:xlink="http://www.w3.org/1999/xlink" x="0px" y="0px"
	 width="24px" height="24px" viewBox="0 0 24 24" enable-background="new 0 0 24 24" xml:space="preserve">
<g>
	<polygon points="15.707,9.707 18.879,6.535 21,8.656 21,3 15.344,3 17.465,5.121 14.293,8.293 	"/>
	<polygon points="17.465,18.879 15.344,21 21,21 21,15.344 18.879,17.465 15.707,14.293 14.293,15.707 	"/>
	<polygon points="8.293,14.293 5.121,17.465 3,15.344 3,21 8.656,21 6.535,18.879 9.707,15.707 	"/>
	<polygon points="6.535,5.121 8.656,3 3,3 3,8.656 5.121,6.535 8.293,9.707 9.707,8.293 	"/>
</g>
</svg>
