<?xml version="1.0" encoding="utf-8"?>
<!-- Generator: Adobe Illustrator 16.0.0, SVG Export Plug-In . SVG Version: 6.00 Build 0)  -->
<!DOCTYPE svg PUBLIC "-//W3C//DTD SVG 1.1//EN" "http://www.w3.org/Graphics/SVG/1.1/DTD/svg11.dtd">
<svg version="1.1" id="Layer_1" xmlns="http://www.w3.org/2000/svg" xmlns:xlink="http://www.w3.org/1999/xlink" x="0px" y="0px"
	 width="24px" height="24px" viewBox="0 0 24 24" enable-background="new 0 0 24 24" xml:space="preserve">
<g>
	<path d="M9,22h5c0.553,0,1-0.448,1-1v-8.012h2c0.553,0,1-0.448,1-1V8c0.553,0,1-0.448,1-1V3c0-0.552-0.447-1-1-1h-5
		c-1.728,0-4.993,1.043-5,4.988H7c-0.553,0-1,0.448-1,1v4c0,0.552,0.447,1,1,1h1V21C8,21.552,8.447,22,9,22z M8,8.988h1
		c0.553,0,1-0.448,1-1V7c0-2.823,2.504-2.994,3-3h4v2h-3c-0.553,0-1,0.448-1,1v0.988c0,0.552,0.447,1,1,1h2v2h-2
		c-0.553,0-1,0.448-1,1V20h-3v-8.012c0-0.552-0.447-1-1-1H8V8.988z"/>
</g>
</svg>
