<svg xmlns="http://www.w3.org/2000/svg" width="24" height="24" viewBox="0 0 24 24"><path d="M9,22h5c0.553,0,1-0.448,1-1v-8.012h1c0.553,0,1-0.448,1-1V8c0.553,0,1-0.448,1-1V3c0-0.552-0.447-1-1-1h-4 c-1.729,0-4.997,1.044-5,4.994L6.994,7C6.444,7.003,6,7.45,6,8v4c0,0.266,0.106,0.521,0.295,0.709C6.482,12.896,6.736,13,7,13 c0.002,0,0.004,0,0.006,0L8,12.994V21C8,21.552,8.447,22,9,22z M8,8.994l1.006-0.006c0.55-0.003,0.994-0.45,0.994-1V7 c0-2.823,2.504-2.994,3-3h3v2h-2c-0.553,0-1,0.448-1,1v0.988c0,0.552,0.447,1,1,1h1v2h-1c-0.553,0-1,0.448-1,1V20h-3v-8.012 c0-0.266-0.106-0.521-0.295-0.709c-0.189-0.188-0.494-0.295-0.711-0.291L8,10.994V8.994z"/></svg>