<?xml version="1.0" encoding="utf-8"?>
<!-- Generator: Adobe Illustrator 16.0.0, SVG Export Plug-In . SVG Version: 6.00 Build 0)  -->
<!DOCTYPE svg PUBLIC "-//W3C//DTD SVG 1.1//EN" "http://www.w3.org/Graphics/SVG/1.1/DTD/svg11.dtd">
<svg version="1.1" id="Layer_1" xmlns="http://www.w3.org/2000/svg" xmlns:xlink="http://www.w3.org/1999/xlink" x="0px" y="0px"
	 width="24px" height="24px" viewBox="0 0 24 24" enable-background="new 0 0 24 24" xml:space="preserve">
<g>
	<path d="M18.5,8.5C18.5,4.916,15.584,2,12,2S5.5,4.916,5.5,8.5c0,3.243,2.39,5.932,5.5,6.415V17H8v2h3v2.988h2V19h3v-2h-3v-2.085
		C16.109,14.432,18.5,11.743,18.5,8.5z M7.5,8.5C7.5,6.019,9.519,4,12,4s4.5,2.019,4.5,4.5c0,2.48-2.016,4.497-4.495,4.5h-0.01
		C9.516,12.997,7.5,10.98,7.5,8.5z"/>
</g>
</svg>
