<?xml version="1.0" encoding="utf-8"?>
<!-- Generator: Adobe Illustrator 16.0.0, SVG Export Plug-In . SVG Version: 6.00 Build 0)  -->
<!DOCTYPE svg PUBLIC "-//W3C//DTD SVG 1.1//EN" "http://www.w3.org/Graphics/SVG/1.1/DTD/svg11.dtd">
<svg version="1.1" id="Layer_1" xmlns="http://www.w3.org/2000/svg" xmlns:xlink="http://www.w3.org/1999/xlink" x="0px" y="0px"
	 width="24px" height="24px" viewBox="0 0 24 24" enable-background="new 0 0 24 24" xml:space="preserve">
<g>
	<path d="M4,3v18c0,0.552,0.447,1,1,1h14c0.553,0,1-0.448,1-1V9c0-0.021-0.011-0.041-0.013-0.062
		c-0.005-0.089-0.022-0.175-0.051-0.259c-0.011-0.032-0.02-0.063-0.033-0.093c-0.049-0.106-0.11-0.208-0.196-0.293l-6-6
		c-0.086-0.085-0.187-0.147-0.292-0.195c-0.031-0.015-0.063-0.023-0.097-0.034c-0.082-0.028-0.166-0.045-0.253-0.05
		C13.043,2.012,13.022,2,13,2H5C4.447,2,4,2.448,4,3z M16.586,8H14V5.414L16.586,8z M6,4h6v5c0,0.552,0.447,1,1,1h5v10H6V4z"/>
	<rect x="8" y="12" width="8" height="2"/>
	<rect x="8" y="8" width="2" height="2"/>
	<rect x="8" y="16" width="8" height="2"/>
</g>
</svg>
