<?xml version="1.0" encoding="utf-8"?>
<!-- Generator: Adobe Illustrator 16.0.0, SVG Export Plug-In . SVG Version: 6.00 Build 0)  -->
<!DOCTYPE svg PUBLIC "-//W3C//DTD SVG 1.1//EN" "http://www.w3.org/Graphics/SVG/1.1/DTD/svg11.dtd">
<svg version="1.1" id="Layer_1" xmlns="http://www.w3.org/2000/svg" xmlns:xlink="http://www.w3.org/1999/xlink" x="0px" y="0px"
	 width="24px" height="24px" viewBox="0 0 24 24" enable-background="new 0 0 24 24" xml:space="preserve">
<g>
	<path d="M20,8h-0.009c-0.001-0.26-0.093-0.516-0.284-0.707l-5-5C14.516,2.102,14.26,2.01,14,2.01V2H8C7.447,2,7,2.448,7,3v14
		c0,0.552,0.447,1,1,1h11c0.553,0,1-0.448,1-1V8z M15,5.414L16.586,7H15V5.414z M18,16H9V4h4v4c0,0.552,0.447,1,1,1h4V16z"/>
	<path d="M4,22h12v-2H5V8H3v13C3,21.552,3.447,22,4,22z"/>
</g>
</svg>
