<svg xmlns="http://www.w3.org/2000/svg" width="24" height="24" viewBox="0 0 24 24"><path d="M16.5 8.5c-1.58 0-2.903 1.06-3.337 2.5H2v2h11.163c.434 1.44 1.757 2.5 3.337 2.5s2.903-1.06 3.337-2.5H22v-2h-2.163c-.434-1.44-1.757-2.5-3.337-2.5zm0 5c-.827 0-1.5-.673-1.5-1.5s.673-1.5 1.5-1.5 1.5.673 1.5 1.5-.673 1.5-1.5 1.5z"/><path d="M11 2.5C9.42 2.5 8.097 3.56 7.663 5H2v2h5.663C8.097 8.44 9.42 9.5 11 9.5s2.903-1.06 3.337-2.5H22V5h-7.663C13.903 3.56 12.58 2.5 11 2.5zm0 5c-.827 0-1.5-.673-1.5-1.5s.673-1.5 1.5-1.5 1.5.673 1.5 1.5-.673 1.5-1.5 1.5zM7.5 14.5c-1.58 0-2.903 1.06-3.337 2.5H2v2h2.163c.434 1.44 1.757 2.5 3.337 2.5s2.903-1.06 3.337-2.5H22v-2H10.837c-.434-1.44-1.757-2.5-3.337-2.5zm0 5c-.827 0-1.5-.673-1.5-1.5s.673-1.5 1.5-1.5S9 17.173 9 18s-.673 1.5-1.5 1.5z"/></svg>