<?xml version="1.0" encoding="utf-8"?>
<!-- Generator: Adobe Illustrator 16.0.0, SVG Export Plug-In . SVG Version: 6.00 Build 0)  -->
<!DOCTYPE svg PUBLIC "-//W3C//DTD SVG 1.1//EN" "http://www.w3.org/Graphics/SVG/1.1/DTD/svg11.dtd">
<svg version="1.1" id="Layer_1" xmlns="http://www.w3.org/2000/svg" xmlns:xlink="http://www.w3.org/1999/xlink" x="0px" y="0px"
	 width="24px" height="24px" viewBox="0 0 24 24" enable-background="new 0 0 24 24" xml:space="preserve">
<g>
	<rect x="16" y="2" width="2" height="7"/>
	<rect x="6" y="2" width="2" height="3"/>
	<rect x="11" y="2" width="2" height="11"/>
	<polygon points="5,9 6,9 6,22 8,22 8,9 9,9 9,7 5,7 	"/>
	<polygon points="10,17 11,17 11,22 13,22 13,17 14,17 14,15 10,15 	"/>
	<polygon points="19,11 15,11 15,13 16,13 16,22 18,22 18,13 19,13 	"/>
</g>
</svg>
