<svg xmlns="http://www.w3.org/2000/svg" width="24" height="24" viewBox="0 0 24 24"><path d="M16.5 8.5c-1.58 0-2.903 1.06-3.337 2.5H2v2h11.163c.434 1.44 1.757 2.5 3.337 2.5s2.903-1.06 3.337-2.5H22v-2h-2.163C19.403 9.56 18.08 8.5 16.5 8.5zM16.5 13.5c-.827 0-1.5-.673-1.5-1.5s.673-1.5 1.5-1.5S18 11.173 18 12 17.327 13.5 16.5 13.5zM6.5 14.5c-1.58 0-2.903 1.06-3.337 2.5H2v2h1.163c.434 1.44 1.757 2.5 3.337 2.5s2.903-1.06 3.337-2.5H22v-2H9.837C9.403 15.56 8.08 14.5 6.5 14.5zM6.5 19.5C5.673 19.5 5 18.827 5 18s.673-1.5 1.5-1.5S8 17.173 8 18 7.327 19.5 6.5 19.5z"/><path d="M14.337,5C13.903,3.56,12.58,2.5,11,2.5S8.097,3.56,7.663,5H2v2h5.663C8.097,8.44,9.42,9.5,11,9.5s2.903-1.06,3.337-2.5H22 V5H14.337z M11,7.5c-0.827,0-1.5-0.673-1.5-1.5s0.673-1.5,1.5-1.5s1.5,0.673,1.5,1.5S11.827,7.5,11,7.5z"/></svg>