<?xml version="1.0" encoding="utf-8"?>
<!-- Generator: Adobe Illustrator 16.0.0, SVG Export Plug-In . SVG Version: 6.00 Build 0)  -->
<!DOCTYPE svg PUBLIC "-//W3C//DTD SVG 1.1//EN" "http://www.w3.org/Graphics/SVG/1.1/DTD/svg11.dtd">
<svg version="1.1" id="Layer_1" xmlns="http://www.w3.org/2000/svg" xmlns:xlink="http://www.w3.org/1999/xlink" x="0px" y="0px"
	 width="24px" height="24px" viewBox="0 0 24 24" enable-background="new 0 0 24 24" xml:space="preserve">
<g>
	<path d="M12,22c6.217,0,9-4.018,9-8.021c-0.003-0.139-0.096-3.419-2.282-5.675c-0.268-0.277-0.669-0.375-1.035-0.253
		c-0.365,0.122-0.627,0.442-0.675,0.824c-0.33,2.648-1.313,4.168-2.694,4.168c-0.61,0-1.098-0.3-1.288-0.507
		c1.537-1.648,2.171-3.358,1.882-5.086c-0.553-3.301-4.354-5.262-4.516-5.344c-0.346-0.174-0.755-0.137-1.061,0.099
		C9.026,2.439,8.882,2.827,8.96,3.203c0.005,0.024,0.468,2.391-1.668,4.53C7.19,7.835,7.078,7.942,6.958,8.058
		C5.852,9.119,4,10.894,4,14C4,18.486,7.514,22,12,22z M8.342,9.502c0.132-0.126,0.255-0.245,0.366-0.356
		c1.477-1.479,2.029-3.07,2.212-4.289c0.854,0.69,1.812,1.711,2.015,2.925c0.188,1.121-0.315,2.307-1.496,3.522
		c-0.496,0.511-0.62,1.221-0.334,1.898c0.452,1.067,1.801,1.842,3.209,1.842c0.973,0,3.055-0.39,4.137-3.489
		C18.96,12.831,19,13.998,19,14c0,2.768-1.833,6-7,6c-3.364,0-6-2.636-6-6C6,11.747,7.354,10.449,8.342,9.502z"/>
</g>
</svg>
