<?xml version="1.0" encoding="utf-8"?>
<!-- Generator: Adobe Illustrator 16.0.0, SVG Export Plug-In . SVG Version: 6.00 Build 0)  -->
<!DOCTYPE svg PUBLIC "-//W3C//DTD SVG 1.1//EN" "http://www.w3.org/Graphics/SVG/1.1/DTD/svg11.dtd">
<svg version="1.1" id="Layer_1" xmlns="http://www.w3.org/2000/svg" xmlns:xlink="http://www.w3.org/1999/xlink" x="0px" y="0px"
	 width="24px" height="24px" viewBox="0 0 24 24" enable-background="new 0 0 24 24" xml:space="preserve">
<g>
	<path d="M21,6h-4V3c0-0.552-0.447-1-1-1H8C7.447,2,7,2.448,7,3v3H3C2.447,6,2,6.448,2,7v14c0,0.552,0.447,1,1,1h18
		c0.553,0,1-0.448,1-1V7C22,6.448,21.553,6,21,6z M9,4h6v2H9V4z M20,20H4V8h4h8h4V20z"/>
	<polygon points="13,10 11,10 11,13 8,13 8,15 11,15 11,18 13,18 13,15 16,15 16,13 13,13 	"/>
</g>
</svg>
