<?xml version="1.0" encoding="utf-8"?>
<!-- Generator: Adobe Illustrator 16.0.0, SVG Export Plug-In . SVG Version: 6.00 Build 0)  -->
<!DOCTYPE svg PUBLIC "-//W3C//DTD SVG 1.1//EN" "http://www.w3.org/Graphics/SVG/1.1/DTD/svg11.dtd">
<svg version="1.1" id="Layer_1" xmlns="http://www.w3.org/2000/svg" xmlns:xlink="http://www.w3.org/1999/xlink" x="0px" y="0px"
	 width="24px" height="24px" viewBox="0 0 24 24" enable-background="new 0 0 24 24" xml:space="preserve">
<g>
	<path d="M5,2v18H3v2h2h2h2v-2H7v-5h11c0.379,0,0.725-0.214,0.895-0.553c0.169-0.339,0.133-0.744-0.095-1.047L16.25,10l2.55-3.4
		c0.228-0.303,0.264-0.708,0.095-1.047C18.725,5.214,18.379,5,18,5H7V2H5z M16,7l-1.8,2.4c-0.267,0.355-0.267,0.845,0,1.2L16,13H7V7
		H16z"/>
</g>
</svg>
