<?xml version="1.0" encoding="utf-8"?>
<!-- Generator: Adobe Illustrator 16.0.0, SVG Export Plug-In . SVG Version: 6.00 Build 0)  -->
<!DOCTYPE svg PUBLIC "-//W3C//DTD SVG 1.1//EN" "http://www.w3.org/Graphics/SVG/1.1/DTD/svg11.dtd">
<svg version="1.1" id="Layer_1" xmlns="http://www.w3.org/2000/svg" xmlns:xlink="http://www.w3.org/1999/xlink" x="0px" y="0px"
	 width="24px" height="24px" viewBox="0 0 24 24" enable-background="new 0 0 24 24" xml:space="preserve">
<g>
	<rect x="8" y="11.938" width="8" height="2"/>
	<path d="M21,5h-8.764L8.447,3.105C8.309,3.036,8.155,3,8,3H3C2.447,3,2,3.448,2,4v15.938c0,0.553,0.447,1,1,1h18
		c0.553,0,1-0.447,1-1V6C22,5.448,21.553,5,21,5z M20,18.938H4V5h3.764l3.789,1.895C11.691,6.964,11.845,7,12,7h8V18.938z"/>
</g>
</svg>
