<svg xmlns="http://www.w3.org/2000/svg" width="24" height="24" viewBox="0 0 24 24"><path d="M20,6h-7.738L8.935,4.129C8.785,4.044,8.616,4,8.444,4H4C3.447,4,3,4.447,3,5v6c-0.29,0-0.565,0.126-0.756,0.345 c-0.189,0.219-0.275,0.51-0.234,0.797l1,7C3.08,19.634,3.502,20,4,20h16c0.498,0,0.92-0.366,0.99-0.858l1-7 c0.041-0.287-0.045-0.578-0.234-0.797C21.565,11.126,21.29,11,21,11V7C21,6.447,20.553,6,20,6z M5,6h3.183l3.327,1.871 C11.659,7.956,11.828,8,12,8h7v3H5V6z M19.133,18H4.867l-0.714-5h15.693L19.133,18z"/></svg>