<svg xmlns="http://www.w3.org/2000/svg" width="24" height="24"><path d="M21 8h-2.352c.219-.456.352-.961.352-1.5C19 4.57 17.43 3 15.5 3c-1.689 0-2.803 1.434-3.5 2.882C11.303 4.434 10.19 3 8.5 3 6.57 3 5 4.57 5 6.5c0 .539.133 1.044.352 1.5H3a1 1 0 0 0-1 1v4a1 1 0 0 0 1 1h1v6a1 1 0 0 0 1 1h14a1 1 0 0 0 1-1v-6.001h1a1 1 0 0 0 1-1V9a1 1 0 0 0-1-1zM8.5 5c.888 0 1.714 1.526 2.198 3H8.5C7.673 8 7 7.327 7 6.5S7.673 5 8.5 5zM11 19H6v-5h5v5zm0-7H4v-2h7v2zm4.5-7c.827 0 1.5.673 1.5 1.5S16.327 8 15.5 8h-2.194c.451-1.368 1.251-3 2.194-3zM18 19h-5v-5h5v5zm2-7h-7v-2h7v2z"/></svg>