<svg xmlns="http://www.w3.org/2000/svg" width="24" height="24"><path d="M18.5 9c-1.825 0-3.312 1.409-3.469 3.194-1.417.026-3.229-.194-4.453-1.188-.667-.541-1.1-1.307-1.345-2.242A3.496 3.496 0 0 0 11.5 5.5C11.5 3.57 9.93 2 8 2S4.5 3.57 4.5 5.5c0 1.58 1.06 2.903 2.5 3.337v6.326c-1.44.434-2.5 1.757-2.5 3.337C4.5 20.43 6.07 22 8 22s3.5-1.57 3.5-3.5c0-1.58-1.06-2.903-2.5-3.337v-2.896c.104.098.205.2.318.292 1.645 1.335 3.814 1.642 5.463 1.642.236 0 .457-.008.669-.019C16.047 15.26 17.183 16 18.5 16c1.93 0 3.5-1.57 3.5-3.5S20.43 9 18.5 9zm-9 9.5c0 .827-.673 1.5-1.5 1.5s-1.5-.673-1.5-1.5S7.173 17 8 17s1.5.673 1.5 1.5zM8 7c-.827 0-1.5-.673-1.5-1.5S7.173 4 8 4s1.5.673 1.5 1.5S8.827 7 8 7zm10.5 7c-.827 0-1.5-.673-1.5-1.5s.673-1.5 1.5-1.5 1.5.673 1.5 1.5-.673 1.5-1.5 1.5z"/></svg>