<?xml version="1.0" encoding="utf-8"?>
<!-- Generator: Adobe Illustrator 16.0.0, SVG Export Plug-In . SVG Version: 6.00 Build 0)  -->
<!DOCTYPE svg PUBLIC "-//W3C//DTD SVG 1.1//EN" "http://www.w3.org/Graphics/SVG/1.1/DTD/svg11.dtd">
<svg version="1.1" id="Layer_1" xmlns="http://www.w3.org/2000/svg" xmlns:xlink="http://www.w3.org/1999/xlink" x="0px" y="0px"
	 width="24px" height="24px" viewBox="0 0 24 24" enable-background="new 0 0 24 24" xml:space="preserve">
<g>
	<path d="M6.51,2c-1.93,0-3.5,1.57-3.5,3.5c0,1.58,1.06,2.903,2.5,3.337v7.16c-0.001,0.179,0.027,1.781,1.174,2.931
		C7.392,19.64,8.34,20,9.5,20v2l3.5-3l-3.5-3v2c-1.823,0-1.984-1.534-1.99-2V8.837c1.44-0.434,2.5-1.757,2.5-3.337
		C10.01,3.57,8.439,2,6.51,2z M6.51,7c-0.827,0-1.5-0.673-1.5-1.5S5.683,4,6.51,4s1.5,0.673,1.5,1.5S7.337,7,6.51,7z"/>
	<path d="M14.5,4V2L11,5l3.5,3V6c1.829,0,2.001,1.539,2.01,2v7.163c-1.44,0.434-2.5,1.757-2.5,3.337c0,1.93,1.57,3.5,3.5,3.5
		s3.5-1.57,3.5-3.5c0-1.58-1.06-2.903-2.5-3.337V7.997C18.505,6.391,17.433,4,14.5,4z M19.01,18.5c0,0.827-0.673,1.5-1.5,1.5
		s-1.5-0.673-1.5-1.5s0.673-1.5,1.5-1.5S19.01,17.673,19.01,18.5z"/>
</g>
</svg>
