<svg xmlns="http://www.w3.org/2000/svg" width="24" height="24" viewBox="0 0 24 24"><path d="M6.51 2c-1.93 0-3.5 1.57-3.5 3.5 0 1.58 1.06 2.903 2.5 3.337v7.16c-.001.179.027 1.781 1.174 2.931C7.285 19.532 8.069 19.867 9 19.959V22l4-3-4-3v1.945C7.656 17.688 7.515 16.418 7.51 16V8.837c1.44-.434 2.5-1.757 2.5-3.337C10.01 3.57 8.439 2 6.51 2zM6.51 7c-.827 0-1.5-.673-1.5-1.5S5.683 4 6.51 4s1.5.673 1.5 1.5S7.337 7 6.51 7zM11 5l4 3V6.055C16.352 6.313 16.502 7.586 16.51 8v7.163c-1.44.434-2.5 1.757-2.5 3.337 0 1.93 1.57 3.5 3.5 3.5s3.5-1.57 3.5-3.5c0-1.58-1.06-2.903-2.5-3.337V7.997c-.005-1.508-.971-3.68-3.51-3.945V2L11 5zM17.51 17c.827 0 1.5.673 1.5 1.5s-.673 1.5-1.5 1.5-1.5-.673-1.5-1.5S16.683 17 17.51 17z"/></svg>