<svg xmlns="http://www.w3.org/2000/svg" width="24" height="24" viewBox="0 0 24 24"><path d="M3 18.5C3 20.43 4.57 22 6.5 22s3.5-1.57 3.5-3.5c0-1.58-1.06-2.903-2.5-3.337V8.837C8.94 8.403 10 7.08 10 5.5 10 3.57 8.43 2 6.5 2S3 3.57 3 5.5c0 1.58 1.06 2.903 2.5 3.337v6.326C4.06 15.597 3 16.92 3 18.5zM5 5.5C5 4.673 5.673 4 6.5 4S8 4.673 8 5.5 7.327 7 6.5 7 5 6.327 5 5.5zM6.5 17C7.327 17 8 17.673 8 18.5S7.327 20 6.5 20 5 19.327 5 18.5 5.673 17 6.5 17zM21 18.5c0-1.58-1.06-2.903-2.5-3.337V8c0-1.509-.959-3.683-3.5-3.947V2l-4 3 4 3V6.055C16.348 6.313 16.493 7.584 16.5 8v7.163C15.06 15.597 14 16.92 14 18.5c0 1.93 1.57 3.5 3.5 3.5S21 20.43 21 18.5zM17.5 20c-.827 0-1.5-.673-1.5-1.5s.673-1.5 1.5-1.5 1.5.673 1.5 1.5S18.327 20 17.5 20z"/></svg>