<?xml version="1.0" encoding="utf-8"?>
<!-- Generator: Adobe Illustrator 16.0.0, SVG Export Plug-In . SVG Version: 6.00 Build 0)  -->
<!DOCTYPE svg PUBLIC "-//W3C//DTD SVG 1.1//EN" "http://www.w3.org/Graphics/SVG/1.1/DTD/svg11.dtd">
<svg version="1.1" id="Layer_1" xmlns="http://www.w3.org/2000/svg" xmlns:xlink="http://www.w3.org/1999/xlink" x="0px" y="0px"
	 width="24px" height="24px" viewBox="0 0 24 24" enable-background="new 0 0 24 24" xml:space="preserve">
<g>
	<path d="M5.929,8.814c0.011,1.418,0.581,3.31,2.717,4.12C11,13.829,11,14.534,11,15v0.163C9.56,15.597,8.5,16.92,8.5,18.5
		c0,1.93,1.57,3.5,3.5,3.5s3.5-1.57,3.5-3.5c0-1.58-1.06-2.903-2.5-3.337V15c0-0.466,0-1.171,2.354-2.065
		c2.136-0.811,2.706-2.702,2.717-4.12C19.476,8.358,20.5,7.054,20.5,5.5C20.5,3.57,18.93,2,17,2s-3.5,1.57-3.5,3.5
		c0,1.606,1.094,2.949,2.571,3.359c-0.008,0.694-0.227,1.751-1.426,2.206c-1.192,0.452-2.053,0.953-2.646,1.536
		c-0.593-0.583-1.453-1.084-2.646-1.536C8.158,10.611,7.938,9.56,7.931,8.858C9.407,8.447,10.5,7.105,10.5,5.5C10.5,3.57,8.93,2,7,2
		S3.5,3.57,3.5,5.5C3.5,7.054,4.524,8.358,5.929,8.814z M15.5,5.5C15.5,4.673,16.173,4,17,4s1.5,0.673,1.5,1.5S17.827,7,17,7
		S15.5,6.327,15.5,5.5z M13.5,18.5c0,0.827-0.673,1.5-1.5,1.5s-1.5-0.673-1.5-1.5S11.173,17,12,17S13.5,17.673,13.5,18.5z M7,4
		c0.827,0,1.5,0.673,1.5,1.5S7.827,7,7,7S5.5,6.327,5.5,5.5S6.173,4,7,4z"/>
</g>
</svg>
