<?xml version="1.0" encoding="utf-8"?>
<!-- Generator: Adobe Illustrator 16.0.0, SVG Export Plug-In . SVG Version: 6.00 Build 0)  -->
<!DOCTYPE svg PUBLIC "-//W3C//DTD SVG 1.1//EN" "http://www.w3.org/Graphics/SVG/1.1/DTD/svg11.dtd">
<svg version="1.1" id="Layer_1" xmlns="http://www.w3.org/2000/svg" xmlns:xlink="http://www.w3.org/1999/xlink" x="0px" y="0px"
	 width="24px" height="24px" viewBox="0 0 24 24" enable-background="new 0 0 24 24" xml:space="preserve">
<g>
	<path d="M16.5,4C14.57,4,13,5.57,13,7.5c0,1.371,0.8,2.549,1.951,3.122c-0.113,1.485-0.608,2.634-1.524,3.379
		C11.799,15.326,9.273,15.267,8,15.134V8.837C9.44,8.403,10.5,7.08,10.5,5.5C10.5,3.57,8.93,2,7,2S3.5,3.57,3.5,5.5
		c0,1.58,1.06,2.903,2.5,3.337v6.326C4.56,15.597,3.5,16.92,3.5,18.5C3.5,20.43,5.07,22,7,22s3.5-1.57,3.5-3.5
		c0-0.477-0.098-0.931-0.271-1.345c1.461-0.117,3.126-0.521,4.452-1.597c1.331-1.08,2.092-2.627,2.273-4.604
		C18.668,10.729,20,9.273,20,7.5C20,5.57,18.43,4,16.5,4z M5.5,5.5C5.5,4.673,6.173,4,7,4s1.5,0.673,1.5,1.5S7.827,7,7,7
		S5.5,6.327,5.5,5.5z M7,20c-0.827,0-1.5-0.673-1.5-1.5c0-0.807,0.641-1.461,1.439-1.494c0.12,0.022,0.307,0.053,0.556,0.085
		C8.078,17.297,8.5,17.848,8.5,18.5C8.5,19.327,7.827,20,7,20z M16.5,9C15.673,9,15,8.327,15,7.5S15.673,6,16.5,6S18,6.673,18,7.5
		S17.327,9,16.5,9z"/>
</g>
</svg>
