<svg xmlns="http://www.w3.org/2000/svg" width="24" height="24" viewBox="0 0 24 24"><path d="M18.5,9c-1.825,0-3.312,1.409-3.469,3.194c-1.417,0.026-3.229-0.194-4.453-1.188c-0.667-0.541-1.1-1.307-1.345-2.242 C10.555,8.263,11.5,6.994,11.5,5.5C11.5,3.57,9.93,2,8,2S4.5,3.57,4.5,5.5c0,1.58,1.06,2.903,2.5,3.337v6.326 C5.56,15.597,4.5,16.92,4.5,18.5C4.5,20.43,6.07,22,8,22s3.5-1.57,3.5-3.5c0-1.58-1.06-2.903-2.5-3.337v-2.896 c0.104,0.098,0.205,0.2,0.318,0.292c1.645,1.335,3.814,1.642,5.463,1.642c0.236,0,0.457-0.008,0.669-0.019 C16.047,15.26,17.183,16,18.5,16c1.93,0,3.5-1.57,3.5-3.5S20.43,9,18.5,9z M9.5,18.5C9.5,19.327,8.827,20,8,20s-1.5-0.673-1.5-1.5 S7.173,17,8,17S9.5,17.673,9.5,18.5z M8,7C7.173,7,6.5,6.327,6.5,5.5S7.173,4,8,4s1.5,0.673,1.5,1.5S8.827,7,8,7z M18.5,14 c-0.827,0-1.5-0.673-1.5-1.5s0.673-1.5,1.5-1.5s1.5,0.673,1.5,1.5S19.327,14,18.5,14z"/></svg>