<?xml version="1.0" encoding="utf-8"?>
<!-- Generator: Adobe Illustrator 16.0.0, SVG Export Plug-In . SVG Version: 6.00 Build 0)  -->
<!DOCTYPE svg PUBLIC "-//W3C//DTD SVG 1.1//EN" "http://www.w3.org/Graphics/SVG/1.1/DTD/svg11.dtd">
<svg version="1.1" id="Layer_1" xmlns="http://www.w3.org/2000/svg" xmlns:xlink="http://www.w3.org/1999/xlink" x="0px" y="0px"
	 width="24px" height="24px" viewBox="0 0 24 24" enable-background="new 0 0 24 24" xml:space="preserve">
<g>
	<path d="M6.51,2c-1.93,0-3.5,1.57-3.5,3.5c0,1.58,1.06,2.903,2.5,3.337v7.16c-0.001,0.179,0.027,1.781,1.174,2.931
		C7.285,19.532,8.069,19.867,9,19.959V22l3-3l-3-3v1.945C7.656,17.688,7.515,16.418,7.51,16V8.837c1.44-0.434,2.5-1.757,2.5-3.337
		C10.01,3.57,8.439,2,6.51,2z M6.51,7c-0.827,0-1.5-0.673-1.5-1.5S5.683,4,6.51,4s1.5,0.673,1.5,1.5S7.337,7,6.51,7z"/>
	<path d="M12,5l3,3V6.055C16.352,6.313,16.502,7.586,16.51,8v7.163c-1.44,0.434-2.5,1.757-2.5,3.337c0,1.93,1.57,3.5,3.5,3.5
		s3.5-1.57,3.5-3.5c0-1.58-1.06-2.903-2.5-3.337V7.997c-0.005-1.508-0.971-3.68-3.51-3.945V2L12,5z M19.01,18.5
		c0,0.827-0.673,1.5-1.5,1.5s-1.5-0.673-1.5-1.5s0.673-1.5,1.5-1.5S19.01,17.673,19.01,18.5z"/>
</g>
</svg>
