<svg xmlns="http://www.w3.org/2000/svg" width="24" height="24"><path d="M16.5 4C14.57 4 13 5.57 13 7.5c0 1.371.8 2.549 1.951 3.122-.113 1.485-.608 2.634-1.524 3.379-1.628 1.325-4.154 1.266-5.427 1.133V8.837c1.44-.434 2.5-1.757 2.5-3.337C10.5 3.57 8.93 2 7 2S3.5 3.57 3.5 5.5c0 1.58 1.06 2.903 2.5 3.337v6.326c-1.44.434-2.5 1.757-2.5 3.337C3.5 20.43 5.07 22 7 22s3.5-1.57 3.5-3.5a3.48 3.48 0 0 0-.271-1.345c1.461-.117 3.126-.521 4.452-1.597 1.331-1.08 2.092-2.627 2.273-4.604C18.668 10.729 20 9.273 20 7.5 20 5.57 18.43 4 16.5 4zm-11 1.5C5.5 4.673 6.173 4 7 4s1.5.673 1.5 1.5S7.827 7 7 7s-1.5-.673-1.5-1.5zM7 20c-.827 0-1.5-.673-1.5-1.5 0-.807.641-1.461 1.439-1.494.12.022.307.053.556.085A1.498 1.498 0 0 1 8.5 18.5c0 .827-.673 1.5-1.5 1.5zm9.5-11c-.827 0-1.5-.673-1.5-1.5S15.673 6 16.5 6s1.5.673 1.5 1.5S17.327 9 16.5 9z"/></svg>