<svg xmlns="http://www.w3.org/2000/svg" width="24" height="24"><path d="M10.5 5.5C10.5 3.57 8.93 2 7 2S3.5 3.57 3.5 5.5c0 1.554 1.024 2.858 2.429 3.314.011 1.418.581 3.31 2.717 4.12C11 13.829 11 14.534 11 15v.163c-1.44.434-2.5 1.757-2.5 3.337 0 1.93 1.57 3.5 3.5 3.5s3.5-1.57 3.5-3.5c0-1.58-1.06-2.903-2.5-3.337V15c0-.466 0-1.171 2.354-2.065 2.136-.811 2.706-2.702 2.717-4.12C19.476 8.358 20.5 7.054 20.5 5.5 20.5 3.57 18.93 2 17 2s-3.5 1.57-3.5 3.5c0 1.606 1.094 2.949 2.571 3.359-.008.694-.227 1.751-1.426 2.206-1.192.452-2.053.953-2.646 1.536-.593-.583-1.453-1.084-2.646-1.536-1.195-.454-1.415-1.505-1.422-2.207C9.407 8.447 10.5 7.105 10.5 5.5zm5 0c0-.827.673-1.5 1.5-1.5s1.5.673 1.5 1.5S17.827 7 17 7s-1.5-.673-1.5-1.5zm-2 13c0 .827-.673 1.5-1.5 1.5s-1.5-.673-1.5-1.5.673-1.5 1.5-1.5 1.5.673 1.5 1.5zM7 7c-.827 0-1.5-.673-1.5-1.5S6.173 4 7 4s1.5.673 1.5 1.5S7.827 7 7 7z"/></svg>