<?xml version="1.0" encoding="utf-8"?>
<!-- Generator: Adobe Illustrator 16.0.0, SVG Export Plug-In . SVG Version: 6.00 Build 0)  -->
<!DOCTYPE svg PUBLIC "-//W3C//DTD SVG 1.1//EN" "http://www.w3.org/Graphics/SVG/1.1/DTD/svg11.dtd">
<svg version="1.1" id="Layer_1" xmlns="http://www.w3.org/2000/svg" xmlns:xlink="http://www.w3.org/1999/xlink" x="0px" y="0px"
	 width="24px" height="24px" viewBox="0 0 24 24" enable-background="new 0 0 24 24" xml:space="preserve">
<g>
	<path d="M3,18.5C3,20.43,4.57,22,6.5,22s3.5-1.57,3.5-3.5c0-1.58-1.06-2.903-2.5-3.337V8.837C8.94,8.403,10,7.08,10,5.5
		C10,3.57,8.43,2,6.5,2S3,3.57,3,5.5c0,1.58,1.06,2.903,2.5,3.337v6.326C4.06,15.597,3,16.92,3,18.5z M5,5.5C5,4.673,5.673,4,6.5,4
		S8,4.673,8,5.5S7.327,7,6.5,7S5,6.327,5,5.5z M6.5,17C7.327,17,8,17.673,8,18.5S7.327,20,6.5,20S5,19.327,5,18.5S5.673,17,6.5,17z"
		/>
	<path d="M21,18.5c0-1.58-1.06-2.903-2.5-3.337V8c0-1.509-0.959-3.683-3.5-3.947V2l-4,3l4,3V6.055C16.348,6.313,16.493,7.584,16.5,8
		v7.163C15.06,15.597,14,16.92,14,18.5c0,1.93,1.57,3.5,3.5,3.5S21,20.43,21,18.5z M17.5,20c-0.827,0-1.5-0.673-1.5-1.5
		s0.673-1.5,1.5-1.5s1.5,0.673,1.5,1.5S18.327,20,17.5,20z"/>
</g>
</svg>
