<svg xmlns="http://www.w3.org/2000/svg" width="24" height="24"><path d="M8 18v.904c-.458-.098-.961-.279-1.293-.611C5.58 17.166 4.414 16 3 16v2c.586 0 1.532.946 2.293 1.707.811.811 1.904 1.112 2.707 1.226V22h2v-3.924c.1-.58.474-1.163.655-1.321a1 1 0 0 0-.542-1.748C7.315 14.688 5 14.091 5 10c0-1.245.132-1.658.74-2.327.258-.284.33-.693.187-1.05-.113-.279-.44-1.534-.152-2.755.484-.035 1.404.107 2.665.96.243.164.547.214.828.136.842-.234 4.62-.234 5.466 0a.995.995 0 0 0 .827-.136c1.266-.857 2.179-.975 2.664-.964.289 1.224-.037 2.479-.15 2.758a1 1 0 0 0 .188 1.053C18.869 8.339 19 8.752 19 10c0 4.102-2.314 4.693-5.111 5.006a1 1 0 0 0-.542 1.751c.464.4.653.761.653 1.243v4.084h2V18c0-.48-.092-.896-.229-1.249C18.093 16.275 21 14.92 21 10c0-1.321-.147-2.239-.885-3.223.238-.947.428-2.591-.186-4.145a1 1 0 0 0-.533-.551c-.201-.088-1.969-.766-4.603.86-1.381-.205-4.209-.205-5.588 0-2.64-1.628-4.403-.947-4.604-.86a1.013 1.013 0 0 0-.531.551c-.614 1.552-.423 3.198-.184 4.146C3.147 7.766 3 8.682 3 10c0 4.971 2.981 6.302 5.317 6.766-.146.347-.256.72-.308 1.098-.006.044-.009.09-.009.136z"/></svg>