<svg xmlns="http://www.w3.org/2000/svg" width="24" height="24" viewBox="0 0 24 24"><path d="M8,18v0.904c-0.458-0.098-0.961-0.279-1.293-0.611C5.58,17.166,4.414,16,3,16v2c0.586,0,1.532,0.946,2.293,1.707 C6.104,20.518,7.197,20.819,8,20.933V22h2v-3.924c0.1-0.58,0.474-1.163,0.655-1.321c0.3-0.26,0.417-0.673,0.3-1.051 c-0.117-0.379-0.448-0.652-0.842-0.697C7.315,14.688,5,14.091,5,10c0-1.245,0.132-1.658,0.74-2.327 c0.258-0.284,0.33-0.693,0.187-1.05c-0.113-0.279-0.44-1.534-0.152-2.755c0.484-0.035,1.404,0.107,2.665,0.96 c0.243,0.164,0.547,0.214,0.828,0.136c0.842-0.234,4.62-0.234,5.466,0c0.284,0.079,0.586,0.028,0.827-0.136 c1.266-0.857,2.179-0.975,2.664-0.964c0.289,1.224-0.037,2.479-0.15,2.758c-0.146,0.357-0.073,0.768,0.188,1.053 C18.869,8.339,19,8.752,19,10c0,4.102-2.314,4.693-5.111,5.006c-0.395,0.045-0.727,0.318-0.844,0.698 c-0.118,0.38,0.001,0.793,0.302,1.053C13.811,17.157,14,17.518,14,18v4.084h2V18c0-0.48-0.092-0.896-0.229-1.249 C18.093,16.275,21,14.92,21,10c0-1.321-0.147-2.239-0.885-3.223c0.238-0.947,0.428-2.591-0.186-4.145 c-0.097-0.247-0.289-0.445-0.533-0.551c-0.201-0.088-1.969-0.766-4.603,0.86c-1.381-0.205-4.209-0.205-5.588,0 c-2.64-1.628-4.403-0.947-4.604-0.86C4.359,2.188,4.168,2.386,4.07,2.632C3.456,4.184,3.647,5.83,3.886,6.778 C3.147,7.766,3,8.682,3,10c0,4.971,2.981,6.302,5.317,6.766c-0.146,0.347-0.256,0.72-0.308,1.098C8.003,17.908,8,17.954,8,18z"/></svg>