<svg xmlns="http://www.w3.org/2000/svg" width="24" height="24" viewBox="0 0 24 24"><path d="M19.93 3.633a1 1 0 0 0-.533-.551c-.201-.087-1.969-.767-4.603.86-1.381-.205-4.209-.205-5.588 0-2.64-1.628-4.403-.947-4.604-.86a1.006 1.006 0 0 0-.532.55c-.614 1.552-.423 3.198-.184 4.146C3.147 8.766 3 9.682 3 11c0 4.169 2.979 5.341 5.314 5.772a4.443 4.443 0 0 0-.305 1.091A1.04 1.04 0 0 0 8 18v.905c-.457-.097-.961-.28-1.293-.612C5.58 17.166 4.414 16 3 16v2c.586 0 1.532.946 2.293 1.707 1.196 1.196 3.025 1.295 3.595 1.295.073 0 .126-.002.153-.003A1 1 0 0 0 10 20v-1.924c.1-.58.474-1.163.655-1.321a1 1 0 0 0-.542-1.748C6.875 14.638 5 13.863 5 11c0-1.245.132-1.658.74-2.327.258-.284.33-.693.187-1.05-.113-.279-.44-1.534-.152-2.755.484-.037 1.404.107 2.665.96a.993.993 0 0 0 .828.136c.842-.234 4.62-.234 5.466 0 .284.08.586.028.827-.136 1.266-.856 2.179-.979 2.664-.964.289 1.224-.037 2.479-.15 2.758a1 1 0 0 0 .188 1.053C18.869 9.339 19 9.752 19 11c0 2.873-1.874 3.645-5.111 4.006a1 1 0 0 0-.542 1.751c.464.4.653.761.653 1.243v3h2v-3c0-.479-.092-.893-.229-1.245C18.045 16.307 21 15.087 21 11c0-1.321-.147-2.239-.885-3.223.239-.947.428-2.59-.185-4.144z"/></svg>