<svg xmlns="http://www.w3.org/2000/svg" width="24" height="24" viewBox="0 0 24 24"><path d="M12 2C6.486 2 2 6.486 2 12s4.486 10 10 10 10-4.486 10-10S17.514 2 12 2zM4.069 13h2.974c.136 2.379.665 4.478 1.556 6.23A8.01 8.01 0 0 1 4.069 13zm2.961-2H4.069a8.012 8.012 0 0 1 4.618-6.273C7.704 6.618 7.136 8.762 7.03 11zm5.522 8.972c-.183.012-.365.028-.552.028-.186 0-.367-.016-.55-.027-1.401-1.698-2.228-4.077-2.409-6.973h6.113c-.208 2.773-1.117 5.196-2.602 6.972zM9.03 11c.139-2.596.994-5.028 2.451-6.974.172-.01.344-.026.519-.026.179 0 .354.016.53.027 1.035 1.364 2.427 3.78 2.627 6.973H9.03zm6.431 8.201c.955-1.794 1.538-3.901 1.691-6.201h2.778a8.005 8.005 0 0 1-4.469 6.201zM17.167 11a14.67 14.67 0 0 0-1.792-6.243A8.014 8.014 0 0 1 19.931 11h-2.764z"/></svg>