<?xml version="1.0" encoding="utf-8"?>
<!-- Generator: Adobe Illustrator 16.0.0, SVG Export Plug-In . SVG Version: 6.00 Build 0)  -->
<!DOCTYPE svg PUBLIC "-//W3C//DTD SVG 1.1//EN" "http://www.w3.org/Graphics/SVG/1.1/DTD/svg11.dtd">
<svg version="1.1" id="Layer_1" xmlns="http://www.w3.org/2000/svg" xmlns:xlink="http://www.w3.org/1999/xlink" x="0px" y="0px"
	 width="24px" height="24px" viewBox="0 0 24 24" enable-background="new 0 0 24 24" xml:space="preserve">
<g>
	<path d="M20,11h-8v2h6.93c-0.431,3.065-2.828,6-6.93,6c-3.86,0-7.001-3.141-7.001-7c0-3.86,3.141-7,7.001-7
		c1.868,0,3.61,0.708,4.903,1.993l1.41-1.419C16.643,3.914,14.4,3,12,3c-4.963,0-9.001,4.038-9.001,9c0,4.963,4.038,9,9.001,9
		c5.634,0,9-4.576,9-9C21,11.448,20.553,11,20,11z"/>
</g>
</svg>
