<svg xmlns="http://www.w3.org/2000/svg" width="24" height="24" viewBox="0 0 24 24"><path d="M9.484 14.5c3.032 0 5.5 2.468 5.5 5.5h2c0-2.99-1.763-5.569-4.3-6.773.925-.861 1.514-2.079 1.514-3.44 0-2.6-2.114-4.715-4.714-4.715S4.771 7.187 4.771 9.786c0 1.361.589 2.579 1.514 3.44-2.537 1.204-4.3 3.783-4.3 6.773h2C3.984 16.968 6.452 14.5 9.484 14.5zM9.484 7.071c1.496 0 2.714 1.218 2.714 2.715 0 1.496-1.218 2.714-2.714 2.714s-2.714-1.218-2.714-2.714C6.771 8.289 7.988 7.071 9.484 7.071zM15.782 13.195l.534.549C17.947 15.206 19 17.661 19 20h2c0-2.863-1.229-5.768-3.171-7.58.494-.803.76-1.796.746-2.845-.022-1.63-.712-3.199-1.892-4.305l-1.367 1.459c.785.736 1.244 1.783 1.259 2.873.012.888-.271 1.686-.778 2.187C15.407 12.175 15.4 12.802 15.782 13.195z"/></svg>