<?xml version="1.0" encoding="utf-8"?>
<!-- Generator: Adobe Illustrator 16.0.0, SVG Export Plug-In . SVG Version: 6.00 Build 0)  -->
<!DOCTYPE svg PUBLIC "-//W3C//DTD SVG 1.1//EN" "http://www.w3.org/Graphics/SVG/1.1/DTD/svg11.dtd">
<svg version="1.1" id="Layer_1" xmlns="http://www.w3.org/2000/svg" xmlns:xlink="http://www.w3.org/1999/xlink" x="0px" y="0px"
	 width="24px" height="24px" viewBox="0 0 24 24" enable-background="new 0 0 24 24" xml:space="preserve">
<g>
	<path d="M9.484,14.5c3.032,0,5.5,2.468,5.5,5.5h2c0-2.99-1.763-5.569-4.3-6.773c0.925-0.861,1.514-2.079,1.514-3.44
		c0-2.6-2.114-4.715-4.714-4.715S4.771,7.187,4.771,9.786c0,1.361,0.589,2.579,1.514,3.44c-2.537,1.204-4.3,3.783-4.3,6.773h2
		C3.984,16.968,6.452,14.5,9.484,14.5z M9.484,7.071c1.496,0,2.714,1.218,2.714,2.715c0,1.496-1.218,2.714-2.714,2.714
		s-2.714-1.218-2.714-2.714C6.771,8.289,7.988,7.071,9.484,7.071z"/>
	<path d="M15.782,13.195l0.534,0.549C17.947,15.206,19,17.661,19,20h2c0-2.863-1.229-5.768-3.171-7.58
		c0.494-0.803,0.76-1.796,0.746-2.845c-0.022-1.63-0.712-3.199-1.892-4.305l-1.367,1.459c0.785,0.736,1.244,1.783,1.259,2.873
		c0.012,0.888-0.271,1.686-0.778,2.187C15.407,12.175,15.4,12.802,15.782,13.195z"/>
</g>
</svg>
