<svg xmlns="http://www.w3.org/2000/svg" width="24" height="24"><path d="M9.484 14.5c3.032 0 5.5 2.468 5.5 5.5h2c0-2.99-1.763-5.569-4.3-6.773a4.688 4.688 0 0 0 1.514-3.44c0-2.6-2.114-4.715-4.714-4.715S4.771 7.187 4.771 9.786c0 1.361.589 2.579 1.514 3.44-2.537 1.204-4.3 3.783-4.3 6.773h2A5.505 5.505 0 0 1 9.484 14.5zm0-7.429a2.718 2.718 0 0 1 2.714 2.715c0 1.496-1.218 2.714-2.714 2.714S6.77 11.282 6.77 9.786a2.719 2.719 0 0 1 2.714-2.715zM15.782 13.195l.534.549C17.947 15.206 19 17.661 19 20h2c0-2.863-1.229-5.768-3.171-7.58.494-.803.76-1.796.746-2.845a6.038 6.038 0 0 0-1.892-4.305l-1.367 1.459a4.03 4.03 0 0 1 1.259 2.873c.012.888-.271 1.686-.778 2.187a.998.998 0 0 0-.015 1.406z"/></svg>