<?xml version="1.0" encoding="utf-8"?>
<!-- Generator: Adobe Illustrator 16.0.0, SVG Export Plug-In . SVG Version: 6.00 Build 0)  -->
<!DOCTYPE svg PUBLIC "-//W3C//DTD SVG 1.1//EN" "http://www.w3.org/Graphics/SVG/1.1/DTD/svg11.dtd">
<svg version="1.1" id="Layer_1" xmlns="http://www.w3.org/2000/svg" xmlns:xlink="http://www.w3.org/1999/xlink" x="0px" y="0px"
	 width="24px" height="24px" viewBox="0 0 24 24" enable-background="new 0 0 24 24" xml:space="preserve">
<g>
	<path d="M8,3v10.382l-2.553-1.276c-0.494-0.245-1.094-0.047-1.342,0.447l-1,2c-0.178,0.355-0.128,0.782,0.126,1.087l4.994,6
		C8.416,21.868,8.697,22,8.994,22H19c0.51,0,0.938-0.383,0.994-0.89l1-9c0.045-0.407-0.162-0.8-0.523-0.993l-6.976-3.72L12.994,2.89
		C12.938,2.383,12.51,2,12,2H9C8.447,2,8,2.447,8,3z M9.525,15.851C9.82,15.668,10,15.347,10,15V4h1.104l0.901,8.11l1.988-0.221
		l-0.231-2.083l5.169,2.757L18.104,20H9.463l-4.276-5.138l0.261-0.521l3.105,1.553C8.863,16.048,9.23,16.034,9.525,15.851z"/>
</g>
</svg>
