<svg xmlns="http://www.w3.org/2000/svg" width="24" height="24" viewBox="0 0 24 24"><path d="M12,21.031c0.322,0,0.609-0.163,0.792-0.409l7.415-7.415c2.354-2.354,2.354-6.049-0.002-8.416 c-1.137-1.131-2.631-1.754-4.209-1.754c-1.483,0-2.892,0.552-3.996,1.558c-1.104-1.006-2.512-1.558-3.996-1.558 c-1.578,0-3.072,0.623-4.213,1.758c-2.353,2.363-2.352,6.059,0.002,8.412l7.332,7.332C11.295,20.838,11.623,21.031,12,21.031z M5.205,6.209c0.76-0.756,1.754-1.172,2.799-1.172s2.035,0.416,2.789,1.17l0.5,0.5c0.391,0.391,1.023,0.391,1.414,0l0.5-0.5 c1.512-1.509,4.074-1.505,5.584-0.002c1.563,1.571,1.564,4.025,0.002,5.588L12,18.586l-6.793-6.793 C3.645,10.23,3.646,7.776,5.205,6.209z"/></svg>