<svg xmlns="http://www.w3.org/2000/svg" width="24" height="24"><path d="M20.143 15.314c1.288-1.531 1.796-2.967 1.806-2.998a.994.994 0 0 0 0-.633C21.927 11.617 19.633 5 12 5c-.715 0-1.369.074-1.992.18l1.828 1.828C11.892 7.007 11.943 7 12 7c5.351 0 7.424 3.846 7.926 5a8.578 8.578 0 0 1-1.181 1.917l1.398 1.397zM2.052 11.684a.994.994 0 0 0 0 .633C2.073 12.383 4.367 19 12 19c1.837 0 3.343-.399 4.603-.983l2.69 2.69 1.414-1.414-18-18-1.414 1.414 4.324 4.324c-2.611 1.952-3.552 4.611-3.565 4.653zm4.985-3.233l2.26 2.26C9.107 11.103 9 11.54 9 12c0 1.642 1.358 3 3 3 .46 0 .897-.107 1.289-.297l1.791 1.791A9.223 9.223 0 0 1 12 17c-5.351 0-7.424-3.846-7.926-5a8.628 8.628 0 0 1 2.963-3.549z"/></svg>