<svg xmlns="http://www.w3.org/2000/svg" width="24" height="24" viewBox="0 0 24 24"><path d="M20.143 15.314c1.288-1.531 1.796-2.967 1.806-2.998.069-.205.069-.428 0-.633C21.927 11.617 19.633 5 12 5c-.715 0-1.369.074-1.992.18l1.828 1.828C11.892 7.007 11.943 7 12 7c5.351 0 7.424 3.846 7.926 5-.176.404-.549 1.137-1.181 1.917L20.143 15.314zM2.052 11.684c-.069.205-.069.428 0 .633C2.073 12.383 4.367 19 12 19c1.837 0 3.343-.399 4.603-.983l2.69 2.69 1.414-1.414-18-18L1.293 2.707l4.324 4.324C3.006 8.983 2.065 11.642 2.052 11.684zM7.037 8.451l2.26 2.26C9.107 11.103 9 11.54 9 12c0 1.642 1.358 3 3 3 .46 0 .897-.107 1.289-.297l1.791 1.791C14.199 16.802 13.186 17 12 17c-5.351 0-7.424-3.846-7.926-5C4.375 11.309 5.253 9.668 7.037 8.451z"/></svg>