<svg xmlns="http://www.w3.org/2000/svg" width="24" height="24" viewBox="0 0 24 24"><path d="M19.902 15.596c1.471-1.633 2.035-3.247 2.046-3.279a.994.994 0 0 0 0-.633C21.927 11.617 19.633 5 12 5c-.886 0-1.692.097-2.439.254l1.776 1.776c.218-.013.434-.03.663-.03 5.351 0 7.424 3.846 7.926 5a8.657 8.657 0 0 1-1.419 2.2l1.395 1.396zM12 19c1.835 0 3.355-.389 4.615-.971l3.678 3.678 1.414-1.414-18-18-1.414 1.414 3.319 3.319c-2.614 1.952-3.547 4.615-3.561 4.657a.994.994 0 0 0 0 .633C2.073 12.383 4.367 19 12 19zM7.031 8.445l2.272 2.272c-.521 1.113-.337 2.491.575 3.403s2.29 1.097 3.403.575l1.801 1.801A9.242 9.242 0 0 1 12 17c-5.351 0-7.424-3.846-7.926-5a8.6 8.6 0 0 1 2.957-3.555z"/></svg>