<?xml version="1.0" encoding="utf-8"?>
<!-- Generator: Adobe Illustrator 16.0.0, SVG Export Plug-In . SVG Version: 6.00 Build 0)  -->
<!DOCTYPE svg PUBLIC "-//W3C//DTD SVG 1.1//EN" "http://www.w3.org/Graphics/SVG/1.1/DTD/svg11.dtd">
<svg version="1.1" id="Layer_1" xmlns="http://www.w3.org/2000/svg" xmlns:xlink="http://www.w3.org/1999/xlink" x="0px" y="0px"
	 width="24px" height="24px" viewBox="0 0 24 24" enable-background="new 0 0 24 24" xml:space="preserve">
<g>
	<path d="M20.143,15.314c1.288-1.531,1.796-2.967,1.806-2.998c0.069-0.205,0.069-0.428,0-0.633C21.927,11.617,19.633,5,12,5
		c-0.715,0-1.369,0.074-1.992,0.18l1.828,1.828C11.892,7.007,11.943,7,12,7c5.351,0,7.424,3.846,7.926,5
		c-0.176,0.404-0.549,1.137-1.181,1.917L20.143,15.314z"/>
	<path d="M2.052,11.684c-0.069,0.205-0.069,0.428,0,0.633C2.073,12.383,4.367,19,12,19c1.837,0,3.343-0.399,4.603-0.983l2.69,2.69
		l1.414-1.414l-18-18L1.293,2.707l4.324,4.324C3.006,8.983,2.065,11.642,2.052,11.684z M7.037,8.451l2.26,2.26
		C9.107,11.103,9,11.54,9,12c0,1.642,1.358,3,3,3c0.46,0,0.897-0.107,1.289-0.297l1.791,1.791C14.199,16.802,13.186,17,12,17
		c-5.351,0-7.424-3.846-7.926-5C4.375,11.309,5.253,9.668,7.037,8.451z"/>
</g>
</svg>
