<?xml version="1.0" encoding="utf-8"?>
<!-- Generator: Adobe Illustrator 16.0.0, SVG Export Plug-In . SVG Version: 6.00 Build 0)  -->
<!DOCTYPE svg PUBLIC "-//W3C//DTD SVG 1.1//EN" "http://www.w3.org/Graphics/SVG/1.1/DTD/svg11.dtd">
<svg version="1.1" id="Layer_1" xmlns="http://www.w3.org/2000/svg" xmlns:xlink="http://www.w3.org/1999/xlink" x="0px" y="0px"
	 width="24px" height="24px" viewBox="0 0 24 24" enable-background="new 0 0 24 24" xml:space="preserve">
<g>
	<path d="M4.929,19.071c1.867,1.868,4.378,2.896,7.071,2.896s5.204-1.028,7.071-2.896c1.868-1.868,2.897-4.38,2.896-7.072
		c0-2.692-1.028-5.203-2.896-7.07c-3.832-3.833-10.309-3.832-14.142,0L3,3v5h5L6.343,6.343c3.067-3.067,8.249-3.065,11.314,0
		c1.49,1.49,2.311,3.499,2.311,5.656c0,2.158-0.82,4.167-2.311,5.658c-1.49,1.49-3.499,2.31-5.657,2.31s-4.167-0.82-5.657-2.31
		L4.929,19.071z"/>
	<polygon points="11,6 10.996,13 17.994,13 17.994,11 12.997,11 13,6 	"/>
</g>
</svg>
