<svg xmlns="http://www.w3.org/2000/svg" width="24" height="24" viewBox="0 0 24 24"><path d="M4.929,19.071c1.867,1.868,4.378,2.896,7.071,2.896s5.204-1.028,7.071-2.896c1.868-1.868,2.897-4.38,2.896-7.072 c0-2.692-1.028-5.203-2.896-7.07C15.408,1.264,9.333,1.114,5.456,4.456L3.337,2.337V8H9L6.87,5.87 c3.106-2.581,7.89-2.423,10.788,0.474c1.49,1.49,2.311,3.499,2.311,5.656c0,2.158-0.82,4.167-2.311,5.658 c-1.49,1.49-3.499,2.31-5.657,2.31s-4.167-0.82-5.657-2.31L4.929,19.071z"/><path d="M11 6.999L10.996 13 17 13 17 11 12.997 11 13 7z"/></svg>