<?xml version="1.0" encoding="utf-8"?>
<!-- Generator: Adobe Illustrator 16.0.0, SVG Export Plug-In . SVG Version: 6.00 Build 0)  -->
<!DOCTYPE svg PUBLIC "-//W3C//DTD SVG 1.1//EN" "http://www.w3.org/Graphics/SVG/1.1/DTD/svg11.dtd">
<svg version="1.1" id="Layer_1" xmlns="http://www.w3.org/2000/svg" xmlns:xlink="http://www.w3.org/1999/xlink" x="0px" y="0px"
	 width="24px" height="24px" viewBox="0 0 24 24" enable-background="new 0 0 24 24" xml:space="preserve">
<g>
	<path d="M3,13h1v7c0,0.552,0.447,1,1,1h3h8h3c0.553,0,1-0.448,1-1v-7h1c0.415,0,0.787-0.256,0.935-0.645s0.04-0.827-0.271-1.103
		l-9-8c-0.379-0.337-0.949-0.337-1.328,0l-9,8c-0.311,0.276-0.418,0.715-0.271,1.103S2.585,13,3,13z M10,19v-4h4v4H10z M12,5.338
		l6.513,5.789C18.207,11.298,18,11.625,18,12v7h-2v-6H8v6H6v-7c0-0.375-0.207-0.702-0.513-0.873L12,5.338z"/>
</g>
</svg>
