<svg xmlns="http://www.w3.org/2000/svg" width="24" height="24" viewBox="0 0 24 24"><path d="M11.5 22c4.094 0 8.5-2.504 8.5-8 0-.181-.026-4.44-2.293-6.707a1 1 0 0 0-1.677.465c-.285 1.141-.744 1.88-1.219 2.359.502-1.817.396-3.409-.322-4.751-1.524-2.847-5.209-3.339-5.365-3.358a1.018 1.018 0 0 0-.786.242A1 1 0 0 0 8 3c0 .025-.02 2.605-1.707 4.293C4.239 9.347 3 10.586 3 14c0 5.526 4.27 8 8.5 8zM7.707 8.707c1.431-1.431 1.969-3.274 2.171-4.474.916.29 2.22.895 2.852 2.085.682 1.282.472 3.043-.624 5.234A1 1 0 0 0 13 13c.13 0 2.716-.038 4.238-2.833.745 1.731.762 3.807.762 3.833 0 3.385-2.047 5.097-4.35 5.718-1.013.116-4.009-.137-5.65-6.718 0 0-1.387 3.475-.688 5.786C5.965 17.85 5 16.32 5 14c0-2.586.737-3.323 2.707-5.293z"/></svg>