<svg xmlns="http://www.w3.org/2000/svg" width="24" height="24"><path d="M12.5 22c4.094 0 8.5-2.504 8.5-8 0-.465-.071-4.576-2.531-5.883a1 1 0 0 0-1.463.772c-.473 4.255-2.37 5.391-3.417 5.391-.415 0-.761-.167-.901-.436-.162-.31-.056-.774.291-1.275 1.652-2.388 2.128-4.557 1.416-6.448C13.241 3.063 9.396 2.07 9.232 2.03a1 1 0 0 0-1.19 1.289c.009.024.814 2.498-.815 4.486-.156.19-.352.391-.567.613C5.601 9.514 4 11.168 4 14c0 4.579 4.487 8 8.5 8zM8.098 9.809c.256-.266.49-.509.675-.736 1.259-1.535 1.51-3.24 1.468-4.504.871.453 1.877 1.183 2.281 2.258.468 1.239.067 2.788-1.188 4.604-.784 1.134-.937 2.352-.418 3.342.487.93 1.512 1.508 2.673 1.508 1.79 0 3.979-1.33 4.979-4.908.332.97.43 2.11.432 2.627 0 4.429-3.502 6-6.5 6C9.494 20 6 17.379 6 14c0-2.022 1.163-3.225 2.098-4.191z"/></svg>