<svg xmlns="http://www.w3.org/2000/svg" width="24" height="24" viewBox="0 0 24 24"><path d="M12.5,22c4.094,0,8.5-2.504,8.5-8c0-0.465-0.071-4.576-2.531-5.883c-0.292-0.156-0.644-0.155-0.936-0.001 c-0.293,0.154-0.49,0.444-0.527,0.773c-0.473,4.255-2.37,5.391-3.417,5.391c-0.415,0-0.761-0.167-0.901-0.436 c-0.162-0.31-0.056-0.774,0.291-1.275c1.652-2.388,2.128-4.557,1.416-6.448C13.241,3.063,9.396,2.07,9.232,2.03 C8.881,1.94,8.504,2.054,8.256,2.321C8.008,2.59,7.926,2.973,8.042,3.319c0.009,0.024,0.814,2.498-0.815,4.486 C7.071,7.995,6.875,8.196,6.66,8.418C5.601,9.514,4,11.168,4,14C4,18.579,8.487,22,12.5,22z M8.098,9.809 C8.354,9.543,8.588,9.3,8.773,9.073c1.259-1.535,1.51-3.24,1.468-4.504c0.871,0.453,1.877,1.183,2.281,2.258 c0.468,1.239,0.067,2.788-1.188,4.604c-0.784,1.134-0.937,2.352-0.418,3.342c0.487,0.93,1.512,1.508,2.673,1.508 c1.79,0,3.979-1.33,4.979-4.908C18.9,12.343,18.998,13.483,19,14c0,4.429-3.502,6-6.5,6C9.494,20,6,17.379,6,14 C6,11.978,7.163,10.775,8.098,9.809z"/></svg>