<svg xmlns="http://www.w3.org/2000/svg" width="24" height="24" viewBox="0 0 24 24"><path d="M11 2h2v2h-2zM5.707 7.121L4.293 5.707l1.414-1.414 1.414 1.414zm12.586 0l-1.414-1.414 1.414-1.414 1.414 1.414zM6 11.5c0 2.566 1.152 3.652 2.268 4.702.108.103.22.207.331.314l.432 1.726c.111.446.51.758.969.758h4c.459 0 .858-.313.97-.758l.432-1.726c.111-.107.223-.212.331-.314C16.848 15.152 18 14.066 18 11.5 18 8.364 15.421 6 12 6s-6 2.364-6 5.5zM12 8c2.317 0 4 1.472 4 3.5 0 1.703-.651 2.316-1.639 3.246-.187.176-.377.355-.568.547a1.001 1.001 0 0 0-.263.465L13.219 17h-2.438l-.312-1.242a1.001 1.001 0 0 0-.263-.465c-.191-.191-.382-.371-.568-.547C8.651 13.816 8 13.203 8 11.5 8 9.472 9.683 8 12 8zm-2 12h4v2h-4z"/></svg>