<svg xmlns="http://www.w3.org/2000/svg" width="24" height="24"><path d="M10 20h4v2h-4zM14.551 18.176c.181-1.011.472-2.108.617-2.343.271-.386.561-.725.841-1.053.831-.975 1.691-1.982 1.691-3.83 0-3.143-2.557-5.7-5.7-5.7s-5.7 2.557-5.7 5.7c0 1.869.862 2.873 1.696 3.845.271.315.559.649.834 1.037.15.239.439 1.334.619 2.343l.147.825h4.808l.147-.824zm-1.02-3.491c-.335.477-.609 1.504-.786 2.315h-1.489c-.177-.813-.451-1.843-.791-2.32-.325-.458-.658-.846-.951-1.188-.757-.881-1.214-1.413-1.214-2.542 0-2.041 1.66-3.7 3.7-3.7s3.7 1.66 3.7 3.7c0 1.111-.456 1.646-1.213 2.531-.296.347-.631.741-.956 1.204zM11 2h2v2h-2zM5.707 7.121L4.293 5.707l1.414-1.414 1.414 1.414zM18.293 4.293l1.414 1.414-1.414 1.414-1.414-1.414z"/></svg>