<?xml version="1.0" encoding="utf-8"?>
<!-- Generator: Adobe Illustrator 16.0.0, SVG Export Plug-In . SVG Version: 6.00 Build 0)  -->
<!DOCTYPE svg PUBLIC "-//W3C//DTD SVG 1.1//EN" "http://www.w3.org/Graphics/SVG/1.1/DTD/svg11.dtd">
<svg version="1.1" id="Layer_1" xmlns="http://www.w3.org/2000/svg" xmlns:xlink="http://www.w3.org/1999/xlink" x="0px" y="0px"
	 width="24px" height="24px" viewBox="0 0 24 24" enable-background="new 0 0 24 24" xml:space="preserve">
<g>
	<rect x="10" y="20" width="4" height="2"/>
	<path d="M14.551,18.176c0.181-1.011,0.472-2.108,0.617-2.343c0.271-0.386,0.561-0.725,0.841-1.053
		c0.831-0.975,1.691-1.982,1.691-3.83c0-3.143-2.557-5.7-5.7-5.7s-5.7,2.557-5.7,5.7c0,1.869,0.862,2.873,1.696,3.845
		c0.271,0.315,0.559,0.649,0.834,1.037c0.15,0.239,0.439,1.334,0.619,2.343L9.596,19h3.971h0.837L14.551,18.176z M13.531,14.685
		c-0.335,0.477-0.609,1.504-0.786,2.315h-1.489c-0.177-0.813-0.451-1.843-0.791-2.32c-0.325-0.458-0.658-0.846-0.951-1.188
		C8.757,12.611,8.3,12.079,8.3,10.95c0-2.041,1.66-3.7,3.7-3.7s3.7,1.66,3.7,3.7c0,1.111-0.456,1.646-1.213,2.531
		C14.191,13.828,13.856,14.222,13.531,14.685z"/>
	<rect x="11" y="2" width="2" height="2"/>
	<rect x="4.707" y="4.707" transform="matrix(-0.7071 -0.7071 0.7071 -0.7071 5.707 13.778)" width="2" height="2"/>
	<rect x="17.293" y="4.707" transform="matrix(0.7071 0.7071 -0.7071 0.7071 9.3934 -11.2635)" width="2" height="2"/>
</g>
</svg>
