<svg xmlns="http://www.w3.org/2000/svg" width="24" height="24" viewBox="0 0 24 24"><path d="M10 20H14V22H10zM14.551 18.176c.181-1.011.472-2.108.617-2.343.271-.386.561-.725.841-1.053.831-.975 1.691-1.982 1.691-3.83 0-3.143-2.557-5.7-5.7-5.7s-5.7 2.557-5.7 5.7c0 1.869.862 2.873 1.696 3.845.271.315.559.649.834 1.037.15.239.439 1.334.619 2.343L9.596 19h3.971.837L14.551 18.176zM13.531 14.685c-.335.477-.609 1.504-.786 2.315h-1.489c-.177-.813-.451-1.843-.791-2.32-.325-.458-.658-.846-.951-1.188C8.757 12.611 8.3 12.079 8.3 10.95c0-2.041 1.66-3.7 3.7-3.7s3.7 1.66 3.7 3.7c0 1.111-.456 1.646-1.213 2.531C14.191 13.828 13.856 14.222 13.531 14.685zM11 2H13V4H11z"/><path transform="rotate(-134.999 5.707 5.707)" d="M4.707 4.707H6.707V6.707H4.707z"/><path transform="rotate(45.001 18.293 5.707)" d="M17.293 4.707H19.293V6.707H17.293z"/></svg>