<?xml version="1.0" encoding="utf-8"?>
<!-- Generator: Adobe Illustrator 16.0.0, SVG Export Plug-In . SVG Version: 6.00 Build 0)  -->
<!DOCTYPE svg PUBLIC "-//W3C//DTD SVG 1.1//EN" "http://www.w3.org/Graphics/SVG/1.1/DTD/svg11.dtd">
<svg version="1.1" id="Layer_1" xmlns="http://www.w3.org/2000/svg" xmlns:xlink="http://www.w3.org/1999/xlink" x="0px" y="0px"
	 width="24px" height="24px" viewBox="0 0 24 24" enable-background="new 0 0 24 24" xml:space="preserve">
<g>
	<path d="M4.999,21h14c0.553,0,1-0.448,1-1V4c0-0.552-0.447-1-0.999-1L5,2.992c-0.001,0-0.001,0-0.001,0
		c-0.265,0-0.52,0.109-0.707,0.296C4.104,3.477,3.999,3.735,3.999,4v16C3.999,20.552,4.446,21,4.999,21z M5.999,4.993l12,0.007V14
		h-12V4.993z M5.999,16h12v3h-12V16z"/>
	<polygon points="10.857,10.571 10,10 8,12 10,12 13,12 16,12 13,7 	"/>
	<circle cx="9" cy="8" r="1"/>
</g>
</svg>
