<?xml version="1.0" encoding="utf-8"?>
<!-- Generator: Adobe Illustrator 16.0.0, SVG Export Plug-In . SVG Version: 6.00 Build 0)  -->
<!DOCTYPE svg PUBLIC "-//W3C//DTD SVG 1.1//EN" "http://www.w3.org/Graphics/SVG/1.1/DTD/svg11.dtd">
<svg version="1.1" id="Layer_1" xmlns="http://www.w3.org/2000/svg" xmlns:xlink="http://www.w3.org/1999/xlink" x="0px" y="0px"
	 width="24px" height="24px" viewBox="0 0 24 24" enable-background="new 0 0 24 24" xml:space="preserve">
<g>
	<polygon points="11,3 11,12.999 8,12.999 12,17 16,13 13,13 13,3 	"/>
	<path d="M3,10v10c0,0.553,0.447,1,1,1h16c0.553,0,1-0.447,1-1V10c0-0.266-0.105-0.521-0.293-0.708
		C20.518,9.105,20.266,8.953,19.998,9L14.99,9.008l0.004,2L19,11.002V19H5v-8h4V9H4C3.447,9,3,9.447,3,10z"/>
</g>
</svg>
