<?xml version="1.0" encoding="utf-8"?>
<!-- Generator: Adobe Illustrator 16.0.0, SVG Export Plug-In . SVG Version: 6.00 Build 0)  -->
<!DOCTYPE svg PUBLIC "-//W3C//DTD SVG 1.1//EN" "http://www.w3.org/Graphics/SVG/1.1/DTD/svg11.dtd">
<svg version="1.1" id="Layer_1" xmlns="http://www.w3.org/2000/svg" xmlns:xlink="http://www.w3.org/1999/xlink" x="0px" y="0px"
	 width="24px" height="24px" viewBox="0 0 24 24" enable-background="new 0 0 24 24" xml:space="preserve">
<g>
	<path d="M18.919,3.606C18.762,3.238,18.4,3,18,3H6C5.6,3,5.238,3.238,5.081,3.606l-3,7C2.029,10.728,2,10.86,2,11v8
		c0,0.553,0.447,1,1,1h18c0.553,0,1-0.447,1-1v-8c0-0.14-0.029-0.272-0.081-0.394L18.919,3.606z M6.659,5h10.682l2.143,5H15
		c-0.553,0-1,0.447-1,1c0,1.103-0.897,2-2,2s-2-0.897-2-2c0-0.553-0.447-1-1-1H4.517L6.659,5z M20,18H4v-6h4.127
		c0.444,1.724,2.013,3,3.873,3s3.429-1.276,3.873-3H20V18z"/>
</g>
</svg>
