<svg xmlns="http://www.w3.org/2000/svg" width="24" height="24"><path d="M15.93 1.922H8.054a6.138 6.138 0 0 0-6.132 6.131v7.876a6.14 6.14 0 0 0 6.132 6.132h7.876a6.14 6.14 0 0 0 6.132-6.132V8.053a6.138 6.138 0 0 0-6.132-6.131zm4.132 14.008a4.137 4.137 0 0 1-4.132 4.132H8.054a4.137 4.137 0 0 1-4.132-4.132V8.053a4.136 4.136 0 0 1 4.132-4.131h7.876a4.137 4.137 0 0 1 4.132 4.131v7.877z"/><path d="M11.978 6.953a5.028 5.028 0 0 0-5.023 5.023c0 2.77 2.254 5.023 5.023 5.023s5.023-2.254 5.023-5.023a5.03 5.03 0 0 0-5.023-5.023zm0 8.047c-1.667 0-3.023-1.356-3.023-3.023s1.356-3.023 3.023-3.023 3.023 1.356 3.023 3.023S13.645 15 11.978 15z"/><circle cx="17" cy="7" r="1"/></svg>