<?xml version="1.0" encoding="utf-8"?>
<!-- Generator: Adobe Illustrator 16.0.0, SVG Export Plug-In . SVG Version: 6.00 Build 0)  -->
<!DOCTYPE svg PUBLIC "-//W3C//DTD SVG 1.1//EN" "http://www.w3.org/Graphics/SVG/1.1/DTD/svg11.dtd">
<svg version="1.1" id="Layer_1" xmlns="http://www.w3.org/2000/svg" xmlns:xlink="http://www.w3.org/1999/xlink" x="0px" y="0px"
	 width="24px" height="24px" viewBox="0 0 24 24" enable-background="new 0 0 24 24" xml:space="preserve">
<g>
	<path d="M15.93,1.922H8.054c-3.381,0-6.132,2.75-6.132,6.131v7.876c0,3.381,2.751,6.132,6.132,6.132h7.876
		c3.381,0,6.132-2.751,6.132-6.132V8.053C22.062,4.672,19.311,1.922,15.93,1.922z M20.062,15.93c0,2.278-1.854,4.132-4.132,4.132
		H8.054c-2.278,0-4.132-1.854-4.132-4.132V8.053c0-2.278,1.854-4.131,4.132-4.131h7.876c2.278,0,4.132,1.854,4.132,4.131V15.93z"/>
	<path d="M11.978,6.953c-2.77,0-5.023,2.253-5.023,5.023c0,2.77,2.254,5.023,5.023,5.023s5.023-2.254,5.023-5.023
		C17.001,9.207,14.747,6.953,11.978,6.953z M11.978,15c-1.667,0-3.023-1.356-3.023-3.023s1.356-3.023,3.023-3.023
		s3.023,1.356,3.023,3.023S13.645,15,11.978,15z"/>
	<circle cx="17" cy="7" r="1"/>
</g>
</svg>
