<svg xmlns="http://www.w3.org/2000/svg" width="24" height="24" viewBox="0 0 24 24"><path d="M15.506 3H8.519C5.424 3 3 5.415 3 8.497v6.988A5.523 5.523 0 0 0 8.519 21h6.987C18.587 21 21 18.578 21 15.485V8.497C21 5.415 18.587 3 15.506 3zM19 15.485C19 17.456 17.465 19 15.506 19H8.519C6.546 19 5 17.456 5 15.485V8.497C5 6.536 6.546 5 8.519 5h6.987A3.458 3.458 0 0 1 19 8.497v6.988z"/><path d="M12 8c-2.206 0-4 1.794-4 4s1.794 4 4 4 4-1.794 4-4-1.794-4-4-4zm0 6c-1.121 0-2-.879-2-2s.879-2 2-2 2 .879 2 2-.879 2-2 2z"/><circle cx="16.5" cy="7.5" r="1"/></svg>