<?xml version="1.0" encoding="utf-8"?>
<!-- Generator: Adobe Illustrator 16.0.0, SVG Export Plug-In . SVG Version: 6.00 Build 0)  -->
<!DOCTYPE svg PUBLIC "-//W3C//DTD SVG 1.1//EN" "http://www.w3.org/Graphics/SVG/1.1/DTD/svg11.dtd">
<svg version="1.1" id="Layer_1" xmlns="http://www.w3.org/2000/svg" xmlns:xlink="http://www.w3.org/1999/xlink" x="0px" y="0px"
	 width="24px" height="24px" viewBox="0 0 24 24" enable-background="new 0 0 24 24" xml:space="preserve">
<g>
	<path d="M21.986,9.74c-0.002-0.028-0.005-0.058-0.008-0.088C21.802,7.044,19.615,5,17,5H7C4.321,5,2.142,7.076,2.013,9.737
		C2.003,9.816,2,9.898,2,9.99v6.51c0,0.925,0.373,1.828,1.022,2.476C3.672,19.627,4.575,20,5.5,20c1.8,0,2.854-1.004,4.19-2.276
		c0.236-0.226,1.1-0.646,1.54-0.751c0.25-0.059,1.289-0.059,1.539,0c0.44,0.104,1.304,0.525,1.541,0.752
		C15.646,18.996,16.7,20,18.5,20c0.925,0,1.828-0.373,2.476-1.022C21.627,18.328,22,17.425,22,16.5V10
		C22,9.905,21.996,9.82,21.986,9.74z M20,16.5c0,0.397-0.159,0.784-0.438,1.063C19.284,17.841,18.897,18,18.5,18
		c-0.959,0-1.555-0.528-2.81-1.724c-0.576-0.55-1.821-1.098-2.46-1.249c-0.416-0.099-0.949-0.113-1.23-0.113
		s-0.814,0.015-1.23,0.113c-0.639,0.151-1.884,0.699-2.459,1.248C7.055,17.472,6.459,18,5.5,18c-0.397,0-0.784-0.159-1.063-0.438
		C4.159,17.284,4,16.897,4,16.5l-0.009-6.478c0.01-0.051,0.016-0.103,0.018-0.155C4.069,8.26,5.383,7,7,7h10
		c1.567,0,2.877,1.225,2.98,2.72c0,0.06,0.005,0.12,0.01,0.12c0,0.064-0.003,0.097,0.01,0.16V16.5z"/>
	<circle cx="16" cy="13" r="1"/>
	<circle cx="18" cy="11" r="1"/>
	<circle cx="16" cy="9" r="1"/>
	<circle cx="14" cy="11" r="1"/>
	<circle cx="8" cy="11" r="2"/>
</g>
</svg>
