<?xml version="1.0" encoding="utf-8"?>
<!-- Generator: Adobe Illustrator 16.0.0, SVG Export Plug-In . SVG Version: 6.00 Build 0)  -->
<!DOCTYPE svg PUBLIC "-//W3C//DTD SVG 1.1//EN" "http://www.w3.org/Graphics/SVG/1.1/DTD/svg11.dtd">
<svg version="1.1" id="Layer_1" xmlns="http://www.w3.org/2000/svg" xmlns:xlink="http://www.w3.org/1999/xlink" x="0px" y="0px"
	 width="24px" height="24px" viewBox="0 0 24 24" enable-background="new 0 0 24 24" xml:space="preserve">
<g>
	<path d="M7,17c2.413,0,4.433-1.719,4.898-3.998L14,13.009V15h2v-1.985l1.029,0.003L18,13.009V16h2v-3h2v-2h-2v-0.009L19.008,11
		h-7.109C11.435,8.721,9.414,7,7,7c-2.757,0-5,2.243-5,5S4.243,17,7,17z M7,9c1.654,0,3,1.346,3,3s-1.346,3-3,3s-3-1.346-3-3
		S5.346,9,7,9z"/>
</g>
</svg>
