<svg xmlns="http://www.w3.org/2000/svg" width="24" height="24" viewBox="0 0 24 24"><path d="M12,2.007c-2.675,0-5.187,1.037-7.071,2.922c-3.899,3.899-3.899,10.243,0,14.143c1.885,1.885,4.396,2.923,7.071,2.923 s5.186-1.038,7.07-2.923c1.886-1.885,2.924-4.396,2.924-7.071s-1.038-5.187-2.924-7.071C17.186,3.044,14.675,2.007,12,2.007z M17.656,17.657c-1.507,1.507-3.516,2.337-5.656,2.337s-4.15-0.83-5.657-2.337c-3.119-3.119-3.119-8.195,0-11.314 C7.85,4.836,9.859,4.007,12,4.007s4.149,0.829,5.656,2.336c1.508,1.508,2.338,3.517,2.338,5.657S19.164,16.149,17.656,17.657z"/><path d="M14.664 9L9 9 9 14.663 11.125 12.539 14.293 15.707 15.707 14.293 12.539 11.125z"/></svg>