<?xml version="1.0" encoding="utf-8"?>
<!-- Generator: Adobe Illustrator 16.0.0, SVG Export Plug-In . SVG Version: 6.00 Build 0)  -->
<!DOCTYPE svg PUBLIC "-//W3C//DTD SVG 1.1//EN" "http://www.w3.org/Graphics/SVG/1.1/DTD/svg11.dtd">
<svg version="1.1" id="Layer_1" xmlns="http://www.w3.org/2000/svg" xmlns:xlink="http://www.w3.org/1999/xlink" x="0px" y="0px"
	 width="24px" height="24px" viewBox="0 0 24 24" enable-background="new 0 0 24 24" xml:space="preserve">
<g>
	<path d="M12,2.006c-2.675,0-5.187,1.038-7.071,2.924c-3.898,3.898-3.898,10.242,0,14.142c1.885,1.885,4.396,2.923,7.071,2.923
		s5.187-1.038,7.071-2.923c3.898-3.899,3.898-10.243,0-14.142C17.187,3.044,14.675,2.006,12,2.006z M17.657,17.657
		c-1.507,1.507-3.516,2.337-5.657,2.337s-4.15-0.83-5.657-2.337c-3.118-3.119-3.118-8.194,0-11.313
		C7.851,4.836,9.859,4.006,12,4.006s4.149,0.83,5.657,2.338C20.775,9.463,20.775,14.538,17.657,17.657z"/>
	<polygon points="14.293,8.293 11.125,11.461 9,9.336 9,15 14.663,15 12.539,12.875 15.707,9.707 	"/>
</g>
</svg>
