<?xml version="1.0" encoding="utf-8"?>
<!-- Generator: Adobe Illustrator 16.0.0, SVG Export Plug-In . SVG Version: 6.00 Build 0)  -->
<!DOCTYPE svg PUBLIC "-//W3C//DTD SVG 1.1//EN" "http://www.w3.org/Graphics/SVG/1.1/DTD/svg11.dtd">
<svg version="1.1" id="Layer_1" xmlns="http://www.w3.org/2000/svg" xmlns:xlink="http://www.w3.org/1999/xlink" x="0px" y="0px"
	 width="24px" height="24px" viewBox="0 0 24 24" enable-background="new 0 0 24 24" xml:space="preserve">
<g>
	<path d="M21,8h-6.523l1.452-3.628c0.193-0.483-0.017-1.033-0.481-1.266l-2-1c-0.386-0.191-0.849-0.118-1.154,0.187L6.586,7.995H3
		c-0.553,0-1,0.448-1,1V20c0,0.552,0.447,1,1,1h4h11c0.417,0,0.79-0.259,0.937-0.649l3-8C21.979,12.239,22,12.12,22,12V9
		C22,8.448,21.553,8,21,8z M4,9.995h2V19H4V9.995z M20,11.819L17.307,19H8V9.409l5.197-5.192l0.532,0.266l-1.658,4.146
		c-0.123,0.308-0.085,0.657,0.101,0.932C12.358,9.835,12.668,10,13,10h7V11.819z"/>
</g>
</svg>
