<?xml version="1.0" encoding="utf-8"?>
<!-- Generator: Adobe Illustrator 16.0.0, SVG Export Plug-In . SVG Version: 6.00 Build 0)  -->
<!DOCTYPE svg PUBLIC "-//W3C//DTD SVG 1.1//EN" "http://www.w3.org/Graphics/SVG/1.1/DTD/svg11.dtd">
<svg version="1.1" id="Layer_1" xmlns="http://www.w3.org/2000/svg" xmlns:xlink="http://www.w3.org/1999/xlink" x="0px" y="0px"
	 width="24px" height="24px" viewBox="0 0 24 24" enable-background="new 0 0 24 24" xml:space="preserve">
<g>
	<path d="M19.071,12c1.949-1.949,1.949-5.121,0-7.07S13.949,2.979,12,4.929l-1.903,1.903c0.907-0.184,1.848-0.152,2.743,0.085
		l0.574-0.574c1.169-1.169,3.073-1.169,4.243,0.001s1.169,3.072,0,4.242l-2.122,2.121c-1.17,1.17-3.072,1.17-4.242,0L10.586,12
		l-1.415,1.414l0.707,0.707c1.949,1.949,5.123,1.949,7.072,0L19.071,12z"/>
	<path d="M8.464,11.293c1.17-1.17,3.073-1.17,4.243,0L13.414,12l1.414-1.414l-0.707-0.707c-1.949-1.949-5.122-1.949-7.071,0
		L4.929,12c-1.949,1.949-1.949,5.122,0,7.071s5.122,1.949,7.071,0l1.902-1.902c-0.907,0.183-1.847,0.151-2.743-0.086l-0.574,0.573
		c-1.17,1.17-3.072,1.17-4.242,0s-1.17-3.072,0-4.242L8.464,11.293z"/>
</g>
</svg>
