<svg xmlns="http://www.w3.org/2000/svg" width="24" height="24"><path d="M19.071 12c1.949-1.949 1.949-5.121 0-7.07S13.949 2.979 12 4.929l-1.903 1.903a6.04 6.04 0 0 1 2.743.085l.574-.574c1.169-1.169 3.073-1.169 4.243.001s1.169 3.072 0 4.242l-2.122 2.121a3.002 3.002 0 0 1-4.242 0L10.586 12l-1.415 1.414.707.707a5.008 5.008 0 0 0 7.072 0L19.071 12z"/><path d="M8.464 11.293a3.003 3.003 0 0 1 4.243 0l.707.707 1.414-1.414-.707-.707a5.006 5.006 0 0 0-7.071 0L4.929 12c-1.949 1.949-1.949 5.122 0 7.071s5.122 1.949 7.071 0l1.902-1.902a6.054 6.054 0 0 1-2.743-.086l-.574.573c-1.17 1.17-3.072 1.17-4.242 0s-1.17-3.072 0-4.242l2.121-2.121z"/></svg>