<?xml version="1.0" encoding="utf-8"?>
<!-- Generator: Adobe Illustrator 16.0.0, SVG Export Plug-In . SVG Version: 6.00 Build 0)  -->
<!DOCTYPE svg PUBLIC "-//W3C//DTD SVG 1.1//EN" "http://www.w3.org/Graphics/SVG/1.1/DTD/svg11.dtd">
<svg version="1.1" id="Layer_1" xmlns="http://www.w3.org/2000/svg" xmlns:xlink="http://www.w3.org/1999/xlink" x="0px" y="0px"
	 width="24px" height="24px" viewBox="0 0 24 24" enable-background="new 0 0 24 24" xml:space="preserve">
<g>
	<path d="M7,17h4v-2H7c-1.654,0-3-1.346-3-3s1.346-3,3-3h4V7H7c-2.757,0-5,2.243-5,5S4.243,17,7,17z"/>
	<path d="M17,7h-4v2h4c1.654,0,3,1.346,3,3s-1.346,3-3,3h-4v2h4c2.757,0,5-2.243,5-5S19.757,7,17,7z"/>
	<rect x="6" y="11" width="12" height="2"/>
</g>
</svg>
