<?xml version="1.0" encoding="utf-8"?>
<!-- Generator: Adobe Illustrator 16.0.0, SVG Export Plug-In . SVG Version: 6.00 Build 0)  -->
<!DOCTYPE svg PUBLIC "-//W3C//DTD SVG 1.1//EN" "http://www.w3.org/Graphics/SVG/1.1/DTD/svg11.dtd">
<svg version="1.1" id="Layer_1" xmlns="http://www.w3.org/2000/svg" xmlns:xlink="http://www.w3.org/1999/xlink" x="0px" y="0px"
	 width="24px" height="24px" viewBox="0 0 24 24" enable-background="new 0 0 24 24" xml:space="preserve">
<g>
	<path d="M12,4c1.654,0,3,1.346,3,3h2c0-2.757-2.243-5-5-5S7,4.243,7,7v3H5c-0.553,0-1,0.447-1,1v10c0,0.553,0.447,1,1,1h14
		c0.553,0,1-0.447,1-1V11c0-0.553-0.447-1-1-1H9V7C9,5.346,10.346,4,12,4z M18,12v8h-5v-2.278c0.595-0.347,1-0.985,1-1.722
		c0-1.103-0.897-2-2-2s-2,0.897-2,2c0,0.736,0.405,1.375,1,1.722V20H6v-8H18z"/>
</g>
</svg>
