<?xml version="1.0" encoding="utf-8"?>
<!-- Generator: Adobe Illustrator 16.0.0, SVG Export Plug-In . SVG Version: 6.00 Build 0)  -->
<!DOCTYPE svg PUBLIC "-//W3C//DTD SVG 1.1//EN" "http://www.w3.org/Graphics/SVG/1.1/DTD/svg11.dtd">
<svg version="1.1" id="Layer_1" xmlns="http://www.w3.org/2000/svg" xmlns:xlink="http://www.w3.org/1999/xlink" x="0px" y="0px"
	 width="24px" height="24px" viewBox="0 0 24 24" enable-background="new 0 0 24 24" xml:space="preserve">
<g>
	<path d="M8.5,22c3.584,0,6.5-2.916,6.5-6.5c0-1.432-0.471-2.752-1.259-3.828l4.466-4.465L20,9V4h-5l1.793,1.793l-4.466,4.465
		C11.252,9.471,9.932,9,8.5,9C4.916,9,2,11.916,2,15.5S4.916,22,8.5,22z M8.5,11c2.481,0,4.5,2.019,4.5,4.5S10.981,20,8.5,20
		S4,17.981,4,15.5S6.019,11,8.5,11z"/>
</g>
</svg>
