<?xml version="1.0" encoding="utf-8"?>
<!-- Generator: Adobe Illustrator 16.0.0, SVG Export Plug-In . SVG Version: 6.00 Build 0)  -->
<!DOCTYPE svg PUBLIC "-//W3C//DTD SVG 1.1//EN" "http://www.w3.org/Graphics/SVG/1.1/DTD/svg11.dtd">
<svg version="1.1" id="Layer_1" xmlns="http://www.w3.org/2000/svg" xmlns:xlink="http://www.w3.org/1999/xlink" x="0px" y="0px"
	 width="24px" height="24px" viewBox="0 0 24 24" enable-background="new 0 0 24 24" xml:space="preserve">
<g>
	<path d="M21,19V8c0-0.352-0.185-0.677-0.485-0.857l-5-3c-0.295-0.176-0.655-0.189-0.962-0.037L9.044,6.86L4.515,4.143
		C4.205,3.958,3.82,3.952,3.507,4.13S3,4.64,3,5v11c0,0.352,0.185,0.677,0.485,0.857l5,3C8.644,19.952,8.821,20,9,20
		c0.153,0,0.306-0.035,0.447-0.105l5.509-2.755l4.529,2.718c0.31,0.186,0.694,0.19,1.008,0.013S21,19.36,21,19z M8,17.234l-3-1.801
		V6.767l3,1.8V17.234z M14,15.382l-4,2V8.618l4-2V15.382z M19,17.233l-3-1.8V6.766l3,1.801V17.233z"/>
</g>
</svg>
