<svg xmlns="http://www.w3.org/2000/svg" width="24" height="24" viewBox="0 0 24 24"><path d="M12,14c2.206,0,4-1.794,4-4s-1.794-4-4-4s-4,1.794-4,4S9.794,14,12,14z M12,8c1.103,0,2,0.897,2,2s-0.897,2-2,2 s-2-0.897-2-2S10.897,8,12,8z"/><path d="M11.42,21.814C11.594,21.938,11.797,22,12,22s0.406-0.062,0.58-0.186c0.304-0.216,7.449-5.374,7.42-11.819l-0.055,0.001 C19.943,5.586,16.38,2,12,2C7.589,2,4,5.589,4,9.995C3.971,16.44,11.116,21.599,11.42,21.814z M12,4c3.278,0,5.945,2.691,5.945,6 H19l-1,0.005c0.021,4.438-4.388,8.423-6,9.73C10.389,18.427,5.979,14.441,6,10C6,6.691,8.691,4,12,4z"/></svg>