<svg xmlns="http://www.w3.org/2000/svg" width="24" height="24"><path d="M12 14c2.206 0 4-1.794 4-4s-1.794-4-4-4-4 1.794-4 4 1.794 4 4 4zm0-6c1.103 0 2 .897 2 2s-.897 2-2 2-2-.897-2-2 .897-2 2-2z"/><path d="M11.42 21.814a.998.998 0 0 0 1.16 0c.304-.216 7.449-5.374 7.42-11.819l-.055.001C19.943 5.586 16.38 2 12 2 7.589 2 4 5.589 4 9.995c-.029 6.445 7.116 11.604 7.42 11.819zM12 4c3.278 0 5.945 2.691 5.945 6H19l-1 .005c.021 4.438-4.388 8.423-6 9.73-1.611-1.308-6.021-5.294-6-9.735 0-3.309 2.691-6 6-6z"/></svg>