<svg xmlns="http://www.w3.org/2000/svg" width="24" height="24" viewBox="0 0 24 24"><path d="M12,3C5.738,3,2,5.99,2,11c0,4.313,2.899,6.651,8.625,6.964l-0.573,1.72c-0.104,0.312-0.049,0.654,0.148,0.917 C10.39,20.853,10.687,21,11,21c0.013,0,0.026,0,0.039-0.001C14.83,20.85,22,18.566,22,11C22,7.133,19.373,3,12,3z M12.448,18.817 l0.5-1.501c0.103-0.305,0.051-0.641-0.137-0.901C12.623,16.154,12.321,16,12,16c-7.091,0-8-2.672-8-5c0-3.813,2.916-6,8-6 c5.01,0,8,2.243,8,6C20,16.704,15.021,18.349,12.448,18.817z"/></svg>