<?xml version="1.0" encoding="utf-8"?>
<!-- Generator: Adobe Illustrator 16.0.0, SVG Export Plug-In . SVG Version: 6.00 Build 0)  -->
<!DOCTYPE svg PUBLIC "-//W3C//DTD SVG 1.1//EN" "http://www.w3.org/Graphics/SVG/1.1/DTD/svg11.dtd">
<svg version="1.1" id="Layer_1" xmlns="http://www.w3.org/2000/svg" xmlns:xlink="http://www.w3.org/1999/xlink" x="0px" y="0px"
	 width="24px" height="24px" viewBox="0 0 24 24" enable-background="new 0 0 24 24" xml:space="preserve">
<g>
	<path d="M21,3H3C2.447,3,2,3.447,2,4v12c0,0.553,0.447,1,1,1h4v4c0,0.404,0.243,0.77,0.617,0.924C7.741,21.976,7.871,22,8,22
		c0.26,0,0.516-0.102,0.707-0.293L13.414,17H21c0.553,0,1-0.447,1-1V4C22,3.447,21.553,3,21,3z M20,15h-7
		c-0.266,0-0.52,0.105-0.707,0.293L9,18.586V16c0-0.553-0.447-1-1-1H4V5h16V15z"/>
	<rect x="6" y="7" width="12" height="2"/>
	<rect x="6" y="11" width="6" height="2"/>
</g>
</svg>
