<svg xmlns="http://www.w3.org/2000/svg" width="24" height="24" viewBox="0 0 24 24"><path d="M16 11.172V6c0-2.217-1.785-4.021-3.979-4.021L11.586 2l-.024.024c-1.219.133-2.27.821-2.909 1.801l1.479 1.479C10.416 4.544 11.143 4 12 4l.22-.01C13.218 4.092 14 4.955 14 6v3.172L16 11.172zM17.898 13.071l1.624 1.624C19.826 13.851 20 12.947 20 12h-2C18 12.366 17.962 12.723 17.898 13.071zM8 12c0 2.206 1.794 4 4 4 .74 0 1.422-.217 2.015-.571l1.445 1.445C14.479 17.572 13.293 18 12 18c-3.309 0-6-2.691-6-6H4c0 4.072 3.06 7.436 7 7.931V22h2v-2.07c1.455-.184 2.779-.772 3.885-1.631l3.408 3.408 1.414-1.414-18-18L2.293 3.707 8 9.414V12zM10 11.414l2.512 2.512C12.349 13.972 12.178 14 12 14c-1.103 0-2-.897-2-2V11.414z"/></svg>