<svg xmlns="http://www.w3.org/2000/svg" width="24" height="24" viewBox="0 0 24 24"><path d="M16 11.172V6c0-2.217-1.785-4.021-3.979-4.021L11.586 2l-.024.024a3.997 3.997 0 0 0-2.909 1.801l1.479 1.479A1.997 1.997 0 0 1 12 4l.22-.01C13.218 4.092 14 4.955 14 6v3.172l2 2zM17.898 13.071l1.624 1.624A7.928 7.928 0 0 0 20 12h-2c0 .366-.038.723-.102 1.071zM8 12c0 2.206 1.794 4 4 4 .74 0 1.422-.217 2.015-.571l1.445 1.445A5.946 5.946 0 0 1 12 18c-3.309 0-6-2.691-6-6H4c0 4.072 3.06 7.436 7 7.931V22h2v-2.07a7.954 7.954 0 0 0 3.885-1.631l3.408 3.408 1.414-1.414-18-18-1.414 1.414L8 9.414V12zm2-.586l2.512 2.512A1.88 1.88 0 0 1 12 14c-1.103 0-2-.897-2-2v-.586z"/></svg>