<?xml version="1.0" encoding="utf-8"?>
<!-- Generator: Adobe Illustrator 16.0.0, SVG Export Plug-In . SVG Version: 6.00 Build 0)  -->
<!DOCTYPE svg PUBLIC "-//W3C//DTD SVG 1.1//EN" "http://www.w3.org/Graphics/SVG/1.1/DTD/svg11.dtd">
<svg version="1.1" id="Layer_1" xmlns="http://www.w3.org/2000/svg" xmlns:xlink="http://www.w3.org/1999/xlink" x="0px" y="0px"
	 width="24px" height="24px" viewBox="0 0 24 24" enable-background="new 0 0 24 24" xml:space="preserve">
<g>
	<path d="M16,11.172V6c0-2.217-1.785-4.021-3.979-4.021L11.586,2l-0.024,0.024c-1.219,0.133-2.27,0.821-2.909,1.801l1.479,1.479
		C10.416,4.544,11.143,4,12,4l0.22-0.01C13.218,4.092,14,4.955,14,6v3.172L16,11.172z"/>
	<path d="M17.898,13.071l1.624,1.624C19.826,13.851,20,12.947,20,12h-2C18,12.366,17.962,12.723,17.898,13.071z"/>
	<path d="M8,12c0,2.206,1.794,4,4,4c0.74,0,1.422-0.217,2.015-0.571l1.445,1.445C14.479,17.572,13.293,18,12,18
		c-3.309,0-6-2.691-6-6H4c0,4.072,3.06,7.436,7,7.931V22h2v-2.07c1.455-0.184,2.779-0.772,3.885-1.631l3.408,3.408l1.414-1.414
		l-18-18L2.293,3.707L8,9.414V12z M10,11.414l2.512,2.512C12.349,13.972,12.178,14,12,14c-1.103,0-2-0.897-2-2V11.414z"/>
</g>
</svg>
