<?xml version="1.0" encoding="utf-8"?>
<!-- Generator: Adobe Illustrator 16.0.0, SVG Export Plug-In . SVG Version: 6.00 Build 0)  -->
<!DOCTYPE svg PUBLIC "-//W3C//DTD SVG 1.1//EN" "http://www.w3.org/Graphics/SVG/1.1/DTD/svg11.dtd">
<svg version="1.1" id="Layer_1" xmlns="http://www.w3.org/2000/svg" xmlns:xlink="http://www.w3.org/1999/xlink" x="0px" y="0px"
	 width="24px" height="24px" viewBox="0 0 24 24" enable-background="new 0 0 24 24" xml:space="preserve">
<g>
	<path d="M16,12V6c0-2.217-1.785-4.021-3.979-4.021c-0.069,0-0.14,0.009-0.209,0.025C9.693,2.104,8,3.857,8,6v6c0,2.206,1.794,4,4,4
		S16,14.206,16,12z M10,12V6c0-1.103,0.897-2,2-2c0.055,0,0.109-0.005,0.163-0.015C13.188,4.06,14,4.935,14,6v6c0,1.103-0.897,2-2,2
		S10,13.103,10,12z"/>
	<path d="M6,12H4c0,4.072,3.061,7.436,7,7.931V22h2v-2.069c3.939-0.495,7-3.858,7-7.931h-2c0,3.309-2.691,6-6,6S6,15.309,6,12z"/>
</g>
</svg>
