<?xml version="1.0" encoding="utf-8"?>
<!-- Generator: Adobe Illustrator 16.0.0, SVG Export Plug-In . SVG Version: 6.00 Build 0)  -->
<!DOCTYPE svg PUBLIC "-//W3C//DTD SVG 1.1//EN" "http://www.w3.org/Graphics/SVG/1.1/DTD/svg11.dtd">
<svg version="1.1" id="Layer_1" xmlns="http://www.w3.org/2000/svg" xmlns:xlink="http://www.w3.org/1999/xlink" x="0px" y="0px"
	 width="24px" height="24px" viewBox="0 0 24 24" enable-background="new 0 0 24 24" xml:space="preserve">
<g>
	<path d="M12,20.043c3.818,0,7.096-2.383,7.969-5.795c0.088-0.344,0.021-0.715-0.231-0.965s-0.586-0.354-0.927-0.264
		c-0.043,0.005-0.109,0.007-0.194,0.007C18.306,13.026,11,12.936,11,5c0-0.311-0.144-0.604-0.39-0.793
		c-0.246-0.188-0.565-0.254-0.866-0.174C6.416,4.916,4,8.285,4,12.043C4,16.454,7.589,20.043,12,20.043z M9.075,6.45
		c0.641,6.025,5.273,8.132,8.472,8.511c-1.028,1.841-3.177,3.082-5.547,3.082c-3.309,0-6-2.691-6-6C6,9.658,7.239,7.489,9.075,6.45z
		"/>
</g>
</svg>
