<?xml version="1.0" encoding="utf-8"?>
<!-- Generator: Adobe Illustrator 16.0.0, SVG Export Plug-In . SVG Version: 6.00 Build 0)  -->
<!DOCTYPE svg PUBLIC "-//W3C//DTD SVG 1.1//EN" "http://www.w3.org/Graphics/SVG/1.1/DTD/svg11.dtd">
<svg version="1.1" id="Layer_1" xmlns="http://www.w3.org/2000/svg" xmlns:xlink="http://www.w3.org/1999/xlink" x="0px" y="0px"
	 width="24px" height="24px" viewBox="0 0 24 24" enable-background="new 0 0 24 24" xml:space="preserve">
<g>
	<path d="M15.507,15C13.573,15,12,16.573,12,18.507s1.573,3.507,3.507,3.507c1.769,0,3.22-1.32,3.458-3.023H19v-0.348
		c0.002-0.047,0.014-0.09,0.014-0.136S19.002,18.418,19,18.371V7.411c0-0.382-0.217-0.73-0.56-0.897l-9-4.411
		C9.129,1.95,8.763,1.969,8.471,2.151C8.178,2.335,8,2.656,8,3.001l0.01,8.337c-0.457-0.219-0.963-0.352-1.503-0.352
		C4.573,10.986,3,12.56,3,14.493S4.573,18,6.507,18s3.507-1.573,3.507-3.507v-0.001l-0.012-9.888L17,8.034v7.313
		C16.545,15.131,16.043,15,15.507,15z M17,18.643c-0.069,0.767-0.708,1.371-1.493,1.371c-0.831,0-1.507-0.676-1.507-1.507
		S14.676,17,15.507,17c0.785,0,1.424,0.604,1.493,1.371V18.643z M6.507,16C5.676,16,5,15.324,5,14.493s0.676-1.507,1.507-1.507
		s1.507,0.676,1.507,1.507S7.338,16,6.507,16z"/>
</g>
</svg>
