<?xml version="1.0" encoding="utf-8"?>
<!-- Generator: Adobe Illustrator 16.0.0, SVG Export Plug-In . SVG Version: 6.00 Build 0)  -->
<!DOCTYPE svg PUBLIC "-//W3C//DTD SVG 1.1//EN" "http://www.w3.org/Graphics/SVG/1.1/DTD/svg11.dtd">
<svg version="1.1" id="Layer_1" xmlns="http://www.w3.org/2000/svg" xmlns:xlink="http://www.w3.org/1999/xlink" x="0px" y="0px"
	 width="24px" height="24px" viewBox="0 0 24 24" enable-background="new 0 0 24 24" xml:space="preserve">
<g>
	<path d="M13.507,15C11.573,15,10,16.573,10,18.507s1.573,3.507,3.507,3.507c1.768,0,3.22-1.319,3.458-3.022H17v-0.351
		c0.002-0.046,0.014-0.088,0.014-0.134c0-0.045-0.012-0.087-0.014-0.132l0.006-10.963c0-0.326-0.158-0.632-0.425-0.819l-2.066-1.45
		l-5-3C9.205,1.957,8.82,1.952,8.507,2.13S8,2.641,8,3.001l0.01,8.337c-0.457-0.219-0.963-0.352-1.503-0.352
		C4.573,10.986,3,12.56,3,14.493S4.573,18,6.507,18s3.507-1.573,3.507-3.507v-0.001l-0.012-9.726l3.423,2.052l1.581,1.111
		l-0.004,7.418C14.547,15.131,14.044,15,13.507,15z M15,18.641c-0.068,0.768-0.708,1.373-1.493,1.373
		c-0.831,0-1.507-0.676-1.507-1.507S12.676,17,13.507,17c0.786,0,1.426,0.606,1.493,1.375V18.641z M6.507,16
		C5.676,16,5,15.324,5,14.493s0.676-1.507,1.507-1.507s1.507,0.676,1.507,1.507S7.338,16,6.507,16z"/>
</g>
</svg>
