<?xml version="1.0" encoding="utf-8"?>
<!-- Generator: Adobe Illustrator 16.0.0, SVG Export Plug-In . SVG Version: 6.00 Build 0)  -->
<!DOCTYPE svg PUBLIC "-//W3C//DTD SVG 1.1//EN" "http://www.w3.org/Graphics/SVG/1.1/DTD/svg11.dtd">
<svg version="1.1" id="Layer_1" xmlns="http://www.w3.org/2000/svg" xmlns:xlink="http://www.w3.org/1999/xlink" x="0px" y="0px"
	 width="24px" height="24px" viewBox="0 0 24 24" enable-background="new 0 0 24 24" xml:space="preserve">
<g>
	<path d="M12,3c-0.389,0-0.742,0.225-0.906,0.577l-7,15c-0.172,0.368-0.104,0.805,0.173,1.103c0.277,0.299,0.707,0.397,1.087,0.256
		L12,17.424l6.646,2.512C18.762,19.979,18.881,20,19,20c0.273,0,0.54-0.112,0.733-0.32c0.276-0.298,0.345-0.734,0.173-1.103l-7-15
		C12.742,3.225,12.389,3,12,3z M13.111,15.705L12,12l-1.111,3.705l-3.943,1.49L12,6.364l5.055,10.831L13.111,15.705z"/>
</g>
</svg>
