<?xml version="1.0" encoding="utf-8"?>
<!-- Generator: Adobe Illustrator 16.0.0, SVG Export Plug-In . SVG Version: 6.00 Build 0)  -->
<!DOCTYPE svg PUBLIC "-//W3C//DTD SVG 1.1//EN" "http://www.w3.org/Graphics/SVG/1.1/DTD/svg11.dtd">
<svg version="1.1" id="Layer_1" xmlns="http://www.w3.org/2000/svg" xmlns:xlink="http://www.w3.org/1999/xlink" x="0px" y="0px"
	 width="24px" height="24px" viewBox="0 0 24 24" enable-background="new 0 0 24 24" xml:space="preserve">
<g>
	<path d="M21,3H2.99c-0.553,0-1,0.447-1,1v16c0,0.553,0.447,1,1,1H21c0.553,0,1-0.447,1-1V4C22,3.447,21.553,3,21,3z M20,19H3.99V5
		H20V19z"/>
	<path d="M7,13h5c0.553,0,1-0.447,1-1V8c0-0.553-0.447-1-1-1H7C6.447,7,6,7.447,6,8v4C6,12.553,6.447,13,7,13z M8,9h3v2H8V9z"/>
	<rect x="6" y="15" width="12" height="2"/>
	<rect x="15" y="7" width="3" height="2"/>
	<rect x="15" y="11" width="3" height="2"/>
</g>
</svg>
