<svg xmlns="http://www.w3.org/2000/svg" width="24" height="24"><path d="M18.791 4.438a1 1 0 0 0-.524-.439l-5.926-2.157a1.005 1.005 0 0 0-.684 0L5.731 3.999c-.221.08-.406.236-.524.439L2.055 9.899a1.003 1.003 0 0 0-.118.674l1.095 6.21c.04.231.161.441.342.593l4.831 4.053c.18.15.407.233.643.233h6.305c.235 0 .463-.083.643-.233l4.831-4.053a.991.991 0 0 0 .342-.593l1.095-6.21a1.003 1.003 0 0 0-.118-.674l-3.155-5.461zm.27 11.639l-4.273 3.585H9.211l-4.273-3.585-.969-5.493 2.788-4.83 5.242-1.908 5.242 1.908 2.788 4.83-.968 5.493z"/></svg>