<svg xmlns="http://www.w3.org/2000/svg" width="24" height="24" viewBox="0 0 24 24"><path d="M18.791,4.438c-0.118-0.204-0.304-0.359-0.524-0.439l-5.926-2.157c-0.221-0.08-0.463-0.08-0.684,0L5.731,3.999 c-0.221,0.08-0.406,0.236-0.524,0.439L2.055,9.899c-0.117,0.204-0.159,0.442-0.118,0.674l1.095,6.21 c0.04,0.231,0.161,0.441,0.342,0.593l4.831,4.053c0.18,0.15,0.407,0.233,0.643,0.233h6.305c0.235,0,0.463-0.083,0.643-0.233 l4.831-4.053c0.181-0.151,0.302-0.361,0.342-0.593l1.095-6.21c0.041-0.232-0.001-0.47-0.118-0.674L18.791,4.438z M19.061,16.077 l-4.273,3.585H9.211l-4.273-3.585l-0.969-5.493l2.788-4.83l5.242-1.908l5.242,1.908l2.788,4.83L19.061,16.077z"/></svg>