<?xml version="1.0" encoding="utf-8"?>
<!-- Generator: Adobe Illustrator 16.0.0, SVG Export Plug-In . SVG Version: 6.00 Build 0)  -->
<!DOCTYPE svg PUBLIC "-//W3C//DTD SVG 1.1//EN" "http://www.w3.org/Graphics/SVG/1.1/DTD/svg11.dtd">
<svg version="1.1" id="Layer_1" xmlns="http://www.w3.org/2000/svg" xmlns:xlink="http://www.w3.org/1999/xlink" x="0px" y="0px"
	 width="24px" height="24px" viewBox="0 0 24 24" enable-background="new 0 0 24 24" xml:space="preserve">
<g>
	<path d="M21.999,7.454c-0.002-0.037-0.014-0.071-0.02-0.108c-0.007-0.045-0.012-0.09-0.024-0.133
		c-0.012-0.041-0.032-0.079-0.05-0.118c-0.019-0.041-0.034-0.083-0.058-0.12c-0.022-0.037-0.051-0.067-0.078-0.101
		c-0.028-0.035-0.055-0.071-0.088-0.103c-0.03-0.029-0.066-0.052-0.102-0.076c-0.031-0.022-0.058-0.05-0.092-0.069
		c-0.008-0.004-0.016-0.005-0.023-0.009c-0.007-0.004-0.013-0.01-0.02-0.014l-9.021-4.489c-0.281-0.14-0.613-0.14-0.893,0.001
		L2.553,6.604C2.546,6.607,2.541,6.613,2.534,6.617S2.519,6.622,2.512,6.626C2.478,6.645,2.451,6.672,2.42,6.695
		C2.385,6.72,2.349,6.743,2.317,6.772C2.284,6.803,2.259,6.839,2.23,6.873C2.203,6.907,2.174,6.938,2.151,6.976
		C2.128,7.013,2.113,7.054,2.095,7.094c-0.018,0.04-0.038,0.078-0.051,0.12C2.031,7.257,2.027,7.301,2.021,7.346
		c-0.006,0.037-0.018,0.071-0.02,0.109c0,0.008,0.002,0.015,0.002,0.021C2.003,7.484,2,7.491,2,7.499v7.886
		c0,0.345,0.178,0.666,0.471,0.849l9,5.614c0.007,0.004,0.015,0.006,0.021,0.01s0.012,0.01,0.019,0.014
		c0.046,0.025,0.095,0.04,0.144,0.058c0.028,0.011,0.055,0.026,0.084,0.034c0.086,0.023,0.174,0.036,0.262,0.036
		c0.087,0,0.174-0.013,0.258-0.035c0.028-0.008,0.055-0.022,0.083-0.033c0.049-0.018,0.099-0.032,0.145-0.058
		c0.006-0.004,0.011-0.009,0.017-0.013c0.006-0.003,0.013-0.004,0.019-0.008l9-5.484C21.818,16.188,22,15.863,22,15.515V7.499
		c0-0.008-0.003-0.015-0.003-0.022S21.999,7.462,21.999,7.454z M11.98,4.127l1.941,0.966L7.17,8.891L5.056,7.59L11.98,4.127z
		 M4,14.83V9.288l2,1.231V13l2,1.047V11.75l2.998,1.844v1.325L11,19.196L4,14.83z M11.998,11.861l-2.685-1.652l7.041-3.904
		l2.587,1.287l-2.702,1.661L11.998,11.861z M20,14.953l-7,4.266l-0.002-4.281v-1.344L20,9.288V14.953z"/>
</g>
</svg>
