<svg xmlns="http://www.w3.org/2000/svg" width="24" height="24"><path d="M21.999 7.454c-.002-.037-.014-.071-.02-.108-.007-.045-.012-.09-.024-.133-.012-.041-.032-.079-.05-.118-.019-.041-.034-.083-.058-.12-.022-.037-.051-.067-.078-.101-.028-.035-.055-.071-.088-.103-.03-.029-.066-.052-.102-.076-.031-.022-.058-.05-.092-.069-.008-.004-.016-.005-.023-.009l-.02-.014-9.021-4.489a.999.999 0 0 0-.893.001L2.553 6.604c-.007.003-.012.009-.019.013s-.015.005-.022.009c-.034.019-.061.046-.092.069-.035.025-.071.048-.103.077-.033.031-.058.067-.087.101-.027.034-.056.065-.079.103-.023.037-.038.078-.056.118-.018.04-.038.078-.051.12-.013.043-.017.087-.023.132-.006.037-.018.071-.02.109l.002.021c0 .008-.003.015-.003.023v7.886c0 .345.178.666.471.849l9 5.614c.007.004.015.006.021.01l.019.014c.046.025.095.04.144.058.028.011.055.026.084.034.086.023.174.036.262.036.087 0 .174-.013.258-.035.028-.008.055-.022.083-.033.049-.018.099-.032.145-.058l.017-.013c.006-.003.013-.004.019-.008l9-5.484c.295-.181.477-.506.477-.854V7.499c0-.008-.003-.015-.003-.022l.002-.023zM11.98 4.127l1.941.966L7.17 8.891 5.056 7.59l6.924-3.463zM4 14.83V9.288l2 1.231V13l2 1.047V11.75l2.998 1.844v1.325L11 19.196 4 14.83zm7.998-2.969l-2.685-1.652 7.041-3.904 2.587 1.287-2.702 1.661-4.241 2.608zM20 14.953l-7 4.266-.002-4.281v-1.344L20 9.288v5.665z"/></svg>