<?xml version="1.0" encoding="utf-8"?>
<!-- Generator: Adobe Illustrator 16.0.0, SVG Export Plug-In . SVG Version: 6.00 Build 0)  -->
<!DOCTYPE svg PUBLIC "-//W3C//DTD SVG 1.1//EN" "http://www.w3.org/Graphics/SVG/1.1/DTD/svg11.dtd">
<svg version="1.1" id="Layer_1" xmlns="http://www.w3.org/2000/svg" xmlns:xlink="http://www.w3.org/1999/xlink" x="0px" y="0px"
	 width="24px" height="24px" viewBox="0 0 24 24" enable-background="new 0 0 24 24" xml:space="preserve">
<g>
	<path d="M18.004,5C18.002,5,18.001,5,18,5h-0.001H8c-3.859,0-7,3.084-7,6.875V12c0,3.794,3.206,7,7,7h9v-2H8c-2.71,0-5-2.29-5-5
		v-0.125C3,9.232,5.29,7,8,7h10V6l0.001,1c0.001,0,0.002,0,0.003,0c1.623,0,2.995,1.374,2.996,3.001
		c0.001,0.79-0.313,1.54-0.885,2.111C19.543,12.685,18.791,12.999,18,13H8c-0.532,0-1-0.468-1-1c0-0.533,0.468-1.001,1-1.001L17,11
		V9L8,8.999c-1.626,0-3,1.374-3,3.001c0,1.626,1.374,3,3,3h10.001c1.325-0.001,2.578-0.524,3.527-1.473
		c0.951-0.95,1.474-2.203,1.472-3.528C22.997,7.241,20.757,5,18.004,5z"/>
</g>
</svg>
