<svg xmlns="http://www.w3.org/2000/svg" width="24" height="24" viewBox="0 0 24 24"><path d="M18.004 5H8c-3.859 0-7 3.084-7 6.875V12c0 3.794 3.206 7 7 7h9v-2H8c-2.71 0-5-2.29-5-5v-.125C3 9.232 5.29 7 8 7h10V6l.001 1h.003c1.623 0 2.995 1.374 2.996 3.001.001.79-.313 1.54-.885 2.111A2.98 2.98 0 0 1 18 13H8c-.532 0-1-.468-1-1 0-.533.468-1.001 1-1.001L17 11V9l-9-.001c-1.626 0-3 1.374-3 3.001 0 1.626 1.374 3 3 3h10.001a4.967 4.967 0 0 0 3.527-1.473A4.95 4.95 0 0 0 23 9.999 5.005 5.005 0 0 0 18.004 5z"/></svg>