<?xml version="1.0" encoding="utf-8"?>
<!-- Generator: Adobe Illustrator 16.0.0, SVG Export Plug-In . SVG Version: 6.00 Build 0)  -->
<!DOCTYPE svg PUBLIC "-//W3C//DTD SVG 1.1//EN" "http://www.w3.org/Graphics/SVG/1.1/DTD/svg11.dtd">
<svg version="1.1" id="Layer_1" xmlns="http://www.w3.org/2000/svg" xmlns:xlink="http://www.w3.org/1999/xlink" x="0px" y="0px"
	 width="24px" height="24px" viewBox="0 0 24 24" enable-background="new 0 0 24 24" xml:space="preserve">
<g>
	<path d="M14.707,5.293c-0.391-0.391-1.023-0.391-1.414,0L11.586,7H7C6.579,7,6.204,7.263,6.061,7.658l-4,11
		c-0.133,0.365-0.042,0.774,0.232,1.049l2,2C4.483,21.898,4.739,22,5,22c0.114,0,0.23-0.02,0.342-0.061l11-4
		C16.737,17.796,17,17.421,17,17v-4.586l1.707-1.707c0.391-0.391,0.391-1.023,0-1.414L14.707,5.293z M15.293,11.293
		C15.105,11.48,15,11.734,15,12v4.3l-9.249,3.363l4.671-4.671C10.448,14.993,10.474,15,10.5,15c0.828,0,1.5-0.672,1.5-1.5
		S11.328,12,10.5,12S9,12.672,9,13.5c0,0.026,0.007,0.052,0.008,0.078l-4.671,4.671L7.7,9H12c0.266,0,0.52-0.105,0.707-0.293
		L14,7.414L16.586,10L15.293,11.293z"/>
	<rect x="16.165" y="3.997" transform="matrix(-0.7085 -0.7057 0.7057 -0.7085 28.9263 21.9428)" width="5.66" height="2"/>
</g>
</svg>
