<svg xmlns="http://www.w3.org/2000/svg" width="24" height="24"><path d="M14.707 5.293a.999.999 0 0 0-1.414 0L11.586 7H7a.998.998 0 0 0-.939.658l-4 11c-.133.365-.042.774.232 1.049l2 2a.997.997 0 0 0 1.049.232l11-4A.998.998 0 0 0 17 17v-4.586l1.707-1.707a.999.999 0 0 0 0-1.414l-4-4zm.586 6A.996.996 0 0 0 15 12v4.3l-9.249 3.363 4.671-4.671c.026.001.052.008.078.008A1.5 1.5 0 1 0 9 13.5c0 .026.007.052.008.078l-4.671 4.671L7.7 9H12c.266 0 .52-.105.707-.293L14 7.414 16.586 10l-1.293 1.293zM20.294 7.703l-4.01-3.994 1.411-1.417 4.01 3.994z"/></svg>