<?xml version="1.0" encoding="utf-8"?>
<!-- Generator: Adobe Illustrator 16.0.0, SVG Export Plug-In . SVG Version: 6.00 Build 0)  -->
<!DOCTYPE svg PUBLIC "-//W3C//DTD SVG 1.1//EN" "http://www.w3.org/Graphics/SVG/1.1/DTD/svg11.dtd">
<svg version="1.1" id="Layer_1" xmlns="http://www.w3.org/2000/svg" xmlns:xlink="http://www.w3.org/1999/xlink" x="0px" y="0px"
	 width="24px" height="24px" viewBox="0 0 24 24" enable-background="new 0 0 24 24" xml:space="preserve">
<g>
	<path d="M18.707,2.293c-0.391-0.391-1.023-0.391-1.414,0l-13,13c-0.128,0.128-0.219,0.289-0.263,0.464l-1,4
		c-0.086,0.341,0.015,0.701,0.263,0.95C3.482,20.897,3.738,21,4,21c0.081,0,0.162-0.01,0.242-0.03l4-1
		c0.176-0.044,0.337-0.135,0.465-0.263l13-13c0.391-0.391,0.391-1.023,0-1.414L18.707,2.293z M7.488,18.097l-2.114,0.528
		l0.529-2.114L15,7.414L16.586,9L7.488,18.097z M18,7.586L16.414,6L18,4.414L19.586,6L18,7.586z"/>
</g>
</svg>
