<svg xmlns="http://www.w3.org/2000/svg" width="24" height="24" viewBox="0 0 24 24"><path d="M2.002,6.942C1.987,7.192,1.7,13.114,6.293,17.707c3.988,3.988,8.99,4.299,10.428,4.299c0.219,0,0.337-0.008,0.337-0.008 c0.243-0.015,0.478-0.118,0.649-0.291l3-3c0.391-0.391,0.391-1.023,0-1.414l-4-4c-0.391-0.391-1.023-0.391-1.414,0l-1.594,1.594 c-0.739-0.22-2.118-0.72-2.992-1.594s-1.374-2.253-1.594-2.992l1.594-1.594c0.391-0.391,0.391-1.023,0-1.414l-4-4 c-0.391-0.391-1.023-0.391-1.414,0l-3,3C2.119,6.467,2.016,6.697,2.002,6.942z M6,5.414L8.586,8L7.293,9.293 c-0.239,0.238-0.341,0.582-0.271,0.912c0.024,0.115,0.611,2.842,2.271,4.502s4.387,2.247,4.502,2.271 c0.331,0.071,0.674-0.032,0.912-0.271L16,15.414L18.586,18l-2.005,2.005c-1.401-0.021-5.548-0.387-8.874-3.712 c-3.342-3.343-3.685-7.622-3.71-8.876L6,5.414z"/><path d="M13.707 11.707L18.879 6.535 21 8.656 21 3 15.344 3 17.465 5.121 12.293 10.293z"/></svg>