<svg xmlns="http://www.w3.org/2000/svg" width="24" height="24" viewBox="0 0 24 24"><path d="M17.707,12.293c-0.391-0.391-1.023-0.391-1.414,0l-1.594,1.594c-0.739-0.22-2.118-0.72-2.992-1.594 s-1.374-2.253-1.594-2.992l1.594-1.594c0.391-0.391,0.391-1.023,0-1.414l-4-4c-0.391-0.391-1.023-0.391-1.414,0l-3,3 C3.119,5.467,3.016,5.697,3.002,5.942C2.987,6.192,2.7,12.114,7.293,16.707c3.988,3.988,8.99,4.299,10.428,4.299 c0.219,0,0.337-0.008,0.337-0.008c0.243-0.015,0.478-0.118,0.649-0.291l3-3c0.391-0.391,0.391-1.023,0-1.414L17.707,12.293z M17.581,19.005c-1.401-0.021-5.548-0.387-8.874-3.712c-3.342-3.343-3.685-7.622-3.71-8.876L7,4.414L9.586,7L8.293,8.293 C8.054,8.531,7.952,8.875,8.021,9.205c0.024,0.115,0.611,2.842,2.271,4.502s4.387,2.247,4.502,2.271 c0.333,0.071,0.674-0.032,0.912-0.271L17,14.414L19.586,17L17.581,19.005z"/></svg>