<?xml version="1.0" encoding="utf-8"?>
<!-- Generator: Adobe Illustrator 16.0.0, SVG Export Plug-In . SVG Version: 6.00 Build 0)  -->
<!DOCTYPE svg PUBLIC "-//W3C//DTD SVG 1.1//EN" "http://www.w3.org/Graphics/SVG/1.1/DTD/svg11.dtd">
<svg version="1.1" id="Layer_1" xmlns="http://www.w3.org/2000/svg" xmlns:xlink="http://www.w3.org/1999/xlink" x="0px" y="0px"
	 width="24px" height="24px" viewBox="0 0 24 24" enable-background="new 0 0 24 24" xml:space="preserve">
<g>
	<path d="M18,7V3c0-0.553-0.447-1-1-1H7C6.448,2,6,2.447,6,3v4c0,0.553,0.448,1,1,1v3.586l-1.707,1.707C5.105,13.48,5,13.734,5,14v2
		c0,0.553,0.448,1,1,1h5v3l1,2l1-2v-3h5c0.553,0,1-0.447,1-1v-2c0-0.266-0.105-0.52-0.293-0.707L17,11.586V8C17.553,8,18,7.553,18,7
		z M8,4h8v2H8V4z M15.293,12.707L17,14.414V15H7v-0.586l1.707-1.707C8.895,12.52,9,12.266,9,12V8h6v4
		C15,12.266,15.105,12.52,15.293,12.707z"/>
</g>
</svg>
