<?xml version="1.0" encoding="utf-8"?>
<!-- Generator: Adobe Illustrator 16.0.0, SVG Export Plug-In . SVG Version: 6.00 Build 0)  -->
<!DOCTYPE svg PUBLIC "-//W3C//DTD SVG 1.1//EN" "http://www.w3.org/Graphics/SVG/1.1/DTD/svg11.dtd">
<svg version="1.1" id="Layer_1" xmlns="http://www.w3.org/2000/svg" xmlns:xlink="http://www.w3.org/1999/xlink" x="0px" y="0px"
	 width="24px" height="24px" viewBox="0 0 24 24" enable-background="new 0 0 24 24" xml:space="preserve">
<g>
	<path d="M21,6h-2V3c0-0.553-0.447-1-1-1H6C5.447,2,5,2.447,5,3v3H3C2.447,6,2,6.447,2,7v10c0,0.553,0.447,1,1,1h4v3
		c0,0.553,0.447,1,1,1h8c0.553,0,1-0.447,1-1v-3h4c0.553,0,1-0.447,1-1V7C22,6.447,21.553,6,21,6z M7,4h10v2H7V4z M15,20H9v-3v-3h6
		v3V20z M20,16h-3v-3c0-0.553-0.447-1-1-1H8c-0.553,0-1,0.447-1,1v3H4V8h1h2h10h2h1V16z"/>
	<rect x="17" y="9" width="2" height="2"/>
	<rect x="14" y="9" width="2" height="2"/>
</g>
</svg>
