<svg xmlns="http://www.w3.org/2000/svg" width="24" height="24" viewBox="0 0 24 24"><path d="M16.832,8.445C16.64,8.157,16.31,7.984,15.966,8c-0.347,0.012-0.662,0.203-0.834,0.503l-2.891,5.058L8.948,3.684 c-0.14-0.421-0.54-0.709-0.986-0.683C7.518,3.018,7.138,3.326,7.03,3.757L5.219,11H2v2h4c0.459,0,0.858-0.313,0.97-0.757 l1.168-4.668l2.914,8.742c0.124,0.374,0.457,0.64,0.85,0.679C11.935,16.998,11.968,17,12,17c0.356,0,0.689-0.19,0.868-0.504 l3.197-5.595l1.103,1.654C17.354,12.833,17.666,13,18,13h4v-2h-3.465L16.832,8.445z"/></svg>