<?xml version="1.0" encoding="utf-8"?>
<!-- Generator: Adobe Illustrator 16.0.0, SVG Export Plug-In . SVG Version: 6.00 Build 0)  -->
<!DOCTYPE svg PUBLIC "-//W3C//DTD SVG 1.1//EN" "http://www.w3.org/Graphics/SVG/1.1/DTD/svg11.dtd">
<svg version="1.1" id="Layer_1" xmlns="http://www.w3.org/2000/svg" xmlns:xlink="http://www.w3.org/1999/xlink" x="0px" y="0px"
	 width="24px" height="24px" viewBox="0 0 24 24" enable-background="new 0 0 24 24" xml:space="preserve">
<g>
	<path d="M12.707,2.293C12.52,2.105,12.266,2,12,2H3C2.447,2,2,2.447,2,3v9c0,0.266,0.105,0.52,0.293,0.707l9,9
		C11.488,21.902,11.744,22,12,22s0.512-0.098,0.707-0.293l9-9c0.391-0.391,0.391-1.023,0-1.414L12.707,2.293z M12,19.586l-8-8V4
		h7.586l8,8L12,19.586z"/>
	<circle cx="7.507" cy="7.505" r="1.505"/>
</g>
</svg>
