<?xml version="1.0" encoding="utf-8"?>
<!-- Generator: Adobe Illustrator 16.0.0, SVG Export Plug-In . SVG Version: 6.00 Build 0)  -->
<!DOCTYPE svg PUBLIC "-//W3C//DTD SVG 1.1//EN" "http://www.w3.org/Graphics/SVG/1.1/DTD/svg11.dtd">
<svg version="1.1" id="Layer_1" xmlns="http://www.w3.org/2000/svg" xmlns:xlink="http://www.w3.org/1999/xlink" x="0px" y="0px"
	 width="24px" height="24px" viewBox="0 0 24 24" enable-background="new 0 0 24 24" xml:space="preserve">
<g>
	<path d="M3,20c2.783,0,4.906-0.771,6.309-2.292C11.196,15.66,11.006,13.03,11,13V5c0-0.552-0.447-1-1-1H3C2.447,4,2,4.448,2,5v8
		c0,0.552,0.447,1,1,1h1.779C4.539,14.505,4.038,15,3,15c-0.553,0-1,0.448-1,1v3C2,19.552,2.447,20,3,20z M4,16.897
		C6.181,16.423,7,14.41,7,13c0-0.552-0.447-1-1-1H4V6h5l0.003,7.076c0.001,0.019,0.116,1.902-1.181,3.293
		C6.973,17.279,5.69,17.813,4,17.958V16.897z"/>
	<path d="M14,15.034c-0.553,0-1,0.448-1,1V19c0,0.552,0.447,1,1,1c2.783,0,4.906-0.771,6.309-2.292C22.196,15.66,22.006,13.03,22,13
		V5c0-0.552-0.447-1-1-1h-7c-0.553,0-1,0.448-1,1v8c0,0.552,0.447,1,1,1h1.784C15.544,14.526,15.042,15.034,14,15.034z M17,12h-2V6
		h5l0.003,7.076c0.001,0.019,0.116,1.902-1.181,3.293c-0.85,0.91-2.132,1.443-3.822,1.589v-1.028c2.181-0.478,3-2.509,3-3.931
		C18,12.448,17.553,12,17,12z"/>
</g>
</svg>
