<?xml version="1.0" encoding="utf-8"?>
<!-- Generator: Adobe Illustrator 16.0.0, SVG Export Plug-In . SVG Version: 6.00 Build 0)  -->
<!DOCTYPE svg PUBLIC "-//W3C//DTD SVG 1.1//EN" "http://www.w3.org/Graphics/SVG/1.1/DTD/svg11.dtd">
<svg version="1.1" id="Layer_1" xmlns="http://www.w3.org/2000/svg" xmlns:xlink="http://www.w3.org/1999/xlink" x="0px" y="0px"
	 width="24px" height="24px" viewBox="0 0 24 24" enable-background="new 0 0 24 24" xml:space="preserve">
<g>
	<path d="M21,4h-7c-0.553,0-1,0.447-1,1l0.003,7.919c-0.009,0.111-0.199,2.741,1.688,4.789C16.094,19.229,18.217,20,21,20
		c0.553,0,1-0.447,1-1v-3c0-0.553-0.447-1-1-1c-1.031,0-1.533-0.49-1.776-1H21c0.553,0,1-0.447,1-1V5C22,4.447,21.553,4,21,4z
		 M20,12h-2c-0.553,0-1,0.447-1,1c0,1.41,0.819,3.423,3,3.897v1.062c-1.69-0.146-2.973-0.68-3.822-1.59
		C14.881,14.978,14.996,13.095,15,13V6h5V12z"/>
	<path d="M10,20c0.553,0,1-0.447,1-1v-2.966c0-0.553-0.447-1-1-1c-1.043,0-1.545-0.51-1.784-1.034H10c0.553,0,1-0.447,1-1V5
		c0-0.553-0.447-1-1-1H3C2.447,4,2,4.447,2,5l0.003,7.919c-0.009,0.111-0.199,2.741,1.688,4.789C5.094,19.229,7.217,20,10,20z M4,13
		V6h5v6H7c-0.553,0-1,0.447-1,1c0,1.422,0.819,3.452,3,3.931v1.028c-1.69-0.146-2.973-0.68-3.822-1.59
		C3.881,14.978,3.996,13.095,4,13z"/>
</g>
</svg>
