<svg xmlns="http://www.w3.org/2000/svg" width="24" height="24" viewBox="0 0 24 24"><path d="M3 20c2.783 0 4.906-.771 6.309-2.292C11.196 15.66 11.006 13.03 11 13V5c0-.552-.447-1-1-1H3C2.447 4 2 4.448 2 5v8c0 .552.447 1 1 1h1.779C4.539 14.505 4.038 15 3 15c-.553 0-1 .448-1 1v3C2 19.552 2.447 20 3 20zM4 16.897C6.181 16.423 7 14.41 7 13c0-.552-.447-1-1-1H4V6h5l.003 7.076c.001.019.116 1.902-1.181 3.293C6.973 17.279 5.69 17.813 4 17.958V16.897zM14 15.034c-.553 0-1 .448-1 1V19c0 .552.447 1 1 1 2.783 0 4.906-.771 6.309-2.292C22.196 15.66 22.006 13.03 22 13V5c0-.552-.447-1-1-1h-7c-.553 0-1 .448-1 1v8c0 .552.447 1 1 1h1.784C15.544 14.526 15.042 15.034 14 15.034zM17 12h-2V6h5l.003 7.076c.001.019.116 1.902-1.181 3.293-.85.91-2.132 1.443-3.822 1.589v-1.028c2.181-.478 3-2.509 3-3.931C18 12.448 17.553 12 17 12z"/></svg>