<?xml version="1.0" encoding="utf-8"?>
<!-- Generator: Adobe Illustrator 16.0.0, SVG Export Plug-In . SVG Version: 6.00 Build 0)  -->
<!DOCTYPE svg PUBLIC "-//W3C//DTD SVG 1.1//EN" "http://www.w3.org/Graphics/SVG/1.1/DTD/svg11.dtd">
<svg version="1.1" id="Layer_1" xmlns="http://www.w3.org/2000/svg" xmlns:xlink="http://www.w3.org/1999/xlink" x="0px" y="0px"
	 width="24px" height="24px" viewBox="0 0 24 24" enable-background="new 0 0 24 24" xml:space="preserve">
<g>
	<circle cx="17" cy="15" r="2"/>
	<path d="M21.289,6.059l0.005-0.015l-13-4L7.706,3.956L14.349,6H3C2.447,6,2,6.447,2,7v12c0,0.553,0.447,1,1,1h18
		c0.553,0,1-0.447,1-1V7C22,6.55,21.698,6.185,21.289,6.059z M20,8v2H4V8H20z M4,18v-6h16v6H4z"/>
	<rect x="5" y="15" width="2" height="2"/>
	<rect x="8" y="15" width="2" height="2"/>
</g>
</svg>
