<?xml version="1.0" encoding="utf-8"?>
<!-- Generator: Adobe Illustrator 16.0.0, SVG Export Plug-In . SVG Version: 6.00 Build 0)  -->
<!DOCTYPE svg PUBLIC "-//W3C//DTD SVG 1.1//EN" "http://www.w3.org/Graphics/SVG/1.1/DTD/svg11.dtd">
<svg version="1.1" id="Layer_1" xmlns="http://www.w3.org/2000/svg" xmlns:xlink="http://www.w3.org/1999/xlink" x="0px" y="0px"
	 width="24px" height="24px" viewBox="0 0 24 24" enable-background="new 0 0 24 24" xml:space="preserve">
<g>
	<path d="M21,7h-2v2h1v6h-1v2h2c0.553,0,1-0.447,1-1V8C22,7.447,21.553,7,21,7z"/>
	<path d="M2,16c0,0.553,0.447,1,1,1h10v-2H4V9h9V7H3C2.447,7,2,7.447,2,8V16z"/>
	<rect x="5" y="10" width="8" height="3.969"/>
	<path d="M17,6.024C17.013,5.686,17.22,4,20,4V2c-1.986,0-3.238,0.67-3.993,1.511C15.255,2.67,14,2,12,2v2c2.8,0,2.99,1.678,3,2
		v11.998C15,18.08,14.962,20,12,20v2c2.003,0,3.257-0.673,4.01-1.517c0.049,0.055,0.089,0.111,0.143,0.165
		C17.047,21.546,18.342,22,20,22v-2c-2.803,0-2.991-1.676-3-1.998l0,0c0-0.001,0-0.001,0-0.002V6.024z"/>
</g>
</svg>
