<svg xmlns="http://www.w3.org/2000/svg" width="24" height="24" viewBox="0 0 24 24"><path d="M21 6h-2v2h1v8h-1v2h2c.553 0 1-.447 1-1V7C22 6.447 21.553 6 21 6zM2 17c0 .553.447 1 1 1h10v-2H4V8h9V6H3C2.447 6 2 6.447 2 7V17z"/><path d="M6 10H13V14H6z"/><path d="M17,6.024C17.013,5.686,17.22,4,20,4V2c-1.986,0-3.238,0.67-3.993,1.511C15.255,2.67,14,2,12,2v2c2.8,0,2.99,1.678,3,2 v11.998C15,18.08,14.962,20,12,20v2c2.003,0,3.257-0.673,4.01-1.517c0.049,0.055,0.089,0.111,0.143,0.165 C17.047,21.546,18.342,22,20,22v-2c-2.803,0-2.991-1.676-3-1.998c0-0.001,0-0.001,0-0.002V6.024z"/></svg>