<?xml version="1.0" encoding="utf-8"?>
<!-- Generator: Adobe Illustrator 16.0.0, SVG Export Plug-In . SVG Version: 6.00 Build 0)  -->
<!DOCTYPE svg PUBLIC "-//W3C//DTD SVG 1.1//EN" "http://www.w3.org/Graphics/SVG/1.1/DTD/svg11.dtd">
<svg version="1.1" id="Layer_1" xmlns="http://www.w3.org/2000/svg" xmlns:xlink="http://www.w3.org/1999/xlink" x="0px" y="0px"
	 width="24px" height="24px" viewBox="0 0 24 24" enable-background="new 0 0 24 24" xml:space="preserve">
<g>
	<circle cx="12.033" cy="12.033" r="3.024"/>
	<path d="M5.456,4.456L3.337,2.337V8H9L6.87,5.87c3.104-2.58,7.889-2.424,10.787,0.474c1.49,1.49,2.311,3.499,2.311,5.656
		c0,2.158-0.82,4.167-2.311,5.658c-1.49,1.49-3.499,2.31-5.657,2.31s-4.167-0.82-5.656-2.31L4.93,19.071
		c1.867,1.868,4.378,2.896,7.07,2.896s5.204-1.028,7.071-2.896c1.868-1.868,2.897-4.38,2.896-7.072c0-2.692-1.028-5.203-2.896-7.07
		C15.407,1.264,9.332,1.114,5.456,4.456z"/>
</g>
</svg>
