<svg xmlns="http://www.w3.org/2000/svg" width="24" height="24" viewBox="0 0 24 24"><circle cx="12.033" cy="12.033" r="3.024"/><path d="M5.456,4.456L3.337,2.337V8H9L6.87,5.87c3.104-2.58,7.889-2.424,10.787,0.474c1.49,1.49,2.311,3.499,2.311,5.656 c0,2.158-0.82,4.167-2.311,5.658c-1.49,1.49-3.499,2.31-5.657,2.31s-4.167-0.82-5.656-2.31L4.93,19.071 c1.867,1.868,4.378,2.896,7.07,2.896s5.204-1.028,7.071-2.896c1.868-1.868,2.897-4.38,2.896-7.072c0-2.692-1.028-5.203-2.896-7.07 C15.407,1.264,9.332,1.114,5.456,4.456z"/></svg>