<?xml version="1.0" encoding="utf-8"?>
<!-- Generator: Adobe Illustrator 16.0.0, SVG Export Plug-In . SVG Version: 6.00 Build 0)  -->
<!DOCTYPE svg PUBLIC "-//W3C//DTD SVG 1.1//EN" "http://www.w3.org/Graphics/SVG/1.1/DTD/svg11.dtd">
<svg version="1.1" id="Layer_1" xmlns="http://www.w3.org/2000/svg" xmlns:xlink="http://www.w3.org/1999/xlink" x="0px" y="0px"
	 width="24px" height="24px" viewBox="0 0 24 24" enable-background="new 0 0 24 24" xml:space="preserve">
<g>
	<path d="M20.663,8V2.337l-2.134,2.134C14.653,1.113,8.566,1.258,4.896,4.929C3.029,6.796,2,9.307,2,11.999
		c0,2.692,1.029,5.204,2.897,7.072c1.917,1.917,4.494,2.875,7.071,2.875c2.577,0,5.155-0.958,7.071-2.875l-1.414-1.414
		c-3.067,3.066-8.249,3.066-11.314,0C4.82,16.166,4,14.156,4,11.999c0-2.157,0.821-4.166,2.311-5.656
		c2.903-2.903,7.7-3.053,10.805-0.458L15,8H20.663z"/>
</g>
</svg>
