<?xml version="1.0" encoding="utf-8"?>
<!-- Generator: Adobe Illustrator 16.0.0, SVG Export Plug-In . SVG Version: 6.00 Build 0)  -->
<!DOCTYPE svg PUBLIC "-//W3C//DTD SVG 1.1//EN" "http://www.w3.org/Graphics/SVG/1.1/DTD/svg11.dtd">
<svg version="1.1" id="Layer_1" xmlns="http://www.w3.org/2000/svg" xmlns:xlink="http://www.w3.org/1999/xlink" x="0px" y="0px"
	 width="24px" height="24px" viewBox="0 0 24 24" enable-background="new 0 0 24 24" xml:space="preserve">
<g>
	<path d="M7.708,20.707l4.29-4.295l4.295,4.295l1.414-1.414l-7.002-7.002C9.056,10.649,9.001,9.056,9,9c0-1.654,1.346-3,3-3
		s3,1.346,3,2.992c0,0.014-0.058,1.371-1.722,3.158l1.463,1.363C16.96,11.131,17.002,9.2,17,9c0-2.757-2.243-5-5-5S7,6.243,7,9
		c0,0.099,0.026,2.451,2.293,4.707l1.29,1.29l-4.291,4.296L7.708,20.707z"/>
</g>
</svg>
