<?xml version="1.0" encoding="utf-8"?>
<!-- Generator: Adobe Illustrator 16.0.0, SVG Export Plug-In . SVG Version: 6.00 Build 0)  -->
<!DOCTYPE svg PUBLIC "-//W3C//DTD SVG 1.1//EN" "http://www.w3.org/Graphics/SVG/1.1/DTD/svg11.dtd">
<svg version="1.1" id="Layer_1" xmlns="http://www.w3.org/2000/svg" xmlns:xlink="http://www.w3.org/1999/xlink" x="0px" y="0px"
	 width="24px" height="24px" viewBox="0 0 24 24" enable-background="new 0 0 24 24" xml:space="preserve">
<g>
	<path d="M12,2C8.636,2,6,4.636,6,7.986c-0.002,0.119-0.007,2.935,2.771,5.697l1.858,1.983l-4.358,4.649l1.459,1.367L12,17.129
		l4.271,4.555l1.459-1.367l-4.359-4.649l1.861-1.985C18.021,10.685,18.002,8.089,18,8C18,4.636,15.364,2,12,2z M13.771,12.316
		L12,14.205l-1.795-1.914C8.037,10.134,8.001,8.09,8,8c0-2.243,1.757-4,4-4s4,1.757,4,4.008C16,8.086,15.964,9.961,13.771,12.316z"
		/>
</g>
</svg>
