<svg xmlns="http://www.w3.org/2000/svg" width="24" height="24" viewBox="0 0 24 24"><path d="M12 2.007a9.927 9.927 0 0 0-7.071 2.922c-3.898 3.899-3.898 10.243 0 14.142 1.885 1.886 4.396 2.924 7.071 2.924s5.187-1.038 7.071-2.924c3.898-3.898 3.898-10.242 0-14.142A9.927 9.927 0 0 0 12 2.007zm5.657 15.649c-1.508 1.508-3.517 2.338-5.657 2.338s-4.149-.83-5.657-2.338c-3.118-3.119-3.118-8.194 0-11.313C7.85 4.836 9.858 4.007 12 4.007s4.15.829 5.657 2.336c3.118 3.119 3.118 8.194 0 11.313z"/><path d="M11.461 11.125l-3.168 3.168 1.414 1.414 3.168-3.168L15 14.664V9H9.337z"/></svg>