<svg xmlns="http://www.w3.org/2000/svg" width="24" height="24" viewBox="0 0 24 24"><path d="M12,2.007c-2.676,0-5.187,1.037-7.071,2.922c-3.898,3.899-3.898,10.243,0,14.142c1.885,1.886,4.396,2.924,7.071,2.924 s5.187-1.038,7.071-2.924c3.898-3.898,3.898-10.242,0-14.142C17.187,3.044,14.676,2.007,12,2.007z M17.657,17.656 c-1.508,1.508-3.517,2.338-5.657,2.338s-4.149-0.83-5.657-2.338c-3.118-3.119-3.118-8.194,0-11.313 C7.85,4.836,9.858,4.007,12,4.007s4.15,0.829,5.657,2.336C20.775,9.462,20.775,14.537,17.657,17.656z"/><path d="M11.461 11.125L8.293 14.293 9.707 15.707 12.875 12.539 15 14.664 15 9 9.337 9z"/></svg>