<?xml version="1.0" encoding="utf-8"?>
<!-- Generator: Adobe Illustrator 16.0.0, SVG Export Plug-In . SVG Version: 6.00 Build 0)  -->
<!DOCTYPE svg PUBLIC "-//W3C//DTD SVG 1.1//EN" "http://www.w3.org/Graphics/SVG/1.1/DTD/svg11.dtd">
<svg version="1.1" id="Layer_1" xmlns="http://www.w3.org/2000/svg" xmlns:xlink="http://www.w3.org/1999/xlink" x="0px" y="0px"
	 width="24px" height="24px" viewBox="0 0 24 24" enable-background="new 0 0 24 24" xml:space="preserve">
<g>
	<path d="M2.615,15.467l1.879-0.688C4.166,13.884,4,12.949,4,12H2C2,13.185,2.207,14.351,2.615,15.467z"/>
	<path d="M9.39,19.585l-0.631,1.898c1.04,0.346,2.124,0.569,3.232,0.517c0.376,0,0.76-0.022,1.144-0.066l-0.229-1.986
		C12.603,19.981,12.298,20,11.989,20C11.104,20.02,10.224,19.862,9.39,19.585z"/>
	<path d="M14.641,19.553l0.654,1.891c1.426-0.494,2.685-1.281,3.743-2.34c1.87-1.87,2.911-4.385,2.93-7.081
		c0.019-2.709-0.999-5.228-2.864-7.093c-3.832-3.831-10.31-3.833-14.142,0L3.032,3v5h5L6.376,6.344
		c3.066-3.067,8.247-3.065,11.313,0c1.484,1.483,2.293,3.495,2.278,5.665c-0.016,2.167-0.848,4.185-2.344,5.681
		C16.781,18.532,15.777,19.159,14.641,19.553z"/>
	<path d="M3.588,17.448c0.655,1.043,1.271,1.621,1.31,1.656c0.556,0.555,1.177,1.042,1.847,1.448l1.037-1.711
		c-0.533-0.323-1.028-0.711-1.497-1.178c-0.005-0.005-0.488-0.461-1.003-1.28L3.588,17.448z"/>
</g>
</svg>
