<?xml version="1.0" encoding="utf-8"?>
<!-- Generator: Adobe Illustrator 16.0.0, SVG Export Plug-In . SVG Version: 6.00 Build 0)  -->
<!DOCTYPE svg PUBLIC "-//W3C//DTD SVG 1.1//EN" "http://www.w3.org/Graphics/SVG/1.1/DTD/svg11.dtd">
<svg version="1.1" id="Layer_1" xmlns="http://www.w3.org/2000/svg" xmlns:xlink="http://www.w3.org/1999/xlink" x="0px" y="0px"
	 width="24px" height="24px" viewBox="0 0 24 24" enable-background="new 0 0 24 24" xml:space="preserve">
<g>
	<path d="M4.962,4.93L3.032,3v5h5L6.376,6.344c3.066-3.067,8.247-3.065,11.313,0C19.18,7.833,20,9.842,20,11.999
		s-0.82,4.167-2.311,5.657l1.414,1.414c1.868-1.868,2.897-4.38,2.896-7.071c0-2.691-1.028-5.202-2.896-7.069
		C15.271,1.097,8.794,1.099,4.962,4.93z"/>
	<path d="M12.906,19.947C12.603,19.981,12.298,20,11.989,20c-0.885,0.02-1.766-0.138-2.6-0.415l-0.631,1.898
		c1.04,0.346,2.124,0.569,3.232,0.517c0.376,0,0.76-0.022,1.144-0.066L12.906,19.947z"/>
	<path d="M4.897,19.104c0.556,0.555,1.177,1.042,1.847,1.448l1.037-1.711c-0.533-0.323-1.028-0.711-1.497-1.178
		c-0.005-0.005-0.488-0.461-1.003-1.28l-1.693,1.064C4.243,18.491,4.858,19.069,4.897,19.104z"/>
	<path d="M2.615,15.467l1.879-0.688C4.166,13.884,4,12.949,4,12H2C2,13.185,2.207,14.351,2.615,15.467z"/>
	<path d="M17.624,17.689c-0.843,0.843-1.847,1.47-2.983,1.863l0.654,1.891c1.426-0.494,2.685-1.281,3.743-2.34L17.624,17.689z"/>
</g>
</svg>
