<svg xmlns="http://www.w3.org/2000/svg" width="24" height="24" viewBox="0 0 24 24"><path d="M5.471 4.471L3.337 2.337V8H9L6.885 5.885c3.134-2.622 7.979-2.471 10.908.459 1.475 1.475 2.266 3.482 2.227 5.653-.039 2.134-.912 4.209-2.396 5.692-.843.843-1.847 1.47-2.983 1.863l.654 1.891c1.426-.494 2.685-1.281 3.743-2.34 1.874-1.874 2.933-4.385 2.981-7.07.049-2.719-.95-5.241-2.813-7.104C15.509 1.231 9.376 1.084 5.471 4.471zM12.906 19.947C12.603 19.981 12.298 20 11.989 20c-.885.02-1.766-.138-2.6-.415l-.631 1.898c1.04.346 2.124.569 3.232.517.376 0 .76-.022 1.144-.066L12.906 19.947zM4.897 19.104c.556.555 1.177 1.042 1.847 1.448l1.037-1.711c-.533-.323-1.028-.711-1.497-1.178-.005-.005-.488-.461-1.003-1.28l-1.693 1.064C4.243 18.491 4.858 19.069 4.897 19.104zM2.615 15.467l1.879-.688C4.166 13.884 4 12.949 4 12H2C2 13.185 2.207 14.351 2.615 15.467z"/></svg>