<svg xmlns="http://www.w3.org/2000/svg" width="24" height="24"><path d="M5.471 4.471L3.337 2.337V8H9L6.885 5.885c3.134-2.622 7.979-2.471 10.908.459 1.475 1.475 2.266 3.482 2.227 5.653-.039 2.134-.912 4.209-2.396 5.692a7.78 7.78 0 0 1-2.983 1.863l.654 1.891a9.76 9.76 0 0 0 3.743-2.34c1.874-1.874 2.933-4.385 2.981-7.07.049-2.719-.95-5.241-2.813-7.104-3.697-3.698-9.83-3.845-13.735-.458zM12.906 19.947a8.208 8.208 0 0 1-.917.053 7.725 7.725 0 0 1-2.6-.415l-.631 1.898c1.04.346 2.124.569 3.232.517.376 0 .76-.022 1.144-.066l-.228-1.987zM4.897 19.104a9.822 9.822 0 0 0 1.847 1.448l1.037-1.711a7.946 7.946 0 0 1-1.497-1.178c-.005-.005-.488-.461-1.003-1.28l-1.693 1.064c.655 1.044 1.27 1.622 1.309 1.657zM2.615 15.467l1.879-.688A8.052 8.052 0 0 1 4 12H2c0 1.185.207 2.351.615 3.467z"/></svg>