<?xml version="1.0" encoding="utf-8"?>
<!-- Generator: Adobe Illustrator 16.0.0, SVG Export Plug-In . SVG Version: 6.00 Build 0)  -->
<!DOCTYPE svg PUBLIC "-//W3C//DTD SVG 1.1//EN" "http://www.w3.org/Graphics/SVG/1.1/DTD/svg11.dtd">
<svg version="1.1" id="Layer_1" xmlns="http://www.w3.org/2000/svg" xmlns:xlink="http://www.w3.org/1999/xlink" x="0px" y="0px"
	 width="24px" height="24px" viewBox="0 0 24 24" enable-background="new 0 0 24 24" xml:space="preserve">
<g>
	<path d="M21,7H3C2.447,7,2,7.447,2,8v8c0,0.553,0.447,1,1,1h18c0.553,0,1-0.447,1-1V8C22,7.447,21.553,7,21,7z M20,15H4V9h1v2h2V9
		h1v4h2V9h1v2h2V9h1v4h2V9h1v2h2V9h1V15z"/>
</g>
</svg>
