<?xml version="1.0" encoding="utf-8"?>
<!-- Generator: Adobe Illustrator 16.0.0, SVG Export Plug-In . SVG Version: 6.00 Build 0)  -->
<!DOCTYPE svg PUBLIC "-//W3C//DTD SVG 1.1//EN" "http://www.w3.org/Graphics/SVG/1.1/DTD/svg11.dtd">
<svg version="1.1" id="Layer_1" xmlns="http://www.w3.org/2000/svg" xmlns:xlink="http://www.w3.org/1999/xlink" x="0px" y="0px"
	 width="24px" height="24px" viewBox="0 0 24 24" enable-background="new 0 0 24 24" xml:space="preserve">
<g>
	<path d="M3,4v16c0,0.552,0.447,1,1,1h16c0.553,0,1-0.448,1-1V8c0-0.265-0.105-0.52-0.293-0.707l-4-4C16.52,3.105,16.266,3,16,3H4
		C3.447,3,3,3.448,3,4z M5,5h2v3h7V5h1.586L19,8.414V19H5V5z"/>
	<path d="M12,10c-1.93,0-3.5,1.57-3.5,3.5S10.07,17,12,17s3.5-1.57,3.5-3.5S13.93,10,12,10z M12,15c-0.827,0-1.5-0.673-1.5-1.5
		S11.173,12,12,12s1.5,0.673,1.5,1.5S12.827,15,12,15z"/>
</g>
</svg>
