<?xml version="1.0" encoding="utf-8"?>
<!-- Generator: Adobe Illustrator 16.0.0, SVG Export Plug-In . SVG Version: 6.00 Build 0)  -->
<!DOCTYPE svg PUBLIC "-//W3C//DTD SVG 1.1//EN" "http://www.w3.org/Graphics/SVG/1.1/DTD/svg11.dtd">
<svg version="1.1" id="Layer_1" xmlns="http://www.w3.org/2000/svg" xmlns:xlink="http://www.w3.org/1999/xlink" x="0px" y="0px"
	 width="24px" height="24px" viewBox="0 0 24 24" enable-background="new 0 0 24 24" xml:space="preserve">
<g>
	<polygon points="19,14 17,14 17,17 14,17 14,19 17,19 17,22 19,22 19,19 22,19 22,17 19,17 	"/>
	<path d="M3,18c0,0.553,0.447,1,1,1h3v-2H5v-2H3V18z"/>
	<path d="M19,4c0-0.553-0.447-1-1-1h-3v2h2v2h2V4z"/>
	<path d="M5,5h2V3H4C3.447,3,3,3.447,3,4v3h2V5z"/>
	<rect x="3" y="9" width="2" height="4"/>
	<rect x="16.995" y="9" transform="matrix(-1 -0.0029 0.0029 -1 35.9594 21.0527)" width="2" height="3"/>
	<rect x="9" y="3" width="4" height="2"/>
	<rect x="9" y="16.995" transform="matrix(-1 0.0033 -0.0033 -1 21.0585 35.956)" width="3" height="2"/>
</g>
</svg>
