<?xml version="1.0" encoding="utf-8"?>
<!-- Generator: Adobe Illustrator 16.0.0, SVG Export Plug-In . SVG Version: 6.00 Build 0)  -->
<!DOCTYPE svg PUBLIC "-//W3C//DTD SVG 1.1//EN" "http://www.w3.org/Graphics/SVG/1.1/DTD/svg11.dtd">
<svg version="1.1" id="Layer_1" xmlns="http://www.w3.org/2000/svg" xmlns:xlink="http://www.w3.org/1999/xlink" x="0px" y="0px"
	 width="24px" height="24px" viewBox="0 0 24 24" enable-background="new 0 0 24 24" xml:space="preserve">
<g>
	<path d="M11,7.054V4c0-0.404-0.243-0.769-0.617-0.924c-0.373-0.154-0.804-0.069-1.09,0.217l-7,7c-0.391,0.391-0.391,1.023,0,1.414
		l7,7c0.287,0.287,0.717,0.372,1.09,0.217C10.757,18.769,11,18.404,11,18v-3.096c0.284-0.02,0.565-0.029,0.843-0.029
		c5.426,0,8.239,3.572,8.362,3.73C20.397,18.859,20.694,19,21,19c0.106,0,0.214-0.017,0.318-0.052C21.726,18.811,22,18.43,22,18
		C22,8.876,13.914,7.319,11,7.054z M11.843,12.875c-0.647,0-1.312,0.045-1.975,0.133C9.371,13.075,9,13.499,9,14v1.586L4.414,11
		L9,6.414V8c0,0.552,0.471,1,1.022,1c0.91,0,8.114,0.201,9.679,6.425C18.047,14.207,15.42,12.875,11.843,12.875z"/>
</g>
</svg>
