<?xml version="1.0" encoding="utf-8"?>
<!-- Generator: Adobe Illustrator 16.0.0, SVG Export Plug-In . SVG Version: 6.00 Build 0)  -->
<!DOCTYPE svg PUBLIC "-//W3C//DTD SVG 1.1//EN" "http://www.w3.org/Graphics/SVG/1.1/DTD/svg11.dtd">
<svg version="1.1" id="Layer_1" xmlns="http://www.w3.org/2000/svg" xmlns:xlink="http://www.w3.org/1999/xlink" x="0px" y="0px"
	 width="24px" height="24px" viewBox="0 0 24 24" enable-background="new 0 0 24 24" xml:space="preserve">
<g>
	<path d="M2,11.5C2,13.43,3.57,15,5.5,15c0.91,0,1.733-0.358,2.357-0.93l6.26,3.577C14.048,17.922,14,18.204,14,18.5
		c0,1.93,1.57,3.5,3.5,3.5s3.5-1.57,3.5-3.5S19.43,15,17.5,15c-0.91,0-1.733,0.358-2.357,0.93l-6.26-3.577
		c0.063-0.247,0.103-0.502,0.108-0.768l6.151-3.515C15.767,8.642,16.59,9,17.5,9C19.43,9,21,7.43,21,5.5S19.43,2,17.5,2
		S14,3.57,14,5.5c0,0.296,0.048,0.578,0.117,0.853L8.433,9.602C7.808,8.64,6.729,8,5.5,8C3.57,8,2,9.57,2,11.5z M17.5,17
		c0.827,0,1.5,0.673,1.5,1.5S18.327,20,17.5,20S16,19.327,16,18.5S16.673,17,17.5,17z M17.5,4C18.327,4,19,4.673,19,5.5
		S18.327,7,17.5,7S16,6.327,16,5.5S16.673,4,17.5,4z M5.5,10C6.327,10,7,10.673,7,11.5S6.327,13,5.5,13S4,12.327,4,11.5
		S4.673,10,5.5,10z"/>
</g>
</svg>
