<?xml version="1.0" encoding="utf-8"?>
<!-- Generator: Adobe Illustrator 16.0.0, SVG Export Plug-In . SVG Version: 6.00 Build 0)  -->
<!DOCTYPE svg PUBLIC "-//W3C//DTD SVG 1.1//EN" "http://www.w3.org/Graphics/SVG/1.1/DTD/svg11.dtd">
<svg version="1.1" id="Layer_1" xmlns="http://www.w3.org/2000/svg" xmlns:xlink="http://www.w3.org/1999/xlink" x="0px" y="0px"
	 width="24px" height="24px" viewBox="0 0 24 24" enable-background="new 0 0 24 24" xml:space="preserve">
<g>
	<path d="M11.47,21.848C11.632,21.949,11.816,22,12,22s0.368-0.051,0.53-0.152C20.903,16.614,21,8.35,21,8
		c0-0.345-0.178-0.665-0.47-0.848l-8-5c-0.324-0.203-0.736-0.203-1.061,0l-8,5C3.178,7.335,3,7.655,3,8
		C3,8.35,3.097,16.614,11.47,21.848z M12,4.18l6.97,4.355c-0.155,1.752-1.109,7.327-6.97,11.273
		c-5.862-3.947-6.815-9.525-6.97-11.273L12,4.18z"/>
</g>
</svg>
