<?xml version="1.0" encoding="utf-8"?>
<!-- Generator: Adobe Illustrator 16.0.0, SVG Export Plug-In . SVG Version: 6.00 Build 0)  -->
<!DOCTYPE svg PUBLIC "-//W3C//DTD SVG 1.1//EN" "http://www.w3.org/Graphics/SVG/1.1/DTD/svg11.dtd">
<svg version="1.1" id="Layer_1" xmlns="http://www.w3.org/2000/svg" xmlns:xlink="http://www.w3.org/1999/xlink" x="0px" y="0px"
	 width="24px" height="24px" viewBox="0 0 24 24" enable-background="new 0 0 24 24" xml:space="preserve">
<g>
	<path d="M21,3H3C2.447,3,2,3.447,2,4v16c0,0.553,0.447,1,1,1h18c0.553,0,1-0.447,1-1V4C22,3.447,21.553,3,21,3z M20,19H4V5h16V19z"
		/>
	<path d="M12,13c3.309,0,6-2.691,6-6h-2c0,2.206-1.794,4-4,4S8,9.206,8,7H6C6,10.309,8.691,13,12,13z"/>
</g>
</svg>
