<?xml version="1.0" encoding="utf-8"?>
<!-- Generator: Adobe Illustrator 16.0.0, SVG Export Plug-In . SVG Version: 6.00 Build 0)  -->
<!DOCTYPE svg PUBLIC "-//W3C//DTD SVG 1.1//EN" "http://www.w3.org/Graphics/SVG/1.1/DTD/svg11.dtd">
<svg version="1.1" id="Layer_1" xmlns="http://www.w3.org/2000/svg" xmlns:xlink="http://www.w3.org/1999/xlink" x="0px" y="0px"
	 width="24px" height="24px" viewBox="0 0 24 24" enable-background="new 0 0 24 24" xml:space="preserve">
<g>
	<path d="M12,2C9.243,2,7,4.243,7,7v1H4C3.447,8,3,8.447,3,9v12c0,0.553,0.447,1,1,1h16c0.553,0,1-0.447,1-1V9c0-0.553-0.447-1-1-1
		h-3V7C17,4.243,14.757,2,12,2z M9,7c0-1.654,1.346-3,3-3s3,1.346,3,3v1H9V7z M19,10v10H5V10h2v2h2v-2h6v2h2v-2H19z"/>
</g>
</svg>
