<?xml version="1.0" encoding="utf-8"?>
<!-- Generator: Adobe Illustrator 16.0.0, SVG Export Plug-In . SVG Version: 6.00 Build 0)  -->
<!DOCTYPE svg PUBLIC "-//W3C//DTD SVG 1.1//EN" "http://www.w3.org/Graphics/SVG/1.1/DTD/svg11.dtd">
<svg version="1.1" id="Layer_1" xmlns="http://www.w3.org/2000/svg" xmlns:xlink="http://www.w3.org/1999/xlink" x="0px" y="0px"
	 width="24px" height="24px" viewBox="0 0 24 24" enable-background="new 0 0 24 24" xml:space="preserve">
<g>
	<path d="M12,9c-1.642,0-3,1.359-3,3c0,1.642,1.358,3,3,3c1.641,0,3-1.358,3-3C15,10.359,13.641,9,12,9z"/>
	<path d="M12,5c-7.633,0-9.927,6.617-9.948,6.684c-0.069,0.205-0.069,0.428,0,0.633C2.073,12.383,4.367,19,12,19
		s9.927-6.617,9.948-6.684c0.069-0.205,0.069-0.428,0-0.633C21.927,11.617,19.633,5,12,5z M12,17c-5.351,0-7.424-3.846-7.926-5
		C4.578,10.842,6.652,7,12,7c5.351,0,7.424,3.846,7.926,5C19.422,13.158,17.348,17,12,17z"/>
</g>
</svg>
