<svg xmlns="http://www.w3.org/2000/svg" width="24" height="24" viewBox="0 0 24 24"><path d="M12,9c-1.642,0-3,1.359-3,3c0,1.642,1.358,3,3,3c1.641,0,3-1.358,3-3C15,10.359,13.641,9,12,9z"/><path d="M12,5c-7.633,0-9.927,6.617-9.948,6.684c-0.069,0.205-0.069,0.428,0,0.633C2.073,12.383,4.367,19,12,19 s9.927-6.617,9.948-6.684c0.069-0.205,0.069-0.428,0-0.633C21.927,11.617,19.633,5,12,5z M12,17c-5.351,0-7.424-3.846-7.926-5 C4.578,10.842,6.652,7,12,7c5.351,0,7.424,3.846,7.926,5C19.422,13.158,17.348,17,12,17z"/></svg>