<?xml version="1.0" encoding="utf-8"?>
<!-- Generator: Adobe Illustrator 16.0.0, SVG Export Plug-In . SVG Version: 6.00 Build 0)  -->
<!DOCTYPE svg PUBLIC "-//W3C//DTD SVG 1.1//EN" "http://www.w3.org/Graphics/SVG/1.1/DTD/svg11.dtd">
<svg version="1.1" id="Layer_1" xmlns="http://www.w3.org/2000/svg" xmlns:xlink="http://www.w3.org/1999/xlink" x="0px" y="0px"
	 width="24px" height="24px" viewBox="0 0 24 24" enable-background="new 0 0 24 24" xml:space="preserve">
<g>
	<path d="M9,12c0,2.421,1.463,7,7,7h2v2l3.75-3L18,15v2h-2c-4.824,0-4.996-4.491-5-5c0-4.663-4.569-5.964-7-6H2v2h1.985
		C4.189,8.003,9,8.119,9,12z"/>
	<path d="M21.75,6L18,3v2h-2c-2.791,0-4.544,1.164-5.6,2.627c0.492,0.543,0.898,1.186,1.179,1.943C12.186,8.297,13.43,7,16,7h2v2
		L21.75,6z"/>
	<path d="M9.131,16.197c-0.373-0.656-0.646-1.345-0.829-2.028C6.962,15.91,4.143,15.997,4,16H2v2h2.015
		C5.433,17.979,7.588,17.515,9.131,16.197z"/>
</g>
</svg>
