<?xml version="1.0" encoding="utf-8"?>
<!-- Generator: Adobe Illustrator 16.0.0, SVG Export Plug-In . SVG Version: 6.00 Build 0)  -->
<!DOCTYPE svg PUBLIC "-//W3C//DTD SVG 1.1//EN" "http://www.w3.org/Graphics/SVG/1.1/DTD/svg11.dtd">
<svg version="1.1" id="Layer_1" xmlns="http://www.w3.org/2000/svg" xmlns:xlink="http://www.w3.org/1999/xlink" x="0px" y="0px"
	 width="24px" height="24px" viewBox="0 0 24 24" enable-background="new 0 0 24 24" xml:space="preserve">
<g>
	<circle cx="8.5" cy="10.5" r="1.5"/>
	<circle cx="15.5" cy="10.5" r="1.5"/>
	<path d="M12,2C6.486,2,2,6.486,2,12s4.486,10,10,10s10-4.486,10-10S17.514,2,12,2z M12,20c-4.411,0-8-3.589-8-8s3.589-8,8-8
		s8,3.589,8,8S16.411,20,12,20z"/>
	<path d="M12,14c-1.905,0-3.654,0.875-4.8,2.399l1.6,1.201C9.563,16.583,10.73,16,12,16s2.437,0.583,3.2,1.6l1.6-1.201
		C15.654,14.874,13.904,14,12,14z"/>
</g>
</svg>
