<?xml version="1.0" encoding="utf-8"?>
<!-- Generator: Adobe Illustrator 16.0.0, SVG Export Plug-In . SVG Version: 6.00 Build 0)  -->
<!DOCTYPE svg PUBLIC "-//W3C//DTD SVG 1.1//EN" "http://www.w3.org/Graphics/SVG/1.1/DTD/svg11.dtd">
<svg version="1.1" id="Layer_1" xmlns="http://www.w3.org/2000/svg" xmlns:xlink="http://www.w3.org/1999/xlink" x="0px" y="0px"
	 width="24px" height="24px" viewBox="0 0 24 24" enable-background="new 0 0 24 24" xml:space="preserve">
<g>
	<polygon points="20.707,8.707 19.293,7.293 15.586,11 13,11 13,8.414 16.707,4.707 15.293,3.293 13,5.586 13,2 11,2 11,5.586 
		8.707,3.293 7.293,4.707 11,8.414 11,11 8.414,11 4.707,7.293 3.293,8.707 5.586,11 2,11 2,13 5.586,13 3.293,15.293 4.707,16.707 
		8.414,13 11,13 11,15.586 7.293,19.293 8.707,20.707 11,18.414 11,22 13,22 13,18.414 15.293,20.707 16.707,19.293 13,15.586 
		13,13 15.586,13 19.293,16.707 20.707,15.293 18.414,13 22,13 22,11 18.414,11 	"/>
</g>
</svg>
