<?xml version="1.0" encoding="utf-8"?>
<!-- Generator: Adobe Illustrator 16.0.0, SVG Export Plug-In . SVG Version: 6.00 Build 0)  -->
<!DOCTYPE svg PUBLIC "-//W3C//DTD SVG 1.1//EN" "http://www.w3.org/Graphics/SVG/1.1/DTD/svg11.dtd">
<svg version="1.1" id="Layer_1" xmlns="http://www.w3.org/2000/svg" xmlns:xlink="http://www.w3.org/1999/xlink" x="0px" y="0px"
	 width="24px" height="24px" viewBox="0 0 24 24" enable-background="new 0 0 24 24" xml:space="preserve">
<g>
	<path d="M21,20V4c0-0.553-0.447-1-1-1H4C3.448,3,3,3.447,3,4v16c0,0.553,0.448,1,1,1h16C20.553,21,21,20.553,21,20z M19,19H5V5h14
		V19z"/>
	<rect x="7" y="7" width="1.998" height="2"/>
	<rect x="11" y="7" width="6" height="2"/>
	<rect x="7" y="11" width="1.998" height="2"/>
	<rect x="11" y="11" width="6" height="2"/>
	<rect x="7" y="15" width="1.998" height="2"/>
	<rect x="11" y="15" width="6" height="2"/>
</g>
</svg>
