<svg xmlns="http://www.w3.org/2000/svg" width="24" height="24"><path d="M6.855 14.281l-1.818 6.447a1 1 0 0 0 1.518 1.103L12 18.202l5.445 3.63a1 1 0 0 0 1.517-1.106l-1.817-6.365 4.479-3.579a1 1 0 0 0-.484-1.772l-5.596-.791-2.638-5.643A.97.97 0 0 0 11.989 2a.997.997 0 0 0-.903.596l-2.53 5.721-5.677.691a.998.998 0 0 0-.494 1.78l4.47 3.493zm2.506-4.049a.997.997 0 0 0 .793-.588l1.871-4.229 1.936 4.142c.144.306.432.519.767.566l3.837.543-3.188 2.547a1.002 1.002 0 0 0-.338 1.056l1.254 4.391-3.737-2.491a.995.995 0 0 0-1.109 0l-3.749 2.499 1.267-4.489a1.002 1.002 0 0 0-.348-1.06L5.521 10.7l3.84-.468z"/></svg>