<?xml version="1.0" encoding="utf-8"?>
<!-- Generator: Adobe Illustrator 16.0.0, SVG Export Plug-In . SVG Version: 6.00 Build 0)  -->
<!DOCTYPE svg PUBLIC "-//W3C//DTD SVG 1.1//EN" "http://www.w3.org/Graphics/SVG/1.1/DTD/svg11.dtd">
<svg version="1.1" id="Layer_1" xmlns="http://www.w3.org/2000/svg" xmlns:xlink="http://www.w3.org/1999/xlink" x="0px" y="0px"
	 width="24px" height="24px" viewBox="0 0 24 24" enable-background="new 0 0 24 24" xml:space="preserve">
<g>
	<path d="M6.855,14.281l-1.818,6.447c-0.113,0.403,0.036,0.834,0.375,1.08c0.338,0.247,0.795,0.256,1.143,0.023L12,18.202
		l5.445,3.63C17.613,21.944,17.807,22,18,22c0.207,0,0.414-0.064,0.59-0.192c0.338-0.247,0.486-0.679,0.372-1.082l-1.817-6.365
		l4.479-3.579c0.312-0.249,0.446-0.66,0.341-1.045s-0.43-0.671-0.825-0.727l-5.596-0.791l-2.638-5.643
		C12.74,2.221,12.401,1.989,11.989,2c-0.392,0.004-0.745,0.237-0.903,0.596l-2.53,5.721L2.879,9.008
		C2.478,9.057,2.145,9.343,2.036,9.732s0.029,0.807,0.349,1.056L6.855,14.281z M9.361,10.232c0.35-0.042,0.651-0.266,0.793-0.588
		l1.871-4.229l1.936,4.142c0.144,0.306,0.432,0.519,0.767,0.566l3.837,0.543l-3.188,2.547c-0.315,0.252-0.448,0.668-0.338,1.056
		l1.254,4.391l-3.737-2.491c-0.336-0.225-0.773-0.225-1.109,0l-3.749,2.499l1.267-4.489c0.109-0.391-0.027-0.81-0.348-1.06
		L5.521,10.7L9.361,10.232z"/>
</g>
</svg>
