<svg xmlns="http://www.w3.org/2000/svg" width="24" height="24" viewBox="0 0 24 24"><circle cx="12" cy="12" r="2"/><path d="M7.757 16.243l1.414-1.414a3.977 3.977 0 0 1-1.173-2.83c0-1.068.417-2.072 1.172-2.827L7.758 7.757c-1.134 1.132-1.759 2.639-1.759 4.242s.624 3.11 1.758 4.244zM16.242 16.243A5.96 5.96 0 0 0 18 12a5.96 5.96 0 0 0-1.758-4.243l-1.414 1.414C15.584 9.927 16 10.932 16 12s-.416 2.073-1.172 2.829l1.414 1.414z"/><path d="M6.343 17.657a7.953 7.953 0 0 1-2.345-5.659c0-2.137.833-4.145 2.345-5.654L4.93 4.929c-1.891 1.887-2.932 4.397-2.932 7.069s1.041 5.183 2.931 7.073l1.414-1.414zM17.657 6.343A7.948 7.948 0 0 1 20 12a7.948 7.948 0 0 1-2.343 5.657l1.414 1.414A9.932 9.932 0 0 0 22 12a9.934 9.934 0 0 0-2.929-7.071l-1.414 1.414z"/></svg>