<?xml version="1.0" encoding="utf-8"?>
<!-- Generator: Adobe Illustrator 16.0.0, SVG Export Plug-In . SVG Version: 6.00 Build 0)  -->
<!DOCTYPE svg PUBLIC "-//W3C//DTD SVG 1.1//EN" "http://www.w3.org/Graphics/SVG/1.1/DTD/svg11.dtd">
<svg version="1.1" id="Layer_1" xmlns="http://www.w3.org/2000/svg" xmlns:xlink="http://www.w3.org/1999/xlink" x="0px" y="0px"
	 width="24px" height="24px" viewBox="0 0 24 24" enable-background="new 0 0 24 24" xml:space="preserve">
<g>
	<path d="M12,22c4.411,0,8-3.589,8-8s-3.589-8-8-8s-8,3.589-8,8S7.589,22,12,22z M12,8c3.309,0,6,2.691,6,6s-2.691,6-6,6
		s-6-2.691-6-6S8.691,8,12,8z"/>
	<rect x="11" y="10" width="2" height="4"/>
	<rect x="9" y="2" width="6" height="2"/>
	<rect x="18" y="3.586" transform="matrix(-0.7071 0.7071 -0.7071 -0.7071 35.9706 -4.8995)" width="2" height="2.828"/>
</g>
</svg>
