<?xml version="1.0" encoding="utf-8"?>
<!-- Generator: Adobe Illustrator 16.0.0, SVG Export Plug-In . SVG Version: 6.00 Build 0)  -->
<!DOCTYPE svg PUBLIC "-//W3C//DTD SVG 1.1//EN" "http://www.w3.org/Graphics/SVG/1.1/DTD/svg11.dtd">
<svg version="1.1" id="Layer_1" xmlns="http://www.w3.org/2000/svg" xmlns:xlink="http://www.w3.org/1999/xlink" x="0px" y="0px"
	 width="24px" height="24px" viewBox="0 0 24 24" enable-background="new 0 0 24 24" xml:space="preserve">
<g>
	<path d="M18.895,2.553C18.725,2.214,18.379,2,18,2H6C5.621,2,5.275,2.214,5.105,2.553l-3,6C2.036,8.691,2,8.845,2,9
		c0,1.006,0.386,1.914,1,2.618V21c0,0.553,0.447,1,1,1h5.023H15h5c0.553,0,1-0.447,1-1v-9.382c0.614-0.704,1-1.612,1-2.618
		c0-0.155-0.036-0.309-0.105-0.447L18.895,2.553z M6.618,4h10.764l2.606,5.214C19.882,10.216,19.03,11,18,11c-1.103,0-2-0.897-2-2
		c0-0.526-0.414-0.915-0.939-0.951c-0.552-0.023-0.994,0.391-1.064,0.911c-0.006,0.045-0.009,0.089-0.009,0.132
		c0,0.031,0.002,0.062,0.004,0.092C13.898,10.2,13.041,11,12,11c-1.045,0-1.913-0.805-1.994-1.841l0.001-0.019
		c0.001-0.011,0.001-0.021,0.001-0.03c0.001-0.007,0.001-0.06,0.002-0.09c0-0.007,0-0.014,0-0.021c0-0.001,0-0.002,0-0.002
		c0-0.001,0-0.001,0-0.001V8.996V8.995V8.994V8.993c0,0,0,0,0-0.001s0-0.001,0-0.002c-0.001-0.053-0.005-0.104-0.014-0.153
		C9.972,8.689,9.914,8.557,9.83,8.442C9.641,8.16,9.313,7.98,8.948,8.001C8.417,8.029,8,8.468,8,9c0,0.055,0.001,0.108,0.003,0.162
		C7.92,10.196,7.049,11,6,11c-1.03,0-1.882-0.784-1.988-1.786L6.618,4z M10.023,20v-3H14v3H10.023z M16,20v-4c0-0.553-0.447-1-1-1
		H9.023c-0.553,0-1,0.447-1,1v4H5v-7.142C5.321,12.941,5.652,13,6,13c1.19,0,2.267-0.521,3.004-1.351C9.738,12.479,10.812,13,12,13
		c1.193,0,2.267-0.525,3-1.357C15.733,12.475,16.807,13,18,13c0.348,0,0.679-0.059,1-0.142V20H16z"/>
</g>
</svg>
