<svg xmlns="http://www.w3.org/2000/svg" width="24" height="24"><path d="M18.895 2.553A1.001 1.001 0 0 0 18 2H6c-.379 0-.725.214-.895.553l-3 6A1.002 1.002 0 0 0 2 9a3.97 3.97 0 0 0 1 2.618V21a1 1 0 0 0 1 1h16a1 1 0 0 0 1-1v-9.382A3.97 3.97 0 0 0 22 9c0-.155-.036-.309-.105-.447l-3-6zM14 20h-3.977v-3H14v3zm5 0h-3v-4a1 1 0 0 0-1-1H9.023a1 1 0 0 0-1 1v4H5v-7.142c.321.083.652.142 1 .142 1.19 0 2.267-.521 3.004-1.351A3.993 3.993 0 0 0 15 11.643 3.99 3.99 0 0 0 18 13c.348 0 .679-.059 1-.142V20zm-1-9c-1.103 0-2-.897-2-2 0-.526-.414-.915-.939-.951a1.037 1.037 0 0 0-1.069 1.135 2 2 0 0 1-3.986-.025l.001-.019.001-.03.002-.09v-.021-.002-.004-.001-.002a.946.946 0 0 0-.18-.548A1 1 0 0 0 8 9c0 .055.001.108.003.162a2.006 2.006 0 0 1-3.991.052L6.618 4h10.764l2.606 5.214A2.002 2.002 0 0 1 18 11z"/></svg>