<svg xmlns="http://www.w3.org/2000/svg" width="24" height="24" viewBox="0 0 24 24"><path d="M18.895 2.553A1.001 1.001 0 0 0 18 2H6c-.379 0-.725.214-.895.553l-3 6A1.002 1.002 0 0 0 2 9c0 1.475.811 2.75 2 3.443V21a1 1 0 0 0 1 1h14a1 1 0 0 0 1-1v-8.557c1.189-.693 2-1.969 2-3.443 0-.155-.036-.309-.105-.447l-3-6zm1.093 6.661A2.002 2.002 0 0 1 18 11c-1.103 0-2-.897-2-2 0-.057-.023-.106-.032-.161l.019-.003L15.181 4h2.201l2.606 5.214zM10.847 4h2.307l.842 5.051C13.967 10.13 13.085 11 12 11a2 2 0 0 1-1.995-1.949L10.847 4zM6.618 4h2.201l-.805 4.836.019.003C8.023 8.894 8 8.943 8 9c0 1.103-.897 2-2 2a2.002 2.002 0 0 1-1.988-1.786L6.618 4zm3.405 16v-3H14v3h-3.977zM18 20h-2v-4a1 1 0 0 0-1-1H9.023a1 1 0 0 0-1 1v4H6v-7a3.99 3.99 0 0 0 3-1.357c.733.832 1.807 1.357 3 1.357s2.267-.525 3-1.357A3.99 3.99 0 0 0 18 13v7z"/></svg>