<?xml version="1.0" encoding="utf-8"?>
<!-- Generator: Adobe Illustrator 16.0.0, SVG Export Plug-In . SVG Version: 6.00 Build 0)  -->
<!DOCTYPE svg PUBLIC "-//W3C//DTD SVG 1.1//EN" "http://www.w3.org/Graphics/SVG/1.1/DTD/svg11.dtd">
<svg version="1.1" id="Layer_1" xmlns="http://www.w3.org/2000/svg" xmlns:xlink="http://www.w3.org/1999/xlink" x="0px" y="0px"
	 width="24px" height="24px" viewBox="0 0 24 24" enable-background="new 0 0 24 24" xml:space="preserve">
<g>
	<path d="M6,20c2.206,0,4-1.794,4-4V8c0-1.103,0.897-2,2-2s2,0.897,2,2v2.129l1,0.371l1-0.236V8c0-2.206-1.794-4-4-4S8,5.794,8,8v8
		c0,1.103-0.897,2-2,2s-2-0.897-2-2v-3H2v3C2,18.206,3.794,20,6,20z"/>
	<path d="M20,16c0,1.103-0.897,2-2,2s-2-0.897-2-2v-1v-2.336L15,13l-1-0.519V15v1c0,2.206,1.794,4,4,4s4-1.794,4-4v-3h-2V16z"/>
</g>
</svg>
