<?xml version="1.0" encoding="utf-8"?>
<!-- Generator: Adobe Illustrator 16.0.0, SVG Export Plug-In . SVG Version: 6.00 Build 0)  -->
<!DOCTYPE svg PUBLIC "-//W3C//DTD SVG 1.1//EN" "http://www.w3.org/Graphics/SVG/1.1/DTD/svg11.dtd">
<svg version="1.1" id="Layer_1" xmlns="http://www.w3.org/2000/svg" xmlns:xlink="http://www.w3.org/1999/xlink" x="0px" y="0px"
	 width="24px" height="24px" viewBox="0 0 24 24" enable-background="new 0 0 24 24" xml:space="preserve">
<g>
	<path d="M7.993,12c0,2.209,1.798,4.007,4.007,4.007s4.007-1.798,4.007-4.007S14.209,7.993,12,7.993S7.993,9.791,7.993,12z
		 M12,9.993c1.106,0,2.007,0.9,2.007,2.007s-0.9,2.007-2.007,2.007S9.993,13.106,9.993,12S10.894,9.993,12,9.993z"/>
	<rect x="15.586" y="16" transform="matrix(-0.7071 -0.7071 0.7071 -0.7071 17 41.0416)" width="2.828" height="2"/>
	<rect x="5.586" y="6" transform="matrix(-0.7071 -0.7071 0.7071 -0.7071 7 16.8995)" width="2.828" height="2"/>
	<rect x="3.513" y="11" width="2.829" height="2"/>
	<rect x="17.655" y="11" width="2.828" height="2"/>
	<rect x="10.998" y="3.515" width="2" height="2.829"/>
	<rect x="10.998" y="17.657" width="2" height="2.828"/>
	<rect x="15.999" y="5.586" transform="matrix(-0.7071 -0.7071 0.7071 -0.7071 24.0682 23.9704)" width="2" height="2.83"/>
	<rect x="5.999" y="15.587" transform="matrix(-0.7071 -0.7071 0.7071 -0.7071 -0.0739 33.9704)" width="2" height="2.827"/>
</g>
</svg>
