<svg xmlns="http://www.w3.org/2000/svg" width="24" height="24" viewBox="0 0 24 24"><path d="M7.993,12c0,2.209,1.798,4.007,4.007,4.007s4.007-1.798,4.007-4.007S14.209,7.993,12,7.993S7.993,9.791,7.993,12z M12,9.993c1.106,0,2.007,0.9,2.007,2.007s-0.9,2.007-2.007,2.007S9.993,13.106,9.993,12S10.894,9.993,12,9.993z"/><path transform="rotate(-134.999 17 17)" d="M15.586 16H18.414V18H15.586z"/><path transform="rotate(-134.999 7 7)" d="M5.586 6H8.414V8H5.586z"/><path d="M3.513 11H6.3420000000000005V13H3.513zM17.655 11H20.483V13H17.655zM10.998 3.515H12.998V6.344H10.998zM10.998 17.657H12.998V20.485H10.998z"/><path transform="rotate(-134.999 16.999 7)" d="M15.999 5.586H17.999000000000002V8.416H15.999z"/><path transform="rotate(-134.999 6.999 17)" d="M5.999 15.587H7.999V18.414H5.999z"/></svg>