<?xml version="1.0" encoding="utf-8"?>
<!-- Generator: Adobe Illustrator 16.0.0, SVG Export Plug-In . SVG Version: 6.00 Build 0)  -->
<!DOCTYPE svg PUBLIC "-//W3C//DTD SVG 1.1//EN" "http://www.w3.org/Graphics/SVG/1.1/DTD/svg11.dtd">
<svg version="1.1" id="Layer_1" xmlns="http://www.w3.org/2000/svg" xmlns:xlink="http://www.w3.org/1999/xlink" x="0px" y="0px"
	 width="24px" height="24px" viewBox="0 0 24 24" enable-background="new 0 0 24 24" xml:space="preserve">
<g>
	<path d="M3,18h2c0.553,0,1-0.448,1-1v-7c0-3.309,2.691-6,6-6s6,2.691,6,6v6v1v3h-4c0-0.552-0.447-1-1-1h-2c-0.553,0-1,0.448-1,1v1
		c0,0.552,0.447,1,1,1h8c0.553,0,1-0.448,1-1v-3h1c0.553,0,1-0.448,1-1v-6c0-0.552-0.447-1-1-1h-1c0-4.411-3.589-8-8-8s-8,3.589-8,8
		H3c-0.553,0-1,0.448-1,1v6C2,17.552,2.447,18,3,18z"/>
</g>
</svg>
