<?xml version="1.0" encoding="utf-8"?>
<!-- Generator: Adobe Illustrator 16.0.0, SVG Export Plug-In . SVG Version: 6.00 Build 0)  -->
<!DOCTYPE svg PUBLIC "-//W3C//DTD SVG 1.1//EN" "http://www.w3.org/Graphics/SVG/1.1/DTD/svg11.dtd">
<svg version="1.1" id="Layer_1" xmlns="http://www.w3.org/2000/svg" xmlns:xlink="http://www.w3.org/1999/xlink" x="0px" y="0px"
	 width="24px" height="24px" viewBox="0 0 24 24" enable-background="new 0 0 24 24" xml:space="preserve">
<g>
	<path d="M13,7.106c2.25,0.478,4,2.525,4,4.894c0,1.416-0.501,2.683-1.411,3.569l1.395,1.433C18.284,15.736,19,13.96,19,12
		c0-3.455-2.66-6.413-6-6.917V2L9,6l4,4V7.106z"/>
	<path d="M11.098,18.932v2.947l4-4l-4-4v3.027C8.802,16.466,7,14.402,7,12c0-1.416,0.501-2.684,1.411-3.57L7.017,6.997
		C5.716,8.263,5,10.04,5,12C5,15.489,7.712,18.473,11.098,18.932z"/>
</g>
</svg>
