<?xml version="1.0" encoding="utf-8"?>
<!-- Generator: Adobe Illustrator 16.0.0, SVG Export Plug-In . SVG Version: 6.00 Build 0)  -->
<!DOCTYPE svg PUBLIC "-//W3C//DTD SVG 1.1//EN" "http://www.w3.org/Graphics/SVG/1.1/DTD/svg11.dtd">
<svg version="1.1" id="Layer_1" xmlns="http://www.w3.org/2000/svg" xmlns:xlink="http://www.w3.org/1999/xlink" x="0px" y="0px"
	 width="24px" height="24px" viewBox="0 0 24 24" enable-background="new 0 0 24 24" xml:space="preserve">
<g>
	<path d="M12,6c3.252,0,6,2.748,6,6c0,1.697-0.603,3.218-1.697,4.283l1.395,1.434C19.183,16.272,20,14.242,20,12
		c0-4.336-3.663-8-8-8V2L8,5l4,3V6z"/>
	<path d="M12,20v2l4-3l-4-3v2c-3.252,0-6-2.748-6-6c0-1.697,0.603-3.219,1.697-4.284L6.303,6.282C4.817,7.728,4,9.758,4,12
		C4,16.336,7.663,20,12,20z"/>
</g>
</svg>
