<?xml version="1.0" encoding="utf-8"?>
<!-- Generator: Adobe Illustrator 16.0.0, SVG Export Plug-In . SVG Version: 6.00 Build 0)  -->
<!DOCTYPE svg PUBLIC "-//W3C//DTD SVG 1.1//EN" "http://www.w3.org/Graphics/SVG/1.1/DTD/svg11.dtd">
<svg version="1.1" id="Layer_1" xmlns="http://www.w3.org/2000/svg" xmlns:xlink="http://www.w3.org/1999/xlink" x="0px" y="0px"
	 width="24px" height="24px" viewBox="0 0 24 24" enable-background="new 0 0 24 24" xml:space="preserve">
<g>
	<polygon points="12.707,15.707 15,13.414 17.293,15.707 18.707,14.293 16.414,12 18.707,9.707 17.293,8.293 15,10.586 
		12.707,8.293 11.293,9.707 13.586,12 11.293,14.293 	"/>
	<path d="M21,5.01H8c-0.297,0-0.578,0.132-0.768,0.359l-5,5.99c-0.31,0.371-0.31,0.91,0,1.281l5,5.99
		C7.422,18.858,7.703,18.99,8,18.99h13c0.553,0,1-0.447,1-1V6.01C22,5.457,21.553,5.01,21,5.01z M20,16.99H8.468L4.303,12
		l4.165-4.99H20V16.99z"/>
</g>
</svg>
