<?xml version="1.0" encoding="utf-8"?>
<!-- Generator: Adobe Illustrator 16.0.0, SVG Export Plug-In . SVG Version: 6.00 Build 0)  -->
<!DOCTYPE svg PUBLIC "-//W3C//DTD SVG 1.1//EN" "http://www.w3.org/Graphics/SVG/1.1/DTD/svg11.dtd">
<svg version="1.1" id="Layer_1" xmlns="http://www.w3.org/2000/svg" xmlns:xlink="http://www.w3.org/1999/xlink" x="0px" y="0px"
	 width="24px" height="24px" viewBox="0 0 24 24" enable-background="new 0 0 24 24" xml:space="preserve">
<g>
	<path d="M20,4c0-0.553-0.447-1-1-1h-3V2c0-0.553-0.447-1-1-1H9C8.447,1,8,1.447,8,2v1H5C4.447,3,4,3.447,4,4v16
		c0,0.553,0.447,1,1,1h14c0.553,0,1-0.447,1-1V4z M10,3h4v2h-4V3z M18,19H6V5h2v1c0,0.553,0.447,1,1,1h6c0.553,0,1-0.447,1-1V5h2V19
		z"/>
	<polygon points="10.995,12.579 9.702,11.287 8.288,12.701 10.993,15.405 15.706,10.708 14.294,9.292 	"/>
</g>
</svg>
