<svg xmlns="http://www.w3.org/2000/svg" width="24" height="24" viewBox="0 0 24 24"><path d="M12,2C6.486,2,2,6.486,2,12s4.486,10,10,10s10-4.486,10-10S17.514,2,12,2z M4,12c0-1.597,0.476-3.083,1.285-4.333 C6.365,8.778,7,10.355,7,12c0,1.561-0.667,3.068-1.8,4.193C4.444,14.973,4,13.539,4,12z M12,20c-2.154,0-4.108-0.86-5.549-2.25 C8.047,16.24,9,14.164,9,12c0-2.23-0.902-4.373-2.426-5.862C8.002,4.815,9.905,4,12,4s3.998,0.815,5.426,2.138 C15.902,7.627,15,9.77,15,12c0,2.164,0.953,4.24,2.549,5.75C16.108,19.14,14.154,20,12,20z M18.8,16.193 C17.667,15.068,17,13.561,17,12c0-1.645,0.635-3.222,1.715-4.333C19.524,8.917,20,10.403,20,12 C20,13.539,19.556,14.973,18.8,16.193z"/></svg>