<?xml version="1.0" encoding="utf-8"?>
<!-- Generator: Adobe Illustrator 16.0.0, SVG Export Plug-In . SVG Version: 6.00 Build 0)  -->
<!DOCTYPE svg PUBLIC "-//W3C//DTD SVG 1.1//EN" "http://www.w3.org/Graphics/SVG/1.1/DTD/svg11.dtd">
<svg version="1.1" id="Layer_1" xmlns="http://www.w3.org/2000/svg" xmlns:xlink="http://www.w3.org/1999/xlink" x="0px" y="0px"
	 width="24px" height="24px" viewBox="0 0 24 24" enable-background="new 0 0 24 24" xml:space="preserve">
<g>
	<path d="M12,4c-4.879,0-9,4.121-9,9s4.121,9,9,9s9-4.121,9-9S16.879,4,12,4z M12,20c-3.794,0-7-3.206-7-7s3.206-7,7-7s7,3.206,7,7
		S15.794,20,12,20z"/>
	<polygon points="13,12 13,8 11,8 11,12 11,14 13,14 17,14 17,12 	"/>
	<rect x="18.001" y="1.172" transform="matrix(0.7071 -0.7071 0.7071 0.7071 2.7367 14.6069)" width="2" height="5.656"/>
	<rect x="2.172" y="3" transform="matrix(-0.7071 0.7071 -0.7071 -0.7071 11.3628 3.2924)" width="5.655" height="2"/>
</g>
</svg>
