<?xml version="1.0" encoding="utf-8"?>
<!-- Generator: Adobe Illustrator 16.0.0, SVG Export Plug-In . SVG Version: 6.00 Build 0)  -->
<!DOCTYPE svg PUBLIC "-//W3C//DTD SVG 1.1//EN" "http://www.w3.org/Graphics/SVG/1.1/DTD/svg11.dtd">
<svg version="1.1" id="Layer_1" xmlns="http://www.w3.org/2000/svg" xmlns:xlink="http://www.w3.org/1999/xlink" x="0px" y="0px"
	 width="24px" height="24px" viewBox="0 0 24 24" enable-background="new 0 0 24 24" xml:space="preserve">
<g>
	<path d="M15,6c-3.859,0-7,3.14-7,7s3.141,7,7,7s7-3.14,7-7S18.859,6,15,6z M15,18c-2.757,0-5-2.243-5-5s2.243-5,5-5s5,2.243,5,5
		S17.757,18,15,18z"/>
	<rect x="14" y="10" width="2" height="4"/>
	<rect x="12" y="2" width="6" height="2"/>
	<rect x="3" y="7" width="4" height="2"/>
	<rect x="3" y="15" width="4" height="2"/>
	<rect x="2" y="11" width="3.99" height="2"/>
	<rect x="19.586" y="4" transform="matrix(-0.7071 -0.7071 0.7071 -0.7071 32.3137 23.3848)" width="2.828" height="2"/>
</g>
</svg>
