<?xml version="1.0" encoding="utf-8"?>
<!-- Generator: Adobe Illustrator 16.0.0, SVG Export Plug-In . SVG Version: 6.00 Build 0)  -->
<!DOCTYPE svg PUBLIC "-//W3C//DTD SVG 1.1//EN" "http://www.w3.org/Graphics/SVG/1.1/DTD/svg11.dtd">
<svg version="1.1" id="Layer_1" xmlns="http://www.w3.org/2000/svg" xmlns:xlink="http://www.w3.org/1999/xlink" x="0px" y="0px"
	 width="24px" height="24px" viewBox="0 0 24 24" enable-background="new 0 0 24 24" xml:space="preserve">
<g>
	<path d="M20,4H4v2h6.75L5.2,13.4c-0.228,0.303-0.264,0.708-0.095,1.047C5.275,14.786,5.621,15,6,15h2v4c0,0.553,0.447,1,1,1h6
		c0.553,0,1-0.447,1-1v-4h2c0.379,0,0.725-0.214,0.895-0.553c0.169-0.339,0.133-0.744-0.095-1.047L13.25,6H20V4z M15,13
		c-0.553,0-1,0.447-1,1v4h-4v-4c0-0.553-0.447-1-1-1H8l4-5.333L16,13H15z"/>
</g>
</svg>
