<svg xmlns="http://www.w3.org/2000/svg" width="24" height="24" viewBox="0 0 24 24"><path d="M17.5,5C16.687,5,16,5.687,16,6.5S16.687,8,17.5,8S19,7.313,19,6.5S18.313,5,17.5,5z"/><path d="M17.5 2h-11C4.002 2 1.97 4.012 1.97 6.484c0 .087.013.172.036.255C2.131 9.109 4.099 11 6.5 11h11c2.481 0 4.5-2.019 4.5-4.516C22 4.012 19.981 2 17.5 2zM17.5 9h-11C5.121 9 4 7.879 4 6.5c0-.068-.008-.137-.023-.203C4.074 5.015 5.169 4 6.5 4h11C18.902 4 20 5.091 20 6.5 20 7.879 18.879 9 17.5 9zM6.5 16C5.687 16 5 16.687 5 17.5S5.687 19 6.5 19 8 18.313 8 17.5 7.313 16 6.5 16z"/><path d="M17.5,13h-11c-2.498,0-4.53,2.012-4.53,4.484c0,0.087,0.013,0.172,0.036,0.255C2.131,20.109,4.099,22,6.5,22h11 c2.481,0,4.5-2.019,4.5-4.516C22,15.012,19.981,13,17.5,13z M17.5,20h-11C5.121,20,4,18.879,4,17.5 c0-0.068-0.008-0.137-0.023-0.203C4.074,16.015,5.169,15,6.5,15h11c1.402,0,2.5,1.091,2.5,2.5C20,18.879,18.879,20,17.5,20z"/></svg>