<?xml version="1.0" encoding="utf-8"?>
<!-- Generator: Adobe Illustrator 16.0.0, SVG Export Plug-In . SVG Version: 6.00 Build 0)  -->
<!DOCTYPE svg PUBLIC "-//W3C//DTD SVG 1.1//EN" "http://www.w3.org/Graphics/SVG/1.1/DTD/svg11.dtd">
<svg version="1.1" id="Layer_1" xmlns="http://www.w3.org/2000/svg" xmlns:xlink="http://www.w3.org/1999/xlink" x="0px" y="0px"
	 width="24px" height="24px" viewBox="0 0 24 24" enable-background="new 0 0 24 24" xml:space="preserve">
<g>
	<path d="M8,14c1.085,0,2-0.915,2-2s-0.915-2-2-2s-2,0.915-2,2S6.915,14,8,14z"/>
	<path d="M8,18h8c3.303,0,5.995-2.688,6-5.994c0,0,0,0,0-0.001c0-0.002,0-0.003,0-0.005c0-0.004,0-0.008,0-0.012
		C21.985,8.685,19.297,6,16,6H8c-3.296,0-5.982,2.682-6,5.986C2,11.991,2,11.995,2,12v0.016c0,0.004,0,0.008,0,0.012
		C2.015,15.322,4.703,18,8,18z M8,8h8c2.202,0,3.996,1.799,4,4.006C19.996,14.208,18.202,16,16,16H8c-2.202,0-3.996-1.792-4-3.99
		C4.004,9.799,5.798,8,8,8z"/>
</g>
</svg>
