<?xml version="1.0" encoding="utf-8"?>
<!-- Generator: Adobe Illustrator 16.0.0, SVG Export Plug-In . SVG Version: 6.00 Build 0)  -->
<!DOCTYPE svg PUBLIC "-//W3C//DTD SVG 1.1//EN" "http://www.w3.org/Graphics/SVG/1.1/DTD/svg11.dtd">
<svg version="1.1" id="Layer_1" xmlns="http://www.w3.org/2000/svg" xmlns:xlink="http://www.w3.org/1999/xlink" x="0px" y="0px"
	 width="24px" height="24px" viewBox="0 0 24 24" enable-background="new 0 0 24 24" xml:space="preserve">
<g>
	<path d="M16,10c-1.085,0-2,0.915-2,2s0.915,2,2,2s2-0.915,2-2S17.085,10,16,10z"/>
	<path d="M16,6H8c-3.296,0-5.982,2.682-6,5.986C2,11.991,2,11.995,2,12v0.016c0,0.004,0,0.008,0,0.012C2.015,15.322,4.703,18,8,18h8
		c3.309,0,6-2.691,6-6S19.309,6,16,6z M16,16H8c-2.202,0-3.996-1.792-4-3.99C4.004,9.799,5.798,8,8,8h8c2.206,0,4,1.794,4,4
		S18.206,16,16,16z"/>
</g>
</svg>
