<?xml version="1.0" encoding="utf-8"?>
<!-- Generator: Adobe Illustrator 16.0.0, SVG Export Plug-In . SVG Version: 6.00 Build 0)  -->
<!DOCTYPE svg PUBLIC "-//W3C//DTD SVG 1.1//EN" "http://www.w3.org/Graphics/SVG/1.1/DTD/svg11.dtd">
<svg version="1.1" id="Layer_1" xmlns="http://www.w3.org/2000/svg" xmlns:xlink="http://www.w3.org/1999/xlink" x="0px" y="0px"
	 width="24px" height="24px" viewBox="0 0 24 24" enable-background="new 0 0 24 24" xml:space="preserve">
<g>
	<path d="M5,20.996c-0.001,0.266,0.104,0.521,0.292,0.71C5.479,21.894,5.734,22,6,22h12c0.553,0,1-0.448,1-1V8h2V6h-3h-2V3
		c0-0.552-0.447-1-1-1H9C8.448,2,8,2.448,8,3v3H6.063H3v2h2.058L5,20.996z M10,4h4v2h-4V4z M9,8h6h2v12H7.004L7.058,8H9z"/>
	<rect x="9" y="10" width="2" height="8"/>
	<rect x="13" y="10" width="2" height="8"/>
</g>
</svg>
