<svg xmlns="http://www.w3.org/2000/svg" width="24" height="24" viewBox="0 0 24 24"><path d="M19.929 6.629A1.002 1.002 0 0 0 19 6h-4V4a1 1 0 0 0-1-1H3a1 1 0 0 0-1 1v13a1 1 0 0 0 1 1h1.051c-.025.165-.051.329-.051.5C4 20.43 5.57 22 7.5 22s3.5-1.57 3.5-3.5c0-.171-.026-.335-.051-.5h2.102c-.025.165-.051.329-.051.5 0 1.93 1.57 3.5 3.5 3.5s3.5-1.57 3.5-3.5c0-.171-.026-.335-.051-.5H21a1 1 0 0 0 1-1v-5c0-.127-.024-.253-.071-.371l-2-5zM15 8h3.323l1.2 3H15V8zM7.5 20c-.827 0-1.5-.673-1.5-1.5S6.673 17 7.5 17s1.5.673 1.5 1.5S8.327 20 7.5 20zm5.5-4H9.941c-.63-.616-1.491-1-2.441-1-.979 0-1.864.407-2.5 1.059V16H4V5h9v11zm3.5 4c-.827 0-1.5-.673-1.5-1.5s.673-1.5 1.5-1.5 1.5.673 1.5 1.5-.673 1.5-1.5 1.5zm2.441-4a3.486 3.486 0 0 0-2.441-1c-.539 0-1.044.133-1.5.352V13h5v3h-1.059z"/></svg>