<?xml version="1.0" encoding="utf-8"?>
<!-- Generator: Adobe Illustrator 16.0.0, SVG Export Plug-In . SVG Version: 6.00 Build 0)  -->
<!DOCTYPE svg PUBLIC "-//W3C//DTD SVG 1.1//EN" "http://www.w3.org/Graphics/SVG/1.1/DTD/svg11.dtd">
<svg version="1.1" id="Layer_1" xmlns="http://www.w3.org/2000/svg" xmlns:xlink="http://www.w3.org/1999/xlink" x="0px" y="0px"
	 width="24px" height="24px" viewBox="0 0 24 24" enable-background="new 0 0 24 24" xml:space="preserve">
<g>
	<path d="M19.929,6.629C19.776,6.249,19.409,6,19,6h-4V4c0-0.553-0.447-1-1-1H3C2.447,3,2,3.447,2,4v13c0,0.553,0.447,1,1,1h1
		c0,1.654,1.346,3,3,3s3-1.346,3-3h4c0,1.654,1.346,3,3,3s3-1.346,3-3h1c0.553,0,1-0.447,1-1v-5c0-0.127-0.024-0.253-0.071-0.371
		L19.929,6.629z M7,19c-0.552,0-1-0.448-1-1c0-0.173,0.047-0.349,0.133-0.495c0.363-0.624,1.334-0.63,1.715-0.024
		c0.006,0.01,0.014,0.016,0.02,0.025C7.953,17.651,8,17.827,8,18C8,18.552,7.552,19,7,19z M13,16H9.235
		c-0.024-0.027-0.055-0.046-0.079-0.072c-0.055-0.057-0.114-0.104-0.173-0.157c-0.121-0.108-0.247-0.207-0.384-0.294
		c-0.07-0.045-0.142-0.088-0.217-0.127c-0.145-0.075-0.295-0.135-0.451-0.187c-0.071-0.023-0.14-0.052-0.214-0.069
		C7.486,15.037,7.247,15,7,15s-0.485,0.037-0.718,0.094c-0.074,0.018-0.143,0.047-0.215,0.07c-0.155,0.051-0.306,0.11-0.45,0.186
		c-0.075,0.039-0.146,0.082-0.218,0.128c-0.135,0.085-0.261,0.184-0.381,0.291c-0.06,0.053-0.12,0.103-0.176,0.16
		C4.818,15.955,4.788,15.974,4.765,16H4V5h9V16z M15,8h3.323l1.2,3H15V8z M17,19c-0.552,0-1-0.448-1-1
		c0-0.173,0.047-0.349,0.133-0.495C16.317,17.188,16.642,17,17,17s0.683,0.188,0.867,0.506C17.953,17.651,18,17.827,18,18
		C18,18.552,17.552,19,17,19z M20,16h-0.788c-0.563-0.627-1.347-1-2.212-1c-0.76,0-1.458,0.29-2,0.782V13h5V16z"/>
</g>
</svg>
