<svg xmlns="http://www.w3.org/2000/svg" width="24" height="24"><path d="M19.929 6.629A1.002 1.002 0 0 0 19 6h-4V4a1 1 0 0 0-1-1H3a1 1 0 0 0-1 1v13a1 1 0 0 0 1 1h1c0 1.654 1.346 3 3 3s3-1.346 3-3h4c0 1.654 1.346 3 3 3s3-1.346 3-3h1a1 1 0 0 0 1-1v-5c0-.127-.024-.253-.071-.371l-2-5zM7 19a1 1 0 0 1-.867-1.495c.363-.624 1.334-.63 1.715-.024.006.01.014.016.02.025A1 1 0 0 1 7 19zm6-3H9.235c-.024-.027-.055-.046-.079-.072-.055-.057-.114-.104-.173-.157a2.958 2.958 0 0 0-.601-.421 3.126 3.126 0 0 0-.451-.187c-.071-.023-.14-.052-.214-.069C7.486 15.037 7.247 15 7 15s-.485.037-.718.094c-.074.018-.143.047-.215.07a2.9 2.9 0 0 0-.45.186 2.886 2.886 0 0 0-.599.419c-.06.053-.12.103-.176.16-.024.026-.054.045-.077.071H4V5h9v11zm2-8h3.323l1.2 3H15V8zm2 11a1 1 0 0 1 0-2c.358 0 .683.188.867.506A1 1 0 0 1 17 19zm3-3h-.788A2.954 2.954 0 0 0 17 15c-.76 0-1.458.29-2 .782V13h5v3z"/></svg>