<svg xmlns="http://www.w3.org/2000/svg" width="24" height="24" viewBox="0 0 24 24"><path d="M6.678,6.084C6.272,6.222,6,6.603,6,7.03V11c0,0.546,0.438,0.991,0.984,1L8,12.016v4.269C8,18.261,9.045,22,13,22h2h0.105 c0.008,0,0.015-0.005,0.023-0.005c0.521-0.032,2.577-0.287,4.574-2.296c0.303-0.305,0.377-0.768,0.186-1.151l-0.994-1.994 c-0.222-0.445-0.738-0.659-1.211-0.502c-0.304,0.101-0.571,0.152-0.794,0.152c-0.809,0-0.886-0.929-0.891-1.205L16,12h2 c0.553,0,1-0.447,1-1V7c0-0.553-0.447-1-1-1h-2V3c0-0.553-0.447-1-1-1h-4h-1C9.69,2,9.401,2.152,9.212,2.396 S8.959,2.968,9.036,3.268C9.085,3.457,9.434,5.146,6.678,6.084z M9,7.716C9.268,7.6,9.506,7.473,9.73,7.343 C9.755,7.329,9.777,7.314,9.801,7.3c0.212-0.126,0.404-0.258,0.579-0.393c0.005-0.004,0.01-0.008,0.015-0.012 c0.555-0.434,0.934-0.903,1.186-1.369c0.024-0.045,0.049-0.09,0.072-0.135c0.039-0.079,0.072-0.158,0.104-0.236 c0.17-0.396,0.271-0.789,0.307-1.155H14v3c0,0.553,0.447,1,1,1h2v2h-2c-0.552,0-1,0.447-1,1l-0.001,3.999 c0,1.288,0.77,3.205,2.89,3.205c0.001,0,0.001,0,0.001,0c0.184,0,0.374-0.015,0.571-0.045l0.302,0.606 c-1.416,1.167-2.664,1.23-2.767,1.234c-0.122,0-0.229-0.013-0.345-0.02c-0.111-0.006-0.229-0.007-0.334-0.019 c-0.096-0.011-0.18-0.032-0.27-0.048c-0.11-0.02-0.226-0.034-0.328-0.06c-0.07-0.018-0.131-0.043-0.198-0.063 c-0.109-0.033-0.223-0.063-0.322-0.104c-0.056-0.021-0.103-0.051-0.155-0.074c-0.101-0.046-0.204-0.09-0.294-0.143 c-0.059-0.033-0.107-0.072-0.162-0.108c-0.075-0.05-0.154-0.097-0.222-0.149c-0.066-0.052-0.122-0.108-0.182-0.163 c-0.046-0.043-0.099-0.083-0.142-0.128c-0.068-0.07-0.127-0.145-0.187-0.218c-0.025-0.032-0.057-0.063-0.081-0.095 c-0.057-0.076-0.104-0.153-0.154-0.231c-0.02-0.032-0.044-0.063-0.063-0.096c-0.054-0.092-0.1-0.184-0.144-0.275 c-0.009-0.019-0.021-0.037-0.028-0.056c-0.045-0.098-0.083-0.194-0.118-0.289c-0.005-0.013-0.011-0.025-0.015-0.037 c-0.035-0.098-0.063-0.191-0.09-0.284c-0.003-0.009-0.006-0.02-0.009-0.028c-0.023-0.085-0.041-0.166-0.059-0.245 c-0.003-0.014-0.008-0.03-0.011-0.044c-0.014-0.07-0.024-0.135-0.034-0.198c-0.003-0.019-0.008-0.04-0.01-0.059 c-0.019-0.126-0.027-0.228-0.033-0.313C11.003,16.38,11,16.317,11,16.284V11c0-0.553-0.447-1-1-1H9V7.716z"/></svg>