<svg xmlns="http://www.w3.org/2000/svg" width="24" height="24" viewBox="0 0 24 24"><path d="M18.895 16.554a.998.998 0 0 0-1.211-.502 2.589 2.589 0 0 1-.794.152c-.809 0-.886-.929-.891-1.205L16 12h2a1 1 0 0 0 1-1V7a1 1 0 0 0-1-1h-2V3a1 1 0 0 0-1-1h-5c-.31 0-.599.152-.788.396s-.253.572-.176.872c.049.189.397 1.879-2.358 2.816A1 1 0 0 0 6 7.03V11a1 1 0 0 0 .984 1L8 12.016v4.269C8 18.261 9.045 22 13 22h2.105c.008 0 .015-.005.023-.005.521-.032 2.577-.287 4.574-2.296a1 1 0 0 0 .186-1.151l-.993-1.994zM14.996 20c-.122 0-.229-.013-.345-.02-.111-.006-.229-.007-.334-.019-.096-.011-.18-.032-.27-.048-.11-.02-.226-.034-.328-.06-.07-.018-.131-.043-.198-.063-.109-.033-.223-.063-.322-.104-.056-.021-.103-.051-.155-.074-.101-.046-.204-.09-.294-.143-.059-.033-.107-.072-.162-.108-.075-.05-.154-.097-.222-.149-.066-.052-.122-.108-.182-.163-.046-.043-.099-.083-.142-.128-.068-.07-.127-.145-.187-.218-.025-.032-.057-.063-.081-.095-.057-.076-.104-.153-.154-.231-.02-.032-.044-.063-.063-.096a3.827 3.827 0 0 1-.144-.275c-.009-.019-.021-.037-.028-.056a3.999 3.999 0 0 1-.118-.289l-.015-.037a4.837 4.837 0 0 1-.09-.284l-.009-.028c-.023-.085-.041-.166-.059-.245l-.011-.044c-.014-.07-.024-.135-.034-.198-.003-.019-.008-.04-.01-.059a3.79 3.79 0 0 1-.033-.313c-.003-.073-.006-.136-.006-.169V11a1 1 0 0 0-1-1H9V7.716c.268-.116.506-.243.73-.373l.071-.043c.212-.126.404-.258.579-.393l.015-.012a4.4 4.4 0 0 0 1.186-1.369l.072-.135c.039-.079.072-.158.104-.236.17-.396.271-.789.307-1.155H14v3a1 1 0 0 0 1 1h2v2h-2a1 1 0 0 0-1 1l-.001 3.999c0 1.288.77 3.205 2.89 3.205h.001c.184 0 .374-.015.571-.045l.302.606c-1.416 1.168-2.664 1.231-2.767 1.235z"/></svg>