<svg xmlns="http://www.w3.org/2000/svg" width="24" height="24" viewBox="0 0 24 24"><path d="M2.455,19.22c1.84,1.198,3.981,1.831,6.192,1.831c7.097,0,11.379-5.682,11.504-11.262l1.735-3.326 c0.207-0.396,0.125-0.882-0.199-1.189c-0.325-0.309-0.816-0.362-1.198-0.133c-0.309,0.184-1.015,0.265-1.581,0.33 c-0.148,0.018-0.294,0.034-0.435,0.053c-0.842-0.709-1.917-1.107-3.023-1.107c-2.491,0-4.534,1.954-4.68,4.411 C8.528,8.438,6.479,7.248,5.026,5.46C4.81,5.193,4.473,5.05,4.129,5.099C3.788,5.14,3.491,5.354,3.345,5.665 c-0.066,0.142-1.613,3.498-0.36,6.795c0.629,1.653,1.829,2.978,3.577,3.949c-0.695,0.837-1.549,1.025-2.681,1.025 c-0.258,0-0.513-0.017-0.764-0.046c-0.453-0.056-0.899,0.216-1.058,0.653C1.901,18.479,2.065,18.967,2.455,19.22z M4.859,11.764 c-0.513-1.338-0.394-2.743-0.171-3.763c1.95,1.762,4.465,2.817,7.118,2.95c0.312,0.016,0.617-0.118,0.818-0.359 c0.201-0.242,0.277-0.564,0.204-0.871c-0.045-0.188-0.067-0.395-0.067-0.612c0-1.484,1.206-2.692,2.688-2.692 c0.74,0,1.456,0.312,1.965,0.854c0.234,0.252,0.581,0.365,0.922,0.298c0.229-0.045,0.495-0.075,0.773-0.107l-0.843,1.615 c-0.074,0.144-0.113,0.302-0.113,0.463c0,3.949-2.949,9.512-9.507,9.512c-0.665,0-1.323-0.069-1.964-0.206 c0.818-0.43,1.594-1.163,2.211-2.397c0.123-0.246,0.14-0.532,0.045-0.791s-0.292-0.467-0.546-0.575 C6.597,14.311,5.408,13.194,4.859,11.764z"/></svg>