<svg xmlns="http://www.w3.org/2000/svg" width="24" height="24"><path d="M2.455 19.22a11.318 11.318 0 0 0 6.192 1.831c7.097 0 11.379-5.682 11.504-11.262l1.735-3.326a1 1 0 0 0-1.397-1.322c-.309.184-1.015.265-1.581.33-.148.018-.294.034-.435.053a4.708 4.708 0 0 0-3.023-1.107 4.696 4.696 0 0 0-4.68 4.411A9.509 9.509 0 0 1 5.026 5.46a.978.978 0 0 0-.897-.361.998.998 0 0 0-.784.566c-.066.142-1.613 3.498-.36 6.795.629 1.653 1.829 2.978 3.577 3.949-.695.837-1.549 1.025-2.681 1.025-.258 0-.513-.017-.764-.046a1 1 0 1 0-.662 1.832zm2.404-7.456c-.513-1.338-.394-2.743-.171-3.763a11.488 11.488 0 0 0 7.118 2.95 1.003 1.003 0 0 0 1.022-1.23 2.645 2.645 0 0 1-.067-.612 2.693 2.693 0 0 1 2.688-2.692c.74 0 1.456.312 1.965.854a.993.993 0 0 0 .922.298c.229-.045.495-.075.773-.107l-.843 1.615a1.011 1.011 0 0 0-.113.463c0 3.949-2.949 9.512-9.507 9.512a9.394 9.394 0 0 1-1.964-.206c.818-.43 1.594-1.163 2.211-2.397a.999.999 0 0 0-.501-1.366c-1.795-.772-2.984-1.889-3.533-3.319z"/></svg>