<?xml version="1.0" encoding="utf-8"?>
<!-- Generator: Adobe Illustrator 16.0.0, SVG Export Plug-In . SVG Version: 6.00 Build 0)  -->
<!DOCTYPE svg PUBLIC "-//W3C//DTD SVG 1.1//EN" "http://www.w3.org/Graphics/SVG/1.1/DTD/svg11.dtd">
<svg version="1.1" id="Layer_1" xmlns="http://www.w3.org/2000/svg" xmlns:xlink="http://www.w3.org/1999/xlink" x="0px" y="0px"
	 width="24px" height="24px" viewBox="0 0 24 24" enable-background="new 0 0 24 24" xml:space="preserve">
<g>
	<path d="M12.781,2.375C12.4,1.9,11.6,1.9,11.219,2.375l-8,10c-0.24,0.301-0.286,0.712-0.12,1.059C3.266,13.779,3.615,14,4,14h4v7
		c0,0.553,0.447,1,1,1h6c0.553,0,1-0.447,1-1v-7h4c0.385,0,0.734-0.221,0.901-0.566c0.166-0.347,0.12-0.758-0.12-1.059L12.781,2.375
		z M15,12c-0.553,0-1,0.447-1,1v7h-4v-7c0-0.553-0.447-1-1-1H6.081L12,4.601L17.919,12H15z"/>
</g>
</svg>
