<?xml version="1.0" encoding="utf-8"?>
<!-- Generator: Adobe Illustrator 16.0.0, SVG Export Plug-In . SVG Version: 6.00 Build 0)  -->
<!DOCTYPE svg PUBLIC "-//W3C//DTD SVG 1.1//EN" "http://www.w3.org/Graphics/SVG/1.1/DTD/svg11.dtd">
<svg version="1.1" id="Layer_1" xmlns="http://www.w3.org/2000/svg" xmlns:xlink="http://www.w3.org/1999/xlink" x="0px" y="0px"
	 width="24px" height="24px" viewBox="0 0 24 24" enable-background="new 0 0 24 24" xml:space="preserve">
<g>
	<rect x="14" y="11.004" width="8" height="2"/>
	<rect x="16" y="15.004" width="5.968" height="2"/>
	<rect x="13.928" y="7" width="8" height="2"/>
	<path d="M4,18c0-2.467,1.532-4,4-4s4,1.533,4,4v1h2v-1c0-2.46-1.151-4.343-3.02-5.299C11.613,11.999,12,11.065,12,10
		c0-2.28-1.72-4-4-4s-4,1.72-4,4c0,1.065,0.387,1.999,1.02,2.701C3.151,13.657,2,15.54,2,18v1h2V18z M8,8c1.178,0,2,0.822,2,2
		s-0.822,2-2,2s-2-0.822-2-2S6.822,8,8,8z"/>
</g>
</svg>
