<?xml version="1.0" encoding="utf-8"?>
<!-- Generator: Adobe Illustrator 16.0.0, SVG Export Plug-In . SVG Version: 6.00 Build 0)  -->
<!DOCTYPE svg PUBLIC "-//W3C//DTD SVG 1.1//EN" "http://www.w3.org/Graphics/SVG/1.1/DTD/svg11.dtd">
<svg version="1.1" id="Layer_1" xmlns="http://www.w3.org/2000/svg" xmlns:xlink="http://www.w3.org/1999/xlink" x="0px" y="0px"
	 width="24px" height="24px" viewBox="0 0 24 24" enable-background="new 0 0 24 24" xml:space="preserve">
<g>
	<polygon points="19,8 17,8 17,11 14,11 14,13 17,13 17,16 19,16 19,13 22,13 22,11 19,11 	"/>
	<path d="M4,18.5C4,16.264,5.374,14,8,14s4,2.264,4,4.5V19h2v-0.5c0-2.54-1.212-4.651-3.077-5.729C11.593,12.063,12,11.1,12,10
		c0-2.28-1.72-4-4-4s-4,1.72-4,4c0,1.1,0.407,2.063,1.077,2.771C3.212,13.849,2,15.96,2,18.5V19h2V18.5z M6,10c0-1.178,0.822-2,2-2
		s2,0.822,2,2s-0.822,2-2,2S6,11.178,6,10z"/>
</g>
</svg>
