<?xml version="1.0" encoding="utf-8"?>
<!-- Generator: Adobe Illustrator 16.0.0, SVG Export Plug-In . SVG Version: 6.00 Build 0)  -->
<!DOCTYPE svg PUBLIC "-//W3C//DTD SVG 1.1//EN" "http://www.w3.org/Graphics/SVG/1.1/DTD/svg11.dtd">
<svg version="1.1" id="Layer_1" xmlns="http://www.w3.org/2000/svg" xmlns:xlink="http://www.w3.org/1999/xlink" x="0px" y="0px"
	 width="24px" height="24px" viewBox="0 0 24 24" enable-background="new 0 0 24 24" xml:space="preserve">
<g>
	<path d="M12,2C6.579,2,2,6.579,2,12c0,3.189,1.592,6.078,4,7.924V20h0.102C7.77,21.245,9.813,22,12,22s4.23-0.755,5.898-2H18
		v-0.076c2.408-1.846,4-4.734,4-7.924C22,6.579,17.421,2,12,2z M12,20c-1.428,0-2.779-0.403-3.955-1.091
		C8.266,16.883,9.606,15,12,15s3.734,1.883,3.955,3.909C14.779,19.597,13.428,20,12,20z M10,11c0-1.178,0.822-2,2-2s2,0.822,2,2
		s-0.822,2-2,2S10,12.178,10,11z M17.734,17.508c-0.453-1.635-1.461-2.957-2.811-3.736C15.594,13.063,16,12.1,16,11
		c0-2.28-1.72-4-4-4s-4,1.72-4,4c0,1.1,0.406,2.063,1.076,2.771c-1.35,0.779-2.357,2.102-2.811,3.736C4.873,16.061,4,14.112,4,12
		c0-4.337,3.663-8,8-8s8,3.663,8,8C20,14.112,19.127,16.061,17.734,17.508z"/>
</g>
</svg>
