<?xml version="1.0" encoding="utf-8"?>
<!-- Generator: Adobe Illustrator 16.0.0, SVG Export Plug-In . SVG Version: 6.00 Build 0)  -->
<!DOCTYPE svg PUBLIC "-//W3C//DTD SVG 1.1//EN" "http://www.w3.org/Graphics/SVG/1.1/DTD/svg11.dtd">
<svg version="1.1" id="Layer_1" xmlns="http://www.w3.org/2000/svg" xmlns:xlink="http://www.w3.org/1999/xlink" x="0px" y="0px"
	 width="24px" height="24px" viewBox="0 0 24 24" enable-background="new 0 0 24 24" xml:space="preserve">
<g>
	<path d="M21,22v-2c0-3.714-2.261-6.907-5.478-8.281C16.729,10.709,17.5,9.193,17.5,7.5C17.5,4.468,15.032,2,12,2
		C8.967,2,6.5,4.468,6.5,7.5c0,1.693,0.771,3.209,1.978,4.219C5.261,13.093,3,16.287,3,20v2h2v-2c0-3.859,3.14-7,7-7
		c3.859,0,7,3.141,7,7v2H21z M12,11c-1.93,0-3.5-1.57-3.5-3.5S10.07,4,12,4s3.5,1.57,3.5,3.5S13.93,11,12,11z"/>
</g>
</svg>
