<?xml version="1.0" encoding="utf-8"?>
<!-- Generator: Adobe Illustrator 16.0.0, SVG Export Plug-In . SVG Version: 6.00 Build 0)  -->
<!DOCTYPE svg PUBLIC "-//W3C//DTD SVG 1.1//EN" "http://www.w3.org/Graphics/SVG/1.1/DTD/svg11.dtd">
<svg version="1.1" id="Layer_1" xmlns="http://www.w3.org/2000/svg" xmlns:xlink="http://www.w3.org/1999/xlink" x="0px" y="0px"
	 width="24px" height="24px" viewBox="0 0 24 24" enable-background="new 0 0 24 24" xml:space="preserve">
<g>
	<path d="M3,19.009h13c0.433,0,0.793-0.278,0.932-0.663l3.361,3.361l1.414-1.414l-18-18L2.293,3.707L3.586,5L3.001,5C3,5,3,5,3,5
		C2.735,5,2.48,5.11,2.293,5.297C2.105,5.484,2,5.744,2,6.009v12C2,18.561,2.447,19.009,3,19.009z M4,7l1.588,0.001L15,16.414v0.595
		H4V7z"/>
	<path d="M21.383,6.085c-0.374-0.154-0.805-0.069-1.089,0.216L17,9.589v-3.58c0-0.552-0.447-1-0.999-1L9.833,5.005l2.001,2.001
		L15,7.008v3.164l2.121,2.121L20,9.42v5.752l2,2V7.009C22,6.604,21.757,6.24,21.383,6.085z"/>
</g>
</svg>
