<svg xmlns="http://www.w3.org/2000/svg" width="24" height="24" viewBox="0 0 24 24"><path d="M3 19.009h13c.433 0 .793-.278.932-.663l3.361 3.361 1.414-1.414-18-18L2.293 3.707 3.586 5 3.001 5C3 5 3 5 3 5 2.735 5 2.48 5.11 2.293 5.297 2.105 5.484 2 5.744 2 6.009v12C2 18.561 2.447 19.009 3 19.009zM4 7l1.588.001L15 16.414v.595H4V7zM21.383 6.085c-.374-.154-.805-.069-1.089.216L17 9.589v-3.58c0-.552-.447-1-.999-1L9.833 5.005l2.001 2.001L15 7.008v3.164l2.121 2.121L20 9.42v5.752l2 2V7.009C22 6.604 21.757 6.24 21.383 6.085z"/></svg>