<svg xmlns="http://www.w3.org/2000/svg" width="24" height="24" viewBox="0 0 24 24"><path d="M18.098,3.375c-2.104,0-4.698,1.542-5.75,4.988c-0.114,0.372-0.001,0.776,0.288,1.036c0.291,0.26,0.703,0.33,1.062,0.175 c0.331-0.142,0.665-0.223,0.915-0.223c0.165,0,0.216,0.027,0.216,0.026c0.008,0.016,0.057,0.127,0.024,0.438 c-0.058,0.654-1.103,2.516-1.794,3.31c-0.466-1.125-0.913-3.969-1.12-5.288l-0.072-0.463c-0.483-3.084-2.074-3.731-3.322-3.731 c-0.113,0-0.229,0.006-0.344,0.017c-1.343,0.124-2.917,1.549-4.74,3.2C3.09,7.195,2.715,7.534,2.34,7.864 C1.943,8.213,1.886,8.81,2.209,9.228l0.846,1.093c0.326,0.422,0.928,0.514,1.364,0.207l0.171-0.12 c0.225-0.158,0.488-0.343,0.65-0.448c0.065,0.116,0.158,0.308,0.277,0.618c0.423,1.098,0.765,2.396,1.095,3.652 C7.487,17.558,8.392,21,11.107,21c3.45,0,8.075-5.805,9.953-9.816c1.537-3.282,0.842-5.228,0.29-6.095 C20.657,4,19.472,3.375,18.098,3.375z M19.25,10.336C17.278,14.547,13.094,19,11.107,19c-1.173,0-1.91-2.805-2.561-5.279 c-0.345-1.309-0.7-2.662-1.162-3.862C7.137,9.216,6.622,7.877,5.378,7.877c-0.021,0-0.041,0-0.062,0.001 c1.144-1.026,2.48-2.172,3.07-2.227C8.44,5.646,8.493,5.644,8.544,5.644c0.28,0,1.026,0,1.347,2.043l0.072,0.461 c0.775,4.935,1.321,7.26,2.977,7.26c1.729,0,3.803-4.239,3.903-5.399c0.087-0.82-0.091-1.482-0.526-1.966 c-0.243-0.271-0.665-0.586-1.347-0.669c0.865-1.369,2.097-1.998,3.128-1.998c0.397,0,1.129,0.103,1.565,0.787 C20.227,7.049,20.076,8.57,19.25,10.336z"/></svg>