<svg xmlns="http://www.w3.org/2000/svg" width="24" height="24" viewBox="0 0 24 24"><path d="M18.098 3.375c-2.104 0-4.698 1.542-5.75 4.988a1 1 0 0 0 1.351 1.211c.331-.142.665-.223.915-.223.165 0 .216.027.216.026.008.016.057.127.024.438-.058.654-1.103 2.516-1.794 3.31-.466-1.125-.913-3.969-1.12-5.288l-.073-.463c-.483-3.084-2.073-3.731-3.322-3.731a3.63 3.63 0 0 0-.343.017c-1.343.124-2.917 1.549-4.741 3.2-.371.335-.746.674-1.121 1.004a1 1 0 0 0-.131 1.364l.846 1.093a1 1 0 0 0 1.365.207l.171-.12c.224-.158.487-.343.649-.448.065.116.159.308.278.618.422 1.098.764 2.396 1.094 3.652.875 3.328 1.78 6.77 4.495 6.77 3.45 0 8.075-5.805 9.953-9.816 1.537-3.282.842-5.228.29-6.095-.693-1.089-1.878-1.714-3.252-1.714zm1.152 6.961C17.278 14.547 13.094 19 11.107 19c-1.173 0-1.911-2.805-2.561-5.279-.344-1.309-.7-2.662-1.162-3.862-.247-.643-.762-1.982-2.006-1.982l-.061.001c1.143-1.026 2.48-2.172 3.07-2.227.053-.005.106-.007.156-.007.281 0 1.026 0 1.347 2.043l.073.461c.775 4.935 1.321 7.26 2.977 7.26 1.729 0 3.803-4.239 3.903-5.399.087-.82-.091-1.482-.526-1.966-.243-.271-.665-.586-1.347-.669.865-1.369 2.097-1.998 3.128-1.998.397 0 1.129.103 1.565.787.564.886.413 2.407-.413 4.173z"/></svg>