<?xml version="1.0" encoding="utf-8"?>
<!-- Generator: Adobe Illustrator 16.0.0, SVG Export Plug-In . SVG Version: 6.00 Build 0)  -->
<!DOCTYPE svg PUBLIC "-//W3C//DTD SVG 1.1//EN" "http://www.w3.org/Graphics/SVG/1.1/DTD/svg11.dtd">
<svg version="1.1" id="Layer_1" xmlns="http://www.w3.org/2000/svg" xmlns:xlink="http://www.w3.org/1999/xlink" x="0px" y="0px"
	 width="24px" height="24px" viewBox="0 0 24 24" enable-background="new 0 0 24 24" xml:space="preserve">
<g>
	<path d="M17.5,8c-2.481,0-4.5,2.019-4.5,4.5c0,0.925,0.281,1.784,0.762,2.5h-3.523C10.719,14.284,11,13.425,11,12.5
		C11,10.019,8.981,8,6.5,8S2,10.019,2,12.5S4.019,17,6.5,17c0.171,0,0.334-0.032,0.5-0.051V17h11v-0.051
		c2.244-0.252,4-2.139,4-4.449C22,10.019,19.981,8,17.5,8z M6.5,15C5.121,15,4,13.879,4,12.5S5.121,10,6.5,10S9,11.121,9,12.5
		S7.879,15,6.5,15z M17.5,15c-1.379,0-2.5-1.121-2.5-2.5s1.121-2.5,2.5-2.5s2.5,1.121,2.5,2.5S18.879,15,17.5,15z"/>
</g>
</svg>
