<svg xmlns="http://www.w3.org/2000/svg" width="24" height="24" viewBox="0 0 24 24"><path d="M14 8.172V4a1 1 0 0 0-1.554-.832l-2.069 1.38 1.441 1.441.182.183 2 2zM3 17h3.697l5.748 3.832a1.004 1.004 0 0 0 1.027.05A1 1 0 0 0 14 20v-4.586l2.938 2.938A7.449 7.449 0 0 1 16 19v2a10.3 10.3 0 0 0 2.238-1.348l2.055 2.055 1.414-1.414-18-18-1.414 1.414L5.586 7H3a1 1 0 0 0-1 1v8a1 1 0 0 0 1 1zm1-8h3a1 1 0 0 0 .462-.124L12 13.414v4.718l-4.445-2.964A1.006 1.006 0 0 0 7 15H4V9zm12 1.172l1.991 1.991c.002-.054.009-.109.009-.163 0-1.771-.775-3.9-2-5v3.172zm5.344 5.344A9.648 9.648 0 0 0 21.999 12c0-4.091-2.472-7.453-5.999-9v2c2.387 1.386 3.999 4.047 3.999 7a8.1 8.1 0 0 1-.244 1.927l1.589 1.589z"/></svg>