<?xml version="1.0" encoding="utf-8"?>
<!-- Generator: Adobe Illustrator 16.0.0, SVG Export Plug-In . SVG Version: 6.00 Build 0)  -->
<!DOCTYPE svg PUBLIC "-//W3C//DTD SVG 1.1//EN" "http://www.w3.org/Graphics/SVG/1.1/DTD/svg11.dtd">
<svg version="1.1" id="Layer_1" xmlns="http://www.w3.org/2000/svg" xmlns:xlink="http://www.w3.org/1999/xlink" x="0px" y="0px"
	 width="24px" height="24px" viewBox="0 0 24 24" enable-background="new 0 0 24 24" xml:space="preserve">
<g>
	<path d="M14,9.172V4c0-0.369-0.203-0.708-0.528-0.882c-0.324-0.174-0.72-0.154-1.026,0.05l-2.67,1.779l1.442,1.442L12,5.868v1.304
		L14,9.172z"/>
	<path d="M3,17h3.697l5.748,3.832C12.612,20.943,12.806,21,13,21c0.162,0,0.324-0.039,0.472-0.118C13.797,20.708,14,20.369,14,20
		v-4.586l2.926,2.926C16.632,18.581,16.329,18.809,16,19v2c0.81-0.354,1.547-0.825,2.228-1.358l2.065,2.065l1.414-1.414l-18-18
		L2.293,3.707L5.586,7H3C2.447,7,2,7.447,2,8v8C2,16.553,2.447,17,3,17z M4,9h3c0.163,0,0.318-0.049,0.462-0.124L12,13.414v4.718
		l-4.445-2.964C7.391,15.059,7.197,15,7,15H4V9z"/>
	<path d="M16,11.172l1.904,1.904C17.962,12.711,18,12.348,18,12c0-1.771-0.775-3.9-2-5V11.172z"/>
	<path d="M21.042,16.214c0.613-1.267,0.957-2.689,0.957-4.214c0-4.091-2.472-7.453-5.999-9v2c2.387,1.386,3.999,4.047,3.999,7
		c0,0.939-0.179,1.843-0.479,2.692L21.042,16.214z"/>
</g>
</svg>
