<?xml version="1.0" encoding="utf-8"?>
<!-- Generator: Adobe Illustrator 16.0.0, SVG Export Plug-In . SVG Version: 6.00 Build 0)  -->
<!DOCTYPE svg PUBLIC "-//W3C//DTD SVG 1.1//EN" "http://www.w3.org/Graphics/SVG/1.1/DTD/svg11.dtd">
<svg version="1.1" id="Layer_1" xmlns="http://www.w3.org/2000/svg" xmlns:xlink="http://www.w3.org/1999/xlink" x="0px" y="0px"
	 width="24px" height="24px" viewBox="0 0 24 24" enable-background="new 0 0 24 24" xml:space="preserve">
<g>
	<polygon points="21.292,8.284 19.006,10.574 16.703,8.299 15.297,9.721 17.593,11.99 15.292,14.295 16.708,15.707 19.016,13.396 
		21.297,15.65 22.703,14.229 20.428,11.98 22.708,9.696 	"/>
	<path d="M12.476,3.006L6.728,6.838H3.03c-0.553,0-1,0.447-1,1v8c0,0.553,0.447,1,1,1h3.697l5.748,3.832
		c0.167,0.111,0.36,0.168,0.555,0.168c0.162,0,0.324-0.039,0.472-0.118c0.325-0.174,0.528-0.513,0.528-0.882v-16
		c0-0.369-0.203-0.708-0.528-0.882C13.178,2.782,12.782,2.802,12.476,3.006z M12.03,17.97l-4.445-2.964
		c-0.164-0.109-0.357-0.168-0.555-0.168h-3v-6h3c0.197,0,0.391-0.059,0.555-0.168l4.445-2.964V17.97z"/>
</g>
</svg>
