<?xml version="1.0" encoding="utf-8"?>
<!-- Generator: Adobe Illustrator 16.0.0, SVG Export Plug-In . SVG Version: 6.00 Build 0)  -->
<!DOCTYPE svg PUBLIC "-//W3C//DTD SVG 1.1//EN" "http://www.w3.org/Graphics/SVG/1.1/DTD/svg11.dtd">
<svg version="1.1" id="Layer_1" xmlns="http://www.w3.org/2000/svg" xmlns:xlink="http://www.w3.org/1999/xlink" x="0px" y="0px"
	 width="24px" height="24px" viewBox="0 0 24 24" enable-background="new 0 0 24 24" xml:space="preserve">
<g>
	<path d="M14,8.172V4c0-0.369-0.203-0.708-0.528-0.882c-0.324-0.174-0.72-0.154-1.026,0.05l-2.069,1.38l1.441,1.441L12,6.172
		L14,8.172z"/>
	<path d="M3,17h3.697l5.748,3.832C12.612,20.943,12.806,21,13,21c0.162,0,0.324-0.039,0.472-0.118C13.797,20.708,14,20.369,14,20
		v-4.586l2.938,2.938C16.642,18.591,16.329,18.809,16,19v2c0.811-0.355,1.558-0.813,2.238-1.348l2.055,2.055l1.414-1.414l-18-18
		L2.293,3.707L5.586,7H3C2.447,7,2,7.447,2,8v8C2,16.553,2.447,17,3,17z M4,9h3c0.163,0,0.318-0.049,0.462-0.124L12,13.414v4.718
		l-4.445-2.964C7.391,15.059,7.197,15,7,15H4V9z"/>
	<path d="M16,10.172l1.991,1.991C17.993,12.109,18,12.054,18,12c0-1.771-0.775-3.9-2-5V10.172z"/>
	<path d="M21.344,15.516c0.422-1.083,0.655-2.265,0.655-3.516c0-4.091-2.472-7.453-5.999-9v2c2.387,1.386,3.999,4.047,3.999,7
		c0,0.662-0.092,1.305-0.244,1.927L21.344,15.516z"/>
</g>
</svg>
