<?xml version="1.0" encoding="utf-8"?>
<!-- Generator: Adobe Illustrator 16.0.0, SVG Export Plug-In . SVG Version: 6.00 Build 0)  -->
<!DOCTYPE svg PUBLIC "-//W3C//DTD SVG 1.1//EN" "http://www.w3.org/Graphics/SVG/1.1/DTD/svg11.dtd">
<svg version="1.1" id="Layer_1" xmlns="http://www.w3.org/2000/svg" xmlns:xlink="http://www.w3.org/1999/xlink" x="0px" y="0px"
	 width="24px" height="24px" viewBox="0 0 24 24" enable-background="new 0 0 24 24" xml:space="preserve">
<g>
	<path d="M16,5.084V2h-2v2.265c-0.641-0.165-1.308-0.263-2-0.263c-0.692,0-1.36,0.098-2,0.264V2H8v3.085
		c-2.386,1.386-3.999,3.963-3.999,6.916S5.614,17.531,8,18.917V22h2v-2.264C10.641,19.902,11.309,20,12,20
		c0.691,0,1.359-0.098,2-0.263V22h2v-3.082c2.387-1.386,4-3.964,4-6.917S18.387,6.47,16,5.084z M12,18
		c-3.308,0-5.999-2.691-5.999-5.999S8.692,6.002,12,6.002s6,2.691,6,5.999S15.309,18,12,18z"/>
	<polygon points="13,8 11,8 11,11 11,12 11,13 16,13 16,11 13,11 	"/>
</g>
</svg>
