<?xml version="1.0" encoding="utf-8"?>
<!-- Generator: Adobe Illustrator 16.0.0, SVG Export Plug-In . SVG Version: 6.00 Build 0)  -->
<!DOCTYPE svg PUBLIC "-//W3C//DTD SVG 1.1//EN" "http://www.w3.org/Graphics/SVG/1.1/DTD/svg11.dtd">
<svg version="1.1" id="Layer_1" xmlns="http://www.w3.org/2000/svg" xmlns:xlink="http://www.w3.org/1999/xlink" x="0px" y="0px"
	 width="24px" height="24px" viewBox="0 0 24 24" enable-background="new 0 0 24 24" xml:space="preserve">
<g>
	<path d="M16,6.266V2h-2v3.297c-0.634-0.189-1.305-0.295-2-0.295c-0.695,0-1.366,0.105-2,0.295V2H8v4.267
		c-1.81,1.266-2.999,3.362-2.999,5.734S6.19,16.47,8,17.735V22h2v-3.295C10.634,18.895,11.305,19,12,19c0.695,0,1.366-0.105,2-0.295
		V22h2v-4.264c1.811-1.266,3-3.363,3-5.735S17.811,7.531,16,6.266z M12,17c-2.756,0-4.999-2.242-4.999-4.999S9.244,7.002,12,7.002
		s5,2.242,5,4.999S14.757,17,12,17z"/>
	<polygon points="13,9 11,9 11,12 11.063,12 11.063,13 15,13 15,11 13,11 	"/>
</g>
</svg>
