<svg xmlns="http://www.w3.org/2000/svg" width="24" height="24" viewBox="0 0 24 24"><path d="M16,5.084V2h-2v2.265c-0.641-0.165-1.308-0.263-2-0.263c-0.692,0-1.36,0.098-2,0.264V2H8v3.085 c-2.386,1.386-3.999,3.963-3.999,6.916S5.614,17.531,8,18.917V22h2v-2.264C10.641,19.902,11.309,20,12,20 c0.691,0,1.359-0.098,2-0.263V22h2v-3.082c2.387-1.386,4-3.964,4-6.917S18.387,6.47,16,5.084z M12,18 c-3.308,0-5.999-2.691-5.999-5.999S8.692,6.002,12,6.002s6,2.691,6,5.999S15.309,18,12,18z"/><path d="M13 8L11 8 11 11 11 12 11 13 16 13 16 11 13 11z"/></svg>