<svg xmlns="http://www.w3.org/2000/svg" width="24" height="24" viewBox="0 0 24 24"><path d="M12 2c-4.879 0-9 4.121-9 9 0 1.433.476 2.669.946 3.631l-.923 4.152a1 1 0 0 0 1.194 1.194l4.152-.923c.962.47 2.198.946 3.631.946 4.879 0 9-4.121 9-9s-4.121-9-9-9zm0 16c-.926 0-1.835-.266-3.041-.889a1.012 1.012 0 0 0-.676-.088l-2.966.659.659-2.966a.996.996 0 0 0-.088-.676C5.266 12.835 5 11.926 5 11c0-3.794 3.206-7 7-7s7 3.206 7 7-3.206 7-7 7z"/><path d="M15.768 12.541c-.206-.104-1.221-.603-1.41-.671s-.327-.104-.464.104c-.139.206-.535.671-.654.808-.12.138-.241.155-.447.051-.206-.104-.871-.319-1.66-1.023-.612-.547-1.026-1.223-1.147-1.429-.12-.207-.012-.32.091-.422.094-.092.206-.24.309-.36.105-.12.14-.206.209-.346.068-.137.034-.256-.017-.36-.053-.103-.465-1.119-.637-1.533-.168-.4-.338-.347-.464-.353L9.079 7a.758.758 0 0 0-.55.257c-.188.208-.721.706-.721 1.722s.74 1.998.842 2.136c.104.137 1.455 2.222 3.524 3.115.492.212.877.338 1.177.434.494.157.944.135 1.3.083.396-.06 1.221-.5 1.393-.981.172-.483.172-.895.12-.982-.053-.088-.19-.138-.396-.243z"/></svg>