<svg xmlns="http://www.w3.org/2000/svg" width="24" height="24" viewBox="0 0 24 24"><path d="M12,2C6.579,2,2,6.579,2,12c0,1.436,0.325,2.875,0.942,4.187L2.01,20.813c-0.066,0.328,0.036,0.668,0.273,0.904 c0.189,0.189,0.444,0.293,0.707,0.293c0.065,0,0.132-0.007,0.197-0.02l4.626-0.933C9.125,21.675,10.564,22,12,22 c5.421,0,10-4.579,10-10S17.421,2,12,2z M12,20c-1.236,0-2.478-0.304-3.591-0.879c-0.143-0.073-0.3-0.111-0.459-0.111 c-0.066,0-0.132,0.007-0.197,0.02l-3.485,0.703l0.703-3.485c0.045-0.223,0.013-0.454-0.092-0.656C4.304,14.478,4,13.236,4,12 c0-4.337,3.663-8,8-8s8,3.663,8,8S16.337,20,12,20z"/><path d="M16.521,13.979c-0.247-0.125-1.465-0.724-1.692-0.805c-0.228-0.083-0.393-0.125-0.557,0.125 c-0.166,0.247-0.642,0.805-0.785,0.97c-0.145,0.165-0.289,0.186-0.537,0.061c-0.247-0.124-1.045-0.384-1.992-1.229 c-0.735-0.656-1.232-1.468-1.377-1.715c-0.145-0.248-0.015-0.384,0.108-0.506c0.112-0.11,0.248-0.289,0.371-0.433 c0.126-0.145,0.167-0.248,0.251-0.415c0.082-0.164,0.041-0.308-0.021-0.433c-0.063-0.123-0.558-1.343-0.764-1.84 C9.325,7.278,9.121,7.344,8.97,7.336L8.494,7.328c-0.165,0-0.433,0.061-0.66,0.309C7.608,7.886,6.968,8.484,6.968,9.703 s0.889,2.397,1.011,2.563c0.125,0.165,1.746,2.667,4.229,3.739c0.592,0.255,1.053,0.406,1.413,0.521 c0.593,0.188,1.133,0.162,1.56,0.1c0.476-0.071,1.465-0.6,1.672-1.178c0.206-0.58,0.206-1.074,0.145-1.179 C16.935,14.165,16.77,14.104,16.521,13.979z"/></svg>