<svg xmlns="http://www.w3.org/2000/svg" width="24" height="24"><path d="M12 2C6.579 2 2 6.579 2 12c0 1.436.325 2.875.942 4.187l-.932 4.626a.998.998 0 0 0 1.177 1.177l4.626-.933A9.862 9.862 0 0 0 12 22c5.421 0 10-4.579 10-10S17.421 2 12 2zm0 18a7.862 7.862 0 0 1-3.591-.879 1.009 1.009 0 0 0-.656-.091l-3.485.703.703-3.485a.994.994 0 0 0-.092-.656A7.869 7.869 0 0 1 4 12c0-4.337 3.663-8 8-8s8 3.663 8 8-3.663 8-8 8z"/><path d="M16.521 13.979c-.247-.125-1.465-.724-1.692-.805-.228-.083-.393-.125-.557.125-.166.247-.642.805-.785.97-.145.165-.289.186-.537.061-.247-.124-1.045-.384-1.992-1.229-.735-.656-1.232-1.468-1.377-1.715-.145-.248-.015-.384.108-.506.112-.11.248-.289.371-.433.126-.145.167-.248.251-.415.082-.164.041-.308-.021-.433-.063-.123-.558-1.343-.764-1.84-.201-.481-.405-.415-.556-.423l-.476-.008a.907.907 0 0 0-.66.309c-.226.249-.866.847-.866 2.066s.889 2.397 1.011 2.563c.125.165 1.746 2.667 4.229 3.739.592.255 1.053.406 1.413.521.593.188 1.133.162 1.56.1.476-.071 1.465-.6 1.672-1.178.206-.58.206-1.074.145-1.179-.063-.104-.228-.165-.477-.29z"/></svg>