<svg xmlns="http://www.w3.org/2000/svg" width="24" height="24"><path d="M17.779 4.391c-1.309-.089-3.414-.141-5.776-.141-2.33 0-4.491.052-5.782.141C2.034 4.676 2.019 8.068 2 12.004c.019 3.926.034 7.318 4.222 7.606 1.295.087 3.461.14 5.794.14h.001c2.359 0 4.459-.051 5.763-.14 4.187-.287 4.202-3.679 4.221-7.615-.02-3.927-.035-7.318-4.222-7.604zm-.136 13.223c-1.241.085-3.345.136-5.626.136h-.001c-2.29 0-4.406-.051-5.658-.136-1.86-.128-2.335-.696-2.357-5.61.022-4.923.497-5.492 2.357-5.619 1.247-.084 3.358-.135 5.645-.135 2.285 0 4.394.051 5.64.136 1.86.127 2.335.696 2.357 5.61-.022 4.923-.497 5.491-2.357 5.618z"/><path d="M9.75 15l6-3.005L9.75 9z"/></svg>