<svg xmlns="http://www.w3.org/2000/svg" width="24" height="24" viewBox="0 0 24 24"><path d="M17.8 4.391c-1.307-.089-3.41-.141-5.772-.141-2.331 0-4.494.053-5.786.141-4.187.286-4.202 3.678-4.221 7.614.019 3.926.034 7.317 4.222 7.605 1.295.087 3.461.14 5.794.14h.001c2.359 0 4.459-.051 5.763-.14 4.187-.287 4.202-3.679 4.221-7.615-.02-3.927-.036-7.319-4.222-7.604zm-.137 13.223c-1.241.085-3.345.136-5.626.136h-.001c-2.29 0-4.406-.051-5.658-.136-1.86-.128-2.335-.696-2.357-5.609.022-4.923.497-5.492 2.357-5.618 1.249-.086 3.361-.137 5.649-.137 2.284 0 4.391.051 5.636.137 1.86.126 2.335.694 2.357 5.608-.022 4.924-.497 5.492-2.357 5.619z"/><path d="M9.771 15l6-3.006-6-2.994z"/></svg>