<?xml version="1.0" encoding="utf-8"?>
<!-- Generator: Adobe Illustrator 16.0.0, SVG Export Plug-In . SVG Version: 6.00 Build 0)  -->
<!DOCTYPE svg PUBLIC "-//W3C//DTD SVG 1.1//EN" "http://www.w3.org/Graphics/SVG/1.1/DTD/svg11.dtd">
<svg version="1.1" id="Layer_1" xmlns="http://www.w3.org/2000/svg" xmlns:xlink="http://www.w3.org/1999/xlink" x="0px" y="0px"
	 width="24px" height="24px" viewBox="0 0 24 24" enable-background="new 0 0 24 24" xml:space="preserve">
<g>
	<path d="M17.779,4.391c-1.309-0.089-3.414-0.141-5.776-0.141c-2.33,0-4.491,0.052-5.782,0.141C2.034,4.676,2.019,8.068,2,12.004
		c0.019,3.926,0.034,7.318,4.222,7.606c1.295,0.087,3.461,0.14,5.794,0.14c0.001,0,0.001,0,0.001,0c2.359,0,4.459-0.051,5.763-0.14
		c4.187-0.287,4.202-3.679,4.221-7.615C21.981,8.068,21.966,4.677,17.779,4.391z M17.643,17.614
		c-1.241,0.085-3.345,0.136-5.626,0.136c0,0,0,0-0.001,0c-2.29,0-4.406-0.051-5.658-0.136c-1.86-0.128-2.335-0.696-2.357-5.61
		c0.022-4.923,0.497-5.492,2.357-5.619C7.605,6.301,9.716,6.25,12.003,6.25c2.285,0,4.394,0.051,5.64,0.136
		c1.86,0.127,2.335,0.696,2.357,5.61C19.978,16.919,19.503,17.487,17.643,17.614z"/>
	<polygon points="9.75,15 15.75,11.995 9.75,9 	"/>
</g>
</svg>
