<svg xmlns="http://www.w3.org/2000/svg" width="24" height="24" viewBox="0 0 24 24"><path d="M3.029,12.241c0.09,0.359,0.369,0.64,0.729,0.729l6.997,1.75l-1.717,6.006c-0.122,0.429,0.054,0.887,0.433,1.123 C9.634,21.95,9.817,22,10,22c0.241,0,0.48-0.087,0.669-0.257l10-9c0.274-0.247,0.391-0.626,0.302-0.984 c-0.09-0.359-0.369-0.64-0.729-0.729l-6.997-1.75l1.717-6.006c0.122-0.429-0.054-0.887-0.433-1.123 c-0.378-0.235-0.866-0.193-1.198,0.105l-10,9C3.057,11.504,2.94,11.883,3.029,12.241z M12.083,6.071l-1.045,3.654 c-0.074,0.261-0.04,0.54,0.096,0.774s0.36,0.404,0.624,0.47l6.176,1.545l-6.017,5.414l1.045-3.654 c0.074-0.261,0.04-0.54-0.096-0.774s-0.36-0.404-0.624-0.47l-6.176-1.545L12.083,6.071z"/></svg>