<svg xmlns="http://www.w3.org/2000/svg" width="24" height="24" viewBox="0 0 24 24"><ellipse cx="8.5" cy="12" rx="1.5" ry="2"/><ellipse cx="15.5" cy="12" rx="1.5" ry="2"/><path d="M22,11h-1V7c0-0.553-0.447-1-1-1h-7V4.688c0.305-0.274,0.5-0.668,0.5-1.11c0-0.828-0.672-1.5-1.5-1.5s-1.5,0.672-1.5,1.5 c0,0.442,0.195,0.836,0.5,1.11V6H4C3.447,6,3,6.447,3,7v4H2v4h1v6c0,0.553,0.447,1,1,1h16c0.553,0,1-0.447,1-1v-6h1V11z M19,20H5V8 h14V20z"/><path d="M8,16v2c0,0,6.996-0.003,7.998,0l0.004-2C15.001,15.998,8,16,8,16z"/></svg>