<svg xmlns="http://www.w3.org/2000/svg" width="24" height="24" viewBox="0 0 24 24"><path d="M20 18c.007.001.015.001.02 0 .553 0 1-.447 1-1 0-.18-.047-.349-.131-.495L20 13.838V10c0-3.94-2.942-7.34-6.906-7.915l-1.013-.082c-.054-.004-.107-.004-.161 0L10.857 2.09C8.959 2.363 7.292 3.311 6.074 4.66L3.707 2.293 2.293 3.707l18 18 1.414-1.414L19.414 18H20zM11.08 4.077l.921-.074.868.068C15.794 4.497 18 7.046 18 10v4c0 .107.018.214.052.316L18.612 16h-1.198L7.492 6.078C8.4 5.027 9.653 4.283 11.08 4.077zM6 14v-3.879l-1.81-1.81C4.07 8.858 4 9.422 4 10v3.838l-.948 2.846c-.103.305-.051.641.137.901C3.377 17.846 3.679 18 4 18h4.5c0 1.93 1.57 3.5 3.5 3.5 1.451 0 2.699-.889 3.229-2.15L11.879 16H5.388l.561-1.684C5.982 14.214 6 14.107 6 14zM13.5 18c0 .841-.659 1.5-1.5 1.5s-1.5-.659-1.5-1.5H13.5z"/></svg>