<svg xmlns="http://www.w3.org/2000/svg" width="24" height="24" viewBox="0 0 24 24"><path d="M21,10H8V6c0-1.103,0.897-2,2-2s2,0.897,2,2h2c0-2.206-1.794-4-4-4S6,3.794,6,6v4H3c-0.553,0-1,0.447-1,1v1 c0,0.14,0.026,3.44,2.293,5.707C4.848,18.262,5.465,18.682,6.082,19H6v3h2v-2.283C9.098,19.992,9.932,20,10,20h4 c0.068,0,0.902-0.008,2-0.283V22h2v-3h-0.082c0.617-0.318,1.234-0.738,1.789-1.293C21.974,15.44,22,13.099,22,13v-2 C22,10.447,21.553,10,21,10z M20,12.989c-0.001,0.066-0.056,1.652-1.707,3.304c-1.659,1.659-4.232,1.706-4.295,1.707H10 c-0.025,0-2.605-0.02-4.293-1.707C4.036,14.622,4,12.022,4,12h16V12.989z"/></svg>