<svg xmlns="http://www.w3.org/2000/svg" width="24" height="24" viewBox="0 0 24 24"><path d="M20.76,12.01l1.104-1.908c0.276-0.478,0.112-1.09-0.365-1.366l-1.91-1.104V5.432c0-0.552-0.447-1-1-1h-2.199l-1.103-1.909	c-0.133-0.23-0.352-0.397-0.607-0.466c-0.256-0.07-0.529-0.033-0.759,0.1L12.01,3.26l-1.909-1.104	c-0.478-0.278-1.09-0.113-1.366,0.365l-1.104,1.91H5.432c-0.553,0-1,0.448-1,1v2.199l-1.91,1.104	C2.292,8.868,2.125,9.087,2.057,9.343c-0.068,0.256-0.032,0.529,0.101,0.759l1.104,1.908l-1.104,1.909	c-0.133,0.229-0.169,0.502-0.101,0.759c0.068,0.256,0.235,0.475,0.465,0.607l1.91,1.104v2.199c0,0.552,0.447,1,1,1h2.199l1.104,1.91	c0.133,0.229,0.352,0.397,0.608,0.466c0.085,0.022,0.171,0.034,0.258,0.034c0.174,0,0.347-0.045,0.501-0.134l1.908-1.104l1.91,1.104	c0.229,0.133,0.503,0.168,0.759,0.1s0.475-0.236,0.607-0.466l1.103-1.909h2.199c0.553,0,1-0.448,1-1v-2.199l1.91-1.104	c0.478-0.276,0.642-0.888,0.365-1.366L20.76,12.01z M18.738,12.51l0.893,1.543l-1.544,0.893c-0.309,0.179-0.499,0.509-0.499,0.866	v1.776h-1.776c-0.357,0-0.688,0.19-0.866,0.5l-0.891,1.543l-1.545-0.893c-0.154-0.089-0.327-0.134-0.5-0.134	s-0.346,0.045-0.501,0.134l-1.543,0.893l-0.892-1.543c-0.179-0.309-0.509-0.5-0.866-0.5H6.432v-1.776	c0-0.357-0.19-0.687-0.499-0.866l-1.544-0.893l0.893-1.543c0.18-0.31,0.18-0.691,0-1.001L4.389,9.966l1.544-0.893	c0.309-0.179,0.499-0.509,0.499-0.866V6.432h1.776c0.357,0,0.688-0.19,0.866-0.5l0.892-1.543l1.544,0.892	c0.309,0.179,0.691,0.179,1,0l1.545-0.892l0.891,1.543c0.179,0.31,0.509,0.5,0.866,0.5h1.776v1.776c0,0.357,0.19,0.687,0.499,0.866	l1.544,0.893l-0.893,1.543C18.56,11.819,18.56,12.201,18.738,12.51z"/></svg>