<svg xmlns="http://www.w3.org/2000/svg" width="24" height="24" viewBox="0 0 24 24"><path d="M21,2H5C4.447,2,4,2.447,4,3v4H2v2h2v2H2v2h2v2H2v2h2v4c0,0.553,0.447,1,1,1h16c0.553,0,1-0.447,1-1V3 C22,2.447,21.553,2,21,2z M20,20H6v-3v-2v-2v-2V9V7V4h14V20z"/><path d="M9,18h8c0.553,0,1-0.447,1-1c0-2.467-0.865-4.289-2.346-5.245c0.52-0.61,0.846-1.392,0.846-2.255C16.5,7.57,14.93,6,13,6 S9.5,7.57,9.5,9.5c0,0.863,0.326,1.645,0.846,2.255C8.865,12.711,8,14.533,8,17C8,17.553,8.447,18,9,18z M11.5,9.5 C11.5,8.673,12.173,8,13,8s1.5,0.673,1.5,1.5S13.827,11,13,11S11.5,10.327,11.5,9.5z M13,13c2.101,0,2.747,1.684,2.932,3h-5.863 C10.253,14.684,10.899,13,13,13z"/></svg>