<svg xmlns="http://www.w3.org/2000/svg" width="24" height="24" viewBox="0 0 24 24"><path d="M3 20h12.879l-2-2H4V8.121l-2-2V19C2 19.552 2.448 20 3 20zM21 5h-3.586l-2.707-2.707C14.52 2.105 14.266 2 14 2h-4C9.735 2 9.48 2.105 9.293 2.293L6.586 5H6.414L3.707 2.293 2.293 3.707l18 18 1.414-1.414-.362-.362C21.726 19.79 22 19.43 22 19V6C22 5.448 21.553 5 21 5zM13.919 12.505l-2.424-2.425C11.658 10.034 11.826 10 12 10c1.065 0 2 .935 2 2C14 12.174 13.967 12.342 13.919 12.505zM15.421 14.006C15.779 13.412 16 12.729 16 12c0-2.168-1.832-4-4-4-.729 0-1.412.22-2.007.579L7.914 6.5l2.5-2.5h3.172l2.707 2.707C16.48 6.895 16.734 7 17 7h3v11h-.586L15.421 14.006z"/><path d="M8.014,12.135c0.074,2.062,1.789,3.777,3.851,3.851L8.014,12.135z"/></svg>