<svg xmlns="http://www.w3.org/2000/svg" width="24" height="24" viewBox="0 0 24 24"><path d="M12.001,22.009c2.666,0,5.176-1.043,7.07-2.937c3.899-3.898,3.899-10.243,0-14.144c-1.895-1.895-4.405-2.938-7.07-2.938 c-2.666,0-5.177,1.044-7.072,2.938c-3.899,3.898-3.899,10.243,0,14.142C6.823,20.966,9.335,22.009,12.001,22.009z M12.181,4h-0.359 c0.061-0.001,0.119-0.009,0.18-0.009S12.12,3.999,12.181,4z M6.343,6.344c0.919-0.92,2.021-1.584,3.22-1.969L12,6l2.438-1.625 c1.198,0.385,2.301,1.049,3.22,1.968c0.663,0.663,1.177,1.418,1.558,2.221L18,11l1.858,2.478c-0.235,1.26-0.773,2.473-1.615,3.522 H16l-1.258,2.516c-0.868,0.318-1.791,0.493-2.741,0.493c-0.952,0-1.876-0.175-2.746-0.494L8,17.01H5.765 c-0.846-1.052-1.387-2.269-1.623-3.532L6,11L4.784,8.567C5.165,7.764,5.679,7.008,6.343,6.344z"/><path d="M14 15L15.5 11 12 8.5 8.5 11 10 15z"/></svg>