<svg xmlns="http://www.w3.org/2000/svg" width="24" height="24" viewBox="0 0 24 24"><path d="M5.962 17.674C7 19.331 7 20.567 7 22h2c0-1.521 0-3.244-1.343-5.389L5.962 17.674zM5.768 14.254c-1.641-1.691-2.477-5.947.001-8.509 2.573-2.66 7.985-1.648 9.728-.631 2.691 1.569 4.097 4.308 4.109 4.333l1.789-.895c-.066-.134-1.67-3.288-4.891-5.166C13.997 1.924 7.608.969 4.331 4.354c-3.389 3.503-2.283 8.938.001 11.292.188.193.36.382.524.566l1.494-1.33C6.169 14.679 5.976 14.469 5.768 14.254z"/><path d="M9.34 12.822c-1.03-1.26-1.787-2.317-1.392-3.506.263-.785.813-1.325 1.637-1.604 1.224-.41 2.92-.16 4.04.601l1.123-1.654c-1.648-1.12-3.982-1.457-5.804-.841C7.536 6.294 6.509 7.313 6.052 8.684c-.776 2.328.799 4.254 1.74 5.405.149.183.29.354.409.512C11 18.323 11 20.109 11 22h2c0-2.036 0-4.345-3.201-8.601C9.665 13.221 9.508 13.028 9.34 12.822zM15.131 9.478c1.835 1.764 3.034 4.447 3.889 8.701l1.961-.395c-.939-4.678-2.316-7.685-4.463-9.748L15.131 9.478z"/><path d="M11.556 9.169l-1.115 1.66c.027.019 2.711 1.88 3.801 5.724l1.924-.545C14.867 11.426 11.69 9.259 11.556 9.169zM14.688 18.459C14.898 19.627 15 20.785 15 22h2c0-1.335-.112-2.608-.343-3.895L14.688 18.459z"/></svg>