<svg xmlns="http://www.w3.org/2000/svg" width="24" height="24" viewBox="0 0 24 24"><path d="M21.835,11.449C21.649,11.169,21.336,11,21,11h-1V7c0-0.553-0.447-1-1-1h-7.738L7.935,4.129C7.785,4.044,7.616,4,7.444,4H3 C2.447,4,2,4.447,2,5v14h0.007c0,0.192,0.049,0.385,0.158,0.551C2.351,19.831,2.664,20,3,20h15c0.4,0,0.762-0.238,0.919-0.606l3-7 C22.052,12.085,22.02,11.73,21.835,11.449z M7.183,6l3.327,1.871C10.659,7.956,10.828,8,11,8h7v3H6c-0.4,0-0.762,0.238-0.919,0.606 L4,14.129V6H7.183z M17.341,18H4.517l2.143-5h12.824L17.341,18z"/></svg>