<svg xmlns="http://www.w3.org/2000/svg" width="24" height="24" viewBox="0 0 24 24"><path d="M3 18.5C3 20.43 4.57 22 6.5 22s3.5-1.57 3.5-3.5c0-1.58-1.06-2.903-2.5-3.337v-3.002c.104.087.201.179.313.258 1.18.844 2.617 1.098 3.918 1.098.966 0 1.853-.14 2.506-.281a3.5 3.5 0 0 0 3.264 2.265c1.93 0 3.5-1.57 3.5-3.5s-1.57-3.5-3.5-3.5a3.5 3.5 0 0 0-3.404 2.718c-1.297.321-3.664.616-5.119-.426-.617-.441-1.02-1.137-1.25-2.025A3.501 3.501 0 0 0 10 5.5C10 3.57 8.43 2 6.5 2S3 3.57 3 5.5c0 1.58 1.06 2.903 2.5 3.337v6.326C4.06 15.597 3 16.92 3 18.5zm14.5-8c.827 0 1.5.673 1.5 1.5s-.673 1.5-1.5 1.5S16 12.827 16 12s.673-1.5 1.5-1.5zm-9.5 8c0 .827-.673 1.5-1.5 1.5S5 19.327 5 18.5 5.673 17 6.5 17s1.5.673 1.5 1.5zm-3-13C5 4.673 5.673 4 6.5 4S8 4.673 8 5.5 7.327 7 6.5 7 5 6.327 5 5.5z"/></svg>