<svg xmlns="http://www.w3.org/2000/svg" width="24" height="24" viewBox="0 0 24 24"><path d="M2.984 21h13c.553 0 1-.447 1-1 0-2.99-1.763-5.569-4.3-6.773.925-.861 1.514-2.079 1.514-3.44 0-2.6-2.114-4.715-4.714-4.715S4.771 7.187 4.771 9.786c0 1.361.589 2.579 1.514 3.44-2.537 1.204-4.3 3.783-4.3 6.773C1.984 20.553 2.432 21 2.984 21zM6.771 9.786c0-1.497 1.218-2.715 2.714-2.715s2.714 1.218 2.714 2.715c0 1.496-1.218 2.714-2.714 2.714S6.771 11.282 6.771 9.786zM9.484 14.5c2.691 0 4.938 1.943 5.409 4.5H4.075C4.547 16.443 6.793 14.5 9.484 14.5zM15.5 12.497c-.001.267.104.521.293.71C17.966 15.38 19 17.101 19 21h2c0-3.74-.817-6.008-3.179-8.568.5-.805.768-1.803.754-2.856-.022-1.63-.712-3.199-1.892-4.305l-1.367 1.459c.785.736 1.244 1.783 1.259 2.873.012.888-.271 1.686-.778 2.187C15.607 11.977 15.501 12.231 15.5 12.497z"/></svg>