<svg xmlns="http://www.w3.org/2000/svg" width="24" height="24" viewBox="0 0 24 24"><path d="M17.707,7.293c-0.265-0.265-0.656-0.358-1.013-0.245c-0.356,0.114-0.619,0.418-0.681,0.788	c-0.367,2.205-1.224,3.604-2.45,4.046c0.852-2.293,0.896-4.326,0.129-6.06c-1.271-2.871-4.294-3.749-4.422-3.785	c-0.3-0.082-0.625-0.023-0.874,0.166C8.146,2.392,8,2.687,8,3c0,2.526-1.693,4.278-1.707,4.293C4.107,9.478,3,11.734,3,14	c0,5.526,4.27,8,8.5,8c4.094,0,8.5-2.504,8.5-8C20,13.819,19.974,9.56,17.707,7.293z M13.65,19.718C12.637,19.834,9.641,19.581,8,13	c0,0-1.604,2.682-1.679,4.903C5.518,16.974,5,15.698,5,14c0-1.716,0.911-3.497,2.707-5.293c0.079-0.079,1.663-1.69,2.15-4.226	c0.699,0.414,1.549,1.103,2.014,2.167c0.672,1.536,0.414,3.511-0.766,5.87c-0.135,0.271-0.141,0.587-0.016,0.861	c0.125,0.275,0.367,0.479,0.66,0.554c0.064,0.017,0.411,0.101,0.921,0.101c1.083,0,3.422-0.395,4.691-3.559	C17.985,12.135,18,13.976,18,14C18,17.385,15.953,19.097,13.65,19.718z"/></svg>