<svg xmlns="http://www.w3.org/2000/svg" width="24" height="24" viewBox="0 0 24 24"><path d="M20,3H4C3.447,3,3,3.447,3,4v16c0,0.553,0.447,1,1,1h16c0.553,0,1-0.447,1-1V4C21,3.447,20.553,3,20,3z M19,5v9.764 l-3.105-6.211C15.728,8.22,15.391,8.007,15.018,8c-0.391-0.007-0.717,0.193-0.896,0.521l-3.466,6.354L8.8,12.4 c-0.194-0.26-0.513-0.407-0.827-0.4c-0.325,0.01-0.625,0.175-0.805,0.445L5,15.697V5H19z M8.406,19H5.202l2.846-4.27l1.556,2.074 L8.406,19z M14.962,11.159L18.882,19h-8.197L14.962,11.159z"/><circle cx="8.486" cy="8.487" r="1.513"/></svg>