<svg xmlns="http://www.w3.org/2000/svg" width="24" height="24" viewBox="0 0 24 24"><path d="M8 5H20V7H8zM8 11H20V13H8zM8 17H20V19H8zM6.182 14H3c.036-.323.147-.628.332-.914.185-.285.532-.622 1.04-1.009.311-.238.51-.42.597-.542.086-.124.13-.241.13-.352 0-.12-.043-.223-.129-.308-.086-.084-.194-.127-.324-.127-.135 0-.246.044-.332.131-.086.088-.144.242-.173.464l-1.063-.089c.042-.307.118-.547.229-.72s.268-.305.47-.397C3.979 10.046 4.26 10 4.617 10c.373 0 .663.044.871.132.208.087.37.223.489.403s.179.386.179.61c0 .24-.068.468-.205.687s-.384.458-.744.719c-.213.152-.356.259-.428.32-.072.06-.157.141-.254.238h1.656V14zM4.06 17.185l-1.002-.182c.083-.323.243-.572.48-.744C3.775 16.086 4.11 16 4.544 16c.498 0 .859.094 1.081.282.222.189.333.425.333.71 0 .168-.045.317-.135.453-.091.137-.227.255-.409.356.148.037.261.081.339.129.127.08.225.184.295.313.07.131.105.284.105.464 0 .226-.058.44-.174.648-.117.207-.284.364-.503.477S4.971 20 4.615 20c-.347 0-.621-.04-.822-.124-.2-.083-.365-.203-.495-.363C3.169 19.354 3.07 19.155 3 18.913l1.06-.143c.042.217.106.366.194.449.088.084.199.125.335.125.143 0 .261-.052.355-.157.094-.105.142-.247.142-.422 0-.18-.045-.319-.137-.418C4.858 18.249 4.734 18.2 4.578 18.2c-.083 0-.198.021-.344.064l.055-.769c.06.009.105.013.138.013.139 0 .254-.044.348-.134s.139-.196.139-.319c0-.118-.034-.213-.104-.282-.07-.07-.165-.105-.287-.105-.125 0-.227.038-.305.114C4.141 16.859 4.088 16.993 4.06 17.185zM5.688 4v4H4.615V5.379C4.441 5.515 4.273 5.625 4.111 5.708 3.949 5.793 3.745 5.874 3.5 5.95V5.055c.361-.12.641-.265.841-.433C4.541 4.454 4.697 4.247 4.81 4H5.688z"/></svg>