<svg xmlns="http://www.w3.org/2000/svg" width="24" height="24" viewBox="0 0 24 24"><path d="M20,18.439V8c0-0.363-0.197-0.698-0.515-0.874l-9-5c-0.308-0.172-0.687-0.167-0.992,0.012C9.188,2.317,9,2.646,9,3v8.336	c-0.457-0.218-0.961-0.35-1.5-0.35c-1.934,0-3.507,1.573-3.507,3.507S5.566,18,7.5,18s3.507-1.573,3.507-3.507	c0-0.023-0.007-0.045-0.007-0.067V4.699l7,3.89v6.761C17.543,15.132,17.039,15,16.5,15c-1.934,0-3.507,1.573-3.507,3.507	s1.573,3.507,3.507,3.507s3.507-1.573,3.507-3.507C20.007,18.483,20,18.462,20,18.439z M7.5,16c-0.831,0-1.507-0.676-1.507-1.507	s0.676-1.507,1.507-1.507c0.808,0,1.464,0.641,1.5,1.439V14.5h0.006C9.002,15.328,8.329,16,7.5,16z M16.5,20.014	c-0.831,0-1.507-0.676-1.507-1.507S15.669,17,16.5,17c0.808,0,1.464,0.641,1.5,1.439V18.5h0.006c0,0.002,0.001,0.005,0.001,0.007	C18.007,19.338,17.331,20.014,16.5,20.014z"/></svg>