<svg xmlns="http://www.w3.org/2000/svg" width="24" height="24" viewBox="0 0 24 24"><path d="M22,14c0-0.12-0.021-0.239-0.063-0.352l-3-8C18.79,5.259,18.417,5,18,5h-2v2h1.307l1.38,3.679 C18.306,10.574,17.913,10.5,17.5,10.5c-2.137,0-3.922,1.5-4.379,3.5h-2.242c-0.457-2-2.242-3.5-4.379-3.5 c-0.413,0-0.806,0.074-1.187,0.179L6.693,7H8V5H6C5.583,5,5.21,5.259,5.063,5.648l-3,8C2.021,13.761,2,13.88,2,14v0.938h0.006 C2.006,14.959,2,14.979,2,15c0,2.481,2.019,4.5,4.5,4.5c2.137,0,3.922-1.5,4.379-3.5h2.242c0.457,2,2.242,3.5,4.379,3.5 c2.481,0,4.5-2.019,4.5-4.5c0-0.021-0.006-0.041-0.006-0.063H22V14z M6.5,17.5C5.121,17.5,4,16.379,4,15s1.121-2.5,2.5-2.5 S9,13.621,9,15S7.879,17.5,6.5,17.5z M17.5,17.5c-1.379,0-2.5-1.121-2.5-2.5s1.121-2.5,2.5-2.5S20,13.621,20,15 S18.879,17.5,17.5,17.5z"/></svg>