<svg xmlns="http://www.w3.org/2000/svg" width="24" height="24" viewBox="0 0 24 24"><path d="M12,2C5.505,2,2,6.637,2,11c0,2.128,1.009,3.979,3,5.507V20c0,0.553,0.448,1,1,1h12c0.553,0,1-0.447,1-1v-3.493 c1.991-1.528,3-3.379,3-5.507C22,6.637,18.495,2,12,2z M17.428,15.18C17.16,15.367,17,15.673,17,16v3h-2v-3h-2v3h-2v-3H9v3H7v-3 c0-0.327-0.16-0.633-0.428-0.82C4.865,13.989,4,12.583,4,11c0-3.479,2.748-7,8-7s8,3.521,8,7 C20,12.583,19.135,13.989,17.428,15.18z"/><path d="M8 8c-1.122 0-2 1.098-2 2.5S6.878 13 8 13s2-1.098 2-2.5S9.122 8 8 8zM16 8c-1.121 0-2 1.098-2 2.5s.879 2.5 2 2.5 2-1.098 2-2.5S17.121 8 16 8z"/></svg>