<svg xmlns="http://www.w3.org/2000/svg" width="24" height="24" viewBox="0 0 24 24"><path d="M17.996 13c-1.415 0-2.162.747-2.709 1.292C14.796 14.783 14.556 15 13.991 15c-.562 0-.802-.217-1.292-.707C12.154 13.747 11.407 13 9.993 13s-2.161.747-2.706 1.293C6.797 14.783 6.557 15 5.996 15s-.801-.217-1.291-.707C4.16 13.747 3.413 13 2 13v2c.561 0 .801.217 1.291.707C3.836 16.253 4.583 17 5.996 17s2.16-.747 2.705-1.293C9.191 15.217 9.432 15 9.993 15s.802.217 1.292.707C11.83 16.253 12.577 17 13.991 17c1.415 0 2.163-.747 2.71-1.293C17.192 15.217 17.433 15 17.996 15s.804.217 1.295.707C19.837 16.253 20.585 17 22 17v-2c-.563 0-.804-.217-1.295-.707C20.159 13.747 19.411 13 17.996 13zM17.996 18c-1.415 0-2.162.747-2.709 1.292C14.796 19.783 14.556 20 13.991 20c-.562 0-.802-.217-1.292-.707C12.154 18.747 11.407 18 9.993 18s-2.161.747-2.706 1.293C6.797 19.783 6.557 20 5.996 20s-.801-.217-1.291-.707C4.16 18.747 3.413 18 2 18v2c.561 0 .801.217 1.291.707C3.836 21.253 4.583 22 5.996 22s2.16-.747 2.705-1.293C9.191 20.217 9.432 20 9.993 20s.802.217 1.292.707C11.83 21.253 12.577 22 13.991 22c1.415 0 2.163-.747 2.71-1.293C17.192 20.217 17.433 20 17.996 20s.804.217 1.295.707C19.837 21.253 20.585 22 22 22v-2c-.563 0-.804-.217-1.295-.707C20.159 18.747 19.411 18 17.996 18zM8.625 11.781l4.856-3.886 3.812 3.812 1.414-1.414-7-7C11.52 3.105 11.266 3 11 3H7v2h3.586l1.473 1.473-4.684 3.746L8.625 11.781z"/><circle cx="16.998" cy="4.002" r="2.002"/></svg>