<svg xmlns="http://www.w3.org/2000/svg" width="24" height="24" viewBox="0 0 24 24"><path d="M13.472 3.118c-.324-.174-.72-.154-1.026.05L7.727 6.313l-4.02-4.02L2.293 3.707l18 18 1.414-1.414-2.02-2.02c1.441-1.686 2.312-3.85 2.312-6.273 0-4.091-2.472-7.453-5.999-9v2c2.387 1.386 3.999 4.047 3.999 7 0 1.832-.63 3.543-1.671 4.914l-1.286-1.286C17.644 14.536 18 13.19 18 12c0-1.771-.775-3.9-2-5v7.586l-2-2V4C14 3.631 13.797 3.292 13.472 3.118zM12 5.868v4.718L9.169 7.755 12 5.868zM3 17h3.697l5.748 3.832C12.612 20.943 12.806 21 13 21c.162 0 .324-.039.472-.118C13.797 20.708 14 20.369 14 20v-1.879l-2-2v2.011l-4.445-2.964C7.391 15.059 7.197 15 7 15H4V9h.879L2.899 7.021C2.396 7.073 2 7.483 2 8v8C2 16.553 2.447 17 3 17z"/></svg>