<svg xmlns="http://www.w3.org/2000/svg" width="24" height="24" viewBox="0 0 24 24"><path fill="#12100E" d="M3,3v18h18V3H3z M17.954,7.265L16.988,8.19c-0.083,0.063-0.124,0.167-0.106,0.271v6.801	c-0.018,0.103,0.023,0.208,0.106,0.271l0.942,0.926v0.204h-4.741v-0.204l0.977-0.948c0.097-0.096,0.097-0.125,0.097-0.271V9.742	l-2.716,6.896h-0.368L8.018,9.742v4.622c-0.025,0.194,0.039,0.39,0.176,0.531l1.271,1.541v0.203H5.861v-0.203l1.271-1.541	c0.136-0.141,0.196-0.338,0.164-0.531V9.02c0.015-0.148-0.041-0.295-0.152-0.395l-1.13-1.36V7.062H9.52l2.71,5.943l2.382-5.943	h3.343V7.265z"/></svg>