<svg xmlns="http://www.w3.org/2000/svg" width="24" height="24" viewBox="0 0 24 24"><path d="M18.75,21H5.25C4.008,21,3,19.992,3,18.75V5.25C3,4.008,4.008,3,5.25,3h13.5C19.992,3,21,4.008,21,5.25v13.5	C21,19.992,19.992,21,18.75,21z M9.912,16.572c4.243,0,6.566-3.52,6.566-6.565c0-0.1,0-0.198-0.006-0.297	c0.45-0.324,0.842-0.733,1.152-1.197c-0.414,0.185-0.859,0.306-1.327,0.365c0.477-0.284,0.841-0.738,1.017-1.279	c-0.445,0.266-0.94,0.455-1.467,0.559c-0.424-0.45-1.021-0.729-1.683-0.729c-1.273,0-2.31,1.035-2.31,2.309	c0,0.18,0.023,0.355,0.06,0.526c-1.917-0.094-3.619-1.017-4.757-2.412C6.959,8.193,6.848,8.589,6.848,9.012	c0,0.801,0.41,1.507,1.025,1.921c-0.377-0.014-0.733-0.117-1.044-0.288c0,0.009,0,0.018,0,0.032c0,1.116,0.797,2.052,1.851,2.263	c-0.194,0.054-0.396,0.081-0.608,0.081c-0.148,0-0.292-0.013-0.432-0.041c0.293,0.918,1.147,1.584,2.155,1.602	c-0.792,0.621-1.787,0.99-2.866,0.99c-0.185,0-0.369-0.009-0.55-0.031C7.396,16.189,8.611,16.572,9.912,16.572"/></svg>