<svg xmlns="http://www.w3.org/2000/svg" width="24" height="24" viewBox="0 0 24 24"><path d="M21.515,5.143l-5-3c-0.259-0.155-0.574-0.182-0.857-0.08c-0.283,0.103-0.506,0.331-0.604,0.615C15.021,2.773,14.224,5,12,5 S8.979,2.773,8.948,2.684C8.853,2.396,8.632,2.167,8.347,2.062C8.063,1.957,7.746,1.987,7.485,2.143l-5,3C2.185,5.323,2,5.649,2,6 v4c0,0.347,0.18,0.668,0.475,0.851c0.294,0.181,0.662,0.198,0.973,0.044L6,9.618V21c0,0.552,0.447,1,1,1h10c0.553,0,1-0.448,1-1 V9.618l2.553,1.276c0.311,0.154,0.679,0.138,0.973-0.044C21.82,10.668,22,10.347,22,10V6C22,5.649,21.815,5.323,21.515,5.143z"/></svg>