<svg xmlns="http://www.w3.org/2000/svg" width="24" height="24" viewBox="0 0 24 24"><path d="M21.222 3.811c-.661-.744-1.584-1.089-2.575-.983C17.815 2.919 16.96 3.33 16.098 4.02c-1.243-.64-2.634-1-4.097-1-1.618 0-3.215.443-4.615 1.282C5.319 5.536 3.861 7.495 3.277 9.817c-.449 1.788-.333 3.63.306 5.325-1.065 1.203-2.054 3.677-.823 5.063.517.581 1.257.841 2.147.841 2.707 0 6.808-2.398 10.258-5.464C19.752 11.509 23.306 6.158 21.222 3.811zM18.864 4.815c.358-.034.632.064.861.323.231.261.169.946-.252 1.929-.461-.701-1.005-1.319-1.617-1.853C18.287 4.952 18.632 4.841 18.864 4.815zM4.256 18.877c-.217-.244.002-1.07.377-1.759.453.655.979 1.236 1.568 1.737C5.176 19.158 4.487 19.139 4.256 18.877zM16.165 16.582c-1.934 1.719-4.066 3.208-6.05 4.202.609.128 1.232.212 1.874.212 1.619 0 3.216-.443 4.616-1.282 2.065-1.234 3.524-3.192 4.107-5.515.246-.978.314-1.972.23-2.95C19.729 13.046 18.037 14.92 16.165 16.582z"/></svg>