<svg xmlns="http://www.w3.org/2000/svg" width="24" height="24" viewBox="0 0 24 24"><path d="M22,11h-1V7c0-0.553-0.447-1-1-1h-7V4.688c0.305-0.274,0.5-0.668,0.5-1.11c0-0.828-0.672-1.5-1.5-1.5s-1.5,0.672-1.5,1.5	c0,0.442,0.195,0.836,0.5,1.11V6H4C3.447,6,3,6.447,3,7v4H2v4h1v6c0,0.553,0.447,1,1,1h16c0.553,0,1-0.447,1-1v-6h1V11z M7,12	c0-1.104,0.672-2,1.5-2s1.5,0.896,1.5,2s-0.672,2-1.5,2S7,13.104,7,12z M15.998,18C14.997,17.997,8.001,18,8,18v-2	c0,0,7.001-0.002,8.002,0L15.998,18z M15.5,14c-0.828,0-1.5-0.896-1.5-2s0.672-2,1.5-2s1.5,0.896,1.5,2S16.328,14,15.5,14z"/></svg>