<svg xmlns="http://www.w3.org/2000/svg" width="24" height="24" viewBox="0 0 24 24"><path d="M21 4h-7c-.553 0-1 .447-1 1l.003 7.919c-.009.111-.199 2.741 1.688 4.789C16.094 19.229 18.217 20 21 20c.553 0 1-.447 1-1v-1c0-.477-.337-.887-.804-.98-1.37-.274-2.323-.813-2.833-1.604-.313-.486-.416-1.006-.438-1.415H21c.553 0 1-.447 1-1V5C22 4.447 21.553 4 21 4zM10 4H3C2.447 4 2 4.447 2 5l.003 7.919c-.009.111-.199 2.741 1.688 4.789C5.094 19.229 7.217 20 10 20c.553 0 1-.447 1-1v-1c0-.477-.337-.887-.804-.98-1.37-.274-2.323-.813-2.833-1.604C7.05 14.929 6.947 14.409 6.925 14H10c.553 0 1-.447 1-1V5C11 4.447 10.553 4 10 4z"/></svg>