<svg xmlns="http://www.w3.org/2000/svg" width="24" height="24" viewBox="0 0 24 24"><path d="M21.647 3.08c-.089-.358-.369-.638-.728-.728-.063-.016-1.556-.383-3.424-.383-2.585 0-4.663.712-6.011 2.061C9.997 5.518 8.857 6.681 8.31 7.242 7.095 7.104 4.233 7.039 2.293 8.979 2.105 9.167 2 9.421 2 9.687s.105.52.293.707l11.313 11.313C13.794 21.895 14.048 22 14.313 22s.52-.105.707-.293c1.954-1.953 1.894-4.814 1.767-6.01l3.184-3.183C23.162 9.323 21.711 3.333 21.647 3.08zM17.142 9.687c-.781.781-2.046.781-2.828 0-.781-.782-.781-2.047 0-2.828.782-.782 2.047-.782 2.828 0C17.924 7.64 17.924 8.904 17.142 9.687zM5 15.969c-2 1-2 5-2 5s3 0 5-2L5 15.969z"/></svg>