<svg xmlns="http://www.w3.org/2000/svg" width="24" height="24" viewBox="0 0 24 24"><path d="M12 12.957v-2.895V3c0-.552-.447-1-1-1H7C6.447 2 6 2.448 6 3v7.063 2.895C4.737 13.885 4 15.355 4 17c0 .012.004.022.004.035C4.003 17.043 4 17.054 4 17.063c0 .076.002.188.041.341.197 2.426 2.118 4.35 4.542 4.555C8.717 22.021 8.856 22.063 9 22.063c.147 0 .29-.041.425-.105 2.472-.213 4.424-2.212 4.55-4.707.009-.047.012-.092.015-.14C13.989 17.073 14 17.038 14 17 14 15.355 13.263 13.885 12 12.957zM10 4v5H8V4H10zM14 3H20V5H14zM14 7H18V9H14zM14 11H16V13H14z"/></svg>