<svg xmlns="http://www.w3.org/2000/svg" width="24" height="24" viewBox="0 0 24 24"><path d="M19.071,4.929c-1.895-1.895-4.405-2.938-7.07-2.938c-2.666,0-5.178,1.044-7.072,2.938c-3.899,3.898-3.899,10.243,0,14.142	c1.895,1.895,4.406,2.938,7.072,2.938s5.177-1.043,7.07-2.937C22.971,15.174,22.971,8.829,19.071,4.929z M11,4h2v2h-2V4z M11.999,8.991c0.211,0,0.411,0.042,0.603,0.103l3.979-3.587l1.34,1.486l-3.972,3.581c0.027,0.131,0.043,0.268,0.043,0.407	c0,1.101-0.893,1.993-1.992,1.993c-1.099,0-1.991-0.893-1.991-1.993C10.008,9.884,10.9,8.991,11.999,8.991z M6.957,5.543l1.5,1.499	L7.043,8.456l-1.5-1.499L6.957,5.543z M4,13v-2h2v2H4z M12,20c-5,0-7-4-7-4h14C19,16,17,20,12,20z M18,13v-2h2v2H18z"/></svg>