<svg xmlns="http://www.w3.org/2000/svg" width="24" height="24" viewBox="0 0 24 24"><path d="M22,16.011v-2h-2.309c0.065-0.493,0.108-0.996,0.108-1.511c0-0.512-0.043-1.01-0.106-1.5h2.246V9h-2.695	c-0.387-1.184-0.961-2.253-1.682-3.148l2.145-2.145l-1.414-1.414L16.13,4.456C14.931,3.539,13.518,3,12,3S9.069,3.539,7.87,4.456	L5.707,2.293L4.293,3.707l2.145,2.145C5.717,6.747,5.143,7.816,4.756,9H2v2h2.307C4.243,11.49,4.2,11.988,4.2,12.5	c0,0.515,0.043,1.018,0.108,1.511H2v2h2.759c0.228,0.693,0.52,1.346,0.868,1.948l-2.334,2.334l1.414,1.414l2.118-2.118	C8.204,21.083,10.014,22,12,22s3.796-0.917,5.175-2.411l2.118,2.118l1.414-1.414l-2.334-2.334c0.349-0.602,0.641-1.255,0.868-1.948	H22z M6.317,11c0.111-0.708,0.303-1.379,0.557-2h10.252c0.254,0.621,0.445,1.292,0.557,2H6.317z M11,19.88V13h2v6.88	C12.675,19.954,12.342,20,12,20S11.325,19.954,11,19.88z"/></svg>