<svg xmlns="http://www.w3.org/2000/svg" width="24" height="24" viewBox="0 0 24 24"><path d="M12,2C6.486,2,2,6.486,2,12s4.486,10,10,10s10-4.486,10-10S17.514,2,12,2z M13,16.932V18h-2v-1.096	c-1.572-0.275-2.59-1.094-2.64-1.136l1.279-1.537C9.644,14.234,10.609,15,12,15c0.912,0,1.999-0.174,1.999-1c0-0.398,0-1-1.999-1	c-3.306,0-3.999-1.632-3.999-3c0-1.272,0.811-2.62,2.999-2.932V6.012h2v1.084c1.572,0.275,2.59,1.094,2.64,1.136l-1.273,1.542	C14.356,9.766,13.391,9,12,9c-0.912,0-1.999,0.174-1.999,1c0,0.422,0,1,1.999,1c3.306,0,3.999,1.632,3.999,3	C15.999,15.272,15.188,16.62,13,16.932z"/></svg>