<svg xmlns="http://www.w3.org/2000/svg" width="24" height="24" viewBox="0 0 24 24"><path d="M19,7v1v8v1v1h2c0.553,0,1-0.447,1-1V7c0-0.553-0.447-1-1-1h-2V7z"/><path d="M3,18h12c0,0.094-0.048,2-3,2v2c2.003,0,3.257-0.673,4.01-1.517c0.049,0.055,0.089,0.111,0.143,0.165 C17.047,21.546,18.342,22,20,22v-2c-2.803,0-2.991-1.676-3-1.998l0,0c0-0.001,0-0.001,0-0.002V6.024C17.013,5.686,17.22,4,20,4V2 c-1.986,0-3.238,0.67-3.993,1.511C15.255,2.67,14,2,12,2v2c2.8,0,2.99,1.678,3,2H3C2.447,6,2,6.447,2,7v1v1v6v2 C2,17.553,2.447,18,3,18z M6,10h9v4H6V10z"/></svg>