<svg xmlns="http://www.w3.org/2000/svg" width="24" height="24" viewBox="0 0 24 24"><path d="M11.587 6.999H7.001c-.421 0-.796.263-.939.658l-4 11c-.133.365-.042.774.232 1.049l.293.293 6.422-6.422c-.001-.026-.008-.052-.008-.078 0-.828.672-1.5 1.5-1.5s1.5.672 1.5 1.5-.672 1.5-1.5 1.5c-.026 0-.052-.007-.078-.008l-6.422 6.422.293.293c.19.191.446.293.707.293.114 0 .23-.02.342-.061l11-4c.396-.144.658-.519.658-.939v-4.586L19 10.414 13.586 5 11.587 6.999zM17.697 2.291c-.188-.188-.441-.292-.706-.292-.288.015-.521.105-.708.294l-1.285 1.291 5.415 5.415 1.296-1.3c.188-.188.292-.442.292-.708 0-.265-.106-.52-.294-.706L17.697 2.291z"/></svg>