<svg xmlns="http://www.w3.org/2000/svg" width="24" height="24" viewBox="0 0 24 24"><path d="M3 17h3.697l5.748 3.832C12.612 20.943 12.806 21 13 21c.162 0 .324-.039.472-.118C13.797 20.708 14 20.369 14 20v-2.042L3.042 7H3C2.447 7 2 7.447 2 8v8C2 16.553 2.447 17 3 17zM13.472 3.118c-.324-.174-.72-.154-1.026.05L7.728 6.313 3.707 2.293 2.293 3.707l18 18 1.414-1.414-2.023-2.023c1.44-1.686 2.315-3.846 2.315-6.27 0-4.091-2.472-7.453-5.999-9v2c2.387 1.386 3.999 4.047 3.999 7 0 1.832-.629 3.543-1.672 4.913l-1.285-1.285C17.644 14.536 18 13.19 18 12c0-1.771-.775-3.9-2-5v7.586l-2-2V4C14 3.631 13.797 3.292 13.472 3.118z"/></svg>