<svg xmlns="http://www.w3.org/2000/svg" width="24" height="24" viewBox="0 0 24 24"><path d="M2,11.5C2,13.43,3.57,15,5.5,15c0.91,0,1.733-0.358,2.357-0.93l6.26,3.577C14.048,17.922,14,18.204,14,18.5 c0,1.93,1.57,3.5,3.5,3.5s3.5-1.57,3.5-3.5S19.43,15,17.5,15c-0.91,0-1.733,0.358-2.357,0.93l-6.26-3.577 c0.063-0.247,0.103-0.502,0.108-0.768l6.151-3.515C15.767,8.642,16.59,9,17.5,9C19.43,9,21,7.43,21,5.5S19.43,2,17.5,2 S14,3.57,14,5.5c0,0.296,0.048,0.578,0.117,0.853L8.433,9.602C7.808,8.64,6.729,8,5.5,8C3.57,8,2,9.57,2,11.5z"/></svg>