<svg xmlns="http://www.w3.org/2000/svg" width="24" height="24" viewBox="0 0 24 24"><path d="M18 13.764V11c0-2.956-2.206-5.506-5.195-5.938l-.725-.059c-.053-.004-.106-.004-.16 0l-.778.063C8.211 5.489 6 8.04 6 11v2.764l-.895 1.789c-.155.31-.138.678.044.973S5.653 17 6 17h12c.008.001.015.001.02 0 .553 0 1-.447 1-1 0-.229-.076-.439-.205-.607L18 13.764zM12 20c1.104 0 2-.896 2-2h-4C10 19.104 10.896 20 12 20zM5.295 3.29C2 6.563 2 8.935 2 12h1l1-.063C4 9.009 4 7.396 6.705 4.71L5.295 3.29zM18.704 3.29l-1.408 1.42C20 7.396 20 9.009 20 12l2-.063C22 8.935 22 6.563 18.704 3.29z"/></svg>