<svg xmlns="http://www.w3.org/2000/svg" width="24" height="24" viewBox="0 0 24 24"><path d="M19.964,21.237c0.01-0.037,0.022-0.072,0.027-0.11c0.006-0.043,0.002-0.086,0.002-0.13c0-0.036,0.005-0.071,0-0.107 c-0.006-0.055-0.022-0.108-0.037-0.162c-0.007-0.022-0.008-0.047-0.017-0.069l-0.002-0.005c0-0.001,0-0.003-0.001-0.005 l-0.021-0.055L16,9.824V4h1V2h-2H9H7v2h1v5.824l-3.916,10.77l-0.021,0.055c-0.001,0.002-0.001,0.004-0.001,0.005l-0.002,0.005 c-0.008,0.022-0.01,0.045-0.016,0.067c-0.016,0.055-0.032,0.108-0.038,0.164c-0.004,0.034,0,0.068,0,0.103 c0,0.046-0.004,0.091,0.002,0.135c0.004,0.037,0.018,0.071,0.026,0.106c0.01,0.042,0.016,0.085,0.031,0.125 c0.014,0.033,0.034,0.063,0.05,0.095c0.021,0.039,0.036,0.08,0.062,0.116c0.001,0.001,0.002,0.002,0.002,0.002 c0,0.001,0.001,0.001,0.001,0.002c0.024,0.035,0.056,0.063,0.084,0.093c0.025,0.028,0.048,0.061,0.076,0.085 c0.041,0.036,0.088,0.064,0.135,0.093c0.021,0.014,0.039,0.031,0.062,0.042c0.054,0.028,0.112,0.047,0.171,0.065 c0.018,0.005,0.034,0.015,0.052,0.02C4.838,21.99,4.918,22,5,22h14c0.082,0,0.162-0.01,0.24-0.029 c0.018-0.005,0.034-0.015,0.052-0.02c0.059-0.019,0.117-0.037,0.171-0.065c0.022-0.011,0.041-0.028,0.062-0.042 c0.047-0.028,0.094-0.057,0.135-0.093c0.028-0.024,0.051-0.057,0.076-0.085c0.028-0.03,0.06-0.058,0.084-0.093 c0-0.001,0.001-0.001,0.001-0.002c0,0,0.001-0.001,0.002-0.002c0.024-0.035,0.039-0.074,0.059-0.111 c0.018-0.033,0.039-0.065,0.053-0.1C19.948,21.319,19.954,21.277,19.964,21.237z M14,4v6c0,0.116,0.021,0.232,0.061,0.342 L14.663,12H9.337l0.603-1.658C9.979,10.232,10,10.116,10,10V4H14z"/></svg>