<svg xmlns="http://www.w3.org/2000/svg" width="24" height="24" viewBox="0 0 24 24"><path d="M2.244,14.512c-0.068,0.256-0.032,0.529,0.1,0.759l2,3.46c0.276,0.477,0.889,0.641,1.366,0.366l1.396-0.806 c0.58,0.457,1.221,0.832,1.895,1.112V21c0,0.552,0.447,1,1,1h4c0.553,0,1-0.448,1-1v-1.598c0.674-0.28,1.314-0.655,1.895-1.112 l1.396,0.806c0.476,0.275,1.089,0.111,1.366-0.366l2-3.46c0.132-0.229,0.168-0.502,0.1-0.759s-0.236-0.475-0.466-0.607 l-1.371-0.792C19.973,12.743,20,12.371,20,12s-0.027-0.743-0.081-1.112l1.371-0.792c0.229-0.132,0.397-0.351,0.466-0.607 s0.032-0.529-0.1-0.759l-2-3.46c-0.277-0.478-0.891-0.642-1.366-0.366l-1.396,0.806C16.314,5.253,15.674,4.877,15,4.598V3 c0-0.552-0.447-1-1-1h-4C9.447,2,9,2.448,9,3v1.598c-0.674,0.28-1.314,0.655-1.895,1.112L5.71,4.904 C5.232,4.627,4.62,4.792,4.344,5.27l-2,3.46c-0.132,0.229-0.168,0.502-0.1,0.759S2.48,9.963,2.71,10.096l1.371,0.792 C4.027,11.257,4,11.629,4,12s0.027,0.743,0.081,1.112L2.71,13.904C2.48,14.037,2.313,14.255,2.244,14.512z M12,8 c2.206,0,4,1.794,4,4s-1.794,4-4,4s-4-1.794-4-4S9.794,8,12,8z"/></svg>