<svg xmlns="http://www.w3.org/2000/svg" width="24" height="24" viewBox="0 0 24 24"><path d="M11 5c0-.552-.447-1-1-1H3C2.447 4 2 4.448 2 5v8c0 .552.447 1 1 1h3.078c-.021.402-.123.912-.429 1.396-.508.801-1.465 1.348-2.846 1.624C2.337 17.113 2 17.523 2 18v1c0 .552.447 1 1 1 2.783 0 4.906-.771 6.309-2.292C11.196 15.66 11.006 13.03 11 13V5zM22 13V5c0-.552-.447-1-1-1h-7c-.553 0-1 .448-1 1v8c0 .552.447 1 1 1h3.078c-.021.402-.123.912-.429 1.396-.508.801-1.465 1.348-2.846 1.624C13.337 17.113 13 17.523 13 18v1c0 .552.447 1 1 1 2.783 0 4.906-.771 6.309-2.292C22.196 15.66 22.006 13.03 22 13z"/></svg>