<svg xmlns="http://www.w3.org/2000/svg" width="24" height="24" viewBox="0 0 24 24"><path d="M21,5H3C2.447,5,2,5.447,2,6v4c0,0.553,0.447,1,1,1c0.827,0,1.5,0.673,1.5,1.5S3.827,14,3,14c-0.553,0-1,0.447-1,1v3 c0,0.553,0.447,1,1,1h18c0.553,0,1-0.447,1-1v-3c0-0.553-0.447-1-1-1c-0.827,0-1.5-0.673-1.5-1.5S20.173,11,21,11 c0.553,0,1-0.447,1-1V6C22,5.447,21.553,5,21,5z M8,10c0-0.553,0.447-1,1-1s1,0.447,1,1s-0.447,1-1,1S8,10.553,8,10z M9.168,14.445 l4-6l1.664,1.109l-4,6L9.168,14.445z M15,15c-0.553,0-1-0.447-1-1s0.447-1,1-1s1,0.447,1,1S15.553,15,15,15z"/></svg>