<svg xmlns="http://www.w3.org/2000/svg" width="24" height="24" viewBox="0 0 24 24"><path d="M12 21.5c1.387 0 2.5-1.113 2.5-2.5h-5C9.5 20.387 10.613 21.5 12 21.5zM20 18c.007.001.015.001.02 0 .553 0 1-.447 1-1 0-.18-.047-.349-.131-.495L20 13.838V10c0-3.94-2.942-7.34-6.906-7.915l-1.013-.082c-.054-.004-.107-.004-.161 0L10.857 2.09C8.959 2.363 7.292 3.311 6.074 4.66L3.707 2.293 2.293 3.707l18 18 1.414-1.414L19.414 18H20zM4 10v3.838l-.948 2.846c-.103.305-.051.641.137.901C3.377 17.846 3.679 18 4 18h9.879L4.19 8.312C4.07 8.858 4 9.422 4 10z"/></svg>