<svg xmlns="http://www.w3.org/2000/svg" width="24" height="24" viewBox="0 0 24 24"><path d="M21.447,7.105l-6-3c-0.025-0.013-0.053-0.017-0.078-0.027c-0.041-0.017-0.081-0.032-0.123-0.043	c-0.04-0.01-0.079-0.015-0.119-0.021C15.085,4.01,15.043,4.004,15,4.004s-0.085,0.006-0.127,0.011	c-0.04,0.006-0.08,0.011-0.119,0.021c-0.042,0.011-0.082,0.026-0.123,0.043c-0.025,0.011-0.053,0.015-0.078,0.027L9,6.882	L3.447,4.105c-0.31-0.154-0.679-0.14-0.973,0.044C2.18,4.332,2,4.653,2,5v11c0,0.379,0.214,0.725,0.553,0.895l6,3	c0.015,0.008,0.031,0.004,0.047,0.011C8.728,19.962,8.862,20,9,20s0.272-0.038,0.4-0.095c0.016-0.007,0.032-0.003,0.047-0.011	L15,17.118l5.553,2.776C20.694,19.965,20.847,20,21,20c0.183,0,0.365-0.05,0.525-0.149C21.82,19.668,22,19.347,22,19V8	C22,7.621,21.786,7.275,21.447,7.105z M10,8.618l4-2v8.764l-4,2V8.618z"/></svg>