<svg xmlns="http://www.w3.org/2000/svg" width="24" height="24" viewBox="0 0 24 24"><path d="M12,2C6.486,2,2,6.486,2,12s4.486,10,10,10s10-4.486,10-10S17.514,2,12,2z M4.264,14h3.16	c0.504,1.149,1.427,2.072,2.576,2.576v3.161C7.196,19.011,4.989,16.804,4.264,14z M10,4.263v3.161C8.851,7.928,7.928,8.851,7.424,10	h-3.16C4.989,7.196,7.196,4.989,10,4.263z M12,15c-1.654,0-3-1.346-3-3s1.346-3,3-3s3,1.346,3,3S13.654,15,12,15z M14,16.576	c1.149-0.504,2.072-1.427,2.576-2.576h3.16c-0.726,2.804-2.933,5.011-5.736,5.737V16.576z M16.576,10	C16.072,8.851,15.149,7.928,14,7.424V4.263c2.804,0.726,5.011,2.933,5.736,5.737H16.576z"/></svg>