<svg xmlns="http://www.w3.org/2000/svg" width="24" height="24" viewBox="0 0 24 24"><path d="M18 14h-5v7h6c.553 0 1-.447 1-1v-6h-1H18zM5 14H4v6c0 .553.448 1 1 1h6v-7H6 5zM21 8h-2.209C18.922 7.589 19 7.096 19 6.5 19 4.57 17.43 3 15.5 3c-1.689 0-2.803 1.434-3.5 2.882C11.303 4.434 10.19 3 8.5 3 6.57 3 5 4.57 5 6.5 5 7.096 5.079 7.589 5.209 8H3C2.448 8 2 8.448 2 9v2c0 .552.448 1 1 1h8v-2h2v2h8c.553 0 1-.448 1-1V9C22 8.448 21.553 8 21 8zM15.5 5C16.327 5 17 5.673 17 6.5 17 8 16.374 8 16 8h-2.694C13.757 6.632 14.557 5 15.5 5zM7 6.5C7 5.673 7.673 5 8.5 5c.888 0 1.714 1.525 2.198 3H8C7.626 8 7 8 7 6.5z"/></svg>