<svg xmlns="http://www.w3.org/2000/svg" width="24" height="24" viewBox="0 0 24 24"><path d="M15,5H9c-3.848,0-6.984,3.132-7,6.988C2,11.992,2,11.996,2,12v0.016c0,0.003,0,0.007,0,0.01C2.014,15.873,5.151,19,9,19h6 c3.854,0,6.995-3.136,7-6.994c0,0,0-0.001,0-0.001c0-0.001,0-0.003,0-0.005c0-0.003,0-0.007,0-0.01C21.985,8.134,18.85,5,15,5z M12,13h-2v2H8v-2H6v-2h2V9h2v2h2V13z M15,14c-0.553,0-1-0.447-1-1s0.447-1,1-1s1,0.447,1,1S15.553,14,15,14z M17,12 c-0.553,0-1-0.447-1-1s0.447-1,1-1s1,0.447,1,1S17.553,12,17,12z"/></svg>