<svg xmlns="http://www.w3.org/2000/svg" width="24" height="24" viewBox="0 0 24 24"><path d="M21.976,9.746c-0.1-0.382-0.414-0.669-0.804-0.734l-5.497-0.917l-2.772-5.544c-0.34-0.678-1.449-0.678-1.789,0L8.341,8.095	L2.844,9.012C2.454,9.077,2.14,9.364,2.04,9.746s0.035,0.786,0.343,1.033l4.48,3.584l-1.817,6.36	c-0.115,0.402,0.034,0.835,0.372,1.082c0.34,0.247,0.797,0.257,1.145,0.024l5.445-3.63l5.445,3.63	c0.168,0.112,0.361,0.168,0.555,0.168c0.207,0,0.414-0.064,0.59-0.192c0.338-0.247,0.487-0.68,0.372-1.082l-1.817-6.36l4.48-3.584	C21.94,10.532,22.075,10.128,21.976,9.746z M15.383,13.217c-0.314,0.252-0.447,0.668-0.337,1.056l1.253,4.385l-3.736-2.491	c-0.168-0.112-0.361-0.168-0.555-0.168V5.234l2.105,4.211c0.144,0.286,0.415,0.486,0.73,0.539l3.79,0.632L15.383,13.217z"/></svg>