<svg xmlns="http://www.w3.org/2000/svg" width="24" height="24" viewBox="0 0 24 24"><path d="M6.453,21.083c0.188,0.188,0.441,0.293,0.707,0.293s0.52-0.105,0.707-0.293l3.795-3.795 c0.716,0.222,1.459,0.333,2.217,0.333c2.003,0,3.887-0.78,5.302-2.195c2.146-2.147,2.787-5.349,1.632-8.158 c-0.127-0.309-0.4-0.535-0.729-0.6c-0.329-0.066-0.666,0.037-0.903,0.273l-3.183,3.182l-2.121-2.122l3.182-3.182 c0.236-0.236,0.339-0.576,0.273-0.903c-0.065-0.328-0.291-0.602-0.601-0.729c-0.909-0.374-1.87-0.563-2.856-0.563 c-2.003,0-3.886,0.78-5.301,2.196c-1.985,1.984-2.683,4.873-1.862,7.519l-3.795,3.794c-0.188,0.188-0.293,0.442-0.293,0.707 s0.105,0.52,0.293,0.707L6.453,21.083z"/></svg>