<svg xmlns="http://www.w3.org/2000/svg" width="24" height="24" viewBox="0 0 24 24"><path d="M2.984 21h13c.553 0 1-.447 1-1 0-2.99-1.763-5.569-4.3-6.773.925-.861 1.514-2.079 1.514-3.44 0-2.6-2.114-4.715-4.714-4.715S4.771 7.187 4.771 9.786c0 1.361.589 2.579 1.514 3.44-2.537 1.204-4.3 3.783-4.3 6.773C1.984 20.553 2.432 21 2.984 21zM15.797 11.789c-.39.386-.396 1.013-.015 1.406l.534.549C17.947 15.206 19 17.661 19 20v1h2v-1c0-2.863-1.229-5.768-3.171-7.58.494-.803.76-1.796.746-2.845-.022-1.63-.712-3.199-1.892-4.305l-1.367 1.459c.785.736 1.244 1.783 1.259 2.873C16.587 10.49 16.304 11.288 15.797 11.789z"/></svg>